<svg width="847" height="447" viewBox="0 0 847 447" fill="none" xmlns="http://www.w3.org/2000/svg">
<g filter="url(#filter0_d_0_1)">
<path d="M792.5 55.3H55.2V391.6H792.5V55.3Z" fill="#08151B" stroke="#C76931" stroke-width="9" stroke-miterlimit="10"/>
<path d="M301 67V379.9" stroke="#F6F4D4" stroke-width="3" stroke-miterlimit="10"/>
<path d="M579.6 71L579 374.5" stroke="#F6F4D4" stroke-width="3" stroke-miterlimit="10"/>
<path opacity="0.77" d="M371.115 126.2C369.668 126.2 368.276 126.011 366.941 125.633C365.605 125.232 364.558 124.731 363.801 124.13L365.137 121.592C365.917 122.148 366.863 122.594 367.976 122.928C369.089 123.262 370.213 123.429 371.349 123.429C374.154 123.429 375.557 122.627 375.557 121.024C375.557 120.49 375.367 120.067 374.989 119.755C374.61 119.443 374.132 119.221 373.553 119.087C372.996 118.931 372.195 118.764 371.148 118.586C369.724 118.364 368.555 118.108 367.642 117.818C366.751 117.529 365.983 117.039 365.338 116.349C364.692 115.659 364.369 114.69 364.369 113.443C364.369 111.84 365.037 110.56 366.373 109.603C367.709 108.623 369.501 108.134 371.75 108.134C372.93 108.134 374.109 108.278 375.289 108.568C376.469 108.857 377.438 109.247 378.195 109.737L376.826 112.275C375.379 111.339 373.675 110.872 371.716 110.872C370.358 110.872 369.323 111.095 368.61 111.54C367.898 111.985 367.542 112.575 367.542 113.31C367.542 113.889 367.742 114.345 368.143 114.679C368.544 115.013 369.033 115.258 369.612 115.414C370.213 115.57 371.048 115.748 372.117 115.948C373.542 116.193 374.688 116.46 375.557 116.75C376.447 117.017 377.204 117.484 377.827 118.152C378.451 118.82 378.763 119.755 378.763 120.957C378.763 122.56 378.072 123.84 376.692 124.798C375.334 125.733 373.475 126.2 371.115 126.2ZM390.484 126.2C388.68 126.2 387.066 125.811 385.641 125.032C384.239 124.252 383.137 123.184 382.335 121.826C381.534 120.445 381.133 118.887 381.133 117.15C381.133 115.414 381.534 113.866 382.335 112.508C383.137 111.128 384.239 110.059 385.641 109.302C387.066 108.523 388.68 108.134 390.484 108.134C392.086 108.134 393.511 108.456 394.758 109.102C396.027 109.748 397.007 110.683 397.697 111.907L395.259 113.477C394.702 112.631 394.012 111.996 393.189 111.573C392.365 111.15 391.452 110.939 390.45 110.939C389.292 110.939 388.246 111.195 387.311 111.707C386.398 112.219 385.675 112.954 385.14 113.911C384.628 114.846 384.372 115.926 384.372 117.15C384.372 118.397 384.628 119.499 385.14 120.456C385.675 121.391 386.398 122.115 387.311 122.627C388.246 123.139 389.292 123.395 390.45 123.395C391.452 123.395 392.365 123.184 393.189 122.761C394.012 122.338 394.702 121.703 395.259 120.857L397.697 122.393C397.007 123.618 396.027 124.564 394.758 125.232C393.511 125.878 392.086 126.2 390.484 126.2ZM411.07 108.134C413.319 108.134 415.1 108.79 416.413 110.104C417.749 111.395 418.417 113.299 418.417 115.814V126H415.211V116.182C415.211 114.468 414.799 113.176 413.975 112.308C413.152 111.44 411.972 111.006 410.436 111.006C408.699 111.006 407.33 111.518 406.328 112.542C405.326 113.544 404.825 114.991 404.825 116.883V126H401.619V101.221H404.825V110.805C405.493 109.959 406.361 109.302 407.43 108.835C408.521 108.367 409.734 108.134 411.07 108.134ZM440.444 117.25C440.444 117.495 440.422 117.818 440.378 118.219H426.018C426.218 119.777 426.897 121.035 428.055 121.993C429.235 122.928 430.693 123.395 432.429 123.395C434.545 123.395 436.248 122.683 437.539 121.258L439.309 123.328C438.507 124.263 437.506 124.976 436.303 125.466C435.123 125.955 433.799 126.2 432.329 126.2C430.459 126.2 428.801 125.822 427.353 125.065C425.906 124.286 424.782 123.206 423.98 121.826C423.201 120.445 422.812 118.887 422.812 117.15C422.812 115.436 423.19 113.889 423.947 112.508C424.726 111.128 425.784 110.059 427.12 109.302C428.478 108.523 430.003 108.134 431.695 108.134C433.387 108.134 434.89 108.523 436.203 109.302C437.539 110.059 438.574 111.128 439.309 112.508C440.066 113.889 440.444 115.469 440.444 117.25ZM431.695 110.839C430.159 110.839 428.867 111.306 427.821 112.241C426.797 113.176 426.196 114.401 426.018 115.915H437.372C437.194 114.423 436.582 113.21 435.535 112.275C434.511 111.317 433.231 110.839 431.695 110.839ZM461.594 101.221V126H458.521V123.195C457.809 124.174 456.907 124.92 455.816 125.432C454.725 125.944 453.523 126.2 452.21 126.2C450.495 126.2 448.959 125.822 447.601 125.065C446.243 124.308 445.174 123.25 444.395 121.892C443.638 120.512 443.26 118.931 443.26 117.15C443.26 115.369 443.638 113.8 444.395 112.442C445.174 111.083 446.243 110.026 447.601 109.269C448.959 108.512 450.495 108.134 452.21 108.134C453.479 108.134 454.647 108.378 455.716 108.868C456.785 109.336 457.675 110.037 458.388 110.972V101.221H461.594ZM452.477 123.395C453.59 123.395 454.603 123.139 455.516 122.627C456.429 122.093 457.141 121.358 457.653 120.423C458.165 119.466 458.421 118.375 458.421 117.15C458.421 115.926 458.165 114.846 457.653 113.911C457.141 112.954 456.429 112.219 455.516 111.707C454.603 111.195 453.59 110.939 452.477 110.939C451.341 110.939 450.317 111.195 449.404 111.707C448.514 112.219 447.801 112.954 447.267 113.911C446.755 114.846 446.499 115.926 446.499 117.15C446.499 118.375 446.755 119.466 447.267 120.423C447.801 121.358 448.514 122.093 449.404 122.627C450.317 123.139 451.341 123.395 452.477 123.395ZM484.157 108.301V126H481.118V123.328C480.472 124.241 479.615 124.954 478.546 125.466C477.5 125.955 476.354 126.2 475.107 126.2C472.747 126.2 470.888 125.555 469.53 124.263C468.172 122.95 467.493 121.024 467.493 118.486V108.301H470.699V118.119C470.699 119.833 471.11 121.135 471.934 122.026C472.758 122.894 473.938 123.328 475.474 123.328C477.166 123.328 478.502 122.816 479.482 121.792C480.461 120.768 480.951 119.321 480.951 117.451V108.301H484.157ZM490.26 101.221H493.466V126H490.26V101.221ZM515.584 117.25C515.584 117.495 515.561 117.818 515.517 118.219H501.157C501.357 119.777 502.036 121.035 503.194 121.993C504.374 122.928 505.832 123.395 507.569 123.395C509.684 123.395 511.387 122.683 512.678 121.258L514.448 123.328C513.647 124.263 512.645 124.976 511.443 125.466C510.263 125.955 508.938 126.2 507.469 126.2C505.598 126.2 503.94 125.822 502.493 125.065C501.046 124.286 499.921 123.206 499.12 121.826C498.341 120.445 497.951 118.887 497.951 117.15C497.951 115.436 498.329 113.889 499.086 112.508C499.866 111.128 500.923 110.059 502.259 109.302C503.617 108.523 505.142 108.134 506.834 108.134C508.526 108.134 510.029 108.523 511.342 109.302C512.678 110.059 513.714 111.128 514.448 112.508C515.205 113.889 515.584 115.469 515.584 117.25ZM506.834 110.839C505.298 110.839 504.007 111.306 502.96 112.241C501.936 113.176 501.335 114.401 501.157 115.915H512.511C512.333 114.423 511.721 113.21 510.675 112.275C509.65 111.317 508.37 110.839 506.834 110.839Z" fill="#F6F4D2"/>
<g opacity="0.72">
<g opacity="0.72">
<path opacity="0.72" d="M124.414 181.927C138.003 176.127 153.343 180.127 167.241 182.027C174.447 183.027 181.757 183.527 189.066 182.527C197.199 181.327 204.817 178.127 213.053 177.727C221.907 177.227 230.761 178.927 238.688 182.827C240.438 183.727 241.982 181.127 240.232 180.227C233.129 176.827 225.304 174.927 217.377 174.727C213.362 174.627 209.244 175.027 205.229 175.827C201.008 176.627 196.89 177.927 192.669 178.927C177.433 182.427 162.196 177.727 146.96 176.427C138.724 175.727 130.385 176.227 122.767 179.527C121.017 180.027 122.561 182.627 124.414 181.927Z" fill="#F6F4D4"/>
</g>
</g>
<g opacity="0.72">
<g opacity="0.72">
<path opacity="0.72" d="M123.796 234.326C137.9 233.926 152.004 233.426 166.006 233.026C169.403 232.926 172.8 232.826 176.095 233.626C179.286 234.326 182.272 235.726 185.36 236.626C191.743 238.526 198.435 238.526 205.023 238.326C212.951 238.226 220.878 238.026 228.702 237.926C230.658 237.926 230.658 234.926 228.702 234.926C221.701 235.026 214.701 235.226 207.803 235.326C201.111 235.426 194.111 235.826 187.625 234.126C184.434 233.326 181.551 231.926 178.36 231.126C175.168 230.226 171.874 230.026 168.579 230.026C161.682 230.126 154.681 230.426 147.784 230.626C139.856 230.926 131.826 231.126 123.899 231.426C121.84 231.326 121.737 234.326 123.796 234.326Z" fill="#F6F4D4"/>
</g>
</g>
<g opacity="0.72">
<g opacity="0.72">
<path opacity="0.72" d="M126.061 288.327C137.592 283.227 150.769 287.126 162.711 288.226C169.094 288.826 175.374 288.527 181.654 287.327C188.14 286.127 194.523 284.327 201.111 283.827C207.7 283.327 214.495 283.927 220.054 287.427C221.701 288.427 223.245 285.927 221.598 284.827C210.377 277.827 196.582 281.226 184.639 283.726C177.948 285.126 171.359 285.927 164.461 285.427C157.976 284.927 151.593 283.726 145.21 283.126C138.106 282.526 131.003 282.826 124.517 285.726C122.664 286.526 124.208 289.127 126.061 288.327Z" fill="#F6F4D4"/>
</g>
</g>
<g opacity="0.72">
<g opacity="0.72">
<path opacity="0.72" d="M652.648 171.826C653.574 169.426 656.251 168.226 658.516 167.626C661.501 166.826 664.59 166.726 667.678 166.826C674.782 167.026 681.679 168.526 688.68 169.526C695.474 170.426 702.063 170.426 708.858 169.426C715.241 168.526 721.624 167.026 728.109 166.326C734.904 165.626 741.905 165.926 747.979 169.326C749.729 170.326 751.273 167.726 749.523 166.726C737.478 159.926 723.168 164.126 710.402 166.126C703.196 167.326 696.195 167.526 688.989 166.526C681.576 165.526 674.164 163.926 666.649 163.826C660.369 163.726 652.236 164.626 649.559 171.026C648.941 172.826 651.927 173.526 652.648 171.826Z" fill="#F6F4D4"/>
</g>
</g>
<g opacity="0.72">
<g opacity="0.72">
<path opacity="0.72" d="M629.896 120.826C631.034 118.426 634.321 117.226 637.103 116.626C640.769 115.826 644.562 115.726 648.355 115.826C657.079 116.026 665.551 117.526 674.148 118.526C682.493 119.426 690.585 119.426 698.93 118.426C706.769 117.526 714.608 116.026 722.573 115.326C730.918 114.626 739.516 114.926 746.975 118.326C749.125 119.326 751.021 116.726 748.872 115.726C734.079 108.926 716.504 113.126 700.826 115.126C691.976 116.326 683.378 116.526 674.528 115.526C665.424 114.526 656.321 112.926 647.091 112.826C639.378 112.726 629.39 113.626 626.103 120.026C625.344 121.826 629.011 122.526 629.896 120.826Z" fill="#F6F4D4"/>
</g>
</g>
<g opacity="0.72">
<g opacity="0.72">
<path opacity="0.72" d="M115.896 121.826C117.034 119.426 120.321 118.226 123.103 117.626C126.769 116.826 130.562 116.726 134.355 116.826C143.079 117.026 151.551 118.526 160.148 119.526C168.493 120.426 176.585 120.426 184.93 119.426C192.769 118.526 200.608 117.026 208.573 116.326C216.918 115.626 225.516 115.926 232.975 119.326C235.125 120.326 237.021 117.726 234.872 116.726C220.079 109.926 202.504 114.126 186.826 116.126C177.976 117.326 169.378 117.526 160.528 116.526C151.424 115.526 142.321 113.926 133.091 113.826C125.378 113.726 115.39 114.626 112.103 121.026C111.344 122.826 115.011 123.526 115.896 121.826Z" fill="#F6F4D4"/>
</g>
</g>
<g opacity="0.72">
<g opacity="0.72">
<path opacity="0.72" d="M650.486 210.826C663.457 208.626 676.223 214.226 689.297 212.826C695.577 212.126 701.651 210.326 707.828 209.126C713.902 207.926 720.079 207.626 726.153 208.626C732.845 209.626 739.228 211.926 744.993 215.326C746.743 216.326 748.288 213.726 746.537 212.726C736.037 206.426 723.374 203.926 711.226 205.626C704.637 206.526 698.254 208.526 691.665 209.526C684.974 210.526 678.282 209.826 671.693 208.826C664.384 207.726 657.074 206.626 649.662 207.926C647.706 208.226 648.529 211.126 650.486 210.826Z" fill="#F6F4D4"/>
</g>
</g>
<g opacity="0.72">
<g opacity="0.72">
<path opacity="0.72" d="M655.118 258.026C660.986 257.226 666.957 256.426 672.825 256.326C678.694 256.226 684.459 257.026 690.121 258.626C695.577 260.126 701.034 261.726 706.696 262.426C712.461 263.026 718.226 262.926 723.991 262.426C730.477 261.826 736.963 260.826 743.449 259.826C745.405 259.526 744.581 256.626 742.625 256.926C731.198 258.726 719.462 260.626 707.828 259.526C702.063 259.026 696.607 257.326 691.048 255.826C685.488 254.226 679.826 253.326 673.958 253.326C667.266 253.326 660.677 254.226 654.192 255.126C652.339 255.426 653.162 258.326 655.118 258.026Z" fill="#F6F4D4"/>
</g>
</g>
<g opacity="0.72">
<g opacity="0.72">
<path opacity="0.72" d="M658.104 306.027C663.663 303.727 669.531 306.527 674.782 308.227C677.664 309.127 680.65 309.927 683.738 310.027C687.341 310.127 690.739 309.227 694.239 308.727C706.387 306.827 718.535 309.927 730.683 309.527C737.169 309.327 743.552 307.927 749.008 304.427C750.655 303.327 749.111 300.727 747.464 301.827C737.478 308.427 724.815 306.627 713.594 305.627C707.622 305.127 701.548 304.727 695.577 305.527C692.18 305.927 688.783 306.827 685.282 307.027C682.091 307.127 679.105 306.427 676.12 305.527C670.149 303.627 663.663 300.627 657.383 303.127C656.559 303.427 656.045 304.127 656.354 304.927C656.456 305.727 657.383 306.327 658.104 306.027Z" fill="#F6F4D4"/>
</g>
</g>
<g opacity="0.72">
<g opacity="0.72">
<path opacity="0.72" d="M358.006 176.527C360.065 173.327 365.11 172.327 368.713 171.727C374.066 170.727 379.729 170.727 385.185 170.827C397.127 171.027 408.966 172.627 420.908 173.627C432.336 174.627 443.763 174.527 455.191 173.527C466.206 172.527 477.119 170.927 488.134 170.227C499.665 169.527 511.504 169.727 522.519 173.527C524.373 174.227 525.196 171.327 523.343 170.627C513.357 167.127 502.65 166.527 492.149 166.927C480.825 167.427 469.604 168.927 458.382 170.127C446.646 171.327 435.115 171.627 423.276 170.727C411.025 169.827 398.877 168.127 386.523 167.727C380.243 167.527 373.964 167.627 367.787 168.727C363.36 169.527 357.903 170.927 355.227 174.927C354.3 176.627 356.977 178.127 358.006 176.527Z" fill="#F6F4D4"/>
</g>
</g>
<g opacity="0.72">
<g opacity="0.72">
<path opacity="0.72" d="M354.918 217.326C376.846 214.926 398.568 220.726 420.599 219.426C431.512 218.826 442.219 216.727 453.028 215.527C463.426 214.327 473.927 214.026 484.428 214.926C495.649 215.926 506.768 218.226 517.372 222.126C519.225 222.826 520.048 219.926 518.195 219.226C499.15 212.126 477.942 210.026 457.764 211.926C446.851 212.926 436.042 215.127 425.129 216.027C414.011 217.027 402.995 216.226 391.876 215.226C379.625 214.126 367.272 212.826 355.021 214.226C352.962 214.526 352.962 217.526 354.918 217.326Z" fill="#F6F4D4"/>
</g>
</g>
<g opacity="0.72">
<g opacity="0.72">
<path opacity="0.72" d="M362.639 267.227C372.522 266.427 382.405 265.527 392.288 265.427C402.171 265.227 411.952 265.926 421.732 267.626C431.306 269.226 440.777 271.127 450.455 271.827C460.338 272.527 470.221 272.427 480.001 271.927C491.017 271.327 502.032 270.327 513.048 269.227C515.004 269.027 515.004 266.027 513.048 266.227C493.591 268.127 473.927 270.127 454.367 269.027C444.587 268.527 435.115 266.927 425.438 265.227C415.658 263.527 405.981 262.427 396.097 262.427C384.876 262.427 373.757 263.327 362.639 264.327C360.683 264.327 360.683 267.427 362.639 267.227Z" fill="#F6F4D4"/>
</g>
</g>
<g opacity="0.72">
<g opacity="0.72">
<path opacity="0.72" d="M368.301 317.826C378.39 315.226 388.788 318.526 398.671 320.426C403.922 321.426 409.172 322.126 414.525 322.026C420.291 321.926 425.953 321.026 431.615 320.526C451.793 318.826 471.971 321.926 492.149 321.526C502.547 321.326 513.048 320.126 522.725 316.126C523.549 315.826 523.652 314.726 523.24 314.026C522.828 313.226 521.902 313.126 521.078 313.526C512.636 317.026 503.371 318.126 494.208 318.426C484.222 318.726 474.236 318.126 464.353 317.626C454.264 317.126 444.072 316.626 433.983 317.326C428.424 317.726 422.967 318.526 417.511 318.926C412.055 319.326 406.701 318.926 401.348 317.926C390.229 315.926 378.802 312.026 367.478 314.926C365.522 315.426 366.345 318.326 368.301 317.826Z" fill="#F6F4D4"/>
</g>
</g>
</g>
<path d="M178.9 225.1C184.8 239 193 251.2 202.4 263C211.8 274.9 222.8 284.4 234.9 293.6C244.5 301 260.5 299.3 270.2 293.6C281.2 287.2 287 275.9 287.5 263.4C288.4 243.7 289.3 224 290.2 204.4C270.3 212.6 250.4 220.9 230.5 229.1C250.2 245.3 269 262.5 286.9 280.7C295.6 289.6 309 293 321 289.7C331.9 286.7 343.4 276.9 345.4 265.3C348 250.4 349.5 235.5 348.2 220.4C328.3 228.6 308.4 236.9 288.5 245.1C307.1 267.5 329.4 286.7 353.5 303C363.7 309.9 378.5 309 388.8 303C394.1 299.9 398.2 295.7 401.4 290.4C404.6 284.9 406.2 279.1 406.2 272.7C407.5 261.3 408.8 249.8 410.1 238.4C409.7 241.5 409.3 244.6 408.8 247.7C409 246.4 409.2 245.2 409.6 243.9C408.4 246.7 407.2 249.5 406.1 252.3C406.3 251.9 406.5 251.6 406.7 251.2C404.9 253.6 403.1 255.9 401.2 258.3C401.5 258 401.7 257.7 402 257.4C399.6 259.2 397.3 261 394.9 262.9C395.2 262.7 395.6 262.5 395.9 262.2C393.1 263.4 390.3 264.6 387.5 265.7C387.9 265.6 388.4 265.5 388.8 265.4C385.7 265.8 382.6 266.2 379.5 266.7C380 266.7 380.4 266.8 380.9 266.8C377.8 266.4 374.7 266 371.6 265.5C372 265.7 372.5 265.8 372.9 266C370.1 264.8 367.3 263.6 364.5 262.5C364.9 262.8 365.4 263 365.8 263.3C363.4 261.5 361.1 259.7 358.7 257.8C366.6 263.9 373.4 271.8 380.5 278.8C387.9 286.1 395.4 293.3 402.8 300.6C412.9 310.5 428 313.3 441 307.8C446.8 305.4 451.2 302 455 297C460.1 290.5 461.7 284.1 462.5 275.8C464.3 256.9 466.2 238 468 219.1C448.1 227.3 428.2 235.6 408.3 243.8C425.5 260.5 442.9 277.1 460.3 293.6C470.6 303.4 485.4 306.4 498.5 300.8C512 295.1 518.9 283.1 520 268.8C521.3 252.5 522.6 236.2 523.8 220C506.2 230.1 488.7 240.1 471.1 250.2C497.1 267.4 523.1 284.6 549.1 301.8C561.5 310 581.5 307.2 591.5 296.3C602.6 284.3 604.2 268.4 597 253.9C593.8 247.4 590.7 240.7 587.8 234C589 236.8 590.2 239.6 591.3 242.4C583.8 224.4 577.7 205.9 573.2 187C553.7 198.4 534.2 209.7 514.7 221.1C529.8 237.9 545 254.7 560.1 271.4C567 279.1 573.6 287.9 581.5 294.7C588.5 300.8 596 306 605.2 308.2C612 309.9 620.2 310.2 626.9 308.1C634.3 305.8 639.2 302.3 645.1 297.5C655 289.5 656.4 274.9 654.1 263.4C650.6 246.1 647.1 228.7 643.6 211.4C626.5 224.6 609.3 237.8 592.2 250.9C594 252.2 595.9 253.6 597.7 255C595.3 253.2 593 251.4 590.6 249.5C603.6 259.7 615.3 271.3 625.5 284.3C623.7 281.9 621.9 279.6 620 277.2C621.4 279 622.7 280.8 624.1 282.7C629.4 289.9 635.8 296.7 645 298.8C652.8 300.6 660.4 300.2 667.8 297C674.5 294.2 681 289.3 684.5 282.7C689.1 273.9 689.7 265.5 688 255.7C685.2 238.8 682.3 221.9 679.5 205C657 211.2 634.5 217.4 612 223.6C617.2 240 625.3 253.9 636.6 266.8C648.7 280.6 673.9 280.1 686.1 266.8C699.6 252.1 699 232 686.1 217.3C685 216 683.9 214.7 682.8 213.4C684.6 215.8 686.4 218.1 688.3 220.5C684.5 215.5 681.4 210.3 678.8 204.6C680 207.4 681.2 210.2 682.3 213C681.2 210.4 680.2 207.8 679.4 205.1C676.7 196.5 671.2 188.8 663.3 184.2C655.8 179.8 644.7 177.9 636.3 180.7C627.8 183.4 619.7 188.7 615.4 196.8C610.8 205.6 610.2 214 611.9 223.8C614.7 240.7 617.6 257.6 620.4 274.5C641.7 265.5 663 256.5 684.4 247.5C668.2 225.2 649.8 206.8 627.4 190.6C622.9 187.3 615.2 185.8 609.7 185.8C601.9 185.8 594.6 188.6 588.5 193.3C576.9 202.2 573.1 216 576 230.1C579.5 247.4 583 264.8 586.5 282.1C589.5 270.7 592.5 259.4 595.5 248C595.1 248.3 594.8 248.6 594.4 248.9C596.8 247.1 599.1 245.3 601.5 243.4C601.1 243.6 600.7 243.8 600.4 244C603.2 242.8 606 241.6 608.8 240.5C608.4 240.6 608 240.7 607.6 240.8C610.7 240.4 613.8 240 616.9 239.5C616.1 239.6 615.2 239.6 614.4 239.5C617.5 239.9 620.6 240.3 623.7 240.8C622.8 240.6 621.9 240.4 621.1 240C623.9 241.2 626.7 242.4 629.5 243.5C628.1 242.8 626.9 242.1 625.6 241.2C628 243 630.3 244.8 632.7 246.7C626.5 241.9 621.5 235.2 616.2 229.3C610.4 222.9 604.6 216.5 598.8 210.1C587.2 197.3 575.6 184.4 564.1 171.6C554.1 160.6 534.2 158.1 521.7 166.1C508.3 174.7 501.9 190 505.6 205.6C512.5 234.6 523.1 262.6 536.4 289.3C552.4 273.3 568.3 257.4 584.3 241.4C558.3 224.2 532.3 207 506.3 189.8C496 183 481.3 183.7 471 189.8C459.7 196.4 454.7 207.4 453.7 220C452.4 236.3 451.1 252.6 449.9 268.8C469.8 260.6 489.7 252.3 509.6 244.1C492.2 227.6 474.8 211 457.6 194.3C447.4 184.4 432.4 181.6 419.4 187.1C413.6 189.5 409.2 192.9 405.4 197.9C400.3 204.4 398.7 210.8 397.9 219.1C396.1 238 394.2 256.9 392.4 275.8C412.3 267.6 432.2 259.3 452.1 251.1C444.2 243.4 436.3 235.7 428.4 228C418.4 218.3 408.4 205.8 395.4 200.3C380.6 194.1 363.9 196.5 352.1 207.9C343.1 216.6 341 227.6 339.6 239.5C338.3 250.6 337 261.7 335.8 272.8C353.4 262.7 370.9 252.7 388.5 242.6C383.2 239 378 235.3 373 231.4C375.4 233.2 377.7 235 380.1 236.9C364.5 224.7 350.3 210.9 337.7 195.7C334.2 191.5 327.4 188.1 322.3 186.7C314.7 184.6 306.7 185.4 299.5 188.5C287.6 193.5 276.8 206.8 278 220.5C278.9 230.5 278.6 240.5 277.3 250.5C277.7 247.4 278.1 244.3 278.6 241.2C278.3 243.1 278 244.9 277.7 246.8C297.2 241.7 316.7 236.5 336.2 231.4C318.3 213.2 299.5 196 279.8 179.8C275.1 176 270.3 172.4 264.4 170.8C256.8 168.7 248.8 169.5 241.6 172.6C228.5 178.1 220.7 190.4 220.1 204.6C219.2 224.3 218.3 244 217.4 263.6C235 253.5 252.5 243.5 270.1 233.4C269.7 233.1 269.2 232.7 268.8 232.4C271.2 234.2 273.5 236 275.9 237.9C266.9 230.8 258.9 222.7 251.8 213.7C253.6 216.1 255.4 218.4 257.3 220.8C250 211.3 244 201 239.3 189.9C236.1 182.4 225.8 175.9 218.4 173.8C210 171.5 198.9 172.5 191.4 177.3C183.9 182.1 177.3 189.3 175.3 198.2C174.9 201.3 174.5 204.4 174 207.5C174.1 213.7 175.7 219.6 178.9 225.1Z" fill="#08151B"/>
<path d="M251 299.3C264.8 299 278.6 299.4 292.4 299.9C306.1 300.4 319.7 298.3 333.3 297C361.5 294.3 390 294.2 418.3 293.4C436.6 292.9 454.2 277.7 453.3 258.4C452.5 239.9 437.9 222.8 418.3 223.4C390 224.2 361.5 224.3 333.3 227C320 228.3 306.7 230.4 293.4 230C279.3 229.6 265.2 229.1 251.1 229.4C232.8 229.8 215.2 245.2 216.1 264.4C216.8 282.9 231.4 299.8 251 299.3Z" fill="#08151B"/>
<path d="M490.8 253.5C508.6 259.3 526.3 254.9 542.8 247.6C552.4 243.3 560.9 237.1 570.6 232.9C567.8 234.1 565 235.3 562.2 236.4C565.9 234.9 569.6 233.8 573.6 233.2C570.5 233.6 567.4 234 564.3 234.5C575.7 233.3 587.5 234.1 599 234.2C617.3 234.3 634.8 218 634 199.2C633.1 180.1 618.6 164.3 599 164.2C582.4 164.1 564.3 162.3 548.3 167.2C533.2 171.8 521 181.4 506.7 187.5C509.5 186.3 512.3 185.1 515.1 184C511.4 185.5 507.7 186.6 503.8 187.2C506.9 186.8 510 186.4 513.1 185.9C510.3 186.2 507.7 186.2 505 185.9C508.1 186.3 511.2 186.7 514.3 187.2C512.6 186.9 511.1 186.5 509.5 186C492.1 180.3 470.5 192.6 466.4 210.4C462 229.6 472.2 247.4 490.8 253.5Z" fill="#08151B"/>
<path d="M602 232.4C602.8 216.8 602.5 201.2 601 185.6C600.1 176.1 597.7 167.8 590.7 160.9C584.6 154.8 574.7 150.3 566 150.6C556.9 151 547.6 154 541.3 160.9C535.4 167.4 530.2 176.5 531 185.6C532.5 201.2 532.8 216.8 532 232.4C531 250.7 548.8 268.2 567 267.4C586.8 266.5 600.9 252 602 232.4Z" fill="#08151B"/>
<path d="M264 257.6C256.2 258.2 248.5 258 240.8 257C243.9 257.4 247 257.8 250.1 258.3C241.5 257.1 233.1 254.9 225.1 251.5C217.3 248.3 205 251 198.1 255C190.8 259.2 183.9 267.6 182 275.9C180 284.9 180.4 294.9 185.5 302.9C187.3 305.3 189.1 307.6 191 310C195.4 314.3 200.5 317.3 206.4 319C224.2 326.4 244.7 329.1 263.9 327.6C273.3 326.9 281.8 324.2 288.6 317.3C294.7 311.2 299.2 301.3 298.9 292.6C298.2 274.9 283.5 256.1 264 257.6Z" fill="#08151B"/>
<path d="M665.6 287.8C683.9 287.8 701.4 271.7 700.6 252.8C699.8 233.8 685.2 217.8 665.6 217.8C647.3 217.8 629.8 233.9 630.6 252.8C631.4 271.7 646 287.8 665.6 287.8Z" fill="#08151B"/>
<path d="M408.5 233.7C426.8 233.7 444.3 217.6 443.5 198.7C442.7 179.7 428.1 163.7 408.5 163.7C390.2 163.7 372.7 179.8 373.5 198.7C374.3 217.7 388.8 233.7 408.5 233.7Z" fill="#08151B"/>
<path d="M393 222.4C411.3 222.4 428.8 206.3 428 187.4C427.2 168.4 412.6 152.4 393 152.4C374.7 152.4 357.2 168.5 358 187.4C358.9 206.4 373.4 222.4 393 222.4Z" fill="#08151B"/>
<path d="M358.3 179.4C371.2 179.4 371.2 159.4 358.3 159.4C345.5 159.4 345.5 179.4 358.3 179.4Z" fill="#08151B"/>
<path d="M335.1 186.7C348 186.7 348 166.7 335.1 166.7C322.2 166.7 322.2 186.7 335.1 186.7Z" fill="#08151B"/>
<path d="M343.7 181.8C356.6 181.8 356.6 161.8 343.7 161.8C330.8 161.8 330.8 181.8 343.7 181.8Z" fill="#08151B"/>
<path d="M260.75 226.898C258.534 226.978 256.533 226.571 254.748 225.676C252.989 224.781 251.588 223.517 250.543 221.883C249.496 220.223 248.935 218.325 248.858 216.191C248.781 214.057 249.205 212.138 250.129 210.434C251.053 208.702 252.36 207.34 254.05 206.347C255.767 205.327 257.733 204.776 259.949 204.696C261.919 204.625 263.684 204.959 265.245 205.697C266.833 206.434 268.078 207.54 268.981 209.014L266.054 211.051C265.333 210.036 264.457 209.287 263.426 208.803C262.394 208.32 261.263 208.101 260.032 208.145C258.61 208.196 257.335 208.557 256.209 209.228C255.11 209.898 254.253 210.833 253.639 212.033C253.051 213.205 252.784 214.543 252.839 216.048C252.894 217.58 253.257 218.923 253.929 220.076C254.627 221.202 255.548 222.059 256.693 222.648C257.865 223.235 259.162 223.504 260.585 223.452C261.816 223.408 262.928 223.108 263.922 222.551C264.915 221.995 265.735 221.185 266.382 220.12L269.445 221.9C268.652 223.435 267.49 224.641 265.96 225.518C264.456 226.367 262.72 226.827 260.75 226.898ZM273.327 195.708L277.266 195.565L278.365 226.016L274.426 226.158L273.327 195.708ZM285.103 203.994L289.042 203.852L289.827 225.602L285.887 225.745L285.103 203.994ZM286.921 199.737C286.155 199.765 285.504 199.542 284.966 199.068C284.456 198.593 284.188 198 284.162 197.289C284.136 196.578 284.361 195.967 284.836 195.457C285.337 194.918 285.97 194.635 286.736 194.607C287.502 194.58 288.141 194.803 288.651 195.278C289.187 195.724 289.469 196.303 289.494 197.014C289.521 197.753 289.284 198.392 288.783 198.93C288.308 199.441 287.687 199.71 286.921 199.737ZM306.838 225.235C304.622 225.315 302.621 224.908 300.836 224.014C299.078 223.118 297.676 221.854 296.631 220.22C295.585 218.56 295.023 216.662 294.946 214.528C294.869 212.394 295.293 210.475 296.218 208.771C297.141 207.039 298.448 205.677 300.138 204.684C301.855 203.664 303.821 203.113 306.037 203.033C308.007 202.962 309.772 203.296 311.333 204.034C312.921 204.771 314.166 205.877 315.069 207.351L312.142 209.388C311.421 208.373 310.545 207.624 309.514 207.14C308.483 206.657 307.352 206.438 306.12 206.482C304.698 206.533 303.423 206.894 302.297 207.565C301.198 208.235 300.341 209.17 299.727 210.37C299.139 211.542 298.873 212.88 298.927 214.385C298.982 215.917 299.346 217.26 300.017 218.413C300.715 219.539 301.637 220.396 302.781 220.985C303.953 221.573 305.25 221.841 306.673 221.789C307.904 221.745 309.016 221.445 310.01 220.888C311.003 220.332 311.823 219.522 312.47 218.457L315.534 220.237C314.74 221.772 313.578 222.978 312.048 223.856C310.545 224.704 308.808 225.164 306.838 225.235ZM328.602 214.054L324.239 218.402L324.453 224.353L320.514 224.495L319.415 194.045L323.355 193.902L324.059 213.437L335.529 202.175L340.289 202.003L331.462 211.321L341.977 223.721L337.134 223.895L328.602 214.054ZM367.645 200.81C370.408 200.711 372.626 201.439 374.298 202.995C375.997 204.522 376.902 206.832 377.014 209.924L377.465 222.44L373.526 222.582L373.09 210.517C373.014 208.41 372.451 206.842 371.4 205.811C370.349 204.781 368.88 204.3 366.992 204.368C364.858 204.445 363.199 205.135 362.013 206.438C360.826 207.713 360.275 209.514 360.359 211.839L360.763 223.043L356.823 223.185L355.724 192.734L359.664 192.592L360.089 204.37C360.872 203.301 361.91 202.456 363.203 201.834C364.523 201.211 366.003 200.87 367.645 200.81ZM404.146 210.711C404.157 211.012 404.144 211.41 404.107 211.905L386.461 212.541C386.776 214.448 387.666 215.963 389.131 217.088C390.623 218.185 392.436 218.695 394.57 218.618C397.169 218.524 399.23 217.573 400.754 215.765L403.02 218.231C402.077 219.415 400.877 220.335 399.422 220.991C397.993 221.645 396.376 222.004 394.571 222.07C392.273 222.153 390.218 221.761 388.406 220.895C386.593 220.002 385.163 218.724 384.117 217.064C383.098 215.402 382.551 213.504 382.474 211.37C382.398 209.264 382.794 207.345 383.663 205.615C384.559 203.885 385.812 202.525 387.42 201.535C389.054 200.517 390.911 199.971 392.99 199.896C395.069 199.821 396.933 200.233 398.582 201.132C400.257 202.003 401.577 203.271 402.541 204.934C403.532 206.597 404.067 208.523 404.146 210.711ZM393.11 203.22C391.222 203.288 389.656 203.92 388.412 205.115C387.195 206.31 386.51 207.841 386.358 209.71L400.312 209.206C400.027 207.381 399.22 205.917 397.893 204.814C396.592 203.683 394.998 203.152 393.11 203.22ZM413.127 203.032C413.766 201.749 414.744 200.755 416.061 200.05C417.378 199.345 418.994 198.958 420.909 198.889L421.046 202.705C420.826 202.686 420.525 202.683 420.142 202.697C418.008 202.774 416.349 203.477 415.164 204.808C414.006 206.11 413.469 207.937 413.554 210.29L413.945 221.124L410.005 221.266L409.22 199.516L412.996 199.38L413.127 203.032ZM445.626 209.215C445.637 209.516 445.623 209.913 445.587 210.408L427.94 211.045C428.255 212.951 429.146 214.467 430.611 215.592C432.102 216.688 433.915 217.198 436.049 217.121C438.648 217.027 440.709 216.076 442.233 214.268L444.5 216.734C443.556 217.919 442.357 218.839 440.901 219.494C439.473 220.148 437.856 220.508 436.05 220.573C433.752 220.656 431.697 220.264 429.885 219.398C428.072 218.505 426.643 217.228 425.597 215.567C424.578 213.905 424.03 212.008 423.953 209.874C423.877 207.767 424.273 205.849 425.142 204.119C426.039 202.388 427.291 201.028 428.899 200.038C430.533 199.021 432.39 198.474 434.469 198.399C436.549 198.324 438.413 198.736 440.061 199.636C441.736 200.507 443.056 201.774 444.02 203.438C445.011 205.1 445.547 207.026 445.626 209.215ZM434.589 201.723C432.701 201.791 431.135 202.423 429.891 203.619C428.674 204.813 427.99 206.345 427.838 208.213L441.791 207.709C441.506 205.884 440.7 204.42 439.372 203.318C438.071 202.187 436.477 201.655 434.589 201.723ZM474.689 217.658C474.132 218.172 473.435 218.58 472.596 218.884C471.757 219.161 470.886 219.316 469.983 219.349C467.794 219.428 466.077 218.901 464.831 217.768C463.585 216.635 462.922 214.974 462.843 212.785L462.412 200.843L458.719 200.976L458.602 197.734L462.295 197.601L462.123 192.84L466.063 192.698L466.235 197.459L472.473 197.233L472.59 200.476L466.352 200.701L466.777 212.479C466.819 213.655 467.139 214.548 467.736 215.156C468.361 215.764 469.22 216.048 470.315 216.008C471.518 215.965 472.532 215.586 473.356 214.871L474.689 217.658ZM488.101 218.695C485.94 218.773 483.98 218.364 482.222 217.469C480.464 216.573 479.062 215.309 478.017 213.676C476.998 212.014 476.45 210.116 476.373 207.982C476.296 205.848 476.706 203.929 477.604 202.226C478.527 200.494 479.834 199.132 481.524 198.14C483.213 197.12 485.139 196.571 487.3 196.493C489.461 196.415 491.407 196.824 493.138 197.721C494.895 198.589 496.283 199.853 497.302 201.515C498.347 203.149 498.908 205.032 498.985 207.166C499.062 209.3 498.639 211.233 497.715 212.965C496.818 214.668 495.525 216.03 493.836 217.05C492.174 218.068 490.262 218.617 488.101 218.695ZM487.977 215.248C489.372 215.197 490.605 214.838 491.677 214.169C492.775 213.472 493.618 212.537 494.206 211.366C494.793 210.167 495.059 208.815 495.005 207.31C494.95 205.805 494.588 204.49 493.917 203.363C493.245 202.209 492.337 201.338 491.193 200.749C490.076 200.16 488.82 199.89 487.424 199.94C486.029 199.991 484.782 200.351 483.683 201.02C482.611 201.689 481.768 202.624 481.154 203.824C480.566 204.995 480.3 206.334 480.354 207.838C480.408 209.343 480.771 210.672 481.443 211.826C482.141 212.952 483.049 213.823 484.167 214.44C485.312 215.029 486.581 215.298 487.977 215.248Z" fill="#E6988E"/>
<path d="M223.636 251.719L213.613 277.442L202.082 252.497L193.768 252.797L209.647 286.422L217.897 286.125L231.311 251.442L223.636 251.719ZM240.134 245.488C243.14 245.38 245.173 243.129 245.071 240.315C244.976 237.693 242.73 235.789 239.788 235.895C236.846 236.001 234.748 238.19 234.845 240.876C234.942 243.562 237.192 245.595 240.134 245.488ZM237.54 285.416L245.535 285.127L244.303 250.974L236.308 251.262L237.54 285.416ZM287.526 266.705C287.141 256.024 279.598 249.316 269.621 249.676C259.451 250.043 252.231 257.604 252.598 267.774C252.965 277.943 260.65 285.03 272.098 284.617C277.982 284.405 282.71 282.313 285.648 278.557L281.186 273.787C278.845 276.369 275.883 277.692 272.045 277.831C266.097 278.045 261.825 274.998 260.685 270.043L287.484 269.076C287.52 268.307 287.549 267.345 287.526 266.705ZM269.851 256.072C275.096 255.883 278.992 259.136 279.809 264.038L260.43 264.737C261.017 259.721 264.671 256.259 269.851 256.072ZM340.136 247.516L331.776 273.178L321.652 248.183L314.936 248.425L306.444 273.964L296.516 249.09L288.969 249.362L302.738 283.064L310.413 282.787L318.517 258.927L328.193 282.145L335.868 281.868L347.235 247.26L340.136 247.516ZM382.21 280.644C391.804 280.298 397.538 275.929 397.307 269.533C396.825 256.165 375.94 263.067 375.691 256.159C375.61 253.921 377.855 252.239 382.716 252.063C385.978 251.946 389.263 252.468 392.594 254.269L395.444 248.082C392.308 246.338 387.088 245.437 382.547 245.601C373.337 245.934 367.669 250.365 367.902 256.825C368.393 270.448 389.278 263.546 389.513 270.07C389.599 272.437 387.539 273.92 382.486 274.102C378.201 274.257 373.545 273.016 370.468 271.142L367.617 277.328C370.765 279.392 376.518 280.85 382.21 280.644ZM420.243 279.272C426.894 279.032 432.099 275.962 434.537 270.751L428.268 267.391C426.339 270.727 423.322 272.308 419.932 272.431C414.048 272.643 409.425 268.775 409.185 262.124C408.948 255.536 413.277 251.281 419.161 251.069C422.551 250.946 425.674 252.307 427.838 255.495L433.849 251.691C431.04 246.605 425.632 244.047 418.98 244.287C408.171 244.677 400.757 252.181 401.126 262.414C401.496 272.648 409.434 279.662 420.243 279.272ZM459.541 242.823C454.808 242.994 450.834 244.674 448.313 247.583L447.69 230.314L439.695 230.603L441.408 278.06L449.403 277.772L448.78 260.503C448.533 253.659 452.245 250.067 457.938 249.862C463.054 249.677 466.167 252.511 466.386 258.587L467.055 277.135L475.05 276.846L474.344 257.275C473.972 246.978 467.728 242.528 459.541 242.823ZM517.002 258.425C516.617 247.744 509.074 241.036 499.096 241.396C488.927 241.763 481.707 249.324 482.074 259.494C482.441 269.663 490.125 276.75 501.574 276.337C507.458 276.125 512.186 274.033 515.124 270.277L510.661 265.507C508.321 268.089 505.359 269.412 501.521 269.551C495.573 269.765 491.3 266.718 490.161 261.763L516.959 260.796C516.996 260.027 517.025 259.065 517.002 258.425ZM499.327 247.792C504.572 247.603 508.468 250.856 509.285 255.758L489.905 256.457C490.493 251.441 494.146 247.979 499.327 247.792ZM549.034 226.658L549.666 244.182C546.867 241.145 542.912 239.815 538.499 239.974C528.586 240.332 521.477 247.441 521.86 258.058C522.243 268.675 529.848 275.317 539.761 274.96C544.43 274.791 548.338 273.049 550.907 269.69L551.066 274.103L558.741 273.826L557.029 226.369L549.034 226.658ZM540.474 268.081C534.718 268.289 530.155 264.291 529.919 257.767C529.684 251.243 533.947 246.927 539.703 246.719C545.459 246.512 550.023 250.51 550.258 257.033C550.493 263.557 546.23 267.874 540.474 268.081ZM593.039 238.391L593.662 255.659C593.909 262.503 590.26 266.093 584.696 266.294C579.643 266.476 576.595 263.64 576.371 257.436L575.706 239.016L567.711 239.304L568.415 258.812C568.787 269.109 574.908 273.691 583.67 273.375C588.084 273.216 592.053 271.408 594.498 268.181L594.655 272.531L602.266 272.256L601.034 238.102L593.039 238.391ZM612.734 271.878L620.729 271.59L619.016 224.133L611.021 224.421L612.734 271.878ZM662.72 253.168C662.334 242.487 654.791 235.778 644.814 236.138C634.645 236.505 627.425 244.066 627.791 254.236C628.158 264.405 635.843 271.493 647.292 271.08C653.176 270.867 657.903 268.775 660.842 265.019L656.379 260.249C654.038 262.831 651.076 264.155 647.239 264.293C641.291 264.508 637.018 261.46 635.879 256.506L662.677 255.539C662.713 254.769 662.743 253.807 662.72 253.168ZM645.045 242.534C650.289 242.345 654.185 245.598 655.002 250.5L635.623 251.199C636.211 246.183 639.864 242.721 645.045 242.534Z" fill="#F6F4D4"/>
<defs>
<filter id="filter0_d_0_1" x="0.699951" y="0.800049" width="846.3" height="445.3" filterUnits="userSpaceOnUse" color-interpolation-filters="sRGB">
<feFlood flood-opacity="0" result="BackgroundImageFix"/>
<feColorMatrix in="SourceAlpha" type="matrix" values="0 0 0 0 0 0 0 0 0 0 0 0 0 0 0 0 0 0 127 0" result="hardAlpha"/>
<feOffset/>
<feGaussianBlur stdDeviation="25"/>
<feComposite in2="hardAlpha" operator="out"/>
<feColorMatrix type="matrix" values="0 0 0 0 1 0 0 0 0 0.96556 0 0 0 0 0.655599 0 0 0 1 0"/>
<feBlend mode="normal" in2="BackgroundImageFix" result="effect1_dropShadow_0_1"/>
<feBlend mode="normal" in="SourceGraphic" in2="effect1_dropShadow_0_1" result="shape"/>
</filter>
</defs>
</svg>
