<svg width="747" height="347" viewBox="0 0 747 347" fill="none" xmlns="http://www.w3.org/2000/svg">
<path d="M742.5 5.30005H5.19995V341.6H742.5V5.30005Z" fill="#08151B" stroke="#C76931" stroke-width="9" stroke-miterlimit="10"/>
<path d="M251 17V329.9" stroke="#F6F4D4" stroke-width="3" stroke-miterlimit="10"/>
<path d="M529.6 21L529 324.5" stroke="#F6F4D4" stroke-width="3" stroke-miterlimit="10"/>
<g opacity="0.72">
<g opacity="0.72">
<path opacity="0.72" d="M74.414 131.927C88.0033 126.127 103.343 130.127 117.241 132.027C124.447 133.027 131.757 133.527 139.066 132.527C147.199 131.327 154.817 128.127 163.053 127.727C171.907 127.227 180.761 128.927 188.688 132.827C190.438 133.727 191.982 131.127 190.232 130.227C183.129 126.827 175.304 124.927 167.377 124.727C163.362 124.627 159.244 125.027 155.229 125.827C151.008 126.627 146.89 127.927 142.669 128.927C127.433 132.427 112.196 127.727 96.9599 126.427C88.724 125.727 80.3851 126.227 72.7668 129.527C71.0167 130.027 72.5609 132.627 74.414 131.927Z" fill="#F6F4D4"/>
</g>
</g>
<g opacity="0.72">
<g opacity="0.72">
<path opacity="0.72" d="M73.7965 184.326C87.9005 183.926 102.005 183.426 116.006 183.026C119.403 182.926 122.8 182.826 126.095 183.626C129.286 184.326 132.272 185.726 135.36 186.626C141.743 188.526 148.435 188.526 155.024 188.326C162.951 188.226 170.878 188.026 178.702 187.926C180.658 187.926 180.658 184.926 178.702 184.926C171.701 185.026 164.701 185.226 157.803 185.326C151.111 185.426 144.111 185.826 137.625 184.126C134.434 183.326 131.551 181.926 128.36 181.126C125.168 180.226 121.874 180.026 118.579 180.026C111.682 180.126 104.681 180.426 97.7837 180.626C89.8566 180.926 81.8265 181.126 73.8994 181.426C71.8404 181.326 71.7375 184.326 73.7965 184.326Z" fill="#F6F4D4"/>
</g>
</g>
<g opacity="0.72">
<g opacity="0.72">
<path opacity="0.72" d="M76.0612 238.327C87.5915 233.227 100.769 237.126 112.711 238.226C119.094 238.826 125.374 238.527 131.654 237.327C138.14 236.127 144.523 234.327 151.111 233.827C157.7 233.327 164.495 233.927 170.054 237.427C171.701 238.427 173.245 235.927 171.598 234.827C160.377 227.827 146.582 231.226 134.639 233.726C127.948 235.126 121.359 235.927 114.461 235.427C107.976 234.927 101.593 233.726 95.2098 233.126C88.1063 232.526 81.0027 232.826 74.5169 235.726C72.6638 236.526 74.2081 239.127 76.0612 238.327Z" fill="#F6F4D4"/>
</g>
</g>
<g opacity="0.72">
<g opacity="0.72">
<path opacity="0.72" d="M602.648 121.826C603.574 119.426 606.251 118.226 608.516 117.626C611.501 116.826 614.59 116.726 617.678 116.826C624.782 117.026 631.679 118.526 638.68 119.526C645.475 120.426 652.063 120.426 658.858 119.426C665.241 118.526 671.624 117.026 678.11 116.326C684.904 115.626 691.905 115.926 697.979 119.326C699.729 120.326 701.273 117.726 699.523 116.726C687.478 109.926 673.168 114.126 660.402 116.126C653.196 117.326 646.195 117.526 638.989 116.526C631.576 115.526 624.164 113.926 616.649 113.826C610.369 113.726 602.236 114.626 599.559 121.026C598.941 122.826 601.927 123.526 602.648 121.826Z" fill="#F6F4D4"/>
</g>
</g>
<g opacity="0.72">
<g opacity="0.72">
<path opacity="0.72" d="M600.486 160.826C613.457 158.626 626.223 164.226 639.297 162.826C645.577 162.126 651.651 160.326 657.828 159.126C663.902 157.926 670.079 157.626 676.153 158.626C682.845 159.626 689.228 161.926 694.993 165.326C696.743 166.326 698.288 163.726 696.537 162.726C686.037 156.426 673.374 153.926 661.226 155.626C654.637 156.526 648.254 158.526 641.665 159.526C634.974 160.526 628.282 159.826 621.693 158.826C614.384 157.726 607.074 156.626 599.662 157.926C597.706 158.226 598.529 161.126 600.486 160.826Z" fill="#F6F4D4"/>
</g>
</g>
<g opacity="0.72">
<g opacity="0.72">
<path opacity="0.72" d="M605.118 208.026C610.986 207.226 616.957 206.426 622.825 206.326C628.694 206.226 634.459 207.026 640.121 208.626C645.577 210.126 651.034 211.726 656.696 212.426C662.461 213.026 668.226 212.926 673.991 212.426C680.477 211.826 686.963 210.826 693.449 209.826C695.405 209.526 694.581 206.626 692.625 206.926C681.198 208.726 669.462 210.626 657.828 209.526C652.063 209.026 646.607 207.326 641.048 205.826C635.488 204.226 629.826 203.326 623.958 203.326C617.266 203.326 610.677 204.226 604.192 205.126C602.339 205.426 603.162 208.326 605.118 208.026Z" fill="#F6F4D4"/>
</g>
</g>
<g opacity="0.72">
<g opacity="0.72">
<path opacity="0.72" d="M608.104 256.027C613.663 253.727 619.531 256.527 624.782 258.227C627.664 259.127 630.65 259.927 633.738 260.027C637.341 260.127 640.739 259.227 644.239 258.727C656.387 256.827 668.535 259.927 680.683 259.527C687.169 259.327 693.552 257.927 699.008 254.427C700.655 253.327 699.111 250.727 697.464 251.827C687.478 258.427 674.815 256.627 663.594 255.627C657.622 255.127 651.548 254.727 645.577 255.527C642.18 255.927 638.783 256.827 635.282 257.027C632.091 257.127 629.105 256.427 626.12 255.527C620.149 253.627 613.663 250.627 607.383 253.127C606.559 253.427 606.045 254.127 606.354 254.927C606.456 255.727 607.383 256.327 608.104 256.027Z" fill="#F6F4D4"/>
</g>
</g>
<g opacity="0.72">
<g opacity="0.72">
<path opacity="0.72" d="M308.006 126.527C310.065 123.327 315.11 122.327 318.713 121.727C324.066 120.727 329.729 120.727 335.185 120.827C347.127 121.027 358.966 122.627 370.908 123.627C382.336 124.627 393.763 124.527 405.191 123.527C416.206 122.527 427.119 120.927 438.134 120.227C449.665 119.527 461.504 119.727 472.519 123.527C474.373 124.227 475.196 121.327 473.343 120.627C463.357 117.127 452.65 116.527 442.149 116.927C430.825 117.427 419.604 118.927 408.382 120.127C396.646 121.327 385.115 121.627 373.276 120.727C361.025 119.827 348.877 118.127 336.523 117.727C330.243 117.527 323.964 117.627 317.787 118.727C313.36 119.527 307.903 120.927 305.227 124.927C304.3 126.627 306.977 128.127 308.006 126.527Z" fill="#F6F4D4"/>
</g>
</g>
<g opacity="0.72">
<g opacity="0.72">
<path opacity="0.72" d="M304.918 167.326C326.846 164.926 348.568 170.726 370.599 169.426C381.512 168.826 392.219 166.727 403.028 165.527C413.426 164.327 423.927 164.026 434.428 164.926C445.649 165.926 456.768 168.226 467.372 172.126C469.225 172.826 470.048 169.926 468.195 169.226C449.15 162.126 427.942 160.026 407.764 161.926C396.851 162.926 386.042 165.127 375.129 166.027C364.01 167.027 352.995 166.226 341.876 165.226C329.625 164.126 317.271 162.826 305.02 164.226C302.961 164.526 302.962 167.526 304.918 167.326Z" fill="#F6F4D4"/>
</g>
</g>
<g opacity="0.72">
<g opacity="0.72">
<path opacity="0.72" d="M312.639 217.227C322.522 216.427 332.405 215.527 342.288 215.427C352.171 215.227 361.952 215.926 371.732 217.626C381.306 219.226 390.777 221.127 400.455 221.827C410.338 222.527 420.221 222.427 430.001 221.927C441.017 221.327 452.032 220.327 463.048 219.227C465.004 219.027 465.004 216.027 463.048 216.227C443.591 218.127 423.927 220.127 404.367 219.027C394.587 218.527 385.115 216.927 375.438 215.227C365.658 213.527 355.981 212.427 346.097 212.427C334.876 212.427 323.757 213.327 312.639 214.327C310.683 214.327 310.683 217.427 312.639 217.227Z" fill="#F6F4D4"/>
</g>
</g>
<g opacity="0.72">
<g opacity="0.72">
<path opacity="0.72" d="M318.301 267.826C328.39 265.226 338.788 268.526 348.671 270.426C353.922 271.426 359.172 272.126 364.525 272.026C370.291 271.926 375.953 271.026 381.615 270.526C401.793 268.826 421.971 271.926 442.149 271.526C452.547 271.326 463.048 270.126 472.725 266.126C473.549 265.826 473.652 264.726 473.24 264.026C472.828 263.226 471.902 263.126 471.078 263.526C462.636 267.026 453.371 268.126 444.208 268.426C434.222 268.726 424.236 268.126 414.353 267.626C404.264 267.126 394.072 266.626 383.983 267.326C378.424 267.726 372.967 268.526 367.511 268.926C362.055 269.326 356.701 268.926 351.348 267.926C340.229 265.926 328.802 262.026 317.478 264.926C315.522 265.426 316.345 268.326 318.301 267.826Z" fill="#F6F4D4"/>
</g>
</g>
</svg>
