<svg width="847" height="447" viewBox="0 0 847 447" fill="none" xmlns="http://www.w3.org/2000/svg">
<g filter="url(#filter0_d_156_107)">
<path d="M792.5 55.3H55.2V391.6H792.5V55.3Z" fill="#08151B" stroke="#C76931" stroke-width="9" stroke-miterlimit="10"/>
<path d="M301 67V379.9" stroke="#F6F4D4" stroke-width="3" stroke-miterlimit="10"/>
<path d="M579.6 71L579 374.5" stroke="#F6F4D4" stroke-width="3" stroke-miterlimit="10"/>
<path opacity="0.77" d="M371.115 126.2C369.668 126.2 368.276 126.011 366.941 125.633C365.605 125.232 364.558 124.731 363.801 124.13L365.137 121.592C365.917 122.148 366.863 122.594 367.976 122.928C369.089 123.262 370.213 123.429 371.349 123.429C374.154 123.429 375.557 122.627 375.557 121.024C375.557 120.49 375.367 120.067 374.989 119.755C374.61 119.443 374.132 119.221 373.553 119.087C372.996 118.931 372.195 118.764 371.148 118.586C369.724 118.364 368.555 118.108 367.642 117.818C366.751 117.529 365.983 117.039 365.338 116.349C364.692 115.659 364.369 114.69 364.369 113.443C364.369 111.84 365.037 110.56 366.373 109.603C367.709 108.623 369.501 108.134 371.75 108.134C372.93 108.134 374.109 108.278 375.289 108.568C376.469 108.857 377.438 109.247 378.195 109.737L376.826 112.275C375.379 111.339 373.675 110.872 371.716 110.872C370.358 110.872 369.323 111.095 368.61 111.54C367.898 111.985 367.542 112.575 367.542 113.31C367.542 113.889 367.742 114.345 368.143 114.679C368.544 115.013 369.033 115.258 369.612 115.414C370.213 115.57 371.048 115.748 372.117 115.948C373.542 116.193 374.688 116.46 375.557 116.75C376.447 117.017 377.204 117.484 377.827 118.152C378.451 118.82 378.763 119.755 378.763 120.957C378.763 122.56 378.072 123.84 376.692 124.798C375.334 125.733 373.475 126.2 371.115 126.2ZM390.484 126.2C388.68 126.2 387.066 125.811 385.641 125.032C384.239 124.252 383.137 123.184 382.335 121.826C381.534 120.445 381.133 118.887 381.133 117.15C381.133 115.414 381.534 113.866 382.335 112.508C383.137 111.128 384.239 110.059 385.641 109.302C387.066 108.523 388.68 108.134 390.484 108.134C392.086 108.134 393.511 108.456 394.758 109.102C396.027 109.748 397.007 110.683 397.697 111.907L395.259 113.477C394.702 112.631 394.012 111.996 393.189 111.573C392.365 111.15 391.452 110.939 390.45 110.939C389.292 110.939 388.246 111.195 387.311 111.707C386.398 112.219 385.675 112.954 385.14 113.911C384.628 114.846 384.372 115.926 384.372 117.15C384.372 118.397 384.628 119.499 385.14 120.456C385.675 121.391 386.398 122.115 387.311 122.627C388.246 123.139 389.292 123.395 390.45 123.395C391.452 123.395 392.365 123.184 393.189 122.761C394.012 122.338 394.702 121.703 395.259 120.857L397.697 122.393C397.007 123.618 396.027 124.564 394.758 125.232C393.511 125.878 392.086 126.2 390.484 126.2ZM411.07 108.134C413.319 108.134 415.1 108.79 416.413 110.104C417.749 111.395 418.417 113.299 418.417 115.814V126H415.211V116.182C415.211 114.468 414.799 113.176 413.975 112.308C413.152 111.44 411.972 111.006 410.436 111.006C408.699 111.006 407.33 111.518 406.328 112.542C405.326 113.544 404.825 114.991 404.825 116.883V126H401.619V101.221H404.825V110.805C405.493 109.959 406.361 109.302 407.43 108.835C408.521 108.367 409.734 108.134 411.07 108.134ZM440.444 117.25C440.444 117.495 440.422 117.818 440.378 118.219H426.018C426.218 119.777 426.897 121.035 428.055 121.993C429.235 122.928 430.693 123.395 432.429 123.395C434.545 123.395 436.248 122.683 437.539 121.258L439.309 123.328C438.507 124.263 437.506 124.976 436.303 125.466C435.123 125.955 433.799 126.2 432.329 126.2C430.459 126.2 428.801 125.822 427.353 125.065C425.906 124.286 424.782 123.206 423.98 121.826C423.201 120.445 422.812 118.887 422.812 117.15C422.812 115.436 423.19 113.889 423.947 112.508C424.726 111.128 425.784 110.059 427.12 109.302C428.478 108.523 430.003 108.134 431.695 108.134C433.387 108.134 434.89 108.523 436.203 109.302C437.539 110.059 438.574 111.128 439.309 112.508C440.066 113.889 440.444 115.469 440.444 117.25ZM431.695 110.839C430.159 110.839 428.867 111.306 427.821 112.241C426.797 113.176 426.196 114.401 426.018 115.915H437.372C437.194 114.423 436.582 113.21 435.535 112.275C434.511 111.317 433.231 110.839 431.695 110.839ZM461.594 101.221V126H458.521V123.195C457.809 124.174 456.907 124.92 455.816 125.432C454.725 125.944 453.523 126.2 452.21 126.2C450.495 126.2 448.959 125.822 447.601 125.065C446.243 124.308 445.174 123.25 444.395 121.892C443.638 120.512 443.26 118.931 443.26 117.15C443.26 115.369 443.638 113.8 444.395 112.442C445.174 111.083 446.243 110.026 447.601 109.269C448.959 108.512 450.495 108.134 452.21 108.134C453.479 108.134 454.647 108.378 455.716 108.868C456.785 109.336 457.675 110.037 458.388 110.972V101.221H461.594ZM452.477 123.395C453.59 123.395 454.603 123.139 455.516 122.627C456.429 122.093 457.141 121.358 457.653 120.423C458.165 119.466 458.421 118.375 458.421 117.15C458.421 115.926 458.165 114.846 457.653 113.911C457.141 112.954 456.429 112.219 455.516 111.707C454.603 111.195 453.59 110.939 452.477 110.939C451.341 110.939 450.317 111.195 449.404 111.707C448.514 112.219 447.801 112.954 447.267 113.911C446.755 114.846 446.499 115.926 446.499 117.15C446.499 118.375 446.755 119.466 447.267 120.423C447.801 121.358 448.514 122.093 449.404 122.627C450.317 123.139 451.341 123.395 452.477 123.395ZM484.157 108.301V126H481.118V123.328C480.472 124.241 479.615 124.954 478.546 125.466C477.5 125.955 476.354 126.2 475.107 126.2C472.747 126.2 470.888 125.555 469.53 124.263C468.172 122.95 467.493 121.024 467.493 118.486V108.301H470.699V118.119C470.699 119.833 471.11 121.135 471.934 122.026C472.758 122.894 473.938 123.328 475.474 123.328C477.166 123.328 478.502 122.816 479.482 121.792C480.461 120.768 480.951 119.321 480.951 117.451V108.301H484.157ZM490.26 101.221H493.466V126H490.26V101.221ZM515.584 117.25C515.584 117.495 515.561 117.818 515.517 118.219H501.157C501.357 119.777 502.036 121.035 503.194 121.993C504.374 122.928 505.832 123.395 507.569 123.395C509.684 123.395 511.387 122.683 512.678 121.258L514.448 123.328C513.647 124.263 512.645 124.976 511.443 125.466C510.263 125.955 508.938 126.2 507.469 126.2C505.598 126.2 503.94 125.822 502.493 125.065C501.046 124.286 499.921 123.206 499.12 121.826C498.341 120.445 497.951 118.887 497.951 117.15C497.951 115.436 498.329 113.889 499.086 112.508C499.866 111.128 500.923 110.059 502.259 109.302C503.617 108.523 505.142 108.134 506.834 108.134C508.526 108.134 510.029 108.523 511.342 109.302C512.678 110.059 513.714 111.128 514.448 112.508C515.205 113.889 515.584 115.469 515.584 117.25ZM506.834 110.839C505.298 110.839 504.007 111.306 502.96 112.241C501.936 113.176 501.335 114.401 501.157 115.915H512.511C512.333 114.423 511.721 113.21 510.675 112.275C509.65 111.317 508.37 110.839 506.834 110.839Z" fill="#F6F4D2"/>
<g opacity="0.72">
<g opacity="0.72">
<path opacity="0.72" d="M124.414 181.927C138.003 176.127 153.343 180.127 167.241 182.027C174.447 183.027 181.757 183.527 189.066 182.527C197.199 181.327 204.817 178.127 213.053 177.727C221.907 177.227 230.761 178.927 238.688 182.827C240.438 183.727 241.982 181.127 240.232 180.227C233.129 176.827 225.304 174.927 217.377 174.727C213.362 174.627 209.244 175.027 205.229 175.827C201.008 176.627 196.89 177.927 192.669 178.927C177.433 182.427 162.196 177.727 146.96 176.427C138.724 175.727 130.385 176.227 122.767 179.527C121.017 180.027 122.561 182.627 124.414 181.927Z" fill="#F6F4D4"/>
</g>
</g>
<g opacity="0.72">
<g opacity="0.72">
<path opacity="0.72" d="M123.796 234.326C137.9 233.926 152.004 233.426 166.006 233.026C169.403 232.926 172.8 232.826 176.095 233.626C179.286 234.326 182.272 235.726 185.36 236.626C191.743 238.526 198.435 238.526 205.023 238.326C212.951 238.226 220.878 238.026 228.702 237.926C230.658 237.926 230.658 234.926 228.702 234.926C221.701 235.026 214.701 235.226 207.803 235.326C201.111 235.426 194.111 235.826 187.625 234.126C184.434 233.326 181.551 231.926 178.36 231.126C175.168 230.226 171.874 230.026 168.579 230.026C161.682 230.126 154.681 230.426 147.784 230.626C139.856 230.926 131.826 231.126 123.899 231.426C121.84 231.326 121.737 234.326 123.796 234.326Z" fill="#F6F4D4"/>
</g>
</g>
<g opacity="0.72">
<g opacity="0.72">
<path opacity="0.72" d="M126.061 288.327C137.592 283.227 150.769 287.126 162.711 288.226C169.094 288.826 175.374 288.527 181.654 287.327C188.14 286.127 194.523 284.327 201.111 283.827C207.7 283.327 214.495 283.927 220.054 287.427C221.701 288.427 223.245 285.927 221.598 284.827C210.377 277.827 196.582 281.226 184.639 283.726C177.948 285.126 171.359 285.927 164.461 285.427C157.976 284.927 151.593 283.726 145.21 283.126C138.106 282.526 131.003 282.826 124.517 285.726C122.664 286.526 124.208 289.127 126.061 288.327Z" fill="#F6F4D4"/>
</g>
</g>
<g opacity="0.72">
<g opacity="0.72">
<path opacity="0.72" d="M652.648 171.826C653.574 169.426 656.251 168.226 658.516 167.626C661.501 166.826 664.59 166.726 667.678 166.826C674.782 167.026 681.679 168.526 688.68 169.526C695.474 170.426 702.063 170.426 708.858 169.426C715.241 168.526 721.624 167.026 728.109 166.326C734.904 165.626 741.905 165.926 747.979 169.326C749.729 170.326 751.273 167.726 749.523 166.726C737.478 159.926 723.168 164.126 710.402 166.126C703.196 167.326 696.195 167.526 688.989 166.526C681.576 165.526 674.164 163.926 666.649 163.826C660.369 163.726 652.236 164.626 649.559 171.026C648.941 172.826 651.927 173.526 652.648 171.826Z" fill="#F6F4D4"/>
</g>
</g>
<g opacity="0.72">
<g opacity="0.72">
<path opacity="0.72" d="M629.896 120.826C631.034 118.426 634.321 117.226 637.103 116.626C640.769 115.826 644.562 115.726 648.355 115.826C657.079 116.026 665.551 117.526 674.148 118.526C682.493 119.426 690.585 119.426 698.93 118.426C706.769 117.526 714.608 116.026 722.573 115.326C730.918 114.626 739.516 114.926 746.975 118.326C749.125 119.326 751.021 116.726 748.872 115.726C734.079 108.926 716.504 113.126 700.826 115.126C691.976 116.326 683.378 116.526 674.528 115.526C665.424 114.526 656.321 112.926 647.091 112.826C639.378 112.726 629.39 113.626 626.103 120.026C625.344 121.826 629.011 122.526 629.896 120.826Z" fill="#F6F4D4"/>
</g>
</g>
<g opacity="0.72">
<g opacity="0.72">
<path opacity="0.72" d="M115.896 121.826C117.034 119.426 120.321 118.226 123.103 117.626C126.769 116.826 130.562 116.726 134.355 116.826C143.079 117.026 151.551 118.526 160.148 119.526C168.493 120.426 176.585 120.426 184.93 119.426C192.769 118.526 200.608 117.026 208.573 116.326C216.918 115.626 225.516 115.926 232.975 119.326C235.125 120.326 237.021 117.726 234.872 116.726C220.079 109.926 202.504 114.126 186.826 116.126C177.976 117.326 169.378 117.526 160.528 116.526C151.424 115.526 142.321 113.926 133.091 113.826C125.378 113.726 115.39 114.626 112.103 121.026C111.344 122.826 115.011 123.526 115.896 121.826Z" fill="#F6F4D4"/>
</g>
</g>
<g opacity="0.72">
<g opacity="0.72">
<path opacity="0.72" d="M650.486 210.826C663.457 208.626 676.223 214.226 689.297 212.826C695.577 212.126 701.651 210.326 707.828 209.126C713.902 207.926 720.079 207.626 726.153 208.626C732.845 209.626 739.228 211.926 744.993 215.326C746.743 216.326 748.288 213.726 746.537 212.726C736.037 206.426 723.374 203.926 711.226 205.626C704.637 206.526 698.254 208.526 691.665 209.526C684.974 210.526 678.282 209.826 671.693 208.826C664.384 207.726 657.074 206.626 649.662 207.926C647.706 208.226 648.529 211.126 650.486 210.826Z" fill="#F6F4D4"/>
</g>
</g>
<g opacity="0.72">
<g opacity="0.72">
<path opacity="0.72" d="M655.118 258.026C660.986 257.226 666.957 256.426 672.825 256.326C678.694 256.226 684.459 257.026 690.121 258.626C695.577 260.126 701.034 261.726 706.696 262.426C712.461 263.026 718.226 262.926 723.991 262.426C730.477 261.826 736.963 260.826 743.449 259.826C745.405 259.526 744.581 256.626 742.625 256.926C731.198 258.726 719.462 260.626 707.828 259.526C702.063 259.026 696.607 257.326 691.048 255.826C685.488 254.226 679.826 253.326 673.958 253.326C667.266 253.326 660.677 254.226 654.192 255.126C652.339 255.426 653.162 258.326 655.118 258.026Z" fill="#F6F4D4"/>
</g>
</g>
<g opacity="0.72">
<g opacity="0.72">
<path opacity="0.72" d="M658.104 306.027C663.663 303.727 669.531 306.527 674.782 308.227C677.664 309.127 680.65 309.927 683.738 310.027C687.341 310.127 690.739 309.227 694.239 308.727C706.387 306.827 718.535 309.927 730.683 309.527C737.169 309.327 743.552 307.927 749.008 304.427C750.655 303.327 749.111 300.727 747.464 301.827C737.478 308.427 724.815 306.627 713.594 305.627C707.622 305.127 701.548 304.727 695.577 305.527C692.18 305.927 688.783 306.827 685.282 307.027C682.091 307.127 679.105 306.427 676.12 305.527C670.149 303.627 663.663 300.627 657.383 303.127C656.559 303.427 656.045 304.127 656.354 304.927C656.456 305.727 657.383 306.327 658.104 306.027Z" fill="#F6F4D4"/>
</g>
</g>
<g opacity="0.72">
<g opacity="0.72">
<path opacity="0.72" d="M358.006 176.527C360.065 173.327 365.11 172.327 368.713 171.727C374.066 170.727 379.729 170.727 385.185 170.827C397.127 171.027 408.966 172.627 420.908 173.627C432.336 174.627 443.763 174.527 455.191 173.527C466.206 172.527 477.119 170.927 488.134 170.227C499.665 169.527 511.504 169.727 522.519 173.527C524.373 174.227 525.196 171.327 523.343 170.627C513.357 167.127 502.65 166.527 492.149 166.927C480.825 167.427 469.604 168.927 458.382 170.127C446.646 171.327 435.115 171.627 423.276 170.727C411.025 169.827 398.877 168.127 386.523 167.727C380.243 167.527 373.964 167.627 367.787 168.727C363.36 169.527 357.903 170.927 355.227 174.927C354.3 176.627 356.977 178.127 358.006 176.527Z" fill="#F6F4D4"/>
</g>
</g>
<g opacity="0.72">
<g opacity="0.72">
<path opacity="0.72" d="M354.918 217.326C376.846 214.926 398.568 220.726 420.599 219.426C431.512 218.826 442.219 216.727 453.028 215.527C463.426 214.327 473.927 214.026 484.428 214.926C495.649 215.926 506.768 218.226 517.372 222.126C519.225 222.826 520.048 219.926 518.195 219.226C499.15 212.126 477.942 210.026 457.764 211.926C446.851 212.926 436.042 215.127 425.129 216.027C414.011 217.027 402.995 216.226 391.876 215.226C379.625 214.126 367.272 212.826 355.021 214.226C352.962 214.526 352.962 217.526 354.918 217.326Z" fill="#F6F4D4"/>
</g>
</g>
<g opacity="0.72">
<g opacity="0.72">
<path opacity="0.72" d="M362.639 267.227C372.522 266.427 382.405 265.527 392.288 265.427C402.171 265.227 411.952 265.926 421.732 267.626C431.306 269.226 440.777 271.127 450.455 271.827C460.338 272.527 470.221 272.427 480.001 271.927C491.017 271.327 502.032 270.327 513.048 269.227C515.004 269.027 515.004 266.027 513.048 266.227C493.591 268.127 473.927 270.127 454.367 269.027C444.587 268.527 435.115 266.927 425.438 265.227C415.658 263.527 405.981 262.427 396.097 262.427C384.876 262.427 373.757 263.327 362.639 264.327C360.683 264.327 360.683 267.427 362.639 267.227Z" fill="#F6F4D4"/>
</g>
</g>
<g opacity="0.72">
<g opacity="0.72">
<path opacity="0.72" d="M368.301 317.826C378.39 315.226 388.788 318.526 398.671 320.426C403.922 321.426 409.172 322.126 414.525 322.026C420.291 321.926 425.953 321.026 431.615 320.526C451.793 318.826 471.971 321.926 492.149 321.526C502.547 321.326 513.048 320.126 522.725 316.126C523.549 315.826 523.652 314.726 523.24 314.026C522.828 313.226 521.902 313.126 521.078 313.526C512.636 317.026 503.371 318.126 494.208 318.426C484.222 318.726 474.236 318.126 464.353 317.626C454.264 317.126 444.072 316.626 433.983 317.326C428.424 317.726 422.967 318.526 417.511 318.926C412.055 319.326 406.701 318.926 401.348 317.926C390.229 315.926 378.802 312.026 367.478 314.926C365.522 315.426 366.345 318.326 368.301 317.826Z" fill="#F6F4D4"/>
</g>
</g>
</g>
<defs>
<filter id="filter0_d_156_107" x="0.699951" y="0.800049" width="846.3" height="445.3" filterUnits="userSpaceOnUse" color-interpolation-filters="sRGB">
<feFlood flood-opacity="0" result="BackgroundImageFix"/>
<feColorMatrix in="SourceAlpha" type="matrix" values="0 0 0 0 0 0 0 0 0 0 0 0 0 0 0 0 0 0 127 0" result="hardAlpha"/>
<feOffset/>
<feGaussianBlur stdDeviation="25"/>
<feComposite in2="hardAlpha" operator="out"/>
<feColorMatrix type="matrix" values="0 0 0 0 1 0 0 0 0 0.96556 0 0 0 0 0.655599 0 0 0 1 0"/>
<feBlend mode="normal" in2="BackgroundImageFix" result="effect1_dropShadow_156_107"/>
<feBlend mode="normal" in="SourceGraphic" in2="effect1_dropShadow_156_107" result="shape"/>
</filter>
</defs>
</svg>
