<svg width="177" height="56" viewBox="0 0 177 56" fill="none" xmlns="http://www.w3.org/2000/svg">
<path d="M53.4255 1.46509H58.6242V9.45672H66.673V1.46509H71.8789V21.0653H66.673V13.5383H58.6242V21.0653H53.4255V1.46509Z" fill="#111130"/>
<path d="M90.3977 21.0653L89.0308 17.5985H80.4149L79.0189 21.0653H73.6748L82.2326 1.46509H87.5766L95.9672 21.0653H90.3977ZM81.9781 13.6813H87.4967L84.7628 6.69038L81.9781 13.6813Z" fill="#111130"/>
<path d="M109.309 6.19729C108.502 5.74542 107.592 5.49966 106.663 5.48248C105.699 5.4645 104.749 5.71212 103.922 6.19729C103.096 6.69363 102.423 7.39999 101.973 8.24166C101.505 9.13726 101.261 10.1297 101.261 11.1367C101.261 12.1436 101.505 13.1361 101.973 14.0317C102.422 14.8726 103.095 15.577 103.922 16.0689C104.749 16.5541 105.699 16.8017 106.663 16.7837C107.551 16.765 108.425 16.5551 109.222 16.169C110.115 15.7545 110.926 15.1856 111.614 14.4891L114.653 17.7487C113.558 18.8783 112.249 19.7865 110.8 20.4221C109.264 21.1246 107.58 21.4603 105.887 21.4019C104.194 21.3435 102.539 20.8927 101.057 20.0861C99.492 19.2198 98.1954 17.9525 97.3051 16.4191C96.3857 14.8379 95.9137 13.0436 95.9381 11.2224C95.9107 9.43312 96.3829 7.67067 97.3034 6.12679C98.2238 4.58292 99.5572 3.31673 101.159 2.46596C102.831 1.58151 104.706 1.13127 106.604 1.15785C108.106 1.1657 109.591 1.4746 110.967 2.06567C112.34 2.63383 113.578 3.47602 114.602 4.53892L111.592 8.113C110.97 7.32978 110.194 6.67817 109.309 6.19729V6.19729Z" fill="#111130"/>
<path d="M136.037 21.0653H129.813L124.578 13.4597L122.077 16.1974V21.0653H116.871V1.46509H122.077V9.96423L129.558 1.46509H135.586L128.192 9.54249L136.037 21.0653Z" fill="#111130"/>
<path d="M53.3455 35.9836H58.5514V55.5839H53.3455V35.9836Z" fill="#111130"/>
<path d="M62.4194 35.9836H67.6108V51.2235H76.0595V55.5839H62.4194V35.9836Z" fill="#111130"/>
<path d="M80.0222 35.9836H85.2281V51.2235H93.6768V55.5839H80.0222V35.9836Z" fill="#111130"/>
<path d="M96.5779 35.9836H101.784V55.5839H96.5779V35.9836Z" fill="#111130"/>
<path d="M119.808 35.9836H124.643V55.5839H120.092L111.054 43.8752V55.5839H106.19V35.9836H110.771L119.837 47.7709L119.808 35.9836Z" fill="#111130"/>
<path d="M144.086 36.9915C145.677 37.8204 147.013 39.0548 147.954 40.5655C148.897 42.1202 149.383 43.902 149.357 45.7122C149.386 47.5212 148.91 49.3034 147.981 50.8649C147.051 52.4265 145.704 53.7075 144.086 54.5688C142.4 55.4779 140.504 55.941 138.582 55.9126C136.661 55.9389 134.767 55.4812 133.078 54.5831C131.47 53.7359 130.132 52.4696 129.209 50.9232C128.266 49.3451 127.78 47.5427 127.806 45.7122C127.783 43.9258 128.259 42.1674 129.184 40.6294C130.108 39.0913 131.445 37.8328 133.048 36.9915C134.75 36.1271 136.637 35.676 138.552 35.676C140.468 35.676 142.355 36.1271 144.056 36.9915H144.086ZM135.891 40.7657C135.046 41.2723 134.356 41.9933 133.892 42.8529C133.401 43.7483 133.15 44.7522 133.165 45.7694C133.14 46.7991 133.391 47.8171 133.892 48.7216C134.362 49.5786 135.051 50.3005 135.891 50.816C136.708 51.3257 137.657 51.5937 138.625 51.588C139.586 51.5945 140.528 51.3263 141.337 50.816C142.168 50.3043 142.841 49.5804 143.286 48.7216C143.754 47.812 143.998 46.8068 143.998 45.7873C143.998 44.7678 143.754 43.7626 143.286 42.8529C142.841 41.9962 142.167 41.2746 141.337 40.7657C140.519 40.2821 139.579 40.0344 138.625 40.0509C137.664 40.0372 136.718 40.2846 135.891 40.7657Z" fill="#111130"/>
<path d="M151.691 35.9836H156.897V55.5839H151.691V35.9836Z" fill="#111130"/>
<path d="M170.857 40.3727C169.885 40.0268 168.865 39.8291 167.832 39.7865C167.302 39.76 166.775 39.8815 166.312 40.1368C166.135 40.2425 165.989 40.3931 165.891 40.5728C165.792 40.7526 165.745 40.9549 165.753 41.1589C165.751 41.3626 165.793 41.5642 165.877 41.7504C165.962 41.9365 166.085 42.1029 166.24 42.2383C166.586 42.5501 166.991 42.7929 167.432 42.9531C167.905 43.1318 168.61 43.3606 169.541 43.6679C170.707 43.9864 171.851 44.3804 172.965 44.8474C173.881 45.2453 174.679 45.8651 175.285 46.6487C175.964 47.568 176.305 48.6873 176.252 49.8225C176.283 51.019 175.913 52.1923 175.197 53.1607C174.451 54.1152 173.441 54.8395 172.289 55.2479C170.986 55.7331 169.603 55.9755 168.21 55.9628C166.527 55.9594 164.857 55.6717 163.273 55.1121C161.723 54.5956 160.282 53.806 159.02 52.7818L161.041 48.7789C162.099 49.6867 163.306 50.4118 164.611 50.9233C165.755 51.4351 166.99 51.7217 168.246 51.7668C168.888 51.7985 169.525 51.6524 170.086 51.3451C170.299 51.2176 170.473 51.0363 170.591 50.8201C170.709 50.6038 170.765 50.3606 170.755 50.1156C170.761 49.9036 170.719 49.693 170.633 49.4989C170.546 49.3048 170.416 49.1321 170.253 48.9933C169.889 48.6751 169.464 48.432 169.003 48.2785C168.501 48.0998 167.796 47.8925 166.887 47.6495C165.732 47.3491 164.6 46.9694 163.499 46.5129C162.604 46.127 161.818 45.5334 161.208 44.7831C160.536 43.8908 160.199 42.7969 160.256 41.6879C160.233 40.5401 160.584 39.4152 161.259 38.4784C161.959 37.5133 162.929 36.7685 164.051 36.3339C165.385 35.8252 166.809 35.5822 168.239 35.6191C169.684 35.6191 171.121 35.8213 172.507 36.2196C173.813 36.5769 175.06 37.1187 176.208 37.8279L174.245 41.9095C173.174 41.2805 172.038 40.7653 170.857 40.3727V40.3727Z" fill="#111130"/>
<path d="M11.7273 22.6523H27.9703V12.552H38.7021V0.350098H8.05549L0.850098 12.552H11.7273V22.6523Z" fill="#111130"/>
<path d="M27.9703 33.3103H11.7273V43.4106H0.850098V55.6125H31.7802L38.7021 43.4106H27.9703V33.3103Z" fill="#111130"/>
</svg>
