<svg width="527" height="216" viewBox="0 0 527 216" fill="none" xmlns="http://www.w3.org/2000/svg">
<path d="M156.7 172.3H36.2999C26.6999 172.3 18.8999 181.3 18.8999 192.4C18.8999 195.8 21.2999 198.6 24.1999 198.6H168.8C171.7 198.6 174.1 195.8 174.1 192.4C174.1 181.3 166.3 172.3 156.7 172.3Z" fill="#ED9B21"/>
<path d="M33.8999 172.4C33.8999 179.6 35.1999 185.4 36.7999 185.4C38.3999 185.4 39.6999 179.5 39.6999 172.3H36.3999C35.4999 172.3 34.6999 172.3 33.8999 172.4Z" fill="#C96928"/>
<path d="M50 185.4C51.6 185.4 52.9 179.5 52.9 172.3H47.2C47.2 179.6 48.5 185.4 50 185.4Z" fill="#C96928"/>
<path d="M63.3 185.4C64.9 185.4 66.2 179.5 66.2 172.3H60.5C60.5 179.6 61.7 185.4 63.3 185.4Z" fill="#C96928"/>
<path d="M76.5998 185.4C78.1998 185.4 79.4998 179.5 79.4998 172.3H73.7998C73.6998 179.6 74.9998 185.4 76.5998 185.4Z" fill="#C96928"/>
<path d="M89.9 185.4C91.5 185.4 92.8 179.5 92.8 172.3H87C87 179.6 88.3 185.4 89.9 185.4Z" fill="#C96928"/>
<path d="M103.2 185.4C104.8 185.4 106.1 179.5 106.1 172.3H100.4C100.3 179.6 101.6 185.4 103.2 185.4Z" fill="#C96928"/>
<path d="M116.4 185.4C118 185.4 119.3 179.5 119.3 172.3H113.6C113.6 179.6 114.9 185.4 116.4 185.4Z" fill="#C96928"/>
<path d="M129.7 185.4C131.3 185.4 132.6 179.5 132.6 172.3H126.9C126.9 179.6 128.1 185.4 129.7 185.4Z" fill="#C96928"/>
<path d="M143 185.4C144.6 185.4 145.9 179.5 145.9 172.3H140.2C140.1 179.6 141.4 185.4 143 185.4Z" fill="#C96928"/>
<path d="M156.3 185.4C157.9 185.4 159.1 179.6 159.2 172.4C158.4 172.3 157.6 172.3 156.8 172.3H153.5C153.4 179.6 154.7 185.4 156.3 185.4Z" fill="#C96928"/>
<path d="M19 193.3C19.4 196.3 21.6 198.6 24.3 198.6H168.9C171.6 198.6 173.8 196.3 174.2 193.3H19Z" fill="#C96928"/>
<path d="M493.9 178.1C486.8 159.7 467.9 146.5 445.6 146.5C423.4 146.5 404.5 159.7 397.3 178.1H493.9Z" fill="#E8D7A5"/>
<path d="M446.2 153.2C446.2 153.2 440.8 164.4 446.2 164.5C451.5 164.6 446.2 153.2 446.2 153.2Z" fill="#9B2227"/>
<path d="M436.3 151.2C436.3 151.2 425.9 155.6 429.9 159.8C433.8 163.9 436.3 151.2 436.3 151.2Z" fill="#9B2227"/>
<path d="M454.2 151.2C454.2 151.2 457.7 163.3 461.4 158.9C465.1 154.4 454.2 151.2 454.2 151.2Z" fill="#9B2227"/>
<path d="M493.8 178.1H397.3V198.9H493.8V178.1Z" fill="#F89E1B"/>
<path d="M396.9 168.6C390.5 159.5 392.4 181.7 403.1 184.6C413.8 187.6 411.1 178.1 416.9 181C422.7 184 420.5 190.5 426.7 189.3C432.9 188.1 432.5 180.4 436.9 185.7C441.4 191 448.9 190.5 452 186.9C455.1 183.3 455.6 185.7 462.7 188.1C469.8 190.5 470.3 188.7 474.7 184.5C479.2 180.3 478.3 189.3 487.2 185.7C496.1 182.1 501.9 176.8 498.8 171.4C495.7 166.1 489.4 169.6 485 173.8C480.5 178 474.6 170.3 465.9 176.2C457.7 181.7 461.4 169.1 452.1 173.2C442.7 177.4 442.7 179.7 435.6 175C428.5 170.2 429.9 177.4 425.5 178C421 178.6 424.1 168.5 416.9 170.9C409.8 173.4 404.4 179.3 396.9 168.6Z" fill="#C3601E"/>
<path d="M329.4 24.7002H269.8C262.5 24.7002 256.6 31.6002 256.6 40.0002V50.4002C256.6 53.1002 258.5 55.3002 260.8 55.3002H261.4V70.1002C261.4 74.8002 264.7 78.5002 268.7 78.5002H330.6C334.6 78.5002 337.9 74.7002 337.9 70.1002V55.3002H338.5C340.8 55.3002 342.7 53.1002 342.7 50.4002V40.0002C342.6 31.5002 336.7 24.7002 329.4 24.7002Z" fill="#E8D7A5"/>
<path d="M268.7 78.6002H330.6C334.6 78.6002 337.9 74.8002 337.9 70.2002V55.4001H261.5V70.2002C261.4 74.8002 264.7 78.6002 268.7 78.6002Z" fill="#C96928"/>
<path d="M299.6 78.6002H330.5C334.5 78.6002 337.8 74.8002 337.8 70.2002V55.4001H299.6V78.6002Z" fill="#C96928"/>
<path d="M274.5 47.2002C275.9 47.2002 277 37.1002 277 24.7002H272C272 37.1002 273.2 47.2002 274.5 47.2002Z" fill="#C96928"/>
<path d="M299.6 47.2002C301 47.2002 302.1 37.1002 302.1 24.7002H297.1C297.1 37.1002 298.2 47.2002 299.6 47.2002Z" fill="#C96928"/>
<path d="M324.7 47.2002C326.1 47.2002 327.2 37.1002 327.2 24.7002H322.2C322.2 37.1002 323.3 47.2002 324.7 47.2002Z" fill="#C96928"/>
<path d="M459.4 32.9001H449.2C430.9 32.9001 416.1 50.1001 416.1 71.3001C416.1 76.2001 419.5 80.1002 423.7 80.1002H484.9C489.1 80.1002 492.5 76.1001 492.5 71.3001C492.6 50.1001 477.7 32.9001 459.4 32.9001Z" fill="#ED9B21"/>
<path d="M442.5 41.6003C443.936 41.6003 445.1 40.5705 445.1 39.3002C445.1 38.03 443.936 37.0002 442.5 37.0002C441.064 37.0002 439.9 38.03 439.9 39.3002C439.9 40.5705 441.064 41.6003 442.5 41.6003Z" fill="#E8D7A5"/>
<path d="M454.3 41.6003C455.736 41.6003 456.9 40.5705 456.9 39.3002C456.9 38.03 455.736 37.0002 454.3 37.0002C452.864 37.0002 451.7 38.03 451.7 39.3002C451.7 40.5705 452.864 41.6003 454.3 41.6003Z" fill="#E8D7A5"/>
<path d="M466.2 41.6003C467.636 41.6003 468.8 40.5705 468.8 39.3002C468.8 38.03 467.636 37.0002 466.2 37.0002C464.764 37.0002 463.6 38.03 463.6 39.3002C463.6 40.5705 464.764 41.6003 466.2 41.6003Z" fill="#E8D7A5"/>
<path d="M436.2 54.9001C437.636 54.9001 438.8 53.8703 438.8 52.6001C438.8 51.3298 437.636 50.3 436.2 50.3C434.764 50.3 433.6 51.3298 433.6 52.6001C433.6 53.8703 434.764 54.9001 436.2 54.9001Z" fill="#E8D7A5"/>
<path d="M448 54.9001C449.436 54.9001 450.6 53.8703 450.6 52.6001C450.6 51.3298 449.436 50.3 448 50.3C446.564 50.3 445.4 51.3298 445.4 52.6001C445.4 53.8703 446.564 54.9001 448 54.9001Z" fill="#E8D7A5"/>
<path d="M459.9 54.9001C461.336 54.9001 462.5 53.8703 462.5 52.6001C462.5 51.3298 461.336 50.3 459.9 50.3C458.464 50.3 457.3 51.3298 457.3 52.6001C457.3 53.8703 458.464 54.9001 459.9 54.9001Z" fill="#E8D7A5"/>
<path d="M472.6 54.9001C474.036 54.9001 475.2 53.8703 475.2 52.6001C475.2 51.3298 474.036 50.3 472.6 50.3C471.164 50.3 470 51.3298 470 52.6001C470 53.8703 471.164 54.9001 472.6 54.9001Z" fill="#E8D7A5"/>
<path d="M416.4 73.6001C417.2 77.4001 420.2 80.3001 423.8 80.3001H485C488.6 80.3001 491.6 77.5001 492.4 73.6001H416.4Z" fill="#C96928"/>
<path d="M178.4 61.3001C183.039 61.3001 186.8 56.9573 186.8 51.6002C186.8 46.243 183.039 41.9001 178.4 41.9001C173.761 41.9001 170 46.243 170 51.6002C170 56.9573 173.761 61.3001 178.4 61.3001Z" fill="#9B2227"/>
<path d="M178.5 41.8V61.3C183.1 61.3 186.8 56.9001 186.8 51.6001C186.8 46.3001 183.1 41.9 178.5 41.8Z" fill="#A44A3F"/>
<path d="M194.7 78.8001H162.7C160.1 78.8001 158 76.7002 158 74.1002V49.9001H199.5V74.0002C199.4 76.6002 197.3 78.8001 194.7 78.8001Z" fill="#C96928"/>
<path d="M199.4 62H157.9V70H199.4V62Z" fill="#F19B79"/>
<path d="M157.9 49.8H199.4V55.9001C199.4 55.9001 197.2 57.3001 194.9 53.7001C192.7 50.1001 190.7 54.9001 189.9 55.9001C189.1 56.8001 186.4 57.6001 185.9 55.0001C185.5 53.1001 185.1 51.8001 183.9 51.7001C183.1 51.7001 182.3 52.2001 181.9 52.9001C181.5 53.7001 180.8 54.6 180.2 54.3C179.3 53.9 178.4 51.8001 177 52.6001C176.6 52.9001 176.3 53.3001 176.2 53.9001C176 55.1001 175.4 57.4001 173.7 57.2001C172 56.9001 171.4 54.4 171.2 53.3C171.1 52.8 170.8 52.3001 170.3 52.1001C169.8 51.9001 169 52.0001 168.1 53.2001C166.3 55.7001 164.9 55.6001 163.5 54.2001C162.4 53.0001 162.1 52.3001 161.1 52.5001C160.7 52.6001 160.3 52.9001 160.1 53.2001C159.4 54.2001 157.6 56.4001 157.4 54.6001C157.3 52.7001 157.9 49.8 157.9 49.8Z" fill="#E8D7A5"/>
<path d="M69.1 61.3001C73.7392 61.3001 77.5 56.9573 77.5 51.6002C77.5 46.243 73.7392 41.9001 69.1 41.9001C64.4608 41.9001 60.7 46.243 60.7 51.6002C60.7 56.9573 64.4608 61.3001 69.1 61.3001Z" fill="#9B2227"/>
<path d="M69.2 41.8V61.3C73.8 61.3 77.5 56.9001 77.5 51.6001C77.5 46.3001 73.8 41.9 69.2 41.8Z" fill="#A44A3F"/>
<path d="M85.2999 78.8001H53.2999C50.6999 78.8001 48.5999 76.7002 48.5999 74.1002V49.9001H90.0999V74.0002C90.0999 76.6002 87.9999 78.8001 85.2999 78.8001Z" fill="#C96928"/>
<path d="M90.0999 62H48.5999V70H90.0999V62Z" fill="#F19B79"/>
<path d="M48.5999 49.8H90.0999V55.9001C90.0999 55.9001 87.8999 57.3001 85.5999 53.7001C83.3999 50.1001 81.3999 54.9001 80.5999 55.9001C79.7999 56.8001 77.0999 57.6001 76.5999 55.0001C76.1999 53.1001 75.7999 51.8001 74.5999 51.7001C73.7999 51.7001 72.9999 52.2001 72.5999 52.9001C72.1999 53.7001 71.4999 54.6 70.8999 54.3C69.9999 53.9 69.0999 51.8001 67.6999 52.6001C67.2999 52.9001 66.9999 53.3001 66.8999 53.9001C66.6999 55.1001 66.0999 57.4001 64.3999 57.2001C62.6999 56.9001 62.0999 54.4 61.8999 53.3C61.7999 52.8 61.4999 52.3001 60.9999 52.1001C60.4999 51.9001 59.6999 52.0001 58.7999 53.2001C56.9999 55.7001 55.5999 55.6001 54.1999 54.2001C53.0999 53.0001 52.7999 52.3001 51.7999 52.5001C51.3999 52.6001 50.9999 52.9001 50.7999 53.2001C50.0999 54.2001 48.2999 56.4001 48.0999 54.6001C47.9999 52.7001 48.5999 49.8 48.5999 49.8Z" fill="#E8D7A5"/>
<path d="M123.2 42.0001C133.03 42.0001 141 32.7324 141 21.3001C141 9.8678 133.03 0.600098 123.2 0.600098C113.369 0.600098 105.4 9.8678 105.4 21.3001C105.4 32.7324 113.369 42.0001 123.2 42.0001Z" fill="#9B2227"/>
<path d="M123.4 0.600098V41.9001C133.2 41.8001 141.1 32.6001 141.1 21.2001C141.1 9.80009 133.1 0.700098 123.4 0.600098Z" fill="#A44A3F"/>
<path d="M162.9 78.9001H84.4998C81.8998 78.9001 79.7998 76.8001 79.7998 74.2001V17.6001H167.7V74.2001C167.7 76.7001 165.5 78.9001 162.9 78.9001Z" fill="#C96928"/>
<path d="M167.7 43.3H79.7998V60.3H167.7V43.3Z" fill="#F19B79"/>
<path d="M79.6998 17.6001H167.6V30.5001C167.6 30.5001 162.9 33.4001 158.2 25.9001C153.5 18.4001 149.3 28.5001 147.7 30.5001C146.1 32.5001 140.3 34.2001 139.2 28.7001C138.4 24.6001 137.6 21.9001 135 21.8001C133.3 21.7001 131.7 22.8001 130.8 24.4001C129.9 26.0001 128.5 28.0001 127.2 27.3001C125.4 26.4001 123.3 22.0001 120.4 23.8001C119.5 24.4001 118.9 25.4001 118.7 26.5001C118.3 28.9001 116.9 34.0001 113.4 33.4001C109.7 32.8001 108.5 27.5001 108.1 25.2001C107.9 24.1001 107.2 23.0001 106.2 22.6001C105.1 22.2001 103.5 22.4001 101.6 25.0001C97.7998 30.2001 94.6997 30.0001 91.8997 27.1001C89.4998 24.7001 88.8998 23.1001 86.7998 23.6001C85.8998 23.8001 85.1998 24.4001 84.6998 25.1001C83.1998 27.2001 79.4998 31.9001 78.9998 28.0001C78.3998 23.6001 79.6998 17.6001 79.6998 17.6001Z" fill="#E8D7A5"/>
<path d="M526.4 78.8H0.399902V94.9001H526.4V78.8Z" fill="#E8D7A5"/>
<path d="M254.4 175.3V198.6H248.9C248 198.6 247.2 197.9 246.9 196.9L242.1 175.8L254.4 175.3Z" fill="#78AC42"/>
<path d="M254.4 175.3V198.6H259.9C260.8 198.6 261.6 197.9 261.9 196.9L266.7 175.8L254.4 175.3Z" fill="#78AC42"/>
<path d="M260.8 175.5L257.7 198.6H260C260.9 198.6 261.7 197.9 262 196.9L266.8 175.8L260.8 175.5Z" fill="#78AC42"/>
<path d="M248.1 175.5L251.2 198.6H248.9C248 198.6 247.2 197.9 246.9 196.9L242.1 175.8L248.1 175.5Z" fill="#C9D070"/>
<path d="M264 165.5C263.1 165.5 262.2 165.7 261.4 166C260.4 163 257.8 160.9 254.6 160.9C251.4 160.9 248.7 163.1 247.8 166.2C246.9 165.8 245.9 165.5 244.8 165.5C240.9 165.5 237.7 168.9 237.7 173C237.7 177.1 240.9 180.5 244.8 180.5C246.7 180.5 248.4 179.7 249.7 178.4C251 179.7 252.7 180.5 254.6 180.5C256.4 180.5 258 179.8 259.3 178.6C260.6 179.8 262.2 180.5 264 180.5C267.9 180.5 271.1 177.1 271.1 173C271.1 168.9 268 165.5 264 165.5Z" fill="#C96928"/>
<path d="M244.9 165.5C245.8 165.5 246.7 165.7 247.5 166C248.5 163 251.1 160.9 254.3 160.9C254.4 160.9 254.4 160.9 254.5 160.9V180.5C254.4 180.5 254.4 180.5 254.3 180.5C252.5 180.5 250.9 179.8 249.6 178.6C248.3 179.8 246.7 180.5 244.9 180.5C241 180.5 237.8 177.1 237.8 173C237.7 168.9 240.9 165.5 244.9 165.5Z" fill="#ED9B21"/>
<path d="M311 175.6V198.9H305.5C304.6 198.9 303.8 198.2 303.5 197.2L298.7 176.1L311 175.6Z" fill="#78AC42"/>
<path d="M311 175.6V198.9H316.5C317.4 198.9 318.2 198.2 318.5 197.2L323.3 176.1L311 175.6Z" fill="#78AC42"/>
<path d="M317.3 175.8L314.2 198.9H316.5C317.4 198.9 318.2 198.2 318.5 197.2L323.3 176.1L317.3 175.8Z" fill="#78AC42"/>
<path d="M304.7 175.8L307.8 198.9H305.5C304.6 198.9 303.8 198.2 303.5 197.2L298.7 176.1L304.7 175.8Z" fill="#C9D070"/>
<path d="M320.6 165.8C319.7 165.8 318.8 166 318 166.3C317 163.3 314.4 161.2 311.2 161.2C308 161.2 305.3 163.4 304.4 166.5C303.5 166.1 302.5 165.8 301.4 165.8C297.5 165.8 294.3 169.2 294.3 173.3C294.3 177.4 297.5 180.8 301.4 180.8C303.3 180.8 305 180 306.3 178.7C307.6 180 309.3 180.8 311.2 180.8C313 180.8 314.6 180.1 315.9 178.9C317.2 180.1 318.8 180.8 320.6 180.8C324.5 180.8 327.7 177.4 327.7 173.3C327.7 169.2 324.6 165.8 320.6 165.8Z" fill="#C96928"/>
<path d="M301.4 165.8C302.3 165.8 303.2 166 304 166.3C305 163.3 307.6 161.2 310.8 161.2C310.9 161.2 310.9 161.2 311 161.2V180.8C310.9 180.8 310.9 180.8 310.8 180.8C309 180.8 307.4 180.1 306.1 178.9C304.8 180.1 303.2 180.8 301.4 180.8C297.5 180.8 294.3 177.4 294.3 173.3C294.3 169.2 297.5 165.8 301.4 165.8Z" fill="#ED9B21"/>
<path d="M283.8 161.1V199.1H274.8C273.3 199.1 272 197.9 271.6 196.3L263.7 162L283.8 161.1Z" fill="#78AC42"/>
<path d="M283.8 161.1V199.1H292.8C294.3 199.1 295.6 197.9 296 196.3L303.9 162L283.8 161.1Z" fill="#78AC42"/>
<path d="M294 161.5L289 199.1H292.7C294.2 199.1 295.5 197.9 295.9 196.3L303.8 162L294 161.5Z" fill="#78AC42"/>
<path d="M273.5 161.5L278.5 199.1H274.8C273.3 199.1 272 197.9 271.6 196.3L263.7 162L273.5 161.5Z" fill="#C9D070"/>
<path d="M299.4 145.2C297.9 145.2 296.4 145.5 295.1 146.1C293.5 141.3 289.2 137.8 284.1 137.8C278.9 137.8 274.5 141.4 273 146.4C271.5 145.7 269.9 145.3 268.1 145.3C261.7 145.3 256.5 150.8 256.5 157.5C256.5 164.2 261.7 169.7 268.1 169.7C271.2 169.7 274 168.4 276.1 166.3C278.2 168.4 281 169.7 284.1 169.7C287 169.7 289.7 168.5 291.8 166.7C293.8 168.6 296.5 169.7 299.5 169.7C305.9 169.7 311.1 164.2 311.1 157.5C311.1 150.8 305.8 145.2 299.4 145.2Z" fill="#C96928"/>
<path d="M268.1 145.2C269.6 145.2 271.1 145.5 272.4 146.1C274 141.3 278.3 137.8 283.4 137.8C283.5 137.8 283.6 137.8 283.7 137.8V169.7C283.6 169.7 283.5 169.7 283.4 169.7C280.5 169.7 277.8 168.5 275.7 166.7C273.7 168.6 271 169.7 268 169.7C261.6 169.7 256.4 164.2 256.4 157.5C256.5 150.7 261.7 145.2 268.1 145.2Z" fill="#ED9B21"/>
<path d="M526.4 199.4H0.399902V215.5H526.4V199.4Z" fill="#E8D7A5"/>
</svg>
