<svg width="32" height="32" viewBox="0 0 32 32" fill="none" xmlns="http://www.w3.org/2000/svg">
<g clip-path="url(#clip0_669_470)">
<path fill-rule="evenodd" clip-rule="evenodd" d="M16.0006 1.27979C12.3541 1.28168 8.82726 2.57317 6.05061 4.92333C3.27395 7.2735 1.42857 10.5291 0.844432 14.1079C0.260293 17.6868 0.975481 21.3556 2.86213 24.4583C4.74878 27.5609 7.68385 29.8952 11.1425 31.0436C11.9056 31.1852 12.193 30.7123 12.193 30.3102C12.193 29.9081 12.1777 28.7422 12.1726 27.4676C7.8996 28.3907 6.99668 25.6644 6.99668 25.6644C6.29977 23.8941 5.29255 23.4288 5.29255 23.4288C3.89873 22.4829 5.39684 22.5006 5.39684 22.5006C6.94073 22.6094 7.75209 24.0762 7.75209 24.0762C9.12048 26.4105 11.346 25.7352 12.221 25.3407C12.3583 24.3519 12.7576 23.6791 13.1977 23.2973C9.78432 22.9129 6.19802 21.6028 6.19802 15.7507C6.17687 14.233 6.74328 12.7653 7.78007 11.6512C7.62237 11.2668 7.09587 9.714 7.93013 7.60482C7.93013 7.60482 9.21968 7.19512 12.1548 9.17027C14.6724 8.4857 17.3287 8.4857 19.8463 9.17027C22.7789 7.19512 24.0659 7.60482 24.0659 7.60482C24.9027 9.70895 24.3762 11.2618 24.2185 11.6512C25.2586 12.7655 25.8262 14.2358 25.8031 15.7558C25.8031 21.6205 22.2092 22.9129 18.7907 23.2897C19.3401 23.7651 19.831 24.6933 19.831 26.1196C19.831 28.1631 19.8132 29.8069 19.8132 30.3102C19.8132 30.7174 20.0904 31.1928 20.8687 31.0436C24.3278 29.895 27.2632 27.5604 29.1498 24.4572C31.0364 21.354 31.7512 17.6846 31.1664 14.1055C30.5816 10.5263 28.7353 7.27064 25.9578 4.92088C23.1802 2.57112 19.6525 1.28048 16.0056 1.27979H16.0006Z" fill="#F6F4D4"/>
<path d="M6.45694 23.2085C6.42387 23.2843 6.30179 23.3071 6.20259 23.254C6.1034 23.2009 6.02964 23.1023 6.06525 23.0239C6.10086 22.9455 6.2204 22.9252 6.3196 22.9783C6.41879 23.0314 6.49509 23.1326 6.45694 23.2085Z" fill="#F6F4D4"/>
<path d="M7.08027 23.8992C7.02759 23.9255 6.96733 23.9329 6.9098 23.92C6.85226 23.9071 6.80104 23.8747 6.76488 23.8283C6.66568 23.7221 6.64532 23.5755 6.72163 23.5097C6.79793 23.4439 6.93529 23.4743 7.03449 23.5805C7.13368 23.6867 7.15657 23.8334 7.08027 23.8992Z" fill="#F6F4D4"/>
<path d="M7.68537 24.7768C7.59127 24.8425 7.43102 24.7768 7.342 24.6453C7.31738 24.6217 7.29781 24.5934 7.28443 24.5621C7.27106 24.5308 7.26416 24.4972 7.26416 24.4632C7.26416 24.4292 7.27106 24.3955 7.28443 24.3643C7.29781 24.333 7.31738 24.3047 7.342 24.2811C7.43611 24.2179 7.59635 24.2811 7.68537 24.4101C7.7744 24.5391 7.77694 24.711 7.68537 24.7768Z" fill="#F6F4D4"/>
<path d="M8.50693 25.6262C8.423 25.7198 8.25259 25.6945 8.1127 25.568C7.97281 25.4416 7.93973 25.2696 8.02367 25.1786C8.1076 25.0875 8.27801 25.1128 8.42299 25.2367C8.56797 25.3607 8.59595 25.5352 8.50693 25.6262Z" fill="#F6F4D4"/>
<path d="M9.65924 26.1219C9.62109 26.2407 9.44813 26.2938 9.27517 26.2432C9.10222 26.1927 8.98776 26.051 9.02083 25.9296C9.05389 25.8083 9.22939 25.7526 9.40489 25.8083C9.58039 25.8639 9.6923 25.9979 9.65924 26.1219Z" fill="#F6F4D4"/>
<path d="M10.9156 26.208C10.9156 26.3319 10.7732 26.4381 10.59 26.4406C10.4069 26.4432 10.2568 26.342 10.2568 26.2181C10.2568 26.0941 10.3993 25.9879 10.5824 25.9854C10.7655 25.9829 10.9156 26.0815 10.9156 26.208Z" fill="#F6F4D4"/>
<path d="M12.0859 26.0135C12.1088 26.1374 11.9817 26.2664 11.7985 26.2967C11.6154 26.3271 11.4552 26.2537 11.4323 26.1323C11.4094 26.0109 11.5416 25.8794 11.7197 25.8465C11.8977 25.8137 12.063 25.8895 12.0859 26.0135Z" fill="#F6F4D4"/>
</g>
<defs>
<clipPath id="clip0_669_470">
<rect width="30.72" height="30.72" fill="white" transform="translate(0.640137 0.639648)"/>
</clipPath>
</defs>
</svg>
