<svg width="190" height="60" viewBox="0 0 190 60" fill="none" xmlns="http://www.w3.org/2000/svg">
<path d="M56.7227 1.20361H62.3314V9.82563H71.0151V1.20361H76.6316V22.3499H71.0151V14.2292H62.3314V22.3499H56.7227V1.20361Z" fill="#08151B"/>
<path d="M96.6111 22.3499L95.1364 18.6096H85.8408L84.3347 22.3499H78.5691L87.8019 1.20361H93.5675L102.62 22.3499H96.6111ZM87.5273 14.3834H93.4812L90.5317 6.84108L87.5273 14.3834Z" fill="#08151B"/>
<path d="M117.014 6.30827C116.143 5.82075 115.161 5.55562 114.159 5.53707C113.119 5.51768 112.095 5.78483 111.202 6.30827C110.312 6.84376 109.585 7.60585 109.099 8.51391C108.594 9.48015 108.331 10.5509 108.331 11.6373C108.331 12.7236 108.594 13.7944 109.099 14.7606C109.583 15.6679 110.31 16.4279 111.202 16.9585C112.095 17.482 113.119 17.7491 114.159 17.7297C115.118 17.7095 116.06 17.4832 116.92 17.0665C117.884 16.6194 118.758 16.0055 119.501 15.2542L122.78 18.7709C121.599 19.9896 120.186 20.9694 118.622 21.6551C116.965 22.413 115.149 22.7752 113.323 22.7123C111.496 22.6493 109.71 22.1629 108.111 21.2927C106.423 20.358 105.024 18.9907 104.063 17.3364C103.071 15.6305 102.562 13.6946 102.589 11.7298C102.559 9.79934 103.068 7.89787 104.062 6.23221C105.055 4.56655 106.493 3.20049 108.221 2.28261C110.025 1.32839 112.048 0.842639 114.096 0.871317C115.717 0.879787 117.318 1.21305 118.803 1.85074C120.284 2.46373 121.62 3.37235 122.725 4.51909L119.478 8.37509C118.806 7.53009 117.969 6.82709 117.014 6.30827Z" fill="#08151B"/>
<path d="M145.85 22.3499H139.136L133.488 14.1443L130.789 17.098V22.3499H125.173V1.20361H130.789V10.3732L138.861 1.20361H145.364L137.386 9.91817L145.85 22.3499Z" fill="#08151B"/>
<path d="M56.6365 38.4448H62.253V59.5911H56.6365V38.4448Z" fill="#08151B"/>
<path d="M66.426 38.4448H72.0269V54.8868H81.142V59.5911H66.426V38.4448Z" fill="#08151B"/>
<path d="M85.4172 38.4448H91.0338V54.8868H100.149V59.5911H85.4172V38.4448Z" fill="#08151B"/>
<path d="M103.279 38.4448H108.896V59.5911H103.279V38.4448Z" fill="#08151B"/>
<path d="M128.341 38.4448H133.558V59.5911H128.647L118.897 46.9589V59.5911H113.649V38.4448H118.591L128.373 51.1619L128.341 38.4448Z" fill="#08151B"/>
<path d="M154.534 39.5315C156.251 40.4258 157.693 41.7576 158.707 43.3875C159.725 45.0648 160.249 46.9871 160.221 48.9401C160.252 50.8918 159.739 52.8146 158.736 54.4993C157.733 56.184 156.28 57.5661 154.534 58.4953C152.716 59.4762 150.669 59.9758 148.596 59.9452C146.524 59.9735 144.48 59.4797 142.657 58.5107C140.924 57.5968 139.48 56.2305 138.484 54.5622C137.466 52.8596 136.942 50.915 136.97 48.9401C136.945 47.0128 137.459 45.1158 138.457 43.4564C139.454 41.797 140.897 40.4392 142.626 39.5315C144.462 38.599 146.498 38.1123 148.564 38.1123C150.631 38.1123 152.667 38.599 154.502 39.5315H154.534ZM145.693 43.6034C144.782 44.15 144.036 44.9279 143.536 45.8553C143.006 46.8213 142.736 47.9044 142.752 49.0018C142.725 50.1127 142.995 51.211 143.536 52.1869C144.043 53.1116 144.787 53.8903 145.693 54.4465C146.575 54.9965 147.599 55.2856 148.643 55.2794C149.68 55.2864 150.696 54.997 151.569 54.4465C152.465 53.8945 153.191 53.1134 153.671 52.1869C154.176 51.2055 154.439 50.121 154.439 49.0211C154.439 47.9212 154.176 46.8367 153.671 45.8553C153.191 44.931 152.464 44.1525 151.569 43.6034C150.686 43.0817 149.672 42.8145 148.643 42.8322C147.606 42.8175 146.585 43.0844 145.693 43.6034Z" fill="#08151B"/>
<path d="M162.739 38.4448H168.356V59.5911H162.739V38.4448Z" fill="#08151B"/>
<path d="M183.417 43.1798C182.368 42.8066 181.268 42.5934 180.154 42.5474C179.582 42.5189 179.013 42.6499 178.514 42.9253C178.323 43.0394 178.165 43.2018 178.059 43.3958C177.953 43.5897 177.902 43.808 177.91 44.0281C177.908 44.2478 177.954 44.4654 178.045 44.6662C178.136 44.867 178.269 45.0465 178.436 45.1926C178.81 45.529 179.247 45.7909 179.722 45.9638C180.232 46.1566 180.993 46.4034 181.997 46.735C183.256 47.0786 184.49 47.5037 185.692 48.0075C186.68 48.4368 187.541 49.1055 188.194 49.9509C188.927 50.9427 189.295 52.1503 189.237 53.3751C189.272 54.6659 188.872 55.9318 188.1 56.9766C187.294 58.0064 186.205 58.7878 184.962 59.2285C183.557 59.7519 182.064 60.0134 180.562 59.9997C178.746 59.996 176.944 59.6856 175.235 59.0819C173.563 58.5247 172.008 57.6728 170.646 56.5678L172.827 52.2491C173.969 53.2285 175.271 54.0108 176.679 54.5627C177.913 55.1149 179.245 55.424 180.601 55.4727C181.293 55.507 181.98 55.3493 182.585 55.0177C182.815 54.8801 183.003 54.6846 183.13 54.4513C183.257 54.218 183.318 53.9556 183.307 53.6912C183.314 53.4626 183.269 53.2353 183.175 53.0259C183.081 52.8165 182.942 52.6302 182.766 52.4805C182.373 52.1371 181.914 51.8749 181.417 51.7093C180.875 51.5165 180.114 51.2928 179.134 51.0306C177.888 50.7066 176.666 50.2968 175.478 49.8044C174.513 49.3881 173.665 48.7476 173.007 47.9381C172.282 46.9755 171.919 45.7953 171.98 44.5988C171.955 43.3605 172.334 42.1468 173.062 41.1361C173.818 40.0949 174.864 39.2913 176.075 38.8225C177.514 38.2736 179.05 38.0115 180.593 38.0513C182.151 38.0513 183.702 38.2694 185.198 38.6991C186.607 39.0846 187.952 39.6691 189.19 40.4343L187.072 44.8379C185.917 44.1593 184.692 43.6034 183.417 43.1798Z" fill="#08151B"/>
<path d="M11.7352 24.0614H29.2595V13.1644H40.8377V0H7.77376L0 13.1644H11.7352V24.0614Z" fill="#08151B"/>
<path d="M29.2595 35.5601H11.7352V46.4571H0V59.6215H33.3699L40.8377 46.4571H29.2595V35.5601Z" fill="#08151B"/>
</svg>
