<svg width="32" height="32" viewBox="0 0 32 32" fill="none" xmlns="http://www.w3.org/2000/svg">
<path d="M16.0001 3.40565C20.1041 3.40565 20.5901 3.42365 22.2041 3.49565C23.7041 3.56165 24.5141 3.81365 25.0541 4.02365C25.7681 4.29965 26.2841 4.63565 26.8181 5.16965C27.3581 5.70965 27.6881 6.21965 27.9641 6.93365C28.1741 7.47365 28.4261 8.28965 28.4921 9.78365C28.5641 11.4036 28.5821 11.8896 28.5821 15.9877C28.5821 20.0917 28.5641 20.5777 28.4921 22.1917C28.4261 23.6917 28.1741 24.5017 27.9641 25.0417C27.6881 25.7557 27.3521 26.2717 26.8181 26.8057C26.2781 27.3457 25.7681 27.6757 25.0541 27.9517C24.5141 28.1617 23.6981 28.4137 22.2041 28.4797C20.5841 28.5517 20.0981 28.5697 16.0001 28.5697C11.8961 28.5697 11.4101 28.5517 9.79614 28.4797C8.29614 28.4137 7.48614 28.1617 6.94614 27.9517C6.23214 27.6757 5.71614 27.3397 5.18214 26.8057C4.64214 26.2657 4.31214 25.7557 4.03614 25.0417C3.82614 24.5017 3.57414 23.6857 3.50814 22.1917C3.43614 20.5717 3.41814 20.0857 3.41814 15.9877C3.41814 11.8836 3.43614 11.3976 3.50814 9.78365C3.57414 8.28365 3.82614 7.47365 4.03614 6.93365C4.31214 6.21965 4.64814 5.70365 5.18214 5.16965C5.72214 4.62965 6.23214 4.29965 6.94614 4.02365C7.48614 3.81365 8.30214 3.56165 9.79614 3.49565C11.4101 3.42365 11.8961 3.40565 16.0001 3.40565ZM16.0001 0.639648C11.8301 0.639648 11.3081 0.657648 9.67014 0.729648C8.03814 0.801648 6.91614 1.06565 5.94414 1.44365C4.93014 1.83965 4.07214 2.36165 3.22014 3.21965C2.36214 4.07165 1.84014 4.92965 1.44414 5.93765C1.06614 6.91565 0.802137 8.03165 0.730137 9.66365C0.658137 11.3076 0.640137 11.8296 0.640137 15.9996C0.640137 20.1696 0.658137 20.6916 0.730137 22.3296C0.802137 23.9617 1.06614 25.0837 1.44414 26.0557C1.84014 27.0697 2.36214 27.9277 3.22014 28.7797C4.07214 29.6317 4.93014 30.1597 5.93814 30.5497C6.91614 30.9277 8.03214 31.1916 9.66414 31.2636C11.3021 31.3356 11.8241 31.3536 15.9941 31.3536C20.1641 31.3536 20.6861 31.3356 22.3241 31.2636C23.9561 31.1916 25.0781 30.9277 26.0501 30.5497C27.0581 30.1597 27.9161 29.6317 28.7681 28.7797C29.6201 27.9277 30.1481 27.0697 30.5381 26.0617C30.9161 25.0837 31.1801 23.9677 31.2521 22.3357C31.3241 20.6977 31.3421 20.1757 31.3421 16.0057C31.3421 11.8357 31.3241 11.3136 31.2521 9.67565C31.1801 8.04365 30.9161 6.92165 30.5381 5.94965C30.1601 4.92965 29.6381 4.07165 28.7801 3.21965C27.9281 2.36765 27.0701 1.83965 26.0621 1.44965C25.0841 1.07165 23.9681 0.807648 22.3361 0.735648C20.6921 0.657648 20.1701 0.639648 16.0001 0.639648Z" fill="#F6F4D4"/>
<path d="M16.0004 8.10986C11.6444 8.10986 8.11035 11.6439 8.11035 15.9999C8.11035 20.3559 11.6444 23.8899 16.0004 23.8899C20.3564 23.8899 23.8904 20.3559 23.8904 15.9999C23.8904 11.6439 20.3564 8.10986 16.0004 8.10986ZM16.0004 21.1179C13.1744 21.1179 10.8824 18.8259 10.8824 15.9999C10.8824 13.1739 13.1744 10.8819 16.0004 10.8819C18.8264 10.8819 21.1184 13.1739 21.1184 15.9999C21.1184 18.8259 18.8264 21.1179 16.0004 21.1179Z" fill="#F6F4D4"/>
<path d="M26.0444 7.79757C26.0444 8.81757 25.2164 9.63957 24.2024 9.63957C23.1824 9.63957 22.3604 8.81157 22.3604 7.79757C22.3604 6.77757 23.1884 5.95557 24.2024 5.95557C25.2164 5.95557 26.0444 6.78357 26.0444 7.79757Z" fill="#F6F4D4"/>
</svg>
