<svg width="32" height="32" viewBox="0 0 32 32" fill="none" xmlns="http://www.w3.org/2000/svg">
<path d="M29.0861 0.639648H2.90814C1.65414 0.639648 0.640137 1.62965 0.640137 2.85365V29.1397C0.640137 30.3637 1.65414 31.3596 2.90814 31.3596H29.0861C30.3401 31.3596 31.3601 30.3637 31.3601 29.1457V2.85365C31.3601 1.62965 30.3401 0.639648 29.0861 0.639648ZM9.75414 26.8176H5.19414V12.1536H9.75414V26.8176ZM7.47414 10.1556C6.01014 10.1556 4.82814 8.97365 4.82814 7.51565C4.82814 6.05765 6.01014 4.87565 7.47414 4.87565C8.93214 4.87565 10.1141 6.05765 10.1141 7.51565C10.1141 8.96765 8.93214 10.1556 7.47414 10.1556ZM26.8181 26.8176H22.2641V19.6896C22.2641 17.9916 22.2341 15.8016 19.8941 15.8016C17.5241 15.8016 17.1641 17.6556 17.1641 19.5697V26.8176H12.6161V12.1536H16.9841V14.1576H17.0441C17.6501 13.0056 19.1381 11.7877 21.3521 11.7877C25.9661 11.7877 26.8181 14.8237 26.8181 18.7717V26.8176Z" fill="#F6F4D4"/>
</svg>
