<svg width="32" height="26" viewBox="0 0 32 26" fill="none" xmlns="http://www.w3.org/2000/svg">
<path d="M10.3043 25.4795C21.8939 25.4795 28.2347 15.8753 28.2347 7.54907C28.2347 7.27907 28.2287 7.00307 28.2167 6.73307C29.4502 5.84104 30.5147 4.73614 31.3601 3.47027C30.2114 3.98138 28.9917 4.31518 27.7427 4.46027C29.0578 3.67201 30.0424 2.4337 30.5141 0.974874C29.277 1.70805 27.9241 2.22524 26.5133 2.50427C25.5628 1.49429 24.306 0.825561 22.9373 0.601477C21.5686 0.377394 20.1642 0.610437 18.9412 1.26458C17.7183 1.91871 16.7448 2.95752 16.1715 4.22037C15.5981 5.48323 15.4567 6.8998 15.7691 8.25107C13.2641 8.12537 10.8135 7.47463 8.57611 6.34106C6.33873 5.20748 4.36454 3.61637 2.78154 1.67087C1.97697 3.05804 1.73077 4.69952 2.09298 6.26169C2.45518 7.82386 3.39862 9.18951 4.73154 10.0811C3.73086 10.0493 2.75211 9.77988 1.87614 9.29507V9.37307C1.87524 10.8288 2.3785 12.2399 3.30037 13.3666C4.22224 14.4932 5.50583 15.2658 6.93294 15.5531C6.00597 15.8067 5.03307 15.8437 4.08954 15.6611C4.49224 16.913 5.27575 18.008 6.33072 18.7932C7.3857 19.5784 8.65949 20.0147 9.97434 20.0411C7.74212 21.7945 4.98468 22.7456 2.14614 22.7411C1.64274 22.7403 1.13985 22.7095 0.640137 22.6487C3.52379 24.4987 6.87826 25.4813 10.3043 25.4795Z" fill="#F6F4D4"/>
</svg>
