<svg width="241" height="798" viewBox="0 0 241 798" fill="none" xmlns="http://www.w3.org/2000/svg">
<path d="M77.7759 18.5076C68.3946 51.884 74.6856 89.3441 75.7341 125.312C76.5619 153.976 74.0234 182.484 72.2023 211.07C63.7592 342.847 71.1538 475.489 73.0301 607.738C73.5819 648.025 73.4164 689.962 61 726.087C74.8512 732.762 89.8612 732.291 104.54 731.663C134.008 730.485 163.532 729.385 193 728.207C181.577 688.077 170.209 647.947 158.786 607.817C148.742 572.555 138.589 536.588 136.326 498.656C135.112 478.552 136.161 458.369 136.05 438.186C135.94 420.045 134.836 402.061 133.788 383.999C132.905 368.92 131.967 353.842 131.084 338.764C129.538 312.612 127.938 286.461 124.296 260.781C119.826 229.525 112.266 199.211 107.962 167.877C103.657 136.542 102.774 103.087 111.383 73.6375C112.873 68.4544 114.749 63.2712 114.97 57.6169C115.742 38.612 98.5251 23.141 102.498 5C94.4967 9.47636 85.5569 10.4188 77.7759 18.5076Z" fill="#101038"/>
<path d="M80.1746 630C76.3886 651.292 72.438 673.212 63.3295 690.968C58.2266 700.867 51.6971 709.116 45.1675 717.13C37.8149 726.165 30.4623 735.122 23 744C40.5584 732.451 58.9399 720.744 78.2542 721.53C81.9853 721.687 85.8263 722.316 89.4477 720.666C93.0142 719.094 96.3064 714.38 95.9772 709.038C95.8126 706.524 94.9347 704.324 94.3311 701.967C91.9717 692.932 93.5081 682.875 92.9045 673.29C91.8071 655.77 83.6314 638.171 80.1746 630Z" fill="#101038"/>
<path d="M84.2827 648C85.7618 666.72 84.2827 685.913 80.0645 703.768C78.3663 710.926 76.2846 717.848 75.4081 725.32C74.3125 735.389 75.6273 745.693 76.942 755.761C78.8046 769.841 80.6671 783.92 82.5845 798C92.1712 767.324 104.826 738.614 120 712.971C114.851 702.431 107.619 694.329 101.813 684.497C96.0606 674.665 91.5686 661.844 84.2827 648Z" fill="#101038"/>
<path d="M99 724.438C110.75 724.359 120.735 735.852 131.326 743.145C143.407 751.467 156.923 754.638 170.272 756.302C177.885 757.254 185.829 757.808 193 754.004C177.002 752.577 161.446 742.828 149.862 726.895C140.594 714.134 132.54 696.616 119.797 694.238C110.915 692.574 102.31 699.311 99 724.438Z" fill="#101038"/>
<path d="M158.495 631.934C163.751 656.085 169.937 682.125 184.5 696.285C201.034 712.334 223.7 708.558 241 722.797C208.918 732.788 175.631 734.676 143.056 728.304C142.399 698.41 141.742 668.515 141.03 638.699C140.976 636.575 140.921 634.294 141.578 632.327C143.658 626.348 150.83 626.899 158.495 631.934Z" fill="#101038"/>
<path d="M106.91 258C108.504 204.09 128.617 155.366 148.125 109.235C163.567 72.6927 179.064 36.1499 195 0C183.79 1.72891 176.316 16.7389 169.996 30.0987C146.147 80.5513 118.065 126.917 86.4674 167.783C85.0386 169.669 83.4999 171.712 83.1152 174.384C82.8405 176.191 83.1152 177.999 83.335 179.806C86.5773 202.282 89.7646 224.758 93.0068 247.234C97.1833 250.927 102.624 251.399 106.91 258Z" fill="#101038"/>
<path d="M70.6724 417.856C45.2293 376.707 21.8064 332.878 0.567475 287C-1.72568 299.376 3.35202 311.831 8.26592 322.473C21.1512 350.615 34.0366 378.836 46.9219 406.977C51.0714 416.043 55.2755 425.187 58.5515 435.041C65.1033 454.432 68.1063 475.874 71 497C69.5258 468.306 70.5632 439.376 70.6724 417.856Z" fill="#101038"/>
<path opacity="0.102" d="M113.44 230C125.194 282.675 124.452 338.888 123.539 394C124.966 368.291 118.575 343.055 115.152 317.739C111.329 288.965 111.272 259.561 113.44 230Z" fill="#6E8BC1"/>
<path opacity="0.102" d="M117 368C119.874 384.88 120.695 402.64 119.412 420C118.591 403.04 117.359 386.16 117 368Z" fill="#6E8BC1"/>
<path opacity="0.102" d="M132.052 677C132.753 686.447 133.939 695.815 135.611 705.026C136.096 707.623 136.581 710.221 137.498 712.583C138.63 715.574 140.41 717.936 142.136 720.219C149.739 730.453 157.397 740.766 165 751C154.97 741.16 145.155 730.847 135.557 720.14C134.262 718.723 132.914 717.149 132.213 714.945C131.728 713.291 131.62 711.481 131.566 709.67C130.973 697.232 130.488 684.794 132.052 677Z" fill="#6E8BC1"/>
<path opacity="0.102" d="M138 653C141.231 666.353 143.564 680.098 145 694C141.769 680.019 139.795 665.489 138 653Z" fill="#6E8BC1"/>
<path opacity="0.102" d="M132 508C139.349 560.997 150.676 612.892 165.706 662.503C168.413 671.48 171.286 680.458 175.596 688.018C187.034 708.334 206.208 715.501 224 721.485C209.192 724.084 194.273 725.265 179.354 724.95C177.696 724.95 175.928 724.793 174.436 723.612C172.557 722.115 171.618 719.123 170.734 716.367C157.362 673.764 143.825 630.532 138.631 584.385C135.702 558.162 135.481 531.309 132 508Z" fill="#6E8BC1"/>
</svg>
