<svg width="1194" height="271" viewBox="0 0 1194 271" fill="none" xmlns="http://www.w3.org/2000/svg">
<path opacity="0.1098" d="M492.172 113.571C568.553 116.678 676.085 116.075 751.626 106.25C803.22 99.5316 850.947 80.0486 898.76 62.5812C987.241 30.3336 1080.6 4.21633 1177.14 0.521288C1273.61 -3.08977 1374.19 17.7368 1447.3 70.3911C1486.79 98.8597 1516.87 135.306 1543.42 172.844C1401.16 203.161 1251.68 195.519 1105.13 187.709C929.934 178.303 754.063 168.898 581.973 139.925C568.445 137.658 554.16 134.886 544.245 126.908C534.329 118.931 500.407 122.64 492.172 113.571Z" fill="#219B96"/>
<path d="M-35.8013 188.176C108.643 128.131 270.565 97.6471 431.899 100.334C624.492 103.526 797.244 139.468 980.845 188.176C1102.85 220.507 1214.88 145.397 1341.38 224.957C1362.31 230.499 1406.21 312.883 1409.15 331.106C1411.84 347.65 1394.53 361.422 1377.64 370.24C1304.78 408.114 1214.29 410.382 1128.58 411.473C765.491 416.26 402.49 421.131 39.4039 425.918C21.3378 426.17 2.34743 426.17 -13.3658 418.78C-36.0534 408.03 -45.3806 384.852 -50.4223 363.438C-62.4383 312.127 -60.6737 258.633 -35.8013 188.176Z" fill="#161654"/>
<path opacity="0.2" d="M-231 277.145C-180.163 235.324 -127.813 194.679 -68.9937 165.203C-10.174 135.81 56.0402 118.007 121.498 124.557C169.814 129.428 215.694 147.147 261.237 163.775C470.803 240.195 687.764 296.293 908.17 330.892C784.564 336.938 660.959 342.9 537.69 353.734C324.09 372.461 110.322 405.632 -103.613 391.524C-118.654 390.516 -134.62 389.004 -146.888 380.187C-158.064 372.209 -164.618 359.36 -170.584 347.015C-195.54 295.705 -219.488 243.722 -231 277.145Z" fill="#219B96"/>
</svg>
