<svg width="1440" height="1024" viewBox="0 0 1440 1024" fill="none" xmlns="http://www.w3.org/2000/svg">
<g clip-path="url(#clip0_1_2)">
<path d="M1440 0H0V1024H1440V0Z" fill="#D8ECD8"/>
<path d="M-10.1356 715.098L-10.1513 715.101C-14.4632 716.001 -17.2653 720.407 -16.41 724.943L-4.3472 788.906C-3.49185 793.442 0.697049 796.389 5.00898 795.489L5.02468 795.486C9.3366 794.586 12.1387 790.18 11.2833 785.645L-0.779398 721.681C-1.63474 717.146 -5.82365 714.198 -10.1356 715.098Z" fill="#EF9B7D"/>
<path d="M-13.3438 715.724C-13.3438 715.724 -80.1273 630.451 -34.6921 612.645C10.743 594.839 4.385 681.056 -6.2491 714.259L-13.3438 715.724Z" stroke="#0D171D" stroke-width="2" stroke-miterlimit="10"/>
<path d="M34.1424 703.463L34.1271 703.458C29.9105 702.151 25.4848 704.687 24.2422 709.122L-1.76607 801.954C-3.00869 806.389 -0.597768 811.044 3.61889 812.351L3.63422 812.356C7.85087 813.663 12.2765 811.127 13.5191 806.692L39.5274 713.86C40.77 709.425 38.3591 704.77 34.1424 703.463Z" fill="#EF9B7D"/>
<path d="M67.5799 679.234C73.498 658.111 67.3117 637.582 53.7624 633.382C40.2131 629.182 24.4316 642.901 18.5135 664.025C12.5954 685.148 18.7817 705.677 32.331 709.877C45.8803 714.077 61.6617 700.358 67.5799 679.234Z" fill="#EF9B7D"/>
<path d="M47.5297 646.892C43.5172 646.424 39.4904 647.634 36.319 650.261C29.3044 657 16.0438 672.414 28.3114 694.178C28.3114 694.178 29.3684 697.109 28.3114 684.509C27.2544 671.908 31.4344 655.736 43.9583 650.649C50.2683 648.088 49.6757 647.162 47.5297 646.892Z" fill="#F5F3D2"/>
<path d="M47.5298 878.15H-7.88279L-25.8999 739.308H59.8935L47.5298 878.15Z" fill="#E8D7A5"/>
<path d="M1443.53 877.611H-498V947.125H1443.53V877.611Z" fill="#F6F4D4"/>
<path d="M1443.53 947.125H-498V1669H1443.53V947.125Z" fill="#E6988E"/>
<path d="M138.404 987.229H-450.767V1142.3H138.404V987.229Z" fill="#E8D7A5"/>
<path d="M749.95 987.229H180.666V1142.3H749.95V987.229Z" fill="#E8D7A5"/>
<path d="M1443.53 893.653H797.183V1669H1443.53V893.653Z" fill="#E8D7A5"/>
<path d="M880.462 989.903C889.387 989.903 896.621 982.122 896.621 972.524C896.621 962.926 889.387 955.146 880.462 955.146C871.538 955.146 864.304 962.926 864.304 972.524C864.304 982.122 871.538 989.903 880.462 989.903Z" fill="#08151B"/>
<path d="M930.181 989.903C940.478 989.903 948.825 982.122 948.825 972.524C948.825 962.926 940.478 955.146 930.181 955.146C919.883 955.146 911.536 962.926 911.536 972.524C911.536 982.122 919.883 989.903 930.181 989.903Z" fill="#08151B"/>
<path d="M977.415 989.903C986.339 989.903 993.573 982.122 993.573 972.524C993.573 962.926 986.339 955.146 977.415 955.146C968.49 955.146 961.256 962.926 961.256 972.524C961.256 982.122 968.49 989.903 977.415 989.903Z" fill="#08151B"/>
<path d="M1023.4 989.903C1033.02 989.903 1040.81 982.122 1040.81 972.524C1040.81 962.926 1033.02 955.146 1023.4 955.146C1013.79 955.146 1006 962.926 1006 972.524C1006 982.122 1013.79 989.903 1023.4 989.903Z" fill="#08151B"/>
<path d="M1290.64 989.903C1300.94 989.903 1309.29 982.122 1309.29 972.524C1309.29 962.926 1300.94 955.146 1290.64 955.146C1280.35 955.146 1272 962.926 1272 972.524C1272 982.122 1280.35 989.903 1290.64 989.903Z" fill="#08151B"/>
<path d="M1339.12 989.903C1348.73 989.903 1356.52 982.122 1356.52 972.524C1356.52 962.926 1348.73 955.146 1339.12 955.146C1329.51 955.146 1321.72 962.926 1321.72 972.524C1321.72 982.122 1329.51 989.903 1339.12 989.903Z" fill="#08151B"/>
<path d="M1386.35 989.903C1395.96 989.903 1403.76 982.122 1403.76 972.524C1403.76 962.926 1395.96 955.146 1386.35 955.146C1376.74 955.146 1368.95 962.926 1368.95 972.524C1368.95 982.122 1376.74 989.903 1386.35 989.903Z" fill="#08151B"/>
<path d="M1443.53 877.611H797.183V915.042H1443.53V877.611Z" fill="#78AC42"/>
</g>
<defs>
<clipPath id="clip0_1_2">
<rect width="1440" height="1024" fill="white"/>
</clipPath>
</defs>
</svg>
