<svg width="1440" height="894" viewBox="0 0 1440 894" fill="none" xmlns="http://www.w3.org/2000/svg">
<rect x="1122" y="322" width="318" height="165" fill="#F6F4D2"/>
<path d="M1346.63 486.529C1345.28 492.902 1388.07 503.346 1388.07 503.346C1388.07 503.346 1407.78 475.642 1397.97 470.05C1391.14 466.152 1365.26 470.844 1365.26 470.844C1365.26 470.844 1347.98 480.156 1346.63 486.529Z" fill="#E8D7A5"/>
<path d="M1409.96 476.08C1414.28 480.959 1448.16 452.824 1448.16 452.824C1448.16 452.824 1437.66 420.482 1427.32 425.026C1420.12 428.192 1408.47 451.772 1408.47 451.772C1408.47 451.772 1405.65 471.201 1409.96 476.08Z" fill="#E8D7A5"/>
<path d="M1379.05 456.174C1381.18 450.021 1340.05 434.282 1340.05 434.282C1340.05 434.282 1317.01 459.289 1326.04 466.069C1332.33 470.794 1358.59 469.393 1358.59 469.393C1358.59 469.393 1376.91 462.327 1379.05 456.174Z" fill="#E8D7A5"/>
<rect y="487" width="1440" height="407" fill="#092429"/>
<path d="M662.062 438H659.812V420.938H662.062V438ZM667.898 425.32L667.969 426.914C668.938 425.695 670.203 425.086 671.766 425.086C674.445 425.086 675.797 426.598 675.82 429.621V438H673.652V429.609C673.645 428.695 673.434 428.02 673.02 427.582C672.613 427.145 671.977 426.926 671.109 426.926C670.406 426.926 669.789 427.113 669.258 427.488C668.727 427.863 668.312 428.355 668.016 428.965V438H665.848V425.32H667.898ZM680.156 438V426.996H678.152V425.32H680.156V424.02C680.156 422.66 680.52 421.609 681.246 420.867C681.973 420.125 683 419.754 684.328 419.754C684.828 419.754 685.324 419.82 685.816 419.953L685.699 421.711C685.332 421.641 684.941 421.605 684.527 421.605C683.824 421.605 683.281 421.812 682.898 422.227C682.516 422.633 682.324 423.219 682.324 423.984V425.32H685.031V426.996H682.324V438H680.156ZM686.859 431.543C686.859 430.301 687.102 429.184 687.586 428.191C688.078 427.199 688.758 426.434 689.625 425.895C690.5 425.355 691.496 425.086 692.613 425.086C694.34 425.086 695.734 425.684 696.797 426.879C697.867 428.074 698.402 429.664 698.402 431.648V431.801C698.402 433.035 698.164 434.145 697.688 435.129C697.219 436.105 696.543 436.867 695.66 437.414C694.785 437.961 693.777 438.234 692.637 438.234C690.918 438.234 689.523 437.637 688.453 436.441C687.391 435.246 686.859 433.664 686.859 431.695V431.543ZM689.039 431.801C689.039 433.207 689.363 434.336 690.012 435.188C690.668 436.039 691.543 436.465 692.637 436.465C693.738 436.465 694.613 436.035 695.262 435.176C695.91 434.309 696.234 433.098 696.234 431.543C696.234 430.152 695.902 429.027 695.238 428.168C694.582 427.301 693.707 426.867 692.613 426.867C691.543 426.867 690.68 427.293 690.023 428.145C689.367 428.996 689.039 430.215 689.039 431.801ZM707.25 427.266C706.922 427.211 706.566 427.184 706.184 427.184C704.762 427.184 703.797 427.789 703.289 429V438H701.121V425.32H703.23L703.266 426.785C703.977 425.652 704.984 425.086 706.289 425.086C706.711 425.086 707.031 425.141 707.25 425.25V427.266ZM711.293 425.32L711.352 426.727C712.281 425.633 713.535 425.086 715.113 425.086C716.887 425.086 718.094 425.766 718.734 427.125C719.156 426.516 719.703 426.023 720.375 425.648C721.055 425.273 721.855 425.086 722.777 425.086C725.559 425.086 726.973 426.559 727.02 429.504V438H724.852V429.633C724.852 428.727 724.645 428.051 724.23 427.605C723.816 427.152 723.121 426.926 722.145 426.926C721.34 426.926 720.672 427.168 720.141 427.652C719.609 428.129 719.301 428.773 719.215 429.586V438H717.035V429.691C717.035 427.848 716.133 426.926 714.328 426.926C712.906 426.926 711.934 427.531 711.41 428.742V438H709.242V425.32H711.293ZM738.129 438C738.004 437.75 737.902 437.305 737.824 436.664C736.816 437.711 735.613 438.234 734.215 438.234C732.965 438.234 731.938 437.883 731.133 437.18C730.336 436.469 729.938 435.57 729.938 434.484C729.938 433.164 730.438 432.141 731.438 431.414C732.445 430.68 733.859 430.312 735.68 430.312H737.789V429.316C737.789 428.559 737.562 427.957 737.109 427.512C736.656 427.059 735.988 426.832 735.105 426.832C734.332 426.832 733.684 427.027 733.16 427.418C732.637 427.809 732.375 428.281 732.375 428.836H730.195C730.195 428.203 730.418 427.594 730.863 427.008C731.316 426.414 731.926 425.945 732.691 425.602C733.465 425.258 734.312 425.086 735.234 425.086C736.695 425.086 737.84 425.453 738.668 426.188C739.496 426.914 739.926 427.918 739.957 429.199V435.035C739.957 436.199 740.105 437.125 740.402 437.812V438H738.129ZM734.531 436.348C735.211 436.348 735.855 436.172 736.465 435.82C737.074 435.469 737.516 435.012 737.789 434.449V431.848H736.09C733.434 431.848 732.105 432.625 732.105 434.18C732.105 434.859 732.332 435.391 732.785 435.773C733.238 436.156 733.82 436.348 734.531 436.348ZM746.297 422.25V425.32H748.664V426.996H746.297V434.859C746.297 435.367 746.402 435.75 746.613 436.008C746.824 436.258 747.184 436.383 747.691 436.383C747.941 436.383 748.285 436.336 748.723 436.242V438C748.152 438.156 747.598 438.234 747.059 438.234C746.09 438.234 745.359 437.941 744.867 437.355C744.375 436.77 744.129 435.938 744.129 434.859V426.996H741.82V425.32H744.129V422.25H746.297ZM753.562 438H751.395V425.32H753.562V438ZM751.219 421.957C751.219 421.605 751.324 421.309 751.535 421.066C751.754 420.824 752.074 420.703 752.496 420.703C752.918 420.703 753.238 420.824 753.457 421.066C753.676 421.309 753.785 421.605 753.785 421.957C753.785 422.309 753.676 422.602 753.457 422.836C753.238 423.07 752.918 423.188 752.496 423.188C752.074 423.188 751.754 423.07 751.535 422.836C751.324 422.602 751.219 422.309 751.219 421.957ZM756.469 431.543C756.469 430.301 756.711 429.184 757.195 428.191C757.688 427.199 758.367 426.434 759.234 425.895C760.109 425.355 761.105 425.086 762.223 425.086C763.949 425.086 765.344 425.684 766.406 426.879C767.477 428.074 768.012 429.664 768.012 431.648V431.801C768.012 433.035 767.773 434.145 767.297 435.129C766.828 436.105 766.152 436.867 765.27 437.414C764.395 437.961 763.387 438.234 762.246 438.234C760.527 438.234 759.133 437.637 758.062 436.441C757 435.246 756.469 433.664 756.469 431.695V431.543ZM758.648 431.801C758.648 433.207 758.973 434.336 759.621 435.188C760.277 436.039 761.152 436.465 762.246 436.465C763.348 436.465 764.223 436.035 764.871 435.176C765.52 434.309 765.844 433.098 765.844 431.543C765.844 430.152 765.512 429.027 764.848 428.168C764.191 427.301 763.316 426.867 762.223 426.867C761.152 426.867 760.289 427.293 759.633 428.145C758.977 428.996 758.648 430.215 758.648 431.801ZM772.781 425.32L772.852 426.914C773.82 425.695 775.086 425.086 776.648 425.086C779.328 425.086 780.68 426.598 780.703 429.621V438H778.535V429.609C778.527 428.695 778.316 428.02 777.902 427.582C777.496 427.145 776.859 426.926 775.992 426.926C775.289 426.926 774.672 427.113 774.141 427.488C773.609 427.863 773.195 428.355 772.898 428.965V438H770.73V425.32H772.781Z" fill="white"/>
<rect x="-27" y="4" width="364" height="479" fill="#F6F4D2" stroke="#9B2227" stroke-width="8"/>
<path d="M305.654 129H299.846C289.427 129 281 139.559 281 152.575C281 155.583 282.936 157.977 285.327 157.977H320.173C322.564 157.977 324.5 155.521 324.5 152.575C324.557 139.559 316.074 129 305.654 129Z" fill="#ED9B21"/>
<path d="M296.032 134.341C296.849 134.341 297.512 133.709 297.512 132.929C297.512 132.149 296.849 131.517 296.032 131.517C295.214 131.517 294.551 132.149 294.551 132.929C294.551 133.709 295.214 134.341 296.032 134.341Z" fill="#E8D7A5"/>
<path d="M302.75 134.341C303.568 134.341 304.231 133.709 304.231 132.929C304.231 132.149 303.568 131.517 302.75 131.517C301.933 131.517 301.27 132.149 301.27 132.929C301.27 133.709 301.933 134.341 302.75 134.341Z" fill="#E8D7A5"/>
<path d="M309.526 134.341C310.343 134.341 311.006 133.709 311.006 132.929C311.006 132.149 310.343 131.517 309.526 131.517C308.708 131.517 308.045 132.149 308.045 132.929C308.045 133.709 308.708 134.341 309.526 134.341Z" fill="#E8D7A5"/>
<path d="M292.444 142.506C293.262 142.506 293.925 141.874 293.925 141.094C293.925 140.314 293.262 139.682 292.444 139.682C291.627 139.682 290.964 140.314 290.964 141.094C290.964 141.874 291.627 142.506 292.444 142.506Z" fill="#E8D7A5"/>
<path d="M299.163 142.506C299.981 142.506 300.643 141.874 300.643 141.094C300.643 140.314 299.981 139.682 299.163 139.682C298.345 139.682 297.683 140.314 297.683 141.094C297.683 141.874 298.345 142.506 299.163 142.506Z" fill="#E8D7A5"/>
<path d="M305.939 142.506C306.756 142.506 307.419 141.874 307.419 141.094C307.419 140.314 306.756 139.682 305.939 139.682C305.121 139.682 304.458 140.314 304.458 141.094C304.458 141.874 305.121 142.506 305.939 142.506Z" fill="#E8D7A5"/>
<path d="M313.17 142.506C313.987 142.506 314.65 141.874 314.65 141.094C314.65 140.314 313.987 139.682 313.17 139.682C312.352 139.682 311.689 140.314 311.689 141.094C311.689 141.874 312.352 142.506 313.17 142.506Z" fill="#E8D7A5"/>
<path d="M281.171 153.987C281.626 156.319 283.335 158.1 285.384 158.1H320.23C322.28 158.1 323.988 156.381 324.443 153.987H281.171Z" fill="#C96928"/>
<path d="M246.654 129H240.846C230.427 129 222 139.559 222 152.575C222 155.583 223.936 157.977 226.327 157.977H261.173C263.564 157.977 265.5 155.521 265.5 152.575C265.557 139.559 257.074 129 246.654 129Z" fill="#ED9B21"/>
<path d="M237.032 134.341C237.849 134.341 238.512 133.709 238.512 132.929C238.512 132.149 237.849 131.517 237.032 131.517C236.214 131.517 235.551 132.149 235.551 132.929C235.551 133.709 236.214 134.341 237.032 134.341Z" fill="#E8D7A5"/>
<path d="M243.75 134.341C244.568 134.341 245.231 133.709 245.231 132.929C245.231 132.149 244.568 131.517 243.75 131.517C242.933 131.517 242.27 132.149 242.27 132.929C242.27 133.709 242.933 134.341 243.75 134.341Z" fill="#E8D7A5"/>
<path d="M250.526 134.341C251.343 134.341 252.006 133.709 252.006 132.929C252.006 132.149 251.343 131.517 250.526 131.517C249.708 131.517 249.045 132.149 249.045 132.929C249.045 133.709 249.708 134.341 250.526 134.341Z" fill="#E8D7A5"/>
<path d="M233.444 142.506C234.262 142.506 234.925 141.874 234.925 141.094C234.925 140.314 234.262 139.682 233.444 139.682C232.627 139.682 231.964 140.314 231.964 141.094C231.964 141.874 232.627 142.506 233.444 142.506Z" fill="#E8D7A5"/>
<path d="M240.163 142.506C240.981 142.506 241.643 141.874 241.643 141.094C241.643 140.314 240.981 139.682 240.163 139.682C239.345 139.682 238.683 140.314 238.683 141.094C238.683 141.874 239.345 142.506 240.163 142.506Z" fill="#E8D7A5"/>
<path d="M246.939 142.506C247.756 142.506 248.419 141.874 248.419 141.094C248.419 140.314 247.756 139.682 246.939 139.682C246.121 139.682 245.458 140.314 245.458 141.094C245.458 141.874 246.121 142.506 246.939 142.506Z" fill="#E8D7A5"/>
<path d="M254.17 142.506C254.987 142.506 255.65 141.874 255.65 141.094C255.65 140.314 254.987 139.682 254.17 139.682C253.352 139.682 252.689 140.314 252.689 141.094C252.689 141.874 253.352 142.506 254.17 142.506Z" fill="#E8D7A5"/>
<path d="M222.171 153.987C222.626 156.319 224.335 158.1 226.384 158.1H261.23C263.28 158.1 264.988 156.381 265.443 153.987H222.171Z" fill="#C96928"/>
<path d="M187.654 129H181.846C171.427 129 163 139.559 163 152.575C163 155.583 164.936 157.977 167.327 157.977H202.173C204.564 157.977 206.5 155.521 206.5 152.575C206.557 139.559 198.074 129 187.654 129Z" fill="#ED9B21"/>
<path d="M178.032 134.341C178.849 134.341 179.512 133.709 179.512 132.929C179.512 132.149 178.849 131.517 178.032 131.517C177.214 131.517 176.551 132.149 176.551 132.929C176.551 133.709 177.214 134.341 178.032 134.341Z" fill="#E8D7A5"/>
<path d="M184.75 134.341C185.568 134.341 186.231 133.709 186.231 132.929C186.231 132.149 185.568 131.517 184.75 131.517C183.933 131.517 183.27 132.149 183.27 132.929C183.27 133.709 183.933 134.341 184.75 134.341Z" fill="#E8D7A5"/>
<path d="M191.526 134.341C192.343 134.341 193.006 133.709 193.006 132.929C193.006 132.149 192.343 131.517 191.526 131.517C190.708 131.517 190.045 132.149 190.045 132.929C190.045 133.709 190.708 134.341 191.526 134.341Z" fill="#E8D7A5"/>
<path d="M174.444 142.506C175.262 142.506 175.925 141.874 175.925 141.094C175.925 140.314 175.262 139.682 174.444 139.682C173.627 139.682 172.964 140.314 172.964 141.094C172.964 141.874 173.627 142.506 174.444 142.506Z" fill="#E8D7A5"/>
<path d="M181.163 142.506C181.981 142.506 182.643 141.874 182.643 141.094C182.643 140.314 181.981 139.682 181.163 139.682C180.345 139.682 179.683 140.314 179.683 141.094C179.683 141.874 180.345 142.506 181.163 142.506Z" fill="#E8D7A5"/>
<path d="M187.939 142.506C188.756 142.506 189.419 141.874 189.419 141.094C189.419 140.314 188.756 139.682 187.939 139.682C187.121 139.682 186.458 140.314 186.458 141.094C186.458 141.874 187.121 142.506 187.939 142.506Z" fill="#E8D7A5"/>
<path d="M195.17 142.506C195.987 142.506 196.65 141.874 196.65 141.094C196.65 140.314 195.987 139.682 195.17 139.682C194.352 139.682 193.689 140.314 193.689 141.094C193.689 141.874 194.352 142.506 195.17 142.506Z" fill="#E8D7A5"/>
<path d="M163.171 153.987C163.626 156.319 165.335 158.1 167.384 158.1H202.23C204.28 158.1 205.988 156.381 206.443 153.987H163.171Z" fill="#C96928"/>
<path d="M114.654 210H108.846C98.4268 210 90 220.559 90 233.575C90 236.583 91.9359 238.977 94.3273 238.977H129.173C131.564 238.977 133.5 236.521 133.5 233.575C133.557 220.559 125.074 210 114.654 210Z" fill="#ED9B21"/>
<path d="M105.032 215.341C105.849 215.341 106.512 214.709 106.512 213.929C106.512 213.149 105.849 212.517 105.032 212.517C104.214 212.517 103.551 213.149 103.551 213.929C103.551 214.709 104.214 215.341 105.032 215.341Z" fill="#E8D7A5"/>
<path d="M111.75 215.341C112.568 215.341 113.231 214.709 113.231 213.929C113.231 213.149 112.568 212.517 111.75 212.517C110.933 212.517 110.27 213.149 110.27 213.929C110.27 214.709 110.933 215.341 111.75 215.341Z" fill="#E8D7A5"/>
<path d="M118.526 215.341C119.343 215.341 120.006 214.709 120.006 213.929C120.006 213.149 119.343 212.517 118.526 212.517C117.708 212.517 117.045 213.149 117.045 213.929C117.045 214.709 117.708 215.341 118.526 215.341Z" fill="#E8D7A5"/>
<path d="M101.444 223.506C102.262 223.506 102.925 222.874 102.925 222.094C102.925 221.314 102.262 220.682 101.444 220.682C100.627 220.682 99.9639 221.314 99.9639 222.094C99.9639 222.874 100.627 223.506 101.444 223.506Z" fill="#E8D7A5"/>
<path d="M108.163 223.506C108.981 223.506 109.643 222.874 109.643 222.094C109.643 221.314 108.981 220.682 108.163 220.682C107.345 220.682 106.683 221.314 106.683 222.094C106.683 222.874 107.345 223.506 108.163 223.506Z" fill="#E8D7A5"/>
<path d="M114.939 223.506C115.756 223.506 116.419 222.874 116.419 222.094C116.419 221.314 115.756 220.682 114.939 220.682C114.121 220.682 113.458 221.314 113.458 222.094C113.458 222.874 114.121 223.506 114.939 223.506Z" fill="#E8D7A5"/>
<path d="M122.17 223.506C122.987 223.506 123.65 222.874 123.65 222.094C123.65 221.314 122.987 220.682 122.17 220.682C121.352 220.682 120.689 221.314 120.689 222.094C120.689 222.874 121.352 223.506 122.17 223.506Z" fill="#E8D7A5"/>
<path d="M90.1709 234.987C90.6264 237.319 92.3345 239.1 94.3843 239.1H129.23C131.28 239.1 132.988 237.381 133.443 234.987H90.1709Z" fill="#C96928"/>
<path d="M55.654 210H49.8463C39.4268 210 31 220.559 31 233.575C31 236.583 32.9359 238.977 35.3273 238.977H70.1731C72.5644 238.977 74.5003 236.521 74.5003 233.575C74.5572 220.559 66.0736 210 55.654 210Z" fill="#ED9B21"/>
<path d="M46.0317 215.341C46.8492 215.341 47.512 214.709 47.512 213.929C47.512 213.149 46.8492 212.517 46.0317 212.517C45.2141 212.517 44.5513 213.149 44.5513 213.929C44.5513 214.709 45.2141 215.341 46.0317 215.341Z" fill="#E8D7A5"/>
<path d="M52.7504 215.341C53.568 215.341 54.2308 214.709 54.2308 213.929C54.2308 213.149 53.568 212.517 52.7504 212.517C51.9328 212.517 51.27 213.149 51.27 213.929C51.27 214.709 51.9328 215.341 52.7504 215.341Z" fill="#E8D7A5"/>
<path d="M59.5258 215.341C60.3434 215.341 61.0062 214.709 61.0062 213.929C61.0062 213.149 60.3434 212.517 59.5258 212.517C58.7082 212.517 58.0454 213.149 58.0454 213.929C58.0454 214.709 58.7082 215.341 59.5258 215.341Z" fill="#E8D7A5"/>
<path d="M42.4442 223.506C43.2618 223.506 43.9246 222.874 43.9246 222.094C43.9246 221.314 43.2618 220.682 42.4442 220.682C41.6267 220.682 40.9639 221.314 40.9639 222.094C40.9639 222.874 41.6267 223.506 42.4442 223.506Z" fill="#E8D7A5"/>
<path d="M49.163 223.506C49.9806 223.506 50.6434 222.874 50.6434 222.094C50.6434 221.314 49.9806 220.682 49.163 220.682C48.3454 220.682 47.6826 221.314 47.6826 222.094C47.6826 222.874 48.3454 223.506 49.163 223.506Z" fill="#E8D7A5"/>
<path d="M55.9389 223.506C56.7565 223.506 57.4193 222.874 57.4193 222.094C57.4193 221.314 56.7565 220.682 55.9389 220.682C55.1213 220.682 54.4585 221.314 54.4585 222.094C54.4585 222.874 55.1213 223.506 55.9389 223.506Z" fill="#E8D7A5"/>
<path d="M63.1698 223.506C63.9874 223.506 64.6502 222.874 64.6502 222.094C64.6502 221.314 63.9874 220.682 63.1698 220.682C62.3522 220.682 61.6895 221.314 61.6895 222.094C61.6895 222.874 62.3522 223.506 63.1698 223.506Z" fill="#E8D7A5"/>
<path d="M31.1709 234.987C31.6264 237.319 33.3345 239.1 35.3843 239.1H70.2301C72.2798 239.1 73.988 237.381 74.4435 234.987H31.1709Z" fill="#C96928"/>
<path d="M-3.34602 210H-9.15366C-19.5732 210 -28 220.559 -28 233.575C-28 236.583 -26.0641 238.977 -23.6727 238.977H11.1731C13.5644 238.977 15.5003 236.521 15.5003 233.575C15.5572 220.559 7.07356 210 -3.34602 210Z" fill="#ED9B21"/>
<path d="M0.525808 215.341C1.3434 215.341 2.00617 214.709 2.00617 213.929C2.00617 213.149 1.3434 212.517 0.525808 212.517C-0.291782 212.517 -0.95459 213.149 -0.95459 213.929C-0.95459 214.709 -0.291782 215.341 0.525808 215.341Z" fill="#E8D7A5"/>
<path d="M4.16982 223.506C4.98741 223.506 5.65021 222.874 5.65021 222.094C5.65021 221.314 4.98741 220.682 4.16982 220.682C3.35223 220.682 2.68945 221.314 2.68945 222.094C2.68945 222.874 3.35223 223.506 4.16982 223.506Z" fill="#E8D7A5"/>
<path d="M-27.8291 234.987C-27.3736 237.319 -25.6655 239.1 -23.6157 239.1H11.2301C13.2798 239.1 14.988 237.381 15.4435 234.987H-27.8291Z" fill="#C96928"/>
<rect x="341" y="191" width="781" height="26" fill="#F6F4D4"/>
<path d="M1141.51 366.213C1146.68 368.122 1156.46 344.974 1156.46 344.974C1156.46 344.974 1134.4 328.584 1129.55 333.327C1126.16 336.632 1129.24 352.572 1129.24 352.572C1129.24 352.572 1136.34 364.305 1141.51 366.213Z" fill="#E8D7A5"/>
<path d="M1152.05 402.524C1159.78 400.635 1155.44 375.853 1155.44 375.853C1155.44 375.853 1116.63 377.381 1114 384.335C1112.17 389.182 1127.26 399.789 1127.26 399.789C1127.26 399.789 1144.33 404.413 1152.05 402.524Z" fill="#E8D7A5"/>
<path d="M1432.6 361.724C1436.8 356.745 1411.95 333.981 1411.95 333.981C1411.95 333.981 1383.91 351.126 1387.98 359.062C1390.81 364.593 1411.46 369.006 1411.46 369.006C1411.46 369.006 1428.4 366.703 1432.6 361.724Z" fill="#E8D7A5"/>
<path d="M1442.84 414.016C1449.09 412.209 1441.07 379.472 1441.07 379.472C1441.07 379.472 1408.23 378.155 1407.2 387.014C1406.49 393.187 1421.21 408.328 1421.21 408.328C1421.21 408.328 1436.58 415.824 1442.84 414.016Z" fill="#E8D7A5"/>
<path d="M1391.94 454.661C1398.17 456.56 1412.31 414.854 1412.31 414.854C1412.31 414.854 1386.43 392.793 1380.01 402.074C1375.53 408.541 1377.94 434.731 1377.94 434.731C1377.94 434.731 1385.71 452.763 1391.94 454.661Z" fill="#E8D7A5"/>
<rect x="1135" y="121" width="50" height="21" fill="#9B2228"/>
<rect x="1193" y="121" width="50" height="21" fill="#9B2228"/>
<rect x="1251" y="121" width="50" height="21" fill="#8B0B12"/>
<rect x="1309" y="121" width="50" height="21" fill="#9B2228"/>
<rect x="1367" y="121" width="50" height="21" fill="#9B2228"/>
<rect x="1425" y="121" width="50" height="21" fill="#8B0B12"/>
<rect x="1122" y="151" width="28" height="21" fill="#9B2228"/>
<rect x="1122" y="121" width="5" height="21" fill="#8B0B12"/>
<rect x="1135" y="301" width="50" height="21" fill="#9B2228"/>
<rect x="1193" y="301" width="50" height="21" fill="#9B2228"/>
<rect x="1251" y="301" width="50" height="21" fill="#8B0B12"/>
<rect x="1309" y="301" width="50" height="21" fill="#9B2228"/>
<rect x="1367" y="301" width="50" height="21" fill="#9B2228"/>
<rect x="1425" y="301" width="50" height="21" fill="#8B0B12"/>
<rect x="1122" y="301" width="5" height="21" fill="#8B0B12"/>
<rect x="1158" y="151" width="50" height="21" fill="#8B0B12"/>
<rect x="1216" y="151" width="50" height="21" fill="#9B2228"/>
<rect x="1274" y="151" width="50" height="21" fill="#9B2228"/>
<rect x="1332" y="151" width="50" height="21" fill="#8B0B12"/>
<rect x="1390" y="151" width="50" height="21" fill="#9B2228"/>
<rect x="1122" y="102" width="28" height="10" fill="#9B2228"/>
<rect x="1158" y="102" width="50" height="10" fill="#8B0B12"/>
<rect x="1216" y="102" width="50" height="10" fill="#9B2228"/>
<rect x="1274" y="102" width="50" height="10" fill="#9B2228"/>
<rect x="1332" y="102" width="50" height="10" fill="#8B0B12"/>
<rect x="1390" y="102" width="50" height="10" fill="#9B2228"/>
<rect x="1135" y="181" width="50" height="21" fill="#9B2228"/>
<rect x="1193" y="181" width="50" height="21" fill="#9B2228"/>
<rect x="1251" y="181" width="50" height="21" fill="#8B0B12"/>
<rect x="1309" y="181" width="50" height="21" fill="#9B2228"/>
<rect x="1367" y="181" width="50" height="21" fill="#9B2228"/>
<rect x="1425" y="181" width="50" height="21" fill="#8B0B12"/>
<rect x="1122" y="211" width="28" height="21" fill="#9B2228"/>
<rect x="1122" y="181" width="5" height="21" fill="#8B0B12"/>
<rect x="1158" y="211" width="50" height="21" fill="#8B0B12"/>
<rect x="1216" y="211" width="50" height="21" fill="#9B2228"/>
<rect x="1274" y="211" width="50" height="21" fill="#9B2228"/>
<rect x="1332" y="211" width="50" height="21" fill="#8B0B12"/>
<rect x="1390" y="211" width="50" height="21" fill="#9B2228"/>
<rect x="1135" y="241" width="50" height="21" fill="#9B2228"/>
<rect x="1193" y="241" width="50" height="21" fill="#9B2228"/>
<rect x="1251" y="241" width="50" height="21" fill="#8B0B12"/>
<rect x="1309" y="241" width="50" height="21" fill="#9B2228"/>
<rect x="1367" y="241" width="50" height="21" fill="#9B2228"/>
<rect x="1425" y="241" width="50" height="21" fill="#8B0B12"/>
<rect x="1122" y="271" width="28" height="21" fill="#9B2228"/>
<rect x="1122" y="241" width="5" height="21" fill="#8B0B12"/>
<rect x="1158" y="271" width="50" height="21" fill="#8B0B12"/>
<rect x="1216" y="271" width="50" height="21" fill="#9B2228"/>
<rect x="1274" y="271" width="50" height="21" fill="#9B2228"/>
<rect x="1332" y="271" width="50" height="21" fill="#8B0B12"/>
<rect x="1390" y="271" width="50" height="21" fill="#9B2228"/>
<rect x="341" y="217" width="781" height="270" fill="#E6988E"/>
<rect x="1198" y="317" width="161" height="5" fill="#D18617"/>
<rect x="1122" y="81" width="318" height="21" fill="#E8D7A5"/>
<path d="M146 0V487H154V0H146Z" fill="#9B2227"/>
<path d="M543.5 710H1029.5L1068.5 767.5L493.5 771L543.5 710Z" fill="#F6F4D2"/>
<path d="M542.999 501V710H551.999V501H542.999Z" fill="#F6F4D2"/>
<path d="M493 604V792H503V604H493Z" fill="#F6F4D2"/>
<path d="M1061 604V792H1069V604H1061Z" fill="#F6F4D2"/>
<path d="M1022 501V710H1031V501H1022Z" fill="#F6F4D2"/>
<path d="M543.5 501H1030L1099 604H454L543.5 501Z" fill="#E8D7A5"/>
<path d="M-29.5448 689.169L396.5 696.5L340.667 928.897L-29.1313 916.382L-29.5448 689.169Z" fill="#E8D7A5"/>
<path d="M1217.14 299H1344.29C1344.29 299 1347.33 223.48 1340.82 209.713C1328.15 182.926 1310.88 181 1283.1 181H1283.1C1257.2 181 1234.5 181 1220.61 209.713C1215.92 219.413 1217.14 299 1217.14 299Z" fill="#08151B" stroke="#ED9B21" stroke-width="8"/>
<path d="M1198 317L1213.5 299H1348.5L1359 317H1198Z" fill="#ED9B21"/>
<rect x="1205" y="372" width="152" height="75" rx="10" fill="#08151B"/>
<path d="M318.264 49.8738C318.234 50.5015 318.077 51.1172 317.801 51.6848C317.526 52.2523 317.137 52.7604 316.658 53.1794C315.617 54.1362 314.414 54.9082 313.102 55.461V76.751C313.105 77.3303 312.985 77.9039 312.751 78.4361C312.557 78.9598 312.21 79.4161 311.753 79.7484C311.296 80.0807 310.749 80.2742 310.181 80.3051H289.985C288.374 80.3051 287.064 78.7145 287.064 76.751V54.6209C284.853 53.3036 283.538 51.6384 283.538 49.8738C283.538 47.3884 286.078 45.1714 290.071 43.7298L288.679 42.2386L292.063 42.0547H293.079H298.861C299.537 42.0149 300.217 42 300.893 42C305.466 42 309.586 42.7903 312.685 44.0877C316.11 45.5243 318.274 47.5673 318.274 49.8589" fill="#C96928"/>
<path d="M311.063 50.2156C311.063 52.4466 308.846 54.4647 305.27 55.92V76.973C305.27 79.0012 303.8 80.5984 301.991 80.5984H279.326C277.518 80.5984 276.048 78.9758 276.048 76.973V55.058C273.563 53.7143 272.088 52.0156 272.088 50.2156C272.088 50.1108 272.088 50.0043 272.088 49.8961C272.502 45.6217 281.064 42.2041 291.561 42.2041C302.057 42.2041 310.614 45.6166 311.033 49.8911C311.033 50.0026 311.033 50.1091 311.033 50.2207" fill="#E8D7A5"/>
<path d="M286.316 56.7851C286.294 57.285 286.172 57.7754 285.957 58.2273C285.741 58.6792 285.438 59.0834 285.063 59.416C284.251 60.178 283.312 60.7928 282.289 61.2328V78.18C282.29 78.6423 282.197 79.1001 282.015 79.5252C281.865 79.9402 281.597 80.3024 281.244 80.567C280.89 80.8317 280.467 80.9872 280.026 81.0144H264.254C262.996 81.0144 261.976 79.7486 261.976 78.185V60.5627C260.251 59.5103 259.222 58.1999 259.222 56.7851C259.222 54.7995 261.211 53.0373 264.318 51.8906L263.259 50.8382V50.724L265.87 50.5602H266.655H271.165C271.692 50.5304 272.224 50.5156 272.766 50.5156C275.912 50.463 279.038 51.028 281.965 52.1785C284.636 53.3202 286.311 54.9583 286.311 56.7752" fill="#C96928"/>
<path d="M281.074 56.8125C281.074 58.5923 279.306 60.2047 276.457 61.376V78.1597C276.49 78.8907 276.234 79.6052 275.743 80.1468C275.253 80.6884 274.569 81.0131 273.841 81.0499H255.772C255.044 81.0131 254.36 80.6884 253.87 80.1468C253.38 79.6052 253.123 78.8907 253.156 78.1597V60.6763C251.176 59.6013 250.004 58.2678 250.004 56.8125C249.999 56.7281 249.999 56.6434 250.004 56.559C250.362 53.1465 257.167 50.449 265.516 50.449C273.866 50.449 280.705 53.1719 281.044 56.5793C281.044 56.6655 281.044 56.7517 281.044 56.8379" fill="#E8D7A5"/>
<path d="M239.264 49.8738C239.234 50.5015 239.077 51.1172 238.801 51.6848C238.526 52.2523 238.137 52.7604 237.658 53.1794C236.617 54.1362 235.414 54.9082 234.102 55.461V76.751C234.105 77.3303 233.985 77.9039 233.751 78.4361C233.557 78.9598 233.21 79.4161 232.753 79.7484C232.296 80.0807 231.749 80.2742 231.181 80.3051H210.985C209.374 80.3051 208.064 78.7145 208.064 76.751V54.6209C205.853 53.3036 204.538 51.6384 204.538 49.8738C204.538 47.3884 207.078 45.1714 211.071 43.7298L209.679 42.2386L213.063 42.0547H214.079H219.861C220.537 42.0149 221.217 42 221.893 42C226.466 42 230.586 42.7903 233.685 44.0877C237.11 45.5243 239.274 47.5673 239.274 49.8589" fill="#C96928"/>
<path d="M232.063 50.2156C232.063 52.4466 229.846 54.4647 226.27 55.92V76.973C226.27 79.0012 224.8 80.5984 222.991 80.5984H200.326C198.518 80.5984 197.048 78.9758 197.048 76.973V55.058C194.563 53.7143 193.088 52.0156 193.088 50.2156C193.088 50.1108 193.088 50.0043 193.088 49.8961C193.502 45.6217 202.064 42.2041 212.561 42.2041C223.057 42.2041 231.614 45.6166 232.033 49.8911C232.033 50.0026 232.033 50.1091 232.033 50.2207" fill="#E8D7A5"/>
<path d="M207.316 56.7851C207.294 57.285 207.172 57.7754 206.957 58.2273C206.741 58.6792 206.438 59.0834 206.063 59.416C205.251 60.178 204.312 60.7928 203.289 61.2328V78.18C203.29 78.6423 203.197 79.1001 203.015 79.5252C202.865 79.9402 202.597 80.3024 202.244 80.567C201.89 80.8317 201.467 80.9872 201.026 81.0144H185.254C183.996 81.0144 182.976 79.7486 182.976 78.185V60.5627C181.251 59.5103 180.222 58.1999 180.222 56.7851C180.222 54.7995 182.211 53.0373 185.318 51.8906L184.259 50.8382V50.724L186.87 50.5602H187.655H192.165C192.692 50.5304 193.224 50.5156 193.766 50.5156C196.912 50.463 200.038 51.028 202.965 52.1785C205.636 53.3202 207.311 54.9583 207.311 56.7752" fill="#C96928"/>
<path d="M202.074 56.8125C202.074 58.5923 200.306 60.2047 197.457 61.376V78.1597C197.49 78.8907 197.234 79.6052 196.743 80.1468C196.253 80.6884 195.569 81.0131 194.841 81.0499H176.772C176.044 81.0131 175.36 80.6884 174.87 80.1468C174.38 79.6052 174.123 78.8907 174.156 78.1597V60.6763C172.176 59.6013 171.004 58.2678 171.004 56.8125C170.999 56.7281 170.999 56.6434 171.004 56.559C171.362 53.1465 178.167 50.449 186.516 50.449C194.866 50.449 201.705 53.1719 202.044 56.5793C202.044 56.6655 202.044 56.7517 202.044 56.8379" fill="#E8D7A5"/>
<path d="M134.264 49.8738C134.234 50.5015 134.077 51.1172 133.801 51.6848C133.526 52.2523 133.137 52.7604 132.658 53.1794C131.617 54.1362 130.414 54.9082 129.102 55.461V76.751C129.105 77.3303 128.985 77.9039 128.751 78.4361C128.557 78.9598 128.21 79.4161 127.753 79.7484C127.296 80.0807 126.749 80.2742 126.181 80.3051H105.985C104.374 80.3051 103.064 78.7145 103.064 76.751V54.6209C100.853 53.3036 99.5376 51.6384 99.5376 49.8738C99.5376 47.3884 102.078 45.1714 106.071 43.7298L104.679 42.2386L108.063 42.0547H109.079H114.861C115.537 42.0149 116.217 42 116.893 42C121.466 42 125.586 42.7903 128.685 44.0877C132.11 45.5243 134.274 47.5673 134.274 49.8589" fill="#C96928"/>
<path d="M127.063 50.2156C127.063 52.4466 124.846 54.4647 121.27 55.92V76.973C121.27 79.0012 119.8 80.5984 117.991 80.5984H95.3264C93.518 80.5984 92.0481 78.9758 92.0481 76.973V55.058C89.5628 53.7143 88.0879 52.0156 88.0879 50.2156C88.0879 50.1108 88.0879 50.0043 88.0879 49.8961C88.5021 45.6217 97.064 42.2041 107.561 42.2041C118.057 42.2041 126.614 45.6166 127.033 49.8911C127.033 50.0026 127.033 50.1091 127.033 50.2207" fill="#E8D7A5"/>
<path d="M102.316 56.7851C102.294 57.285 102.172 57.7754 101.957 58.2273C101.741 58.6792 101.438 59.0834 101.063 59.416C100.251 60.178 99.3122 60.7928 98.2886 61.2328V78.18C98.2902 78.6423 98.1972 79.1001 98.0151 79.5252C97.8654 79.9402 97.5973 80.3024 97.2438 80.567C96.8904 80.8317 96.4671 80.9872 96.0261 81.0144H80.2537C78.9957 81.0144 77.9764 79.7486 77.9764 78.185V60.5627C76.251 59.5103 75.2217 58.1999 75.2217 56.7851C75.2217 54.7995 77.2106 53.0373 80.3184 51.8906L79.2592 50.8382V50.724L81.8697 50.5602H82.6554H87.1653C87.6924 50.5304 88.2244 50.5156 88.7664 50.5156C91.9122 50.463 95.0377 51.028 97.9653 52.1785C100.636 53.3202 102.311 54.9583 102.311 56.7752" fill="#C96928"/>
<path d="M97.0742 56.8125C97.0742 58.5923 95.3063 60.2047 92.4573 61.376V78.1597C92.4903 78.8907 92.2336 79.6052 91.7432 80.1468C91.2529 80.6884 90.5689 81.0131 89.8408 81.0499H71.7724C71.0442 81.0131 70.3602 80.6884 69.8699 80.1468C69.3796 79.6052 69.1228 78.8907 69.1558 78.1597V60.6763C67.1757 59.6013 66.0038 58.2678 66.0038 56.8125C65.9987 56.7281 65.9987 56.6434 66.0038 56.559C66.3624 53.1465 73.1665 50.449 81.5163 50.449C89.866 50.449 96.7055 53.1719 97.0439 56.5793C97.0439 56.6655 97.0439 56.7517 97.0439 56.8379" fill="#E8D7A5"/>
<path d="M56.2639 49.8738C56.2343 50.5015 56.0771 51.1172 55.8014 51.6848C55.5258 52.2523 55.1372 52.7604 54.6584 53.1794C53.6173 54.1362 52.4139 54.9082 51.102 55.461V76.751C51.1047 77.3303 50.9854 77.9039 50.7514 78.4361C50.5572 78.9598 50.21 79.4161 49.753 79.7484C49.2959 80.0807 48.7491 80.2742 48.1806 80.3051H27.985C26.3744 80.3051 25.0636 78.7145 25.0636 76.751V54.6209C22.8535 53.3036 21.5376 51.6384 21.5376 49.8738C21.5376 47.3884 24.078 45.1714 28.0714 43.7298L26.6793 42.2386L30.063 42.0547H31.0791H36.8609C37.5366 42.0149 38.2174 42 38.8932 42C43.4658 42 47.5862 42.7903 50.6854 44.0877C54.1098 45.5243 56.2741 47.5673 56.2741 49.8589" fill="#C96928"/>
<path d="M49.0635 50.2156C49.0635 52.4466 46.846 54.4647 43.2697 55.92V76.973C43.2697 79.0012 41.7998 80.5984 39.9914 80.5984H17.3264C15.518 80.5984 14.0481 78.9758 14.0481 76.973V55.058C11.5628 53.7143 10.0879 52.0156 10.0879 50.2156C10.0879 50.1108 10.0879 50.0043 10.0879 49.8961C10.5021 45.6217 19.064 42.2041 29.5605 42.2041C40.0571 42.2041 48.6139 45.6166 49.0332 49.8911C49.0332 50.0026 49.0332 50.1091 49.0332 50.2207" fill="#E8D7A5"/>
<path d="M24.3162 56.7851C24.2941 57.285 24.1718 57.7754 23.9566 58.2273C23.7413 58.6792 23.4375 59.0834 23.0631 59.416C22.2511 60.178 21.3122 60.7928 20.2886 61.2328V78.18C20.2902 78.6423 20.1972 79.1001 20.0151 79.5252C19.8654 79.9402 19.5973 80.3024 19.2438 80.567C18.8904 80.8317 18.4671 80.9872 18.0261 81.0144H2.25372C0.995713 81.0144 -0.0236335 79.7486 -0.0236335 78.185V60.5627C-1.74905 59.5103 -2.77832 58.1999 -2.77832 56.7851C-2.77832 54.7995 -0.789369 53.0373 2.31837 51.8906L1.25925 50.8382V50.724L3.86975 50.5602H4.65539H9.16534C9.69242 50.5304 10.2244 50.5156 10.7664 50.5156C13.9122 50.463 17.0377 51.028 19.9653 52.1785C22.6355 53.3202 24.3112 54.9583 24.3112 56.7752" fill="#C96928"/>
<path d="M19.0742 56.8125C19.0742 58.5923 17.3063 60.2047 14.4573 61.376V78.1597C14.4903 78.8907 14.2336 79.6052 13.7432 80.1468C13.2529 80.6884 12.5689 81.0131 11.8408 81.0499H-6.22763C-6.95577 81.0131 -7.63977 80.6884 -8.1301 80.1468C-8.62042 79.6052 -8.87716 78.8907 -8.84419 78.1597V60.6763C-10.8243 59.6013 -11.9962 58.2678 -11.9962 56.8125C-12.0013 56.7281 -12.0013 56.6434 -11.9962 56.559C-11.6376 53.1465 -4.83349 50.449 3.51628 50.449C11.866 50.449 18.7055 53.1719 19.0439 56.5793C19.0439 56.6655 19.0439 56.7517 19.0439 56.8379" fill="#E8D7A5"/>
<path d="M313.635 362H264.804C258.822 362 254 367.087 254 373.387V381.133C254 383.156 255.526 384.775 257.479 384.775H257.968V395.757C257.968 399.225 260.653 402 263.949 402H314.551C317.847 402 320.532 399.168 320.532 395.757V384.775H321.021C322.913 384.775 324.5 383.156 324.5 381.133V373.387C324.439 367.087 319.617 362 313.635 362Z" fill="#E8D7A5"/>
<path d="M263.889 402H314.49C317.786 402 320.472 399.167 320.472 395.757V384.774H257.968V395.757C257.968 399.225 260.653 402 263.889 402Z" fill="#C96928"/>
<path d="M289.22 402H314.551C317.847 402 320.533 399.167 320.533 395.757V384.774H289.22V402Z" fill="#C96928"/>
<path d="M268.711 378.705C269.87 378.705 270.786 371.249 270.786 362H266.635C266.635 371.191 267.551 378.705 268.711 378.705Z" fill="#C96928"/>
<path d="M289.219 378.705C290.379 378.705 291.295 371.249 291.295 362H287.205C287.205 371.191 288.121 378.705 289.219 378.705Z" fill="#C96928"/>
<path d="M309.729 378.705C310.888 378.705 311.804 371.249 311.804 362H307.714C307.714 371.191 308.63 378.705 309.729 378.705Z" fill="#C96928"/>
<path d="M313.635 280H264.804C258.822 280 254 285.087 254 291.387V299.133C254 301.156 255.526 302.775 257.479 302.775H257.968V313.757C257.968 317.225 260.653 320 263.949 320H314.551C317.847 320 320.532 317.168 320.532 313.757V302.775H321.021C322.913 302.775 324.5 301.156 324.5 299.133V291.387C324.439 285.087 319.617 280 313.635 280Z" fill="#E8D7A5"/>
<path d="M263.889 320H314.49C317.786 320 320.472 317.167 320.472 313.757V302.774H257.968V313.757C257.968 317.225 260.653 320 263.889 320Z" fill="#C96928"/>
<path d="M289.22 320H314.551C317.847 320 320.533 317.167 320.533 313.757V302.774H289.22V320Z" fill="#C96928"/>
<path d="M268.711 296.705C269.87 296.705 270.786 289.249 270.786 280H266.635C266.635 289.191 267.551 296.705 268.711 296.705Z" fill="#C96928"/>
<path d="M289.219 296.705C290.379 296.705 291.295 289.249 291.295 280H287.205C287.205 289.191 288.121 296.705 289.219 296.705Z" fill="#C96928"/>
<path d="M309.729 296.705C310.888 296.705 311.804 289.249 311.804 280H307.714C307.714 289.191 308.63 296.705 309.729 296.705Z" fill="#C96928"/>
<path d="M223.635 283H174.804C168.822 283 164 288.087 164 294.387V302.133C164 304.156 165.526 305.775 167.479 305.775H167.968V316.757C167.968 320.225 170.653 323 173.949 323H224.551C227.847 323 230.532 320.168 230.532 316.757V305.775H231.021C232.913 305.775 234.5 304.156 234.5 302.133V294.387C234.439 288.087 229.617 283 223.635 283Z" fill="#E8D7A5"/>
<path d="M173.889 323H224.49C227.786 323 230.472 320.167 230.472 316.757V305.774H167.968V316.757C167.968 320.225 170.653 323 173.889 323Z" fill="#C96928"/>
<path d="M199.22 323H224.551C227.847 323 230.533 320.167 230.533 316.757V305.774H199.22V323Z" fill="#C96928"/>
<path d="M178.711 299.705C179.87 299.705 180.786 292.249 180.786 283H176.635C176.635 292.191 177.551 299.705 178.711 299.705Z" fill="#C96928"/>
<path d="M199.219 299.705C200.379 299.705 201.295 292.249 201.295 283H197.205C197.205 292.191 198.121 299.705 199.219 299.705Z" fill="#C96928"/>
<path d="M219.729 299.705C220.888 299.705 221.804 292.249 221.804 283H217.714C217.714 292.191 218.63 299.705 219.729 299.705Z" fill="#C96928"/>
<path d="M223.635 362H174.804C168.822 362 164 367.087 164 373.387V381.133C164 383.156 165.526 384.775 167.479 384.775H167.968V395.757C167.968 399.225 170.653 402 173.949 402H224.551C227.847 402 230.532 399.168 230.532 395.757V384.775H231.021C232.913 384.775 234.5 383.156 234.5 381.133V373.387C234.439 367.087 229.617 362 223.635 362Z" fill="#E8D7A5"/>
<path d="M173.889 402H224.49C227.786 402 230.472 399.167 230.472 395.757V384.774H167.968V395.757C167.968 399.225 170.653 402 173.889 402Z" fill="#C96928"/>
<path d="M199.22 402H224.551C227.847 402 230.533 399.167 230.533 395.757V384.774H199.22V402Z" fill="#C96928"/>
<path d="M178.711 378.705C179.87 378.705 180.786 371.249 180.786 362H176.635C176.635 371.191 177.551 378.705 178.711 378.705Z" fill="#C96928"/>
<path d="M199.219 378.705C200.379 378.705 201.295 371.249 201.295 362H197.205C197.205 371.191 198.121 378.705 199.219 378.705Z" fill="#C96928"/>
<path d="M219.729 378.705C220.888 378.705 221.804 371.249 221.804 362H217.714C217.714 371.191 218.63 378.705 219.729 378.705Z" fill="#C96928"/>
<path d="M587.163 134.387V117.283C587.164 115.503 586.777 113.739 586.026 112.094C585.274 110.448 584.173 108.953 582.783 107.693C581.394 106.434 579.745 105.435 577.929 104.753C576.114 104.072 574.168 103.721 572.203 103.721H519.067C517.102 103.72 515.155 104.07 513.339 104.752C511.523 105.433 509.872 106.432 508.482 107.691C507.093 108.951 505.99 110.446 505.238 112.092C504.486 113.738 504.1 115.502 504.101 117.283V124.135C504.109 125.332 504.479 126.504 505.171 127.524C505.864 128.543 506.852 129.371 508.027 129.917C509.419 130.544 510.666 131.406 511.701 132.457C514.537 135.457 511.701 174.057 511.701 174.057C511.701 174.057 510.52 183.708 501.317 185.855C501.317 185.855 498.24 188.425 498 191.86H589.765C589.765 191.86 591.894 187.996 579.589 185.208C567.283 182.42 558.528 184.567 558.528 184.567C558.528 184.567 536.76 183.279 532.47 165.911C528.18 148.543 533.657 133.316 538.862 132.457C544.068 131.599 587.163 134.387 587.163 134.387Z" fill="#C9CF76"/>
<path d="M587.162 117.277H504.1V119.995H587.162V117.277Z" fill="#F5F3D2"/>
<path d="M552.388 132.522H587.163V133.569C587.163 134.12 586.921 134.648 586.492 135.037C586.062 135.427 585.479 135.645 584.872 135.645H554.686C554.078 135.645 553.495 135.427 553.066 135.037C552.636 134.648 552.395 134.12 552.395 133.569V132.522H552.388Z" fill="#F5F3D2"/>
<path d="M555.133 135.651H584.443V136.698C584.443 137.248 584.202 137.777 583.772 138.166C583.342 138.555 582.76 138.774 582.152 138.774H557.424C556.817 138.774 556.234 138.555 555.804 138.166C555.375 137.777 555.133 137.248 555.133 136.698V135.651Z" fill="#C9CF76"/>
<path d="M544.055 147.931H594.133V166.752C594.133 171.99 591.837 177.014 587.75 180.717C583.663 184.421 578.119 186.502 572.339 186.502H565.849C562.985 186.502 560.148 185.99 557.503 184.996C554.857 184.002 552.453 182.545 550.429 180.709C548.405 178.873 546.8 176.693 545.706 174.294C544.613 171.895 544.051 169.324 544.055 166.729V147.908V147.931Z" fill="#E8D7A5"/>
<path d="M569.03 149.666C582.891 149.666 594.127 148.85 594.127 147.843C594.127 146.836 582.891 146.02 569.03 146.02C555.169 146.02 543.932 146.836 543.932 147.843C543.932 148.85 555.169 149.666 569.03 149.666Z" fill="#CAD06F"/>
<path d="M547.397 153.536C547.708 157.165 549.591 174.457 557.294 179.415C557.48 179.528 557.701 179.581 557.924 179.567C558.147 179.553 558.358 179.473 558.525 179.338C558.692 179.203 558.804 179.022 558.844 178.823C558.885 178.624 558.851 178.418 558.748 178.238C556.568 174.904 552.907 168.511 551.927 161.582C550.804 153.889 549.441 152.548 548.318 152.595C548.06 152.613 547.82 152.722 547.648 152.897C547.476 153.073 547.386 153.302 547.397 153.536Z" fill="#F5F3D2"/>
<path d="M571.593 138.774H569.192V151.772H571.593V138.774Z" fill="#E8D7A5"/>
<path d="M660.866 130.216L660.859 130.217C659.125 130.554 657.998 132.202 658.342 133.898L663.194 157.822C663.538 159.518 665.223 160.621 666.958 160.284L666.964 160.283C668.699 159.947 669.826 158.299 669.482 156.602L664.629 132.678C664.285 130.982 662.6 129.879 660.866 130.216Z" fill="#EF9B7D"/>
<path d="M659.575 130.45C659.575 130.45 632.711 98.5558 650.988 91.8959C669.264 85.2361 666.707 117.483 662.429 129.902L659.575 130.45Z" stroke="#0D171D" stroke-width="2" stroke-miterlimit="10"/>
<path d="M659.575 130.45C659.575 130.45 658.331 131.338 650.459 112.001C642.587 92.6645 652.553 91.3792 652.553 91.3792C652.553 91.3792 648.288 93.7104 655.381 114.641L660.445 130.286" stroke="#0D171D" stroke-width="2" stroke-miterlimit="10"/>
<path d="M660.966 130.192C660.966 130.192 663.769 130.293 663.498 109.481C663.228 88.6701 653.513 91.2093 653.513 91.2093C653.513 91.2093 656.888 92.4064 658.776 106.331C660.664 120.256 660.966 130.192 660.966 130.192Z" stroke="#0D171D" stroke-width="2" stroke-miterlimit="10"/>
<path d="M678.677 125.864L678.671 125.862C676.975 125.373 675.194 126.322 674.695 127.981L664.232 162.702C663.733 164.361 664.702 166.102 666.399 166.591L666.405 166.593C668.101 167.082 669.881 166.133 670.381 164.474L680.843 129.753C681.343 128.094 680.373 126.353 678.677 125.864Z" fill="#EF9B7D"/>
<path d="M692.127 116.802C694.508 108.901 692.02 101.223 686.569 99.6519C681.119 98.081 674.771 103.212 672.39 111.113C670.009 119.014 672.498 126.692 677.948 128.263C683.399 129.834 689.747 124.703 692.127 116.802Z" fill="#EF9B7D"/>
<path d="M684.062 104.705C682.448 104.53 680.828 104.983 679.552 105.965C676.731 108.486 671.397 114.251 676.331 122.391C676.331 122.391 676.757 123.488 676.331 118.775C675.906 114.062 677.588 108.013 682.625 106.11C685.164 105.153 684.925 104.806 684.062 104.705Z" fill="#F5F3D2"/>
<path d="M684.062 191.202H661.772L654.524 139.271H689.036L684.062 191.202Z" fill="#E8D7A5"/>
<rect x="360" y="232" width="237" height="58" fill="#E8D7A5"/>
<rect x="614" y="232" width="229" height="58" fill="#E8D7A5"/>
<rect x="696" y="304" width="147" height="169" fill="#E8D7A5"/>
<rect x="527" y="304" width="152" height="169" fill="#E8D7A5"/>
<rect x="362" y="304" width="152" height="169" fill="#E8D7A5"/>
<path d="M1121 198H861V489H1121V198Z" fill="#E8D7A5"/>
<path d="M1121 251H861V453H1121V251Z" fill="#C96928"/>
<path d="M1092 268H891V436H1092V268Z" fill="#F5F3D2"/>
<path d="M895.5 234C899.09 234 902 231.09 902 227.5C902 223.91 899.09 221 895.5 221C891.91 221 889 223.91 889 227.5C889 231.09 891.91 234 895.5 234Z" fill="#08151B"/>
<path d="M915.5 234C919.642 234 923 231.09 923 227.5C923 223.91 919.642 221 915.5 221C911.358 221 908 223.91 908 227.5C908 231.09 911.358 234 915.5 234Z" fill="#08151B"/>
<path d="M934.5 234C938.09 234 941 231.09 941 227.5C941 223.91 938.09 221 934.5 221C930.91 221 928 223.91 928 227.5C928 231.09 930.91 234 934.5 234Z" fill="#08151B"/>
<path d="M953 234C956.866 234 960 231.09 960 227.5C960 223.91 956.866 221 953 221C949.134 221 946 223.91 946 227.5C946 231.09 949.134 234 953 234Z" fill="#08151B"/>
<path d="M1060.5 234C1064.64 234 1068 231.09 1068 227.5C1068 223.91 1064.64 221 1060.5 221C1056.36 221 1053 223.91 1053 227.5C1053 231.09 1056.36 234 1060.5 234Z" fill="#08151B"/>
<path d="M1080 234C1083.87 234 1087 231.09 1087 227.5C1087 223.91 1083.87 221 1080 221C1076.13 221 1073 223.91 1073 227.5C1073 231.09 1076.13 234 1080 234Z" fill="#08151B"/>
<path d="M1099 234C1102.87 234 1106 231.09 1106 227.5C1106 223.91 1102.87 221 1099 221C1095.13 221 1092 223.91 1092 227.5C1092 231.09 1095.13 234 1099 234Z" fill="#08151B"/>
<path d="M1088.49 282L1092 290.348L890.593 436L889 282H1088.49Z" fill="#E8D7A5"/>
<path d="M1092 269H889V289H1092V269Z" fill="#0D171D"/>
<path d="M1078 276H904V283H1078V276Z" fill="#F5F3D2"/>
<path d="M1122 192H862V206H1122V192Z" fill="#C96928"/>
<rect x="438" y="258" width="76" height="5" rx="2.5" fill="#C96928"/>
<rect x="694" y="259" width="76" height="5" rx="2.5" fill="#C96928"/>
<rect x="498" y="420" width="50" height="5" rx="2.5" transform="rotate(-90 498 420)" fill="#C96928"/>
<rect x="663" y="420" width="50" height="5" rx="2.5" transform="rotate(-90 663 420)" fill="#C96928"/>
<rect x="829" y="420" width="50" height="5" rx="2.5" transform="rotate(-90 829 420)" fill="#C96928"/>
<path d="M396 717.5V697L348 897.5L355.149 901L396 717.5Z" fill="#F6F4D2"/>
<path d="M396 717.5V697L348 897.5L355.149 901L396 717.5Z" fill="#F6F4D2"/>
<path d="M0 88L340 88V82L0 82L0 88Z" fill="#9B2227"/>
<path d="M0 248L340 248V242L0 242L0 248Z" fill="#9B2227"/>
<path d="M0 408L340 408V402L0 402L0 408Z" fill="#9B2227"/>
<path d="M0 328L340 328V322L0 322L0 328Z" fill="#9B2227"/>
<path d="M0 168L340 168V162L0 162L0 168Z" fill="#9B2227"/>
</svg>
