<svg width="579" height="830" viewBox="0 0 579 830" fill="none" xmlns="http://www.w3.org/2000/svg">
<g opacity="0.5" clip-path="url(#clip0)">
<path opacity="0.5" d="M483.327 173.212C477.42 175.881 472.251 179.782 467.082 185.12C461.728 183.888 456.006 184.093 450.283 183.683C444.376 183.272 439.576 188.2 433.115 186.762C436.807 196.822 436.807 196.822 425.361 206.883C426.654 209.141 427.761 211.399 428.869 213.247C429.053 221.665 418.9 214.068 418.531 223.512C415.762 217.148 411.885 221.049 408.562 220.227C404.316 219.201 405.424 214.068 402.84 211.399C400.255 213.658 397.117 212.22 394.163 212.631C391.394 215.3 392.317 221.87 386.41 221.049C384.748 220.843 384.194 222.691 383.271 224.334C379.764 230.903 376.81 230.903 372.564 224.128C368.503 224.539 367.026 227.824 365.734 231.519C366.842 232.135 367.765 232.956 369.057 233.778C368.134 239.116 366.288 244.043 362.227 247.944C357.611 252.255 356.135 259.03 354.289 264.984C351.519 273.402 354.842 277.097 364.626 275.455C358.534 278.124 354.473 281.409 349.858 283.872C345.428 286.336 343.028 293.317 338.966 297.423C331.213 305.019 324.383 314.053 315.706 320.417C307.768 326.166 302.415 333.967 298.169 343.411C290.785 360.247 285.8 378.314 278.601 395.149C278.416 395.559 278.97 396.38 279.154 396.996C281.924 398.434 283.77 395.97 285.8 394.943C308.507 383.036 330.475 369.896 352.258 356.14C355.212 354.293 358.719 355.114 361.673 353.061C377.18 343.001 390.656 330.477 400.44 313.231C402.286 309.946 401.732 306.661 401.178 303.377C400.809 300.297 398.963 296.807 402.101 293.727C403.578 304.608 403.578 304.608 407.27 308.715C398.224 322.06 389.548 335.404 377.549 346.08C370.903 351.829 364.073 356.756 356.504 360.247C351.889 362.3 347.274 364.353 343.212 367.022C322.906 380.572 301.492 391.453 280.816 404.182C276.201 407.056 273.616 411.368 271.586 416.295C263.463 435.799 258.11 456.535 252.018 476.861C248.141 489.59 242.787 501.292 235.588 512.173C229.127 522.028 227.096 534.141 226.911 546.049C226.542 564.527 226.911 583.004 227.096 601.276C228.204 663.69 229.127 726.308 230.419 788.721C231.157 819.312 232.819 850.108 233.926 880.699C234.111 886.858 237.249 892.607 235.403 898.766C225.435 902.461 212.328 901.64 197.375 896.302C196.452 889.527 199.221 883.162 199.775 876.387C202.359 843.333 204.205 810.279 204.759 777.224C206.236 696.949 208.082 616.88 208.636 536.605C208.636 527.982 208.082 519.565 206.605 511.147C203.282 490.206 202.913 469.059 201.067 448.118C201.067 447.091 201.067 446.065 201.067 445.038C201.436 413.832 187.775 391.453 165.623 374.207C156.023 366.816 146.239 359.836 137.378 351.213C130.363 344.233 121.687 344.027 113.195 343.822C107.657 343.617 102.119 344.233 96.0268 337.663C107.472 343.617 117.441 341.564 128.517 341.564C125.01 335.61 125.194 330.066 124.825 324.318C124.087 310.357 120.764 298.449 109.872 288.8C97.319 277.713 85.1351 266.627 71.659 257.183C69.8129 255.951 68.1515 254.103 67.5977 251.845C66.49 244.659 64.2748 237.884 59.6597 232.341C58.7366 231.314 57.629 229.672 58.1828 227.618C59.4751 224.539 61.8749 223.718 65.0132 224.128C64.644 210.783 57.8136 201.75 48.5834 195.385C41.9376 190.869 39.7224 184.915 38.9839 176.702C43.5991 173.828 46.3681 169.311 45.9989 162.947C45.6297 156.582 49.8756 153.913 53.7523 151.45C60.3981 146.933 63.721 141.39 65.0132 132.356C65.7516 126.813 65.0132 122.707 63.1672 116.753C57.9982 123.323 49.691 114.905 46.1835 122.091C43.5991 125.376 46.3681 127.634 44.8913 130.303C38.4301 130.098 32.5228 122.501 26.8001 129.277C23.2926 128.455 24.954 125.786 24.4002 123.733C22.0003 122.502 18.8621 124.349 15.9084 121.68C20.5235 126.813 19.4159 132.972 21.0773 139.337C15.17 139.337 12.7701 145.906 7.78578 147.96C5.57053 148.986 2.43225 149.191 1.87844 147.96C-1.07523 139.953 -7.53638 142.006 -12.3361 142.622C-18.7973 143.443 -22.3048 141.595 -23.7816 135.025C-26.3661 132.972 -29.6889 137.078 -31.9042 132.562C-32.2734 129.071 -29.6889 125.786 -29.1351 121.886C-27.4737 119.422 -24.3354 120.859 -22.3048 118.601C-22.674 117.779 -22.674 116.753 -23.2278 116.137C-25.9968 112.852 -30.612 115.932 -33.5656 112.441C-32.6426 109.362 -25.8122 110.594 -28.3967 104.64C-28.5813 104.024 -27.2891 102.381 -25.8122 102.381C-22.1201 102.587 -19.1665 100.739 -17.1358 97.4541C-12.3361 90.0631 -11.4131 86.7782 -11.4131 79.3871C-13.2591 79.1818 -14.9206 78.7712 -16.7666 78.5659C-24.8892 77.5394 -34.3041 84.5198 -36.1501 93.5533C-36.8885 97.2488 -38.1807 100.534 -39.8422 102.792C-40.0268 105.872 -37.2577 106.488 -37.6269 108.951C-38.9192 110.594 -41.6882 109.157 -42.6113 112.236C-45.9341 122.707 -46.3033 122.912 -55.349 122.091C-60.1487 124.349 -57.9334 130.919 -62.5485 134.409C-66.4252 137.489 -70.4865 139.953 -74.3632 142.622C-76.0247 143.853 -78.0553 144.264 -79.5322 143.032C-81.5628 141.184 -82.4858 138.721 -81.7474 135.641C-80.8244 131.535 -78.6091 128.455 -75.4709 126.402C-79.9014 116.548 -77.5015 109.157 -69.3789 104.845C-66.056 102.997 -63.287 101.15 -59.4103 100.944C-55.349 100.739 -45.1957 85.7516 -44.8265 80.8243C-44.4573 77.1288 -44.0881 73.4332 -43.7189 70.7643C-35.2271 61.1148 -25.443 60.2936 -14.3668 63.1679C-14.3668 58.4459 -9.93625 56.8034 -7.9056 53.3132C-9.01323 49.0018 -13.0745 47.9752 -15.4744 46.3328C-19.3511 43.8691 -21.7509 40.3789 -24.52 36.8887C-29.8735 29.9082 -33.5656 30.5242 -36.8885 38.9417C-37.9961 41.816 -38.55 44.8956 -39.6576 47.5646C-41.8728 52.6973 -44.4573 52.9026 -49.4416 48.3858C-49.0724 43.0479 -44.0881 39.147 -45.3803 32.5772C-49.6262 31.756 -53.1337 34.2197 -57.7488 37.9152C-56.0874 31.756 -60.7025 31.3454 -62.3639 28.2658C-58.4872 22.5172 -52.2107 19.8482 -49.4416 13.0731C-48.1494 9.7882 -43.5343 9.99351 -40.396 9.37759C-31.535 7.73514 -25.2584 2.19186 -20.8279 -6.0204C-18.0589 -11.1531 -14.3668 -15.6698 -8.27481 -14.0274C-4.95193 -13.2061 -4.21351 -16.2857 -1.99825 -16.9016C6.30895 -10.1265 7.41658 -10.1265 22.9234 -14.8486C21.6311 -18.9547 21.0773 -23.6768 15.9084 -18.3388C13.8777 -16.2857 12.0317 -17.9282 10.1856 -19.16C12.2163 -24.9086 13.3239 -30.6572 19.2313 -33.1209C20.7081 -33.7368 21.6311 -36.2005 22.3695 -38.0482C25.5078 -47.6976 29.9383 -55.9099 39.5378 -59.1948C40.6454 -59.6054 41.3838 -61.0426 41.9376 -61.4532C45.9989 -62.4797 48.768 -57.1417 53.0139 -60.4267C52.2755 -52.625 46.5527 -49.3401 42.676 -47.6976C36.7687 -45.234 36.2149 -39.6907 35.1073 -35.5845C32.892 -26.3458 32.5228 -22.8555 28.6461 -17.3123C26.4308 -14.0274 25.5078 -10.7425 28.6461 -7.45755C29.9383 -6.0204 31.046 -4.37794 32.1536 -2.73549C36.0303 -8.68938 38.4301 -1.50365 41.753 -1.91427C41.0146 4.24493 34.7381 3.62901 33.4458 8.96698C31.969 14.3049 26.6154 12.2519 22.9234 14.305C21.0773 16.7686 20.5235 20.0535 20.1543 23.7491C23.6618 28.4711 30.1229 28.6764 32.892 35.4515C36.9533 28.6764 42.676 28.0605 48.768 28.0605C50.614 29.7029 51.9063 32.5772 54.6753 33.8091C55.9676 32.5772 57.2598 31.3454 58.552 30.1136C64.644 35.0409 63.721 45.1009 70.5513 50.0283C77.1971 44.2797 84.2121 40.5842 92.3347 44.2797C94.5499 43.0479 93.4423 40.9948 94.5499 39.147C97.1344 39.147 100.088 39.3523 102.488 37.9152C105.442 38.9417 105.072 43.2532 108.949 43.4585C112.826 39.763 115.595 34.2197 118.733 28.8817C122.056 29.087 125.194 29.4976 128.517 29.7029C128.702 34.0144 125.194 34.8356 124.087 37.5046C121.133 44.2797 121.318 50.0283 126.487 54.7503C129.256 57.214 129.994 60.2936 130.548 63.7838C126.856 59.0618 122.056 56.5981 117.072 54.1344C113.749 60.2936 117.81 65.0157 119.102 69.7377C116.149 73.6385 112.087 73.4332 108.026 76.7181C112.826 66.8634 102.303 69.5324 102.488 63.9891C100.273 64.6051 99.7189 65.6316 99.7189 67.0687C99.3496 71.9961 101.934 75.8969 103.411 80.003C100.826 88.4206 91.9655 93.9639 96.5806 104.64C101.196 107.104 103.411 112.647 100.826 117.369C97.6882 122.912 96.396 129.893 91.4117 134.204C89.7502 135.641 89.5656 137.899 90.1194 140.568C91.9655 150.013 96.5806 156.993 103.596 162.126C107.841 165.205 111.534 169.106 115.226 173.007C120.764 178.961 124.271 187.378 130.917 191.279C135.717 185.736 141.439 186.762 147.347 188.405C145.685 183.683 144.393 180.193 140.332 179.166C137.747 177.934 137.378 184.709 133.871 182.451C135.348 179.166 144.762 167.874 146.793 166.848C151.962 164.179 153.623 165.616 153.623 172.186C153.623 174.239 152.331 176.087 154.177 178.756C156.762 179.371 160.269 181.424 163.223 180.809C169.869 179.577 175.038 182.862 180.022 186.762C172.453 187.584 171.345 196.207 166.546 200.723C162.854 199.081 162.3 192.922 158.238 193.332C152.7 198.465 157.685 208.114 150.301 212.015C148.085 207.704 145.132 206.472 141.07 208.114C143.286 213.863 145.132 219.201 147.531 224.334C149.747 228.85 152.331 234.394 156.577 235.215C162.115 236.241 163.961 240.142 166.176 244.248C171.161 253.487 175.776 263.342 181.129 272.375C187.406 283.051 194.052 282.435 199.59 271.143C200.328 269.706 200.882 268.064 201.436 266.421C203.097 260.057 202.359 258.209 196.636 254.719C197.19 253.077 199.959 254.719 199.775 251.229C199.59 248.97 194.975 250.202 195.344 246.507C197.375 245.275 199.405 243.632 197.928 241.169C195.159 236.447 190.729 237.884 187.221 238.705C182.791 233.367 185.191 229.672 188.698 227.413C194.236 223.923 194.236 219.201 192.944 213.452C192.021 209.551 190.914 205.651 189.99 201.955C185.006 198.67 179.837 200.518 175.222 200.107C173.561 193.127 180.76 194.154 181.683 189.842C180.945 188.61 180.206 187.378 179.653 186.352C181.314 186.147 183.16 187.584 185.375 185.531C187.037 180.398 185.929 176.292 180.022 174.444C184.637 168.285 180.206 163.152 178.73 157.404C175.038 144.675 164.884 139.747 153.993 145.291C149.931 147.344 146.055 150.013 141.255 150.423C132.025 151.039 124.087 138.926 128.333 129.893C131.102 124.144 132.394 117.985 134.055 111.826C138.117 110.388 141.809 109.157 146.055 107.514C148.085 118.19 157.5 114.289 162.3 119.833C165.623 116.342 165.253 114.084 163.038 110.594C160.269 106.077 155.469 101.766 157.5 94.9904C159.9 95.401 162.115 97.0435 165.069 95.1957C163.407 90.8843 163.592 85.341 157.315 85.1357C156.208 85.1357 154.916 83.4933 155.1 82.2614C155.839 76.5128 151.039 75.0757 148.27 72.612C145.316 69.943 142.732 68.5059 146.978 64.8104C147.531 64.3997 145.316 61.9361 146.239 58.8565C149.008 49.4124 155.285 44.8956 163.038 42.0213C162.484 35.0409 156.208 35.4515 152.885 31.5507C152.7 22.9278 155.469 14.0996 153.993 4.65554C146.608 1.16533 146.793 -12.1796 137.009 -13.8221C133.501 -9.92123 139.224 -7.86816 138.301 -4.78856C135.717 -2.11958 134.794 -6.84163 133.871 -6.63632C129.809 -5.81509 129.809 -1.91427 127.41 -0.682426C125.563 -2.32488 125.379 -5.40448 121.687 -7.25224C118.364 -0.271812 111.718 4.65554 112.087 14.5103C110.98 13.689 109.872 12.8678 108.764 12.0466C105.072 14.7156 105.257 18.8217 105.442 23.3384C103.226 21.0801 104.888 18.2058 103.226 16.1527C100.826 15.3315 98.6112 16.1527 96.5806 17.7952C92.3347 14.305 86.7965 12.2519 86.4273 5.27146C86.2427 1.78125 85.3197 -0.682426 80.8892 -1.09304C82.1814 6.298 74.2434 7.52983 72.9512 13.8943C72.582 15.9474 66.8592 13.2784 67.4131 10.1988C68.3361 4.65554 65.567 1.57594 63.3518 -2.11958C59.2905 -8.48408 57.2598 -8.27877 53.0139 -1.50365C50.614 -1.09304 48.9526 -2.7355 47.4758 -4.17264C46.1835 -7.25224 48.2142 -9.71592 47.845 -13.0008C46.922 -21.2131 57.2598 -33.7368 65.0132 -34.7633C70.9205 -35.5845 75.1665 -38.2535 77.9355 -43.3862C77.1971 -48.3136 72.2128 -46.8764 71.1051 -50.9825C74.0588 -59.6054 80.3354 -66.9965 82.5506 -76.0299C87.1658 -78.9042 91.2271 -77.0565 96.5806 -75.6193C97.6882 -85.0634 101.196 -94.9182 109.688 -99.4349C116.149 -102.925 124.271 -99.6402 133.132 -97.5871C127.41 -91.8386 124.456 -86.09 120.579 -80.752C116.702 -85.2687 113.38 -81.3679 109.872 -80.3414C109.872 -78.083 109.503 -77.0565 112.641 -76.0299C116.518 -74.7981 114.303 -68.8442 111.903 -66.7911C106.549 -62.8903 102.488 -57.1417 97.1344 -53.4462C95.1037 -52.0091 93.9961 -50.5719 93.8115 -47.287C98.7958 -44.8233 105.257 -45.6446 108.58 -39.896C111.349 -41.1278 111.349 -43.3862 111.349 -45.234C111.349 -47.9029 113.195 -50.5719 114.118 -51.1879C119.472 -55.0887 124.271 -58.9895 124.825 -66.7911C130.548 -69.4601 133.317 -76.6459 139.593 -78.6989C141.439 -79.3149 141.07 -82.5998 143.839 -82.1891C147.716 -80.9573 143.286 -77.4671 145.132 -75.0034C147.901 -74.5928 149.747 -75.414 150.485 -79.3148C152.147 -86.9112 157.315 -91.0173 163.592 -93.0704C166.361 -93.8916 170.053 -94.9182 170.053 -90.6067C180.945 -89.5802 187.96 -101.283 197.928 -99.8455C201.251 -95.7394 194.236 -96.7659 196.821 -93.2757C198.482 -91.0173 200.328 -91.0173 202.544 -91.0173C209.743 -91.2226 217.312 -91.8386 223.589 -86.9112C226.542 -84.6528 229.496 -81.3679 231.157 -77.8777C232.634 -74.5928 230.234 -70.4867 228.019 -68.8442C222.112 -64.3275 222.481 -56.7311 217.497 -50.3666C224.881 -50.3666 229.865 -52.2144 234.111 -56.3205C235.403 -57.5524 236.142 -60.632 238.172 -60.016C246.664 -57.5524 254.971 -63.0956 263.463 -60.2213C267.524 -58.7842 271.77 -57.7577 276.016 -62.8903C276.201 -57.7577 278.416 -53.4462 272.509 -53.0356C271.955 -49.5454 274.539 -46.4658 273.063 -42.9756C270.293 -40.7172 267.894 -43.5915 265.125 -43.3862C261.063 -38.6642 268.447 -35.7898 266.417 -30.4519C264.755 -26.1404 270.478 -22.6502 270.293 -16.9016C276.57 -21.6237 281.001 -10.1265 286.723 -17.3123C289.123 -10.7425 289.492 -4.78857 289.677 1.16533C289.862 6.91391 291.338 11.636 295.953 15.5368C302.599 15.9474 305.922 7.94044 311.46 6.91391C313.491 3.4237 311.276 1.57594 311.276 -0.887741C312.937 -3.76203 316.629 -5.40448 316.26 -10.7425C308.876 -9.1 308.507 -17.107 305.184 -21.0078C299.276 -20.5972 298.723 -14.438 295.03 -10.5371C296.876 -18.7494 287.462 -19.3653 287.462 -25.9351C288.569 -29.22 291.338 -30.0413 293.923 -31.0678C299.83 -33.7368 305.738 -35.5846 311.46 -38.8695C316.629 -41.7438 322.721 -38.0482 328.259 -38.4588C331.582 -31.6837 333.059 -23.8821 340.997 -24.0874C342.843 -20.1866 341.92 -16.9016 341.735 -13.6167C345.797 -7.66286 350.596 -11.5637 353.735 -12.3849C357.427 -11.3584 356.319 -7.66286 359.457 -6.43102C366.657 -9.30531 374.041 -6.0204 381.795 -4.37795C382.902 -4.17265 384.379 -4.78856 385.117 -5.60979C389.733 -10.9478 397.117 -9.92123 401.916 -15.2592C403.578 -17.107 407.639 -15.0539 410.962 -17.3123C414.285 -19.3653 415.577 -14.438 417.239 -11.5637C418.716 -8.68939 421.3 -11.5637 423.515 -10.1265C425.177 -7.25224 424.254 -2.9408 426.838 -0.887741C426.284 3.4237 423.146 4.03962 421.669 6.09269C417.239 4.86085 414.654 -1.09305 409.485 1.78124C407.085 4.03962 408.378 8.55637 405.055 10.8147C406.901 15.1262 412.439 19.4376 405.793 24.5703C402.286 26.0074 401.547 20.4641 397.855 20.0535C395.455 22.9278 395.64 31.9613 388.44 27.034C386.594 31.5507 380.133 31.3454 379.395 37.9152C384.748 41.6107 390.471 38.1205 395.825 37.7099C392.686 46.9487 384.748 52.0814 380.133 59.6777C381.61 61.9361 383.087 60.9095 384.564 61.1148C386.04 61.1148 387.702 61.3202 388.994 61.7308C395.271 63.7838 396.378 66.4528 393.24 73.2279C391.579 76.7181 395.455 77.7447 394.532 80.2084C392.871 82.2614 389.363 82.0561 389.548 86.1622C393.609 90.2684 398.224 89.4472 401.547 87.5994C404.87 85.1357 402.47 81.4402 405.424 79.3871C406.716 80.4137 408.008 81.4402 409.485 82.672C407.085 85.9569 403.578 89.4471 409.854 93.1427C411.885 88.2153 416.316 89.4472 420.562 87.3941C418.9 80.619 419.085 73.8439 418.716 67.0687C419.823 69.943 420.931 72.612 422.038 75.6916C426.654 77.1288 430.161 74.6651 433.484 72.612C436.438 73.0226 436.068 76.7181 438.099 77.5394C442.529 75.8969 444.745 71.9961 445.299 66.4528C449.36 67.274 453.237 68.0953 457.667 69.1218C459.144 74.4598 462.651 78.9765 461.913 85.341C461.359 90.0631 465.605 90.679 467.636 92.9374C464.313 101.355 458.406 98.07 453.421 97.2488C451.944 106.693 452.498 108.13 458.405 112.031C455.636 115.726 452.314 112.852 448.806 113.468C448.252 118.19 445.299 121.68 439.76 124.76C446.775 127.224 452.129 127.634 457.852 125.581C461.359 124.349 465.605 122.707 468.374 127.634C467.82 132.562 464.128 133.177 461.544 135.436C466.159 141.184 466.343 140.979 471.143 131.124C473.174 132.767 475.02 133.383 475.943 130.098C477.604 124.349 481.85 120.859 485.173 116.548C490.711 109.567 499.018 109.772 504.372 112.852C506.772 114.289 508.064 115.726 511.018 114.495C520.986 110.388 531.14 120.448 535.386 129.277C536.678 131.946 532.617 135.436 536.124 138.105C537.97 139.542 541.108 139.337 540.739 143.648C540.555 145.291 543.139 146.522 544.8 147.549C549.6 150.013 549.6 150.013 552 154.94C550.154 156.788 548.308 157.814 545.723 158.43C540.37 159.662 535.016 160.278 530.032 163.358C526.709 165.411 523.202 164.179 520.433 162.536C517.11 160.483 511.756 161.51 511.202 155.351C508.249 155.351 505.48 155.351 503.818 155.351C498.465 158.02 502.157 167.464 494.773 167.258C492.373 165.411 494.773 161.51 491.081 159.867C487.942 159.867 484.619 160.689 484.989 166.437C485.173 169.311 483.696 171.57 483.142 174.239L483.327 173.212ZM353.366 202.366C350.781 200.107 348.381 197.849 346.351 196.001C345.981 192.1 350.596 189.021 345.427 186.147C343.766 191.279 342.658 196.412 338.966 199.491C340.259 204.624 341.551 209.141 343.028 214.479C347.089 213.247 350.227 216.943 354.473 216.327C354.658 212.631 354.842 209.552 354.842 206.472C357.058 207.909 356.135 211.81 359.642 213.042C363.334 204.008 364.257 193.538 370.718 186.147C367.026 181.424 363.519 184.709 361.303 187.378C357.427 191.279 351.15 194.359 353.366 202.366ZM205.497 146.317C204.205 150.423 202.174 154.324 200.698 158.225C197.375 166.848 192.944 175.676 201.067 184.504C203.282 186.762 202.913 190.253 201.436 193.743C199.959 197.438 199.036 201.955 202.728 205.651C207.528 198.26 208.451 189.842 210.482 181.424C206.974 180.193 202.728 182.656 201.067 177.113C204.39 172.802 201.067 166.232 204.759 161.51C211.22 153.298 214.174 142.827 220.081 134.204C221.927 131.535 222.85 128.455 221.373 125.17C216.574 125.581 216.204 132.356 211.589 132.151C211.774 127.429 216.204 125.17 216.574 120.859C215.835 119.011 215.281 117.985 213.989 117.369C209.559 115.726 205.866 119.217 201.621 119.422C196.267 119.627 194.236 127.634 188.514 129.687C187.406 128.25 189.437 124.349 185.191 124.555C181.499 128.25 181.314 133.177 182.791 138.721C185.375 148.37 190.914 156.582 195.529 166.027C198.667 158.635 199.959 151.039 205.497 146.317ZM321.06 253.282C323.275 249.586 325.306 246.096 327.521 242.401C323.09 236.241 323.275 244.043 320.321 244.454C319.398 240.963 314.599 245.685 313.122 239.937C317.368 240.142 320.875 238.705 320.506 233.367C320.137 228.645 328.813 228.234 324.567 221.254C309.43 238.294 297.43 256.977 289.862 281.409C298.538 275.455 304.63 268.68 310.722 262.11C313.86 258.62 316.445 253.898 321.429 253.282C314.599 261.289 307.768 269.501 300.384 276.687C291.708 285.104 281.924 292.085 275.278 303.171C268.263 315.079 260.509 326.371 252.571 337.458C247.772 344.233 247.218 350.597 250.541 358.604C261.248 353.471 269.74 345.67 276.939 336.431C280.631 331.709 285.8 328.835 289.123 324.318C292.631 319.596 296.877 317.543 301.307 315.49C305.922 313.437 309.614 307.688 313.491 307.277C321.983 306.046 324.567 297.628 330.475 293.522C333.613 291.264 335.828 286.747 334.905 281.819C333.428 273.197 339.705 267.037 340.812 259.03C341.182 256.772 344.874 255.335 343.951 251.434C343.212 248.354 340.074 247.944 338.597 245.685C339.705 244.864 340.443 244.454 341.366 243.838C337.12 241.99 333.797 242.606 332.321 247.533C330.105 253.487 326.229 254.719 321.06 253.282ZM78.8586 225.565C75.1665 224.539 72.2128 224.744 71.4744 230.082C71.1051 233.162 69.9975 236.036 69.8129 239.116C69.2591 246.301 70.9205 251.639 77.0125 256.361C87.3504 264.574 98.7958 271.349 107.841 281.819C108.58 282.846 109.688 283.462 110.98 282.641C113.564 274.223 107.841 268.68 105.257 262.11C107.657 264.163 110.241 266.011 113.01 268.269C113.195 277.919 113.38 287.773 122.056 294.343C123.164 295.164 123.902 297.012 124.271 298.655C126.671 307.072 129.625 315.49 129.625 324.523C129.625 332.735 133.132 338.689 138.301 344.027C147.347 353.266 157.5 360.862 167.838 368.254C177.991 375.439 187.037 384.062 192.76 396.175C193.683 398.228 194.236 400.897 197.928 401.308C196.636 391.043 195.344 381.188 194.052 371.333C191.837 352.034 189.252 332.941 189.437 313.437C189.621 300.913 189.067 288.184 180.206 278.329C179.653 277.713 179.099 276.687 178.73 275.66C173.191 258.004 163.223 244.454 148.824 234.599C146.239 232.956 144.209 230.287 141.07 229.672C137.378 228.645 136.824 234.188 133.501 234.599C130.917 228.234 125.563 232.135 121.502 230.493C117.072 228.645 114.487 236.652 109.503 235.215C109.134 225.155 113.749 218.585 120.764 214.889C124.825 212.836 127.779 209.757 131.102 207.088C131.286 199.081 129.994 191.895 121.502 188.816C118.733 193.538 114.487 195.591 110.241 195.18C106.18 198.876 111.718 202.16 109.134 205.035C106.549 205.445 105.257 202.982 103.226 202.776C100.826 202.366 100.826 198.465 98.242 199.081C95.1037 199.491 97.1344 195.591 95.2883 194.975C89.5656 201.75 89.5656 201.75 83.4737 199.491C83.1044 208.114 81.8122 216.943 78.8586 225.565ZM290.785 329.861C287.462 331.093 284.693 333.146 282.662 335.815C275.278 346.08 266.048 354.087 256.448 361.273C249.618 366.406 246.664 372.976 246.295 381.804C246.11 390.016 246.664 398.434 245.003 406.235C241.495 421.633 240.941 438.058 234.665 452.84C233.003 456.741 232.634 461.463 232.819 465.979C233.188 475.218 233.188 484.457 233.557 493.696C233.557 495.544 232.819 498.007 236.142 498.418C241.126 491.848 243.526 483.841 245.926 475.834C254.417 447.707 264.386 420.401 275.278 393.096C283.031 372.976 293.554 353.677 290.785 329.861ZM249.618 331.298C253.679 328.013 255.894 323.907 257.925 319.801C258.848 317.748 259.771 315.9 261.248 314.053C274.539 298.655 284.139 280.382 293.554 262.11C299.461 250.613 304.261 238.5 312.937 228.85C314.783 226.797 317.737 224.539 317.552 220.638C308.322 219.406 308.322 219.406 306.476 226.797C302.23 222.28 295.953 220.843 291.892 216.327C289.123 217.148 287.646 218.996 286.169 220.843C276.385 232.546 267.524 245.07 258.11 257.183C251.464 265.806 247.033 274.839 245.926 286.131C244.449 301.324 247.033 316.311 249.618 331.298ZM363.334 13.8943C362.78 13.4837 362.042 13.2784 361.488 12.8678C360.196 21.9013 352.996 24.9809 348.012 30.7295C341.92 29.7029 339.52 20.0535 332.321 22.7225C330.844 17.5899 329.736 13.2784 328.259 7.94044C325.49 11.02 321.983 10.6094 320.137 13.8943C320.137 17.3846 322.721 21.0801 319.583 24.9809C312.014 18.2058 310.353 29.2923 304.63 30.3189C313.122 37.9152 313.122 37.9152 308.507 48.3858C304.076 42.8426 304.076 42.8426 297.43 51.6707C293.738 51.2601 290.046 50.6442 286.169 50.0283C283.585 54.3397 285.431 57.4193 288.569 59.4724C294.107 62.9626 300.015 56.8034 305.738 60.2936C307.399 61.3201 308.691 60.2936 309.614 58.8565C310.722 56.8034 312.568 56.8034 314.414 57.0087C319.398 57.6246 324.752 55.3663 329.552 58.8565C337.859 45.7169 353.181 45.9222 362.411 35.2462C370.165 37.5046 373.118 29.9082 378.472 26.6233C374.595 17.7952 367.949 25.5968 363.519 22.5172C363.703 19.6429 363.519 16.7686 363.334 13.8943ZM341.551 151.655C339.151 150.834 336.197 153.298 334.167 150.013C332.874 147.138 335.09 145.496 336.197 143.032C332.69 142.211 327.336 141.39 327.521 145.496C328.075 154.529 322.167 147.96 319.952 150.218C319.214 155.556 316.998 160.278 315.522 165C318.106 169.311 322.537 168.285 325.859 171.364C320.875 175.06 315.891 178.14 312.383 183.478C309.06 188.61 301.492 191.895 301.492 197.849C301.492 205.24 293.369 206.883 294.477 213.863C297.246 215.505 299.83 217.148 302.968 217.353C305.184 214.889 308.507 213.452 308.876 209.757C313.306 210.578 316.445 212.426 320.875 211.399C325.859 210.373 326.413 202.982 331.767 204.008C334.905 196.412 340.443 190.253 341.551 183.067C340.812 179.371 336.382 182.656 337.674 178.14C345.612 179.371 348.935 178.14 347.458 174.444C345.981 174.239 344.504 174.033 342.658 173.828C342.474 166.232 342.843 158.841 341.551 151.655ZM240.388 283.257C241.495 283.051 241.864 282.025 241.864 280.998C243.157 271.349 247.033 263.342 253.31 256.361C260.325 248.354 266.232 239.321 272.693 230.493C273.063 230.082 272.878 229.261 273.063 228.44C272.509 225.565 270.109 223.307 270.293 219.406C272.509 217.764 275.093 215.916 276.755 213.042C278.047 210.989 279.708 208.73 278.785 206.677C276.201 200.723 277.493 193.538 274.17 187.584C268.632 192.1 264.202 196.823 263.463 204.419C263.094 207.498 260.694 208.73 259.033 210.373C253.494 216.121 247.772 221.665 244.08 228.029C243.895 232.135 246.849 232.341 248.326 234.394C244.633 236.447 243.895 230.903 240.941 231.519C229.865 246.507 229.496 269.09 240.388 283.257ZM239.834 352.65C228.019 359.631 220.819 369.28 219.158 384.267C217.312 399.871 216.02 415.474 215.466 431.077C214.912 451.608 216.943 471.728 220.819 493.285C223.219 487.331 222.481 482.609 222.296 478.093C221.927 468.443 223.219 458.999 225.435 449.76C227.096 443.19 229.496 436.826 230.973 430.256C235.772 408.699 237.434 386.526 240.572 364.558C241.126 360.657 241.68 356.551 239.834 352.65ZM206.051 398.228C210.851 372.976 215.281 347.723 215.281 321.649C215.281 305.635 209.189 291.674 206.236 274.839C198.667 285.31 194.975 294.343 195.344 306.046C195.713 320.622 197.375 335.199 197.928 349.776C198.667 366.406 203.282 382.009 206.051 398.228ZM228.573 268.885C226.911 272.17 227.096 274.634 227.096 276.892C227.096 293.522 226.727 310.152 223.773 326.782C222.112 335.404 221.558 344.643 224.696 353.471C238.357 349.16 242.972 341.769 241.495 327.603C240.941 321.444 240.757 315.49 240.203 309.33C239.464 295.164 235.772 282.025 228.573 268.885ZM253.864 130.508C256.264 117.779 265.309 110.183 272.878 102.176C272.139 98.6859 269.001 101.355 267.155 98.686C265.494 94.9904 266.601 88.6259 259.956 87.1888C257.371 89.2418 253.679 89.8578 251.095 93.1427C250.725 91.9108 250.541 90.8843 250.356 89.6525C244.449 92.1161 239.464 95.401 238.726 103.819C241.864 106.282 240.941 111.826 245.372 115.932C245.926 116.342 248.326 111.826 249.987 116.753C245.003 122.912 248.326 130.098 250.541 136.873C251.833 140.568 252.018 146.317 257.556 146.112C260.879 146.112 262.725 141.184 262.725 133.588C262.725 132.972 262.171 132.356 261.986 131.74C259.586 129.482 256.633 133.793 253.864 130.508ZM273.063 11.2254C264.94 13.0731 265.494 23.1331 259.771 26.2127C259.586 28.8817 262.355 29.9082 261.432 31.5507C258.663 38.5311 255.34 32.9878 252.941 32.3719C249.618 35.2462 254.787 37.7099 252.202 40.1736C251.279 42.0213 248.326 38.7364 247.956 43.0479C249.618 44.6903 251.464 46.5381 253.679 49.0018C255.71 47.154 257.925 44.8956 261.063 47.5646C263.278 55.3663 252.941 56.3928 254.233 64.1944C255.34 66.6581 256.817 69.5324 259.586 70.5589C259.586 73.0226 257.002 73.8439 258.663 76.1022C269.555 75.8969 277.862 70.7643 283.585 59.2671C279.154 59.2671 275.832 56.8034 272.509 54.7503C266.971 51.0548 265.309 44.2797 264.755 38.9417C264.202 33.1931 269.555 29.4976 275.093 28.2658C275.278 28.2658 275.462 27.8552 275.832 27.4446C277.124 21.4907 276.939 16.358 273.063 11.2254ZM219.712 239.732C217.127 241.374 214.543 242.811 212.881 243.838C209.005 263.958 212.512 281.819 220.266 299.681C222.112 297.833 222.112 296.396 222.112 295.164C221.742 283.872 222.112 272.786 223.589 261.494C225.065 251.023 225.065 240.142 225.619 229.466C225.804 225.771 226.542 221.87 223.035 219.406C216.02 231.314 215.281 235.831 219.712 239.732ZM215.651 178.756C212.512 189.431 211.035 200.518 205.866 210.373C203.651 214.479 204.943 219.817 210.112 220.433C213.435 220.843 213.435 224.949 216.389 225.565C218.235 221.049 219.343 216.737 221.742 213.452C225.25 208.73 226.358 203.803 224.881 198.054C223.773 193.332 222.85 188.61 221.927 183.888C221.189 180.603 219.896 178.756 215.651 178.756ZM203.097 -37.4323C193.313 -50.3666 190.36 -50.1613 182.975 -37.4323C181.314 -38.0482 181.683 -41.5384 178.73 -40.9225C177.437 -36.6111 174.115 -35.9952 170.238 -36.2005C168.392 -31.6837 167.284 -27.3723 169.315 -23.0608C174.668 -22.0343 173.191 -28.8094 176.514 -29.6307C177.807 -27.167 177.622 -24.0874 180.576 -22.2396C185.191 -29.0147 191.467 -23.8821 197.375 -24.2927C201.067 -27.9882 200.882 -33.3262 203.097 -37.4323ZM114.303 177.729C109.872 166.437 100.088 164.589 92.5193 156.788C93.0731 163.563 88.458 165.411 86.0581 169.927C87.9042 170.543 88.6426 172.802 90.6732 172.391C91.227 171.364 91.5963 170.543 92.3347 169.311C93.6269 174.033 93.6269 177.729 91.4117 182.04C89.5656 185.531 83.8429 188.2 88.0888 194.564C97.1344 190.253 106.18 185.531 114.303 177.729ZM196.821 31.9613C200.144 19.6429 206.605 9.7882 202.544 -2.9408C199.036 -1.70896 195.713 -4.17265 192.76 -1.29836C192.021 -0.477127 190.729 0.344109 189.806 0.344109C187.221 0.344109 183.899 2.39717 182.975 4.45024C182.237 6.298 181.129 7.94044 179.468 10.8147C184.268 9.17229 182.422 14.5103 184.452 14.9209C187.406 14.7156 189.806 14.5103 191.837 14.305C196.082 19.027 192.575 25.3915 196.821 31.9613ZM1.87844 10.4041C-2.18286 9.17229 -5.32114 5.68208 -9.75165 7.52984C-9.19783 12.8678 -12.8899 15.7421 -15.1052 19.8482C-18.7973 17.1792 -22.1202 16.7686 -21.7509 22.9278C-21.5663 26.8287 -23.597 30.9348 -19.9049 35.6568C-15.1052 29.2923 -8.2748 26.418 -2.18285 22.3119C0.586212 20.4641 3.9091 20.0535 6.67816 17.5899C9.81644 14.7156 8.89342 11.0201 9.44723 7.52984C6.86276 7.11922 6.49355 3.62901 4.0937 3.01309C1.87844 4.86085 3.35528 7.73514 1.87844 10.4041ZM371.457 180.398C371.826 180.398 372.195 180.603 372.749 180.603C373.118 178.755 373.118 175.471 374.041 175.06C382.533 171.159 389.548 163.563 399.517 164.384C404.132 164.795 404.686 163.358 403.024 156.172C399.886 157.609 396.932 157.609 393.609 155.966C390.286 154.119 387.148 154.735 383.641 157.609C378.656 161.715 375.518 167.464 370.349 171.159C370.718 174.444 371.088 177.318 371.457 180.398ZM397.671 194.154C392.502 197.644 388.625 195.796 385.117 197.233C381.056 198.876 379.026 201.955 381.241 207.704C378.103 207.498 375.333 206.883 373.487 208.525C371.457 210.167 368.503 208.525 366.842 211.81C368.688 212.836 366.103 214.889 367.58 216.121C371.826 215.505 373.857 215.916 376.626 218.38C383.825 211.81 394.717 209.552 397.671 194.154ZM297.246 194.975C292.077 194.975 287.646 196.412 283.031 194.154C283.954 189.021 288.754 185.12 285.985 179.577C283.216 179.577 280.447 180.603 280.262 183.067C279.154 193.743 279.893 204.214 283.031 214.479C290.046 212.426 287.092 204.214 291.708 200.723C297.615 205.24 297.061 200.107 297.246 194.975ZM355.027 61.5255C353.735 60.9095 352.812 61.9361 351.704 62.7573C350.781 63.5785 349.673 64.3997 348.197 63.5785C347.643 62.3467 347.274 60.9095 346.72 59.2671C340.997 62.7573 340.997 62.7573 340.997 75.4863C344.504 80.0031 350.966 71.7908 353.366 79.7977C361.303 72.8173 361.303 72.4067 355.027 61.5255ZM236.326 104.024C226.727 114.084 227.096 126.402 223.219 138.515C227.281 136.052 227.834 131.535 232.634 132.562C236.142 133.177 239.649 126.608 238.541 121.886C237.434 116.548 237.434 111.21 236.326 104.024ZM10.9241 84.1092C10.9241 88.6259 14.2469 88.01 16.6468 88.6259C17.3852 88.8312 17.3852 89.6525 17.016 90.2684C15.9084 91.9108 13.3239 90.4737 12.4009 93.9639C18.8621 94.9904 25.3232 95.6063 30.4921 100.534C33.0766 97.8647 34.1842 94.5798 38.4301 92.7321C33.815 91.7055 34.5534 86.5729 31.4152 85.5463C28.4615 84.7251 27.7231 89.0365 24.954 88.6259C19.7851 79.7977 18.8621 79.3871 10.9241 84.1092ZM231.711 204.624C238.357 198.876 237.434 192.306 235.219 185.941C238.911 179.782 243.526 174.444 243.341 166.642C240.757 162.947 237.065 161.715 233.557 163.973C230.603 165.821 231.157 168.901 233.742 171.364C233.926 171.57 233.003 172.391 233.003 173.212C231.896 182.656 234.111 192.511 230.419 201.545C230.234 201.955 230.973 202.982 231.711 204.624ZM350.227 256.977C344.135 259.441 341.92 262.315 338.043 272.581C336.751 276.071 335.828 279.561 338.782 282.846C350.227 279.972 353.55 272.375 350.227 256.977ZM229.311 -11.3584C220.266 -9.71592 212.328 -7.04694 207.528 1.16533C210.112 7.11922 216.02 3.42371 218.789 10.6094C219.527 4.24493 221.742 1.57594 225.619 -0.27182C228.573 -1.70897 231.896 -5.19917 229.311 -11.3584Z" fill="#161654"/>
</g>
<defs>
<clipPath id="clip0">
<rect width="633" height="901" fill="white" transform="translate(-54 0.0333252)"/>
</clipPath>
</defs>
</svg>
