<svg width="348" height="288" viewBox="0 0 348 288" fill="none" xmlns="http://www.w3.org/2000/svg">
<path d="M5.38477 243.155C5.55307 243.071 5.72135 242.987 5.9738 242.903C5.8055 242.987 5.55307 243.155 5.38477 243.155Z" fill="#1A5071"/>
<path d="M253.27 219.726C253.522 219.557 253.774 219.473 254.111 219.305C253.942 219.557 253.606 219.726 253.27 219.726Z" fill="#1A5071"/>
<path d="M131.68 37.3245C131.344 36.9046 131.176 36.4847 131.092 35.8969C131.344 36.3168 131.596 36.8207 131.848 37.2406C131.764 37.3245 131.764 37.3245 131.68 37.3245Z" fill="#1A5071"/>
<path d="M-195.358 279.854C-198.13 277.25 -198.887 275.067 -203.676 275.99C-207.206 276.662 -208.13 272.715 -210.062 270.616C-208.214 269.692 -207.122 270.196 -205.945 271.288C-201.408 275.655 -197.794 269.356 -193.593 270.28C-193.593 269.104 -193.593 268.013 -193.593 266.837C-193.593 266.165 -193.593 265.493 -193.593 264.821V264.318C-193.005 263.814 -192.501 263.31 -191.912 262.806C-189.644 262.47 -187.375 262.134 -184.77 261.798C-186.535 258.859 -188.047 256.256 -189.644 253.652C-189.728 253.148 -189.728 252.645 -189.812 252.141C-188.215 251.217 -187.543 247.858 -185.358 249.537C-183.678 250.881 -179.98 251.469 -180.821 254.996C-181.325 257.179 -180.569 259.531 -180.653 261.882C-180.737 264.066 -180.148 265.997 -177.46 265.913C-174.266 265.745 -174.855 263.646 -175.527 261.714C-175.779 260.958 -175.443 259.951 -175.359 258.775C-175.275 258.691 -175.191 258.691 -175.107 258.607C-173.762 259.195 -172.502 259.531 -171.746 260.203C-168.637 262.974 -167.376 262.05 -166.788 258.607C-166.452 256.676 -166.452 253.988 -162.671 254.996C-162.334 255.08 -161.662 254.828 -161.662 254.66C-160.906 250.797 -160.57 247.018 -157.797 243.491C-154.94 239.712 -156.789 236.353 -161.242 233.666C-161.578 233.414 -161.83 233.246 -161.998 232.91C-162.166 232.406 -162.25 231.902 -162.25 231.398C-161.998 230.222 -160.906 228.963 -159.73 228.375C-157.797 227.367 -156.705 222.832 -153.259 226.443C-151.327 228.459 -150.571 226.863 -150.15 225.856C-149.058 223.336 -147.798 222.664 -144.521 223C-141.58 223.336 -137.798 222.832 -136.958 218.297C-136.454 215.694 -131.58 216.786 -129.227 215.106C-129.311 214.77 -129.395 214.183 -129.563 214.183C-137.462 211.999 -138.807 209.732 -135.277 202.594C-133.177 198.395 -134.017 194.952 -136.622 191.005C-139.227 192.516 -139.731 195.959 -143.176 196.043C-145.361 196.799 -148.302 195.875 -149.646 198.395C-151.915 198.059 -154.52 199.402 -156.368 197.303C-156.368 196.715 -156.537 196.127 -156.284 195.623C-155.612 194.448 -151.831 195.623 -153.175 193.524C-154.184 191.928 -156.621 193.02 -157.377 195.12C-159.057 194.448 -159.73 196.883 -161.158 196.295C-162.503 195.791 -164.435 196.631 -164.855 193.776C-165.36 189.997 -162.671 191.844 -161.326 191.34C-159.73 193.02 -157.965 192.936 -156.2 191.592C-149.562 191.089 -146.285 185.294 -140.319 183.447C-137.042 182.439 -141.495 181.683 -141.327 180.507C-141.327 180.171 -141.411 179.919 -141.496 179.668C-141.496 177.484 -137.882 176.392 -139.227 173.033C-142.42 165.055 -148.974 169.842 -154.772 167.827C-152.755 174.041 -144.521 173.789 -142 178.324C-142 178.66 -142 179.08 -142 179.5C-141.916 179.248 -141.916 178.912 -141.832 178.66C-141.664 178.996 -141.58 179.332 -141.496 179.668C-141.496 179.919 -141.495 180.171 -141.327 180.507C-141.327 180.507 -141.327 180.507 -141.327 180.591C-141.664 180.759 -142 180.927 -142.252 181.095C-142.168 180.759 -142.084 180.423 -142.084 180.003C-142.336 180.507 -142.672 180.927 -142.924 181.347C-147.041 182.775 -149.142 179.667 -151.579 176.98C-153.091 175.301 -154.94 173.789 -156.2 171.354C-158.469 173.957 -156.957 176.476 -157.545 178.744C-159.814 179.751 -160.738 182.607 -163.847 182.271C-164.267 180.759 -162.671 179.919 -162.419 178.576C-162.082 176.308 -161.998 174.629 -165.612 176.14C-167.46 176.896 -169.813 176.98 -172.25 175.133C-170.821 173.453 -169.645 171.354 -167.796 170.094C-165.528 168.582 -165.191 166.819 -166.788 165.391C-171.241 161.36 -166.788 161.276 -164.267 160.856C-160.486 160.185 -156.705 160.688 -152.923 161.78C-149.898 162.704 -146.621 163.124 -145.613 159.093C-145.277 159.009 -144.857 158.841 -144.521 158.673C-141.832 162.536 -139.899 161.444 -138.47 157.329C-138.134 156.406 -137.798 155.482 -137.294 154.642C-132.925 147.672 -132.925 147.672 -139.899 144.313C-140.403 144.061 -140.907 143.725 -141.748 143.221C-141.748 143.137 -141.748 143.053 -141.748 142.885C-139.563 141.961 -137.966 141.289 -135.866 140.366C-137.378 139.442 -138.555 138.602 -139.983 137.762C-137.042 134.823 -133.093 136.755 -129.732 135.831C-129.227 133.479 -131.16 132.052 -132.168 130.288C-133.513 127.853 -130.908 127.349 -129.984 126.173C-128.135 123.822 -127.379 126.341 -126.202 126.929C-125.698 127.349 -125.194 127.517 -124.606 127.517C-122.337 128.693 -122.421 130.456 -123.934 133.06C-126.707 137.426 -125.278 139.778 -119.648 139.358C-117.8 137.846 -124.942 134.151 -117.716 134.235C-116.203 139.106 -112.254 135.999 -109.565 135.999C-107.128 135.999 -105.279 136.251 -106.204 138.35C-108.22 143.137 -104.019 144.145 -101.162 145.992C-99.7335 146.916 -97.7168 146.916 -97.9689 149.519C-98.221 152.459 -97.8009 152.375 -93.6835 153.298C-93.0112 153.466 -92.5071 154.642 -92.255 155.482C-91.5828 157.497 -90.9946 159.513 -90.4064 161.528C-90.7425 162.284 -91.0786 163.04 -91.4147 163.796C-93.5994 158.673 -99.9016 157.833 -103.683 154.306C-105.363 152.71 -107.632 154.558 -107.128 157.077C-106.456 160.101 -107.548 162.116 -110.321 163.964C-112.758 165.643 -113.514 168.33 -111.497 170.514C-109.397 172.781 -106.96 170.514 -105.784 169.422C-100.91 165.307 -95.5321 168.582 -90.4904 167.911C-88.4737 168.918 -89.4821 166.231 -88.2216 166.315C-87.1293 168.162 -86.205 170.094 -85.0286 171.941C-84.1883 173.117 -83.6001 175.049 -81.3313 174.293C-79.5667 173.705 -78.1383 172.025 -78.6424 170.766C-79.8188 167.659 -78.8105 164.719 -75.9535 164.215C-72.6764 163.628 -69.0632 165.223 -67.9709 169.002C-67.8868 169.254 -67.2986 169.338 -66.8785 169.506C-65.8701 168.498 -66.0382 167.155 -66.7104 166.315C-70.2396 162.2 -66.6264 160.772 -63.5174 159.093C-59.8201 157.077 -57.5513 157.917 -56.7111 161.864C-56.627 162.368 -55.4507 162.704 -54.6944 163.04C-53.8541 163.46 -53.2659 162.788 -53.434 162.368C-55.8708 157.749 -51.2493 156.909 -48.6444 156.49C-46.2076 156.154 -43.2666 158.505 -42.3423 160.52C-40.4096 164.971 -36.5443 168.414 -35.1999 173.117C-34.1915 176.644 -30.5783 177.232 -27.5533 174.545C-26.9651 174.041 -26.2088 173.033 -25.7887 173.117C-20.0748 174.545 -15.2852 173.369 -10.8317 169.758C-9.40321 168.582 -8.89905 171.186 -8.81503 171.69C-8.14281 176.14 -3.94138 176.98 -0.580246 178.828C0.175995 179.5 0.764206 180.255 1.60449 180.675C2.52881 181.095 3.20103 182.691 4.54549 181.431C4.96562 181.095 5.21771 180.423 5.30174 179.919C5.55383 178.408 4.46144 178.072 3.11699 177.988C2.2767 177.904 1.52045 177.82 0.680176 177.652C-0.244141 175.469 -2.17679 173.537 -0.580246 170.934C1.18434 168.078 3.62117 171.522 5.55382 170.262C6.31007 160.604 3.20102 157.833 -7.72264 159.345C-11.2518 159.849 -11.3359 157.161 -12.5123 155.734C-14.4449 153.298 -13.6886 150.275 -12.0081 148.176C-10.3275 146.076 -8.39487 148.512 -6.63028 149.351C-5.53792 149.855 -4.44556 150.359 -3.26917 150.947C-2.00873 151.199 -0.664276 153.466 0.26004 151.955C1.43643 149.855 -2.09277 150.107 -2.84901 148.764C-0.328171 145.068 1.9406 141.121 8.07465 142.801C10.4274 143.473 11.0156 142.633 10.9316 140.534C10.8476 138.434 11.1837 135.999 14.2087 135.663C17.1497 135.411 19.4185 136.503 20.6789 139.358C21.2671 140.87 22.1074 142.549 24.7122 143.809C24.7963 139.862 26.6449 136.839 30.1741 134.907C31.6026 134.151 34.8797 134.655 34.2915 132.724C33.4512 129.7 30.8463 133.983 29.1657 132.472C29.838 129.616 31.0984 127.265 26.0567 125.67C21.099 124.074 22.4435 117.944 19.2504 114.5C18.3261 113.493 19.9227 111.561 16.1414 112.317C10.7636 113.409 5.97395 105.347 8.83092 100.896C9.92328 99.1324 11.4358 98.0407 13.9566 99.5523C16.2254 100.896 17.4858 102.743 18.8303 105.095C20.7629 102.576 22.5275 100.308 24.2921 97.9567C25.3005 96.6131 25.4685 94.5136 28.3254 95.1854C30.8463 95.7733 32.5269 97.0329 32.7789 99.4683C32.947 100.812 32.947 102.156 33.031 103.583C34.9637 103.331 36.7283 103.079 38.4929 102.827C40.5096 102.576 42.6102 101.736 42.8623 99.9722C43.1144 98.1246 40.5936 97.8727 39.081 97.5368C36.8123 97.033 36.3081 96.2771 37.4845 94.4296C38.5769 92.834 39.3331 91.0705 40.3415 89.223C38.7449 88.887 36.2241 89.3069 35.0477 88.5511C34.8797 88.0473 34.6276 87.5434 34.3755 87.0395C34.3755 86.9556 34.3755 86.7876 34.4595 86.7036C34.9637 84.4362 33.3671 80.1533 38.4088 79.5655C42.9464 78.9776 43.0304 73.3511 48.1561 73.0152C49.6686 72.9312 51.4332 71.9234 53.0298 70.5798C54.7943 70.1599 55.6346 69.2361 55.7186 67.6405C56.727 66.2129 57.3992 64.7013 57.6513 63.3577C58.0714 60.5024 61.7686 61.1743 63.0291 58.235C64.6256 54.7919 66.5583 59.6627 68.4909 60.7544C70.0875 61.5942 71.684 63.6936 73.3646 62.3499C75.2132 60.9223 73.7847 58.235 72.4402 57.3112C67.1465 53.7842 69.8354 50.677 72.6083 47.4858C74.9611 46.646 73.4486 44.0427 75.1292 42.951C75.5493 43.7068 76.0535 44.5466 76.4736 45.3024C78.5743 46.646 81.1792 46.3101 83.2799 46.2261C85.1285 46.1421 84.1201 44.7985 82.9438 44.2946C80.843 43.2029 77.9021 42.5311 81.2632 39.6758C84.3723 36.9885 84.7924 32.2857 90.0862 31.0261C92.1869 30.5222 91.4306 27.583 91.0105 25.8194C89.7501 20.6967 91.5987 19.773 96.3883 22.3763C97.9848 18.6813 97.6487 16.3299 92.691 15.826C90.6744 15.5741 90.3382 12.9708 91.2625 12.047C92.7751 10.6194 95.0439 7.59614 96.9765 9.02377C102.102 12.8028 100.59 8.18402 101.514 6.58843C104.203 7.42821 103.531 10.2835 105.379 11.6271C111.513 6.84037 111.597 6.00054 106.388 2.13755C107.06 0.709916 109.413 2.05359 110.001 0.374023C110.841 0.374023 111.681 0.374023 112.606 0.374023C111.429 6.00056 113.95 7.59616 119.664 5.58068C122.857 4.48897 125.798 5.41273 129.159 6.42046C128.067 8.93981 126.806 11.4591 125.882 14.0625C125.714 14.4824 125.63 14.8183 125.462 15.1542C125.126 15.4061 124.706 15.5741 124.286 15.742C123.95 15.742 123.529 15.6581 122.941 15.4901C118.152 13.8945 115.883 16.9178 112.942 20.4448C118.572 21.1167 124.538 20.7807 124.202 27.7509C128.067 26.5752 130.84 23.2161 135.209 25.0636C135.209 27.331 131.68 27.415 131.176 30.1023C133.781 30.1023 136.386 30.1023 139.495 30.1023C139.747 30.2703 139.999 30.3543 140.167 30.5222C138.15 34.5532 135.209 36.1487 131.008 36.3167C129.832 36.7366 128.655 37.1565 127.479 37.4924C123.529 40.0957 125.126 43.9587 125.126 47.2339C125.126 51.1808 125.378 55.1278 123.95 58.9068C121.429 61.0903 119.412 63.5256 117.815 67.9765C121.429 65.0372 123.95 63.1897 125.462 60.4184C131.26 61.5941 136.05 65.6251 142.352 65.2892C144.536 65.2052 146.973 66.213 146.385 62.266C145.797 58.5709 151.091 58.319 153.107 55.7996C154.62 53.9521 156.805 56.3875 158.065 57.7311C161.342 61.1742 163.023 58.0671 163.695 56.2195C164.451 54.372 165.039 52.7764 167.224 53.1123C169.241 53.4482 169.661 55.3797 170.249 57.1433C171.846 61.7621 168.568 66.045 168.821 70.5798C172.014 70.7477 171.173 65.6251 174.955 67.5566C178.232 69.3201 178.064 71.4196 177.139 74.6947C176.299 77.634 176.215 79.8174 172.77 81.245C171.594 81.6649 168.821 84.6042 173.862 84.3522C176.383 84.2683 176.467 86.0318 176.551 87.5434C176.887 91.4064 179.492 93.8418 182.601 95.9412C187.139 99.0484 191.34 97.5368 192.601 92.4141C194.365 85.276 194.701 85.024 200.835 88.3832C204.785 90.5666 200.247 93.5898 201.255 96.1092C200.835 96.781 200.247 97.3688 199.995 98.0407C199.491 99.5523 197.138 101.4 199.155 102.492C202.348 104.171 199.827 99.1324 202.6 99.5523C203.944 99.8882 204.701 100.896 205.289 101.988C205.625 103.247 204.617 105.599 207.053 105.347C208.482 105.263 207.726 103.163 207.642 101.904C207.81 101.568 207.978 101.232 208.23 100.896C212.347 104.423 217.809 100.14 221.842 102.576C224.783 104.423 224.363 100.056 226.38 100.98C232.346 108.118 230.749 115.676 228.313 123.402C228.144 123.402 228.06 123.318 227.892 123.318C226.464 122.142 227.472 120.211 226.38 118.699C224.699 121.051 221.674 122.394 221.338 125.586C221.17 127.181 219.826 128.945 222.515 129.868C225.287 130.876 225.792 129.113 226.212 127.349C226.464 126.341 227.136 125.67 228.229 125.334C228.313 126.257 228.481 127.265 228.565 128.189C229.741 130.54 232.01 129.365 233.942 129.617C232.766 131.212 232.094 133.563 230.497 134.319C223.523 137.762 223.355 144.229 220.414 150.359C228.985 150.359 225.035 142.465 229.321 140.282C233.69 138.014 235.707 133.312 240.917 130.876C241.085 135.999 240.161 140.366 236.211 143.893C233.774 145.992 233.354 147.504 237.388 148.512C239.908 149.099 240.833 150.947 240.329 153.298C240.161 153.382 240.076 153.466 239.908 153.55C238.48 153.634 237.304 151.199 235.371 153.298C232.766 156.238 236.715 157.077 237.219 159.093C235.287 159.429 233.438 159.681 231.422 160.017C232.934 163.04 234.783 162.704 237.135 161.444C239.404 160.185 242.345 160.101 243.186 162.368C244.53 165.895 246.463 167.659 250.916 166.399C250.916 166.399 250.916 166.399 251 166.399C250.16 169.674 243.606 168.246 246.295 172.697C243.522 173.117 240.329 174.461 238.48 171.606C237.135 169.59 237.472 166.231 233.27 169.59C232.094 170.514 229.321 166.987 226.716 167.659C224.783 170.514 231.254 169.758 228.985 172.361C226.884 174.881 224.111 173.705 221.338 173.117C217.893 172.277 214.112 173.705 210.835 171.522C209.742 170.766 208.734 171.606 208.482 172.613C207.894 175.217 204.869 178.996 206.549 179.919C210.246 181.935 210.246 183.614 208.566 186.47C207.642 187.981 211.843 188.905 209.49 190.837C208.062 190.921 206.801 191.257 205.961 192.6C207.642 193.44 209.154 192.936 210.751 192.768C212.851 193.272 214.952 193.44 217.053 192.768C218.733 193.356 220.75 195.791 222.178 193.02C223.775 189.997 218.901 191.424 218.397 189.493C217.641 186.89 219.069 185.462 221.674 184.79C222.935 184.454 223.943 184.202 224.699 183.027C227.22 179.416 230.077 179.751 232.514 183.698C233.942 186.05 236.295 183.195 238.312 184.706C234.783 187.645 231.842 190.837 234.615 195.203C234.447 195.539 234.194 195.791 234.026 196.043C231.001 197.135 227.388 193.02 225.203 196.295C223.943 198.143 219.238 198.395 221.926 202.594C227.976 197.639 235.707 201.334 242.513 199.15C245.454 198.227 244.614 200.83 245.37 201.838C246.715 203.433 245.958 204.189 243.942 204.273C240.581 204.441 240.917 206.541 241.673 208.472C242.597 210.823 244.53 210.152 246.379 209.396C247.723 208.808 249.068 208.136 250.496 207.968C252.681 207.716 255.622 207.128 254.445 210.907C254.025 212.419 254.445 213.931 255.79 215.19C258.059 217.374 256.294 218.549 254.277 219.557C250.664 220.565 247.807 216.702 244.11 218.381C242.765 218.297 241.169 219.053 241.589 219.977C242.177 221.153 244.026 220.649 245.37 220.397C247.051 220.817 248.731 221.237 250.412 221.657C251.672 223 250.244 223.672 249.404 224.344C246.211 226.947 241.841 229.467 249.488 231.986C251.336 232.574 249.488 234.925 250.916 236.017C251.42 235.681 252.429 235.429 252.429 235.093C252.597 229.047 259.655 227.031 261.84 222.16C262.848 219.809 264.109 217.794 267.134 220.481C266.629 222.16 263.436 220.817 263.352 223.084C264.781 224.932 267.722 225.436 268.058 228.711C268.226 230.81 273.352 230.222 277.469 227.619C278.309 227.619 279.15 227.535 279.99 227.535C280.326 229.131 280.158 230.978 282.091 231.146C284.947 231.314 287.132 229.383 289.149 227.619C292.426 224.764 290.998 220.565 292.846 217.206C293.939 215.274 290.661 214.938 288.981 214.351C287.468 213.763 284.948 213.091 287.048 211.411C290.325 208.892 289.989 205.785 290.325 202.594C290.661 198.731 292.342 195.371 297.888 196.043C299.232 196.211 300.577 196.715 300.325 194.868C300.241 193.776 301.333 191.928 298.728 191.844C298.308 191.844 297.636 192.096 297.468 191.928C295.955 190.249 291.838 191.844 291.754 189.493C291.67 186.134 295.199 188.401 297.048 187.813C298.56 187.31 299.652 185.798 301.669 186.134C301.837 186.806 302.005 188.065 302.173 188.065C303.518 188.065 302.93 187.058 303.014 186.47C303.098 185.546 303.014 184.622 302.93 183.614C304.946 184.118 306.963 184.79 309.064 184.958C314.525 185.546 315.282 188.821 313.601 192.264C312.341 194.868 313.013 195.707 315.114 197.219C317.55 199.066 319.903 201.754 322.004 203.013C328.726 206.96 320.575 209.732 322.004 212.839C320.828 212.671 319.567 212.587 318.391 212.419C318.139 211.075 319.399 208.136 315.954 210.236C314.021 211.411 311.921 212.923 312.005 215.694C314.357 216.114 316.122 213.763 318.391 214.854C320.407 218.801 318.139 222.245 316.626 226.107C317.718 226.611 320.66 225.52 321.92 225.856C322.088 226.023 322.256 226.107 322.424 226.275C322.592 226.779 322.172 227.787 320.575 229.802C323.768 230.642 326.373 229.215 329.482 229.131C328.642 232.49 323.264 235.177 326.625 238.704C328.474 240.552 330.827 243.323 334.86 242.567C334.188 245.171 331.919 246.43 329.819 247.522C325.953 249.537 321.752 247.942 320.744 244.163C319.987 241.308 319.651 240.888 316.29 237.612C315.282 239.964 314.946 242.399 310.66 244.499C315.702 244.835 318.055 244.919 319.063 248.614C320.575 254.408 322.676 254.492 329.23 250.629C330.491 253.652 328.054 257.515 331.835 259.867C334.104 257.431 328.558 254.156 332.591 252.812C335.196 251.973 336.793 255.5 338.978 256.844C340.238 257.599 342.087 258.271 343.179 259.279C343.515 260.035 343.767 260.79 344.103 261.63C343.935 262.386 343.263 263.394 342.003 264.485C341.751 264.737 343.095 269.272 347.128 269.104C347.296 269.356 347.464 269.524 347.633 269.776C341.078 278.594 340.238 278.846 335.028 275.151C332.255 282.625 332.339 282.541 339.818 284.976C342.507 285.816 345.616 285.48 347.801 287.496C166.552 287.496 -14.781 287.496 -196.03 287.496C-198.803 284.808 -191.156 283.717 -195.358 279.854ZM-158.385 165.895C-159.394 166.483 -160.486 167.155 -161.662 167.911C-161.074 168.414 -160.57 169.17 -159.898 169.338C-158.217 169.758 -157.209 168.666 -156.705 167.491C-156.453 166.735 -157.209 166.147 -158.385 165.895ZM224.195 137.007C224.699 134.991 225.119 133.228 223.691 131.128C221.086 133.647 221.758 135.243 224.195 137.007ZM221.338 160.017C223.607 160.94 226.044 160.94 228.481 160.353C231.085 159.765 230.077 158.253 229.657 156.909C227.052 155.23 224.531 154.474 222.094 157.077C221.842 158.085 221.086 159.933 221.338 160.017ZM321.08 259.111C322.592 259.195 323.432 258.523 323.601 257.179C323.853 255.164 322.256 254.408 320.575 254.156C318.307 253.736 318.307 255.416 318.223 256.76C317.971 258.523 319.567 258.775 321.08 259.111ZM311.752 260.706C312.509 260.539 313.601 260.203 313.853 259.699C314.609 258.187 311.584 258.187 312.089 256.675C312.929 255.332 316.71 253.904 311.921 252.729C309.484 254.66 311.164 257.347 310.24 259.531C309.904 260.371 310.744 260.874 311.752 260.706ZM306.963 197.471C307.047 197.639 307.383 198.227 307.803 198.227C308.896 198.311 309.232 197.471 309.148 196.715C309.148 196.043 309.064 195.035 307.803 195.287C306.711 195.539 306.879 196.379 306.963 197.471ZM296.123 203.013C297.132 204.861 296.627 207.38 296.796 209.816C303.098 208.136 298.476 203.433 300.157 200.578C301.333 200.662 302.846 200.326 302.425 199.318C301.669 197.639 300.157 198.227 298.98 199.234C296.795 199.738 294.275 199.654 296.123 203.013ZM279.402 238.956C280.914 240.72 281.67 239.712 282.511 238.452C283.855 236.185 287.384 235.429 287.72 231.146C284.359 232.994 281.923 234.337 279.402 235.765C277.637 236.773 278.477 237.864 279.402 238.956ZM254.613 237.864C256.378 240.3 259.571 239.544 264.109 240.804C261.168 237.696 262.428 233.414 257.47 234.085C254.949 234.421 254.361 237.445 254.613 237.864ZM249.068 242.147C249.74 242.147 251 241.979 251.084 241.559C251.42 240.552 250.58 239.796 249.572 239.544C248.983 239.46 248.311 240.048 247.723 240.3C247.807 241.391 248.143 242.063 249.068 242.147ZM231.253 204.525C228.228 203.685 227.388 205.869 224.447 207.548C228.649 207.632 230.245 206.876 231.253 204.525ZM205.793 170.514C205.793 170.514 206.129 170.598 206.213 170.514C206.381 170.43 206.549 170.262 206.633 170.094C208.482 168.918 209.49 167.239 209.154 165.391C208.986 164.383 207.474 164.887 206.465 165.223C204.617 166.819 205.373 168.666 205.793 170.514ZM173.274 95.6053C177.728 94.1777 173.61 91.5743 174.366 89.4749C175.207 87.1235 172.518 87.8793 170.921 87.7953C166.552 87.5434 163.947 90.6506 160.418 91.9103C160.418 91.8263 160.418 91.8263 160.418 91.7423C160.334 91.7423 160.334 91.8263 160.25 91.8263C159.325 91.4064 159.409 89.3909 157.729 90.3147C156.889 90.8185 156.552 91.9942 157.477 92.7501C158.989 93.9258 159.409 92.4141 160.166 91.7423C160.25 91.7423 160.25 91.7423 160.334 91.8263C160.334 92.6661 160.25 93.5059 160.25 94.4296C164.871 92.834 168.737 97.1169 173.274 95.6053ZM147.561 140.114C149.158 141.793 149.074 145.32 151.511 145.32C154.284 145.32 154.284 141.961 155.292 139.946C157.813 135.075 160.418 140.618 163.611 139.61C165.375 134.655 158.737 131.8 160.082 126.677C154.452 129.868 153.191 136.335 146.553 138.098C146.637 138.434 146.889 139.442 147.561 140.114ZM110.673 22.1244C108.824 22.1244 108.488 23.552 107.816 24.6437C107.9 25.5675 108.068 26.3233 109.245 25.9874C110.421 25.6515 111.765 25.3156 111.681 23.804C111.765 23.1321 111.681 22.1244 110.673 22.1244ZM123.025 40.8515C120.672 41.6073 118.236 41.6913 119.076 44.3786C119.244 44.9665 120.42 45.7223 120.84 45.6383C123.697 44.8825 122.857 42.951 123.025 40.8515ZM118.824 57.3112C119.832 56.9753 121.765 57.2273 121.429 55.6317C121.093 54.0361 119.496 54.372 118.404 54.9599C115.883 56.4715 113.614 52.6924 111.093 54.7919C111.009 55.2118 110.925 55.6317 110.841 56.0516C109.917 58.151 106.052 57.6472 105.043 59.9146C109.497 63.9455 111.345 58.7389 114.286 57.8991C115.967 57.7311 117.479 57.7311 118.824 57.3112ZM119.496 131.968C119.58 133.06 119.58 134.487 121.345 134.067C122.941 133.647 122.857 131.968 122.941 130.708C123.025 129.7 122.857 128.861 121.093 129.113C119.244 129.281 119.412 130.708 119.496 131.968ZM121.429 80.4053C121.597 77.8859 123.95 76.4583 124.286 74.1909C124.538 71.9235 124.37 69.656 124.37 67.3886C121.765 70.5798 119.076 70.5798 115.211 67.9765C115.547 73.2671 116.471 77.634 111.177 81.0771C108.488 82.7566 110.085 87.5434 110.421 90.9865C120.588 89.3909 120.756 89.3909 121.429 80.4053ZM113.026 140.45C116.639 138.77 117.227 136.503 116.807 133.983C116.807 133.731 115.127 133.228 114.622 133.479C111.849 135.159 112.438 137.594 113.026 140.45ZM113.95 124.578C113.95 126.005 114.37 127.181 116.219 127.685C117.479 125.921 116.723 124.578 115.463 123.234C114.538 120.295 113.614 117.44 112.69 114.5C112.606 114.165 112.27 113.913 111.934 113.577C107.312 116.348 108.488 120.967 107.312 124.914C109.749 126.257 111.765 123.57 113.95 124.578ZM108.32 84.6882C104.875 86.8716 106.388 89.3069 107.144 91.5743C109.665 89.4749 109.077 87.2915 108.32 84.6882ZM106.304 115.844C102.858 116.684 104.119 118.699 103.699 120.967C106.472 119.371 106.388 117.776 106.304 115.844ZM90.8424 125.334C91.4306 125.082 92.0188 124.326 92.1028 123.738C92.2709 123.066 92.0188 122.226 90.8424 122.478C89.9181 122.646 89.582 123.318 89.582 124.242C89.7501 124.662 89.582 125.753 90.8424 125.334ZM79.1625 111.057C79.7507 114.332 81.1792 116.852 85.6327 116.432C86.1368 117.188 86.725 117.86 87.2292 118.615C86.473 116.348 89.2459 113.409 85.8007 111.897C84.2042 110.05 82.5237 108.202 79.7507 108.454C77.65 108.538 78.9944 110.134 79.1625 111.057ZM69.8354 131.128C70.3395 137.426 68.911 144.061 73.6166 151.199C75.2972 146.16 75.8014 143.137 73.7007 140.03C71.8521 137.342 73.1125 134.487 73.9528 131.716C74.4569 129.952 73.6166 128.525 71.6 128.273C69.1631 128.021 69.7513 130.036 69.8354 131.128ZM-30.1582 197.387C-35.9561 198.815 -33.9394 201.418 -32.0908 204.441C-27.3012 212.083 -23.688 202.929 -19.3185 204.357C-23.2679 202.006 -30.1582 204.273 -30.1582 197.387ZM-9.57127 199.57C-11.672 199.99 -11.84 201.334 -11.3359 203.433C-9.15112 202.846 -8.47891 201.502 -7.97475 200.074C-8.05876 199.99 -9.15112 199.402 -9.57127 199.57ZM-1.50456 202.51C-2.42888 204.357 -0.412201 208.556 1.68851 208.556C5.13365 208.64 3.53714 204.189 7.23438 202.258C3.11699 201.754 -0.16011 199.738 -1.50456 202.51ZM10.9316 178.072C9.92328 178.156 8.83092 178.492 8.66287 179.5C8.57884 180.255 9.25107 180.759 10.1754 180.843C11.4358 181.011 12.192 180.423 12.192 179.416C12.3601 178.828 12.108 177.904 10.9316 178.072ZM27.5692 190.333C27.4852 188.485 27.6532 186.554 27.3171 184.79C27.065 183.614 26.1407 183.363 25.3845 184.622C24.7963 184.622 23.7039 184.874 23.6199 184.706C22.1914 181.851 20.0067 179.5 16.4775 181.095C12.8643 182.691 16.4775 185.546 16.1414 187.729C15.7212 190.753 18.2421 191.089 20.0907 190.417C25.3845 188.317 26.2248 191.508 26.981 195.287C28.3255 193.356 27.8213 191.844 27.5692 190.333ZM28.1574 149.603C29.922 153.466 26.981 156.657 28.9137 159.849C29.2498 160.437 29.0817 161.444 30.2581 161.36C31.9387 161.276 31.7706 160.101 31.2664 159.429C30.4262 158.253 31.3504 157.665 31.9386 157.077C37.1484 152.543 32.863 151.451 28.1574 149.603ZM36.7283 184.706C36.8123 181.767 35.2998 180.591 32.0227 180.927C29.922 181.179 28.4935 181.935 29.5859 183.698C30.5942 185.294 28.5775 188.905 33.1151 188.401C35.5519 188.149 37.9047 187.729 36.7283 184.706ZM40.0054 114.416C39.5012 116.432 38.4929 118.447 40.4255 119.875C40.7616 120.127 42.2741 119.707 42.6102 119.287C44.5429 116.516 40.7616 116.18 40.0054 114.416ZM52.3575 74.5268C49.8367 73.1831 48.7443 78.2218 44.711 79.0616C47.904 80.6572 49.6686 81.5809 51.5172 82.5047C51.6853 79.5655 55.2985 76.0384 52.3575 74.5268ZM48.4922 92.4981C49.7526 90.0628 49.8367 88.3832 48.9124 86.7036C48.8283 86.5357 47.5679 86.6197 47.3998 86.7876C46.6436 88.5512 46.4755 90.2307 48.4922 92.4981ZM49.9207 212.587C46.7276 210.487 43.3665 210.32 40.6776 211.831C39.4172 212.587 40.6776 215.358 42.4422 216.114C46.6436 218.13 47.5679 214.434 49.9207 212.587ZM39.9213 223.252C38.1568 222.496 35.888 221.657 34.7956 223.336C33.5352 225.268 35.888 226.275 37.4845 227.115C42.9464 230.222 42.9464 230.222 43.6186 236.017C47.0638 229.551 45.7193 225.856 39.9213 223.252ZM25.1324 242.651C28.0734 243.407 31.0143 245.842 34.2074 243.323C38.997 245.422 40.2574 242.399 42.022 239.208C38.0727 238.704 34.7116 238.032 31.3505 236.605C27.4012 234.925 29.4178 237.529 29.7539 238.788C29.1657 238.788 28.5776 238.788 27.9893 238.704C25.3005 239.124 24.8803 242.567 25.1324 242.651ZM23.6199 254.744C22.2754 248.782 23.0317 243.407 20.0067 238.536C15.9733 241.475 20.1747 246.85 16.2254 249.873C18.4101 251.301 20.6789 252.813 23.6199 254.744ZM7.90663 252.729C10.4275 249.705 9.08299 245.171 13.2004 242.231C10.9316 242.231 9.08299 242.231 7.23438 242.231C6.22603 239.46 12.192 241.307 10.5115 238.2C9.92326 237.109 8.99896 236.101 7.5705 236.605C5.72186 237.277 3.70518 238.116 2.19267 239.292C1.3524 239.964 1.85657 241.475 3.11699 242.147C3.78922 242.483 4.54549 242.819 5.30174 243.239C0.176025 248.698 0.344086 249.201 7.90663 252.729ZM-4.27748 228.711C-0.328156 228.627 3.62117 232.826 6.73021 228.207C8.99898 230.306 7.48645 233.498 10.5955 235.345C11.3517 230.558 18.9983 234.757 19.5865 229.467C21.2671 229.383 22.8636 229.887 24.4602 230.306C26.1407 230.81 28.9137 234.253 29.7539 230.39C30.2581 228.123 35.0477 223.588 27.5692 222.748C25.7206 222.58 26.0567 221.321 25.6366 220.313C25.2164 219.053 26.6449 216.702 22.9477 217.038C20.5108 217.29 18.7462 217.206 17.8219 219.641C16.9816 221.825 16.1414 223.924 16.2254 226.275C11.7719 225.436 7.99066 224.512 6.64621 219.305C5.72189 215.61 0.428101 215.19 -3.60526 214.938C-5.70596 214.854 -6.04207 216.114 -5.11777 217.626C-4.44554 218.717 -4.44554 219.473 -6.04207 219.389C-8.4789 219.305 -11.2518 220.313 -13.2685 218.297C-14.613 216.954 -12.9324 216.366 -12.1761 215.61C-11.0838 215.274 -9.90739 214.938 -8.81503 214.518C-8.81503 214.267 -8.815 214.015 -8.89903 213.847C-10.8317 213.847 -12.7643 213.847 -14.697 213.847C-16.8817 216.954 -20.831 215.022 -24.6123 216.702C-18.6463 223.672 -11.9241 230.054 -9.57127 238.956C-11.1678 233.498 -0.664261 234.421 -4.27748 228.711ZM-26.713 254.66C-25.2845 253.568 -23.604 252.561 -25.0324 250.629C-25.3686 250.125 -26.4609 249.537 -27.1332 250.293C-28.7297 251.805 -28.4776 253.316 -26.713 254.66ZM-33.2672 246.514C-29.1498 249.201 -23.9401 249.285 -19.3185 245.422C-24.1922 243.323 -25.7887 238.284 -31.5866 236.437C-31.7547 240.216 -38.8971 242.819 -33.2672 246.514ZM-37.4686 214.77C-34.8637 213.679 -34.6957 215.106 -34.8638 216.87C-36.9645 224.512 -36.0401 225.604 -26.545 225.939C-28.1415 222.076 -30.2422 218.801 -32.9311 215.778C-33.9394 214.351 -34.7797 212.839 -36.0401 211.663C-36.9645 210.739 -37.2165 208.472 -39.6534 209.732C-40.9978 210.404 -42.3423 211.579 -41.8381 212.839C-41.2499 214.351 -39.7374 215.694 -37.4686 214.77ZM-40.6617 224.932C-41.3339 222.664 -43.4346 221.909 -44.9471 220.313C-46.7117 224.596 -44.6951 225.436 -40.6617 224.932ZM-92.423 182.271C-94.6918 183.614 -97.8008 184.454 -97.2127 187.645C-97.5488 191.424 -94.7758 195.287 -92.339 194.532C-88.4737 193.356 -87.2973 188.569 -86.7932 184.874C-86.373 181.431 -92.255 186.302 -92.423 182.271ZM-96.3724 199.738C-95.7001 201.082 -94.7758 203.097 -92.255 200.998C-90.9946 199.906 -88.9779 199.654 -87.2133 198.982C-89.23 197.387 -91.4987 196.799 -93.8515 197.471C-94.9439 197.807 -97.2967 197.807 -96.3724 199.738ZM-76.0376 204.609C-76.6258 202.845 -76.3737 200.494 -79.4827 200.746C-81.7515 200.914 -82.4237 202.594 -82.5077 204.525C-81.8355 205.869 -82.5077 208.304 -79.3147 207.464C-77.7181 207.044 -75.1133 207.464 -76.0376 204.609ZM-58.2236 216.366C-57.8035 212.755 -63.2653 208.22 -69.2313 207.8C-66.9625 211.243 -63.3493 213.259 -64.3576 217.374C-64.7778 219.137 -62.6771 219.137 -61.1646 219.221C-58.8118 219.473 -58.3916 218.046 -58.2236 216.366ZM-63.3493 253.652C-61.7528 253.904 -60.9965 253.316 -61.5847 251.721C-62.6771 248.95 -62.7611 245.339 -66.7104 244.583C-69.0632 244.163 -69.3993 246.514 -69.6514 248.11C-69.0632 251.385 -66.7945 253.064 -63.3493 253.652ZM-69.1472 175.721C-68.1389 175.804 -66.7944 175.888 -66.9625 174.461C-67.0465 173.453 -67.1306 171.941 -68.9792 172.193C-69.9035 172.361 -70.5757 173.201 -71.248 173.621C-71.248 175.217 -70.2396 175.637 -69.1472 175.721ZM-74.441 245.674C-73.6848 246.262 -73.0125 247.27 -71.8362 246.178C-70.8278 245.254 -71.332 244.415 -72.0042 243.659C-74.0209 241.643 -76.7098 240.804 -79.9028 241.14C-78.1383 242.651 -76.2896 244.163 -74.441 245.674ZM-91.2467 227.031C-98.137 228.291 -96.8765 235.093 -100.91 238.284C-101.33 238.62 -100.574 239.712 -99.6495 239.964C-97.2967 243.407 -95.0279 244.751 -91.1626 240.972C-88.3897 238.2 -84.5244 236.269 -80.323 233.33C-85.4487 233.078 -88.8939 233.33 -91.4147 237.025C-92.5911 238.788 -94.7758 240.636 -97.8009 239.88C-93.5154 233.917 -90.5744 226.527 -79.1466 227.535C-82.5077 224.428 -89.0619 223.252 -83.348 218.633C-83.264 218.549 -84.0202 217.374 -84.6084 216.87C-87.8855 213.679 -91.2467 210.571 -94.9439 207.128C-97.4647 211.999 -99.6495 216.366 -101.834 220.565C-100.742 222.748 -97.3807 218.969 -97.3807 221.741C-97.3807 224.932 -101.75 224.848 -103.935 226.695C-98.4731 230.558 -94.6078 223.42 -89.5661 224.848C-89.314 226.275 -90.4064 226.863 -91.2467 227.031ZM-123.513 170.85C-121.329 170.682 -122.337 170.178 -122.757 168.918C-124.102 164.551 -120.993 161.864 -115.615 162.704C-113.346 163.04 -112.086 161.78 -110.321 161.192C-112.842 160.94 -112.842 155.062 -117.043 158.757C-117.716 157.833 -118.388 156.825 -119.06 155.902C-119.396 154.642 -117.8 152.962 -119.9 152.123C-120.657 151.871 -121.245 152.627 -121.245 153.55C-123.093 156.154 -125.194 157.245 -128.051 154.642C-129.143 152.039 -127.211 150.191 -125.446 148.26C-128.303 147.252 -129.564 148.092 -130.236 150.107C-133.933 153.718 -130.74 159.261 -134.689 162.872C-134.857 163.04 -134.773 163.712 -134.689 163.712C-128.555 164.803 -128.555 168.079 -130.824 172.277C-130.908 172.529 -129.648 173.789 -129.059 172.781C-127.799 170.346 -125.53 170.934 -123.513 170.85ZM-133.597 257.515C-132 257.599 -129.9 258.103 -129.059 256.34C-128.135 254.408 -129.9 253.148 -131.244 251.973C-132.757 250.629 -134.353 250.125 -136.286 251.553C-138.218 252.98 -140.487 254.072 -143.176 255.584C-139.983 257.179 -136.79 257.431 -133.597 257.515ZM-160.15 265.661C-158.973 266.333 -158.637 268.097 -157.881 269.44C-154.436 268.432 -154.436 265.745 -153.68 264.318C-153.596 261.798 -161.494 264.318 -156.368 259.279C-155.444 258.355 -157.713 257.851 -158.637 257.347C-159.562 256.843 -160.99 256.759 -160.906 258.187C-160.738 260.622 -164.435 263.31 -160.15 265.661ZM-186.619 267.761C-186.198 268.013 -185.526 268.432 -184.77 268.6C-184.182 268.684 -183.51 268.264 -183.762 267.593C-184.014 266.669 -184.938 266.585 -185.778 266.585C-186.283 266.501 -186.955 266.585 -186.619 267.761Z" fill="#161654"/>
</svg>
