<svg width="196" height="88" viewBox="0 0 196 88" fill="none" xmlns="http://www.w3.org/2000/svg">
<path d="M186.458 0.352039L0 25.9566L8.7323 88L195.191 62.3955L186.458 0.352039Z" fill="#E8D7A5"/>
<path d="M57.3225 63.1031L53.782 41.1739L50.4549 41.7179L44.2951 57.6457L33.3262 44.5215L30 45.0655L33.5099 67L37.3645 66.3687L35.068 52.0173L44.1131 62.6923L45.9162 62.3969L51.1408 49.1943L53.4985 63.7282L57.3225 63.1031ZM77.1099 51.3755C76.2727 46.1429 72.1819 43.3075 67.3326 44.101C62.3896 44.9104 59.3233 49.077 60.1212 54.0592C60.9182 59.0414 65.1008 62.0548 70.6657 61.1441C73.5256 60.676 75.7067 59.3544 76.9131 57.3248L74.4442 55.2521C73.4583 56.668 72.0926 57.502 70.2275 57.808C67.3361 58.2805 65.0649 57.0444 64.2076 54.6772L77.2333 52.5454C77.2044 52.1645 77.1598 51.6893 77.1099 51.3755ZM67.8338 47.2344C70.3832 46.8174 72.4828 48.1777 73.1801 50.5397L63.7606 52.0817C63.7422 49.576 65.3151 47.647 67.8338 47.2344ZM88.8776 40.5753C86.4533 40.972 84.5628 42.1173 83.534 43.8612L83.1875 41.6994L79.4886 42.3042L82.1666 59.037L86.0518 58.4013L84.6984 49.941C84.1621 46.5881 85.7561 44.5912 88.5232 44.138C91.0096 43.7307 92.7015 44.9333 93.1783 47.9097L94.6323 56.9968L98.5184 56.3612L96.9839 46.7724C96.1764 41.7276 92.8573 39.9238 88.8776 40.5753ZM111.747 50.4021C111.232 50.969 110.49 51.3155 109.682 51.4478C108.189 51.692 107.241 50.947 106.98 49.3168L105.706 41.3582L110.151 40.6308L109.65 37.4975L105.205 38.2248L104.593 34.402L100.707 35.0377L101.319 38.8605L98.5832 39.3084L99.0844 42.4417L101.82 41.9939L103.109 50.0468C103.7 53.7444 106.095 55.3464 109.731 54.7513C111.13 54.5221 112.469 53.9172 113.282 53.0127L111.747 50.4021ZM123.573 52.4863C128.734 51.6417 131.862 47.4636 131.059 42.4506C130.257 37.4366 125.991 34.5016 120.831 35.3462C115.732 36.1803 112.568 40.332 113.371 45.345C114.173 50.3589 118.475 53.3204 123.573 52.4863ZM123.037 49.1334C120.238 49.591 117.799 47.9 117.287 44.704C116.776 41.5081 118.564 39.125 121.362 38.6674C124.191 38.2045 126.631 39.8955 127.142 43.0915C127.654 46.2875 125.865 48.6706 123.037 49.1334ZM137.526 35.3145L137.135 32.8706L133.436 33.4763L136.114 50.209L140 49.5725L138.701 41.4569C138.154 38.0414 139.739 35.9819 142.692 35.4988C142.972 35.4529 143.257 35.4379 143.609 35.445L143.013 31.7156C140.245 32.1688 138.365 33.3766 137.526 35.3145ZM154.241 47.4671C158.905 46.7036 161.439 44.1989 160.937 41.0655C159.889 34.5166 150.112 39.2035 149.57 35.8197C149.395 34.7229 150.388 33.7566 152.751 33.3696C154.337 33.1104 155.973 33.1642 157.708 33.8448L158.724 30.6241C157.086 29.9594 154.484 29.8386 152.276 30.2001C147.8 30.9327 145.301 33.4639 145.808 36.6282C146.876 43.3022 156.653 38.6154 157.165 41.8122C157.35 42.9716 156.435 43.8286 153.979 44.2306C151.896 44.5709 149.548 44.2482 147.931 43.5156L146.915 46.7371C148.577 47.5579 151.475 47.9203 154.241 47.4671Z" fill="black"/>
<path d="M90 26C97.1797 26 103 20.1797 103 13C103 5.8203 97.1797 0 90 0C82.8203 0 77 5.8203 77 13C77 20.1797 82.8203 26 90 26Z" fill="#08151B"/>
</svg>
