<svg width="287" height="269" viewBox="0 0 287 269" fill="none" xmlns="http://www.w3.org/2000/svg">
<path d="M203.174 208.209C203.342 208.125 203.51 208.041 203.762 207.957C203.594 208.041 203.342 208.125 203.174 208.209Z" fill="#161654"/>
<path d="M183.09 178.649C183.174 178.732 183.257 178.732 183.257 178.816C183.174 178.732 183.09 178.732 183.09 178.649Z" fill="#161654"/>
<path d="M12.4858 243.852C10.317 242.219 9.72553 240.85 5.97935 241.429C3.219 241.851 2.49599 239.376 0.984375 238.059C2.43027 237.48 3.28468 237.796 4.20479 238.48C7.7538 241.219 10.5799 237.269 13.866 237.848C13.866 237.111 13.866 236.426 13.866 235.689C13.866 235.268 13.866 234.846 13.866 234.425V234.109C14.3261 233.793 14.7204 233.477 15.1805 233.161C16.955 232.95 18.7295 232.74 20.7669 232.529C19.3867 230.686 18.2037 229.053 16.955 227.421C16.8892 227.105 16.8893 226.789 16.8236 226.473C18.0723 225.893 18.598 223.787 20.3068 224.84C21.6212 225.683 24.513 226.051 23.8558 228.263C23.4615 229.633 24.053 231.107 23.9872 232.582C23.9215 233.951 24.3816 235.162 26.4847 235.11C28.9822 235.004 28.5221 233.688 27.9964 232.476C27.7992 232.002 28.0621 231.37 28.1278 230.633C28.1935 230.581 28.2593 230.581 28.325 230.528C29.3765 230.897 30.3624 231.107 30.9539 231.529C33.3856 233.266 34.3714 232.687 34.8314 230.528C35.0943 229.317 35.0943 227.631 38.0519 228.263C38.3147 228.316 38.8406 228.158 38.8406 228.053C39.4321 225.63 39.695 223.26 41.8638 221.048C44.0984 218.678 42.6525 216.572 39.1692 214.886C38.9063 214.729 38.7091 214.623 38.5777 214.413C38.4462 214.097 38.3805 213.781 38.3805 213.465C38.5776 212.727 39.432 211.937 40.3521 211.569C41.8638 210.937 42.7182 208.093 45.4128 210.357C46.9244 211.621 47.5159 210.621 47.8445 209.989C48.6989 208.409 49.6847 207.987 52.2479 208.198C54.5482 208.409 57.5057 208.093 58.1629 205.249C58.5573 203.616 62.3692 204.301 64.2094 203.248C64.1437 203.037 64.078 202.668 63.9465 202.668C57.7686 201.299 56.717 199.877 59.4774 195.401C61.1204 192.767 60.4632 190.608 58.4258 188.133C56.3884 189.081 55.9941 191.24 53.2995 191.293C51.5907 191.767 49.2904 191.187 48.2388 192.767C46.4643 192.557 44.4269 193.399 42.981 192.083C42.981 191.714 42.8496 191.345 43.0467 191.029C43.5725 190.292 46.5301 191.03 45.4785 189.713C44.6899 188.712 42.7839 189.397 42.1924 190.714C40.878 190.292 40.3522 191.819 39.2349 191.451C38.1833 191.135 36.6717 191.661 36.3431 189.871C35.9488 187.501 38.0518 188.66 39.1034 188.344C40.3521 189.397 41.7324 189.344 43.1125 188.502C48.3046 188.186 50.8677 184.552 55.534 183.393C58.0972 182.761 54.6139 182.287 54.7454 181.55C54.7454 181.339 54.6797 181.181 54.614 181.023C54.614 179.654 57.44 178.969 56.3884 176.863C53.891 171.86 48.7646 174.862 44.2298 173.598C45.8071 177.495 52.2479 177.337 54.2196 180.181C54.2196 180.391 54.2196 180.655 54.2196 180.918C54.2853 180.76 54.2853 180.549 54.3511 180.391C54.4825 180.602 54.5482 180.813 54.614 181.023C54.614 181.181 54.6139 181.339 54.7454 181.55C54.7454 181.55 54.7454 181.55 54.7454 181.603C54.4825 181.708 54.2196 181.813 54.0224 181.919C54.0882 181.708 54.1539 181.497 54.1539 181.234C53.9567 181.55 53.6938 181.813 53.4966 182.077C50.2762 182.972 48.6332 181.023 46.7273 179.338C45.5443 178.285 44.0984 177.337 43.1125 175.809C41.338 177.442 42.521 179.022 42.0609 180.444C40.2864 181.076 39.5635 182.866 37.1317 182.656C36.8031 181.708 38.0519 181.181 38.2491 180.339C38.5119 178.917 38.5776 177.863 35.7516 178.811C34.3057 179.285 32.4654 179.338 30.5595 178.179C31.6768 177.126 32.5969 175.809 34.0428 175.019C35.8173 174.072 36.0802 172.966 34.8314 172.07C31.3481 169.542 34.8314 169.49 36.8031 169.226C39.7606 168.805 42.7181 169.121 45.6756 169.806C48.0417 170.385 50.6049 170.648 51.3935 168.12C51.6564 168.068 51.985 167.962 52.2479 167.857C54.351 170.28 55.8627 169.595 56.98 167.014C57.2428 166.435 57.5058 165.856 57.9001 165.329C61.3177 160.958 61.3176 160.958 55.8626 158.851C55.4683 158.693 55.074 158.483 54.4168 158.167C54.4168 158.114 54.4168 158.061 54.4168 157.956C56.1255 157.377 57.3743 156.956 59.0173 156.376C57.8343 155.797 56.9142 155.27 55.7969 154.744C58.0972 152.9 61.1862 154.112 63.8151 153.532C64.2094 152.058 62.6978 151.162 61.9091 150.056C60.8576 148.529 62.895 148.213 63.6179 147.476C65.0638 146.001 65.6553 147.581 66.5754 147.95C66.9698 148.213 67.3641 148.319 67.8242 148.319C69.5987 149.056 69.5329 150.162 68.3499 151.794C66.1811 154.533 67.2984 156.008 71.7018 155.744C73.1477 154.796 67.5612 152.479 73.2134 152.532C74.3964 155.586 77.4854 153.638 79.5885 153.638C81.4944 153.638 82.9403 153.796 82.2174 155.112C80.6401 158.114 83.9262 158.746 86.1607 159.905C87.278 160.484 88.8553 160.484 88.6581 162.117C88.461 163.96 88.7896 163.907 92.01 164.487C92.5358 164.592 92.9301 165.329 93.1273 165.856C93.6531 167.12 94.1131 168.384 94.5732 169.648C94.3103 170.122 94.0474 170.596 93.7845 171.07C92.0758 167.857 87.1466 167.33 84.1891 165.119C82.8746 164.118 81.1001 165.277 81.4944 166.856C82.0202 168.752 81.1658 170.016 78.997 171.175C77.091 172.228 76.4995 173.914 78.0769 175.283C79.7199 176.705 81.6259 175.283 82.546 174.598C86.3579 172.018 90.5641 174.072 94.5075 173.65C96.0848 174.282 95.2961 172.597 96.2819 172.65C97.1363 173.808 97.8593 175.019 98.7794 176.178C99.4367 176.915 99.8967 178.127 101.671 177.653C103.051 177.284 104.169 176.231 103.774 175.441C102.854 173.492 103.643 171.649 105.877 171.333C108.441 170.964 111.267 171.965 112.121 174.335C112.187 174.493 112.647 174.546 112.975 174.651C113.764 174.019 113.633 173.176 113.107 172.65C110.347 170.069 113.173 169.174 115.604 168.12C118.496 166.856 120.271 167.383 120.928 169.858C120.994 170.174 121.914 170.385 122.505 170.596C123.162 170.859 123.623 170.438 123.491 170.174C121.585 167.278 125.2 166.751 127.237 166.488C129.143 166.277 131.444 167.752 132.166 169.016C133.678 171.807 136.701 173.966 137.753 176.915C138.542 179.127 141.368 179.496 143.734 177.811C144.194 177.495 144.785 176.863 145.114 176.915C149.583 177.811 153.329 177.073 156.812 174.809C157.93 174.071 158.324 175.704 158.39 176.02C158.915 178.811 162.202 179.338 164.83 180.497C165.422 180.918 165.882 181.392 166.539 181.655C167.262 181.919 167.788 182.919 168.84 182.129C169.168 181.919 169.365 181.497 169.431 181.181C169.628 180.233 168.774 180.023 167.722 179.97C167.065 179.917 166.474 179.865 165.816 179.759C165.093 178.39 163.582 177.179 164.83 175.546C166.211 173.756 168.117 175.915 169.628 175.125C170.22 169.068 167.788 167.33 159.244 168.278C156.484 168.594 156.418 166.909 155.498 166.014C153.986 164.487 154.578 162.591 155.892 161.274C157.207 159.957 158.718 161.485 160.099 162.011C160.953 162.327 161.807 162.643 162.727 163.012C163.713 163.17 164.765 164.592 165.488 163.644C166.408 162.327 163.648 162.485 163.056 161.643C165.028 159.325 166.802 156.85 171.6 157.904C173.44 158.325 173.9 157.798 173.834 156.482C173.769 155.165 174.032 153.638 176.398 153.427C178.698 153.269 180.472 153.954 181.458 155.744C181.918 156.692 182.576 157.746 184.613 158.535C184.679 156.06 186.125 154.164 188.885 152.953C190.002 152.479 192.565 152.795 192.105 151.584C191.448 149.688 189.411 152.374 188.096 151.426C188.622 149.635 189.608 148.161 185.664 147.16C181.787 146.159 182.838 142.315 180.341 140.156C179.618 139.524 180.867 138.312 177.909 138.786C173.703 139.471 169.957 134.415 172.191 131.624C173.046 130.518 174.229 129.833 176.201 130.781C177.975 131.624 178.961 132.783 180.012 134.257C181.524 132.677 182.904 131.255 184.284 129.781C185.073 128.938 185.204 127.621 187.439 128.043C189.411 128.411 190.725 129.201 190.922 130.729C191.054 131.571 191.054 132.414 191.119 133.309C192.631 133.151 194.011 132.993 195.391 132.835C196.969 132.677 198.612 132.151 198.809 131.045C199.006 129.886 197.034 129.728 195.851 129.517C194.077 129.201 193.683 128.727 194.603 127.569C195.457 126.568 196.049 125.462 196.837 124.304C195.589 124.093 193.617 124.356 192.697 123.882C192.565 123.566 192.368 123.25 192.171 122.934C192.171 122.882 192.171 122.776 192.237 122.724C192.631 121.302 191.382 118.616 195.326 118.247C198.875 117.878 198.94 114.35 202.95 114.139C204.133 114.087 205.513 113.455 206.761 112.612C208.142 112.349 208.799 111.769 208.865 110.769C209.653 109.873 210.179 108.925 210.376 108.083C210.705 106.292 213.597 106.714 214.582 104.87C215.831 102.711 217.343 105.766 218.854 106.45C220.103 106.977 221.352 108.294 222.666 107.451C224.112 106.556 222.995 104.87 221.943 104.291C217.803 102.079 219.906 100.131 222.075 98.1293C223.915 97.6026 222.732 95.97 224.046 95.2854C224.375 95.7593 224.769 96.286 225.098 96.76C226.741 97.6026 228.778 97.392 230.422 97.3393C231.867 97.2866 231.079 96.444 230.159 96.128C228.516 95.4434 226.215 95.0221 228.844 93.2315C231.276 91.5462 231.605 88.597 235.745 87.807C237.388 87.491 236.797 85.6478 236.468 84.5418C235.482 81.3293 236.928 80.75 240.674 82.3826C241.923 80.0653 241.66 78.5907 237.782 78.2747C236.205 78.1167 235.942 76.4841 236.665 75.9048C237.848 75.0095 239.623 73.1136 241.134 74.0089C245.143 76.3788 243.96 73.4823 244.683 72.4816C246.786 73.0083 246.261 74.7989 247.707 75.6415C252.504 72.6396 252.57 72.113 248.495 69.6904C249.021 68.7951 250.861 69.6378 251.321 68.5845C251.978 68.5845 252.636 68.5845 253.359 68.5845C252.438 72.113 254.41 73.1136 258.879 71.8496C261.377 71.165 263.677 71.7443 266.306 72.3763C265.452 73.9562 264.466 75.5362 263.743 77.1688C263.611 77.4321 263.546 77.6428 263.414 77.8534C263.151 78.0114 262.823 78.1167 262.494 78.2221C262.231 78.2221 261.903 78.1694 261.443 78.0641C257.696 77.0635 255.922 78.9594 253.622 81.1713C258.025 81.5926 262.691 81.3819 262.428 85.7531C265.452 85.0158 267.62 82.9092 271.038 84.0678C271.038 85.4898 268.278 85.5424 267.883 87.2277C269.921 87.2277 271.958 87.2277 274.39 87.2277C274.587 87.333 274.784 87.3857 274.916 87.491C273.338 90.0189 271.038 91.0196 267.752 91.1249C266.832 91.3882 265.912 91.6515 264.992 91.8622C261.903 93.4948 263.151 95.9174 263.151 97.9713C263.151 100.447 263.348 102.922 262.231 105.292C260.259 106.661 258.682 108.188 257.433 110.979C260.259 109.136 262.231 107.978 263.414 106.24C267.949 106.977 271.695 109.505 276.624 109.294C278.333 109.241 280.239 109.873 279.779 107.398C279.319 105.081 283.46 104.923 285.037 103.343C286.22 102.184 287.929 103.712 288.915 104.554C291.478 106.714 292.792 104.765 293.318 103.606C293.909 102.448 294.369 101.447 296.078 101.658C297.656 101.868 297.984 103.08 298.444 104.186C299.693 107.082 297.13 109.768 297.327 112.612C299.824 112.717 299.167 109.505 302.125 110.716C304.688 111.822 304.556 113.139 303.833 115.193C303.176 117.036 303.111 118.405 300.416 119.3C299.496 119.564 297.327 121.407 301.27 121.249C303.242 121.196 303.308 122.302 303.373 123.25C303.636 125.673 305.674 127.2 308.105 128.517C311.654 130.465 314.941 129.517 315.926 126.305C317.307 121.828 317.569 121.67 322.367 123.777C325.456 125.146 321.907 127.042 322.696 128.622C322.367 129.043 321.907 129.412 321.71 129.833C321.316 130.781 319.475 131.94 321.053 132.625C323.55 133.678 321.579 130.518 323.747 130.781C324.799 130.992 325.39 131.624 325.851 132.309C326.113 133.099 325.325 134.573 327.231 134.415C328.348 134.362 327.757 133.046 327.691 132.256C327.822 132.045 327.954 131.835 328.151 131.624C331.371 133.836 335.643 131.15 338.798 132.677C341.098 133.836 340.77 131.097 342.347 131.677C347.013 136.153 345.764 140.893 343.858 145.738C343.727 145.738 343.661 145.685 343.53 145.685C342.413 144.948 343.201 143.737 342.347 142.789C341.032 144.263 338.666 145.106 338.403 147.107C338.272 148.108 337.22 149.214 339.324 149.793C341.492 150.425 341.887 149.319 342.215 148.213C342.413 147.581 342.938 147.16 343.793 146.949C343.859 147.529 343.99 148.161 344.056 148.74C344.976 150.214 346.75 149.477 348.262 149.635C347.342 150.636 346.816 152.11 345.567 152.584C340.112 154.744 339.981 158.799 337.681 162.643C344.384 162.643 341.295 157.693 344.647 156.324C348.065 154.902 349.642 151.952 353.717 150.425C353.848 153.638 353.125 156.376 350.036 158.588C348.13 159.905 347.802 160.853 350.956 161.485C352.928 161.853 353.651 163.012 353.257 164.487C353.125 164.539 353.06 164.592 352.928 164.645C351.811 164.697 350.891 163.17 349.379 164.487C347.342 166.33 350.431 166.856 350.825 168.12C349.313 168.331 347.867 168.489 346.29 168.7C347.473 170.596 348.919 170.385 350.759 169.595C352.534 168.805 354.834 168.752 355.491 170.174C356.543 172.386 358.055 173.492 361.538 172.702C361.538 172.702 361.538 172.702 361.604 172.702C360.946 174.756 355.82 173.861 357.923 176.652C355.754 176.915 353.257 177.758 351.811 175.967C350.759 174.704 351.022 172.597 347.736 174.703C346.816 175.283 344.647 173.071 342.61 173.492C341.098 175.283 346.159 174.809 344.384 176.441C342.741 178.021 340.572 177.284 338.403 176.915C335.709 176.389 332.751 177.284 330.188 175.915C329.334 175.441 328.545 175.967 328.348 176.599C327.888 178.232 325.522 180.602 326.836 181.181C329.728 182.445 329.728 183.498 328.414 185.289C327.691 186.237 330.977 186.816 329.137 188.028C328.019 188.08 327.034 188.291 326.376 189.134C327.691 189.66 328.874 189.344 330.122 189.239C331.766 189.555 333.409 189.66 335.052 189.239C336.366 189.608 337.943 191.135 339.061 189.397C340.309 187.501 336.498 188.396 336.103 187.185C335.512 185.552 336.629 184.657 338.666 184.236C339.652 184.025 340.441 183.867 341.032 183.13C343.004 180.865 345.239 181.076 347.145 183.551C348.262 185.026 350.102 183.235 351.679 184.183C348.919 186.026 346.619 188.028 348.788 190.766C348.656 190.977 348.459 191.135 348.328 191.293C345.962 191.977 343.135 189.397 341.427 191.451C340.441 192.609 336.76 192.767 338.864 195.401C343.596 192.293 349.642 194.611 354.966 193.241C357.266 192.662 356.609 194.295 357.2 194.927C358.252 195.927 357.66 196.401 356.083 196.454C353.454 196.559 353.717 197.876 354.308 199.087C355.031 200.562 356.543 200.14 357.989 199.667C359.04 199.298 360.092 198.876 361.209 198.771C362.918 198.613 365.218 198.245 364.298 200.614C363.97 201.562 364.298 202.51 365.35 203.3C367.124 204.67 365.744 205.407 364.167 206.039C361.341 206.671 359.106 204.248 356.214 205.302C355.163 205.249 353.914 205.723 354.243 206.302C354.703 207.04 356.149 206.724 357.2 206.566C358.515 206.829 359.829 207.092 361.143 207.355C362.129 208.198 361.012 208.619 360.355 209.041C357.857 210.673 354.44 212.253 360.421 213.833C361.866 214.202 360.421 215.676 361.538 216.361C361.932 216.15 362.721 215.992 362.721 215.782C362.852 211.99 368.373 210.726 370.082 207.671C370.87 206.197 371.856 204.933 374.222 206.618C373.828 207.671 371.33 206.829 371.265 208.251C372.382 209.409 374.682 209.725 374.945 211.779C375.077 213.096 379.086 212.727 382.306 211.095C382.963 211.095 383.621 211.042 384.278 211.042C384.541 212.043 384.409 213.201 385.921 213.307C388.155 213.412 389.864 212.201 391.442 211.095C394.005 209.304 392.887 206.671 394.333 204.564C395.188 203.353 392.625 203.142 391.31 202.774C390.127 202.405 388.155 201.984 389.798 200.93C392.362 199.35 392.099 197.402 392.362 195.401C392.624 192.978 393.939 190.872 398.277 191.293C399.328 191.398 400.38 191.714 400.183 190.556C400.117 189.871 400.971 188.712 398.934 188.66C398.605 188.66 398.079 188.818 397.948 188.712C396.765 187.659 393.545 188.66 393.479 187.185C393.413 185.078 396.173 186.5 397.619 186.132C398.802 185.816 399.657 184.868 401.234 185.078C401.366 185.5 401.497 186.29 401.629 186.29C402.68 186.29 402.22 185.658 402.286 185.289C402.351 184.71 402.286 184.13 402.22 183.498C403.797 183.814 405.375 184.236 407.018 184.341C411.29 184.71 411.881 186.764 410.567 188.923C409.581 190.556 410.107 191.082 411.75 192.03C413.656 193.189 415.496 194.874 417.139 195.664C422.397 198.139 416.022 199.877 417.139 201.826C416.219 201.72 415.233 201.668 414.313 201.562C414.116 200.72 415.102 198.877 412.407 200.193C410.895 200.93 409.252 201.878 409.318 203.616C411.158 203.88 412.538 202.405 414.313 203.09C415.89 205.565 414.116 207.724 412.933 210.147C413.787 210.463 416.087 209.778 417.073 209.989C417.205 210.094 417.336 210.147 417.468 210.252C417.599 210.568 417.27 211.2 416.022 212.464C418.519 212.991 420.557 212.095 422.988 212.043C422.331 214.149 418.125 215.834 420.754 218.046C422.2 219.258 424.04 220.943 427.195 220.469C426.669 222.102 424.894 222.891 423.251 223.576C420.228 224.84 416.942 223.839 416.153 221.47C415.562 219.679 415.299 219.416 412.67 217.362C411.881 218.836 411.618 220.364 408.267 221.68C412.21 221.891 414.05 221.944 414.839 224.261C416.022 227.895 417.665 227.947 422.791 225.525C423.777 227.421 421.871 229.843 424.828 231.318C426.603 229.791 422.265 227.737 425.42 226.894C427.457 226.367 428.706 228.579 430.415 229.422C431.401 229.896 432.847 230.317 433.701 230.949C433.964 231.423 434.161 231.897 434.424 232.424C434.293 232.898 433.767 233.53 432.781 234.214C432.584 234.372 433.635 237.216 436.79 237.111C436.922 237.269 437.053 237.374 437.184 237.532C432.058 243.062 431.401 243.22 427.326 240.903C425.157 245.59 425.223 245.537 431.072 247.065C433.175 247.591 435.607 247.381 437.316 248.645C295.552 248.645 162.01 268.326 20.2466 268.326C18.0778 266.693 15.7719 246.275 12.4858 243.852ZM41.4037 172.386C40.615 172.755 39.7607 173.176 38.8406 173.65C39.3006 173.966 39.695 174.44 40.2207 174.545C41.5352 174.809 42.3238 174.124 42.7181 173.387C42.9153 172.913 42.3238 172.544 41.4037 172.386ZM340.638 154.322C341.032 153.058 341.361 151.952 340.244 150.636C338.206 152.163 338.732 153.216 340.638 154.322ZM338.403 168.7C340.178 169.279 342.084 169.279 343.99 168.91C346.027 168.542 345.239 167.594 344.91 166.751C342.873 165.698 340.901 165.224 338.995 166.856C338.798 167.488 338.272 168.647 338.403 168.7ZM416.416 230.844C417.599 230.897 418.256 230.475 418.388 229.633C418.585 228.369 417.336 227.895 416.022 227.737C414.247 227.473 414.247 228.527 414.181 229.369C413.984 230.475 415.299 230.633 416.416 230.844ZM409.121 231.845C409.712 231.739 410.567 231.528 410.764 231.212C411.355 230.265 408.989 230.265 409.384 229.317C410.041 228.474 412.999 227.579 409.252 226.841C407.346 228.053 408.661 229.738 407.938 231.107C407.675 231.634 408.332 232.003 409.121 231.845ZM405.375 192.188C405.44 192.293 405.703 192.662 406.032 192.662C406.886 192.715 407.149 192.188 407.083 191.714C407.083 191.293 407.018 190.661 406.032 190.819C405.178 190.977 405.309 191.503 405.375 192.188ZM396.896 195.717C397.685 196.875 397.291 198.455 397.422 199.982C402.351 198.929 398.737 195.98 400.051 194.189C400.971 194.242 402.154 194.031 401.826 193.399C401.234 192.346 400.051 192.715 399.131 193.347C397.422 193.663 395.451 193.557 396.896 195.717ZM383.818 218.257C385.001 219.363 385.592 218.731 386.249 217.941C387.301 216.519 390.061 216.045 390.324 213.359C387.695 214.518 385.789 215.361 383.818 216.256C382.438 216.835 383.095 217.52 383.818 218.257ZM364.495 217.52C365.876 219.047 368.373 218.573 371.922 219.363C369.622 217.414 370.607 214.729 366.73 215.15C364.692 215.36 364.232 217.256 364.495 217.52ZM360.092 220.206C360.618 220.206 361.604 220.1 361.669 219.837C361.932 219.205 361.275 218.731 360.486 218.573C360.026 218.52 359.5 218.889 359.04 219.047C359.106 219.732 359.369 220.206 360.092 220.206ZM346.159 196.612C343.793 196.085 343.136 197.455 340.835 198.508C344.121 198.613 345.37 198.087 346.159 196.612ZM326.245 175.335C326.245 175.335 326.508 175.388 326.573 175.335C326.705 175.283 326.836 175.177 326.902 175.072C328.348 174.335 329.137 173.282 328.874 172.123C328.742 171.491 327.559 171.807 326.771 172.018C325.325 172.966 325.916 174.177 326.245 175.335ZM300.81 128.359C304.294 127.463 301.073 125.831 301.665 124.514C302.322 123.04 300.219 123.514 298.97 123.461C295.552 123.303 293.515 125.251 290.755 126.041C290.755 125.989 290.755 125.989 290.755 125.936C290.689 125.936 290.689 125.989 290.623 125.989C289.9 125.725 289.966 124.462 288.652 125.041C287.994 125.357 287.731 126.094 288.454 126.568C289.637 127.305 289.966 126.357 290.558 125.936C290.623 125.936 290.623 125.936 290.689 125.989C290.689 126.515 290.623 127.042 290.623 127.621C294.238 126.568 297.261 129.254 300.81 128.359ZM280.699 156.218C281.948 157.272 281.882 159.483 283.788 159.483C285.957 159.483 285.957 157.377 286.746 156.113C288.717 153.058 290.755 156.534 293.252 155.902C294.632 152.795 289.44 151.004 290.492 147.792C286.088 149.793 285.103 153.848 279.91 154.954C279.976 155.218 280.173 155.797 280.699 156.218ZM251.847 82.2246C250.401 82.2246 250.138 83.1199 249.612 83.8045C249.678 84.3838 249.81 84.8578 250.73 84.6472C251.65 84.4365 252.701 84.2258 252.636 83.2779C252.701 82.8565 252.636 82.2246 251.847 82.2246ZM261.508 93.9688C259.668 94.4427 257.762 94.4954 258.419 96.1807C258.551 96.5493 259.471 97.0233 259.799 96.9706C262.034 96.5493 261.377 95.2854 261.508 93.9688ZM258.222 104.291C259.011 104.08 260.522 104.238 260.259 103.238C259.997 102.237 258.748 102.448 257.893 102.816C255.922 103.764 254.147 101.394 252.176 102.711C252.11 102.974 252.044 103.238 251.978 103.501C251.255 104.818 248.232 104.502 247.444 105.924C250.927 108.452 252.373 105.186 254.673 104.66C255.988 104.554 257.171 104.554 258.222 104.291ZM258.748 151.162C258.814 151.847 258.814 152.742 260.194 152.479C261.443 152.216 261.377 151.162 261.443 150.372C261.508 149.741 261.377 149.214 259.997 149.372C258.616 149.425 258.682 150.32 258.748 151.162ZM260.259 118.774C260.391 117.194 262.231 116.299 262.494 114.877C262.691 113.455 262.56 112.033 262.56 110.611C260.522 112.612 258.419 112.612 255.396 110.979C255.659 114.297 256.382 117.036 252.241 119.195C250.138 120.248 251.387 123.25 251.65 125.409C259.602 124.462 259.734 124.462 260.259 118.774ZM253.687 156.482C256.513 155.428 256.973 154.006 256.645 152.426C256.645 152.268 255.33 151.952 254.936 152.11C252.767 153.111 253.227 154.638 253.687 156.482ZM254.41 146.528C254.41 147.423 254.739 148.161 256.185 148.477C257.171 147.371 256.579 146.528 255.593 145.685C254.87 143.842 254.147 142.051 253.424 140.208C253.359 139.998 253.096 139.84 252.833 139.629C249.218 141.367 250.138 144.263 249.218 146.739C251.124 147.529 252.701 145.843 254.41 146.528ZM250.007 121.46C247.312 122.829 248.495 124.356 249.087 125.778C251.058 124.462 250.598 123.092 250.007 121.46ZM248.429 141.051C245.735 141.577 246.721 142.841 246.392 144.263C248.627 143.21 248.495 142.209 248.429 141.051ZM236.337 146.949C236.797 146.791 237.257 146.317 237.322 145.949C237.454 145.527 237.257 145.001 236.337 145.159C235.614 145.264 235.351 145.685 235.351 146.265C235.482 146.528 235.351 147.265 236.337 146.949ZM227.201 137.996C227.661 140.05 228.778 141.63 232.262 141.367C232.656 141.841 233.116 142.262 233.51 142.736C232.919 141.314 235.088 139.471 232.393 138.523C231.144 137.364 229.83 136.206 227.661 136.364C226.018 136.469 227.07 137.417 227.201 137.996ZM219.906 150.636C220.3 154.586 219.183 158.746 222.863 163.223C224.178 160.063 224.572 158.167 222.929 156.218C221.483 154.533 222.469 152.742 223.126 151.004C223.521 149.899 222.863 149.003 221.286 148.845C219.38 148.635 219.84 149.898 219.906 150.636ZM141.696 192.135C137.161 193.031 138.739 194.663 140.185 196.559C143.931 201.352 146.757 195.611 150.174 196.507C147.085 195.032 141.696 196.454 141.696 192.135ZM157.798 193.505C156.155 193.768 156.024 194.611 156.418 195.927C158.127 195.559 158.653 194.716 159.047 193.821C158.981 193.768 158.127 193.452 157.798 193.505ZM164.108 195.348C163.385 196.507 164.962 199.14 166.605 199.193C169.3 199.245 168.051 196.454 170.943 195.243C167.722 194.874 165.159 193.61 164.108 195.348ZM173.834 180.023C173.046 180.075 172.191 180.286 172.06 180.918C171.994 181.392 172.52 181.708 173.243 181.761C174.229 181.866 174.82 181.497 174.82 180.865C174.952 180.497 174.755 179.97 173.834 180.023ZM186.848 187.712C186.782 186.553 186.913 185.342 186.65 184.236C186.453 183.498 185.73 183.34 185.139 184.13C184.679 184.13 183.824 184.288 183.759 184.183C182.641 182.393 180.933 180.918 178.172 181.919C175.346 182.919 178.172 184.71 177.909 186.079C177.581 187.975 179.552 188.186 180.998 187.764C185.139 186.448 185.796 188.449 186.387 190.819C187.439 189.608 187.045 188.66 186.848 187.712ZM187.308 162.169C188.688 164.592 186.387 166.593 187.899 168.594C188.162 168.963 188.03 169.595 188.951 169.542C190.265 169.49 190.134 168.752 189.739 168.331C189.082 167.594 189.805 167.225 190.265 166.856C194.406 164.065 190.988 163.381 187.308 162.169ZM194.011 184.236C194.077 182.393 192.894 181.655 190.331 181.866C188.688 182.024 187.57 182.498 188.425 183.604C189.214 184.604 187.636 186.869 191.185 186.553C193.091 186.342 194.931 186.132 194.011 184.236ZM196.574 140.103C196.18 141.367 195.391 142.631 196.903 143.526C197.166 143.684 198.349 143.421 198.612 143.157C200.123 141.472 197.166 141.209 196.574 140.103ZM206.236 115.087C204.264 114.245 203.41 117.404 200.255 117.931C202.752 118.932 204.133 119.511 205.578 120.09C205.71 118.247 208.536 116.088 206.236 115.087ZM203.278 126.357C204.264 124.83 204.33 123.777 203.607 122.724C203.541 122.618 202.555 122.671 202.424 122.776C201.766 123.882 201.635 124.935 203.278 126.357ZM204.33 201.72C201.832 200.404 199.203 200.298 197.1 201.246C196.114 201.72 197.1 203.458 198.48 203.932C201.766 205.144 202.489 202.826 204.33 201.72ZM196.509 208.356C195.129 207.882 193.354 207.356 192.5 208.409C191.514 209.62 193.354 210.252 194.603 210.779C198.875 212.727 198.875 212.727 199.4 216.361C202.095 212.359 201.044 209.989 196.509 208.356ZM185.007 220.522C187.308 220.996 189.608 222.523 192.105 220.943C195.851 222.26 196.837 220.364 198.218 218.362C195.129 218.046 192.5 217.625 189.871 216.73C186.782 215.676 188.359 217.309 188.622 218.099C188.162 218.099 187.702 218.099 187.242 218.046C185.139 218.31 184.744 220.469 185.007 220.522ZM183.759 228.158C182.707 224.419 183.298 221.048 180.932 217.994C177.778 219.837 181.064 223.207 177.975 225.103C179.749 225.999 181.458 226.894 183.759 228.158ZM171.468 226.841C173.44 224.945 172.389 222.102 175.609 220.258C173.834 220.258 172.389 220.258 170.943 220.258C170.154 218.52 174.82 219.679 173.506 217.73C173.046 217.046 172.323 216.414 171.206 216.73C169.76 217.151 168.182 217.678 166.999 218.415C166.342 218.836 166.736 219.784 167.722 220.206C168.248 220.416 168.84 220.627 169.431 220.89C165.422 224.366 165.553 224.629 171.468 226.841ZM161.939 211.779C165.028 211.727 168.117 214.36 170.548 211.463C172.323 212.78 171.14 214.781 173.572 215.94C174.163 212.938 180.144 215.571 180.604 212.253C181.918 212.201 183.167 212.517 184.416 212.78C185.73 213.096 187.899 215.255 188.556 212.833C188.951 211.411 192.697 208.567 186.848 208.04C185.402 207.935 185.664 207.145 185.336 206.513C185.007 205.723 186.125 204.248 183.233 204.459C181.327 204.617 179.947 204.564 179.224 206.092C178.566 207.461 177.909 208.777 177.975 210.252C174.492 209.725 171.534 209.146 170.483 205.881C169.76 203.564 165.619 203.3 162.465 203.142C160.821 203.09 160.559 203.88 161.281 204.828C161.807 205.512 161.807 205.986 160.559 205.934C158.653 205.881 156.484 206.513 154.906 205.249C153.855 204.406 155.169 204.038 155.761 203.564C156.615 203.353 157.535 203.142 158.39 202.879C158.39 202.721 158.39 202.563 158.324 202.458C156.812 202.458 155.301 202.458 153.789 202.458C152.08 204.406 148.991 203.195 146.034 204.248C150.7 208.619 155.958 212.622 157.798 218.204C156.549 214.781 164.765 215.361 161.939 211.779ZM144.391 228.105C145.508 227.421 146.823 226.789 145.705 225.577C145.442 225.261 144.588 224.893 144.062 225.367C142.813 226.262 143.011 227.21 144.391 228.105ZM139.264 222.944C142.485 224.629 146.56 224.682 150.174 222.26C146.362 220.943 145.114 217.783 140.579 216.624C140.447 218.994 134.861 220.68 139.264 222.944ZM135.978 203.037C138.016 202.352 138.147 203.248 138.016 204.354C136.373 209.146 137.096 209.831 144.522 210.041C143.273 207.619 141.63 205.565 139.527 203.669C138.739 202.774 138.081 201.826 137.096 201.088C136.373 200.509 136.176 199.087 134.27 199.877C133.218 200.298 132.166 201.036 132.561 201.826C133.021 202.826 134.204 203.616 135.978 203.037ZM133.481 209.409C132.955 207.988 131.312 207.514 130.129 206.513C128.749 209.199 130.326 209.778 133.481 209.409ZM92.9958 182.656C91.2213 183.498 88.7896 184.025 89.2497 186.026C88.9868 188.396 91.1557 190.819 93.0616 190.345C96.0848 189.608 97.0049 186.606 97.3993 184.288C97.7279 182.182 93.1273 185.184 92.9958 182.656ZM89.9069 193.61C90.4327 194.453 91.1556 195.717 93.1273 194.4C94.1131 193.715 95.6905 193.557 97.0707 193.136C95.4933 192.135 93.7188 191.767 91.8786 192.188C91.0242 192.399 89.1839 192.399 89.9069 193.61ZM105.812 196.665C105.352 195.559 105.549 194.084 103.117 194.242C101.343 194.347 100.817 195.401 100.751 196.612C101.277 197.455 100.751 198.982 103.249 198.455C104.497 198.192 106.535 198.455 105.812 196.665ZM119.745 204.09C120.074 201.826 115.802 198.982 111.135 198.719C112.91 200.878 115.736 202.142 114.947 204.722C114.619 205.828 116.262 205.828 117.445 205.881C119.285 205.986 119.613 205.091 119.745 204.09ZM115.736 227.421C116.985 227.579 117.576 227.21 117.116 226.209C116.262 224.471 116.196 222.207 113.107 221.733C111.267 221.47 111.004 222.944 110.807 223.945C111.267 226.051 113.041 227.105 115.736 227.421ZM111.201 178.548C111.99 178.601 113.041 178.653 112.91 177.758C112.844 177.126 112.778 176.178 111.332 176.336C110.609 176.441 110.084 176.968 109.558 177.231C109.624 178.232 110.347 178.495 111.201 178.548ZM107.06 222.418C107.652 222.786 108.178 223.418 109.098 222.734C109.886 222.154 109.492 221.628 108.966 221.154C107.389 219.89 105.286 219.363 102.788 219.574C104.169 220.574 105.615 221.47 107.06 222.418ZM93.9159 210.726C88.5267 211.516 89.5125 215.782 86.3579 217.783C86.0293 217.994 86.6208 218.678 87.3437 218.836C89.1839 220.996 90.9584 221.838 93.9816 219.468C96.1505 217.73 99.1737 216.519 102.46 214.676C98.4508 214.518 95.7562 214.676 93.7845 216.993C92.8644 218.099 91.1556 219.258 88.7896 218.784C92.1415 215.044 94.4417 210.41 103.38 211.042C100.751 209.093 95.6247 208.356 100.094 205.46C100.16 205.407 99.5681 204.67 99.108 204.354C96.5449 202.352 93.9159 200.404 91.0241 198.245C89.0525 201.299 87.3437 204.038 85.6349 206.671C86.4893 208.04 89.1183 205.67 89.1183 207.408C89.1183 209.409 85.7007 209.357 83.9919 210.515C88.2638 212.938 91.287 208.461 95.2304 209.357C95.4276 210.252 94.5732 210.673 93.9159 210.726ZM68.6785 175.493C70.3873 175.388 69.5986 175.072 69.27 174.282C68.2185 171.544 70.6502 169.858 74.8564 170.385C76.6309 170.596 77.6168 169.806 78.997 169.437C77.0253 169.279 77.0253 165.593 73.7392 167.91C73.2134 167.33 72.6876 166.698 72.1618 166.119C71.8989 165.329 73.1477 164.276 71.5046 163.749C70.9131 163.591 70.4531 164.065 70.4531 164.645C69.0072 166.277 67.3641 166.962 65.1296 165.329C64.2752 163.697 65.7868 162.538 67.1669 161.327C64.9324 160.695 63.9465 161.221 63.4207 162.485C60.5289 164.75 63.0264 168.226 59.9375 170.49C59.806 170.596 59.8717 171.017 59.9375 171.017C64.7352 171.702 64.7352 173.756 62.9607 176.389C62.895 176.547 63.8808 177.337 64.3408 176.705C65.3267 175.23 67.1012 175.599 68.6785 175.493ZM60.7918 229.843C62.0405 229.896 63.6836 230.212 64.3408 229.106C65.0638 227.895 63.6836 227.105 62.6321 226.367C61.4491 225.525 60.2003 225.209 58.6887 226.104C57.1771 226.999 55.4026 227.684 53.2995 228.632C55.8627 229.633 58.3601 229.791 60.7918 229.843ZM40.0235 235.004C40.9436 235.426 41.2066 236.532 41.7981 237.374C44.4927 236.742 44.4927 235.057 45.0842 234.162C45.1499 232.582 38.972 234.162 42.981 231.002C43.704 230.423 41.9295 230.107 41.2066 229.791C40.4836 229.475 39.3663 229.422 39.432 230.317C39.5635 231.792 36.6717 233.53 40.0235 235.004ZM19.321 236.268C19.6496 236.426 20.1754 236.69 20.7669 236.795C21.227 236.848 21.7527 236.584 21.5555 236.163C21.3584 235.584 20.6354 235.531 19.9782 235.531C19.5838 235.531 19.0581 235.531 19.321 236.268Z" fill="#161654"/>
</svg>
