<svg width="1122" height="1010" viewBox="0 0 1122 1010" fill="none" xmlns="http://www.w3.org/2000/svg">
<path d="M137.186 400.941L77.3496 39.6825H1046.74L985.865 400.941H137.186Z" fill="#E6988C"/>
<path d="M113.993 567.795L51.6611 948.251H1061.57L998.136 567.795H113.993Z" fill="#E6988C"/>
<path opacity="0.3" d="M137.186 400.941L77.3496 39.6825H1046.74L985.865 400.941H137.186Z" fill="#A54A3F"/>
<path opacity="0.3" d="M113.993 567.795L51.6611 948.251H1061.57L998.136 567.795H113.993Z" fill="#A54A3F"/>
<path d="M1033.8 451.473L992.699 567.795H130.342L89.2363 451.473H1033.8Z" fill="#D37A72" stroke="#C2726B" stroke-width="1.9087" stroke-miterlimit="10"/>
<path d="M137.186 401.078L89.6608 451.4L89.2466 451.473L88.6461 447.722L22.8143 39.6825L22.7314 39.1781L70.7023 1.58118H72.7421L78.8924 39.6825L137.166 400.941L137.186 401.078Z" fill="#E6988C" stroke="#C2726B" stroke-width="1.9087" stroke-miterlimit="10"/>
<path d="M89.2466 451.473L101.92 536.933L3.11035 949.155L70.1639 949.491L163.496 567.795L89.2466 451.473Z" fill="#D37A72" stroke="#C2726B" stroke-width="1.9087" stroke-miterlimit="10"/>
<path d="M1033.8 451.473H89.2363L89.6608 451.4L137.176 401.078L137.166 400.941H985.886L985.866 401.078L1033.38 451.4L1033.8 451.473Z" fill="#E6988C" stroke="#C2726B" stroke-width="1.9087" stroke-miterlimit="10"/>
<path d="M985.866 401.078L1033.38 451.4L1033.8 451.473L1034.4 447.722L1100.23 39.6825L1100.31 39.1781L1052.35 1.58118H1050.3L1044.15 39.6825L985.886 400.941L985.866 401.078Z" fill="#E6988C" stroke="#C2726B" stroke-width="1.9087" stroke-miterlimit="10"/>
<path d="M1033.8 451.473L1021.13 536.933L1119.93 949.155L1052.88 949.491L959.556 567.795L1033.8 451.473Z" fill="#D37A72" stroke="#C2726B" stroke-width="1.9087" stroke-miterlimit="10"/>
<path d="M1100.31 39.1781L1100.24 39.6825H22.8039L22.7314 39.1781L70.7023 1.58118H1052.35L1100.31 39.1781Z" fill="#E6988C" stroke="#C2726B" stroke-width="1.9087" stroke-miterlimit="10"/>
<path d="M1119.94 948.251V948.713L1069.3 1008.42H54.0736L3.05859 948.251H1119.94Z" fill="#E6988C" stroke="#C2726B" stroke-width="1.9087" stroke-miterlimit="10"/>
<path d="M840.274 195.889V259.037C840.274 264.734 836.152 269.346 831.061 269.346H823.753C818.661 269.346 814.54 273.958 814.54 279.654V287.832C814.54 293.528 810.418 298.14 805.327 298.14H316.891C311.799 298.14 307.677 293.528 307.677 287.832V279.654C307.677 273.958 303.556 269.346 298.464 269.346H291.156C286.065 269.346 281.943 264.734 281.943 259.037V195.889C281.943 190.192 286.065 185.58 291.156 185.58H298.464C303.556 185.58 307.677 180.968 307.677 175.271V167.094C307.677 161.398 311.799 156.786 316.891 156.786H805.327C810.418 156.786 814.54 161.398 814.54 167.094V175.271C814.54 180.968 818.661 185.58 823.753 185.58H831.061C836.152 185.58 840.274 190.192 840.274 195.889Z" stroke="#F7F4D3" stroke-width="1.0501" stroke-miterlimit="10"/>
<path d="M855.614 190.816V264.111C855.614 270.717 851.258 276.077 845.889 276.077H838.18C832.81 276.077 828.454 281.437 828.454 288.044V297.53C828.454 304.136 824.098 309.496 818.729 309.496H303.478C298.108 309.496 293.752 304.136 293.752 297.53V288.044C293.752 281.437 289.397 276.077 284.027 276.077H276.318C270.948 276.077 266.592 270.717 266.592 264.111V190.816C266.592 184.209 270.948 178.849 276.318 178.849H284.027C289.397 178.849 293.752 173.489 293.752 166.882V157.396C293.752 150.79 298.108 145.43 303.478 145.43H818.74C824.109 145.43 828.465 150.79 828.465 157.396V166.882C828.465 173.489 832.821 178.849 838.191 178.849H845.9C851.258 178.849 855.614 184.209 855.614 190.816Z" stroke="#F7F4D3" stroke-width="1.162" stroke-miterlimit="10"/>
<path d="M828.353 232.075C830.63 232.075 832.475 230.01 832.475 227.463C832.475 224.916 830.63 222.851 828.353 222.851C826.077 222.851 824.231 224.916 824.231 227.463C824.231 230.01 826.077 232.075 828.353 232.075Z" fill="#F7F4D3"/>
<path d="M293.864 232.075C296.14 232.075 297.986 230.01 297.986 227.463C297.986 224.916 296.14 222.851 293.864 222.851C291.587 222.851 289.742 224.916 289.742 227.463C289.742 230.01 291.587 232.075 293.864 232.075Z" fill="#F7F4D3"/>
</svg>
