<?xml version="1.0" encoding="UTF-8"?>
<svg xmlns="http://www.w3.org/2000/svg" xmlns:xlink="http://www.w3.org/1999/xlink" width="135px" height="72px" viewBox="0 0 135 72" version="1.1">
<g id="surface1">
<path style=" stroke:none;fill-rule:nonzero;fill:rgb(0%,0%,0%);fill-opacity:1;" d="M 34.058594 60.113281 C 36.777344 57.847656 37.246094 55.042969 37.246094 52.53125 L 37.246094 41.953125 L 22.484375 41.953125 L 22.484375 56.304688 C 22.484375 58.355469 20.820312 60.019531 18.773438 60.019531 C 16.71875 60.019531 15.195312 58.359375 15.195312 56.304688 L 15.195312 15.644531 C 15.195312 13.59375 16.71875 11.929688 18.773438 11.929688 C 20.816406 11.929688 22.484375 13.589844 22.484375 15.644531 L 22.484375 30.085938 L 37.226562 30.085938 L 37.226562 15.105469 C 37.226562 6.828125 31.820312 0.0195312 18.644531 0 C 5.117188 0 0.0078125 6.84375 0.0078125 15.121094 L 0.0078125 57.566406 C 0.0078125 65.773438 6.519531 71.980469 14.84375 71.980469 L 19.417969 71.980469 L 34.058594 60.113281 M 92.261719 61.78125 L 92.261719 15.132812 L 82.078125 15.132812 L 82.078125 1.390625 L 118.949219 1.390625 L 118.949219 15.132812 L 108.707031 15.132812 L 108.707031 71.902344 L 104.34375 71.902344 L 92.261719 61.78125 "/>
<path style=" stroke:none;fill-rule:nonzero;fill:rgb(96.470588%,82.745098%,23.529412%);fill-opacity:1;" d="M 98.871094 72 L 62.960938 41.910156 L 25.753906 72 L 98.871094 72 "/>
<path style=" stroke:none;fill-rule:nonzero;fill:rgb(0%,0%,0%);fill-opacity:1;" d="M 73.214844 1.46875 L 52.636719 1.46875 L 40.652344 55.25 L 62.972656 37.238281 L 86.242188 56.738281 Z M 58.988281 33.792969 L 62.972656 13.460938 L 66.917969 33.792969 Z M 130.148438 3.628906 C 131.296875 3.628906 132.277344 4.035156 133.089844 4.851562 C 133.894531 5.664062 134.300781 6.640625 134.300781 7.789062 C 134.300781 8.949219 133.894531 9.933594 133.089844 10.746094 C 132.28125 11.5625 131.300781 11.972656 130.148438 11.972656 C 128.996094 11.972656 128.011719 11.5625 127.207031 10.746094 C 126.417969 9.964844 125.980469 8.902344 126.003906 7.789062 C 126.003906 6.644531 126.40625 5.664062 127.214844 4.851562 C 127.980469 4.058594 129.042969 3.613281 130.148438 3.628906 Z M 134.996094 7.78125 C 134.996094 6.449219 134.523438 5.316406 133.578125 4.382812 C 132.636719 3.445312 131.5 2.976562 130.160156 2.976562 C 128.882812 2.957031 127.652344 3.464844 126.761719 4.382812 C 125.839844 5.269531 125.328125 6.5 125.347656 7.78125 C 125.347656 9.121094 125.8125 10.261719 126.746094 11.203125 C 127.6875 12.152344 128.824219 12.621094 130.160156 12.621094 C 131.5 12.621094 132.636719 12.152344 133.578125 11.203125 C 134.523438 10.261719 134.996094 9.117188 134.996094 7.78125 Z M 131.441406 6.746094 C 131.441406 7.152344 131.253906 7.425781 130.890625 7.566406 C 130.597656 7.660156 130.296875 7.699219 129.992188 7.683594 L 129.144531 7.683594 L 129.144531 5.78125 L 129.945312 5.78125 C 130.992188 5.78125 131.441406 5.980469 131.441406 6.746094 Z M 128.207031 5.128906 L 128.207031 10.414062 L 129.144531 10.414062 L 129.144531 8.339844 L 129.882812 8.339844 C 130.378906 8.339844 130.730469 8.394531 130.925781 8.507812 C 131.261719 8.703125 131.425781 9.109375 131.425781 9.714844 L 131.425781 10.132812 L 131.445312 10.304688 C 131.449219 10.324219 131.457031 10.34375 131.457031 10.363281 L 131.472656 10.414062 L 132.34375 10.414062 L 132.308594 10.351562 C 132.253906 9.933594 132.25 9.296875 132.25 9.296875 C 132.238281 8.621094 131.738281 8.054688 131.066406 7.964844 C 132.003906 7.808594 132.34375 7.386719 132.34375 6.660156 C 132.34375 5.992188 132.070312 5.542969 131.519531 5.316406 C 131.210938 5.183594 130.730469 5.125 130.070312 5.125 L 128.207031 5.125 Z M 128.207031 5.128906 "/>
</g>
</svg>
