<?xml version="1.0" encoding="UTF-8"?>
<svg xmlns="http://www.w3.org/2000/svg" xmlns:xlink="http://www.w3.org/1999/xlink" width="113px" height="60px" viewBox="0 0 112 60" version="1.1">
<g id="surface1">
<path style=" stroke:none;fill-rule:nonzero;fill:rgb(0%,0%,0%);fill-opacity:1;" d="M 28.257812 50.09375 C 30.511719 48.207031 30.902344 45.871094 30.902344 43.777344 L 30.902344 34.960938 L 18.652344 34.960938 L 18.652344 46.921875 C 18.652344 48.628906 17.273438 50.015625 15.574219 50.015625 C 13.871094 50.015625 12.605469 48.632812 12.605469 46.921875 L 12.605469 13.035156 C 12.605469 11.328125 13.871094 9.941406 15.574219 9.941406 C 17.269531 9.941406 18.652344 11.324219 18.652344 13.035156 L 18.652344 25.070312 L 30.882812 25.070312 L 30.882812 12.589844 C 30.882812 5.691406 26.398438 0.015625 15.46875 0 C 4.246094 0 0.0078125 5.703125 0.0078125 12.601562 L 0.0078125 47.972656 C 0.0078125 54.8125 5.410156 59.984375 12.316406 59.984375 L 16.109375 59.984375 L 28.257812 50.09375 M 76.542969 51.484375 L 76.542969 12.609375 L 68.09375 12.609375 L 68.09375 1.160156 L 98.683594 1.160156 L 98.683594 12.609375 L 90.1875 12.609375 L 90.1875 59.917969 L 86.566406 59.917969 L 76.542969 51.484375 "/>
<path style=" stroke:none;fill-rule:nonzero;fill:rgb(96.470588%,82.745098%,23.529412%);fill-opacity:1;" d="M 82.027344 60 L 52.234375 34.925781 L 21.367188 60 L 82.027344 60 "/>
<path style=" stroke:none;fill-rule:nonzero;fill:rgb(0%,0%,0%);fill-opacity:1;" d="M 60.742188 1.222656 L 43.667969 1.222656 L 33.726562 46.042969 L 52.242188 31.03125 L 71.550781 47.28125 Z M 48.9375 28.160156 L 52.242188 11.21875 L 55.515625 28.160156 Z M 107.976562 3.023438 C 108.929688 3.023438 109.742188 3.363281 110.414062 4.042969 C 111.082031 4.71875 111.417969 5.535156 111.417969 6.492188 C 111.417969 7.457031 111.082031 8.277344 110.414062 8.957031 C 109.746094 9.636719 108.929688 9.976562 107.976562 9.976562 C 107.019531 9.976562 106.203125 9.636719 105.535156 8.957031 C 104.878906 8.304688 104.515625 7.417969 104.535156 6.492188 C 104.535156 5.535156 104.871094 4.71875 105.542969 4.042969 C 106.175781 3.382812 107.058594 3.011719 107.976562 3.023438 Z M 111.996094 6.484375 C 111.996094 5.375 111.605469 4.429688 110.820312 3.652344 C 110.039062 2.871094 109.097656 2.480469 107.984375 2.480469 C 106.925781 2.464844 105.902344 2.886719 105.164062 3.652344 C 104.402344 4.390625 103.976562 5.417969 103.992188 6.484375 C 103.992188 7.601562 104.378906 8.550781 105.152344 9.335938 C 105.933594 10.128906 106.875 10.519531 107.984375 10.519531 C 109.097656 10.519531 110.039062 10.128906 110.820312 9.335938 C 111.605469 8.550781 111.996094 7.597656 111.996094 6.484375 Z M 109.046875 5.621094 C 109.046875 5.960938 108.890625 6.1875 108.589844 6.304688 C 108.347656 6.382812 108.097656 6.417969 107.84375 6.402344 L 107.140625 6.402344 L 107.140625 4.816406 L 107.804688 4.816406 C 108.675781 4.816406 109.046875 4.984375 109.046875 5.621094 Z M 106.363281 4.273438 L 106.363281 8.679688 L 107.140625 8.679688 L 107.140625 6.949219 L 107.753906 6.949219 C 108.167969 6.949219 108.457031 6.996094 108.621094 7.089844 C 108.898438 7.253906 109.035156 7.589844 109.035156 8.097656 L 109.035156 8.445312 L 109.050781 8.585938 C 109.054688 8.605469 109.0625 8.621094 109.0625 8.636719 L 109.074219 8.679688 L 109.796875 8.679688 L 109.765625 8.625 C 109.722656 8.277344 109.71875 7.746094 109.71875 7.746094 C 109.707031 7.183594 109.292969 6.710938 108.738281 6.636719 C 109.515625 6.507812 109.796875 6.15625 109.796875 5.550781 C 109.796875 4.992188 109.570312 4.621094 109.113281 4.429688 C 108.855469 4.320312 108.457031 4.269531 107.910156 4.269531 L 106.363281 4.269531 Z M 106.363281 4.273438 "/>
</g>
</svg>
