<svg width="1440" height="1024" viewBox="0 0 1440 1024" fill="none" xmlns="http://www.w3.org/2000/svg">
<path d="M1439.9 -69H0V561.7H1439.9V-69Z" fill="#C9D070"/>
<path d="M1460 551H-25V572H1460V551Z" fill="#E8D7A8"/>
<path d="M476.19 952.35C496.729 952.35 513.38 944.546 513.38 934.92C513.38 925.294 496.729 917.49 476.19 917.49C455.65 917.49 439 925.294 439 934.92C439 944.546 455.65 952.35 476.19 952.35Z" fill="#C96B28"/>
<path d="M476.19 654V930.46" stroke="#C96B28" stroke-width="13" stroke-miterlimit="10"/>
<path d="M317.5 680.5C316.611 679.019 315 663 315 663H637C637 663 636.083 679.065 634.5 681C630 686.5 603.092 699.374 579.5 704C554 709 515.069 714.05 474.5 713.5C438.161 713.008 402.961 709.957 367.5 702C340.266 695.889 320.5 685.5 317.5 680.5Z" fill="#BED0BE"/>
<path d="M476 702C564.918 702 637 684.539 637 663C637 641.461 564.918 624 476 624C387.082 624 315 641.461 315 663C315 684.539 387.082 702 476 702Z" fill="#D8ECD8"/>
<path d="M134.927 737.48L85.8773 545.48C75.7517 498 107.987 458.65 148.877 448.34C196.007 436.46 241.877 471.11 247.417 522.78L263.247 723.9L134.927 737.48Z" stroke="#C96B28" stroke-width="10" stroke-miterlimit="10"/>
<path d="M135.228 947.611V733.121" stroke="#C96B28" stroke-width="10" stroke-miterlimit="10"/>
<path d="M259.252 916.27V692" stroke="#C96B28" stroke-width="10" stroke-miterlimit="10"/>
<path d="M205.252 988.12V770" stroke="#C96B28" stroke-width="10" stroke-miterlimit="10"/>
<path d="M341.252 954.45V736" stroke="#C96B28" stroke-width="10" stroke-miterlimit="10"/>
<path d="M259.752 694.5C259.752 694.5 192.697 626.376 158.752 577C136.752 545 126.252 518 130.252 485C132.451 466.856 141.252 451 158.752 449C176.635 446.956 190.752 466 194.252 478C204.009 511.455 207.111 532.736 200.752 567C197.765 583.091 188.252 607 188.252 607L135.252 724" stroke="#C96B28" stroke-width="10"/>
<path d="M128.477 748.928C127.995 747.087 128.277 727.568 128.277 727.568L348.907 746.598C348.907 746.598 347.432 762.829 346.177 765.099C342.609 771.553 323.01 785.855 306.403 790.311C288.454 795.126 261.275 799.343 233.456 796.684C208.537 794.303 184.623 788.872 160.956 777.475C142.779 768.722 130.104 755.144 128.477 748.928Z" fill="#BED0BE"/>
<path d="M349.169 744.666C351.332 716.868 303.647 690.486 242.661 685.739C181.675 680.993 130.483 699.681 128.319 727.479C126.156 755.278 173.841 781.66 234.827 786.406C295.813 791.153 347.005 772.465 349.169 744.666Z" fill="#D8ECD8"/>
<path d="M811.159 744.481L860.209 552.48C870.334 505 838.099 465.65 797.209 455.34C750.079 443.46 704.209 478.11 698.669 529.78L682.839 730.901L811.159 744.481Z" stroke="#C96B28" stroke-width="10" stroke-miterlimit="10"/>
<path d="M810.858 954.611V740.121" stroke="#C96B28" stroke-width="10" stroke-miterlimit="10"/>
<path d="M686.834 923.271V699" stroke="#C96B28" stroke-width="10" stroke-miterlimit="10"/>
<path d="M740.834 995.12V777" stroke="#C96B28" stroke-width="10" stroke-miterlimit="10"/>
<path d="M604.834 961.45V743" stroke="#C96B28" stroke-width="10" stroke-miterlimit="10"/>
<path d="M686.334 701.501C686.334 701.501 753.389 633.376 787.334 584C809.334 552 819.834 525 815.834 492C813.635 473.856 804.834 458 787.334 456C769.451 453.957 755.334 473 751.834 485C742.077 518.456 738.975 539.736 745.334 574C748.321 590.092 757.834 614 757.834 614L810.834 731.001" stroke="#C96B28" stroke-width="10"/>
<path d="M817.609 755.928C818.091 754.087 817.809 734.568 817.809 734.568L597.179 753.599C597.179 753.599 598.654 769.829 599.909 772.099C603.477 778.553 623.076 792.855 639.683 797.311C657.632 802.126 684.811 806.343 712.63 803.684C737.548 801.303 761.463 795.872 785.13 784.475C803.307 775.722 815.982 762.144 817.609 755.928Z" fill="#BED0BE"/>
<path d="M596.917 751.666C594.754 723.868 642.439 697.485 703.425 692.739C764.41 687.993 815.603 706.681 817.766 734.479C819.93 762.278 772.245 788.66 711.259 793.406C650.273 798.153 599.08 779.465 596.917 751.666Z" fill="#D8ECD8"/>
<path d="M1357.19 950.35C1377.73 950.35 1394.38 942.546 1394.38 932.92C1394.38 923.294 1377.73 915.49 1357.19 915.49C1336.65 915.49 1320 923.294 1320 932.92C1320 942.546 1336.65 950.35 1357.19 950.35Z" fill="#C96B28"/>
<path d="M1357.19 652V928.46" stroke="#C96B28" stroke-width="13" stroke-miterlimit="10"/>
<path d="M1198.5 678.5C1197.61 677.019 1196 661 1196 661H1518C1518 661 1517.08 677.065 1515.5 679C1511 684.5 1484.09 697.374 1460.5 702C1435 707 1396.07 712.05 1355.5 711.5C1319.16 711.008 1283.96 707.957 1248.5 700C1221.27 693.889 1201.5 683.5 1198.5 678.5Z" fill="#BED0BE"/>
<path d="M1357 700C1445.92 700 1518 682.539 1518 661C1518 639.461 1445.92 622 1357 622C1268.08 622 1196 639.461 1196 661C1196 682.539 1268.08 700 1357 700Z" fill="#D8ECD8"/>
<ellipse cx="1357" cy="658.5" rx="54" ry="13.5" fill="#DBCB9B"/>
<path d="M1011.93 737.48L962.877 545.48C952.752 498 984.987 458.65 1025.88 448.34C1073.01 436.46 1118.88 471.11 1124.42 522.78L1140.25 723.9L1011.93 737.48Z" stroke="#C96B28" stroke-width="10" stroke-miterlimit="10"/>
<path d="M1012.23 947.611V733.121" stroke="#C96B28" stroke-width="10" stroke-miterlimit="10"/>
<path d="M1136.25 916.27V692" stroke="#C96B28" stroke-width="10" stroke-miterlimit="10"/>
<path d="M1082.25 988.12V770" stroke="#C96B28" stroke-width="10" stroke-miterlimit="10"/>
<path d="M1218.25 954.45V736" stroke="#C96B28" stroke-width="10" stroke-miterlimit="10"/>
<path d="M1136.75 694.5C1136.75 694.5 1069.7 626.376 1035.75 577C1013.75 545 1003.25 518 1007.25 485C1009.45 466.856 1018.25 451 1035.75 449C1053.64 446.956 1067.75 466 1071.25 478C1081.01 511.455 1084.11 532.736 1077.75 567C1074.77 583.091 1065.25 607 1065.25 607L1012.25 724" stroke="#C96B28" stroke-width="10"/>
<path d="M1005.48 748.928C1004.99 747.087 1005.28 727.568 1005.28 727.568L1225.91 746.598C1225.91 746.598 1224.43 762.829 1223.18 765.099C1219.61 771.553 1200.01 785.855 1183.4 790.311C1165.45 795.126 1138.27 799.343 1110.46 796.684C1085.54 794.303 1061.62 788.872 1037.96 777.475C1019.78 768.722 1007.1 755.144 1005.48 748.928Z" fill="#BED0BE"/>
<path d="M1226.17 744.666C1228.33 716.868 1180.65 690.486 1119.66 685.739C1058.68 680.993 1007.48 699.681 1005.32 727.479C1003.16 755.278 1050.84 781.66 1111.83 786.406C1172.81 791.153 1224.01 772.465 1226.17 744.666Z" fill="#D8ECD8"/>
<ellipse cx="476.5" cy="663.5" rx="59.5" ry="13.5" fill="#DBCB9B"/>
<path d="M475.733 634.737C483.633 634.737 490.037 626.961 490.037 617.368C490.037 607.776 483.633 600 475.733 600C467.833 600 461.429 607.776 461.429 617.368C461.429 626.961 467.833 634.737 475.733 634.737Z" fill="#9B2227"/>
<path d="M475.859 600V634.876C483.707 634.737 490.037 627.095 490.037 617.507C490.037 607.92 483.707 600 475.859 600Z" fill="#A44A3F"/>
<path d="M505.353 666H446.999C443.708 666 441.049 663.082 441.049 659.47V614.312H511.429V659.47C511.302 662.943 508.644 666 505.353 666Z" fill="#C96928"/>
<path d="M511.302 635.848H440.923V650.16H511.302V635.848Z" fill="#F19B79"/>
<path d="M440.923 614.173H511.302V625.01C511.302 625.01 507.505 627.512 503.707 621.12C499.91 614.728 496.619 623.343 495.226 625.01C493.961 626.678 489.277 628.067 488.391 623.482C487.758 620.008 487.125 617.785 484.973 617.646C483.581 617.507 482.315 618.48 481.682 619.731C481.049 621.12 479.91 622.787 478.771 622.232C477.252 621.398 475.606 617.785 473.328 619.314C472.568 619.731 472.062 620.703 471.935 621.537C471.556 623.621 470.543 627.789 467.632 627.373C464.72 626.956 463.708 622.371 463.454 620.425C463.328 619.453 462.821 618.619 461.935 618.202C461.049 617.785 459.784 618.063 458.265 620.286C455.227 624.733 452.695 624.455 450.543 622.093C448.644 620.008 448.138 618.758 446.366 619.175C445.733 619.314 445.1 619.869 444.594 620.425C443.328 622.232 440.416 626.122 440.037 622.926C439.784 619.314 440.923 614.173 440.923 614.173Z" fill="#E8D7A5"/>
<path d="M1335.9 660.9C1335.3 660.9 1335.2 660 1335.2 660C1335.2 660 1331.2 629.9 1331.8 628.3C1332.4 626.7 1374.7 626.9 1382.7 628.1C1385.8 628.6 1382.5 658 1380.8 659.9C1379.3 661.5 1342.3 661.1 1335.9 660.9Z" fill="#ED9B22"/>
<path d="M1382.7 628.1C1377.7 627.4 1359.2 627 1345.9 627.2C1345.9 627.3 1345.9 627.3 1345.9 627.4C1346.5 630.4 1347.9 631.6 1347.9 631.6C1347.9 631.6 1355.5 622.1 1359 623.7C1362.5 625.3 1377.3 626 1380.2 625.2C1383.2 624.4 1381.2 626.3 1382.7 628.1C1384.3 629.8 1379.5 651.2 1376.3 655.1C1373.2 658.8 1348.7 660.6 1335 658.3C1335.1 659.4 1335.2 660.1 1335.2 660.1C1335.2 660.1 1335.3 661 1335.9 661C1342.3 661.2 1379.4 661.7 1380.9 660C1382.5 658 1385.9 628.5 1382.7 628.1Z" fill="#C26028"/>
<path d="M1332.6 638.6C1332.6 638.6 1333 630.3 1335.9 630.1C1338.7 629.9 1339 635.8 1344.8 633.6C1350.6 631.3 1348.4 628 1355.8 630.3C1363.2 632.6 1364.2 636.4 1369.9 633.1C1375.5 629.8 1378.2 628.9 1380.1 631.9C1382 634.9 1382.3 640.9 1385.3 639.2C1388.3 637.5 1389.2 621.5 1383.6 619.2C1378 616.9 1333.9 614.7 1329.6 618.5C1325.2 622.3 1326.5 638.9 1332.6 638.6Z" fill="#E7D6A4"/>
<path d="M1357.9 609.6C1357.9 609.6 1356.5 602.8 1363 600C1363 600 1365.6 600.1 1363.6 601.8C1361.6 603.5 1359.6 603.8 1359.1 609.2C1358.6 614.5 1357.9 609.6 1357.9 609.6Z" fill="#78AC42"/>
<path d="M1357.9 623.5C1362.1 623.5 1365.5 620.053 1365.5 615.8C1365.5 611.548 1362.1 608.1 1357.9 608.1C1353.7 608.1 1350.3 611.548 1350.3 615.8C1350.3 620.053 1353.7 623.5 1357.9 623.5Z" fill="#9B2228"/>
<rect x="-21.5" y="153.5" width="301" height="246" fill="url(#paint0_linear_0_1)" stroke="#F7F4D3" stroke-width="7"/>
<rect x="1189.5" y="153.5" width="301" height="246" fill="#F19B79" stroke="#F7F4D3" stroke-width="7"/>
<rect x="386.5" y="153.5" width="301" height="246" fill="url(#paint1_linear_0_1)" stroke="#F7F4D3" stroke-width="7"/>
<path d="M446.687 286.021H437.765C436.496 286.021 435.467 287.062 435.467 288.345V295.805C435.467 297.088 436.496 298.129 437.765 298.129H446.687C447.957 298.129 448.986 297.088 448.986 295.805V288.345C448.986 287.062 447.957 286.021 446.687 286.021Z" fill="#E6988E"/>
<path d="M609.606 289.118C609.606 289.118 586.988 322.27 583.527 325.193C582.331 326.213 580.016 326.666 577.335 326.834C577.296 326.772 577.258 326.711 577.224 326.649L577.152 326.504C577.129 326.464 577.108 326.423 577.091 326.381C577.064 326.326 577.04 326.27 577.019 326.212V326.212L576.953 326.039C576.914 325.927 576.881 325.815 576.848 325.697C576.832 325.648 576.819 325.597 576.809 325.546C576.781 325.423 576.754 325.294 576.737 325.16C576.709 325.008 576.692 324.855 576.687 324.701V324.594C576.687 324.476 576.687 324.37 576.687 324.258C576.687 323.972 576.687 323.698 576.687 323.407C576.684 323.375 576.684 323.343 576.687 323.312C576.687 323.149 576.687 322.987 576.687 322.819C576.687 322.545 576.687 322.259 576.726 322.007V321.951L576.776 321.245C576.776 321.15 576.776 321.06 576.776 320.965C576.776 320.68 576.82 320.405 576.848 320.108C576.848 320.052 576.848 319.996 576.848 319.946L576.931 319.224C576.931 319.128 576.931 319.028 576.964 318.938C576.997 318.652 577.03 318.378 577.075 318.092C577.119 317.807 577.152 317.532 577.202 317.236C577.202 317.146 577.202 317.056 577.241 316.972C577.274 316.76 577.313 316.558 577.346 316.351L577.413 316.015C577.44 315.858 577.473 315.701 577.507 315.539C577.562 315.225 577.629 314.917 577.701 314.609C577.773 314.301 577.839 313.993 577.917 313.691C577.994 313.388 578.05 313.17 578.116 312.918C582.403 296.807 595.235 288.664 608.222 288.424H609.108L609.606 289.118Z" fill="#E6988E"/>
<path d="M433.75 317.426C433.527 317.407 433.311 317.342 433.113 317.236C432.916 317.13 432.742 316.985 432.601 316.809C432.46 316.634 432.356 316.431 432.295 316.214C432.233 315.997 432.216 315.769 432.244 315.545C433.351 307.044 438.69 278.54 460.428 273.466C486.042 267.491 529.834 267.088 530.21 267.026C531.041 266.892 533.317 268.213 532.791 272.324C532.47 274.816 503.117 295.664 535.089 311.613C540.074 314.105 554.634 314.296 561.191 312.733C563.772 312.106 583.056 313.097 585.742 275.387C586.296 267.608 572.251 243.024 567.405 232.132C566.724 230.592 565.528 226.779 567.499 225.412C569.471 224.046 577.667 218.86 581.345 217.303C582.979 216.62 587.066 215.651 588.423 217.511C589.78 219.37 589.281 232.575 587.182 234.21C585.083 235.845 582.198 236.315 581.234 238.063C581.007 238.46 597.295 269.479 597.295 269.479C597.295 269.479 604.379 272.318 603.897 279.856C603.897 280.225 609.612 289.168 609.612 289.168C609.612 289.168 586.988 322.315 583.532 325.249C580.077 328.184 567.322 326.459 563.19 326.459C560.078 326.459 490.578 328.632 490.578 328.632C490.578 328.632 487.809 318.289 484.879 315.321C482.57 312.941 444.262 318.171 433.75 317.426Z" fill="#E6988E"/>
<path d="M529.357 270.078C513.252 272.777 460.971 278.058 451.905 278.058C449.407 278.058 449.939 272.738 448.471 268.712C447.762 266.774 446.655 264.041 446.915 262.121C475.681 265.547 504.787 264.704 533.312 259.617C534.08 260.669 534.605 261.883 534.846 263.168C535.344 266.108 533.273 269.406 529.357 270.078Z" fill="#C86927"/>
<path d="M533.295 259.606C504.77 264.692 475.664 265.536 446.898 262.109C446.898 262.048 446.898 261.986 446.898 261.93C446.898 261.874 446.898 261.835 446.937 261.785C447.524 259.909 452.708 258.072 455.3 257.831C466.31 256.823 471.294 255.546 482.132 257.047C496.715 259.069 511.729 255.216 526.799 256.089C528.876 256.178 530.849 257.04 532.337 258.509C532.683 258.849 533.004 259.216 533.295 259.606V259.606Z" fill="#C86927"/>
<path d="M466.332 352.914C480.735 352.914 492.411 341.107 492.411 326.543C492.411 311.979 480.735 300.173 466.332 300.173C451.928 300.173 440.252 311.979 440.252 326.543C440.252 341.107 451.928 352.914 466.332 352.914Z" fill="#08151B"/>
<path d="M466.332 345.662C476.774 345.662 485.24 337.102 485.24 326.543C485.24 315.984 476.774 307.425 466.332 307.425C455.889 307.425 447.424 315.984 447.424 326.543C447.424 337.102 455.889 345.662 466.332 345.662Z" fill="#E8D6A4" stroke="#F7F4D3" stroke-width="3" stroke-miterlimit="10"/>
<path d="M466.332 340.986C474.22 340.986 480.615 334.519 480.615 326.543C480.615 318.567 474.22 312.101 466.332 312.101C458.443 312.101 452.048 318.567 452.048 326.543C452.048 334.519 458.443 340.986 466.332 340.986Z" fill="#E8D6A4" stroke="#08151B" stroke-width="5" stroke-miterlimit="10"/>
<path d="M466.332 332.272C469.461 332.272 471.997 329.707 471.997 326.543C471.997 323.379 469.461 320.814 466.332 320.814C463.203 320.814 460.666 323.379 460.666 326.543C460.666 329.707 463.203 332.272 466.332 332.272Z" fill="#08151B" stroke="#F7F4D3" stroke-width="3" stroke-miterlimit="10"/>
<path d="M467.517 343.439C467.517 343.676 467.447 343.907 467.317 344.104C467.187 344.301 467.002 344.455 466.785 344.546C466.569 344.636 466.33 344.66 466.1 344.614C465.87 344.568 465.659 344.454 465.494 344.286C465.328 344.118 465.215 343.905 465.169 343.672C465.124 343.44 465.147 343.199 465.237 342.98C465.326 342.761 465.478 342.574 465.673 342.442C465.868 342.311 466.097 342.24 466.332 342.24C466.646 342.24 466.947 342.367 467.17 342.591C467.392 342.816 467.517 343.121 467.517 343.439Z" fill="#08151B"/>
<path d="M455.355 339.339C455.19 339.509 454.979 339.625 454.748 339.673C454.518 339.721 454.278 339.698 454.061 339.608C453.843 339.518 453.657 339.365 453.525 339.167C453.394 338.97 453.324 338.737 453.324 338.499C453.324 338.261 453.394 338.029 453.525 337.831C453.657 337.634 453.843 337.48 454.061 337.39C454.278 337.3 454.518 337.277 454.748 337.325C454.979 337.373 455.19 337.49 455.355 337.659C455.464 337.769 455.551 337.9 455.61 338.045C455.669 338.189 455.699 338.343 455.699 338.499C455.699 338.655 455.669 338.81 455.61 338.954C455.551 339.098 455.464 339.229 455.355 339.339" fill="#08151B"/>
<path d="M449.606 327.758C449.372 327.758 449.142 327.688 448.948 327.556C448.753 327.425 448.601 327.238 448.511 327.019C448.421 326.8 448.398 326.559 448.444 326.326C448.489 326.094 448.602 325.88 448.768 325.713C448.934 325.545 449.145 325.431 449.375 325.385C449.605 325.338 449.843 325.362 450.06 325.453C450.276 325.544 450.461 325.697 450.591 325.894C450.722 326.091 450.791 326.323 450.791 326.56C450.791 326.878 450.666 327.183 450.444 327.407C450.222 327.632 449.92 327.758 449.606 327.758" fill="#08151B"/>
<path d="M453.682 315.438C453.514 315.271 453.399 315.058 453.352 314.825C453.305 314.592 453.327 314.35 453.416 314.13C453.505 313.909 453.657 313.721 453.852 313.588C454.048 313.456 454.277 313.385 454.513 313.385C454.748 313.385 454.978 313.456 455.173 313.588C455.369 313.721 455.521 313.909 455.61 314.13C455.699 314.35 455.721 314.592 455.674 314.825C455.626 315.058 455.511 315.271 455.344 315.438C455.121 315.657 454.823 315.78 454.513 315.78C454.202 315.78 453.904 315.657 453.682 315.438" fill="#08151B"/>
<path d="M465.146 309.648C465.145 309.409 465.214 309.176 465.345 308.977C465.475 308.778 465.661 308.623 465.879 308.531C466.097 308.439 466.337 308.415 466.568 308.461C466.8 308.507 467.012 308.622 467.179 308.791C467.346 308.96 467.46 309.175 467.505 309.409C467.551 309.643 467.527 309.885 467.436 310.106C467.345 310.326 467.192 310.514 466.995 310.646C466.799 310.777 466.568 310.847 466.332 310.846C466.017 310.846 465.716 310.72 465.494 310.495C465.271 310.27 465.146 309.966 465.146 309.648" fill="#08151B"/>
<path d="M477.298 313.758C477.463 313.589 477.674 313.472 477.904 313.424C478.135 313.377 478.374 313.399 478.592 313.489C478.809 313.579 478.996 313.733 479.127 313.93C479.258 314.128 479.328 314.36 479.328 314.598C479.328 314.836 479.258 315.069 479.127 315.266C478.996 315.464 478.809 315.617 478.592 315.708C478.374 315.798 478.135 315.82 477.904 315.772C477.674 315.724 477.463 315.608 477.298 315.438C477.081 315.214 476.96 314.912 476.96 314.598C476.96 314.285 477.081 313.983 477.298 313.758" fill="#08151B"/>
<path d="M483.046 325.345C483.281 325.345 483.51 325.415 483.705 325.547C483.9 325.678 484.051 325.866 484.141 326.085C484.231 326.304 484.254 326.544 484.209 326.777C484.163 327.009 484.05 327.223 483.884 327.391C483.718 327.558 483.507 327.672 483.277 327.719C483.047 327.765 482.809 327.741 482.593 327.65C482.376 327.56 482.191 327.406 482.061 327.209C481.93 327.012 481.861 326.78 481.861 326.543C481.861 326.386 481.892 326.23 481.951 326.085C482.011 325.939 482.098 325.807 482.208 325.696C482.318 325.584 482.449 325.496 482.593 325.436C482.736 325.376 482.89 325.345 483.046 325.345" fill="#08151B"/>
<path d="M478.987 337.643C479.154 337.809 479.269 338.023 479.317 338.256C479.364 338.489 479.342 338.731 479.253 338.951C479.164 339.171 479.012 339.36 478.816 339.492C478.621 339.625 478.391 339.696 478.156 339.696C477.921 339.696 477.691 339.625 477.495 339.492C477.3 339.36 477.148 339.171 477.059 338.951C476.97 338.731 476.948 338.489 476.995 338.256C477.042 338.023 477.157 337.809 477.325 337.643C477.547 337.422 477.845 337.299 478.156 337.299C478.467 337.299 478.765 337.422 478.987 337.643" fill="#08151B"/>
<path d="M460.506 315.584C458.177 317.034 456.361 319.189 455.316 321.744C454.804 323.015 454.574 324.385 454.642 325.756C454.709 327.127 455.074 328.466 455.709 329.679C455.493 327.122 455.808 324.546 456.634 322.119C457.46 319.692 458.779 317.466 460.506 315.584V315.584Z" fill="#F7F4D3"/>
<path d="M456.944 332.72C456.809 332.782 456.691 332.879 456.603 333C456.515 333.122 456.46 333.264 456.442 333.414C456.425 333.563 456.446 333.715 456.504 333.854C456.561 333.993 456.653 334.114 456.771 334.206C456.889 334.299 457.028 334.359 457.175 334.38C457.323 334.402 457.473 334.385 457.612 334.331C457.751 334.276 457.874 334.187 457.968 334.07C458.063 333.954 458.126 333.815 458.152 333.667C458.166 333.513 458.142 333.358 458.082 333.216C458.022 333.075 457.927 332.951 457.806 332.856C457.686 332.762 457.543 332.7 457.393 332.676C457.242 332.652 457.088 332.667 456.944 332.72Z" fill="#F7F4D3"/>
<path d="M477.602 322.657C478.187 324.934 478.031 327.342 477.158 329.523C476.286 331.704 474.742 333.544 472.756 334.77C473.985 334.342 475.108 333.651 476.047 332.743C476.987 331.835 477.722 330.733 478.2 329.511C479.142 327.064 478.959 324.208 477.602 322.657Z" fill="#F7F4D3"/>
<path d="M609.607 352.914C624.01 352.914 635.686 341.107 635.686 326.543C635.686 311.979 624.01 300.173 609.607 300.173C595.203 300.173 583.527 311.979 583.527 326.543C583.527 341.107 595.203 352.914 609.607 352.914Z" fill="#08151B"/>
<path d="M609.606 345.662C620.049 345.662 628.514 337.102 628.514 326.543C628.514 315.984 620.049 307.425 609.606 307.425C599.164 307.425 590.699 315.984 590.699 326.543C590.699 337.102 599.164 345.662 609.606 345.662Z" fill="#E8D6A4" stroke="#F7F4D3" stroke-width="3" stroke-miterlimit="10"/>
<path d="M609.607 340.986C617.495 340.986 623.89 334.519 623.89 326.543C623.89 318.567 617.495 312.101 609.607 312.101C601.719 312.101 595.324 318.567 595.324 326.543C595.324 334.519 601.719 340.986 609.607 340.986Z" fill="#E8D6A4" stroke="#08151B" stroke-width="5" stroke-miterlimit="10"/>
<path d="M609.607 332.272C612.736 332.272 615.272 329.707 615.272 326.543C615.272 323.379 612.736 320.814 609.607 320.814C606.478 320.814 603.941 323.379 603.941 326.543C603.941 329.707 606.478 332.272 609.607 332.272Z" fill="#08151B" stroke="#F7F4D3" stroke-width="3" stroke-miterlimit="10"/>
<path d="M610.797 343.439C610.799 343.677 610.73 343.91 610.599 344.109C610.469 344.308 610.284 344.463 610.066 344.555C609.849 344.647 609.609 344.672 609.378 344.626C609.146 344.58 608.934 344.466 608.767 344.298C608.6 344.129 608.486 343.915 608.439 343.681C608.393 343.447 608.416 343.205 608.506 342.985C608.596 342.764 608.749 342.576 608.945 342.444C609.141 342.311 609.371 342.24 609.607 342.24C609.922 342.24 610.224 342.366 610.447 342.591C610.67 342.816 610.796 343.12 610.797 343.439" fill="#08151B"/>
<path d="M598.63 339.339C598.465 339.509 598.254 339.625 598.024 339.673C597.793 339.721 597.554 339.698 597.336 339.608C597.118 339.518 596.932 339.365 596.801 339.167C596.67 338.97 596.6 338.737 596.6 338.499C596.6 338.261 596.67 338.029 596.801 337.831C596.932 337.634 597.118 337.48 597.336 337.39C597.554 337.3 597.793 337.277 598.024 337.325C598.254 337.373 598.465 337.49 598.63 337.659C598.848 337.883 598.97 338.185 598.97 338.499C598.97 338.813 598.848 339.115 598.63 339.339Z" fill="#08151B"/>
<path d="M592.898 327.758C592.663 327.758 592.434 327.688 592.239 327.556C592.044 327.425 591.892 327.238 591.803 327.019C591.713 326.8 591.689 326.559 591.735 326.326C591.781 326.094 591.894 325.88 592.06 325.713C592.225 325.545 592.436 325.431 592.666 325.385C592.896 325.338 593.135 325.362 593.351 325.453C593.568 325.544 593.753 325.697 593.883 325.894C594.013 326.091 594.083 326.323 594.083 326.56C594.083 326.878 593.958 327.183 593.736 327.407C593.513 327.632 593.212 327.758 592.898 327.758" fill="#08151B"/>
<path d="M596.957 315.438C596.789 315.271 596.674 315.058 596.627 314.825C596.579 314.592 596.602 314.35 596.691 314.13C596.78 313.909 596.932 313.721 597.127 313.588C597.322 313.456 597.552 313.385 597.788 313.385C598.023 313.385 598.253 313.456 598.448 313.588C598.644 313.721 598.796 313.909 598.885 314.13C598.974 314.35 598.996 314.592 598.949 314.825C598.901 315.058 598.786 315.271 598.619 315.438C598.396 315.657 598.098 315.78 597.788 315.78C597.477 315.78 597.179 315.657 596.957 315.438" fill="#08151B"/>
<path d="M608.421 309.648C608.421 309.411 608.491 309.179 608.621 308.982C608.751 308.785 608.936 308.632 609.153 308.541C609.37 308.45 609.608 308.426 609.838 308.473C610.068 308.519 610.279 308.633 610.445 308.801C610.61 308.968 610.723 309.182 610.769 309.414C610.815 309.647 610.791 309.888 610.702 310.107C610.612 310.326 610.46 310.513 610.265 310.645C610.07 310.776 609.841 310.847 609.607 310.847C609.292 310.847 608.991 310.72 608.769 310.496C608.546 310.271 608.421 309.966 608.421 309.648Z" fill="#08151B"/>
<path d="M620.584 313.758C620.749 313.589 620.96 313.472 621.19 313.424C621.421 313.377 621.66 313.399 621.878 313.489C622.096 313.579 622.282 313.733 622.413 313.93C622.544 314.128 622.614 314.36 622.614 314.598C622.614 314.836 622.544 315.069 622.413 315.266C622.282 315.464 622.096 315.617 621.878 315.708C621.66 315.798 621.421 315.82 621.19 315.772C620.96 315.724 620.749 315.608 620.584 315.438C620.367 315.214 620.246 314.912 620.246 314.598C620.246 314.285 620.367 313.983 620.584 313.758" fill="#08151B"/>
<path d="M626.316 325.345C626.55 325.345 626.779 325.415 626.974 325.547C627.169 325.678 627.321 325.866 627.411 326.085C627.5 326.304 627.524 326.544 627.478 326.777C627.432 327.009 627.32 327.223 627.154 327.391C626.988 327.558 626.777 327.672 626.547 327.719C626.317 327.765 626.079 327.741 625.862 327.65C625.645 327.56 625.46 327.406 625.33 327.209C625.2 327.012 625.13 326.78 625.13 326.543C625.13 326.386 625.161 326.23 625.221 326.085C625.28 325.939 625.367 325.807 625.477 325.696C625.588 325.584 625.718 325.496 625.862 325.436C626.006 325.376 626.16 325.345 626.316 325.345" fill="#08151B"/>
<path d="M622.261 337.643C622.429 337.809 622.544 338.023 622.592 338.256C622.639 338.489 622.617 338.731 622.528 338.951C622.439 339.171 622.287 339.36 622.091 339.492C621.896 339.625 621.666 339.696 621.431 339.696C621.195 339.696 620.966 339.625 620.77 339.492C620.575 339.36 620.423 339.171 620.334 338.951C620.245 338.731 620.223 338.489 620.27 338.256C620.317 338.023 620.432 337.809 620.6 337.643C620.822 337.422 621.12 337.299 621.431 337.299C621.742 337.299 622.04 337.422 622.261 337.643" fill="#08151B"/>
<path d="M603.781 315.584C601.451 317.032 599.635 319.188 598.591 321.744C598.079 323.015 597.848 324.385 597.916 325.756C597.984 327.127 598.349 328.466 598.984 329.679C598.768 327.122 599.083 324.546 599.909 322.119C600.735 319.692 602.054 317.466 603.781 315.584V315.584Z" fill="#F7F4D3"/>
<path d="M600.247 332.72C600.111 332.782 599.994 332.879 599.906 333C599.818 333.122 599.763 333.264 599.745 333.414C599.728 333.563 599.749 333.715 599.806 333.854C599.864 333.993 599.956 334.114 600.074 334.206C600.192 334.299 600.331 334.359 600.478 334.38C600.626 334.402 600.776 334.385 600.915 334.331C601.054 334.276 601.176 334.187 601.271 334.07C601.365 333.954 601.429 333.815 601.454 333.667C601.469 333.513 601.445 333.358 601.385 333.216C601.324 333.075 601.229 332.951 601.109 332.856C600.988 332.762 600.846 332.7 600.695 332.676C600.545 332.652 600.39 332.667 600.247 332.72V332.72Z" fill="#F7F4D3"/>
<path d="M620.877 322.657C621.462 324.934 621.306 327.342 620.433 329.523C619.561 331.704 618.017 333.544 616.031 334.77C617.26 334.342 618.383 333.651 619.323 332.743C620.262 331.835 620.997 330.733 621.475 329.511C622.4 327.064 622.223 324.208 620.877 322.657Z" fill="#F7F4D3"/>
<path d="M609.606 289.118C609.606 289.118 586.988 322.27 583.527 325.193C582.331 326.213 580.016 326.666 577.335 326.834C577.296 326.772 577.258 326.711 577.224 326.649L577.152 326.504C577.129 326.464 577.108 326.423 577.091 326.381C577.064 326.326 577.04 326.27 577.019 326.212V326.212L576.953 326.039C576.914 325.927 576.881 325.815 576.848 325.697C576.832 325.648 576.819 325.597 576.809 325.546C576.781 325.423 576.754 325.294 576.737 325.16C576.709 325.008 576.692 324.855 576.687 324.701V324.594C576.687 324.476 576.687 324.37 576.687 324.258C576.687 323.972 576.687 323.698 576.687 323.407C576.684 323.375 576.684 323.343 576.687 323.312C576.687 323.149 576.687 322.987 576.687 322.819C576.687 322.545 576.687 322.259 576.726 322.007V321.951L576.776 321.245C576.776 321.15 576.776 321.06 576.776 320.965C576.776 320.68 576.82 320.405 576.848 320.108C576.848 320.052 576.848 319.996 576.848 319.946L576.931 319.224C576.931 319.128 576.931 319.028 576.964 318.938C576.997 318.652 577.03 318.378 577.075 318.092C577.119 317.807 577.152 317.532 577.202 317.236C577.202 317.146 577.202 317.056 577.241 316.972C577.274 316.76 577.313 316.558 577.346 316.351L577.413 316.015C577.44 315.858 577.473 315.701 577.507 315.539C577.562 315.225 577.629 314.917 577.701 314.609C577.773 314.301 577.839 313.993 577.917 313.691C577.994 313.388 578.05 313.17 578.116 312.918C582.403 296.807 595.235 288.664 608.222 288.424H609.108L609.606 289.118Z" fill="#A54A3F"/>
<path d="M642 324.325V324.521C642 324.566 642 324.611 642 324.65V324.762C642 324.914 641.972 325.065 641.95 325.21C641.933 325.339 641.908 325.466 641.873 325.591C641.864 325.642 641.853 325.693 641.839 325.742C641.806 325.854 641.773 325.966 641.729 326.078C641.684 326.19 641.684 326.19 641.662 326.246C641.662 326.302 641.612 326.358 641.59 326.409C641.571 326.452 641.549 326.493 641.524 326.532L641.457 326.672L641.33 326.879L641.225 327.036L641.125 327.165C640.905 327.452 640.646 327.707 640.355 327.921C640.315 327.954 640.272 327.984 640.228 328.01C640.139 328.073 640.046 328.131 639.951 328.184L639.84 328.246C639.467 328.442 639.065 328.574 638.649 328.637C638.543 328.655 638.436 328.665 638.328 328.666C638.184 328.677 638.04 328.677 637.896 328.666C637.774 328.661 637.651 328.648 637.531 328.626H637.453C637.399 328.621 637.345 328.609 637.292 328.593C637.15 328.563 637.011 328.52 636.877 328.464L636.694 328.391C636.546 328.323 636.402 328.247 636.262 328.162L636.118 328.061C635.918 327.932 635.733 327.782 635.565 327.613L635.398 327.439C635.343 327.378 635.288 327.316 635.238 327.249C635.188 327.181 635.133 327.109 635.083 327.041C622.029 309.071 597.207 309.049 584.131 327.041L583.976 327.249C583.926 327.316 583.87 327.378 583.815 327.439L583.649 327.613C583.479 327.78 583.294 327.93 583.095 328.061C583.045 328.094 582.995 328.134 582.945 328.162C582.809 328.248 582.666 328.325 582.519 328.391L582.336 328.464C582.199 328.518 582.059 328.561 581.915 328.593C581.865 328.609 581.813 328.621 581.76 328.626H581.683C581.562 328.648 581.44 328.661 581.317 328.666C581.173 328.677 581.029 328.677 580.885 328.666C580.776 328.664 580.667 328.655 580.558 328.637C580.145 328.573 579.744 328.441 579.373 328.246L579.263 328.184C579.166 328.133 579.074 328.075 578.986 328.01C578.941 327.984 578.898 327.954 578.858 327.921C578.704 327.81 578.56 327.686 578.426 327.551L578.304 327.428C578.226 327.345 578.154 327.257 578.088 327.165L577.989 327.036L577.883 326.879L577.756 326.672L577.684 326.532L577.623 326.409C577.623 326.358 577.573 326.302 577.551 326.246C577.524 326.192 577.502 326.136 577.485 326.078C577.44 325.966 577.407 325.854 577.374 325.742C577.341 325.63 577.374 325.642 577.335 325.591C577.296 325.541 577.28 325.339 577.263 325.21C577.238 325.062 577.221 324.912 577.213 324.762V324.65C577.213 324.538 577.213 324.432 577.213 324.325C577.213 324.045 577.213 323.765 577.213 323.485V323.396V322.914C577.213 322.645 577.213 322.354 577.252 322.114V322.063L577.302 321.369C577.302 321.274 577.302 321.184 577.302 321.094C577.302 320.809 577.346 320.534 577.374 320.249V320.086C577.374 319.851 577.424 319.616 577.451 319.381L577.485 319.101C577.518 318.821 577.557 318.541 577.595 318.272C577.634 318.003 577.679 317.712 577.723 317.432C577.723 317.342 577.723 317.258 577.767 317.169C577.8 316.967 577.834 316.76 577.872 316.558C577.872 316.446 577.911 316.34 577.939 316.228C577.967 316.116 577.994 315.92 578.027 315.763C578.088 315.455 578.155 315.153 578.227 314.85C578.299 314.548 578.365 314.245 578.443 313.949C578.52 313.652 578.576 313.439 578.642 313.187C582.945 297.361 595.839 289.37 608.876 289.107H609.535H610.199C623.225 289.393 636.113 297.434 640.433 313.187C640.505 313.439 640.566 313.691 640.632 313.949C640.699 314.206 640.782 314.542 640.848 314.85C640.915 315.158 640.953 315.315 641.003 315.55C641.053 315.785 641.097 316.004 641.142 316.228C641.142 316.312 641.175 316.401 641.186 316.485C641.23 316.709 641.269 316.939 641.308 317.169C641.308 317.219 641.308 317.269 641.308 317.325C641.358 317.633 641.407 317.953 641.452 318.272C641.496 318.591 641.54 318.91 641.579 319.241C641.618 319.571 641.64 319.801 641.673 320.086V320.249L641.756 321.212C641.756 321.497 641.795 321.772 641.817 322.063V322.114C641.817 322.371 641.817 322.64 641.856 322.903V323.418V323.48C641.994 323.76 642 324.045 642 324.325Z" fill="#E6988E"/>
<path d="M590.195 320.518C589.807 308.198 597.949 298.677 609.18 298.677C622.666 298.677 629.035 308.718 629.035 320.613" stroke="#A54A3F" stroke-width="3" stroke-miterlimit="10"/>
<path d="M605.824 308.64C606.381 308.64 606.832 308.183 606.832 307.621C606.832 307.058 606.381 306.601 605.824 306.601C605.267 306.601 604.816 307.058 604.816 307.621C604.816 308.183 605.267 308.64 605.824 308.64Z" fill="#08151B"/>
<path d="M613.395 308.64C613.952 308.64 614.403 308.183 614.403 307.621C614.403 307.058 613.952 306.601 613.395 306.601C612.838 306.601 612.387 307.058 612.387 307.621C612.387 308.183 612.838 308.64 613.395 308.64Z" fill="#08151B"/>
<path d="M517.306 302.065C517.309 305.934 516.242 309.727 514.223 313.014C512.205 316.3 509.317 318.95 505.886 320.663C499.301 323.945 454.696 323.513 439.388 323.267C438.778 323.255 438.179 323.096 437.64 322.806C437.102 322.515 436.639 322.1 436.289 321.594C435.939 321.088 435.712 320.505 435.627 319.894C435.542 319.283 435.601 318.66 435.799 318.076C445.181 289.74 460.937 280.371 475.248 278.428C487.289 276.792 496.404 276.781 504.291 280.668C509.824 283.412 517.306 292.59 517.306 302.065Z" fill="#A54A3F"/>
<path d="M517.306 302.435C517.307 306.264 516.245 310.017 514.241 313.266C512.236 316.516 509.371 319.131 505.969 320.814C499.439 324.057 455.161 323.614 439.964 323.385C439.36 323.374 438.768 323.22 438.234 322.933C437.701 322.647 437.242 322.238 436.895 321.738C436.548 321.239 436.322 320.663 436.237 320.059C436.151 319.455 436.208 318.839 436.403 318.261C445.718 290.261 461.325 280.998 475.558 279.061C487.516 277.442 496.56 277.431 504.385 281.301C509.879 284.005 517.306 293.072 517.306 302.435Z" fill="#E6988E"/>
<path d="M474.224 309.782H458.451C458.124 309.782 457.858 310.05 457.858 310.381C457.858 310.712 458.124 310.981 458.451 310.981H474.224C474.551 310.981 474.816 310.712 474.816 310.381C474.816 310.05 474.551 309.782 474.224 309.782Z" fill="#08151B"/>
<path d="M474.224 313.232H458.451C458.124 313.232 457.858 313.5 457.858 313.831C457.858 314.162 458.124 314.43 458.451 314.43H474.224C474.551 314.43 474.816 314.162 474.816 313.831C474.816 313.5 474.551 313.232 474.224 313.232Z" fill="#08151B"/>
<path d="M474.224 316.827H458.451C458.124 316.827 457.858 317.095 457.858 317.426C457.858 317.757 458.124 318.026 458.451 318.026H474.224C474.551 318.026 474.816 317.757 474.816 317.426C474.816 317.095 474.551 316.827 474.224 316.827Z" fill="#08151B"/>
<path d="M447.095 323.473C447.095 316.574 449.058 307.105 455.477 302.911C458.723 300.86 462.482 299.791 466.31 299.832C470.137 299.873 473.873 301.021 477.076 303.141C483.412 307.469 485.213 314.983 485.562 323.136" stroke="#A54A3F" stroke-width="3" stroke-miterlimit="10"/>
<path d="M550.256 323.16C549.806 322.277 548.734 321.93 547.861 322.384C546.988 322.839 546.645 323.923 547.095 324.805L560.913 351.946C561.362 352.828 562.434 353.176 563.307 352.721C564.18 352.267 564.523 351.183 564.074 350.3L550.256 323.16Z" fill="#08151B"/>
<path d="M570.124 321.257H499.689C497.658 321.257 496.011 322.92 496.011 324.972C496.011 327.024 497.658 328.688 499.689 328.688H570.124C572.155 328.688 573.802 327.024 573.802 324.972C573.802 322.92 572.155 321.257 570.124 321.257Z" fill="#E8D6A4"/>
<path d="M578.969 207.531L578.864 227.058L577.241 227.047L577.335 209.161L562.398 209.082L562.404 207.436L578.891 207.526V207.531H578.969Z" fill="#08151B"/>
<path d="M561.573 198.661L567.361 216.715C567.414 216.902 567.396 217.102 567.311 217.275C567.3 217.308 567.283 217.338 567.261 217.365C566.956 217.832 566.493 218.17 565.96 218.317C565.533 218.468 565.074 218.501 564.63 218.412C564.503 218.383 564.38 218.336 564.265 218.272C564.21 218.245 564.159 218.209 564.115 218.166C564.006 218.079 563.924 217.962 563.877 217.83L558.09 199.775C558.048 199.639 558.048 199.492 558.09 199.355C558.09 199.299 558.128 199.243 558.151 199.187C558.296 198.932 558.489 198.708 558.72 198.528C558.951 198.349 559.215 198.217 559.496 198.14C559.926 197.991 560.386 197.96 560.831 198.051C560.924 198.073 561.015 198.105 561.102 198.146L561.191 198.191C561.282 198.24 561.363 198.307 561.428 198.387C561.494 198.468 561.543 198.561 561.573 198.661V198.661Z" fill="#08151B"/>
<path d="M577.822 232.832C580.043 232.832 581.843 231.012 581.843 228.767C581.843 226.521 580.043 224.701 577.822 224.701C575.602 224.701 573.802 226.521 573.802 228.767C573.802 231.012 575.602 232.832 577.822 232.832Z" fill="#08151B"/>
<path d="M594.897 225.485C594.897 229.898 592.477 233.538 589.359 234.092C589.435 233.947 589.475 233.786 589.475 233.622V217.342C589.475 217.18 589.433 217.019 589.353 216.878C592.493 217.438 594.897 221.072 594.897 225.485Z" fill="#E8D6A4"/>
<path d="M604.235 272.682C605.857 275.432 605.896 278.489 604.384 279.856C604.375 279.741 604.339 279.629 604.279 279.531L598.298 269.395C598.239 269.295 598.16 269.208 598.065 269.143C599.965 268.46 602.617 269.938 604.235 272.682Z" fill="#E8D6A4"/>
<path d="M598.297 269.395L604.279 279.531C604.339 279.629 604.375 279.74 604.384 279.856C604.387 279.872 604.387 279.889 604.384 279.906C604.388 280.01 604.365 280.113 604.317 280.206C604.27 280.298 604.199 280.376 604.112 280.432C604.043 280.474 603.965 280.499 603.885 280.507C603.804 280.515 603.723 280.505 603.647 280.477C603.59 280.459 603.536 280.433 603.487 280.399L603.409 280.337C603.346 280.283 603.291 280.219 603.249 280.147L597.267 270.011C597.225 269.94 597.195 269.862 597.179 269.781V269.68C597.163 269.571 597.181 269.459 597.228 269.36C597.275 269.26 597.351 269.177 597.445 269.12C597.514 269.079 597.592 269.054 597.672 269.046C597.753 269.038 597.834 269.048 597.91 269.076C597.953 269.087 597.994 269.104 598.032 269.126L598.076 269.154C598.166 269.218 598.241 269.3 598.297 269.395V269.395Z" fill="#08151B"/>
<path d="M432 292.081C432 288.877 433.529 286.24 435.506 285.842C435.455 285.947 435.431 286.062 435.434 286.178V297.978C435.434 298.095 435.459 298.212 435.506 298.319C433.545 297.916 432 295.278 432 292.081Z" fill="#E8D6A4"/>
<path d="M435.434 297.978V286.178C435.431 286.062 435.455 285.947 435.506 285.842V285.798C435.546 285.713 435.607 285.641 435.683 285.586C435.758 285.532 435.846 285.498 435.938 285.486C436.03 285.475 436.123 285.488 436.209 285.522C436.296 285.557 436.372 285.613 436.431 285.686C436.47 285.734 436.503 285.787 436.53 285.842L436.564 285.932C436.591 286.011 436.604 286.095 436.602 286.178V297.978C436.604 298.063 436.591 298.148 436.564 298.23L436.525 298.319C436.48 298.422 436.407 298.509 436.315 298.572C436.223 298.634 436.115 298.669 436.004 298.672C435.901 298.668 435.801 298.637 435.714 298.582C435.627 298.527 435.555 298.45 435.506 298.358C435.508 298.345 435.508 298.332 435.506 298.319C435.459 298.212 435.434 298.095 435.434 297.978V297.978Z" fill="#08151B"/>
<path d="M589.331 217.152V233.818C589.333 233.985 589.294 234.15 589.22 234.299L589.187 234.361C589.111 234.492 589.003 234.601 588.873 234.678C588.743 234.754 588.595 234.796 588.445 234.798C588.326 234.798 588.208 234.773 588.099 234.724C587.99 234.674 587.893 234.602 587.814 234.512C587.756 234.447 587.706 234.376 587.664 234.299C587.644 234.256 587.627 234.211 587.614 234.165C587.574 234.054 587.553 233.936 587.553 233.818V217.152C587.553 217.032 587.574 216.912 587.614 216.799C587.63 216.755 587.649 216.712 587.67 216.671C587.74 216.523 587.85 216.397 587.987 216.309C588.124 216.221 588.283 216.174 588.445 216.172C588.563 216.173 588.68 216.198 588.788 216.247C588.896 216.297 588.992 216.368 589.071 216.458C589.116 216.503 589.155 216.554 589.187 216.609L589.22 216.671C589.294 216.82 589.332 216.985 589.331 217.152V217.152Z" fill="#08151B"/>
<path d="M465.612 284.145C456.744 288.226 449.644 295.427 445.635 304.406C450.902 296.426 458.019 289.712 465.612 284.145Z" fill="#F7F4D3"/>
<path d="M456.075 305.033C454.998 305.587 454.115 306.461 453.544 307.537C452.973 308.613 452.741 309.84 452.879 311.053C453.815 308.925 455.1 306.954 456.075 305.033Z" fill="#F7F4D3"/>
<path d="M434.42 287.259C433.697 287.829 433.176 288.62 432.934 289.515C432.693 290.409 432.744 291.358 433.08 292.221C433.208 290.495 433.663 288.811 434.42 287.259V287.259Z" fill="#F7F4D3"/>
<path d="M601.355 302.188C599.486 303.04 597.872 304.375 596.678 306.06C595.483 307.744 594.751 309.718 594.554 311.781C595.783 308.203 598.264 305.084 601.355 302.188Z" fill="#F7F4D3"/>
<path d="M601.355 292.025C597.362 293.139 593.689 295.199 590.64 298.032C587.59 300.866 585.251 304.392 583.815 308.321C587.564 301.018 594.277 295.323 601.355 292.025Z" fill="#F7F4D3"/>
<path d="M576.881 225.838C576.503 225.894 576.145 226.044 575.838 226.273C575.53 226.503 575.284 226.805 575.119 227.154C574.955 227.503 574.879 227.887 574.896 228.273C574.913 228.659 575.025 229.034 575.22 229.366C575.146 228.68 575.262 227.987 575.555 227.364C575.848 226.741 576.308 226.212 576.881 225.838V225.838Z" fill="#F7F4D3"/>
<path d="M450.991 279.24C447.525 281.972 444.848 285.594 443.237 289.729C445.389 285.926 447.993 282.403 450.991 279.24Z" fill="#F7F4D3"/>
<path d="M442.18 290.905L440.219 293.901C440.162 293.975 440.122 294.062 440.101 294.154C440.081 294.246 440.081 294.342 440.102 294.434C440.123 294.526 440.163 294.612 440.221 294.686C440.279 294.761 440.352 294.821 440.435 294.863C440.519 294.906 440.611 294.928 440.704 294.931C440.797 294.933 440.89 294.914 440.975 294.875C441.06 294.837 441.136 294.78 441.197 294.708C441.258 294.636 441.302 294.552 441.327 294.461C441.811 293.334 442.099 292.131 442.18 290.905V290.905Z" fill="#F7F4D3"/>
<path d="M583.078 309.956C582.871 309.905 582.654 309.902 582.445 309.946C582.236 309.991 582.039 310.082 581.87 310.214C581.7 310.346 581.562 310.514 581.465 310.707C581.369 310.9 581.316 311.112 581.312 311.328C581.334 311.544 581.406 311.751 581.522 311.933C581.638 312.115 581.795 312.266 581.98 312.375C582.165 312.484 582.373 312.548 582.587 312.561C582.801 312.573 583.015 312.535 583.211 312.448C583.953 312.011 584.186 310.309 583.078 309.956Z" fill="#F7F4D3"/>
<path d="M458.739 303.118C458.621 303.017 458.478 302.948 458.325 302.919C458.173 302.89 458.015 302.902 457.869 302.954C457.722 303.006 457.591 303.095 457.489 303.213C457.387 303.332 457.318 303.475 457.287 303.629C457.257 303.783 457.267 303.943 457.316 304.091C457.365 304.24 457.452 304.374 457.568 304.478C457.684 304.583 457.825 304.655 457.977 304.687C458.129 304.72 458.286 304.712 458.434 304.664C458.576 304.603 458.701 304.509 458.798 304.388C458.895 304.268 458.962 304.125 458.992 303.973C459.022 303.82 459.015 303.663 458.97 303.514C458.926 303.365 458.847 303.229 458.739 303.118V303.118Z" fill="#F7F4D3"/>
<path d="M568.092 226.241C567.751 226.63 567.513 227.098 567.398 227.604C567.282 228.11 567.295 228.637 567.433 229.136C568.914 234.193 571.156 238.988 574.079 243.355C571.52 237.833 568.967 232.222 568.092 226.241Z" fill="#F7F4D3"/>
<path d="M448.532 262.832C476.214 266.963 504.433 265.473 531.539 258.447C505.316 267.39 475.669 269.165 448.532 262.832Z" fill="#EE9B21"/>
<rect x="794.5" y="153.5" width="301" height="246" fill="#E8D6A4" stroke="#F7F4D3" stroke-width="7"/>
<path d="M871.935 295.809V347.883H858.124C855.864 347.883 853.855 346.318 853.102 344.083L841.049 296.927L871.935 295.809Z" fill="#9B2227"/>
<path d="M871.936 295.809V347.883H885.747C888.007 347.883 890.016 346.318 890.769 344.083L902.822 296.927L871.936 295.809Z" fill="#9B2227"/>
<path d="M888.007 296.257L880.222 347.883H885.998C888.258 347.883 890.267 346.319 891.02 344.084L903.073 296.927L888.007 296.257Z" fill="#9B2227"/>
<path d="M856.115 296.257L863.9 347.883H858.124C855.864 347.883 853.855 346.319 853.102 344.084L841.049 296.927L856.115 296.257Z" fill="#E6988E"/>
<path d="M896.042 273.907C893.782 273.907 891.522 274.354 889.513 275.025C887.002 268.32 880.473 263.627 872.438 263.627C864.402 263.627 857.622 268.544 855.362 275.472C853.102 274.578 850.591 273.907 847.829 273.907C838.035 273.907 830 281.506 830 290.669C830 299.832 838.035 307.431 847.829 307.431C852.6 307.431 856.869 305.643 860.133 302.738C863.398 305.643 867.667 307.431 872.438 307.431C876.958 307.431 880.975 305.867 884.24 303.185C887.504 305.867 891.522 307.431 896.042 307.431C905.836 307.431 913.871 299.832 913.871 290.669C913.871 281.506 906.087 273.907 896.042 273.907Z" fill="#C96928"/>
<path d="M848.08 273.907C850.34 273.907 852.6 274.354 854.609 275.025C857.12 268.32 863.649 263.627 871.684 263.627C871.935 263.627 871.935 263.627 872.186 263.627V307.431C871.935 307.431 871.935 307.431 871.684 307.431C867.164 307.431 863.146 305.867 859.882 303.185C856.618 305.867 852.6 307.431 848.08 307.431C838.286 307.431 830.251 299.832 830.251 290.669C830 281.506 838.035 273.907 848.08 273.907Z" fill="#ED9B21"/>
<path d="M1014.06 296.479V348.553H1000.25C997.993 348.553 995.984 346.988 995.231 344.753L983.178 297.597L1014.06 296.479Z" fill="#9B2227"/>
<path d="M1014.06 296.479V348.553H1027.88C1030.14 348.553 1032.14 346.988 1032.9 344.753L1044.95 297.597L1014.06 296.479Z" fill="#9B2227"/>
<path d="M1029.88 296.927L1022.1 348.553H1027.88C1030.14 348.553 1032.14 346.989 1032.9 344.754L1044.95 297.597L1029.88 296.927Z" fill="#9B2227"/>
<path d="M998.244 296.927L1006.03 348.553H1000.25C997.993 348.553 995.984 346.989 995.231 344.754L983.178 297.597L998.244 296.927Z" fill="#E6988E"/>
<path d="M1038.17 274.577C1035.91 274.577 1033.65 275.024 1031.64 275.695C1029.13 268.99 1022.6 264.297 1014.57 264.297C1006.53 264.297 999.751 269.213 997.491 276.142C995.231 275.248 992.72 274.577 989.958 274.577C980.164 274.577 972.129 282.176 972.129 291.339C972.129 300.502 980.164 308.101 989.958 308.101C994.729 308.101 998.998 306.313 1002.26 303.408C1005.53 306.313 1009.8 308.101 1014.57 308.101C1019.09 308.101 1023.1 306.536 1026.37 303.854C1029.63 306.536 1033.65 308.101 1038.17 308.101C1047.96 308.101 1056 300.502 1056 291.339C1056 282.176 1048.22 274.577 1038.17 274.577Z" fill="#C96928"/>
<path d="M989.958 274.577C992.218 274.577 994.478 275.024 996.487 275.695C998.998 268.99 1005.53 264.297 1013.56 264.297C1013.81 264.297 1013.81 264.297 1014.06 264.297V308.101C1013.81 308.101 1013.81 308.101 1013.56 308.101C1009.04 308.101 1005.02 306.536 1001.76 303.854C998.496 306.536 994.478 308.101 989.958 308.101C980.164 308.101 972.129 300.502 972.129 291.339C972.129 282.176 980.164 274.577 989.958 274.577Z" fill="#ED9B21"/>
<path d="M945.762 264.073V349H923.162C919.395 349 916.131 346.318 915.126 342.742L895.289 266.085L945.762 264.073Z" fill="#9B2227"/>
<path d="M945.762 264.073V349H968.362C972.128 349 975.393 346.318 976.397 342.742L996.235 266.085L945.762 264.073Z" fill="#9B2227"/>
<path d="M971.375 264.967L958.82 349H968.111C971.878 349 975.142 346.318 976.146 342.742L995.984 266.085L971.375 264.967Z" fill="#9B2227"/>
<path d="M919.897 264.967L932.453 349H923.162C919.395 349 916.131 346.318 915.126 342.742L895.289 266.085L919.897 264.967Z" fill="#E6988E"/>
<path d="M984.935 228.538C981.168 228.538 977.402 229.209 974.137 230.55C970.12 219.822 959.322 212 946.515 212C933.457 212 922.408 220.046 918.642 231.22C914.875 229.656 910.857 228.762 906.337 228.762C890.266 228.762 877.208 241.054 877.208 256.028C877.208 271.002 890.266 283.294 906.337 283.294C914.122 283.294 921.153 280.388 926.426 275.695C931.7 280.388 938.731 283.294 946.515 283.294C953.797 283.294 960.577 280.612 965.851 276.589C970.873 280.835 977.653 283.294 985.186 283.294C1001.26 283.294 1014.32 271.002 1014.32 256.028C1014.32 241.054 1001.01 228.538 984.935 228.538Z" fill="#C96928"/>
<path d="M906.338 228.538C910.104 228.538 913.871 229.209 917.135 230.55C921.153 219.822 931.951 212 944.758 212C945.009 212 945.26 212 945.511 212V283.294C945.26 283.294 945.009 283.294 944.758 283.294C937.475 283.294 930.695 280.612 925.422 276.589C920.4 280.835 913.62 283.294 906.086 283.294C890.015 283.294 876.958 271.002 876.958 256.028C877.209 240.83 890.266 228.538 906.338 228.538Z" fill="#ED9B21"/>
<path d="M1308.66 260.649H1357.21V230.421H1389.33V194H1297.74L1276.16 230.421H1308.66V260.649Z" fill="#08151B"/>
<path d="M1357.21 292.499H1308.66V322.579H1276.16V359H1368.65L1389.33 322.579H1357.21V292.499Z" fill="#08151B"/>
<path d="M1389.33 224.228C1390.04 224.228 1390.61 223.634 1390.61 222.901C1390.61 222.168 1390.04 221.574 1389.33 221.574C1388.62 221.574 1388.04 222.168 1388.04 222.901C1388.04 223.634 1388.62 224.228 1389.33 224.228Z" stroke="#F6F4D2" stroke-width="6" stroke-miterlimit="10" stroke-linecap="round"/>
<path d="M1389.33 231.6C1390.04 231.6 1390.61 231.006 1390.61 230.273C1390.61 229.54 1390.04 228.946 1389.33 228.946C1388.62 228.946 1388.04 229.54 1388.04 230.273C1388.04 231.006 1388.62 231.6 1389.33 231.6Z" stroke="#F6F4D2" stroke-width="6" stroke-miterlimit="10" stroke-linecap="round"/>
<path d="M1385.35 231.6C1386.06 231.6 1386.63 231.006 1386.63 230.273C1386.63 229.54 1386.06 228.946 1385.35 228.946C1384.64 228.946 1384.06 229.54 1384.06 230.273C1384.06 231.006 1384.64 231.6 1385.35 231.6Z" stroke="#F6F4D2" stroke-width="6" stroke-miterlimit="10" stroke-linecap="round"/>
<path d="M1380.59 231.6C1381.3 231.6 1381.88 231.006 1381.88 230.273C1381.88 229.54 1381.3 228.946 1380.59 228.946C1379.88 228.946 1379.31 229.54 1379.31 230.273C1379.31 231.006 1379.88 231.6 1380.59 231.6Z" stroke="#F6F4D2" stroke-width="6" stroke-miterlimit="10" stroke-linecap="round"/>
<path d="M1376.23 231.6C1376.94 231.6 1377.51 231.006 1377.51 230.273C1377.51 229.54 1376.94 228.946 1376.23 228.946C1375.52 228.946 1374.94 229.54 1374.94 230.273C1374.94 231.006 1375.52 231.6 1376.23 231.6Z" stroke="#F6F4D2" stroke-width="6" stroke-miterlimit="10" stroke-linecap="round"/>
<path d="M1371.22 231.6C1371.93 231.6 1372.5 231.006 1372.5 230.273C1372.5 229.54 1371.93 228.946 1371.22 228.946C1370.51 228.946 1369.93 229.54 1369.93 230.273C1369.93 231.006 1370.51 231.6 1371.22 231.6Z" stroke="#F6F4D2" stroke-width="6" stroke-miterlimit="10" stroke-linecap="round"/>
<path d="M1366.46 231.6C1367.17 231.6 1367.75 231.006 1367.75 230.273C1367.75 229.54 1367.17 228.946 1366.46 228.946C1365.75 228.946 1365.18 229.54 1365.18 230.273C1365.18 231.006 1365.75 231.6 1366.46 231.6Z" stroke="#F6F4D2" stroke-width="6" stroke-miterlimit="10" stroke-linecap="round"/>
<path d="M1362.1 231.6C1362.8 231.6 1363.38 231.006 1363.38 230.273C1363.38 229.54 1362.8 228.946 1362.1 228.946C1361.39 228.946 1360.81 229.54 1360.81 230.273C1360.81 231.006 1361.39 231.6 1362.1 231.6Z" stroke="#F6F4D2" stroke-width="6" stroke-miterlimit="10" stroke-linecap="round"/>
<path d="M1357.47 240.448C1358.18 240.448 1358.76 239.853 1358.76 239.12C1358.76 238.388 1358.18 237.793 1357.47 237.793C1356.76 237.793 1356.19 238.388 1356.19 239.12C1356.19 239.853 1356.76 240.448 1357.47 240.448Z" stroke="#F6F4D2" stroke-width="6" stroke-miterlimit="10" stroke-linecap="round"/>
<path d="M1357.47 235.729C1358.18 235.729 1358.76 235.135 1358.76 234.402C1358.76 233.669 1358.18 233.075 1357.47 233.075C1356.76 233.075 1356.19 233.669 1356.19 234.402C1356.19 235.135 1356.76 235.729 1357.47 235.729Z" stroke="#F6F4D2" stroke-width="6" stroke-miterlimit="10" stroke-linecap="round"/>
<path d="M1357.47 231.6C1358.18 231.6 1358.76 231.006 1358.76 230.273C1358.76 229.54 1358.18 228.946 1357.47 228.946C1356.76 228.946 1356.19 229.54 1356.19 230.273C1356.19 231.006 1356.76 231.6 1357.47 231.6Z" stroke="#F6F4D2" stroke-width="6" stroke-miterlimit="10" stroke-linecap="round"/>
<path d="M1357.47 254.456C1358.18 254.456 1358.76 253.861 1358.76 253.129C1358.76 252.396 1358.18 251.802 1357.47 251.802C1356.76 251.802 1356.19 252.396 1356.19 253.129C1356.19 253.861 1356.76 254.456 1357.47 254.456Z" stroke="#F6F4D2" stroke-width="6" stroke-miterlimit="10" stroke-linecap="round"/>
<path d="M1357.47 249.737C1358.18 249.737 1358.76 249.143 1358.76 248.41C1358.76 247.677 1358.18 247.083 1357.47 247.083C1356.76 247.083 1356.19 247.677 1356.19 248.41C1356.19 249.143 1356.76 249.737 1357.47 249.737Z" stroke="#F6F4D2" stroke-width="6" stroke-miterlimit="10" stroke-linecap="round"/>
<path d="M1357.47 245.608C1358.18 245.608 1358.76 245.014 1358.76 244.281C1358.76 243.548 1358.18 242.954 1357.47 242.954C1356.76 242.954 1356.19 243.548 1356.19 244.281C1356.19 245.014 1356.76 245.608 1357.47 245.608Z" stroke="#F6F4D2" stroke-width="6" stroke-miterlimit="10" stroke-linecap="round"/>
<path d="M1357.47 259.026C1358.18 259.026 1358.76 258.432 1358.76 257.699C1358.76 256.967 1358.18 256.372 1357.47 256.372C1356.76 256.372 1356.19 256.967 1356.19 257.699C1356.19 258.432 1356.76 259.026 1357.47 259.026Z" stroke="#F6F4D2" stroke-width="6" stroke-miterlimit="10" stroke-linecap="round"/>
<path d="M1357.47 304.737C1358.18 304.737 1358.76 304.143 1358.76 303.41C1358.76 302.677 1358.18 302.083 1357.47 302.083C1356.76 302.083 1356.19 302.677 1356.19 303.41C1356.19 304.143 1356.76 304.737 1357.47 304.737Z" stroke="#F6F4D2" stroke-width="6" stroke-miterlimit="10" stroke-linecap="round"/>
<path d="M1357.47 300.019C1358.18 300.019 1358.76 299.425 1358.76 298.692C1358.76 297.959 1358.18 297.365 1357.47 297.365C1356.76 297.365 1356.19 297.959 1356.19 298.692C1356.19 299.425 1356.76 300.019 1357.47 300.019Z" stroke="#F6F4D2" stroke-width="6" stroke-miterlimit="10" stroke-linecap="round"/>
<path d="M1357.47 295.89C1358.18 295.89 1358.76 295.296 1358.76 294.563C1358.76 293.83 1358.18 293.236 1357.47 293.236C1356.76 293.236 1356.19 293.83 1356.19 294.563C1356.19 295.296 1356.76 295.89 1357.47 295.89Z" stroke="#F6F4D2" stroke-width="6" stroke-miterlimit="10" stroke-linecap="round"/>
<path d="M1357.47 318.745C1358.18 318.745 1358.76 318.151 1358.76 317.418C1358.76 316.685 1358.18 316.091 1357.47 316.091C1356.76 316.091 1356.19 316.685 1356.19 317.418C1356.19 318.151 1356.76 318.745 1357.47 318.745Z" stroke="#F6F4D2" stroke-width="6" stroke-miterlimit="10" stroke-linecap="round"/>
<path d="M1357.47 314.027C1358.18 314.027 1358.76 313.433 1358.76 312.7C1358.76 311.967 1358.18 311.373 1357.47 311.373C1356.76 311.373 1356.19 311.967 1356.19 312.7C1356.19 313.433 1356.76 314.027 1357.47 314.027Z" stroke="#F6F4D2" stroke-width="6" stroke-miterlimit="10" stroke-linecap="round"/>
<path d="M1357.47 309.898C1358.18 309.898 1358.76 309.304 1358.76 308.571C1358.76 307.838 1358.18 307.244 1357.47 307.244C1356.76 307.244 1356.19 307.838 1356.19 308.571C1356.19 309.304 1356.76 309.898 1357.47 309.898Z" stroke="#F6F4D2" stroke-width="6" stroke-miterlimit="10" stroke-linecap="round"/>
<path d="M1357.47 323.316C1358.18 323.316 1358.76 322.722 1358.76 321.989C1358.76 321.256 1358.18 320.662 1357.47 320.662C1356.76 320.662 1356.19 321.256 1356.19 321.989C1356.19 322.722 1356.76 323.316 1357.47 323.316Z" stroke="#F6F4D2" stroke-width="6" stroke-miterlimit="10" stroke-linecap="round"/>
<path d="M1309.3 240.743C1310.01 240.743 1310.58 240.149 1310.58 239.416C1310.58 238.683 1310.01 238.089 1309.3 238.089C1308.59 238.089 1308.01 238.683 1308.01 239.416C1308.01 240.149 1308.59 240.743 1309.3 240.743Z" stroke="#F6F4D2" stroke-width="6" stroke-miterlimit="10" stroke-linecap="round"/>
<path d="M1309.3 236.024C1310.01 236.024 1310.58 235.43 1310.58 234.697C1310.58 233.964 1310.01 233.37 1309.3 233.37C1308.59 233.37 1308.01 233.964 1308.01 234.697C1308.01 235.43 1308.59 236.024 1309.3 236.024Z" stroke="#F6F4D2" stroke-width="6" stroke-miterlimit="10" stroke-linecap="round"/>
<path d="M1309.3 231.748C1310.01 231.748 1310.58 231.154 1310.58 230.421C1310.58 229.688 1310.01 229.094 1309.3 229.094C1308.59 229.094 1308.01 229.688 1308.01 230.421C1308.01 231.154 1308.59 231.748 1309.3 231.748Z" stroke="#F6F4D2" stroke-width="6" stroke-miterlimit="10" stroke-linecap="round"/>
<path d="M1309.3 254.751C1310.01 254.751 1310.58 254.157 1310.58 253.424C1310.58 252.691 1310.01 252.097 1309.3 252.097C1308.59 252.097 1308.01 252.691 1308.01 253.424C1308.01 254.157 1308.59 254.751 1309.3 254.751Z" stroke="#F6F4D2" stroke-width="6" stroke-miterlimit="10" stroke-linecap="round"/>
<path d="M1309.3 250.032C1310.01 250.032 1310.58 249.438 1310.58 248.705C1310.58 247.972 1310.01 247.378 1309.3 247.378C1308.59 247.378 1308.01 247.972 1308.01 248.705C1308.01 249.438 1308.59 250.032 1309.3 250.032Z" stroke="#F6F4D2" stroke-width="6" stroke-miterlimit="10" stroke-linecap="round"/>
<path d="M1309.3 245.756C1310.01 245.756 1310.58 245.162 1310.58 244.429C1310.58 243.696 1310.01 243.102 1309.3 243.102C1308.59 243.102 1308.01 243.696 1308.01 244.429C1308.01 245.162 1308.59 245.756 1309.3 245.756Z" stroke="#F6F4D2" stroke-width="6" stroke-miterlimit="10" stroke-linecap="round"/>
<path d="M1309.3 259.174C1310.01 259.174 1310.58 258.58 1310.58 257.847C1310.58 257.114 1310.01 256.52 1309.3 256.52C1308.59 256.52 1308.01 257.114 1308.01 257.847C1308.01 258.58 1308.59 259.174 1309.3 259.174Z" stroke="#F6F4D2" stroke-width="6" stroke-miterlimit="10" stroke-linecap="round"/>
<path d="M1380.59 323.316C1381.3 323.316 1381.88 322.722 1381.88 321.989C1381.88 321.256 1381.3 320.662 1380.59 320.662C1379.88 320.662 1379.31 321.256 1379.31 321.989C1379.31 322.722 1379.88 323.316 1380.59 323.316Z" stroke="#F6F4D2" stroke-width="6" stroke-miterlimit="10" stroke-linecap="round"/>
<path d="M1385.35 323.316C1386.06 323.316 1386.63 322.722 1386.63 321.989C1386.63 321.256 1386.06 320.662 1385.35 320.662C1384.64 320.662 1384.06 321.256 1384.06 321.989C1384.06 322.722 1384.64 323.316 1385.35 323.316Z" stroke="#F6F4D2" stroke-width="6" stroke-miterlimit="10" stroke-linecap="round"/>
<path d="M1366.33 323.316C1367.04 323.316 1367.62 322.722 1367.62 321.989C1367.62 321.256 1367.04 320.662 1366.33 320.662C1365.62 320.662 1365.05 321.256 1365.05 321.989C1365.05 322.722 1365.62 323.316 1366.33 323.316Z" stroke="#F6F4D2" stroke-width="6" stroke-miterlimit="10" stroke-linecap="round"/>
<path d="M1371.09 323.316C1371.8 323.316 1372.37 322.722 1372.37 321.989C1372.37 321.256 1371.8 320.662 1371.09 320.662C1370.38 320.662 1369.8 321.256 1369.8 321.989C1369.8 322.722 1370.38 323.316 1371.09 323.316Z" stroke="#F6F4D2" stroke-width="6" stroke-miterlimit="10" stroke-linecap="round"/>
<path d="M1375.33 323.316C1376.04 323.316 1376.61 322.722 1376.61 321.989C1376.61 321.256 1376.04 320.662 1375.33 320.662C1374.62 320.662 1374.04 321.256 1374.04 321.989C1374.04 322.722 1374.62 323.316 1375.33 323.316Z" stroke="#F6F4D2" stroke-width="6" stroke-miterlimit="10" stroke-linecap="round"/>
<path d="M1361.71 323.316C1362.42 323.316 1362.99 322.722 1362.99 321.989C1362.99 321.256 1362.42 320.662 1361.71 320.662C1361 320.662 1360.43 321.256 1360.43 321.989C1360.43 322.722 1361 323.316 1361.71 323.316Z" stroke="#F6F4D2" stroke-width="6" stroke-miterlimit="10" stroke-linecap="round"/>
<path d="M1300.56 231.6C1301.27 231.6 1301.85 231.006 1301.85 230.273C1301.85 229.54 1301.27 228.946 1300.56 228.946C1299.85 228.946 1299.28 229.54 1299.28 230.273C1299.28 231.006 1299.85 231.6 1300.56 231.6Z" stroke="#F6F4D2" stroke-width="6" stroke-miterlimit="10" stroke-linecap="round"/>
<path d="M1305.32 231.6C1306.03 231.6 1306.6 231.006 1306.6 230.273C1306.6 229.54 1306.03 228.946 1305.32 228.946C1304.61 228.946 1304.03 229.54 1304.03 230.273C1304.03 231.006 1304.61 231.6 1305.32 231.6Z" stroke="#F6F4D2" stroke-width="6" stroke-miterlimit="10" stroke-linecap="round"/>
<path d="M1286.3 231.6C1287.01 231.6 1287.59 231.006 1287.59 230.273C1287.59 229.54 1287.01 228.946 1286.3 228.946C1285.59 228.946 1285.02 229.54 1285.02 230.273C1285.02 231.006 1285.59 231.6 1286.3 231.6Z" stroke="#F6F4D2" stroke-width="6" stroke-miterlimit="10" stroke-linecap="round"/>
<path d="M1291.06 231.6C1291.77 231.6 1292.34 231.006 1292.34 230.273C1292.34 229.54 1291.77 228.946 1291.06 228.946C1290.35 228.946 1289.77 229.54 1289.77 230.273C1289.77 231.006 1290.35 231.6 1291.06 231.6Z" stroke="#F6F4D2" stroke-width="6" stroke-miterlimit="10" stroke-linecap="round"/>
<path d="M1295.42 231.6C1296.13 231.6 1296.71 231.006 1296.71 230.273C1296.71 229.54 1296.13 228.946 1295.42 228.946C1294.72 228.946 1294.14 229.54 1294.14 230.273C1294.14 231.006 1294.72 231.6 1295.42 231.6Z" stroke="#F6F4D2" stroke-width="6" stroke-miterlimit="10" stroke-linecap="round"/>
<path d="M1281.68 231.6C1282.39 231.6 1282.96 231.006 1282.96 230.273C1282.96 229.54 1282.39 228.946 1281.68 228.946C1280.97 228.946 1280.4 229.54 1280.4 230.273C1280.4 231.006 1280.97 231.6 1281.68 231.6Z" stroke="#F6F4D2" stroke-width="6" stroke-miterlimit="10" stroke-linecap="round"/>
<path d="M1314.57 196.654C1315.27 196.654 1315.85 196.06 1315.85 195.327C1315.85 194.594 1315.27 194 1314.57 194C1313.86 194 1313.28 194.594 1313.28 195.327C1313.28 196.06 1313.86 196.654 1314.57 196.654Z" stroke="#F6F4D2" stroke-width="6" stroke-miterlimit="10" stroke-linecap="round"/>
<path d="M1319.32 196.654C1320.03 196.654 1320.6 196.06 1320.6 195.327C1320.6 194.594 1320.03 194 1319.32 194C1318.61 194 1318.03 194.594 1318.03 195.327C1318.03 196.06 1318.61 196.654 1319.32 196.654Z" stroke="#F6F4D2" stroke-width="6" stroke-miterlimit="10" stroke-linecap="round"/>
<path d="M1323.69 196.654C1324.4 196.654 1324.97 196.06 1324.97 195.327C1324.97 194.594 1324.4 194 1323.69 194C1322.98 194 1322.4 194.594 1322.4 195.327C1322.4 196.06 1322.98 196.654 1323.69 196.654Z" stroke="#F6F4D2" stroke-width="6" stroke-miterlimit="10" stroke-linecap="round"/>
<path d="M1300.31 196.654C1301.02 196.654 1301.59 196.06 1301.59 195.327C1301.59 194.594 1301.02 194 1300.31 194C1299.6 194 1299.02 194.594 1299.02 195.327C1299.02 196.06 1299.6 196.654 1300.31 196.654Z" stroke="#F6F4D2" stroke-width="6" stroke-miterlimit="10" stroke-linecap="round"/>
<path d="M1305.06 196.654C1305.77 196.654 1306.34 196.06 1306.34 195.327C1306.34 194.594 1305.77 194 1305.06 194C1304.35 194 1303.77 194.594 1303.77 195.327C1303.77 196.06 1304.35 196.654 1305.06 196.654Z" stroke="#F6F4D2" stroke-width="6" stroke-miterlimit="10" stroke-linecap="round"/>
<path d="M1309.43 196.654C1310.14 196.654 1310.71 196.06 1310.71 195.327C1310.71 194.594 1310.14 194 1309.43 194C1308.72 194 1308.14 194.594 1308.14 195.327C1308.14 196.06 1308.72 196.654 1309.43 196.654Z" stroke="#F6F4D2" stroke-width="6" stroke-miterlimit="10" stroke-linecap="round"/>
<path d="M1295.68 196.654C1296.39 196.654 1296.97 196.06 1296.97 195.327C1296.97 194.594 1296.39 194 1295.68 194C1294.97 194 1294.4 194.594 1294.4 195.327C1294.4 196.06 1294.97 196.654 1295.68 196.654Z" stroke="#F6F4D2" stroke-width="6" stroke-miterlimit="10" stroke-linecap="round"/>
<path d="M1346.94 196.654C1347.65 196.654 1348.22 196.06 1348.22 195.327C1348.22 194.594 1347.65 194 1346.94 194C1346.23 194 1345.65 194.594 1345.65 195.327C1345.65 196.06 1346.23 196.654 1346.94 196.654Z" stroke="#F6F4D2" stroke-width="6" stroke-miterlimit="10" stroke-linecap="round"/>
<path d="M1351.69 196.654C1352.4 196.654 1352.97 196.06 1352.97 195.327C1352.97 194.594 1352.4 194 1351.69 194C1350.98 194 1350.41 194.594 1350.41 195.327C1350.41 196.06 1350.98 196.654 1351.69 196.654Z" stroke="#F6F4D2" stroke-width="6" stroke-miterlimit="10" stroke-linecap="round"/>
<path d="M1356.06 196.654C1356.77 196.654 1357.34 196.06 1357.34 195.327C1357.34 194.594 1356.77 194 1356.06 194C1355.35 194 1354.77 194.594 1354.77 195.327C1354.77 196.06 1355.35 196.654 1356.06 196.654Z" stroke="#F6F4D2" stroke-width="6" stroke-miterlimit="10" stroke-linecap="round"/>
<path d="M1332.68 196.654C1333.39 196.654 1333.96 196.06 1333.96 195.327C1333.96 194.594 1333.39 194 1332.68 194C1331.97 194 1331.39 194.594 1331.39 195.327C1331.39 196.06 1331.97 196.654 1332.68 196.654Z" stroke="#F6F4D2" stroke-width="6" stroke-miterlimit="10" stroke-linecap="round"/>
<path d="M1337.43 196.654C1338.14 196.654 1338.72 196.06 1338.72 195.327C1338.72 194.594 1338.14 194 1337.43 194C1336.72 194 1336.15 194.594 1336.15 195.327C1336.15 196.06 1336.72 196.654 1337.43 196.654Z" stroke="#F6F4D2" stroke-width="6" stroke-miterlimit="10" stroke-linecap="round"/>
<path d="M1341.8 196.654C1342.51 196.654 1343.08 196.06 1343.08 195.327C1343.08 194.594 1342.51 194 1341.8 194C1341.09 194 1340.51 194.594 1340.51 195.327C1340.51 196.06 1341.09 196.654 1341.8 196.654Z" stroke="#F6F4D2" stroke-width="6" stroke-miterlimit="10" stroke-linecap="round"/>
<path d="M1328.05 196.654C1328.76 196.654 1329.34 196.06 1329.34 195.327C1329.34 194.594 1328.76 194 1328.05 194C1327.34 194 1326.77 194.594 1326.77 195.327C1326.77 196.06 1327.34 196.654 1328.05 196.654Z" stroke="#F6F4D2" stroke-width="6" stroke-miterlimit="10" stroke-linecap="round"/>
<path d="M1379.57 196.654C1380.28 196.654 1380.85 196.06 1380.85 195.327C1380.85 194.594 1380.28 194 1379.57 194C1378.86 194 1378.28 194.594 1378.28 195.327C1378.28 196.06 1378.86 196.654 1379.57 196.654Z" stroke="#F6F4D2" stroke-width="6" stroke-miterlimit="10" stroke-linecap="round"/>
<path d="M1384.32 196.654C1385.03 196.654 1385.6 196.06 1385.6 195.327C1385.6 194.594 1385.03 194 1384.32 194C1383.61 194 1383.03 194.594 1383.03 195.327C1383.03 196.06 1383.61 196.654 1384.32 196.654Z" stroke="#F6F4D2" stroke-width="6" stroke-miterlimit="10" stroke-linecap="round"/>
<path d="M1389.33 196.654C1390.04 196.654 1390.61 196.06 1390.61 195.327C1390.61 194.594 1390.04 194 1389.33 194C1388.62 194 1388.04 194.594 1388.04 195.327C1388.04 196.06 1388.62 196.654 1389.33 196.654Z" stroke="#F6F4D2" stroke-width="6" stroke-miterlimit="10" stroke-linecap="round"/>
<path d="M1365.31 196.654C1366.02 196.654 1366.59 196.06 1366.59 195.327C1366.59 194.594 1366.02 194 1365.31 194C1364.6 194 1364.02 194.594 1364.02 195.327C1364.02 196.06 1364.6 196.654 1365.31 196.654Z" stroke="#F6F4D2" stroke-width="6" stroke-miterlimit="10" stroke-linecap="round"/>
<path d="M1370.06 196.654C1370.77 196.654 1371.34 196.06 1371.34 195.327C1371.34 194.594 1370.77 194 1370.06 194C1369.35 194 1368.78 194.594 1368.78 195.327C1368.78 196.06 1369.35 196.654 1370.06 196.654Z" stroke="#F6F4D2" stroke-width="6" stroke-miterlimit="10" stroke-linecap="round"/>
<path d="M1374.3 196.654C1375.01 196.654 1375.58 196.06 1375.58 195.327C1375.58 194.594 1375.01 194 1374.3 194C1373.59 194 1373.01 194.594 1373.01 195.327C1373.01 196.06 1373.59 196.654 1374.3 196.654Z" stroke="#F6F4D2" stroke-width="6" stroke-miterlimit="10" stroke-linecap="round"/>
<path d="M1360.68 196.654C1361.39 196.654 1361.97 196.06 1361.97 195.327C1361.97 194.594 1361.39 194 1360.68 194C1359.97 194 1359.4 194.594 1359.4 195.327C1359.4 196.06 1359.97 196.654 1360.68 196.654Z" stroke="#F6F4D2" stroke-width="6" stroke-miterlimit="10" stroke-linecap="round"/>
<path d="M1282.58 218.92C1283.29 218.92 1283.86 218.326 1283.86 217.593C1283.86 216.86 1283.29 216.266 1282.58 216.266C1281.87 216.266 1281.29 216.86 1281.29 217.593C1281.29 218.326 1281.87 218.92 1282.58 218.92Z" stroke="#F6F4D2" stroke-width="6" stroke-miterlimit="10" stroke-linecap="round"/>
<path d="M1284.63 214.791C1285.34 214.791 1285.92 214.197 1285.92 213.464C1285.92 212.731 1285.34 212.137 1284.63 212.137C1283.93 212.137 1283.35 212.731 1283.35 213.464C1283.35 214.197 1283.93 214.791 1284.63 214.791Z" stroke="#F6F4D2" stroke-width="6" stroke-miterlimit="10" stroke-linecap="round"/>
<path d="M1286.56 210.957C1287.27 210.957 1287.85 210.363 1287.85 209.63C1287.85 208.897 1287.27 208.303 1286.56 208.303C1285.85 208.303 1285.28 208.897 1285.28 209.63C1285.28 210.363 1285.85 210.957 1286.56 210.957Z" stroke="#F6F4D2" stroke-width="6" stroke-miterlimit="10" stroke-linecap="round"/>
<path d="M1288.62 206.829C1289.33 206.829 1289.9 206.235 1289.9 205.502C1289.9 204.769 1289.33 204.175 1288.62 204.175C1287.91 204.175 1287.33 204.769 1287.33 205.502C1287.33 206.235 1287.91 206.829 1288.62 206.829Z" stroke="#F6F4D2" stroke-width="6" stroke-miterlimit="10" stroke-linecap="round"/>
<path d="M1290.54 202.995C1291.25 202.995 1291.83 202.401 1291.83 201.668C1291.83 200.935 1291.25 200.341 1290.54 200.341C1289.83 200.341 1289.26 200.935 1289.26 201.668C1289.26 202.401 1289.83 202.995 1290.54 202.995Z" stroke="#F6F4D2" stroke-width="6" stroke-miterlimit="10" stroke-linecap="round"/>
<path d="M1276.28 231.601C1276.99 231.601 1277.57 231.007 1277.57 230.274C1277.57 229.541 1276.99 228.947 1276.28 228.947C1275.58 228.947 1275 229.541 1275 230.274C1275 231.007 1275.58 231.601 1276.28 231.601Z" stroke="#F6F4D2" stroke-width="6" stroke-miterlimit="10" stroke-linecap="round"/>
<path d="M1278.47 227.325C1279.18 227.325 1279.75 226.73 1279.75 225.998C1279.75 225.265 1279.18 224.67 1278.47 224.67C1277.76 224.67 1277.18 225.265 1277.18 225.998C1277.18 226.73 1277.76 227.325 1278.47 227.325Z" stroke="#F6F4D2" stroke-width="6" stroke-miterlimit="10" stroke-linecap="round"/>
<path d="M1280.27 223.638C1280.98 223.638 1281.55 223.044 1281.55 222.311C1281.55 221.578 1280.98 220.984 1280.27 220.984C1279.56 220.984 1278.98 221.578 1278.98 222.311C1278.98 223.044 1279.56 223.638 1280.27 223.638Z" stroke="#F6F4D2" stroke-width="6" stroke-miterlimit="10" stroke-linecap="round"/>
<path d="M1389.33 219.509C1390.04 219.509 1390.61 218.915 1390.61 218.182C1390.61 217.449 1390.04 216.855 1389.33 216.855C1388.62 216.855 1388.04 217.449 1388.04 218.182C1388.04 218.915 1388.62 219.509 1389.33 219.509Z" stroke="#F6F4D2" stroke-width="6" stroke-miterlimit="10" stroke-linecap="round"/>
<path d="M1417.08 295.447L1407.83 291.761C1406.03 291.024 1403.97 291.761 1403.2 293.531L1387.66 323.464C1387.27 324.053 1388.04 324.791 1388.69 324.496L1419.26 309.161C1421.06 308.276 1421.57 306.212 1420.8 304.442L1417.08 295.447Z" fill="#C9D070"/>
<path d="M1419.52 284.536L1428.25 293.088C1428.64 293.531 1428.38 294.12 1427.87 294.268L1417.08 295.595L1418.62 284.831C1418.75 284.388 1419.26 284.241 1419.52 284.536Z" fill="#C9D070"/>
<path d="M1428.25 293.088L1427.61 292.498C1427.48 292.646 1427.35 292.793 1427.1 292.793L1417.33 293.973L1417.08 295.595L1427.87 294.268C1428.51 294.12 1428.64 293.53 1428.25 293.088Z" fill="#78AC42"/>
<path d="M1419.26 306.949L1388.69 322.284C1388.56 322.431 1388.3 322.431 1388.17 322.431L1387.66 323.463C1387.27 324.053 1388.04 324.79 1388.69 324.496L1419.26 309.16C1420.8 308.423 1421.44 306.654 1420.93 305.032C1420.67 305.769 1420.16 306.506 1419.26 306.949Z" fill="#78AC42"/>
<path d="M1390.49 317.861L1394.21 321.547L1388.56 324.496C1387.92 324.791 1387.15 324.201 1387.53 323.464L1390.49 317.861Z" fill="#C9D070"/>
<path d="M1392.8 320.219L1388.04 322.726L1387.66 323.463C1387.66 323.611 1387.53 323.611 1387.53 323.758C1387.4 324.348 1388.04 324.791 1388.69 324.496L1394.34 321.694L1392.8 320.219Z" fill="#78AC42"/>
<path d="M1394.21 321.547L1396.78 320.367L1391.77 315.501L1390.48 317.86" fill="#F6F4D2"/>
<path d="M1396.78 320.367L1394.21 321.547L1392.8 320.22L1395.24 318.893L1396.78 320.367Z" fill="#E8D7A5"/>
<path d="M1389.33 210.662C1390.04 210.662 1390.61 210.068 1390.61 209.335C1390.61 208.602 1390.04 208.008 1389.33 208.008C1388.62 208.008 1388.04 208.602 1388.04 209.335C1388.04 210.068 1388.62 210.662 1389.33 210.662Z" stroke="#F6F4D2" stroke-width="6" stroke-miterlimit="10" stroke-linecap="round"/>
<path d="M1389.33 214.939C1390.04 214.939 1390.61 214.344 1390.61 213.611C1390.61 212.879 1390.04 212.284 1389.33 212.284C1388.62 212.284 1388.04 212.879 1388.04 213.611C1388.04 214.344 1388.62 214.939 1389.33 214.939Z" stroke="#F6F4D2" stroke-width="6" stroke-miterlimit="10" stroke-linecap="round"/>
<path d="M1389.33 205.944C1390.04 205.944 1390.61 205.35 1390.61 204.617C1390.61 203.884 1390.04 203.29 1389.33 203.29C1388.62 203.29 1388.04 203.884 1388.04 204.617C1388.04 205.35 1388.62 205.944 1389.33 205.944Z" stroke="#F6F4D2" stroke-width="6" stroke-miterlimit="10" stroke-linecap="round"/>
<path d="M1389.33 200.783C1390.04 200.783 1390.61 200.189 1390.61 199.456C1390.61 198.723 1390.04 198.129 1389.33 198.129C1388.62 198.129 1388.04 198.723 1388.04 199.456C1388.04 200.189 1388.62 200.783 1389.33 200.783Z" stroke="#F6F4D2" stroke-width="6" stroke-miterlimit="10" stroke-linecap="round"/>
<path d="M1389.33 228.651C1390.04 228.651 1390.61 228.057 1390.61 227.324C1390.61 226.591 1390.04 225.997 1389.33 225.997C1388.62 225.997 1388.04 226.591 1388.04 227.324C1388.04 228.057 1388.62 228.651 1389.33 228.651Z" stroke="#F6F4D2" stroke-width="6" stroke-miterlimit="10" stroke-linecap="round"/>
<path d="M1293.11 199.161C1293.82 199.161 1294.4 198.567 1294.4 197.834C1294.4 197.101 1293.82 196.507 1293.11 196.507C1292.4 196.507 1291.83 197.101 1291.83 197.834C1291.83 198.567 1292.4 199.161 1293.11 199.161Z" stroke="#F6F4D2" stroke-width="6" stroke-miterlimit="10" stroke-linecap="round"/>
<path d="M113.381 280.092C129.866 280.092 143.229 265.297 143.229 247.046C143.229 228.795 129.866 214 113.381 214C96.8969 214 83.5337 228.795 83.5337 247.046C83.5337 265.297 96.8969 280.092 113.381 280.092Z" fill="#9B2227"/>
<path d="M113.716 214V279.932C130.149 279.773 143.396 265.086 143.396 246.886C143.396 228.687 129.982 214.16 113.716 214Z" fill="#A44A3F"/>
<path d="M179.951 339H48.488C44.1283 339 40.6069 335.647 40.6069 331.497V241.139H188V331.497C188 335.488 184.311 339 179.951 339Z" fill="#C96928"/>
<path d="M188 282.167H40.6069V309.306H188V282.167Z" fill="#F19B79"/>
<path d="M40.4391 241.139H187.832V261.733C187.832 261.733 179.951 266.363 172.07 254.389C164.189 242.416 157.146 258.54 154.463 261.733C151.78 264.926 142.055 267.64 140.21 258.859C138.869 252.314 137.527 248.004 133.168 247.844C130.317 247.684 127.634 249.441 126.125 251.995C124.616 254.549 122.268 257.742 120.088 256.624C117.07 255.188 113.549 248.163 108.686 251.037C107.177 251.995 106.171 253.591 105.835 255.347C105.165 259.179 102.817 267.32 96.9482 266.363C90.7439 265.405 88.7317 256.944 88.061 253.272C87.7256 251.516 86.5519 249.76 84.875 249.121C83.0305 248.483 80.3476 248.802 77.1616 252.953C70.7897 261.254 65.5915 260.935 60.8964 256.305C56.872 252.474 55.8659 249.919 52.3446 250.718C50.8354 251.037 49.6616 251.995 48.8232 253.112C46.308 256.465 40.1037 263.968 39.2653 257.742C38.2592 250.718 40.4391 241.139 40.4391 241.139Z" fill="#E8D7A5"/>
<g filter="url(#filter0_b_0_1)">
<rect x="-25" y="-23" width="1506" height="1047" fill="#9B8356" fill-opacity="0.55"/>
</g>
<defs>
<filter id="filter0_b_0_1" x="-33" y="-31" width="1522" height="1063" filterUnits="userSpaceOnUse" color-interpolation-filters="sRGB">
<feFlood flood-opacity="0" result="BackgroundImageFix"/>
<feGaussianBlur in="BackgroundImage" stdDeviation="4"/>
<feComposite in2="SourceAlpha" operator="in" result="effect1_backgroundBlur_0_1"/>
<feBlend mode="normal" in="SourceGraphic" in2="effect1_backgroundBlur_0_1" result="shape"/>
</filter>
<linearGradient id="paint0_linear_0_1" x1="129" y1="522.5" x2="129" y2="180.5" gradientUnits="userSpaceOnUse">
<stop offset="0.333511" stop-color="#78AC42"/>
<stop offset="1" stop-color="#D4DF9A"/>
</linearGradient>
<linearGradient id="paint1_linear_0_1" x1="537" y1="276" x2="537" y2="513" gradientUnits="userSpaceOnUse">
<stop stop-color="#DAEDEC"/>
<stop offset="1" stop-color="#78AB42"/>
</linearGradient>
</defs>
</svg>
