<svg width="961" height="733" viewBox="0 0 961 733" fill="none" xmlns="http://www.w3.org/2000/svg">
<path d="M11.9933 290.714C144.512 283.066 277.744 287.238 409.482 303.151C459.031 309.138 508.95 316.94 554.969 335.775C574.905 343.938 596.07 356.761 600.076 377.464C604.439 399.994 586.367 420.632 567.608 434.473C548.848 448.326 526.89 460.724 517.636 481.8C506.438 507.305 517.715 536.582 531.041 561.095C561.024 616.263 601.993 665.754 651 706C460.036 702.459 269.071 698.932 78.107 695.391C71.1929 695.263 64.0673 695.095 57.7216 692.404C44.8452 686.945 38.5393 672.629 36.1861 659.149C29.5099 620.86 45.5856 581.309 71.1665 551.517C96.7474 521.725 131.027 500.327 165.796 481.311C200.565 462.295 236.616 445.056 268.331 421.521C282.291 411.157 296.688 395.192 290.937 379.034C285.2 362.954 264.061 359.104 246.61 357.855C167.118 352.216 87.6387 346.564 8.14625 340.925C7.85541 325.308 7.55134 309.691 11.9933 290.714Z" fill="#1A5071"/>
<path opacity="0.1" d="M952.716 12.8118C949.407 27.0198 941.437 40.7841 943.532 55.0745C944.874 64.1465 950.05 71.3156 955.182 77.7701C950.352 79.6569 945.659 82.0176 941.077 84.7433C939.798 85.5197 938.478 86.3635 937.639 87.818C936.123 90.4924 936.688 94.2019 935.472 97.1157C933.768 101.124 929.34 102.087 927.137 105.696C924.385 110.287 926.379 116.787 929.255 120.947C932.131 125.108 935.948 128.676 937.114 134.072C923.484 131.955 909.803 130.437 896.062 129.589C894.222 129.464 892.231 129.432 890.655 130.751C889.5 131.751 888.789 133.359 888.117 134.935C886.289 139.145 884.457 143.391 882.664 147.604C882.218 148.631 881.769 149.694 881.776 150.831C881.789 152.716 883.091 154.109 884.194 155.343C889.162 160.823 892.755 168.174 894.428 176.315C891.072 178.047 887.456 176.238 883.938 175.752C875.289 174.497 866.152 182.474 863.858 193.218C839.356 190.042 814.66 188.661 790 187.283C813.454 170.717 835.108 149.908 854.03 125.731C860.763 117.153 867.144 108.118 874.416 100.298C881.409 92.8083 889.398 86.1523 893.91 76.1005C895.149 73.3308 896.163 70.2926 898.089 68.2226C903.352 62.6072 911.93 67.5157 917.684 62.7961C919.141 61.6089 920.287 59.8971 921.396 58.2175C931.424 43.3186 941.348 28.3751 952.716 12.8118Z" fill="url(#paint0_linear)"/>
<path d="M491.996 362.473C485.567 350.896 472.788 344.411 460.552 340.118C444.982 334.665 428.473 331.21 412.294 328C395.018 324.583 377.57 321.966 360.068 319.89C324.695 315.701 289.071 313.896 253.473 312.697C216.565 311.459 179.645 310.634 142.724 310.028C105.472 309.409 68.221 309.074 30.9563 309.01C21.8816 308.997 12.8201 308.997 3.74532 309.01C-1.24182 309.023 -1.25505 316.577 3.74532 316.577C40.6793 316.513 77.6133 316.706 114.547 317.183C151.481 317.66 188.402 318.408 225.323 319.426C260.881 320.406 296.466 321.554 331.918 324.609C366.947 327.613 401.857 332.537 435.96 341.033C449.493 344.398 463.899 347.711 475.46 355.73C480.236 359.043 484.429 363.543 486.572 368.931C489.205 375.545 488.649 382.636 486.374 389.262C481.995 402.025 471.981 412.339 461.809 421.067C452.602 428.956 442.429 435.673 431.965 441.874C410.548 454.573 387.769 465.015 366.841 478.5C346.311 491.714 327.553 508.371 317.287 530.584C304.059 559.191 305.739 591.279 311.07 621.511C313.782 636.891 317.367 652.142 321.203 667.29C325.052 682.438 329.629 697.47 336.389 711.651C339.683 718.561 343.559 725.11 348.044 731.35C350.848 735.244 357.462 731.531 354.645 727.599C336.151 701.853 329.352 669.933 322.645 639.753C316.004 609.869 310.541 577.768 319.126 547.704C322.751 535.019 329.047 523.145 337.646 512.986C345.226 504.052 354.248 496.356 363.905 489.626C384.25 475.445 406.924 464.886 428.513 452.678C439.452 446.489 450.128 439.85 460.089 432.244C470.513 424.29 480.501 415.11 487.578 404.114C495.541 391.686 499.51 376.009 491.996 362.473Z" fill="#FBB626"/>
<path d="M638.512 713.405C590.702 669.739 551.05 617.78 522.029 560.509C508.424 533.672 493.681 498.259 513.858 470.803C531.139 447.294 562.871 439.775 581.685 417.645C590.544 407.225 595.251 394.394 593.029 380.827C590.689 366.538 581.725 353.81 570.301 344.873C558.151 335.368 543.593 329.488 528.917 324.768C512.218 319.403 495.123 315.237 477.881 311.936C443.161 305.282 407.859 302.122 372.597 299.788C335.14 297.312 297.63 295.584 260.107 294.384C184.796 291.973 109.419 291.638 34.0812 292.295C24.8656 292.373 15.6633 292.463 6.44778 292.566C4.51741 292.592 4.51741 295.506 6.44778 295.494C81.3753 294.9 156.316 294.746 231.23 296.615C268.463 297.544 305.695 298.963 342.874 301.052C379.049 303.076 415.316 305.359 451.187 310.569C468.653 313.11 486.039 316.359 503.148 320.641C519.543 324.755 536.242 329.397 551.421 336.838C565.409 343.686 578.01 353.436 585.162 367.286C592.289 381.098 592.17 396.754 583.602 409.908C567.763 434.256 536.586 442.161 516.806 462.537C506.678 472.97 501.152 486.214 500.808 500.58C500.451 515.888 505.198 530.976 511.187 544.956C523.523 573.753 540.209 601.234 558.256 626.949C576.344 652.716 596.732 676.96 619.142 699.271C624.722 704.829 630.434 710.258 636.251 715.571C637.772 716.925 639.993 714.759 638.512 713.405Z" fill="white"/>
<path d="M305.098 383.892C302.508 373.652 294.58 365.318 285.449 360.05C274.496 353.713 261.639 351.536 249.192 349.9C235.067 348.046 220.916 346.448 206.738 344.993C178.065 342.043 149.313 339.828 120.508 338.321C91.5844 336.814 62.6341 336.041 33.6707 336.002C26.6148 335.99 19.5721 336.028 12.5162 336.105C10.4946 336.131 10.4946 339.184 12.5162 339.158C41.2286 338.849 69.9411 339.248 98.6271 340.369C127.313 341.49 155.973 343.344 184.553 345.908C198.85 347.196 213.12 348.651 227.377 350.287C240.855 351.833 254.715 352.914 267.863 356.366C279.2 359.342 290.299 364.829 297.17 374.438C300.288 378.791 302.402 383.84 302.785 389.173C303.234 395.433 301.53 401.641 298.755 407.244C288.858 427.273 268.616 440.63 248.968 450.548C228.58 460.84 207.042 468.748 186.667 479.066C165.764 489.679 145.68 501.98 127.458 516.599C109.462 531.051 93.2361 547.886 80.6702 567.091C68.3158 585.999 59.6083 607.342 55.684 629.445C51.8125 651.239 52.5656 673.973 59.5158 695.122C61.2071 700.287 63.2816 705.324 65.66 710.218C66.5188 711.983 69.2143 710.45 68.3555 708.685C58.3927 688.193 55.0233 665.24 57.0317 642.737C59.0666 620.016 66.4528 597.759 77.7633 577.833C89.1796 557.726 104.771 540.042 122.371 524.83C140.275 509.36 160.359 496.416 181.355 485.287C191.715 479.8 202.325 474.764 213.094 470.049C223.479 465.503 233.957 461.162 244.198 456.306C263.965 446.929 283.335 435.246 296.218 417.433C303.182 407.824 308.11 395.742 305.098 383.892Z" fill="white"/>
<path d="M459.07 356.963C449.397 350.591 437.596 347.598 426.27 345.534C393.801 339.626 360.908 335.511 328.069 332.08C294.846 328.61 261.517 326.121 228.149 324.315C194.741 322.509 161.281 321.374 127.833 320.626C94.5178 319.877 61.1893 319.503 27.8608 319.207C19.6145 319.129 11.3683 319.065 3.12207 319C-1.04069 318.961 -1.04069 325.269 3.12207 325.308C36.292 325.579 69.4488 325.863 102.606 326.43C135.762 326.998 168.932 327.875 202.063 329.333C235.153 330.79 268.217 332.841 301.202 335.782C334.174 338.723 367.08 342.542 399.787 347.559C413.399 349.649 427.42 351.3 440.582 355.441C450.705 358.627 461.224 363.864 466.114 373.59C471.955 385.187 466.524 398.989 458.013 407.838C448.313 417.938 434.834 423.524 422.187 429.213C397.514 440.306 372.657 451.761 350.878 467.808C340.108 475.741 330.13 484.706 321.778 495.064C313.202 505.693 306.475 517.483 301.48 530.099C291.37 555.575 288.595 583.631 290.696 610.746C293.128 642.207 301.665 672.805 311.338 702.783C313.717 710.135 316.162 717.475 318.607 724.815C319.889 728.659 326.126 727.008 324.831 723.138C314.748 692.902 304.599 662.472 299.564 630.972C295.084 602.942 295.057 573.879 302.801 546.378C306.488 533.285 311.92 520.695 319.386 509.202C326.721 497.915 336.011 487.995 346.411 479.34C367.199 462.029 391.977 449.916 416.57 438.694C440.252 427.884 472.669 416.146 474.915 386.283C475.84 374.145 469.114 363.58 459.07 356.963Z" fill="#FBB626"/>
<g clip-path="url(#clip0)">
<path d="M90.6843 278.078C90.9101 278.032 91.1165 277.927 91.2895 277.777C97.4904 272.483 104.624 271.002 111.46 269.634C117.091 268.516 122.724 267.413 128.4 266.49C146.288 263.587 164.485 262.525 182.612 263.331C201.842 264.199 220.909 267.155 240.053 269.22C254.353 270.761 268.711 271.824 283.069 272.873L313.489 275.113C314.226 275.169 314.8 275.756 314.803 276.473L315.034 294.795C315.039 295.543 314.441 296.164 313.664 296.186C299.82 296.629 299.179 296.47 285.338 295.829C284.159 295.788 280.55 294.713 281.299 293.837L286.135 291.423C286.898 290.531 273.031 289.225 271.839 289.215C266.708 289.169 261.588 289.29 256.478 289.563C254.912 289.655 251.282 289.584 249.782 289.59L224.514 288.177C221.695 287.789 218.729 288.389 216.328 289.882C216.138 290.002 215.93 290.092 215.702 290.108C189.114 292.782 162.016 294.04 134.914 293.878C134.181 293.883 133.58 293.344 133.501 292.647C133.419 291.889 133.34 291.177 133.261 290.465C133.18 289.737 132.502 289.188 131.742 289.24C119.403 290.038 107.018 289.71 94.6474 289.38L94.6182 289.379C93.9075 289.353 93.1552 289.324 92.558 288.958C92.2548 288.765 92.0213 288.476 91.8921 288.149C91.6866 287.598 91.0995 287.272 90.4908 287.298C89.2744 287.366 88.0355 287.329 86.8208 287.198C86.1278 287.108 85.6022 286.564 85.5564 285.895L85.2434 280.649C85.2174 280.269 85.2045 279.858 85.443 279.551C85.6805 279.23 86.1007 279.125 86.4915 279.037L90.6843 278.078Z" fill="#242424"/>
<path d="M313.729 281.28C318.58 283.025 324.296 282.237 328.441 279.251C328.601 279.133 328.776 279.014 328.96 279.017C329.25 279.028 329.453 279.319 329.577 279.57C330.039 280.516 330.308 281.551 330.379 282.584C330.397 282.858 330.402 283.147 330.266 283.386C330.102 283.672 329.792 283.83 329.497 283.973C326.822 285.255 323.992 286.273 321.026 286.644C318.075 287.014 314.97 286.707 312.275 285.456C312.406 283.798 312.658 282.132 313.005 280.505C313.287 280.623 313.554 280.727 313.729 281.28Z" fill="#242424"/>
<path d="M306.72 164.561C283.499 158.683 259.158 158.058 235.291 160.133C211.424 162.209 187.892 166.933 164.435 171.653C146.804 175.195 129.054 178.775 112.38 185.367C172.535 174.488 233.465 163.556 294.554 167.668C299.629 168.008 305.777 167.969 306.72 164.561Z" fill="#D6D6D6"/>
<path d="M220.401 175.382L220.554 165.34C220.571 163.812 220.436 162.951 222.008 162.951L305.369 162.424C309.23 162.42 312.902 164.107 315.359 167.008L322.337 175.295C323.898 177.142 322.516 179.924 320.056 179.879L223.251 178.225C221.648 178.213 220.37 176.941 220.401 175.382Z" fill="#B5B5B5"/>
<path d="M87.9278 278.603L88.53 237.872C88.5622 235.442 90.4386 233.42 92.9056 233.114C92.9056 233.114 208.378 212.039 234.177 215.664C250.004 217.894 233.692 277.747 233.692 277.747L92.9055 283.316C90.1657 283.427 87.8808 281.263 87.9278 278.603Z" fill="#E36844"/>
<path d="M233.511 278.461L234.18 216.183C234.18 216.183 329.799 216.344 330.113 217.819C335.316 242.335 332.616 274.033 329.204 278.374C326.86 281.374 233.511 278.461 233.511 278.461Z" fill="#E36844"/>
<path d="M222.536 210.399L225.132 178.28L320.821 179.918L332.928 211.428L222.536 210.399Z" fill="#FBB626"/>
<path d="M89.6985 229.746L102.035 199.007L225.24 178.288L223.074 209.553L89.6985 229.746Z" fill="#FBB626"/>
<path d="M219.83 212.797C219.859 210.979 221.407 209.514 223.287 209.553L331.995 211.415C333.875 211.455 335.382 212.955 335.354 214.774C335.326 216.592 333.777 218.057 331.897 218.018L223.19 216.171C221.31 216.132 219.803 214.632 219.83 212.797Z" fill="#B5B5B5"/>
<path d="M86.9209 232.44C86.6442 230.626 87.9185 228.951 89.7778 228.687L221.96 209.568C223.819 209.303 225.553 210.543 225.844 212.356C226.121 214.169 224.847 215.844 222.988 216.108L90.8052 235.227C88.946 235.492 87.1975 234.253 86.9209 232.44Z" fill="#B5B5B5"/>
<path d="M100.507 196.775L108.144 186.359C109.135 185.009 110.613 184.083 112.286 183.77L221.445 162.989C222.409 162.801 223.325 163.471 223.421 164.427L224.78 178.273L101.939 198.967C100.657 199.192 99.7535 197.804 100.507 196.775Z" fill="#B5B5B5"/>
<path d="M116.788 275.682C116.18 272.807 115.518 269.829 113.664 267.498C111.812 265.182 108.386 263.752 105.682 265.052C102.726 266.46 102.002 270.159 101.732 273.353C101.214 279.16 100.976 285.054 101.996 290.817C101.685 286.502 102.439 281.9 105.263 278.562C108.088 275.224 113.383 273.655 116.788 275.682Z" fill="#242424"/>
<path d="M195.564 266.14C192.085 266.821 187.972 269.622 185.516 272.095C182.376 275.272 181.002 279.061 180.845 283.454C180.758 285.979 180.671 288.504 180.584 291.029C179.156 285.096 178.099 279.244 178.323 272.923C178.356 271.837 178.337 270.678 178.898 269.723C179.732 268.307 181.791 266.716 183.43 266.36C186.98 265.598 191.499 265.395 195.564 266.14Z" fill="#242424"/>
<path d="M112.288 305.854C116.22 305.769 120.136 305.669 124.068 305.583C124.663 305.573 125.271 305.546 125.822 305.341C126.268 305.173 126.662 304.902 127.038 304.601C129.874 302.331 131.645 298.988 132.414 295.5C133.183 292.012 133.026 288.389 132.449 284.856C131.519 279.071 129.3 273.177 124.677 269.417C123.885 268.768 123.005 268.172 121.993 267.89C121.059 267.618 120.052 267.626 119.076 267.632C115.887 267.651 112.698 267.671 109.51 267.691C111.309 269.888 112.288 272.6 113.068 275.31C115.836 284.984 116.253 295.766 112.288 305.854Z" fill="#242424"/>
<path d="M218.946 273.259C221.763 282.975 221.01 293.608 216.864 302.839C216.253 304.178 215.581 305.507 214.685 306.683C214.46 306.973 214.221 307.264 213.895 307.408C213.598 307.536 213.279 307.557 212.96 307.579C205.353 307.932 197.699 308.272 190.16 307.169C192.592 306.804 194.664 305.182 196.056 303.224C197.448 301.266 198.238 298.967 198.936 296.675C200.454 291.655 201.614 286.293 200.335 281.204C199.703 278.667 198.489 276.307 197.173 274.031C195.493 271.123 193.427 268.134 190.23 266.917C192.042 265.969 194.216 266.065 196.27 266.184C199.672 266.394 203.089 266.587 206.492 266.798C208.438 266.909 210.4 267.034 212.346 267.145C213.251 267.205 214.171 267.265 215.002 267.59C217.48 268.565 218.443 271.477 218.946 273.259Z" fill="#242424"/>
<path d="M125.555 286.689C125.695 276.056 119.94 267.358 112.7 267.262C105.459 267.166 99.4755 275.708 99.3348 286.341C99.1941 296.974 104.95 305.671 112.19 305.767C119.431 305.864 125.414 297.322 125.555 286.689Z" fill="#363636"/>
<path d="M205.912 287.533C206.068 276.035 200.202 266.632 192.811 266.531C185.42 266.43 179.302 275.67 179.146 287.169C178.99 298.667 184.855 308.07 192.246 308.171C199.638 308.272 205.756 299.032 205.912 287.533Z" fill="#363636"/>
<path d="M202.078 286.587C202.199 277.738 197.785 270.503 192.218 270.426C186.651 270.35 182.041 277.462 181.92 286.311C181.799 295.16 186.214 302.395 191.78 302.471C197.347 302.548 201.958 295.436 202.078 286.587Z" fill="#949494"/>
<path d="M119.926 286.339C120.034 278.55 116.311 272.182 111.61 272.117C106.91 272.052 103.012 278.313 102.904 286.102C102.796 293.892 106.52 300.259 111.22 300.324C115.921 300.389 119.818 294.128 119.926 286.339Z" fill="#949494"/>
<path d="M280.206 289.515C279.046 294.639 280.244 300.334 283.368 304.498C283.821 305.1 284.319 305.682 284.968 306.02C285.711 306.402 286.585 306.94 287.409 306.95C291.916 307.503 298.919 307.515 307.631 306.435C308.318 306.437 309.051 306.437 309.671 306.129C310.424 305.761 310.936 304.993 311.372 304.231C315.288 297.437 316.095 288.708 313.502 281.144C303.985 280.13 294.533 282.741 285.415 285.562C283.051 286.257 280.652 287.553 280.206 289.515Z" fill="#242424"/>
<path d="M223.185 278.572C226.695 278.79 230.293 278.498 233.77 278.459C233.947 277.928 234.077 277.369 234.116 276.817C231.081 276.857 228.045 276.881 224.995 276.922C224.553 276.921 224.096 276.937 223.679 277.088C223.262 277.239 222.806 277.942 223.185 278.572Z" fill="#E36844"/>
<path d="M239.72 204.337L239.754 185.86C239.763 183.539 241.787 181.675 244.278 181.719L310.307 182.851C312.37 182.893 314.141 184.238 314.59 186.116L318.919 204.096C319.556 206.724 317.42 209.191 314.55 209.173L244.16 208.553C241.7 208.507 239.724 206.627 239.72 204.337Z" fill="#161654"/>
<path d="M123.114 219.536L126.909 198.038C127.081 196.988 128.696 196.053 130.855 195.707L201.818 184.623C204.944 184.135 207.937 185.06 208.039 186.549L209.937 208.039C210.017 209.209 208.232 210.339 205.737 210.677L129.081 221.754C125.799 222.207 122.84 221.112 123.114 219.536Z" fill="#161654"/>
<path d="M94.5683 225.305L103.005 201.383C103.133 201.023 103.437 200.773 103.83 200.716L123.461 197.419C124.157 197.325 124.731 197.912 124.609 198.577L120.393 222.623C120.316 223.055 119.957 223.385 119.502 223.432L95.6341 226.607C94.8907 226.673 94.3243 225.979 94.5683 225.305Z" fill="#161654"/>
<path d="M138.871 273.194C138.517 271.371 138.163 269.548 137.525 267.805C135.654 262.757 131.347 258.7 126.258 256.605C121.17 254.511 115.356 254.313 109.994 255.58C107.651 256.138 105.328 256.984 103.429 258.457C98.9077 261.973 97.7882 268.141 97.3624 273.743C97.1287 276.798 97.0777 280.069 97.7131 283.109C98.5922 283.019 99.4833 282.881 100.364 282.821C100.229 280.616 100.199 278.389 100.276 276.17C100.375 273.156 100.751 269.954 102.632 267.55C104.092 265.695 106.436 264.481 108.833 264.485C111.244 264.488 113.636 265.759 114.844 267.799C115.656 269.179 115.904 270.795 116.193 272.348C116.713 275.046 117.461 277.712 118.415 280.288C118.639 280.884 118.863 281.479 119.16 282.024C119.982 281.998 120.82 281.971 121.641 281.931C124.93 281.812 128.233 281.678 131.522 281.56C134.49 281.449 137.476 281.366 140.447 281.285C139.912 278.604 139.392 275.907 138.871 273.194Z" fill="#E36844"/>
<path d="M208.055 279.378C208.801 279.358 209.531 279.323 210.277 279.287C214.704 279.076 219.116 278.652 223.545 278.471C223.113 273.493 222.119 268.553 220.557 263.789C219.843 261.609 218.957 259.364 217.19 257.851C215.601 256.494 213.499 255.89 211.439 255.451C205.895 254.273 200.155 254.039 194.542 254.759C190.759 255.247 187.052 256.157 183.344 257.067C181.422 257.534 179.486 258.018 177.565 258.485C176.964 258.633 176.349 258.782 175.856 259.167C175.363 259.552 175.066 260.107 174.799 260.675C175.206 260.601 175.613 260.527 176.02 260.454C176.261 260.407 176.483 260.529 176.561 260.768C176.621 260.978 176.471 261.247 176.246 261.293C175.627 261.397 175.009 261.515 174.391 261.619C173.162 264.405 171.917 267.178 170.688 269.964C170.013 271.476 169.34 273.018 169.085 274.654C168.875 276.043 169.001 277.439 169.353 278.789C169.383 278.787 169.414 278.785 169.444 278.783C169.825 278.772 170.19 278.747 170.57 278.736C170.982 278.723 171.395 278.741 171.806 278.728C172.248 278.713 172.69 278.713 173.134 278.729C173.578 278.744 174.023 278.775 174.465 278.775C174.894 278.792 175.318 278.747 175.758 278.702C176.38 278.659 177.017 278.601 177.643 278.604C177.513 276.704 177.49 274.797 177.574 272.898C177.61 272.086 177.675 271.257 178.006 270.517C179.06 268.078 184.229 266.656 186.928 266.395C189.642 266.133 194.918 265.177 201.116 267.638C205.383 269.331 206.909 274.464 207.924 278.807C207.953 279.004 207.995 279.184 208.055 279.378Z" fill="#E36844"/>
<path d="M207.845 278.309C206.687 274.327 206.05 272.37 204.084 269.741C203.462 268.898 202.173 268.131 201.197 267.694C200.3 267.297 198.825 266.711 197.959 266.541C192.343 265.445 186.001 266.214 181.514 267.788C180.933 267.996 179.812 268.561 179.367 268.974C179.037 269.286 178.615 270.033 178.579 270.615C178.252 275.432 178.093 276.008 178.56 279.946C176.74 275.428 177.238 274.891 176.988 269.9C176.909 268.302 176.77 266.266 178.195 265.45C178.797 265.104 179.49 264.98 180.169 264.857C186.428 263.757 192.747 262.653 199.104 262.982C200.207 263.044 201.36 263.164 202.285 263.742C203.034 264.209 203.573 264.951 204.066 265.681C206.546 269.359 207.236 274.762 207.845 278.309Z" fill="#F08767"/>
<path d="M119.065 281.969C116.836 277.053 116.17 274.228 114.794 269.07C114.55 268.17 113.232 266.978 112.533 266.354C110.778 264.795 109.917 264.93 109.068 264.789C106.923 264.448 105.279 264.957 103.551 266.923C102.56 268.044 101.968 271.001 101.824 272.461C101.359 277.043 101.325 278.999 101.28 282.132C100.646 276.664 99.366 270.446 100.99 265.174C101.191 264.55 101.406 263.894 101.861 263.404C102.386 262.834 103.145 262.553 103.894 262.334C107.156 261.378 110.633 261.339 114.049 261.303C114.507 261.303 115.011 261.299 115.408 261.531C116.044 261.9 116.235 262.681 116.359 263.39C117.391 269.549 117.639 275.395 119.065 281.969Z" fill="#F08767"/>
<path d="M230.021 264.257L230.318 244.281C230.331 243.12 231.306 242.213 232.498 242.223L236.517 242.299C237.709 242.325 238.659 243.267 238.632 244.43L238.335 264.406C238.322 265.567 237.347 266.473 236.155 266.463L232.136 266.387C230.944 266.362 229.993 265.404 230.021 264.257Z" fill="#DEDEDE"/>
<path d="M272.959 259.167L272.579 250.703C272.53 249.775 273.317 249.004 274.279 249.015L292.815 249.334C293.656 249.353 294.37 249.976 294.457 250.795L295.357 259.268C295.454 260.239 294.671 261.071 293.662 261.048L274.622 260.717C273.721 260.702 273.002 260.019 272.959 259.167Z" fill="#DEDEDE"/>
<path d="M230.104 257.869L230.304 244.282C230.316 243.121 231.292 242.214 232.483 242.224L236.503 242.3C237.695 242.326 238.645 243.268 238.617 244.431L238.417 258.018C238.405 259.179 237.429 260.085 236.238 260.075L232.219 259.999C231.042 259.973 230.092 259.03 230.104 257.869Z" fill="#DB4647"/>
<path d="M328.219 262.868L328.517 243.35C328.537 242.081 329.612 241.061 330.927 241.093L334.518 241.153C335.831 241.17 336.881 242.228 336.86 243.497L336.562 263.015C336.542 264.283 335.467 265.303 334.153 265.271L330.562 265.212C329.248 265.195 328.199 264.136 328.219 262.868Z" fill="#DEDEDE"/>
<path d="M328.306 256.526L328.505 243.366C328.525 242.098 329.6 241.077 330.914 241.11L334.505 241.169C335.819 241.186 336.868 242.244 336.848 243.513L336.65 256.673C336.629 257.941 335.555 258.961 334.24 258.929L330.649 258.869C329.335 258.852 328.286 257.794 328.306 256.526Z" fill="#DB4647"/>
<path d="M95.7795 215.787C93.8711 215.78 91.9538 215.865 90.0569 216.025C89.2984 216.093 88.4811 216.194 87.8874 216.662C87.0347 217.362 86.9507 218.589 86.9344 219.69C86.921 221.278 86.9066 222.852 86.8779 224.442C86.8688 224.977 86.8758 225.526 87.0772 226.016C87.2603 226.462 87.6064 226.835 87.9362 227.194C88.8749 228.199 89.7984 229.204 90.7371 230.209C90.9513 230.439 91.1654 230.668 91.4644 230.8C91.7949 230.946 92.1909 230.934 92.5555 230.909C93.5734 230.839 94.5923 230.785 95.595 230.716C95.8228 230.701 96.0811 230.683 96.2703 230.548C96.6051 230.311 96.6185 229.837 96.6067 229.441C96.4298 225.071 96.1781 220.722 95.7795 215.787Z" fill="#FBB626"/>
<path d="M94.525 217.537C92.8984 217.633 91.2566 217.73 89.63 217.826C89.1743 217.857 88.6588 217.907 88.3941 218.277C88.2274 218.517 88.2026 218.824 88.2061 219.099C88.155 220.583 88.1181 222.052 88.067 223.536C88.0574 223.842 88.0488 224.163 88.1304 224.463C88.2721 224.973 88.6517 225.389 89.0291 225.776C89.8338 226.606 90.6396 227.452 91.4443 228.283C91.6898 228.525 91.9212 228.784 92.2365 228.931C92.568 229.091 92.9368 229.127 93.3197 229.147C93.8859 229.169 94.4512 229.176 94.9981 229.139C95.0892 229.132 95.1804 229.126 95.237 229.061C95.2936 228.996 95.3015 228.889 95.2953 228.798C94.9902 225.231 94.7145 221.646 94.525 217.537Z" fill="#2B2F71"/>
</g>
<defs>
<linearGradient id="paint0_linear" x1="908.216" y1="128.72" x2="856.027" y2="87.9459" gradientUnits="userSpaceOnUse">
<stop stop-color="#6E8BC1"/>
<stop offset="0.2464" stop-color="#6887BE" stop-opacity="0.7585"/>
<stop offset="0.5689" stop-color="#587BB5" stop-opacity="0.4423"/>
<stop offset="0.9323" stop-color="#3D67A6" stop-opacity="0.0860165"/>
<stop offset="1" stop-color="#3763A3" stop-opacity="0.0196078"/>
</linearGradient>
<clipPath id="clip0">
<rect width="254.085" height="172.724" fill="white" transform="translate(77.6875 170.853) rotate(-3.91325)"/>
</clipPath>
</defs>
</svg>
