<svg width="566" height="260" viewBox="0 0 566 260" fill="none" xmlns="http://www.w3.org/2000/svg">
<path d="M36.7332 209.277C34.1435 207.328 33.4373 205.693 28.9642 206.385C25.6682 206.888 24.8049 203.932 23 202.36C24.7265 201.669 25.7467 202.046 26.8453 202.863C31.083 206.133 34.4575 201.417 38.3813 202.109C38.3813 201.228 38.3813 200.411 38.3813 199.53C38.3813 199.027 38.3813 198.524 38.3813 198.021V197.644C38.9306 197.267 39.4015 196.889 39.9508 196.512C42.0697 196.261 44.1885 196.009 46.6213 195.757C44.9733 193.557 43.5607 191.607 42.0696 189.658C41.9912 189.28 41.9912 188.903 41.9127 188.526C43.4038 187.834 44.0315 185.319 46.0719 186.576C47.6414 187.583 51.0943 188.023 50.3096 190.664C49.8387 192.299 50.545 194.06 50.4665 195.82C50.388 197.455 50.9374 198.902 53.4486 198.839C56.4307 198.713 55.8814 197.141 55.2536 195.695C55.0181 195.129 55.332 194.374 55.4105 193.494C55.489 193.431 55.5675 193.431 55.646 193.368C56.9016 193.808 58.0787 194.06 58.785 194.563C61.6886 196.638 62.8656 195.946 63.415 193.368C63.7289 191.922 63.7289 189.909 67.2603 190.664C67.5742 190.727 68.2021 190.538 68.2021 190.412C68.9083 187.52 69.2222 184.69 71.8119 182.049C74.4801 179.219 72.7537 176.704 68.5944 174.691C68.2805 174.503 68.0451 174.377 67.8881 174.125C67.7312 173.748 67.6527 173.371 67.6527 172.994C67.8881 172.113 68.9083 171.17 70.0069 170.73C71.8119 169.975 72.8321 166.579 76.0496 169.283C77.8546 170.793 78.5608 169.598 78.9532 168.843C79.9734 166.957 81.1505 166.454 84.211 166.705C86.9577 166.957 90.4891 166.579 91.2738 163.184C91.7447 161.234 96.2963 162.052 98.4937 160.794C98.4152 160.543 98.3367 160.102 98.1797 160.102C90.803 158.467 89.5474 156.769 92.8433 151.424C94.8052 148.28 94.0205 145.702 91.5878 142.746C89.155 143.878 88.6842 146.457 85.4667 146.519C83.4263 147.085 80.6796 146.394 79.424 148.28C77.3052 148.029 74.8724 149.035 73.146 147.463C73.146 147.023 72.989 146.582 73.2244 146.205C73.8522 145.325 77.3837 146.205 76.1281 144.633C75.1864 143.438 72.9106 144.256 72.2043 145.828C70.6348 145.325 70.007 147.148 68.6729 146.708C67.4173 146.331 65.6123 146.96 65.2199 144.822C64.7491 141.992 67.2603 143.375 68.5159 142.998C70.0069 144.256 71.655 144.193 73.303 143.187C79.5026 142.809 82.563 138.47 88.1348 137.087C91.1954 136.332 87.0362 135.766 87.1931 134.886C87.1931 134.634 87.1147 134.446 87.0362 134.257C87.0362 132.622 90.4106 131.805 89.155 129.289C86.1729 123.315 80.0518 126.9 74.637 125.39C76.5204 130.044 84.211 129.855 86.5653 133.251C86.5653 133.502 86.5653 133.817 86.5653 134.131C86.6438 133.943 86.6438 133.691 86.7223 133.502C86.8792 133.754 86.9577 134.006 87.0362 134.257C87.0362 134.446 87.0362 134.634 87.1931 134.886C87.1931 134.886 87.1931 134.886 87.1931 134.949C86.8792 135.075 86.5653 135.2 86.3299 135.326C86.4084 135.075 86.4868 134.823 86.4868 134.509C86.2514 134.886 85.9375 135.2 85.7021 135.515C81.8568 136.584 79.8949 134.257 77.6191 132.245C76.2066 130.987 74.4801 129.855 73.303 128.032C71.1841 129.981 72.5966 131.868 72.0473 133.565C69.9285 134.32 69.0652 136.458 66.1616 136.206C65.7692 135.075 67.2603 134.446 67.4958 133.44C67.8097 131.742 67.8881 130.484 64.5136 131.616C62.7872 132.182 60.5898 132.245 58.3141 130.861C59.6481 129.604 60.7468 128.032 62.4733 127.088C64.5921 125.956 64.906 124.636 63.415 123.567C59.2558 120.548 63.415 120.485 65.7692 120.171C69.3006 119.668 72.832 120.045 76.3635 120.863C79.1886 121.555 82.2492 121.869 83.1909 118.851C83.5048 118.788 83.8971 118.662 84.211 118.536C86.7222 121.429 88.5272 120.611 89.8613 117.53C90.1752 116.838 90.4892 116.146 90.96 115.518C95.0407 110.298 95.0407 110.298 88.5272 107.783C88.0563 107.594 87.5855 107.343 86.8008 106.965C86.8008 106.903 86.8008 106.84 86.8008 106.714C88.8411 106.022 90.3322 105.519 92.2941 104.827C90.8815 104.136 89.7828 103.507 88.4487 102.878C91.1954 100.677 94.8838 102.123 98.0228 101.432C98.4937 99.6709 96.6887 98.6019 95.747 97.2813C94.4914 95.4577 96.9241 95.0804 97.7874 94.2C99.5138 92.4393 100.22 94.3258 101.319 94.766C101.79 95.0804 102.26 95.2062 102.81 95.2062C104.929 96.0865 104.85 97.4071 103.438 99.3565C100.848 102.626 102.182 104.387 107.44 104.073C109.166 102.941 102.496 100.174 109.245 100.237C110.657 103.884 114.346 101.557 116.857 101.557C119.133 101.557 120.859 101.746 119.996 103.318C118.113 106.903 122.036 107.657 124.705 109.041C126.039 109.732 127.922 109.732 127.687 111.682C127.451 113.883 127.843 113.82 131.689 114.512C132.317 114.637 132.788 115.518 133.023 116.146C133.651 117.656 134.2 119.165 134.749 120.674C134.435 121.24 134.122 121.806 133.808 122.372C131.767 118.536 125.882 117.907 122.35 115.266C120.781 114.071 118.662 115.455 119.133 117.341C119.76 119.605 118.74 121.114 116.151 122.498C113.875 123.755 113.169 125.768 115.052 127.403C117.014 129.101 119.29 127.403 120.388 126.585C124.94 123.504 129.962 125.956 134.671 125.453C136.554 126.208 135.613 124.196 136.79 124.259C137.81 125.642 138.673 127.088 139.772 128.472C140.557 129.352 141.106 130.798 143.225 130.232C144.873 129.792 146.207 128.535 145.736 127.591C144.637 125.265 145.579 123.064 148.247 122.686C151.308 122.246 154.682 123.441 155.702 126.271C155.781 126.459 156.33 126.522 156.723 126.648C157.664 125.894 157.507 124.887 156.88 124.259C153.584 121.177 156.958 120.108 159.862 118.851C163.315 117.341 165.433 117.97 166.218 120.926C166.297 121.303 167.395 121.555 168.102 121.806C168.886 122.12 169.436 121.617 169.279 121.303C167.003 117.844 171.319 117.216 173.752 116.901C176.028 116.65 178.774 118.41 179.638 119.92C181.442 123.252 185.052 125.831 186.308 129.352C187.25 131.993 190.624 132.433 193.449 130.421C193.999 130.044 194.705 129.289 195.097 129.352C200.434 130.421 204.907 129.541 209.066 126.837C210.4 125.956 210.871 127.906 210.949 128.283C211.577 131.616 215.501 132.245 218.64 133.628C219.346 134.131 219.895 134.697 220.68 135.012C221.543 135.326 222.171 136.521 223.427 135.578C223.819 135.326 224.055 134.823 224.133 134.446C224.369 133.314 223.348 133.062 222.093 132.999C221.308 132.937 220.602 132.874 219.817 132.748C218.954 131.113 217.149 129.667 218.64 127.717C220.288 125.579 222.564 128.157 224.369 127.214C225.075 119.982 222.171 117.907 211.969 119.039C208.673 119.416 208.595 117.404 207.496 116.335C205.691 114.512 206.398 112.248 207.967 110.676C209.537 109.104 211.342 110.927 212.99 111.556C214.01 111.933 215.03 112.311 216.129 112.751C217.306 112.939 218.561 114.637 219.425 113.505C220.523 111.933 217.227 112.122 216.521 111.116C218.875 108.349 220.994 105.393 226.723 106.651C228.92 107.154 229.469 106.525 229.391 104.953C229.313 103.381 229.626 101.557 232.452 101.306C235.198 101.117 237.317 101.935 238.494 104.073C239.044 105.205 239.828 106.462 242.261 107.406C242.34 104.45 244.066 102.186 247.362 100.74C248.696 100.174 251.757 100.551 251.207 99.105C250.423 96.8412 247.99 100.048 246.42 98.9163C247.048 96.7783 248.225 95.0175 243.517 93.8227C238.887 92.6279 240.142 88.0374 237.16 85.4592C236.297 84.7046 237.788 83.2582 234.257 83.8242C229.234 84.6417 224.761 78.6048 227.429 75.272C228.449 73.9514 229.862 73.1339 232.216 74.2658C234.335 75.272 235.512 76.6554 236.768 78.4162C238.573 76.5296 240.221 74.8318 241.869 73.071C242.81 72.0649 242.967 70.4928 245.636 70.9959C247.99 71.4361 249.559 72.3793 249.795 74.203C249.952 75.2091 249.952 76.2152 250.03 77.2843C251.835 77.0956 253.483 76.907 255.131 76.7183C257.014 76.5297 258.976 75.9008 259.212 74.5803C259.447 73.1968 257.093 73.0082 255.68 72.7566C253.562 72.3793 253.091 71.8134 254.189 70.4299C255.21 69.2351 255.916 67.9146 256.857 66.5311C255.366 66.2796 253.012 66.594 251.914 66.0281C251.757 65.6508 251.521 65.2734 251.286 64.8961C251.286 64.8332 251.286 64.7075 251.364 64.6446C251.835 62.9468 250.344 59.7397 255.053 59.2995C259.29 58.8593 259.369 54.6461 264.156 54.3946C265.568 54.3317 267.216 53.577 268.707 52.5709C270.355 52.2565 271.14 51.5648 271.219 50.37C272.16 49.3009 272.788 48.169 273.024 47.1629C273.416 45.0249 276.869 45.5279 278.046 43.327C279.537 40.7487 281.342 44.396 283.147 45.2135C284.638 45.8423 286.129 47.4144 287.698 46.4083C289.425 45.3393 288.091 43.327 286.835 42.6353C281.891 39.9941 284.402 37.6674 286.992 35.2778C289.189 34.649 287.777 32.6996 289.346 31.8821C289.739 32.4481 290.21 33.0769 290.602 33.6429C292.564 34.649 294.997 34.3975 296.959 34.3346C298.685 34.2717 297.743 33.2656 296.645 32.8883C294.683 32.0708 291.936 31.5677 295.075 29.4296C297.979 27.4174 298.371 23.8959 303.315 22.9526C305.277 22.5753 304.571 20.3744 304.178 19.0538C303.001 15.2179 304.728 14.5261 309.201 16.4755C310.692 13.7087 310.378 11.9479 305.748 11.5706C303.864 11.382 303.551 9.43256 304.414 8.74084C305.826 7.67181 307.945 5.40801 309.75 6.47703C314.537 9.30681 313.125 5.84818 313.988 4.65338C316.499 5.28222 315.871 7.42027 317.598 8.42642C323.326 4.84204 323.405 4.2132 318.539 1.32055C319.167 0.25152 321.365 1.25768 321.914 0C322.699 0 323.483 0 324.347 0C323.248 4.21322 325.602 5.40798 330.939 3.89877C333.921 3.08128 336.667 3.773 339.806 4.52761C338.786 6.41412 337.609 8.30066 336.746 10.2501C336.589 10.5645 336.51 10.816 336.353 11.0675C336.039 11.2562 335.647 11.382 335.255 11.5077C334.941 11.5077 334.548 11.4449 333.999 11.3191C329.526 10.1243 327.407 12.3881 324.66 15.0292C329.918 15.5323 335.49 15.2808 335.176 20.5001C338.786 19.6198 341.376 17.1044 345.457 18.4878C345.457 20.1857 342.161 20.2486 341.69 22.2609C344.123 22.2609 346.555 22.2609 349.459 22.2609C349.694 22.3866 349.93 22.4495 350.087 22.5753C348.203 25.5937 345.457 26.7885 341.533 26.9143C340.434 27.2287 339.335 27.5431 338.237 27.7946C334.548 29.744 336.039 32.6367 336.039 35.0892C336.039 38.0447 336.275 41.0003 334.941 43.83C332.587 45.465 330.703 47.2887 329.212 50.6215C332.587 48.4206 334.941 47.0371 336.353 44.962C341.768 45.8423 346.241 48.8608 352.127 48.6092C354.167 48.5463 356.443 49.3009 355.894 46.3454C355.344 43.5785 360.288 43.3899 362.172 41.5034C363.584 40.1199 365.625 41.9435 366.802 42.9497C369.863 45.5279 371.432 43.2012 372.06 41.8178C372.766 40.4343 373.315 39.2395 375.356 39.4911C377.239 39.7426 377.632 41.1889 378.181 42.5095C379.672 45.9681 376.611 49.1752 376.847 52.5709C379.829 52.6967 379.044 48.8608 382.576 50.3071C385.636 51.6277 385.479 53.1998 384.616 55.6522C383.831 57.8532 383.753 59.4881 380.535 60.5572C379.437 60.8716 376.847 63.0725 381.555 62.8839C383.91 62.821 383.988 64.1415 384.067 65.2735C384.381 68.1661 386.813 69.9897 389.717 71.5618C393.955 73.8885 397.878 72.7566 399.055 68.9207C400.703 63.5756 401.017 63.3869 406.746 65.9023C410.434 67.5373 406.197 69.8011 407.138 71.6876C406.746 72.1907 406.197 72.6309 405.961 73.1339C405.49 74.2659 403.293 75.6493 405.176 76.4668C408.159 77.7245 405.804 73.9514 408.394 74.2658C409.65 74.5174 410.356 75.272 410.905 76.0895C411.219 77.0327 410.277 78.7935 412.553 78.6048C413.887 78.542 413.181 76.9698 413.103 76.0266C413.26 75.775 413.416 75.5235 413.652 75.272C417.497 77.9131 422.598 74.706 426.365 76.5296C429.112 77.9131 428.719 74.6432 430.603 75.3349C436.174 80.68 434.683 86.3396 432.408 92.1249C432.251 92.1249 432.172 92.062 432.015 92.062C430.681 91.1816 431.623 89.7353 430.603 88.6034C429.033 90.3641 426.208 91.3703 425.894 93.7598C425.737 94.9546 424.482 96.2752 426.993 96.9669C429.582 97.7215 430.053 96.401 430.446 95.0804C430.681 94.3258 431.309 93.8227 432.329 93.5712C432.408 94.2629 432.564 95.0175 432.643 95.7092C433.742 97.47 435.86 96.5896 437.665 96.7783C436.567 97.9731 435.939 99.7338 434.448 100.3C427.934 102.878 427.778 107.72 425.031 112.311C433.035 112.311 429.347 106.4 433.349 104.765C437.43 103.067 439.313 99.5452 444.179 97.7215C444.336 101.557 443.473 104.827 439.784 107.469C437.509 109.041 437.116 110.173 440.883 110.927C443.237 111.367 444.1 112.751 443.63 114.512C443.473 114.574 443.394 114.637 443.237 114.7C441.903 114.763 440.805 112.939 439 114.512C436.567 116.712 440.255 117.341 440.726 118.851C438.921 119.102 437.195 119.291 435.311 119.542C436.724 121.806 438.45 121.554 440.648 120.611C442.766 119.668 445.513 119.605 446.298 121.303C447.553 123.944 449.358 125.265 453.518 124.321C453.518 124.321 453.518 124.321 453.596 124.321C452.811 126.774 446.69 125.705 449.201 129.038C446.612 129.352 443.63 130.358 441.903 128.22C440.648 126.711 440.961 124.196 437.038 126.711C435.939 127.403 433.349 124.762 430.917 125.265C429.112 127.403 435.154 126.837 433.035 128.786C431.073 130.673 428.484 129.792 425.894 129.352C422.677 128.723 419.145 129.792 416.085 128.157C415.064 127.591 414.123 128.22 413.887 128.975C413.338 130.924 410.513 133.754 412.082 134.446C415.535 135.955 415.535 137.213 413.966 139.351C413.103 140.483 417.026 141.174 414.829 142.621C413.495 142.683 412.318 142.935 411.533 143.941C413.103 144.57 414.515 144.193 416.006 144.067C417.968 144.444 419.93 144.57 421.892 144.067C423.461 144.507 425.345 146.331 426.679 144.256C428.17 141.992 423.618 143.061 423.147 141.614C422.441 139.665 423.775 138.596 426.208 138.093C427.385 137.841 428.327 137.653 429.033 136.772C431.387 134.068 434.056 134.32 436.331 137.275C437.665 139.036 439.863 136.898 441.746 138.03C438.45 140.231 435.704 142.621 438.293 145.891C438.136 146.142 437.901 146.331 437.744 146.519C434.919 147.337 431.544 144.256 429.504 146.708C428.327 148.091 423.932 148.28 426.443 151.424C432.094 147.714 439.313 150.481 445.67 148.846C448.417 148.154 447.632 150.104 448.338 150.858C449.594 152.053 448.887 152.619 447.004 152.682C443.865 152.808 444.179 154.38 444.885 155.826C445.749 157.587 447.553 157.084 449.28 156.518C450.536 156.078 451.791 155.575 453.125 155.449C455.166 155.26 457.912 154.82 456.814 157.65C456.421 158.782 456.814 159.914 458.069 160.857C460.188 162.492 458.54 163.372 456.657 164.127C453.282 164.882 450.614 161.989 447.161 163.247C445.905 163.184 444.414 163.75 444.807 164.441C445.356 165.322 447.082 164.944 448.338 164.756C449.908 165.07 451.477 165.385 453.047 165.699C454.224 166.705 452.89 167.208 452.105 167.711C449.123 169.661 445.042 171.547 452.183 173.434C453.91 173.874 452.184 175.635 453.518 176.452C453.988 176.201 454.93 176.012 454.93 175.76C455.087 171.233 461.679 169.724 463.719 166.076C464.661 164.316 465.838 162.806 468.663 164.819C468.192 166.076 465.21 165.07 465.132 166.768C466.466 168.151 469.213 168.529 469.527 170.981C469.683 172.553 474.471 172.113 478.316 170.164C479.101 170.164 479.885 170.101 480.67 170.101C480.984 171.296 480.827 172.679 482.632 172.805C485.3 172.931 487.341 171.484 489.224 170.164C492.285 168.026 490.95 164.881 492.677 162.366C493.697 160.92 490.637 160.668 489.067 160.228C487.654 159.788 485.3 159.285 487.262 158.027C490.323 156.141 490.009 153.814 490.323 151.424C490.636 148.532 492.206 146.016 497.385 146.519C498.641 146.645 499.897 147.022 499.661 145.639C499.583 144.822 500.603 143.438 498.17 143.375C497.778 143.375 497.15 143.564 496.993 143.438C495.58 142.18 491.735 143.375 491.657 141.614C491.578 139.099 494.874 140.797 496.601 140.357C498.013 139.979 499.033 138.848 500.917 139.099C501.074 139.602 501.231 140.545 501.388 140.545C502.643 140.545 502.094 139.791 502.172 139.351C502.251 138.659 502.172 137.967 502.094 137.213C503.977 137.59 505.861 138.093 507.823 138.219C512.924 138.659 513.63 141.111 512.06 143.69C510.883 145.639 511.511 146.268 513.473 147.4C515.749 148.783 517.946 150.795 519.908 151.739C526.186 154.694 518.574 156.77 519.908 159.096C518.809 158.97 517.632 158.908 516.533 158.782C516.298 157.776 517.475 155.575 514.258 157.147C512.453 158.027 510.491 159.159 510.569 161.234C512.767 161.549 514.415 159.788 516.533 160.605C518.417 163.561 516.298 166.139 514.886 169.032C515.906 169.409 518.652 168.592 519.83 168.843C519.986 168.969 520.143 169.032 520.3 169.158C520.457 169.535 520.065 170.289 518.574 171.799C521.556 172.428 523.989 171.359 526.892 171.296C526.108 173.811 521.085 175.823 524.224 178.464C525.951 179.911 528.148 181.923 531.915 181.357C531.287 183.307 529.168 184.25 527.206 185.067C523.596 186.576 519.673 185.382 518.731 182.552C518.025 180.414 517.711 180.099 514.572 177.647C513.63 179.408 513.316 181.231 509.314 182.803C514.022 183.055 516.22 183.118 517.161 185.885C518.574 190.224 520.536 190.287 526.657 187.394C527.834 189.658 525.558 192.55 529.09 194.311C531.208 192.488 526.029 190.035 529.796 189.029C532.229 188.4 533.72 191.041 535.76 192.047C536.937 192.613 538.664 193.116 539.684 193.871C539.998 194.437 540.233 195.003 540.547 195.632C540.39 196.198 539.762 196.952 538.585 197.77C538.35 197.958 539.605 201.354 543.372 201.228C543.529 201.417 543.686 201.543 543.843 201.731C537.722 208.334 536.937 208.523 532.072 205.756C529.482 211.353 529.56 211.29 536.545 213.113C539.056 213.742 541.96 213.491 544 215C374.728 215 231.745 249.5 62.4733 249.5C64.5136 223.5 40.657 212.17 36.7332 209.277ZM71.2625 123.944C70.3208 124.384 69.3007 124.887 68.2021 125.453C68.7514 125.831 69.2222 126.397 69.85 126.522C71.4195 126.837 72.3612 126.019 72.8321 125.139C73.0675 124.573 72.3612 124.133 71.2625 123.944ZM428.562 102.375C429.033 100.866 429.426 99.5452 428.091 97.9731C425.659 99.7967 426.286 101.054 428.562 102.375ZM425.894 119.542C428.013 120.234 430.289 120.234 432.565 119.794C434.997 119.354 434.056 118.222 433.663 117.216C431.23 115.958 428.876 115.392 426.6 117.341C426.365 118.096 425.737 119.479 425.894 119.542ZM519.045 193.745C520.457 193.808 521.242 193.305 521.399 192.299C521.634 190.79 520.143 190.224 518.574 190.035C516.455 189.721 516.455 190.978 516.377 191.984C516.141 193.305 517.711 193.494 519.045 193.745ZM510.334 194.94C511.04 194.814 512.06 194.563 512.296 194.185C513.002 193.053 510.177 193.053 510.648 191.922C511.433 190.915 514.964 189.846 510.491 188.966C508.215 190.412 509.785 192.425 508.921 194.06C508.607 194.688 509.392 195.129 510.334 194.94ZM505.861 147.588C505.939 147.714 506.253 148.154 506.646 148.154C507.666 148.217 507.98 147.588 507.901 147.022C507.901 146.519 507.823 145.765 506.646 145.953C505.625 146.142 505.782 146.771 505.861 147.588ZM495.737 151.802C496.679 153.185 496.208 155.072 496.365 156.895C502.251 155.638 497.935 152.116 499.504 149.978C500.603 150.041 502.015 149.789 501.623 149.035C500.917 147.777 499.504 148.217 498.406 148.972C496.365 149.349 494.011 149.223 495.737 151.802ZM480.121 178.716C481.533 180.037 482.24 179.282 483.024 178.339C484.28 176.641 487.576 176.075 487.89 172.868C484.751 174.251 482.475 175.257 480.121 176.326C478.473 177.018 479.258 177.836 480.121 178.716ZM457.049 177.836C458.697 179.659 461.679 179.093 465.917 180.036C463.17 177.71 464.347 174.503 459.717 175.006C457.284 175.257 456.735 177.521 457.049 177.836ZM451.791 181.043C452.419 181.043 453.596 180.917 453.674 180.602C453.988 179.848 453.204 179.282 452.262 179.093C451.713 179.03 451.085 179.471 450.535 179.659C450.614 180.477 450.928 181.043 451.791 181.043ZM435.154 152.871C432.329 152.242 431.544 153.877 428.798 155.134C432.722 155.26 434.213 154.631 435.154 152.871ZM411.376 127.466C411.376 127.466 411.69 127.528 411.768 127.466C411.925 127.403 412.082 127.277 412.161 127.151C413.887 126.271 414.829 125.013 414.515 123.63C414.358 122.875 412.946 123.252 412.004 123.504C410.277 124.636 410.984 126.082 411.376 127.466ZM381.006 71.3732C385.165 70.3042 381.32 68.3547 382.026 66.7826C382.811 65.0219 380.3 65.5879 378.809 65.525C374.728 65.3363 372.295 67.663 368.999 68.6063C368.999 68.5434 368.999 68.5434 368.999 68.4805C368.921 68.4805 368.921 68.5434 368.842 68.5434C367.979 68.229 368.058 66.7198 366.488 67.4115C365.703 67.7888 365.389 68.6692 366.253 69.2351C367.665 70.1155 368.058 68.9836 368.764 68.4805C368.842 68.4805 368.842 68.4805 368.921 68.5434C368.921 69.1723 368.842 69.8011 368.842 70.4928C373.159 69.2351 376.768 72.4422 381.006 71.3732ZM356.992 104.639C358.484 105.896 358.405 108.538 360.681 108.538C363.271 108.538 363.271 106.022 364.212 104.513C366.567 100.866 368.999 105.016 371.981 104.261C373.629 100.551 367.43 98.4132 368.685 94.5773C363.427 96.9669 362.25 101.809 356.051 103.13C356.129 103.444 356.365 104.136 356.992 104.639ZM322.542 16.2869C320.815 16.2869 320.501 17.3559 319.874 18.1734C319.952 18.8651 320.109 19.4311 321.208 19.1796C322.306 18.928 323.562 18.6765 323.483 17.5446C323.562 17.0415 323.483 16.2869 322.542 16.2869ZM334.078 30.31C331.88 30.876 329.604 30.9388 330.389 32.9511C330.546 33.3913 331.645 33.9573 332.037 33.8944C334.705 33.3913 333.921 31.8821 334.078 30.31ZM330.154 42.6353C331.095 42.3837 332.9 42.5724 332.587 41.3776C332.273 40.1828 330.782 40.4343 329.761 40.8745C327.407 42.0064 325.288 39.1766 322.934 40.7487C322.856 41.0632 322.777 41.3776 322.699 41.692C321.835 43.2641 318.225 42.8868 317.284 44.5846C321.443 47.6031 323.169 43.7043 325.916 43.0755C327.486 42.9497 328.898 42.9497 330.154 42.6353ZM330.782 98.6019C330.86 99.4194 330.86 100.488 332.508 100.174C333.999 99.8596 333.921 98.6019 333.999 97.6587C334.078 96.904 333.921 96.2752 332.273 96.4638C330.625 96.5267 330.703 97.5958 330.782 98.6019ZM332.587 59.9283C332.743 58.0418 334.941 56.9728 335.255 55.2749C335.49 53.577 335.333 51.8792 335.333 50.1813C332.9 52.5709 330.389 52.5709 326.779 50.6215C327.093 54.5832 327.956 57.8532 323.013 60.4314C320.501 61.6891 321.992 65.2734 322.306 67.8517C331.802 66.7198 331.959 66.7198 332.587 59.9283ZM324.739 104.953C328.113 103.695 328.663 101.998 328.27 100.111C328.27 99.9225 326.701 99.5452 326.23 99.7338C323.64 100.929 324.19 102.752 324.739 104.953ZM325.602 93.0681C325.602 94.1372 325.995 95.0175 327.721 95.3948C328.898 94.0743 328.192 93.0681 327.015 92.062C326.152 89.861 325.288 87.723 324.425 85.5221C324.347 85.2705 324.033 85.0819 323.719 84.8303C319.403 86.9055 320.501 90.3641 319.403 93.3196C321.678 94.2629 323.562 92.2506 325.602 93.0681ZM320.344 63.1354C317.127 64.7704 318.539 66.594 319.246 68.2919C321.6 66.7198 321.051 65.0848 320.344 63.1354ZM318.461 86.5282C315.243 87.157 316.421 88.6662 316.028 90.3641C318.696 89.1064 318.539 87.9116 318.461 86.5282ZM304.021 93.5712C304.571 93.3825 305.12 92.8166 305.199 92.3764C305.356 91.8733 305.12 91.2445 304.021 91.4331C303.158 91.5589 302.844 92.062 302.844 92.7537C303.001 93.0681 302.844 93.9485 304.021 93.5712ZM293.113 82.8809C293.663 85.3334 294.997 87.2199 299.156 86.9055C299.627 87.4714 300.176 87.9745 300.647 88.5405C299.941 86.8426 302.53 84.6417 299.313 83.5098C297.822 82.1263 296.252 80.7429 293.663 80.9315C291.701 81.0573 292.956 82.1892 293.113 82.8809ZM284.403 97.9731C284.873 102.689 283.539 107.657 287.934 113.002C289.503 109.229 289.974 106.965 288.012 104.639C286.286 102.626 287.463 100.488 288.248 98.4133C288.719 97.0927 287.934 96.0237 286.051 95.835C283.775 95.5835 284.324 97.0927 284.403 97.9731ZM191.016 147.526C185.602 148.595 187.485 150.544 189.212 152.808C193.685 158.53 197.059 151.676 201.14 152.745C197.451 150.984 191.016 152.682 191.016 147.526ZM210.243 149.161C208.281 149.475 208.124 150.481 208.595 152.053C210.635 151.613 211.263 150.607 211.734 149.538C211.656 149.475 210.635 149.098 210.243 149.161ZM217.777 151.361C216.913 152.745 218.797 155.889 220.759 155.952C223.976 156.015 222.485 152.682 225.938 151.236C222.093 150.796 219.032 149.286 217.777 151.361ZM229.391 133.062C228.449 133.125 227.429 133.377 227.272 134.131C227.194 134.697 227.822 135.075 228.685 135.137C229.862 135.263 230.568 134.823 230.568 134.068C230.725 133.628 230.49 132.999 229.391 133.062ZM244.929 142.243C244.851 140.86 245.008 139.414 244.694 138.093C244.458 137.213 243.595 137.024 242.889 137.967C242.34 137.967 241.319 138.156 241.241 138.03C239.907 135.892 237.866 134.131 234.57 135.326C231.196 136.521 234.57 138.659 234.257 140.294C233.864 142.558 236.218 142.809 237.945 142.306C242.889 140.734 243.674 143.124 244.38 145.953C245.636 144.507 245.165 143.375 244.929 142.243ZM245.479 111.745C247.127 114.637 244.38 117.027 246.185 119.416C246.499 119.857 246.342 120.611 247.44 120.548C249.01 120.485 248.853 119.605 248.382 119.102C247.597 118.222 248.461 117.781 249.01 117.341C253.954 114.008 249.873 113.191 245.479 111.745ZM253.483 138.093C253.562 135.892 252.149 135.012 249.088 135.263C247.127 135.452 245.792 136.018 246.813 137.338C247.754 138.533 245.871 141.237 250.109 140.86C252.384 140.608 254.582 140.357 253.483 138.093ZM256.544 85.3963C256.073 86.9055 255.131 88.4147 256.936 89.4837C257.25 89.6724 258.662 89.358 258.976 89.0436C260.781 87.0313 257.25 86.7169 256.544 85.3963ZM268.08 55.5265C265.725 54.5203 264.705 58.2933 260.938 58.9222C263.92 60.117 265.568 60.8087 267.295 61.5004C267.452 59.2995 270.826 56.7213 268.08 55.5265ZM264.548 68.9836C265.725 67.1599 265.804 65.9023 264.941 64.6446C264.862 64.5188 263.685 64.5817 263.528 64.7075C262.743 66.028 262.586 67.2857 264.548 68.9836ZM265.804 158.97C262.822 157.398 259.683 157.273 257.171 158.404C255.994 158.97 257.171 161.046 258.819 161.612C262.743 163.058 263.606 160.291 265.804 158.97ZM256.465 166.894C254.817 166.328 252.698 165.699 251.678 166.957C250.501 168.403 252.698 169.158 254.189 169.786C259.29 172.113 259.29 172.113 259.918 176.452C263.136 171.673 261.88 168.843 256.465 166.894ZM242.732 181.42C245.479 181.986 248.225 183.81 251.207 181.923C255.68 183.495 256.858 181.231 258.506 178.842C254.817 178.464 251.678 177.961 248.539 176.892C244.851 175.635 246.734 177.584 247.048 178.527C246.499 178.527 245.949 178.527 245.4 178.464C242.889 178.779 242.418 181.357 242.732 181.42ZM241.241 190.538C239.985 186.073 240.692 182.049 237.866 178.402C234.1 180.602 238.023 184.627 234.335 186.891C236.454 187.96 238.494 189.029 241.241 190.538ZM226.566 188.966C228.92 186.702 227.665 183.307 231.51 181.106C229.391 181.106 227.665 181.106 225.938 181.106C224.996 179.03 230.568 180.414 228.999 178.087C228.449 177.27 227.586 176.515 226.252 176.892C224.526 177.395 222.642 178.024 221.23 178.905C220.445 179.408 220.916 180.54 222.093 181.043C222.721 181.294 223.427 181.546 224.133 181.86C219.346 186.01 219.503 186.325 226.566 188.966ZM215.187 170.981C218.875 170.918 222.564 174.063 225.467 170.604C227.586 172.176 226.174 174.566 229.077 175.949C229.783 172.365 236.925 175.509 237.474 171.547C239.044 171.484 240.535 171.862 242.026 172.176C243.595 172.553 246.185 175.132 246.97 172.239C247.44 170.541 251.914 167.145 244.929 166.516C243.203 166.391 243.517 165.447 243.124 164.693C242.732 163.75 244.066 161.989 240.613 162.24C238.337 162.429 236.689 162.366 235.826 164.19C235.041 165.825 234.257 167.397 234.335 169.158C230.176 168.529 226.644 167.837 225.389 163.938C224.526 161.171 219.582 160.857 215.815 160.668C213.853 160.605 213.539 161.549 214.402 162.681C215.03 163.498 215.03 164.064 213.539 164.001C211.263 163.938 208.673 164.693 206.79 163.184C205.534 162.178 207.104 161.737 207.81 161.171C208.83 160.92 209.929 160.668 210.949 160.354C210.949 160.165 210.949 159.977 210.871 159.851C209.066 159.851 207.261 159.851 205.456 159.851C203.416 162.177 199.727 160.731 196.196 161.989C201.768 167.208 208.046 171.987 210.243 178.653C208.752 174.566 218.561 175.257 215.187 170.981ZM194.234 190.475C195.568 189.658 197.138 188.903 195.803 187.457C195.49 187.08 194.469 186.639 193.842 187.205C192.351 188.274 192.586 189.406 194.234 190.475ZM188.113 184.313C191.958 186.325 196.824 186.388 201.14 183.495C196.588 181.923 195.097 178.15 189.682 176.767C189.525 179.596 182.855 181.609 188.113 184.313ZM184.189 160.542C186.622 159.725 186.779 160.794 186.622 162.115C184.66 167.837 185.523 168.655 194.391 168.906C192.9 166.013 190.938 163.561 188.427 161.297C187.485 160.228 186.7 159.096 185.523 158.216C184.66 157.524 184.424 155.826 182.149 156.769C180.893 157.273 179.637 158.153 180.108 159.096C180.658 160.291 182.07 161.234 184.189 160.542ZM181.207 168.152C180.579 166.454 178.617 165.888 177.205 164.693C175.557 167.9 177.44 168.592 181.207 168.152ZM132.866 136.206C130.747 137.213 127.844 137.841 128.393 140.231C128.079 143.061 130.669 145.953 132.944 145.387C136.554 144.507 137.653 140.923 138.124 138.156C138.516 135.64 133.023 139.225 132.866 136.206ZM129.178 149.286C129.805 150.292 130.669 151.802 133.023 150.23C134.2 149.412 136.083 149.223 137.731 148.72C135.848 147.526 133.729 147.085 131.532 147.588C130.512 147.84 128.314 147.84 129.178 149.286ZM148.169 152.934C147.619 151.613 147.855 149.852 144.951 150.041C142.832 150.167 142.205 151.424 142.126 152.871C142.754 153.877 142.126 155.7 145.108 155.072C146.599 154.757 149.032 155.072 148.169 152.934ZM164.806 161.8C165.198 159.096 160.097 155.7 154.525 155.386C156.644 157.964 160.019 159.473 159.077 162.555C158.684 163.875 160.646 163.875 162.059 163.938C164.256 164.064 164.649 162.995 164.806 161.8ZM160.019 189.658C161.51 189.846 162.216 189.406 161.667 188.211C160.646 186.136 160.568 183.432 156.88 182.866C154.682 182.552 154.368 184.313 154.133 185.507C154.682 188.023 156.801 189.28 160.019 189.658ZM154.604 131.301C155.545 131.364 156.801 131.427 156.644 130.358C156.566 129.604 156.487 128.472 154.761 128.66C153.897 128.786 153.27 129.415 152.642 129.729C152.72 130.924 153.584 131.239 154.604 131.301ZM149.66 183.684C150.366 184.124 150.994 184.879 152.092 184.061C153.034 183.369 152.563 182.741 151.936 182.175C150.052 180.665 147.541 180.037 144.559 180.288C146.207 181.483 147.933 182.552 149.66 183.684ZM133.965 169.724C127.53 170.667 128.707 175.76 124.94 178.15C124.548 178.402 125.254 179.219 126.117 179.408C128.314 181.986 130.433 182.992 134.043 180.162C136.633 178.087 140.243 176.641 144.166 174.44C139.379 174.251 136.162 174.44 133.808 177.207C132.709 178.527 130.669 179.911 127.844 179.345C131.846 174.88 134.592 169.346 145.265 170.101C142.126 167.774 136.005 166.894 141.341 163.435C141.42 163.372 140.714 162.492 140.164 162.115C137.104 159.725 133.965 157.398 130.512 154.82C128.157 158.467 126.117 161.737 124.077 164.881C125.097 166.516 128.236 163.687 128.236 165.762C128.236 168.151 124.155 168.089 122.115 169.472C127.216 172.365 130.826 167.02 135.534 168.089C135.77 169.158 134.749 169.661 133.965 169.724ZM103.83 127.654C105.87 127.529 104.929 127.151 104.536 126.208C103.281 122.938 106.184 120.926 111.207 121.554C113.326 121.806 114.503 120.863 116.151 120.423C113.796 120.234 113.796 115.832 109.873 118.599C109.245 117.907 108.617 117.153 107.989 116.461C107.675 115.518 109.166 114.26 107.204 113.631C106.498 113.442 105.949 114.008 105.949 114.7C104.222 116.65 102.261 117.467 99.5923 115.518C98.5721 113.568 100.377 112.185 102.025 110.738C99.3569 109.984 98.1797 110.613 97.5519 112.122C94.099 114.826 97.0811 118.976 93.3927 121.68C93.2358 121.806 93.3143 122.309 93.3927 122.309C99.1215 123.127 99.1214 125.579 97.0026 128.723C96.9241 128.912 98.1012 129.855 98.6506 129.101C99.8277 127.34 101.947 127.78 103.83 127.654ZM94.4129 192.55C95.9039 192.613 97.8658 192.991 98.6506 191.67C99.5138 190.224 97.8658 189.28 96.6102 188.4C95.1977 187.394 93.7066 187.017 91.9017 188.086C90.0967 189.155 87.9779 189.972 85.4667 191.104C88.5273 192.299 91.5093 192.488 94.4129 192.55ZM69.6146 198.713C70.7132 199.216 71.0272 200.537 71.7335 201.543C74.951 200.788 74.951 198.776 75.6572 197.707C75.7357 195.82 68.359 197.707 73.146 193.934C74.0092 193.242 71.8904 192.865 71.0272 192.488C70.1639 192.11 68.8298 192.047 68.9083 193.116C69.0652 194.877 65.6123 196.952 69.6146 198.713ZM44.8947 200.222C45.2871 200.411 45.915 200.725 46.6213 200.851C47.1706 200.914 47.7983 200.6 47.5629 200.096C47.3275 199.405 46.4642 199.342 45.6795 199.342C45.2086 199.342 44.5808 199.342 44.8947 200.222Z" fill="#161654"/>
<path d="M530.484 310.222C533.372 308.518 534.269 306.938 538.854 308.094C542.233 308.939 543.424 306.042 545.458 304.639C543.731 303.764 542.632 304.041 541.408 304.754C536.674 307.624 533.632 302.515 529.481 302.813C529.568 301.923 529.649 301.098 529.737 300.208C529.787 299.7 529.837 299.192 529.886 298.684L529.924 298.303C529.39 297.866 528.937 297.437 528.403 296.999C526.224 296.529 524.045 296.058 521.539 295.555C523.472 293.501 525.135 291.676 526.879 289.86C526.998 289.486 527.036 289.105 527.155 288.732C525.672 287.881 525.269 285.276 523.021 286.338C521.289 287.194 517.653 287.286 518.207 290.033C518.534 291.733 517.625 293.439 517.532 295.226C517.451 296.885 516.736 298.29 514.13 297.969C511.04 297.537 511.767 296.006 512.564 294.609C512.865 294.062 512.613 293.267 512.619 292.37C512.544 292.298 512.462 292.291 512.387 292.219C511.037 292.535 509.787 292.669 509.002 293.105C505.776 294.904 504.62 294.085 504.304 291.425C504.121 289.932 504.321 287.899 500.572 288.3C500.239 288.332 499.605 288.077 499.617 287.95C499.169 284.956 499.124 282.066 496.692 279.134C494.197 276.003 496.242 273.638 500.769 272.031C501.114 271.873 501.372 271.77 501.56 271.532C501.761 271.167 501.88 270.794 501.917 270.413C501.76 269.499 500.792 268.442 499.693 267.885C497.89 266.939 497.166 263.405 493.55 265.807C491.522 267.147 490.906 265.868 490.573 265.065C489.699 263.056 488.524 262.427 485.315 262.368C482.432 262.342 478.796 261.599 478.316 258.089C478.02 256.072 473.203 256.433 471.042 254.938C471.149 254.692 471.274 254.255 471.437 254.271C479.274 253.374 480.749 251.787 477.851 246.052C476.122 242.675 477.194 240.151 480.018 237.415C482.437 238.807 482.671 241.459 486.012 241.852C488.078 242.632 491.005 242.214 492.124 244.248C494.353 244.21 496.784 245.475 498.736 244.064C498.78 243.619 498.987 243.191 498.78 242.786C498.214 241.832 494.452 242.36 495.915 240.901C497.013 239.79 499.3 240.849 499.878 242.509C501.561 242.161 502.033 244.067 503.465 243.759C504.809 243.506 506.624 244.326 507.245 242.207C508.015 239.397 505.265 240.537 503.997 240.028C502.32 241.146 500.612 240.914 498.997 239.729C492.585 238.714 489.832 234.019 484.172 232.052C481.063 230.977 485.446 230.83 485.37 229.925C485.395 229.671 485.496 229.488 485.596 229.306C485.758 227.654 482.329 226.484 483.885 224.071C487.58 218.342 493.593 222.589 499.376 221.618C496.955 226.125 488.972 225.149 486.186 228.338C486.161 228.592 486.13 228.909 486.099 229.227C486.036 229.028 486.061 228.774 485.998 228.576C485.809 228.814 485.703 229.06 485.596 229.306C485.577 229.496 485.559 229.687 485.37 229.925C485.37 229.925 485.37 229.925 485.364 229.988C485.678 230.148 485.992 230.307 486.225 230.458C486.168 230.196 486.111 229.934 486.143 229.616C486.35 230.021 486.646 230.371 486.859 230.712C490.754 232.185 493.026 230.036 495.593 228.236C497.187 227.11 499.096 226.143 500.502 224.422C502.513 226.607 500.856 228.368 501.259 230.139C503.388 231.118 504.074 233.366 507.12 233.409C507.641 232.306 506.152 231.518 506.007 230.478C505.849 228.731 505.892 227.452 509.29 228.941C511.03 229.689 513.31 229.977 515.815 228.812C514.552 227.406 513.565 225.705 511.862 224.576C509.77 223.216 509.575 221.85 511.232 220.923C515.859 218.3 511.538 217.811 509.12 217.253C505.496 216.383 501.784 216.403 498.029 216.868C495.021 217.278 491.806 217.283 491.126 214.138C490.805 214.042 490.41 213.875 490.096 213.716C487.196 216.381 485.399 215.371 484.317 212.122C484.059 211.391 483.801 210.66 483.374 209.977C479.646 204.288 479.646 204.288 486.673 202.414C487.181 202.271 487.696 202.065 488.55 201.764C488.556 201.701 488.562 201.637 488.575 201.51C486.521 200.603 485.019 199.942 483.047 199.043C484.585 198.489 485.791 197.966 487.241 197.467C484.602 194.964 480.621 196.047 477.424 195.028C477.109 193.201 479.093 192.306 480.204 191.068C481.691 189.355 479.197 188.725 478.387 187.748C476.765 185.793 475.843 187.626 474.657 187.958C474.135 188.228 473.633 188.307 473.062 188.25C470.77 188.923 470.72 190.265 471.997 192.378C474.366 195.946 472.803 197.588 467.365 196.733C465.681 195.413 472.895 193.3 465.868 192.674C464.036 196.213 460.43 193.486 457.817 193.229C455.449 192.997 453.634 193.011 454.376 194.687C455.98 198.5 451.823 198.861 448.91 199.985C447.453 200.548 445.494 200.355 445.545 202.348C445.572 204.595 445.17 204.491 441.101 204.797C440.435 204.86 439.858 205.701 439.55 206.312C438.747 207.772 438.026 209.24 437.305 210.709C437.575 211.312 437.846 211.916 438.116 212.52C440.619 208.854 446.805 208.82 450.741 206.514C452.493 205.468 454.56 207.082 453.883 208.939C453.005 211.161 453.916 212.79 456.473 214.452C458.716 215.955 459.251 218.06 457.13 219.518C454.92 221.033 452.721 219.085 451.659 218.147C447.229 214.57 441.761 216.533 436.912 215.544C434.878 216.113 436.057 214.177 434.826 214.12C433.628 215.413 432.586 216.786 431.306 218.071C430.402 218.88 429.687 220.285 427.539 219.496C425.868 218.883 424.605 217.477 425.188 216.572C426.562 214.334 425.801 212.015 423.062 211.361C419.922 210.604 416.293 211.465 414.95 214.219C414.85 214.402 414.272 214.409 413.852 214.496C412.947 213.638 413.21 212.637 413.925 212.066C417.66 209.291 414.256 207.867 411.36 206.299C407.917 204.422 405.651 204.84 404.541 207.745C404.422 208.119 403.254 208.26 402.494 208.442C401.646 208.679 401.125 208.115 401.319 207.814C404.03 204.553 399.602 203.477 397.102 202.91C394.76 202.424 391.727 203.921 390.679 205.357C388.471 208.539 384.459 210.774 382.803 214.203C381.562 216.774 378.007 216.874 375.268 214.552C374.734 214.115 374.074 213.281 373.659 213.304C368.002 213.838 363.435 212.492 359.376 209.335C358.076 208.31 357.393 210.231 357.273 210.604C356.29 213.906 352.145 214.14 348.742 215.216C347.957 215.652 347.329 216.168 346.482 216.405C345.553 216.634 344.781 217.777 343.568 216.696C343.185 216.402 342.99 215.869 342.946 215.48C342.813 214.313 343.899 214.163 345.212 214.228C346.035 214.245 346.776 214.253 347.605 214.207C348.665 212.644 350.686 211.367 349.329 209.246C347.826 206.918 345.203 209.289 343.418 208.152C343.401 200.776 346.628 198.976 357.13 201.163C360.521 201.881 360.802 199.856 362.052 198.889C364.11 197.231 363.6 194.873 362.123 193.124C360.647 191.376 358.588 193.033 356.811 193.5C355.712 193.777 354.613 194.054 353.427 194.386C352.183 194.456 350.708 196.043 349.923 194.811C348.936 193.111 352.346 193.638 353.181 192.694C351.006 189.659 349.095 186.457 343.01 187.142C340.674 187.425 340.165 186.734 340.403 185.154C340.64 183.574 340.495 181.7 337.581 181.158C334.742 180.686 332.456 181.295 331.019 183.334C330.336 184.422 329.394 185.612 326.77 186.316C326.981 183.322 325.41 180.859 322.124 179.062C320.793 178.353 317.571 178.422 318.286 177.017C319.327 174.811 321.54 178.299 323.285 177.316C322.844 175.092 321.794 173.193 326.812 172.468C331.747 171.735 330.896 166.97 334.255 164.67C335.228 163.996 333.82 162.383 337.438 163.316C342.582 164.655 347.835 159.015 345.39 155.376C344.459 153.938 343.071 152.968 340.509 153.87C338.205 154.67 336.843 155.947 335.362 157.597C333.672 155.507 332.126 153.623 330.586 151.677C329.706 150.564 329.699 148.96 326.873 149.195C324.38 149.399 322.653 150.192 322.227 152.01C321.964 153.01 321.864 154.026 321.677 155.098C319.818 154.723 318.122 154.364 316.426 154.005C314.485 153.621 312.507 152.786 312.393 151.428C312.285 150.006 314.753 150.057 316.248 149.947C318.489 149.782 319.035 149.259 318.03 147.749C317.087 146.438 316.483 145.032 315.641 143.539C317.217 143.437 319.635 143.995 320.834 143.536C321.035 143.171 321.317 142.814 321.6 142.457C321.606 142.393 321.619 142.266 321.543 142.195C321.222 140.432 323.091 137.345 318.236 136.419C313.871 135.541 314.208 131.278 309.253 130.534C307.789 130.326 306.15 129.396 304.698 128.227C303.015 127.741 302.267 126.962 302.304 125.747C301.43 124.571 300.89 123.364 300.745 122.323C300.549 120.124 296.906 120.279 295.9 117.935C294.605 115.179 292.365 118.678 290.406 119.319C288.792 119.802 287.085 121.238 285.552 120.061C283.862 118.805 285.45 116.909 286.825 116.338C292.23 114.176 289.849 111.569 287.392 108.891C285.168 108.031 286.831 106.207 285.279 105.22C284.815 105.752 284.263 106.339 283.798 106.87C281.657 107.686 279.151 107.183 277.116 106.919C275.326 106.679 276.406 105.759 277.587 105.491C279.709 104.865 282.616 104.638 279.563 102.158C276.742 99.8283 276.683 96.2314 271.633 94.7732C269.629 94.1916 270.583 92.0407 271.122 90.747C272.727 86.993 271 86.1178 266.153 87.6294C264.876 84.6824 265.377 82.936 270.232 83.0283C272.21 83.0303 272.73 81.0934 271.901 80.3065C270.537 79.0823 268.557 76.5792 266.573 77.4744C261.312 79.8432 263.125 76.4943 262.346 75.1993C259.671 75.5777 260.112 77.8014 258.216 78.6411C252.611 74.4351 252.592 73.7919 257.941 71.3676C257.394 70.2237 255.008 71.0153 254.562 69.6889C253.745 69.6086 252.929 69.5284 252.031 69.4402C252.755 73.808 250.188 74.774 244.786 72.7041C241.764 71.5736 238.838 71.9914 235.497 72.4327C236.372 74.4424 237.409 76.4682 238.114 78.5255C238.246 78.8591 238.302 79.1212 238.441 79.3913C238.748 79.6139 239.144 79.781 239.54 79.9482C239.866 79.9803 240.281 79.9569 240.865 79.886C245.637 79.1365 247.617 81.6397 250.212 84.5881C244.692 84.5587 238.92 83.735 238.729 89.0388C235.061 87.7806 232.616 84.9752 228.233 85.9554C228.065 87.6703 231.488 88.0707 231.778 90.1514C229.247 89.9026 226.716 89.6539 223.695 89.3571C223.438 89.4601 223.187 89.4995 223.011 89.6105C224.671 92.8517 227.41 94.3393 231.479 94.8675C232.591 95.2974 233.703 95.7273 234.821 96.0937C238.465 98.4397 236.626 101.209 236.383 103.686C236.09 106.671 235.551 109.632 236.658 112.627C238.945 114.519 240.724 116.554 241.944 120.072C238.652 117.504 236.34 115.866 235.076 113.626C229.356 113.961 224.402 116.553 218.304 115.697C216.188 115.425 213.745 115.954 214.61 113.025C215.456 110.287 210.331 109.591 208.559 107.493C207.227 105.951 204.923 107.585 203.598 108.48C200.158 110.772 198.756 108.261 198.241 106.8C197.643 105.33 197.19 104.067 195.043 104.113C193.058 104.174 192.506 105.595 191.804 106.873C189.909 110.213 192.775 113.766 192.193 117.171C189.078 116.993 190.275 113.199 186.458 114.299C183.143 115.32 183.15 116.924 183.804 119.489C184.402 121.793 184.322 123.452 187.563 124.861C188.675 125.291 191.151 127.778 186.271 127.106C183.828 126.802 183.615 128.128 183.421 129.263C182.807 132.153 180.095 133.746 176.919 135.037C172.279 136.954 168.309 135.409 167.465 131.415C166.281 125.847 165.973 125.625 159.764 127.58C155.764 128.854 159.948 131.574 158.781 133.383C159.139 133.931 159.667 134.432 159.862 134.964C160.24 136.156 162.389 137.778 160.348 138.411C157.121 139.376 159.944 135.806 157.219 135.859C155.888 135.984 155.078 136.674 154.425 137.444C154.005 138.365 154.81 140.239 152.461 139.816C151.079 139.616 151.97 138.1 152.145 137.156C152.007 136.886 151.869 136.616 151.649 136.337C147.386 138.612 142.398 134.851 138.298 136.308C135.303 137.425 136.036 134.162 134.008 134.668C127.68 139.497 128.67 145.366 130.463 151.442C130.627 151.458 130.714 151.403 130.878 151.419C132.353 150.666 131.517 149.109 132.691 148.07C134.149 150.009 136.988 151.314 137.078 153.759C137.122 154.982 138.297 156.444 135.616 156.886C132.847 157.384 132.488 156.002 132.211 154.628C132.041 153.842 131.438 153.269 130.401 152.911C130.251 153.602 130.013 154.348 129.863 155.038C128.545 156.704 126.428 155.599 124.531 155.605C125.556 156.924 126.034 158.766 127.529 159.49C134.05 162.76 133.732 167.667 136.134 172.584C127.807 171.766 132.231 166.173 128.229 164.112C124.152 161.98 122.542 158.231 117.661 155.891C117.117 159.75 117.691 163.141 121.266 166.185C123.477 168.006 123.773 169.189 119.78 169.567C117.287 169.77 116.251 171.08 116.566 172.906C116.723 172.986 116.799 173.057 116.956 173.137C118.338 173.337 119.661 171.607 121.383 173.379C123.696 175.851 119.796 176.109 119.156 177.585C121.009 178.024 122.787 178.391 124.721 178.838C123.027 180.98 121.256 180.549 119.063 179.372C116.953 178.202 114.101 177.858 113.116 179.493C111.548 182.032 109.539 183.181 105.305 181.803C105.305 181.803 105.306 181.803 105.224 181.795C105.797 184.353 112.271 183.899 109.328 187.008C111.991 187.591 114.993 188.912 117.002 186.929C118.458 185.533 118.381 182.96 122.214 185.902C123.288 186.713 126.244 184.31 128.725 185.067C130.391 187.411 124.161 186.221 126.171 188.407C128.025 190.513 130.807 189.889 133.545 189.709C136.955 189.403 140.523 190.843 143.869 189.505C144.987 189.037 145.904 189.769 146.074 190.555C146.452 192.58 149.11 195.727 147.409 196.265C143.666 197.437 143.542 198.707 144.962 201.027C145.748 202.259 141.597 202.556 143.74 204.242C145.121 204.441 146.321 204.816 147.038 205.912C145.342 206.387 143.91 205.862 142.371 205.582C140.293 205.763 138.239 205.689 136.248 204.98C134.572 205.265 132.431 206.914 131.249 204.682C129.923 202.243 134.552 203.788 135.185 202.375C136.114 200.478 134.832 199.262 132.351 198.505C131.151 198.131 130.19 197.844 129.543 196.883C127.362 193.911 124.561 193.892 121.9 196.645C120.337 198.287 118.263 195.902 116.191 196.853C119.402 199.413 122.022 202.108 119.004 205.146C119.142 205.416 119.368 205.63 119.513 205.837C122.371 206.951 126.187 204.184 128.067 206.87C129.154 208.387 133.707 209.027 130.783 211.946C125.272 207.621 117.487 209.678 111.036 207.377C108.247 206.397 108.87 208.446 108.06 209.136C106.635 210.215 107.314 210.859 109.267 211.115C112.52 211.563 112.038 213.118 111.159 214.507C110.087 216.197 108.259 215.505 106.519 214.756C105.256 214.183 104 213.547 102.624 213.283C100.52 212.884 97.7064 212.159 98.5686 215.129C98.8644 216.313 98.3439 217.416 96.944 218.24C94.5773 219.675 96.2044 220.733 98.0889 221.688C101.525 222.795 104.588 220.146 108.055 221.769C109.368 221.834 110.863 222.558 110.386 223.217C109.727 224.05 107.968 223.492 106.681 223.173C105.017 223.33 103.353 223.487 101.689 223.644C100.364 224.54 101.702 225.185 102.469 225.773C105.378 228.047 109.436 230.37 101.819 231.545C99.9791 231.813 101.6 233.768 100.131 234.457C99.6664 234.155 98.7055 233.868 98.7305 233.614C99.0166 229.025 92.3082 226.827 90.5475 222.934C89.7425 221.06 88.6678 219.415 85.5289 221.159C85.8939 222.477 89.0962 221.766 89.0093 223.489C87.4841 224.75 84.5891 224.85 84.0191 227.295C83.6998 228.867 78.7632 227.933 74.9561 225.571C74.1397 225.49 73.3295 225.347 72.513 225.266C72.0679 226.441 72.0938 227.854 70.2035 227.797C67.4152 227.651 65.4359 225.982 63.6076 224.455C60.6357 221.983 62.3358 218.944 60.7893 216.227C59.8715 214.661 63.0805 214.72 64.757 214.436C66.2703 214.136 68.7695 213.868 66.8533 212.398C63.8564 210.179 64.414 207.861 64.3246 205.416C64.2851 202.462 62.9019 199.761 57.4634 199.739C56.1446 199.738 54.8009 199.991 55.1831 198.618C55.3459 197.8 54.4219 196.298 56.9591 196.484C57.3673 196.524 58.0017 196.778 58.1775 196.667C59.7719 195.541 63.6538 197.141 63.9102 195.371C64.2415 192.838 60.6441 194.216 58.8916 193.595C57.4595 193.07 56.5104 191.822 54.526 191.884C54.3127 192.376 54.0557 193.312 53.8925 193.296C52.5862 193.168 53.2326 192.462 53.1946 192.009C53.1816 191.303 53.332 190.612 53.4885 189.858C51.4916 190.046 49.4822 190.362 47.4286 190.288C42.0781 190.212 41.0998 192.616 42.4768 195.381C43.508 197.47 42.7925 198.041 40.6391 198.984C38.1341 200.149 35.6483 201.956 33.5136 202.709C26.6888 205.052 34.4022 207.926 32.7834 210.14C33.9389 210.125 35.1697 210.182 36.3252 210.167C36.67 209.175 35.6638 206.832 38.8552 208.749C40.6456 209.822 42.5744 211.166 42.2867 213.254C39.9695 213.347 38.4298 211.4 36.1442 212.009C33.8914 214.802 35.8399 217.623 37.0224 220.689C35.9236 220.965 33.1471 219.859 31.8975 219.993C31.7217 220.104 31.5522 220.151 31.3765 220.262C31.1757 220.627 31.5091 221.429 32.9106 223.106C29.7457 223.437 27.3208 222.108 24.3062 221.748C24.873 224.369 29.8984 226.914 26.3705 229.261C24.4308 230.546 21.9452 232.353 18.0824 231.397C18.5421 233.43 20.6529 234.599 22.6128 235.625C26.2187 237.519 30.4194 236.713 31.6799 233.951C32.6269 231.864 32.9847 231.579 36.4939 229.422C37.2989 231.297 37.4444 233.171 41.4522 235.168C36.5286 234.941 34.2363 234.78 32.982 237.478C31.0817 241.716 29.0345 241.579 22.9534 238.032C21.504 240.198 23.5846 243.352 19.7359 244.77C17.7125 242.711 23.3443 240.763 19.5253 239.362C17.0567 238.478 15.2434 240.993 13.0208 241.801C11.74 242.252 9.89394 242.584 8.75768 243.242C8.37493 243.781 8.07383 244.329 7.68484 244.932C7.79195 245.52 8.37012 246.346 9.51364 247.292C9.73985 247.507 8.09644 250.808 4.19002 250.296C4.008 250.471 3.83227 250.582 3.65026 250.756C9.36313 258.051 10.1609 258.322 15.4974 256.024C17.6362 261.942 20.8699 259.745 13.4226 260.873C10.7476 261.252 56.6117 261.908 54.3392 263.224C230.445 280.529 341.837 321.485 517.943 338.79C520.83 337.086 526.115 312.742 530.484 310.222ZM503.03 220.502C503.966 221.043 504.978 221.655 506.064 222.339C505.455 222.664 504.909 223.188 504.244 223.25C502.58 223.408 501.681 222.486 501.279 221.548C501.09 220.953 501.868 220.58 503.03 220.502ZM133.447 162.188C133.106 160.616 132.829 159.242 134.373 157.79C136.723 159.881 135.945 161.087 133.447 162.188ZM134.519 179.8C132.246 180.282 129.878 180.05 127.554 179.373C125.067 178.679 126.159 177.632 126.667 176.656C129.323 175.635 131.828 175.304 134.002 177.505C134.172 178.291 134.688 179.753 134.519 179.8ZM30.2424 245.225C28.7665 245.144 28 244.556 27.9366 243.523C27.8415 241.975 29.4489 241.556 31.1006 241.526C33.3361 241.425 33.2113 242.695 33.1931 243.719C33.3069 245.077 31.6553 245.107 30.2424 245.225ZM39.1863 247.322C38.464 247.123 37.4276 246.765 37.2201 246.359C36.5977 245.144 39.5369 245.433 39.1594 244.241C38.4428 243.145 34.8748 241.704 39.6159 241.272C41.84 242.966 40.0074 244.838 40.7432 246.577C41.0074 247.245 40.1473 247.609 39.1863 247.322ZM48.5398 199.953C48.4457 200.072 48.0754 200.484 47.6671 200.444C46.5995 200.403 46.3354 199.736 46.4732 199.172C46.5231 198.664 46.6797 197.91 47.8856 198.221C48.9282 198.516 48.7026 199.135 48.5398 199.953ZM58.6537 205.243C57.5366 206.544 57.8392 208.498 57.4949 210.324C51.4965 208.452 56.3364 205.336 54.9157 203.016C53.7665 202.967 52.3219 202.569 52.805 201.847C53.6646 200.649 55.0905 201.238 56.1586 202.112C58.2439 202.702 60.7057 202.816 58.6537 205.243ZM72.2295 234.024C70.6288 235.214 69.9689 234.379 69.2461 233.346C68.1083 231.503 64.7354 230.594 64.7272 227.323C67.8556 229.041 70.1235 230.29 72.4667 231.611C74.1125 232.478 73.215 233.223 72.2295 234.024ZM96.3201 235.494C94.4245 237.167 91.3783 236.291 86.8759 236.81C89.9644 234.741 89.0581 231.381 93.8251 232.363C96.3311 232.865 96.6779 235.208 96.3201 235.494ZM101.472 239.27C100.819 239.206 99.6066 238.959 99.5562 238.633C99.3045 237.839 100.177 237.348 101.176 237.253C101.753 237.246 102.363 237.755 102.916 238.001C102.753 238.819 102.37 239.359 101.472 239.27ZM121.577 212.517C124.578 212.17 125.232 213.902 127.965 215.453C123.87 215.179 122.382 214.391 121.577 212.517ZM148.836 189.288C148.836 189.288 148.503 189.319 148.428 189.247C148.271 189.168 148.12 189.025 148.051 188.89C146.342 187.824 145.487 186.457 145.951 185.092C146.189 184.346 147.621 184.872 148.576 185.222C150.26 186.542 149.382 187.93 148.836 189.288ZM186 135.737C181.779 134.232 185.973 132.656 185.394 130.996C184.752 129.138 187.309 129.966 188.866 130.055C193.13 130.281 195.43 132.88 198.766 134.17C198.772 134.106 198.772 134.106 198.778 134.043C198.86 134.051 198.854 134.114 198.935 134.122C199.865 133.893 199.933 132.361 201.497 133.22C202.276 133.681 202.515 134.602 201.561 135.086C200.004 135.831 199.708 134.647 199.023 134.067C198.942 134.059 198.942 134.059 198.854 134.114C198.791 134.75 198.81 135.393 198.742 136.091C194.376 134.38 190.302 137.25 186 135.737ZM207.681 171.791C206.005 172.909 205.824 175.585 203.457 175.352C200.763 175.088 201.012 172.547 200.182 170.926C198.095 167.002 195.152 170.945 192.124 169.878C190.778 165.962 197.44 164.436 196.515 160.434C201.748 163.385 202.492 168.396 208.811 170.363C208.698 170.673 208.384 171.348 207.681 171.791ZM252.292 86.075C254.088 86.2515 254.308 87.3634 254.88 88.2532C254.73 88.9439 254.511 89.4995 253.393 89.1331C252.275 88.7667 250.993 88.3843 251.187 87.249C251.156 86.7329 251.312 85.9787 252.292 86.075ZM238.898 99.0595C241.128 99.8558 243.49 100.152 242.473 102.104C242.266 102.533 241.067 102.992 240.665 102.888C237.939 102.108 238.906 100.663 238.898 99.0595ZM241.757 111.91C240.803 111.559 238.906 111.565 239.351 110.391C239.796 109.216 241.323 109.622 242.34 110.171C244.677 111.555 247.162 108.914 249.456 110.742C249.506 111.068 249.557 111.393 249.607 111.719C250.349 113.395 254.142 113.383 254.953 115.194C250.327 117.818 248.918 113.703 246.122 112.787C244.502 112.5 243.032 112.356 241.757 111.91ZM235.549 168.374C235.386 169.191 235.28 170.271 233.597 169.785C232.077 169.315 232.283 168.053 232.295 167.092C232.289 166.322 232.514 165.703 234.21 166.062C235.918 166.294 235.731 167.365 235.549 168.374ZM237.51 129.127C237.534 127.206 235.354 125.902 235.196 124.155C235.119 122.416 235.451 120.717 235.62 119.002C237.914 121.664 240.526 121.921 244.475 120.321C243.755 124.29 242.533 127.505 247.421 130.614C249.908 132.141 248.001 135.609 247.419 138.181C237.652 136.067 237.489 136.051 237.51 129.127ZM241.205 175.406C237.82 173.791 237.417 172.02 238.012 170.155C238.031 169.964 239.701 169.744 240.172 169.982C242.748 171.454 241.995 173.24 241.205 175.406ZM241.487 163.314C241.381 164.394 240.885 165.243 239.052 165.447C237.958 163.993 238.793 163.049 240.117 162.153C241.234 160.018 242.344 157.947 243.461 155.812C243.567 155.566 243.912 155.408 244.264 155.186C248.548 157.723 247.062 161.104 247.912 164.202C245.451 164.922 243.691 162.697 241.487 163.314ZM249.928 133.618C253.113 135.599 251.463 137.296 250.559 138.939C248.266 137.11 249 135.515 249.928 133.618ZM249.566 157.438C252.851 158.402 251.476 159.806 251.716 161.562C249.065 160.018 249.347 158.828 249.566 157.438ZM263.889 166.028C263.336 165.782 262.821 165.154 262.783 164.701C262.67 164.177 262.977 163.566 264.101 163.869C264.987 164.084 265.264 164.624 265.195 165.323C265 165.624 265.076 166.53 263.889 166.028ZM276.299 156.346C275.484 158.767 273.909 160.536 269.613 159.793C269.067 160.317 268.445 160.769 267.899 161.292C268.802 159.649 266.327 157.162 269.786 156.347C271.475 155.102 273.245 153.865 275.921 154.321C277.949 154.648 276.531 155.663 276.299 156.346ZM283.863 172.48C282.905 177.196 283.8 182.35 278.697 187.299C277.439 183.328 277.174 180.993 279.446 178.844C281.442 176.988 280.429 174.708 279.819 172.532C279.46 171.15 280.383 170.15 282.361 170.152C284.753 170.131 284.032 171.599 283.863 172.48ZM376.101 232.077C381.628 233.71 379.475 235.487 377.455 237.597C372.233 242.919 369.403 235.651 365.051 236.314C369.063 234.913 375.589 237.285 376.101 232.077ZM355.936 231.763C357.946 232.281 358.009 233.313 357.364 234.853C355.284 234.2 354.731 233.119 354.347 231.991C354.435 231.936 355.534 231.659 355.936 231.763ZM347.88 233.216C348.641 234.701 346.369 237.684 344.322 237.547C340.968 237.282 342.85 234.068 339.401 232.254C343.446 232.203 346.779 230.991 347.88 233.216ZM337.613 213.545C338.586 213.705 339.623 214.064 339.711 214.842C339.737 215.421 339.046 215.738 338.142 215.714C336.904 215.72 336.213 215.204 336.288 214.441C336.169 213.981 336.476 213.37 337.613 213.545ZM320.536 221.23C320.755 219.841 320.735 218.364 321.193 217.062C321.525 216.197 322.442 216.095 323.083 217.12C323.655 217.176 324.697 217.471 324.791 217.352C326.392 215.329 328.689 213.759 332 215.302C335.392 216.854 331.669 218.669 331.833 220.352C332.017 222.679 329.542 222.692 327.796 222.008C322.809 219.914 321.755 222.248 320.739 225.034C319.577 223.444 320.179 222.349 320.536 221.23ZM322.992 190.369C320.99 193.122 323.61 195.817 321.495 198.046C321.125 198.458 321.214 199.237 320.077 199.061C318.45 198.837 318.701 197.964 319.241 197.504C320.144 196.695 319.29 196.162 318.762 195.661C313.949 191.789 318.276 191.381 322.992 190.369ZM312.049 216.164C312.186 213.933 313.743 213.188 316.902 213.755C318.924 214.146 320.256 214.854 319.063 216.083C317.965 217.194 319.656 220.118 315.285 219.303C312.942 218.817 310.681 218.338 312.049 216.164ZM314.095 162.625C314.435 164.198 315.265 165.818 313.281 166.714C312.936 166.872 311.497 166.41 311.202 166.06C309.524 163.843 313.229 163.887 314.095 162.625ZM305.058 131.276C307.607 130.501 308.294 134.416 312.151 135.436C308.93 136.338 307.146 136.868 305.282 137.39C305.337 135.151 302.082 132.202 305.058 131.276ZM307.396 145.229C306.353 143.267 306.396 141.989 307.419 140.807C307.513 140.688 308.731 140.872 308.882 141.015C309.568 142.429 309.606 143.715 307.396 145.229ZM297.159 235.991C300.417 234.708 303.695 234.902 306.196 236.302C307.364 236.994 305.933 238.97 304.163 239.373C299.937 240.432 299.314 237.549 297.159 235.991ZM306.088 244.949C307.859 244.545 310.125 244.127 311.062 245.502C312.143 247.083 309.782 247.62 308.168 248.103C302.631 249.931 302.631 249.932 301.547 254.25C298.674 249.094 300.261 246.364 306.088 244.949ZM318.934 261.025C316.02 261.315 312.981 262.876 310.066 260.666C305.256 261.797 304.256 259.39 302.779 256.808C306.654 256.804 309.97 256.617 313.341 255.858C317.304 254.965 315.151 256.741 314.73 257.662C315.302 257.718 315.873 257.774 316.451 257.767C319.033 258.341 319.267 260.993 318.934 261.025ZM319.58 270.387C321.329 266.005 320.994 261.868 324.295 258.473C327.996 261.081 323.514 264.745 327.127 267.409C324.816 268.272 322.587 269.143 319.58 270.387ZM335.003 270.299C332.779 267.772 334.422 264.47 330.64 261.854C332.844 262.071 334.64 262.247 336.437 262.424C337.622 260.424 331.688 261.252 333.552 259.062C334.205 258.293 335.178 257.619 336.528 258.136C338.275 258.821 340.171 259.649 341.554 260.682C342.32 261.271 341.718 262.366 340.443 262.753C339.765 262.943 339.006 263.125 338.24 263.371C342.808 268.052 342.613 268.353 335.003 270.299ZM348.627 253.297C344.796 252.857 340.646 255.655 337.969 251.865C335.608 253.236 336.841 255.794 333.683 256.895C333.304 253.202 325.562 255.648 325.384 251.59C323.757 251.366 322.168 251.595 320.586 251.76C318.916 251.981 315.966 254.32 315.436 251.318C315.115 249.555 310.798 245.668 318.127 245.747C319.936 245.796 319.703 244.812 320.186 244.089C320.688 243.177 319.474 241.262 323.042 241.869C325.391 242.292 327.111 242.397 327.828 244.327C328.483 246.059 329.143 247.727 328.887 249.498C333.276 249.288 337.019 248.95 338.712 245.14C339.885 242.434 345.06 242.622 348.997 242.816C351.045 242.954 351.278 243.938 350.267 244.993C349.533 245.755 349.477 246.326 351.034 246.415C353.408 246.585 356.027 247.612 358.137 246.28C359.543 245.392 357.954 244.787 357.275 244.143C356.239 243.785 355.121 243.418 354.09 242.996C354.109 242.806 354.128 242.615 354.222 242.496C356.1 242.681 357.978 242.865 359.855 243.05C361.747 245.608 365.728 244.525 369.277 246.156C362.962 250.858 355.956 255.043 353.009 261.551C354.966 257.575 344.692 257.271 348.627 253.297ZM368.491 275.129C367.184 274.167 365.626 273.244 367.158 271.92C367.522 271.571 368.627 271.23 369.224 271.866C370.669 273.098 370.311 274.218 368.491 275.129ZM375.471 269.53C371.27 271.17 366.202 270.736 361.999 267.373C366.89 266.25 368.816 262.592 374.587 261.748C374.469 264.622 381.209 267.337 375.471 269.53ZM381.912 245.923C379.462 244.848 379.193 245.912 379.225 247.262C380.698 253.242 379.719 253.98 370.468 253.327C372.307 250.558 374.591 248.281 377.428 246.252C378.514 245.268 379.443 244.205 380.755 243.436C381.722 242.826 382.135 241.135 384.409 242.32C385.666 242.957 386.885 243.974 386.301 244.879C385.611 246.03 384.048 246.838 381.912 245.923ZM384.259 253.913C385.081 252.262 387.178 251.891 388.767 250.829C390.163 254.236 388.135 254.743 384.259 253.913ZM437.723 226.589C439.827 227.822 442.786 228.754 441.977 231.112C442.023 234.002 439.041 236.659 436.73 235.854C433.061 234.596 432.274 230.864 432.059 228.021C431.9 225.44 437.26 229.622 437.723 226.589ZM440.262 240.178C439.509 241.13 438.461 242.566 436.168 240.737C435.024 239.791 433.083 239.408 431.419 238.731C433.497 237.717 435.745 237.489 437.981 238.222C439.017 238.58 441.303 238.805 440.262 240.178ZM420.142 241.92C420.844 240.642 420.774 238.84 423.776 239.327C425.968 239.671 426.497 241.005 426.435 242.474C425.682 243.426 426.154 245.332 423.114 244.392C421.594 243.922 419.032 243.991 420.142 241.92ZM401.953 249.175C401.813 246.403 407.457 243.495 413.285 243.747C410.825 246.135 407.165 247.314 407.838 250.522C408.116 251.896 406.074 251.696 404.599 251.615C402.3 251.517 401.998 250.397 401.953 249.175ZM404.169 277.801C402.599 277.839 401.908 277.322 402.598 276.172C403.865 274.18 404.215 271.457 408.108 271.262C410.426 271.169 410.577 272.98 410.704 274.211C409.883 276.695 407.553 277.749 404.169 277.801ZM415.594 219.413C414.608 219.38 413.296 219.315 413.565 218.251C413.722 217.497 413.916 216.362 415.693 216.729C416.579 216.944 417.169 217.644 417.791 218.026C417.591 219.224 416.662 219.454 415.594 219.413ZM415.539 272.826C414.76 273.199 414.032 273.897 412.97 272.959C412.059 272.164 412.611 271.577 413.321 271.069C415.43 269.737 418.105 269.359 421.183 269.918C419.349 270.956 417.447 271.859 415.539 272.826ZM433.253 260.331C439.854 261.941 438.124 266.965 441.806 269.764C442.189 270.058 441.373 270.812 440.456 270.914C437.914 273.294 435.61 274.093 432.135 270.866C429.647 268.505 426.035 266.675 422.171 264.051C427.17 264.35 430.499 264.869 432.673 267.905C433.685 269.351 435.671 270.957 438.666 270.674C434.946 265.755 432.637 259.885 421.459 259.556C424.955 257.527 431.411 257.264 426.203 253.225C426.127 253.153 426.949 252.336 427.558 252.011C430.98 249.911 434.476 247.882 438.325 245.63C440.412 249.555 442.21 253.066 444.021 256.451C442.797 257.998 439.812 254.819 439.606 256.915C439.369 259.328 443.621 259.682 445.606 261.288C440.012 263.688 436.787 257.92 431.782 258.519C431.431 259.574 432.443 260.187 433.253 260.331ZM468.78 220.92C466.669 220.584 467.687 220.299 468.188 219.387C469.819 216.212 466.998 213.883 461.711 214.005C459.481 214.042 458.35 212.969 456.679 212.356C459.147 212.406 459.584 207.96 463.392 211.156C464.114 210.521 464.842 209.823 465.564 209.189C465.984 208.268 464.557 206.846 466.661 206.411C467.414 206.293 467.93 206.92 467.861 207.619C469.464 209.765 471.424 210.791 474.393 209.095C475.648 207.23 473.907 205.648 472.336 204.019C475.187 203.529 476.35 204.285 476.853 205.873C480.177 208.958 476.662 212.845 480.231 215.953C480.382 216.096 480.25 216.596 480.169 216.588C474.128 216.828 473.884 219.305 475.777 222.698C475.84 222.896 474.521 223.728 474.025 222.91C472.975 221.011 470.727 221.239 468.78 220.92ZM472.136 287.43C470.578 287.341 468.5 287.521 467.814 286.107C467.06 284.558 468.868 283.774 470.262 283.013C471.831 282.141 473.42 281.913 475.192 283.177C476.963 284.441 479.086 285.484 481.587 286.884C478.284 287.778 475.163 287.663 472.136 287.43ZM497.324 296.19C496.131 296.585 495.673 297.887 494.838 298.831C491.566 297.74 491.766 295.708 491.137 294.556C491.242 292.642 498.73 295.302 494.124 291.002C493.295 290.215 495.536 290.05 496.472 289.757C497.407 289.464 498.802 289.537 498.614 290.609C498.276 292.371 501.662 294.82 497.324 296.19ZM522.892 300.241C522.465 300.392 521.78 300.645 521.033 300.7C520.455 300.707 519.833 300.325 520.128 299.841C520.442 299.167 521.346 299.192 522.163 299.272C522.652 299.32 523.306 299.384 522.892 300.241Z" fill="#161654"/>
</svg>
