<svg width="620" height="170" viewBox="0 0 620 170" fill="none" xmlns="http://www.w3.org/2000/svg">
<path opacity="0.3" d="M1.6709 22.2526C21.5591 26.9177 42.4333 31.5829 62.3702 27.1084C72.4969 24.8319 81.8446 20.3014 91.7766 17.4193C119.126 9.51334 148.642 14.6494 176.807 19.5388C240.378 30.5736 305.143 40.0608 369.542 34.42C383.199 33.2201 396.977 31.3474 410.573 33.0631C420.358 34.2967 453.799 48.8403 463.5 50.5C516.604 59.6171 542.292 15.3671 594.447 2.38112C603.089 0.227998 612.473 -1.34199 620.811 1.67463C623.963 2.81847 626.811 4.56789 629.623 6.32851C680.147 37.8179 728.346 72.4922 773.77 110.015C787.986 121.756 802.458 134.529 808.471 151.227C814.861 168.99 810.674 188.279 809.311 206.961C807.935 225.633 810.698 246.783 826.497 258.547C866.373 206.961 575.5 151.227 377 136C297.009 131.526 223.637 137.099 143.5 136C100.096 135.406 84.943 140.921 43 151.227C43 151.227 27.335 144.996 24 143C24 143 5.77997 135.925 5.5 132C0.363647 58.3228 -0.99469 110.609 1.6709 22.2526Z" fill="#343B7D"/>
</svg>
