<svg width="365" height="270" viewBox="0 0 365 270" fill="none" xmlns="http://www.w3.org/2000/svg">
<path d="M-237.065 233.398C-239.803 230.953 -240.43 229.066 -245.6 229.33C-249.409 229.517 -250.071 226.152 -251.956 224.212C-249.914 223.64 -248.793 224.172 -247.631 225.199C-243.159 229.289 -238.803 224.451 -234.409 225.656C-234.313 224.682 -234.225 223.778 -234.129 222.804C-234.074 222.248 -234.02 221.692 -233.965 221.136L-233.924 220.718C-233.257 220.363 -232.68 219.998 -232.013 219.642C-229.573 219.601 -227.132 219.56 -224.334 219.555C-225.972 216.936 -227.369 214.623 -228.855 212.3C-228.904 211.874 -228.863 211.457 -228.911 211.031C-227.137 210.433 -226.149 207.722 -223.962 209.341C-222.283 210.629 -218.398 211.502 -219.579 214.335C-220.293 216.09 -219.68 218.116 -219.961 220.055C-220.228 221.854 -219.759 223.514 -216.892 223.726C-213.482 223.921 -213.937 222.121 -214.495 220.451C-214.701 219.799 -214.262 219 -214.077 218.035C-213.981 217.974 -213.891 217.983 -213.795 217.922C-212.413 218.55 -211.099 218.96 -210.349 219.595C-207.268 222.215 -205.852 221.581 -204.946 218.792C-204.431 217.228 -204.213 215.003 -200.272 216.232C-199.922 216.337 -199.186 216.199 -199.172 216.059C-198.054 212.94 -197.389 209.846 -194.152 207.215C-190.805 204.385 -192.499 201.41 -197.017 198.719C-197.354 198.476 -197.609 198.31 -197.76 198.015C-197.898 197.58 -197.946 197.154 -197.905 196.737C-197.542 195.789 -196.277 194.86 -194.978 194.497C-192.84 193.864 -191.309 190.224 -187.938 193.574C-186.046 195.445 -185.112 194.202 -184.583 193.412C-183.216 191.44 -181.821 191.016 -178.362 191.636C-175.261 192.222 -171.198 192.2 -169.935 188.533C-169.187 186.43 -164.091 187.843 -161.452 186.698C-161.514 186.411 -161.556 185.916 -161.734 185.898C-169.959 183.265 -171.204 181.247 -166.87 175.705C-164.293 172.448 -164.907 169.509 -167.357 165.969C-170.251 166.948 -171.067 169.746 -174.739 169.456C-177.124 169.853 -180.177 168.781 -181.812 170.726C-184.198 170.211 -187.079 171.051 -188.874 169.12C-188.826 168.633 -188.957 168.129 -188.648 167.738C-187.838 166.835 -183.911 168.203 -185.17 166.324C-186.113 164.898 -188.794 165.547 -189.769 167.206C-191.502 166.474 -192.415 168.421 -193.887 167.785C-195.276 167.227 -197.4 167.72 -197.615 165.312C-197.844 162.13 -195.134 163.941 -193.663 163.664C-192.101 165.222 -190.217 165.337 -188.231 164.409C-181.129 164.685 -177.171 160.23 -170.675 159.324C-167.107 158.832 -171.782 157.741 -171.508 156.785C-171.481 156.507 -171.55 156.289 -171.618 156.072C-171.441 154.264 -167.508 153.738 -168.665 150.816C-171.413 143.876 -178.774 147.154 -184.778 144.879C-183.138 150.236 -174.358 150.888 -172.045 154.907C-172.073 155.185 -172.107 155.532 -172.141 155.88C-172.031 155.68 -172.004 155.402 -171.894 155.202C-171.743 155.498 -171.68 155.785 -171.618 156.072C-171.639 156.28 -171.659 156.489 -171.508 156.785C-171.508 156.785 -171.508 156.785 -171.515 156.854C-171.886 156.958 -172.257 157.062 -172.539 157.175C-172.422 156.905 -172.306 156.636 -172.271 156.288C-172.581 156.679 -172.972 156.992 -173.275 157.313C-177.771 158.065 -179.752 155.272 -182.126 152.793C-183.598 151.244 -185.441 149.799 -186.584 147.651C-189.209 149.569 -187.805 151.813 -188.616 153.629C-191.111 154.227 -192.326 156.494 -195.606 155.891C-195.93 154.595 -194.164 154.067 -193.786 152.981C-193.244 151.138 -193.018 149.756 -196.985 150.63C-199.012 151.063 -201.522 150.887 -203.964 149.102C-202.308 147.861 -200.885 146.245 -198.817 145.395C-196.28 144.381 -195.779 142.956 -197.361 141.607C-201.771 137.804 -197.026 138.2 -194.311 138.115C-190.234 137.954 -186.253 138.767 -182.319 140.066C-179.177 141.147 -175.725 141.837 -174.324 138.605C-173.96 138.571 -173.499 138.476 -173.128 138.372C-170.582 141.851 -168.437 141.149 -166.583 137.891C-166.15 137.162 -165.718 136.432 -165.113 135.789C-159.898 130.474 -159.898 130.474 -167.043 126.964C-167.559 126.703 -168.068 126.372 -168.921 125.867C-168.914 125.797 -168.907 125.728 -168.894 125.589C-166.495 125.052 -164.742 124.663 -162.432 124.117C-163.966 123.194 -165.149 122.376 -166.6 121.531C-163.232 119.405 -159.188 121.417 -155.538 121.004C-154.81 119.109 -156.75 117.725 -157.679 116.16C-158.911 114.002 -156.099 113.858 -155.02 112.981C-152.862 111.227 -152.263 113.392 -151.059 114.002C-150.557 114.402 -150.035 114.594 -149.409 114.655C-147.091 115.866 -147.324 117.318 -149.145 119.315C-152.45 122.641 -151.122 124.737 -145.099 124.978C-143.009 123.92 -150.306 120.114 -142.626 120.939C-141.414 125.13 -136.96 122.97 -134.099 123.251C-131.507 123.506 -129.561 123.907 -130.715 125.549C-133.25 129.302 -128.863 130.575 -125.974 132.404C-124.53 133.318 -122.385 133.529 -122.865 135.658C-123.372 138.066 -122.918 138.04 -118.614 139.235C-117.912 139.445 -117.472 140.471 -117.272 141.193C-116.721 142.932 -116.259 144.662 -115.797 146.392C-116.216 146.983 -116.635 147.574 -117.054 148.164C-118.962 143.694 -125.597 142.34 -129.332 139.024C-130.99 137.528 -133.554 138.82 -133.223 140.959C-132.753 143.533 -134.079 145.087 -137.179 146.327C-139.908 147.463 -140.931 149.609 -138.964 151.628C-136.914 153.725 -134.137 152.102 -132.797 151.321C-127.278 148.424 -121.824 151.698 -116.406 151.668C-114.343 152.714 -115.197 150.383 -113.863 150.584C-112.851 152.228 -112.025 153.924 -110.924 155.577C-110.126 156.638 -109.657 158.299 -107.182 157.91C-105.258 157.608 -103.601 156.367 -104.035 155.271C-105.034 152.575 -103.722 150.247 -100.642 150.128C-97.1082 149.984 -93.3945 151.683 -92.54 154.926C-92.4711 155.144 -91.8523 155.275 -91.4191 155.458C-90.2645 154.729 -90.3339 153.598 -90.9806 152.833C-94.3999 149.057 -90.4403 148.252 -86.9964 147.187C-82.8996 145.904 -80.5546 146.837 -79.9819 150.193C-79.9335 150.619 -78.7094 151.02 -77.9323 151.377C-77.0726 151.812 -76.3923 151.318 -76.5369 150.952C-78.7532 146.873 -73.7687 146.661 -70.9637 146.586C-68.3442 146.562 -65.4071 148.817 -64.5879 150.582C-62.8942 154.469 -59.0627 157.724 -58.0153 161.759C-57.2296 164.785 -53.434 165.649 -49.9975 163.74C-49.3309 163.385 -48.4444 162.629 -48.0043 162.743C-42.0424 164.522 -36.8519 164.049 -31.8207 161.525C-30.2055 160.701 -29.8811 162.909 -29.8328 163.335C-29.4799 167.091 -25.0789 168.225 -21.6539 170.106C-20.9041 170.742 -20.34 171.429 -19.4803 171.864C-18.5312 172.309 -17.946 173.7 -16.4134 172.798C-15.9391 172.563 -15.6163 172.033 -15.4859 171.625C-15.0948 170.4 -16.2294 170.007 -17.6527 169.797C-18.5397 169.64 -19.3373 169.491 -20.2175 169.265C-21.0231 167.36 -22.9217 165.559 -21.0116 163.57C-18.9022 161.39 -16.5902 164.496 -14.4319 163.655C-12.8416 155.737 -15.9234 153.117 -27.6663 153.227C-31.4614 153.276 -31.332 151.042 -32.4672 149.737C-34.3249 147.518 -33.2745 145.094 -31.316 143.531C-29.3575 141.968 -27.4998 144.187 -25.6911 145.067C-24.5701 145.598 -23.4491 146.129 -22.2456 146.739C-20.9253 147.08 -19.6797 149.098 -18.5735 147.943C-17.1513 146.327 -20.9259 146.167 -21.621 144.975C-18.6388 142.179 -15.9043 139.148 -9.51599 141.18C-7.06791 141.982 -6.37397 141.348 -6.29253 139.601C-6.21108 137.854 -5.65538 135.873 -2.41024 135.911C0.738686 136.009 3.06326 137.151 4.17169 139.647C4.67438 140.96 5.4315 142.438 8.0999 143.754C8.51043 140.494 10.7228 138.184 14.6341 136.954C16.2151 136.477 19.6601 137.237 19.1916 135.576C18.5438 132.985 15.4244 136.259 13.7597 134.832C14.7071 132.538 16.2391 130.722 11.006 128.874C5.86217 127.035 7.79114 122.099 4.67473 118.915C3.7735 117.984 5.62896 116.551 1.54521 116.782C-4.26416 117.123 -8.70309 109.947 -5.30189 106.561C-3.9964 105.214 -2.29861 104.469 0.259906 105.984C2.56392 107.334 3.75429 108.995 4.9931 111.083C7.25391 109.199 9.31545 107.506 11.3838 105.743C12.5658 104.736 12.9154 103.015 15.8998 103.87C18.5335 104.62 20.2186 105.839 20.2886 107.882C20.358 109.012 20.2487 110.124 20.2219 111.315C22.2983 111.309 24.1958 111.285 26.0933 111.26C28.2591 111.263 30.5619 110.787 30.9736 109.353C31.3921 107.85 28.7311 107.377 27.1495 106.941C24.7771 106.287 24.3024 105.608 25.7041 104.201C26.9959 102.994 27.9438 101.613 29.1667 100.189C27.4958 99.7438 24.7801 99.828 23.5903 99.0792C23.4525 98.6444 23.2253 98.2009 22.9982 97.7573C23.005 97.6877 23.0187 97.5487 23.1149 97.4879C23.8357 95.6632 22.4859 91.9499 27.8968 91.9902C32.7713 91.9778 33.3185 87.3276 38.7982 87.5853C40.4139 87.6738 42.373 87.0239 44.1807 86.0782C46.0919 85.9149 47.0608 85.2379 47.2801 83.9255C48.4688 82.8488 49.307 81.6674 49.6844 80.5812C50.3637 78.2609 54.2418 79.2036 55.8217 76.9016C57.8001 74.2175 59.4596 78.4526 61.4266 79.5586C63.0566 80.4208 64.5841 82.3261 66.4811 81.3892C68.5637 80.4004 67.2628 78.0259 65.9078 77.1204C60.5637 73.6466 63.6768 71.3548 66.8861 69.0023C69.4571 68.5529 68.0601 66.2391 69.9366 65.5108C70.322 66.1806 70.7899 66.9287 71.1754 67.5984C73.3006 68.9306 76.0989 68.9247 78.3404 69.0748C80.3136 69.1985 79.3503 67.9805 78.1399 67.4403C75.9942 66.3167 72.9204 65.453 76.7281 63.4401C80.2539 61.54 81.0835 57.6899 86.8172 57.2002C89.0928 57.0026 88.5274 54.4897 88.224 52.9856C87.3001 48.6121 89.3417 48.0404 94.2247 50.6967C96.2237 47.804 96.0574 45.8219 90.8248 44.8864C88.7001 44.467 88.5545 42.2763 89.6128 41.608C91.3379 40.584 93.9972 38.3179 95.9369 39.702C101.082 43.3669 99.8487 39.3843 100.962 38.1597C103.754 39.1362 102.806 41.4301 104.663 42.7359C111.578 39.4136 111.736 38.727 106.508 34.9838C107.339 33.8719 109.733 35.2305 110.495 33.9012C111.389 33.989 112.283 34.0769 113.266 34.1735C111.557 38.7094 114.108 40.2941 120.351 39.2225C123.836 38.6523 126.889 39.7246 130.383 40.9104C129.016 42.8823 127.47 44.8367 126.275 46.8957C126.062 47.2258 125.945 47.4951 125.739 47.7557C125.361 47.9292 124.9 48.0243 124.44 48.1195C124.082 48.0844 123.642 47.9709 123.03 47.7704C118.065 45.9485 115.406 48.2146 111.99 50.8277C117.924 51.9725 124.298 52.318 123.373 58.0544C127.581 57.4849 130.804 54.9933 135.301 56.9798C135.117 58.8573 131.356 58.5579 130.601 60.7304C133.372 61.0027 136.143 61.2749 139.45 61.5999C139.704 61.7654 139.966 61.8612 140.131 62.0179C137.658 65.1448 134.399 66.1586 129.916 65.8585C128.631 66.0832 127.345 66.3079 126.067 66.4631C121.654 68.2059 123.038 71.5714 122.771 74.2833C122.45 77.5515 122.397 80.8461 120.57 83.8259C117.711 85.3703 115.368 87.1761 113.307 90.6946C117.39 88.6385 120.222 87.3722 122.056 85.2356C128.128 86.8152 132.895 90.6536 139.626 91.0342C141.957 91.193 144.467 92.2822 144.162 88.9525C143.837 85.8314 149.489 86.1762 151.839 84.3009C153.598 82.9292 155.724 85.1741 156.956 86.4185C160.161 89.612 162.202 87.2148 163.067 85.7553C164.022 84.3046 164.777 83.0449 167.074 83.5514C169.192 84.0403 169.482 85.6836 169.964 87.2053C171.286 91.1967 167.452 94.4004 167.351 98.1817C170.734 98.6546 170.257 94.3251 174.122 96.3197C177.465 98.1225 177.115 99.8433 175.865 102.459C174.732 104.805 174.465 106.604 170.684 107.426C169.399 107.65 166.21 109.794 171.594 110.113C174.282 110.307 174.228 111.776 174.194 113.036C174.237 116.27 176.81 118.559 179.946 120.622C184.52 123.669 189.113 122.857 190.87 118.747C193.328 113.021 193.706 112.847 199.958 116.27C203.981 118.491 198.908 120.52 199.776 122.711C199.274 123.224 198.601 123.649 198.278 124.179C197.619 125.378 194.966 126.661 197.022 127.776C200.282 129.501 198.01 125.065 200.926 125.703C202.329 126.121 203.051 127.035 203.588 128C203.843 129.078 202.579 130.92 205.192 130.966C206.718 131.046 206.084 129.228 206.098 128.177C206.304 127.916 206.51 127.655 206.805 127.404C210.898 130.755 217.056 127.779 221.149 130.217C224.127 132.055 224.035 128.395 226.105 129.37C231.871 135.905 229.557 141.996 226.337 148.139C226.158 148.121 226.075 148.043 225.897 148.025C224.473 146.902 225.702 145.408 224.663 144.043C222.684 145.814 219.357 146.61 218.74 149.218C218.432 150.521 216.858 151.841 219.643 152.887C222.511 154.011 223.191 152.604 223.781 151.187C224.131 150.379 224.901 149.893 226.09 149.729C226.104 150.503 226.201 151.355 226.215 152.128C227.275 154.198 229.784 153.462 231.82 153.873C230.439 155.071 229.532 156.948 227.772 157.407C220.073 159.529 219.368 164.865 215.741 169.634C224.858 170.53 221.3 163.581 226.036 162.221C230.868 160.8 233.396 157.117 239.136 155.645C238.898 159.904 237.559 163.423 233.071 165.931C230.309 167.415 229.739 168.622 233.947 169.879C236.581 170.629 237.413 172.255 236.686 174.149C236.5 174.201 236.404 174.262 236.218 174.314C234.692 174.234 233.639 172.095 231.412 173.631C228.402 175.793 232.535 176.901 232.907 178.622C230.824 178.699 228.837 178.714 226.665 178.781C228.027 181.443 230.021 181.358 232.627 180.561C235.142 179.755 238.278 179.993 238.987 181.958C240.13 185.019 242.043 186.681 246.882 186.104C246.882 186.104 246.882 186.104 246.972 186.113C245.811 188.737 238.956 186.869 241.454 190.836C238.47 190.894 234.964 191.673 233.23 189.115C231.964 187.306 232.595 184.559 227.852 186.902C226.526 187.544 223.863 184.333 221.037 184.617C218.749 186.779 225.693 186.83 223.068 188.748C220.628 190.615 217.774 189.351 214.873 188.575C211.276 187.519 207.138 188.306 203.829 186.156C202.729 185.416 201.588 186.006 201.238 186.814C200.4 188.908 196.875 191.721 198.588 192.661C202.357 194.717 202.22 196.108 200.2 198.296C199.094 199.451 203.488 200.655 200.828 202.009C199.301 201.929 197.933 202.075 196.93 203.1C198.65 203.971 200.299 203.712 202.011 203.74C204.205 204.376 206.426 204.735 208.715 204.398C210.455 205.061 212.402 207.288 214.147 205.143C216.091 202.806 210.791 203.479 210.412 201.827C209.819 199.592 211.455 198.56 214.28 198.276C215.648 198.129 216.742 198.026 217.642 197.132C220.617 194.405 223.629 194.982 225.9 198.505C227.228 200.601 229.963 198.483 231.985 199.945C227.992 202.01 224.604 204.345 227.198 208.251C226.992 208.511 226.703 208.694 226.504 208.885C223.197 209.472 219.689 205.687 217.098 208.171C215.607 209.569 210.581 209.286 213.1 213.044C219.939 209.573 227.861 213.441 235.279 212.345C238.483 211.887 237.377 213.955 238.099 214.868C239.4 216.33 238.534 216.877 236.382 216.736C232.793 216.523 232.979 218.297 233.627 219.975C234.419 222.019 236.529 221.665 238.557 221.232C240.035 220.886 241.52 220.47 243.053 220.48C245.397 220.5 248.574 220.321 247.015 223.327C246.445 224.535 246.769 225.83 248.096 227.014C250.332 229.059 248.36 229.848 246.132 230.471C242.207 230.928 239.482 227.431 235.412 228.435C233.989 228.225 232.229 228.684 232.601 229.493C233.131 230.528 235.139 230.304 236.589 230.236C238.343 230.759 240.096 231.282 241.85 231.806C243.081 233.05 241.507 233.457 240.559 233.926C236.95 235.747 232.097 237.377 240.026 240.262C241.945 240.942 239.787 242.696 241.218 243.749C241.781 243.524 242.874 243.421 242.902 243.142C243.572 238.153 251.245 237.222 253.965 233.418C255.229 231.576 258.439 228.202 261.438 230.743C260.765 232.081 255.773 232.472 255.499 234.341C256.868 236.02 261.66 234.907 261.751 237.654C261.759 239.41 267.26 239.459 271.851 237.734C272.745 237.822 273.646 237.84 274.54 237.928C274.767 239.284 274.438 240.796 276.48 241.137C279.506 241.575 277.188 255.695 279.476 254.446C283.195 252.424 282.017 258.866 284.257 256.278C285.576 254.793 282.118 254.172 280.378 253.51C278.817 252.865 276.189 241.977 278.56 240.806C282.251 239.062 282.147 246.523 282.764 243.915C283.436 240.752 285.497 238.146 291.342 239.282C292.758 239.562 294.148 240.119 294.03 238.563C294.029 237.651 295.341 236.235 292.577 235.893C292.13 235.849 291.395 235.987 291.23 235.831C289.758 234.282 285.248 235.173 285.35 233.217C285.534 230.427 289.103 232.673 291.118 232.38C292.768 232.121 294.053 230.983 296.17 231.472C296.295 232.046 296.371 233.107 296.55 233.124C297.98 233.265 297.436 232.369 297.573 231.891C297.738 231.135 297.724 230.361 297.716 229.518C299.82 230.146 301.911 230.913 304.132 231.271C309.894 232.329 310.432 235.12 308.364 237.795C306.812 239.819 307.458 240.585 309.57 242.056C312.012 243.841 314.296 246.312 316.428 247.574C323.257 251.545 314.362 252.988 315.628 255.71C314.391 255.448 313.057 255.247 311.819 254.985C311.66 253.846 313.24 251.544 309.405 252.922C307.253 253.694 304.895 254.726 304.759 257.029C307.228 257.623 309.296 255.86 311.621 257.001C313.445 260.48 310.751 253.026 308.828 256.066C309.949 256.598 313.166 256.001 314.479 256.411C314.644 256.568 314.816 256.655 314.982 256.812C315.119 257.246 314.59 258.037 312.728 259.539C316.056 260.568 318.943 259.658 322.257 259.914C321.09 262.607 315.151 264.27 317.257 254.028C319.066 255.82 321.35 258.292 325.702 258.087C324.775 260.173 322.259 260.979 319.936 261.663C315.66 262.928 311.321 261.167 310.556 257.933C309.984 255.49 310.843 268.621 307.534 265.558C306.27 267.399 304.532 255.867 299.803 257.157C305.138 257.962 307.634 258.278 308.406 261.443C309.543 266.399 311.771 266.688 319.057 264.174C320.152 266.809 323.227 267.776 327.058 270.119C329.67 268.339 318.055 267.025 322.455 266.334C325.294 265.911 332.687 267.021 334.902 268.362C336.181 269.119 338.093 269.869 339.173 270.818C339.469 271.478 339.676 272.131 339.965 272.861C339.725 273.469 338.928 274.234 337.498 275.006C337.209 275.188 338.271 279.084 342.575 279.366C342.733 279.592 342.898 279.749 343.056 279.975C335.367 286.591 334.453 286.712 329.211 283.108C325.654 289.007 322.649 285.959 337.122 299.015C339.914 299.991 283.807 280.664 285.967 282.562C93.1664 263.616 -36.8855 285.695 -229.686 266.749C-232.424 264.304 -232.91 237.036 -237.065 233.398ZM-188.464 142.902C-189.584 143.284 -190.801 143.726 -192.114 144.229C-191.529 144.707 -191.054 145.386 -190.353 145.595C-188.599 146.119 -187.438 145.32 -186.806 144.399C-186.476 143.8 -187.233 143.234 -188.464 142.902ZM220.843 159.043C221.543 157.426 222.134 156.01 220.785 154.122C217.816 155.867 218.394 157.328 220.843 159.043ZM215.939 177.727C218.277 178.729 220.869 178.984 223.509 178.752C226.328 178.538 225.378 177.181 225.04 176.024C222.406 174.361 219.786 173.472 216.982 175.373C216.632 176.181 215.767 177.64 215.939 177.727ZM315.679 268.368C317.281 268.596 318.229 268.128 318.518 267.033C318.95 265.39 311.331 266.574 309.564 266.19C307.185 265.605 307.048 266.996 306.849 268.1C306.438 269.534 314.187 267.941 315.679 268.368ZM305.627 268.715C306.446 268.655 307.635 268.491 307.944 268.1C308.871 266.927 299.672 268.588 300.331 267.389C301.334 266.364 305.473 265.577 300.474 264.103C297.724 265.448 305.275 265.872 304.114 267.583C303.688 268.243 304.534 268.818 305.627 268.715ZM300.879 241.413C300.955 241.561 301.265 242.083 301.712 242.126C302.867 242.31 303.293 241.65 303.265 241.015C303.319 240.459 303.312 239.616 301.951 239.693C300.768 239.787 300.879 240.5 300.879 241.413ZM288.891 244.939C289.813 246.574 289.072 248.607 289.052 250.641C295.893 249.909 291.36 245.532 293.38 243.344C294.624 243.536 296.26 243.416 295.895 242.538C295.227 241.068 293.571 241.397 292.237 242.108C289.872 242.297 287.205 241.894 288.891 244.939ZM272.978 247.393C274.443 249.011 275.33 248.256 276.326 247.301C277.941 245.564 275.774 247.284 276.48 243.772C272.755 244.951 276.035 243.832 273.237 244.75C271.285 245.331 272.09 246.323 272.978 247.393ZM245.09 245.674C246.769 247.875 250.227 247.583 254.951 249.1C252.075 246.22 253.764 242.806 248.436 242.844C245.638 242.85 244.766 245.291 245.09 245.674ZM238.752 248.632C239.467 248.702 240.822 248.695 240.945 248.356C241.385 247.557 240.553 246.843 239.5 246.529C238.882 246.398 238.119 246.815 237.473 246.962C237.473 247.874 237.769 248.535 238.752 248.632ZM222.864 215.618C219.715 214.606 218.643 216.326 215.378 217.41C219.834 217.988 221.6 217.459 222.864 215.618ZM198.542 184.864C198.542 184.864 198.892 184.969 198.989 184.908C199.174 184.856 199.367 184.734 199.47 184.604C201.532 183.824 202.741 182.538 202.534 180.974C202.437 180.122 200.787 180.381 199.687 180.553C197.598 181.612 198.245 183.29 198.542 184.864ZM170.045 119.439C174.899 118.722 170.731 116.136 171.706 114.477C172.791 112.617 169.87 112.962 168.178 112.726C163.551 112.06 160.527 114.361 156.67 115.035C156.677 114.966 156.677 114.966 156.684 114.896C156.595 114.887 156.588 114.957 156.498 114.948C155.549 114.504 155.803 112.844 153.94 113.433C153.005 113.762 152.552 114.701 153.474 115.423C154.987 116.555 155.557 115.347 156.416 114.87C156.505 114.878 156.505 114.878 156.588 114.957C156.519 115.652 156.362 116.339 156.287 117.104C161.339 116.196 165.103 120.146 170.045 119.439ZM139.079 153.535C140.641 155.093 140.265 158.005 142.857 158.259C145.806 158.549 146.08 155.768 147.316 154.204C150.394 150.435 152.714 155.296 156.193 154.796C158.473 150.878 151.644 147.82 153.491 143.718C147.242 145.772 145.375 150.995 138.171 151.761C138.226 152.118 138.419 152.909 139.079 153.535ZM109.44 51.9813C107.474 51.7881 107 52.935 106.196 53.7687C106.211 54.5424 106.328 55.1858 107.607 55.0307C108.885 54.8755 110.343 54.7378 110.376 53.4774C110.52 52.9299 110.513 52.0867 109.44 51.9813ZM121.056 68.779C118.492 69.1589 115.893 68.9737 116.568 71.2867C116.699 71.791 117.889 72.5398 118.343 72.5142C121.436 72.2565 120.706 70.4998 121.056 68.779ZM115.248 81.9689C116.347 81.7962 118.383 82.2068 118.155 80.8505C117.927 79.4942 116.202 79.6054 114.992 79.978C112.187 80.9661 110.082 77.5999 107.229 79.0748C107.106 79.4137 106.982 79.7525 106.859 80.0914C105.705 81.7332 101.634 80.912 100.377 82.684C104.786 86.4873 107.176 82.3693 110.373 81.9814C112.174 82.018 113.783 82.1761 115.248 81.9689ZM109.881 143.926C109.882 144.839 109.766 146.021 111.677 145.858C113.409 145.677 113.457 144.278 113.648 143.243C113.82 142.418 113.709 141.705 111.812 141.729C109.928 141.614 109.901 142.805 109.881 143.926ZM116.139 101.364C116.523 99.2951 119.142 98.3589 119.684 96.5166C120.137 94.6654 120.142 92.7704 120.327 90.8929C117.296 93.263 114.436 92.982 110.536 90.4223C110.463 94.8382 111.091 98.5507 105.18 100.848C102.183 101.958 103.492 106.088 103.569 108.974C114.508 108.786 114.686 108.803 116.139 101.364ZM102.308 150.273C106.289 149.26 107.099 147.444 106.857 145.314C106.877 145.105 105.131 144.513 104.574 144.668C101.494 145.7 101.922 147.778 102.308 150.273ZM104.583 137.227C104.467 138.41 104.818 139.427 106.744 140.037C108.228 138.709 107.533 137.517 106.301 136.273C105.557 133.743 104.806 131.282 104.062 128.751C104 128.464 103.663 128.221 103.333 127.907C98.1916 129.719 99.0671 133.666 97.4946 136.812C99.9842 138.109 102.348 136.095 104.583 137.227ZM101.847 103.54C98.0046 104.988 99.4153 107.162 100.035 109.119C102.888 107.644 102.44 105.774 101.847 103.54ZM97.1598 129.196C93.4268 129.532 94.6036 131.332 93.9722 133.166C97.1479 132.074 97.0989 130.735 97.1598 129.196ZM79.9481 135.368C80.5943 135.221 81.2815 134.657 81.4187 134.179C81.6521 133.64 81.4523 132.918 80.1804 133.004C79.1835 133.046 78.7713 133.568 78.6962 134.333C78.8408 134.698 78.5663 135.654 79.9481 135.368ZM68.6854 122.326C69.0446 125.1 70.3591 127.335 75.1306 127.453C75.6054 128.131 76.1764 128.749 76.6512 129.428C76.0312 127.471 79.2201 125.327 75.6784 123.715C74.1304 122.019 72.493 120.313 69.5229 120.232C67.2746 120.152 68.5818 121.544 68.6854 122.326ZM57.1239 138.04C57.1477 143.308 55.0883 148.652 59.513 155.054C61.7107 151.058 62.4929 148.607 60.5112 145.815C58.7634 143.396 60.3364 141.164 61.4558 138.957C62.1356 137.549 61.358 136.279 59.2332 135.86C56.6684 135.327 57.1302 137.058 57.1239 138.04ZM-54.627 182.382C-60.9106 182.958 -58.9773 185.324 -57.2568 188.021C-52.7838 194.849 -48.1955 187.648 -43.6638 189.287C-47.6735 186.927 -55.1873 188.084 -54.627 182.382ZM-32.9057 186.342C-35.1744 186.47 -35.4626 187.565 -35.0972 189.356C-32.7254 189.098 -31.901 188.055 -31.2485 186.926C-31.331 186.848 -32.4519 186.316 -32.9057 186.342ZM-24.5641 189.619C-25.6976 191.052 -23.8941 194.74 -21.6664 195.029C-18.0085 195.458 -19.3445 191.606 -15.2545 190.393C-19.5864 189.476 -22.9084 187.465 -24.5641 189.619ZM-9.34692 170.684C-10.4264 170.648 -11.6156 170.812 -11.8764 171.629C-12.0273 172.246 -11.3532 172.733 -10.3768 172.899C-9.04969 173.17 -8.19751 172.763 -8.11551 171.928C-7.88891 171.459 -8.08872 170.737 -9.34692 170.684ZM7.35342 182.575C7.41437 181.037 7.75025 179.455 7.53621 177.959C7.36373 176.96 6.40107 176.654 5.49413 177.618C4.86845 177.557 3.68597 177.651 3.61025 177.503C2.32305 174.99 0.190387 172.815 -3.69355 173.767C-7.66686 174.71 -4.05572 177.452 -4.59091 179.225C-5.28381 181.684 -2.62966 182.226 -0.608561 181.863C5.19342 180.678 5.82767 183.408 6.32462 186.616C7.91192 185.158 7.49857 183.853 7.35342 182.575ZM11.2931 148.912C12.8558 152.295 9.46778 154.63 11.2639 157.474C11.5736 157.996 11.3129 158.813 12.5711 158.866C14.3656 158.972 14.2825 157.981 13.8009 157.372C13.0027 156.311 14.0337 155.921 14.7072 155.496C20.7006 152.364 16.1414 151.003 11.2931 148.912ZM17.5472 178.943C17.8758 176.518 16.3626 175.387 12.8493 175.322C10.5942 175.311 9.01315 175.788 10.0316 177.362C10.9744 178.789 8.53533 181.568 13.403 181.625C16.0225 181.602 18.5526 181.569 17.5472 178.943ZM26.7594 121.015C26.0591 122.631 24.8225 124.194 26.7621 125.578C27.0992 125.822 28.7422 125.632 29.1339 125.32C31.4084 123.297 27.4203 122.554 26.7594 121.015ZM43.1444 89.2761C40.5722 87.9 39.0003 91.958 34.6415 92.2317C37.9083 93.8867 39.7101 94.8361 41.6014 95.7942C42.0194 93.378 46.143 90.9047 43.1444 89.2761ZM37.6599 103.762C39.1988 101.877 39.4248 100.495 38.5783 99.0075C38.5025 98.8596 37.1549 98.7974 36.9625 98.9189C35.9252 100.291 35.6098 101.664 37.6599 103.762ZM29.3118 203.408C26.0861 201.336 22.5244 200.846 19.5411 201.816C18.1389 202.31 19.2541 204.737 21.0697 205.547C25.3817 207.585 26.6656 204.622 29.3118 203.408ZM17.8142 211.125C15.9986 210.314 13.6536 209.382 12.355 210.658C10.8571 212.126 13.2779 213.206 14.9078 214.068C20.4649 217.212 20.4649 217.212 20.7085 222.08C24.8925 217.156 23.7698 213.886 17.8142 211.125ZM0.593626 225.65C3.66055 226.583 6.59085 228.907 10.1924 227.155C15.1165 229.394 16.7032 227.023 18.8399 224.565C14.6799 223.735 11.1592 222.827 7.7 221.294C3.63562 219.49 5.56899 221.856 5.82402 222.935C5.19835 222.873 4.57267 222.812 3.95383 222.681C1.05938 222.747 0.242928 225.546 0.593626 225.65ZM-2.09538 235.566C-3.04037 230.488 -1.79865 226.117 -4.62014 221.768C-9.14972 223.78 -5.11782 228.67 -9.56484 230.76C-7.26766 232.179 -5.05981 233.59 -2.09538 235.566ZM-18.6393 232.185C-15.7118 229.945 -16.773 226.05 -12.154 224.047C-14.5674 223.809 -16.5338 223.616 -18.5002 223.423C-19.3473 221.023 -13.1515 223.176 -14.6863 220.428C-15.2232 219.462 -16.1244 218.531 -17.6849 218.799C-19.706 219.162 -21.9195 219.647 -23.6241 220.462C-24.5726 220.931 -24.1593 222.235 -22.8732 222.923C-22.1855 223.271 -21.4083 223.629 -20.6381 224.055C-26.5414 228.109 -26.3968 228.474 -18.6393 232.185ZM-29.6457 211.024C-25.4378 211.368 -21.5785 215.257 -17.8954 211.758C-15.6529 213.733 -17.5214 216.217 -14.3646 218.072C-13.1706 214.188 -5.3784 218.464 -4.32223 214.145C-2.52773 214.251 -0.870409 214.835 0.793712 215.349C2.54038 215.942 5.20982 219.083 6.41798 215.972C7.13877 214.147 12.6026 210.893 4.71585 209.416C2.76308 209.084 3.22306 208.076 2.85814 207.198C2.51373 206.111 4.2246 204.313 0.264402 204.205C-2.34823 204.158 -4.21841 203.904 -5.3998 205.824C-6.4713 207.544 -7.53597 209.195 -7.63792 211.151C-12.3069 209.99 -16.254 208.83 -17.2605 204.378C-17.9431 201.222 -23.54 200.321 -27.81 199.691C-30.0377 199.401 -30.4978 200.409 -29.6376 201.758C-29.0113 202.732 -29.0728 203.358 -30.7642 203.121C-33.3495 202.797 -36.3812 203.342 -38.3624 201.462C-39.6832 200.209 -37.8477 199.898 -36.9818 199.351C-35.7925 199.187 -34.5138 199.032 -33.3176 198.798C-33.2971 198.59 -33.2766 198.381 -33.3523 198.233C-35.4081 198.031 -37.464 197.829 -39.5198 197.627C-42.0966 199.972 -46.1404 197.96 -50.2993 198.955C-44.5202 205.35 -37.8888 211.338 -36.1104 218.954C-37.3646 214.268 -26.2669 216.13 -29.6457 211.024ZM-55.6293 230.235C-54.021 229.481 -52.1513 228.822 -53.5137 227.073C-53.8302 226.621 -54.9443 226.02 -55.7209 226.575C-57.5353 227.591 -57.3902 228.869 -55.6293 230.235ZM-61.9316 222.736C-57.7705 225.391 -52.2356 226.005 -47.0051 223.29C-52.0186 221.042 -53.3068 216.703 -59.324 214.567C-59.8102 217.678 -67.6265 219.157 -61.9316 222.736ZM-63.8179 196.012C-60.9582 195.38 -60.8956 196.58 -61.2179 198.022C-64.0743 204.131 -63.1798 205.131 -53.1068 206.402C-54.4908 203.036 -56.4589 200.105 -59.0732 197.321C-60.0296 196.033 -60.8004 194.694 -62.0455 193.588C-62.9535 192.727 -63.0372 190.823 -65.7318 191.611C-67.2166 192.027 -68.7424 192.86 -68.3086 193.956C-67.8128 195.338 -66.3064 196.539 -63.8179 196.012ZM-68.0412 204.092C-68.5718 202.144 -70.745 201.299 -72.224 199.819C-74.4496 203.181 -72.3794 204.157 -68.0412 204.092ZM-119.63 163.357C-122.153 164.232 -125.528 164.603 -125.162 167.307C-125.827 170.401 -123.192 173.889 -120.538 173.518C-116.331 172.949 -114.69 169.108 -113.853 166.101C-113.133 163.364 -119.78 166.712 -119.63 163.357ZM-125.253 177.408C-124.647 178.591 -123.828 180.356 -120.975 178.881C-119.546 178.109 -117.38 178.111 -115.448 177.739C-117.464 176.207 -119.829 175.483 -122.387 175.794C-123.576 175.958 -126.079 175.712 -125.253 177.408ZM-104.018 183.566C-104.5 182.045 -104.041 180.124 -107.369 180.008C-109.796 179.909 -110.647 181.23 -110.894 182.82C-110.288 184.003 -111.201 185.95 -107.736 185.588C-106.004 185.407 -103.267 186.027 -104.018 183.566ZM-86.0322 195.233C-85.2915 192.287 -90.7324 187.961 -97.0445 186.99C-94.9113 190.078 -91.2319 192.124 -92.6393 195.426C-93.2297 196.843 -90.995 197.062 -89.393 197.29C-86.9039 197.675 -86.3408 196.537 -86.0322 195.233ZM-94.5117 225.502C-92.8339 225.877 -91.9816 225.469 -92.4775 224.087C-93.414 221.678 -93.2095 218.679 -97.349 217.64C-99.8176 217.047 -100.366 218.959 -100.764 220.254C-100.412 223.096 -98.1354 224.724 -94.5117 225.502ZM-94.338 160.366C-93.2723 160.541 -91.849 160.751 -91.9116 159.551C-91.919 158.708 -91.8854 157.448 -93.8723 157.463C-94.8692 157.506 -95.6526 158.131 -96.4018 158.408C-96.4422 159.738 -95.4932 160.182 -94.338 160.366ZM-105.661 217.736C-104.905 218.302 -104.272 219.207 -102.931 218.426C-101.784 217.766 -102.252 217.018 -102.905 216.322C-104.886 214.442 -107.678 213.466 -111.102 213.41C-109.355 214.916 -107.505 216.291 -105.661 217.736ZM-122.021 200.543C-129.453 200.865 -128.666 206.63 -133.216 208.85C-133.69 209.085 -132.974 210.068 -132.012 210.373C-129.789 213.47 -127.485 214.82 -123.066 212.094C-119.891 210.09 -115.622 208.894 -110.914 206.9C-116.345 206.155 -120.031 206.004 -123.013 208.8C-124.408 210.137 -126.882 211.439 -130.038 210.497C-124.995 206.007 -121.265 200.196 -109.191 202.225C-112.513 199.301 -119.389 197.642 -112.936 194.415C-112.839 194.354 -113.548 193.301 -114.133 192.823C-117.359 189.838 -120.682 186.914 -124.334 183.676C-127.412 187.446 -130.091 190.833 -132.757 194.082C-131.773 196.004 -127.89 193.226 -128.115 195.521C-128.375 198.163 -133.016 197.637 -135.491 198.938C-129.995 202.708 -125.302 197.201 -120.056 198.91C-119.904 200.119 -121.12 200.561 -122.021 200.543ZM-151.773 150.65C-149.435 150.74 -150.467 150.217 -150.811 149.13C-151.886 145.373 -148.36 143.473 -142.708 144.731C-140.322 145.246 -138.879 144.335 -136.954 144.033C-139.615 143.56 -139.137 138.693 -143.906 141.313C-144.546 140.478 -145.179 139.573 -145.819 138.738C-146.074 137.66 -144.239 136.436 -146.406 135.521C-147.19 135.234 -147.877 135.798 -147.952 136.563C-150.13 138.525 -152.454 139.21 -155.281 136.755C-156.231 134.486 -154.025 133.158 -151.991 131.743C-154.948 130.61 -156.357 131.173 -157.236 132.772C-161.463 135.376 -158.517 140.299 -163.012 142.876C-163.204 142.998 -163.169 143.563 -163.08 143.571C-156.644 145.117 -156.91 147.828 -159.665 151.068C-159.775 151.268 -158.537 152.443 -157.829 151.67C-156.297 149.855 -153.932 150.578 -151.773 150.65ZM-169.551 221.357C-167.859 221.594 -165.666 222.231 -164.628 220.858C-163.488 219.355 -165.262 218.128 -166.597 217.014C-168.097 215.743 -169.754 215.159 -171.926 216.139C-174.098 217.119 -176.6 217.786 -179.583 218.757C-176.227 220.42 -172.851 220.963 -169.551 221.357ZM-198.466 225.396C-197.269 226.076 -197.055 227.571 -196.36 228.763C-192.613 228.288 -192.394 226.063 -191.474 224.96C-191.179 222.883 -199.786 224.143 -193.924 220.507C-192.866 219.839 -195.238 219.184 -196.18 218.67C-197.122 218.157 -198.635 217.938 -198.662 219.129C-198.674 221.093 -202.833 223.001 -198.466 225.396ZM-226.785 224.298C-226.359 224.551 -225.678 224.969 -224.887 225.187C-224.268 225.318 -223.519 225.041 -223.733 224.458C-223.926 223.667 -224.902 223.501 -225.796 223.413C-226.332 223.36 -227.047 223.29 -226.785 224.298Z" fill="#161654"/>
</svg>
