<svg width="1040" height="305" viewBox="0 0 1040 305" fill="none" xmlns="http://www.w3.org/2000/svg">
<path d="M380.898 147.274C416.963 121.428 453.091 95.5248 489.155 69.6794C512.316 95.9803 536.681 121.304 562.073 145.521C567.43 150.645 574.538 156.097 581.539 153.571C585.011 152.276 587.901 149.128 591.622 149.001C595.767 148.895 598.88 152.573 601.529 155.743C612.64 169.175 627.3 179.673 643.57 185.806C657.982 191.302 673.651 193.45 687.649 199.961C705.4 208.233 719.249 222.953 733.27 236.646C784.635 286.932 844.646 328.321 909.943 358.46C731.073 342.553 552.267 326.588 373.398 310.681C360.967 309.6 346.296 306.952 341.238 295.573C338.652 289.79 339.333 283.189 340.118 276.959C345.426 233.395 339.033 177.284 380.898 147.274Z" fill="#2B2F71"/>
<path opacity="0.2118" d="M488.222 75.1728C456.413 102.439 422.582 127.417 387.169 149.825C385.286 151.013 383.133 152.736 383.454 154.942C383.648 155.986 384.339 156.81 384.972 157.57C396.621 171.211 409.73 183.583 424.006 194.488C420.565 183.674 417.12 172.92 413.679 162.106C412.196 157.471 411.149 151.335 415.119 148.543C417.199 147.06 419.936 147.13 422.49 147.191C430.886 147.349 439.316 146.778 447.599 145.469C442.82 143.537 437.52 141.032 435.929 136.088C438.996 136.904 442.031 134.553 443.683 131.833C445.335 129.113 446.215 125.99 448.22 123.53C450.098 121.185 452.85 119.674 455.532 118.341C467.694 112.289 480.858 108.231 494.285 106.317C490.368 104.182 486.454 101.987 482.476 99.8496C481.527 99.3175 480.463 98.6581 480.333 97.5564C480.24 96.9434 480.512 96.3479 480.784 95.7523C483.745 89.8689 486.589 83.8582 488.222 75.1728Z" fill="#6E8BC1"/>
<path opacity="0.05" d="M487.572 76.0546C492.328 81.0286 494.473 88.373 493.116 95.1241C492.719 97.0526 492.077 99.0302 492.594 100.941C493.838 105.504 500.894 106.937 501.217 111.638C501.428 114.874 498.213 117.154 495.563 119.097C489.198 123.601 483.897 130.042 482.435 137.701C481.538 142.465 482.214 147.427 482.165 152.293C482.024 167.987 474.009 182.819 462.71 193.72C451.412 204.622 437.119 211.911 422.486 217.42C404.007 224.387 384.554 228.814 364.864 230.551C370.2 219.547 365.336 206.657 362.187 194.822C359.966 186.5 358.607 177.976 358.105 169.371C358.021 167.298 357.94 165.164 358.762 163.256C360.128 160.157 363.435 158.489 366.487 157.053C391.273 145.517 415.877 132.696 436.578 114.88C452.26 101.449 465.642 85.1702 487.572 76.0546Z" fill="#6E8BC1"/>
<path d="M531.398 280.375C511.22 268.092 494.496 248.549 478.187 229.209C420.384 160.722 363.293 91.3574 306.856 21.0499C303.984 17.4439 300.273 13.5544 296.26 14.7016C293.728 15.4326 291.842 17.9594 290.08 20.4312C273.118 44.0854 256.22 67.6818 239.259 91.336C235.804 96.1004 232.279 101.044 227.645 103.744C223.322 106.276 218.497 106.593 213.963 108.446C196.572 115.587 189.502 141.235 178.503 159.88C171.148 172.369 161.42 182.25 151.759 192.013C113.937 230.432 38.8814 299.92 0.998745 338.337C56.6606 334.362 114.314 353.516 190.5 342C276.5 329 363.508 330.352 442.772 338.337C463.68 340.431 485.016 342.485 505.643 336.411C526.213 330.273 546.267 314.556 531.398 280.375Z" fill="#2B2F71"/>
<path opacity="0.2" d="M297.203 14.0165C292.496 38.6212 279.772 62.7821 284.332 87.16C287.246 102.635 296.601 114.584 305.831 125.309C297.684 128.876 289.803 133.246 282.136 138.236C279.998 139.655 277.793 141.193 276.453 143.746C274.037 148.438 275.257 154.764 273.37 159.847C270.722 166.841 263.2 168.794 259.67 175.137C255.266 183.203 259.124 194.22 264.333 201.163C269.543 208.106 276.326 213.968 278.689 223.149C255.192 220.444 231.646 218.772 208.045 218.253C204.883 218.163 201.469 218.243 198.859 220.614C196.947 222.409 195.839 225.216 194.794 227.966C191.946 235.315 189.096 242.725 186.309 250.077C185.614 251.87 184.917 253.723 185.006 255.675C185.156 258.907 187.482 261.209 189.455 263.251C198.338 272.317 204.994 284.684 208.412 298.54C202.778 301.74 196.46 298.882 190.4 298.289C175.495 296.725 159.702 332.409 156.5 351C114.3 347.22 52.3471 334.684 9.99938 334C49.0643 303.977 104.98 257.268 135.764 214.496C146.718 199.318 157.04 183.38 168.969 169.466C180.444 156.139 193.681 144.174 200.731 126.618C202.667 121.782 204.198 116.499 207.357 112.816C215.994 102.822 231.025 110.66 240.564 102.17C242.98 100.034 244.829 97.0185 246.615 94.061C262.787 67.8131 278.78 41.4957 297.203 14.0165Z" fill="url(#paint0_linear)"/>
<path d="M678.528 258.041C693.634 249.818 706.481 236.202 719.017 222.718C763.448 174.972 807.392 126.564 850.894 77.4475C853.109 74.9275 855.944 72.2308 858.823 73.2034C860.639 73.8223 861.924 75.7233 863.12 77.5801C874.638 95.3521 886.111 113.08 897.629 130.852C899.976 134.433 902.368 138.146 905.647 140.268C908.703 142.258 912.203 142.656 915.437 144.159C927.84 149.95 932.093 168.827 939.446 182.753C944.363 192.081 951.097 199.597 957.786 207.024C983.966 236.246 1012.8 275.239 1039.03 304.461C998.673 299.642 958.495 308.307 917.962 310.429C860.019 313.479 798.931 300.172 740.989 303.223C725.706 304.019 710.113 304.77 695.317 299.642C680.566 294.469 666.523 282.356 678.528 258.041Z" fill="#2B2F71"/>
<defs>
<linearGradient id="paint0_linear" x1="228.811" y1="215.933" x2="136.537" y2="149.645" gradientUnits="userSpaceOnUse">
<stop stop-color="#6E8BC1"/>
<stop offset="0.2464" stop-color="#6887BE" stop-opacity="0.7585"/>
<stop offset="0.5689" stop-color="#587BB5" stop-opacity="0.4423"/>
<stop offset="0.9323" stop-color="#3D67A6" stop-opacity="0.0860165"/>
<stop offset="1" stop-color="#3763A3" stop-opacity="0.0196078"/>
</linearGradient>
</defs>
</svg>
