<svg width="1440" height="1155" viewBox="0 0 1440 1155" fill="none" xmlns="http://www.w3.org/2000/svg">
<g opacity="0.5">
<path d="M136.796 207.309L135.831 208.824L136.353 210.544L134.837 209.578L133.118 210.101L134.083 208.585L133.561 206.865L135.077 207.831L136.796 207.309Z" fill="#ECCF9C"/>
<path d="M326.152 229.559L325.186 231.075L325.708 232.795L324.193 231.829L322.473 232.351L323.439 230.835L322.916 229.116L324.432 230.081L326.152 229.559Z" fill="#ECCF9C"/>
<path d="M430.341 136.723L429.376 138.238L429.898 139.958L428.382 138.992L426.662 139.514L427.628 137.999L427.106 136.279L428.622 137.245L430.341 136.723Z" fill="#ECCF9C"/>
<path d="M342.759 63.3279L341.794 64.8435L342.316 66.5631L340.8 65.5975L339.08 66.1196L340.046 64.6039L339.524 62.8844L341.04 63.8499L342.759 63.3279Z" fill="#ECCF9C"/>
<path d="M246.975 81.3032L245.406 83.7661L246.255 86.5604L243.792 84.9913L240.997 85.8397L242.566 83.3768L241.718 80.5825L244.181 82.1515L246.975 81.3032Z" fill="#ECCF9C"/>
<path d="M208.497 136.592L207.652 137.918L208.109 139.423L206.783 138.578L205.278 139.035L206.123 137.709L205.666 136.204L206.992 137.049L208.497 136.592Z" fill="#ECCF9C"/>
<path opacity="0.4" d="M291.27 73.7789L290.425 75.1051L290.882 76.6097L289.556 75.7648L288.051 76.2216L288.896 74.8954L288.439 73.3908L289.766 74.2357L291.27 73.7789Z" fill="#ECCF9C"/>
<path d="M267.602 237.395L266.033 239.858L266.882 242.652L264.419 241.083L261.624 241.931L263.193 239.469L262.345 236.674L264.808 238.243L267.602 237.395Z" fill="#ECCF9C"/>
<path d="M50.4362 237.7L48.8672 240.163L49.7155 242.957L47.2526 241.388L44.4583 242.236L46.0273 239.773L45.179 236.979L47.6419 238.548L50.4362 237.7Z" fill="#ECCF9C"/>
<path d="M64.3666 373.51L62.3147 376.73L63.4241 380.385L60.2034 378.333L56.5493 379.442L58.6011 376.221L57.4917 372.567L60.7125 374.619L64.3666 373.51Z" fill="#ECCF9C"/>
<path d="M214.848 279.603L213.761 281.308L214.349 283.243L212.644 282.156L210.709 282.744L211.795 281.039L211.208 279.104L212.913 280.19L214.848 279.603Z" fill="#ECCF9C"/>
</g>
<path d="M581.121 790.845C580.628 791.566 580.692 792.468 581.263 792.859C581.835 793.25 582.698 792.982 583.191 792.261C583.684 791.54 583.621 790.639 583.049 790.248C582.477 789.857 581.614 790.124 581.121 790.845Z" fill="#EACA91"/>
<path d="M386.136 956.942C385.91 957.272 385.939 957.685 386.201 957.864C386.463 958.043 386.859 957.921 387.085 957.59C387.311 957.26 387.282 956.847 387.02 956.668C386.758 956.489 386.362 956.611 386.136 956.942Z" fill="#EACA91"/>
<path d="M695.136 422.566C694.91 422.896 694.939 423.309 695.201 423.489C695.463 423.668 695.859 423.545 696.085 423.215C696.311 422.884 696.282 422.471 696.02 422.292C695.758 422.113 695.362 422.235 695.136 422.566Z" fill="#EACA91"/>
<path d="M684.794 373.213C684.568 373.543 684.598 373.956 684.86 374.136C685.122 374.315 685.517 374.192 685.743 373.862C685.969 373.531 685.94 373.118 685.678 372.939C685.416 372.76 685.02 372.882 684.794 373.213Z" fill="#EACA91"/>
<path d="M356.085 894.815C355.859 895.145 355.889 895.559 356.151 895.738C356.413 895.917 356.808 895.794 357.034 895.464C357.26 895.134 357.231 894.72 356.969 894.541C356.707 894.362 356.311 894.485 356.085 894.815Z" fill="#EACA91"/>
<path d="M416.826 956.937C416.497 957.417 416.539 958.018 416.92 958.279C417.301 958.539 417.877 958.361 418.206 957.88C418.534 957.4 418.492 956.799 418.111 956.538C417.73 956.278 417.154 956.456 416.826 956.937Z" fill="#EACA91"/>
<path opacity="0.54" d="M663.32 520.258C662.888 520.889 662.944 521.678 663.444 522.02C663.944 522.362 664.699 522.128 665.131 521.497C665.562 520.866 665.507 520.078 665.006 519.736C664.506 519.393 663.751 519.627 663.32 520.258Z" fill="#EACA91"/>
<path d="M438.425 1104.01C437.994 1104.64 438.049 1105.42 438.55 1105.77C439.05 1106.11 439.805 1105.88 440.236 1105.24C440.668 1104.61 440.612 1103.82 440.112 1103.48C439.612 1103.14 438.857 1103.37 438.425 1104.01Z" fill="#EACA91"/>
<path d="M413.014 923.854C412.726 924.274 412.763 924.8 413.097 925.028C413.43 925.256 413.934 925.1 414.221 924.679C414.509 924.259 414.472 923.733 414.138 923.505C413.805 923.277 413.301 923.433 413.014 923.854Z" fill="#EACA91"/>
<path d="M597.783 809.004C597.454 809.485 597.496 810.086 597.877 810.346C598.258 810.607 598.834 810.429 599.163 809.948C599.491 809.467 599.449 808.867 599.068 808.606C598.687 808.345 598.111 808.524 597.783 809.004Z" fill="#EACA91"/>
<path d="M618.891 283.604C618.398 284.325 618.461 285.226 619.033 285.617C619.605 286.008 620.468 285.741 620.961 285.02C621.454 284.299 621.39 283.397 620.818 283.006C620.247 282.615 619.384 282.883 618.891 283.604Z" fill="#EACA91"/>
<path d="M644.828 576.807C644.602 577.137 644.631 577.55 644.893 577.729C645.155 577.908 645.55 577.786 645.776 577.455C646.002 577.125 645.973 576.712 645.711 576.533C645.449 576.354 645.054 576.476 644.828 576.807Z" fill="#EACA91"/>
<path d="M651.359 358.295C651.133 358.626 651.162 359.039 651.424 359.218C651.686 359.397 652.082 359.275 652.308 358.944C652.534 358.614 652.504 358.201 652.242 358.021C651.98 357.842 651.585 357.965 651.359 358.295Z" fill="#EACA91"/>
<path d="M583.361 727.152C583.135 727.483 583.164 727.896 583.426 728.075C583.688 728.254 584.084 728.132 584.31 727.801C584.536 727.471 584.506 727.058 584.244 726.879C583.982 726.699 583.587 726.822 583.361 727.152Z" fill="#EACA91"/>
<path d="M555.419 730.878C555.193 731.209 555.223 731.622 555.485 731.801C555.747 731.98 556.142 731.858 556.368 731.527C556.594 731.197 556.565 730.784 556.303 730.604C556.041 730.425 555.645 730.548 555.419 730.878Z" fill="#EACA91"/>
<path d="M443.829 1038.53C443.501 1039.01 443.543 1039.61 443.924 1039.87C444.305 1040.13 444.881 1039.96 445.209 1039.48C445.538 1038.99 445.496 1038.39 445.115 1038.13C444.734 1037.87 444.158 1038.05 443.829 1038.53Z" fill="#EACA91"/>
<path d="M441.22 1106.8C440.789 1107.43 440.844 1108.22 441.344 1108.56C441.845 1108.9 442.6 1108.67 443.031 1108.04C443.463 1107.41 443.407 1106.62 442.907 1106.28C442.407 1105.93 441.651 1106.17 441.22 1106.8Z" fill="#EACA91"/>
<path d="M464.507 872.072C464.076 872.703 464.131 873.492 464.632 873.834C465.132 874.176 465.887 873.942 466.318 873.311C466.75 872.68 466.694 871.892 466.194 871.55C465.694 871.207 464.939 871.441 464.507 872.072Z" fill="#EACA91"/>
<path d="M569.5 817.667C569.213 818.088 569.25 818.614 569.583 818.842C569.917 819.07 570.42 818.914 570.708 818.493C570.995 818.073 570.958 817.547 570.625 817.319C570.291 817.091 569.788 817.247 569.5 817.667Z" fill="#EACA91"/>
<path d="M611.49 766.546C611.161 767.026 611.203 767.627 611.584 767.888C611.966 768.149 612.541 767.97 612.87 767.49C613.198 767.009 613.156 766.408 612.775 766.147C612.394 765.887 611.818 766.065 611.49 766.546Z" fill="#EACA91"/>
<path d="M430.154 884.345C429.661 885.065 429.725 885.967 430.297 886.358C430.868 886.749 431.731 886.481 432.224 885.76C432.717 885.039 432.654 884.138 432.082 883.747C431.511 883.356 430.647 883.624 430.154 884.345Z" fill="#EACA91"/>
<path d="M445.507 901.335C445.281 901.666 445.31 902.079 445.572 902.258C445.834 902.437 446.23 902.314 446.456 901.984C446.682 901.654 446.653 901.24 446.391 901.061C446.129 900.882 445.733 901.005 445.507 901.335Z" fill="#EACA91"/>
<path d="M401.726 963.743C401.5 964.073 401.529 964.486 401.791 964.666C402.053 964.845 402.449 964.722 402.675 964.392C402.901 964.061 402.872 963.648 402.61 963.469C402.348 963.29 401.952 963.412 401.726 963.743Z" fill="#EACA91"/>
<path d="M534.074 850.353C533.848 850.684 533.877 851.097 534.139 851.276C534.401 851.455 534.796 851.333 535.022 851.002C535.248 850.672 535.219 850.259 534.957 850.08C534.695 849.9 534.3 850.023 534.074 850.353Z" fill="#EACA91"/>
<path d="M402.658 968.401C402.432 968.731 402.461 969.144 402.723 969.323C402.985 969.502 403.38 969.38 403.606 969.049C403.832 968.719 403.803 968.306 403.541 968.127C403.279 967.948 402.884 968.07 402.658 968.401Z" fill="#EACA91"/>
<path d="M436.191 882.706C435.965 883.036 435.994 883.449 436.256 883.629C436.518 883.808 436.914 883.685 437.14 883.355C437.366 883.024 437.336 882.611 437.074 882.432C436.812 882.253 436.417 882.376 436.191 882.706Z" fill="#EACA91"/>
<path d="M399.119 877.389C398.79 877.87 398.832 878.471 399.213 878.731C399.594 878.992 400.17 878.814 400.499 878.333C400.827 877.853 400.785 877.252 400.404 876.991C400.023 876.73 399.447 876.909 399.119 877.389Z" fill="#EACA91"/>
<path d="M457.988 1082.58C457.556 1083.21 457.612 1084 458.112 1084.34C458.612 1084.69 459.367 1084.45 459.799 1083.82C460.23 1083.19 460.175 1082.4 459.674 1082.06C459.174 1081.72 458.419 1081.95 457.988 1082.58Z" fill="#EACA91"/>
<path d="M464.507 1050.91C464.076 1051.54 464.131 1052.33 464.632 1052.67C465.132 1053.02 465.887 1052.78 466.318 1052.15C466.75 1051.52 466.694 1050.73 466.194 1050.39C465.694 1050.05 464.939 1050.28 464.507 1050.91Z" fill="#EACA91"/>
<path d="M471.027 1104.01C470.595 1104.64 470.651 1105.42 471.151 1105.77C471.651 1106.11 472.407 1105.88 472.838 1105.24C473.269 1104.61 473.214 1103.82 472.713 1103.48C472.213 1103.14 471.458 1103.37 471.027 1104.01Z" fill="#EACA91"/>
<path d="M612.348 794.381C612.06 794.801 612.097 795.327 612.431 795.555C612.764 795.783 613.268 795.627 613.555 795.207C613.843 794.786 613.806 794.26 613.472 794.032C613.139 793.804 612.635 793.96 612.348 794.381Z" fill="#EACA91"/>
<path d="M509.286 846.554C508.958 847.035 509 847.636 509.381 847.896C509.762 848.157 510.338 847.979 510.667 847.498C510.995 847.018 510.953 846.417 510.572 846.156C510.191 845.895 509.615 846.074 509.286 846.554Z" fill="#EACA91"/>
<path d="M388.238 1007.3C387.745 1008.02 387.809 1008.92 388.381 1009.31C388.952 1009.7 389.815 1009.43 390.308 1008.71C390.801 1007.99 390.738 1007.09 390.166 1006.7C389.594 1006.31 388.731 1006.58 388.238 1007.3Z" fill="#EACA91"/>
<path d="M420.742 997.343C420.516 997.673 420.545 998.086 420.807 998.266C421.069 998.445 421.464 998.322 421.69 997.992C421.916 997.661 421.887 997.248 421.625 997.069C421.363 996.89 420.968 997.012 420.742 997.343Z" fill="#EACA91"/>
<path d="M411.04 1017.77C410.814 1018.1 410.844 1018.51 411.106 1018.69C411.368 1018.87 411.763 1018.75 411.989 1018.42C412.215 1018.09 412.186 1017.67 411.924 1017.49C411.662 1017.31 411.266 1017.44 411.04 1017.77Z" fill="#EACA91"/>
<path d="M357.017 979.578C356.791 979.908 356.82 980.321 357.082 980.501C357.344 980.68 357.74 980.557 357.966 980.227C358.192 979.896 358.163 979.483 357.901 979.304C357.639 979.125 357.243 979.247 357.017 979.578Z" fill="#EACA91"/>
<path d="M426.13 1033.87C425.802 1034.35 425.844 1034.96 426.225 1035.22C426.606 1035.48 427.182 1035.3 427.51 1034.82C427.839 1034.34 427.797 1033.74 427.415 1033.48C427.034 1033.22 426.459 1033.39 426.13 1033.87Z" fill="#EACA91"/>
<path d="M360.183 987.573C359.751 988.204 359.807 988.993 360.307 989.335C360.808 989.677 361.563 989.443 361.994 988.812C362.426 988.181 362.37 987.393 361.87 987.05C361.37 986.708 360.614 986.942 360.183 987.573Z" fill="#EACA91"/>
<path d="M415.14 1007.13C414.708 1007.76 414.764 1008.55 415.264 1008.9C415.765 1009.24 416.52 1009 416.951 1008.37C417.383 1007.74 417.327 1006.95 416.827 1006.61C416.327 1006.27 415.571 1006.5 415.14 1007.13Z" fill="#EACA91"/>
<path d="M417.477 983.054C417.189 983.475 417.226 984.001 417.56 984.229C417.893 984.457 418.397 984.301 418.684 983.88C418.972 983.46 418.935 982.934 418.601 982.706C418.268 982.478 417.764 982.634 417.477 983.054Z" fill="#EACA91"/>
<path d="M385.146 944.454C384.817 944.935 384.86 945.536 385.241 945.796C385.622 946.057 386.197 945.879 386.526 945.398C386.855 944.917 386.812 944.317 386.431 944.056C386.05 943.795 385.475 943.974 385.146 944.454Z" fill="#EACA91"/>
<path d="M352.844 959.793C352.351 960.514 352.414 961.415 352.986 961.806C353.558 962.197 354.421 961.93 354.914 961.209C355.407 960.488 355.343 959.586 354.772 959.195C354.2 958.804 353.337 959.072 352.844 959.793Z" fill="#EACA91"/>
<path d="M431.533 913.444C431.307 913.774 431.336 914.188 431.598 914.367C431.86 914.546 432.255 914.423 432.481 914.093C432.707 913.762 432.678 913.349 432.416 913.17C432.154 912.991 431.759 913.114 431.533 913.444Z" fill="#EACA91"/>
<path d="M458.546 891.089C458.32 891.419 458.35 891.833 458.612 892.012C458.874 892.191 459.269 892.068 459.495 891.738C459.721 891.408 459.692 890.994 459.43 890.815C459.168 890.636 458.772 890.759 458.546 891.089Z" fill="#EACA91"/>
<path d="M603.853 744.85C603.627 745.181 603.656 745.594 603.918 745.773C604.18 745.952 604.576 745.83 604.802 745.499C605.028 745.169 604.999 744.756 604.737 744.576C604.475 744.397 604.079 744.52 603.853 744.85Z" fill="#EACA91"/>
<path d="M434.515 1039.46C434.186 1039.94 434.229 1040.54 434.61 1040.81C434.991 1041.07 435.566 1040.89 435.895 1040.41C436.224 1039.93 436.181 1039.33 435.8 1039.06C435.419 1038.8 434.844 1038.98 434.515 1039.46Z" fill="#EACA91"/>
<path d="M398.372 1022.04C397.941 1022.67 397.997 1023.46 398.497 1023.8C398.997 1024.14 399.752 1023.91 400.184 1023.28C400.615 1022.65 400.559 1021.86 400.059 1021.51C399.559 1021.17 398.804 1021.41 398.372 1022.04Z" fill="#EACA91"/>
<path d="M386.265 917.714C385.833 918.345 385.889 919.133 386.389 919.475C386.89 919.818 387.645 919.584 388.076 918.953C388.508 918.322 388.452 917.533 387.952 917.191C387.452 916.849 386.696 917.083 386.265 917.714Z" fill="#EACA91"/>
<path d="M374.156 1107.73C373.724 1108.36 373.78 1109.15 374.28 1109.49C374.78 1109.84 375.535 1109.6 375.967 1108.97C376.398 1108.34 376.343 1107.55 375.842 1107.21C375.342 1106.87 374.587 1107.1 374.156 1107.73Z" fill="#EACA91"/>
<path d="M476.429 855.034C476.1 855.515 476.143 856.116 476.524 856.376C476.905 856.637 477.48 856.459 477.809 855.978C478.138 855.498 478.095 854.897 477.714 854.636C477.333 854.375 476.758 854.554 476.429 855.034Z" fill="#EACA91"/>
<path d="M715.148 585.723C714.922 586.054 714.951 586.467 715.213 586.646C715.475 586.825 715.871 586.703 716.097 586.372C716.323 586.042 716.293 585.629 716.031 585.449C715.769 585.27 715.374 585.393 715.148 585.723Z" fill="#EACA91"/>
<path d="M692.736 484.673C692.407 485.154 692.449 485.755 692.831 486.016C693.212 486.276 693.787 486.098 694.116 485.617C694.444 485.137 694.402 484.536 694.021 484.275C693.64 484.014 693.064 484.193 692.736 484.673Z" fill="#EACA91"/>
<path d="M698.971 601.569C698.683 601.989 698.72 602.515 699.054 602.743C699.387 602.971 699.891 602.815 700.178 602.395C700.466 601.974 700.429 601.448 700.095 601.22C699.762 600.992 699.259 601.148 698.971 601.569Z" fill="#EACA91"/>
<path opacity="0.3" d="M555.177 680.704C554.848 681.185 554.891 681.786 555.272 682.047C555.653 682.307 556.228 682.129 556.557 681.648C556.886 681.168 556.843 680.567 556.462 680.306C556.081 680.045 555.506 680.224 555.177 680.704Z" fill="#EACA91"/>
<path d="M623.361 668.658C623.159 668.954 623.185 669.323 623.42 669.484C623.654 669.644 624.008 669.534 624.21 669.239C624.412 668.943 624.386 668.574 624.152 668.413C623.917 668.253 623.564 668.363 623.361 668.658Z" fill="#EACA91"/>
<path d="M607.535 608.794C607.333 609.09 607.359 609.459 607.594 609.62C607.828 609.78 608.182 609.67 608.384 609.375C608.586 609.079 608.56 608.71 608.326 608.549C608.091 608.389 607.737 608.499 607.535 608.794Z" fill="#EACA91"/>
<path opacity="0.54" d="M590.247 591.377C589.953 591.806 589.991 592.342 590.332 592.575C590.672 592.808 591.185 592.648 591.479 592.22C591.772 591.791 591.734 591.254 591.394 591.022C591.054 590.789 590.54 590.948 590.247 591.377Z" fill="#EACA91"/>
<path opacity="0.54" d="M626.383 609.033C625.998 609.596 626.048 610.301 626.494 610.606C626.941 610.912 627.616 610.703 628.001 610.139C628.387 609.576 628.337 608.871 627.89 608.566C627.443 608.26 626.769 608.469 626.383 609.033Z" fill="#EACA91"/>
<path d="M678.427 500.891C678.17 501.267 678.203 501.737 678.501 501.941C678.799 502.145 679.25 502.006 679.507 501.629C679.764 501.253 679.731 500.783 679.433 500.579C679.134 500.375 678.684 500.515 678.427 500.891Z" fill="#EACA91"/>
<path d="M680.225 654.422C679.932 654.851 679.97 655.387 680.31 655.62C680.65 655.852 681.164 655.693 681.457 655.264C681.75 654.835 681.713 654.299 681.372 654.066C681.032 653.834 680.519 653.993 680.225 654.422Z" fill="#EACA91"/>
<path opacity="0.54" d="M595.415 766.498C595.189 766.828 595.219 767.241 595.481 767.421C595.743 767.6 596.138 767.477 596.364 767.147C596.59 766.816 596.561 766.403 596.299 766.224C596.037 766.045 595.641 766.168 595.415 766.498Z" fill="#EACA91"/>
<path d="M578.208 660.17C577.982 660.5 578.012 660.913 578.274 661.093C578.536 661.272 578.931 661.149 579.157 660.819C579.383 660.488 579.354 660.075 579.092 659.896C578.83 659.717 578.434 659.839 578.208 660.17Z" fill="#EACA91"/>
<path d="M733.16 232.87C732.831 233.351 732.873 233.952 733.254 234.212C733.635 234.473 734.211 234.295 734.54 233.814C734.868 233.333 734.826 232.733 734.445 232.472C734.064 232.211 733.488 232.39 733.16 232.87Z" fill="#EACA91"/>
<path opacity="0.54" d="M613.54 805.939C613.109 806.57 613.165 807.358 613.665 807.701C614.165 808.043 614.92 807.809 615.352 807.178C615.783 806.547 615.727 805.758 615.227 805.416C614.727 805.074 613.972 805.308 613.54 805.939Z" fill="#EACA91"/>
<path opacity="0.3" d="M639.435 778.655C639.106 779.135 639.149 779.736 639.53 779.997C639.911 780.258 640.486 780.079 640.815 779.599C641.144 779.118 641.101 778.517 640.72 778.257C640.339 777.996 639.764 778.174 639.435 778.655Z" fill="#EACA91"/>
<path opacity="0.54" d="M646.252 757.666C645.759 758.387 645.823 759.289 646.394 759.68C646.966 760.071 647.829 759.803 648.322 759.082C648.815 758.361 648.751 757.46 648.18 757.069C647.608 756.678 646.745 756.945 646.252 757.666Z" fill="#EACA91"/>
<path d="M702.371 679.327C701.878 680.048 701.942 680.949 702.513 681.34C703.085 681.731 703.948 681.463 704.441 680.743C704.934 680.022 704.871 679.12 704.299 678.729C703.727 678.338 702.864 678.606 702.371 679.327Z" fill="#EACA91"/>
<path d="M607.58 789.56C607.354 789.891 607.383 790.304 607.645 790.483C607.907 790.662 608.302 790.54 608.528 790.209C608.754 789.879 608.725 789.466 608.463 789.286C608.201 789.107 607.806 789.23 607.58 789.56Z" fill="#EACA91"/>
<path d="M583.679 644.118C583.453 644.448 583.482 644.861 583.744 645.04C584.006 645.219 584.402 645.097 584.628 644.766C584.854 644.436 584.825 644.023 584.563 643.844C584.301 643.665 583.905 643.787 583.679 644.118Z" fill="#EACA91"/>
<path opacity="0.3" d="M671.24 782.78C670.808 783.411 670.864 784.2 671.364 784.542C671.864 784.884 672.619 784.65 673.051 784.019C673.482 783.389 673.427 782.6 672.926 782.258C672.426 781.916 671.671 782.15 671.24 782.78Z" fill="#EACA91"/>
<path d="M646.172 790.925C645.884 791.346 645.922 791.871 646.255 792.099C646.588 792.327 647.092 792.171 647.38 791.751C647.667 791.33 647.63 790.805 647.297 790.577C646.963 790.348 646.46 790.505 646.172 790.925Z" fill="#EACA91"/>
<path opacity="0.3" d="M586.962 687.626C586.634 688.106 586.676 688.707 587.057 688.968C587.438 689.229 588.014 689.05 588.342 688.57C588.671 688.089 588.629 687.488 588.247 687.228C587.866 686.967 587.291 687.145 586.962 687.626Z" fill="#EACA91"/>
<path d="M463.686 1061.32C463.192 1062.04 463.256 1062.94 463.828 1063.33C464.399 1063.73 465.263 1063.46 465.756 1062.74C466.249 1062.02 466.185 1061.12 465.613 1060.72C465.042 1060.33 464.179 1060.6 463.686 1061.32Z" fill="#EACA91"/>
<path d="M461.822 1072.5C461.329 1073.22 461.393 1074.12 461.965 1074.51C462.536 1074.9 463.399 1074.64 463.892 1073.91C464.385 1073.19 464.322 1072.29 463.75 1071.9C463.178 1071.51 462.315 1071.78 461.822 1072.5Z" fill="#EACA91"/>
<path d="M450.164 1054.09C449.938 1054.42 449.967 1054.84 450.229 1055.02C450.491 1055.2 450.886 1055.07 451.112 1054.74C451.338 1054.41 451.309 1054 451.047 1053.82C450.785 1053.64 450.389 1053.76 450.164 1054.09Z" fill="#EACA91"/>
<path d="M339.32 971.194C339.094 971.525 339.123 971.938 339.385 972.117C339.647 972.296 340.043 972.174 340.269 971.843C340.495 971.513 340.465 971.1 340.203 970.921C339.941 970.741 339.546 970.864 339.32 971.194Z" fill="#EACA91"/>
<path d="M409.365 1031.08C409.036 1031.56 409.078 1032.16 409.459 1032.42C409.841 1032.68 410.416 1032.5 410.745 1032.02C411.073 1031.54 411.031 1030.94 410.65 1030.68C410.269 1030.42 409.693 1030.6 409.365 1031.08Z" fill="#EACA91"/>
<path d="M452.398 1063.95C451.966 1064.58 452.022 1065.37 452.522 1065.71C453.022 1066.06 453.778 1065.82 454.209 1065.19C454.64 1064.56 454.585 1063.77 454.085 1063.43C453.584 1063.09 452.829 1063.32 452.398 1063.95Z" fill="#EACA91"/>
<path d="M356.195 966.7C355.908 967.121 355.945 967.647 356.278 967.875C356.612 968.103 357.115 967.947 357.403 967.526C357.691 967.106 357.654 966.58 357.32 966.352C356.987 966.124 356.483 966.28 356.195 966.7Z" fill="#EACA91"/>
<path d="M340.435 988.232C340.106 988.713 340.149 989.314 340.53 989.575C340.911 989.835 341.486 989.657 341.815 989.176C342.144 988.696 342.101 988.095 341.72 987.834C341.339 987.574 340.764 987.752 340.435 988.232Z" fill="#EACA91"/>
<path d="M692.878 741.744C692.652 742.074 692.682 742.488 692.944 742.667C693.206 742.846 693.601 742.723 693.827 742.393C694.053 742.063 694.024 741.649 693.762 741.47C693.5 741.291 693.104 741.414 692.878 741.744Z" fill="#EACA91"/>
<path d="M599.12 731.907C598.792 732.387 598.834 732.988 599.215 733.249C599.596 733.509 600.172 733.331 600.501 732.85C600.829 732.37 600.787 731.769 600.406 731.508C600.025 731.248 599.449 731.426 599.12 731.907Z" fill="#EACA91"/>
<path d="M551.604 835.059C551.299 835.502 551.39 836.093 551.805 836.379C552.221 836.664 552.805 836.537 553.109 836.094C553.413 835.651 553.323 835.06 552.907 834.775C552.492 834.489 551.908 834.617 551.604 835.059Z" fill="#EACA91"/>
<path d="M425.157 932.711C425.018 932.914 425.059 933.185 425.25 933.316C425.44 933.446 425.708 933.388 425.847 933.185C425.987 932.982 425.945 932.711 425.755 932.58C425.564 932.449 425.297 932.508 425.157 932.711Z" fill="#EACA91"/>
<path d="M573.044 602.583C572.904 602.786 572.946 603.056 573.136 603.187C573.327 603.318 573.594 603.26 573.734 603.057C573.873 602.854 573.832 602.583 573.641 602.452C573.451 602.321 573.183 602.379 573.044 602.583Z" fill="#EACA91"/>
<path d="M601.944 568.611C601.805 568.814 601.846 569.085 602.037 569.216C602.227 569.347 602.495 569.288 602.634 569.085C602.774 568.882 602.732 568.611 602.542 568.481C602.351 568.35 602.084 568.408 601.944 568.611Z" fill="#EACA91"/>
<path d="M496.577 857.326C496.437 857.529 496.479 857.799 496.669 857.93C496.86 858.061 497.127 858.003 497.267 857.8C497.406 857.597 497.365 857.326 497.175 857.195C496.984 857.064 496.716 857.123 496.577 857.326Z" fill="#EACA91"/>
<path d="M372.809 983.24C372.606 983.535 372.666 983.929 372.943 984.119C373.22 984.31 373.609 984.225 373.812 983.929C374.015 983.634 373.955 983.24 373.678 983.05C373.401 982.859 373.012 982.944 372.809 983.24Z" fill="#EACA91"/>
<path opacity="0.54" d="M594.621 663.239C594.354 663.626 594.433 664.143 594.797 664.393C595.161 664.643 595.671 664.531 595.938 664.144C596.204 663.756 596.125 663.239 595.761 662.989C595.398 662.739 594.887 662.851 594.621 663.239Z" fill="#EACA91"/>
<path d="M458.617 855.797C458.35 856.184 458.429 856.701 458.793 856.951C459.157 857.201 459.668 857.089 459.934 856.702C460.2 856.314 460.121 855.797 459.757 855.547C459.394 855.298 458.883 855.409 458.617 855.797Z" fill="#EACA91"/>
<path d="M388.597 994.35C388.42 994.609 388.472 994.953 388.715 995.12C388.957 995.286 389.298 995.212 389.475 994.954C389.653 994.695 389.6 994.351 389.358 994.184C389.115 994.018 388.775 994.092 388.597 994.35Z" fill="#EACA91"/>
<path d="M564.067 847.79C563.864 848.085 563.924 848.479 564.201 848.669C564.478 848.86 564.867 848.775 565.07 848.48C565.273 848.184 565.213 847.79 564.936 847.6C564.659 847.41 564.269 847.495 564.067 847.79Z" fill="#EACA91"/>
<path d="M621.803 590.606C621.499 591.049 621.589 591.639 622.005 591.925C622.42 592.21 623.004 592.083 623.308 591.64C623.613 591.197 623.522 590.606 623.107 590.321C622.691 590.035 622.107 590.163 621.803 590.606Z" fill="#EACA91"/>
<path d="M584.72 699.075C584.58 699.278 584.621 699.549 584.812 699.68C585.003 699.811 585.27 699.752 585.41 699.549C585.549 699.346 585.508 699.076 585.317 698.945C585.127 698.814 584.859 698.872 584.72 699.075Z" fill="#EACA91"/>
<path d="M726.649 444.69C726.51 444.893 726.551 445.163 726.742 445.294C726.932 445.425 727.2 445.367 727.339 445.164C727.479 444.961 727.437 444.69 727.247 444.559C727.056 444.428 726.789 444.487 726.649 444.69Z" fill="#EACA91"/>
<path d="M573.889 833.108C573.75 833.311 573.791 833.581 573.982 833.712C574.172 833.843 574.44 833.785 574.579 833.582C574.719 833.379 574.678 833.108 574.487 832.977C574.296 832.846 574.029 832.905 573.889 833.108Z" fill="#EACA91"/>
<path d="M618.598 701.772C618.459 701.975 618.5 702.246 618.691 702.377C618.881 702.507 619.149 702.449 619.288 702.246C619.428 702.043 619.387 701.772 619.196 701.641C619.005 701.51 618.738 701.569 618.598 701.772Z" fill="#EACA91"/>
<path d="M445.869 919.554C445.666 919.849 445.727 920.243 446.004 920.433C446.281 920.624 446.67 920.538 446.873 920.243C447.076 919.948 447.016 919.554 446.738 919.364C446.461 919.173 446.072 919.258 445.869 919.554Z" fill="#EACA91"/>
<path d="M510.779 849.276C510.512 849.664 510.591 850.181 510.955 850.431C511.319 850.681 511.83 850.569 512.096 850.182C512.362 849.794 512.283 849.277 511.919 849.027C511.556 848.777 511.045 848.889 510.779 849.276Z" fill="#EACA91"/>
<path d="M432.538 865.111C432.272 865.499 432.351 866.016 432.715 866.265C433.079 866.515 433.589 866.404 433.856 866.016C434.122 865.629 434.043 865.112 433.679 864.862C433.315 864.612 432.805 864.724 432.538 865.111Z" fill="#EACA91"/>
<path d="M506.671 833.818C506.494 834.076 506.547 834.421 506.789 834.587C507.032 834.754 507.372 834.68 507.55 834.421C507.727 834.163 507.675 833.818 507.432 833.652C507.189 833.485 506.849 833.559 506.671 833.818Z" fill="#EACA91"/>
<path d="M568.414 809.057C568.211 809.352 568.271 809.746 568.549 809.936C568.826 810.126 569.215 810.041 569.418 809.746C569.621 809.451 569.56 809.057 569.283 808.867C569.006 808.676 568.617 808.761 568.414 809.057Z" fill="#EACA91"/>
<path d="M420.496 1024.49C420.192 1024.93 420.282 1025.52 420.698 1025.81C421.114 1026.1 421.697 1025.97 422.002 1025.53C422.306 1025.08 422.216 1024.49 421.8 1024.21C421.384 1023.92 420.801 1024.05 420.496 1024.49Z" fill="#EACA91"/>
<path d="M411.815 910.418C411.676 910.621 411.717 910.892 411.908 911.023C412.098 911.154 412.366 911.096 412.505 910.892C412.645 910.689 412.603 910.419 412.413 910.288C412.222 910.157 411.955 910.215 411.815 910.418Z" fill="#EACA91"/>
<path d="M485.401 862.914C485.262 863.117 485.303 863.388 485.494 863.519C485.684 863.65 485.952 863.591 486.091 863.388C486.231 863.185 486.189 862.915 485.999 862.784C485.808 862.653 485.541 862.711 485.401 862.914Z" fill="#EACA91"/>
<path d="M522.089 871.28C521.949 871.483 521.991 871.753 522.181 871.884C522.372 872.015 522.639 871.957 522.779 871.754C522.918 871.551 522.877 871.28 522.686 871.149C522.496 871.018 522.228 871.077 522.089 871.28Z" fill="#EACA91"/>
<path d="M390.391 942.088C390.252 942.291 390.293 942.562 390.484 942.693C390.674 942.824 390.942 942.765 391.081 942.562C391.221 942.359 391.18 942.089 390.989 941.958C390.798 941.827 390.531 941.885 390.391 942.088Z" fill="#EACA91"/>
<path d="M535.7 864.777C535.561 864.98 535.602 865.251 535.792 865.382C535.983 865.513 536.251 865.454 536.39 865.251C536.53 865.048 536.488 864.777 536.298 864.647C536.107 864.516 535.84 864.574 535.7 864.777Z" fill="#EACA91"/>
<path d="M408.203 937.598C408 937.893 408.061 938.287 408.338 938.478C408.615 938.668 409.004 938.583 409.207 938.288C409.41 937.992 409.35 937.599 409.072 937.408C408.795 937.218 408.406 937.303 408.203 937.598Z" fill="#EACA91"/>
<path d="M424.154 894.918C423.887 895.306 423.966 895.822 424.33 896.072C424.694 896.322 425.205 896.211 425.471 895.823C425.737 895.436 425.658 894.919 425.294 894.669C424.931 894.419 424.42 894.531 424.154 894.918Z" fill="#EACA91"/>
<path d="M436.263 1096.11C435.997 1096.5 436.076 1097.02 436.44 1097.27C436.803 1097.52 437.314 1097.41 437.58 1097.02C437.847 1096.63 437.768 1096.11 437.404 1095.86C437.04 1095.61 436.529 1095.73 436.263 1096.11Z" fill="#EACA91"/>
<path d="M398.072 897.712C397.805 898.1 397.884 898.617 398.248 898.867C398.612 899.116 399.123 899.005 399.389 898.617C399.655 898.23 399.576 897.713 399.212 897.463C398.849 897.213 398.338 897.325 398.072 897.712Z" fill="#EACA91"/>
<path d="M539.709 832.069C539.531 832.327 539.584 832.672 539.826 832.838C540.069 833.005 540.409 832.931 540.587 832.672C540.764 832.414 540.712 832.069 540.469 831.903C540.227 831.736 539.886 831.81 539.709 832.069Z" fill="#EACA91"/>
<path d="M504.738 867.464C504.536 867.759 504.596 868.153 504.873 868.343C505.15 868.534 505.539 868.449 505.742 868.154C505.945 867.858 505.885 867.465 505.608 867.274C505.33 867.084 504.941 867.169 504.738 867.464Z" fill="#EACA91"/>
<path d="M470.795 1093.42C470.491 1093.86 470.581 1094.45 470.997 1094.74C471.413 1095.02 471.996 1094.9 472.301 1094.45C472.605 1094.01 472.515 1093.42 472.099 1093.13C471.683 1092.85 471.099 1092.98 470.795 1093.42Z" fill="#EACA91"/>
<path d="M359.655 993.318C359.516 993.521 359.557 993.792 359.748 993.923C359.938 994.054 360.206 993.995 360.345 993.792C360.485 993.589 360.443 993.319 360.253 993.188C360.062 993.057 359.795 993.115 359.655 993.318Z" fill="#EACA91"/>
<path d="M372.694 975.621C372.555 975.824 372.596 976.094 372.787 976.225C372.977 976.356 373.245 976.298 373.384 976.095C373.524 975.892 373.482 975.621 373.292 975.49C373.101 975.359 372.834 975.418 372.694 975.621Z" fill="#EACA91"/>
<path d="M374.557 944.883C374.418 945.086 374.459 945.357 374.65 945.487C374.84 945.618 375.108 945.56 375.247 945.357C375.387 945.154 375.346 944.883 375.155 944.752C374.964 944.621 374.697 944.68 374.557 944.883Z" fill="#EACA91"/>
<path d="M376.533 999.074C376.33 999.369 376.391 999.763 376.668 999.954C376.945 1000.14 377.334 1000.06 377.537 999.764C377.74 999.468 377.68 999.075 377.402 998.884C377.125 998.694 376.736 998.779 376.533 999.074Z" fill="#EACA91"/>
<path d="M363.609 964.777C363.343 965.165 363.422 965.682 363.785 965.932C364.149 966.181 364.66 966.07 364.926 965.682C365.192 965.295 365.113 964.778 364.75 964.528C364.386 964.278 363.875 964.39 363.609 964.777Z" fill="#EACA91"/>
<path d="M403.662 975.955C403.395 976.343 403.474 976.859 403.838 977.109C404.202 977.359 404.713 977.248 404.979 976.86C405.245 976.472 405.166 975.956 404.802 975.706C404.439 975.456 403.928 975.567 403.662 975.955Z" fill="#EACA91"/>
<path d="M374.627 1009.25C374.449 1009.51 374.502 1009.86 374.744 1010.02C374.987 1010.19 375.327 1010.12 375.505 1009.86C375.682 1009.6 375.63 1009.25 375.387 1009.09C375.145 1008.92 374.804 1009 374.627 1009.25Z" fill="#EACA91"/>
<path d="M383.986 973.925C383.784 974.221 383.844 974.614 384.121 974.805C384.398 974.995 384.787 974.91 384.99 974.615C385.193 974.319 385.133 973.926 384.856 973.735C384.578 973.545 384.189 973.63 383.986 973.925Z" fill="#EACA91"/>
<path d="M479.18 885.704C478.876 886.146 478.966 886.737 479.382 887.023C479.797 887.308 480.381 887.181 480.685 886.738C480.99 886.295 480.899 885.704 480.484 885.419C480.068 885.133 479.484 885.261 479.18 885.704Z" fill="#EACA91"/>
<path d="M497.509 856.394C497.369 856.597 497.411 856.868 497.601 856.999C497.792 857.13 498.059 857.071 498.199 856.868C498.338 856.665 498.297 856.394 498.106 856.263C497.916 856.133 497.648 856.191 497.509 856.394Z" fill="#EACA91"/>
<path d="M493.784 875.023C493.645 875.226 493.686 875.497 493.876 875.628C494.067 875.759 494.335 875.7 494.474 875.497C494.613 875.294 494.572 875.024 494.382 874.893C494.191 874.762 493.923 874.82 493.784 875.023Z" fill="#EACA91"/>
<path d="M586.929 771.631C586.789 771.834 586.83 772.105 587.021 772.236C587.212 772.367 587.479 772.308 587.619 772.105C587.758 771.902 587.717 771.632 587.526 771.501C587.336 771.37 587.068 771.428 586.929 771.631Z" fill="#EACA91"/>
<path d="M389.574 949.707C389.371 950.002 389.432 950.396 389.709 950.586C389.986 950.777 390.375 950.692 390.578 950.397C390.781 950.101 390.721 949.707 390.443 949.517C390.166 949.327 389.777 949.412 389.574 949.707Z" fill="#EACA91"/>
<path d="M478.179 1098.91C477.913 1099.29 477.992 1099.81 478.356 1100.06C478.719 1100.31 479.23 1100.2 479.496 1099.81C479.763 1099.42 479.684 1098.91 479.32 1098.66C478.956 1098.41 478.445 1098.52 478.179 1098.91Z" fill="#EACA91"/>
<path d="M455.824 1072.83C455.557 1073.21 455.636 1073.73 456 1073.98C456.364 1074.23 456.875 1074.12 457.141 1073.73C457.407 1073.34 457.328 1072.83 456.964 1072.58C456.601 1072.33 456.09 1072.44 455.824 1072.83Z" fill="#EACA91"/>
<path d="M358.951 942.422C358.684 942.81 358.763 943.327 359.127 943.577C359.491 943.826 360.002 943.715 360.268 943.327C360.534 942.94 360.455 942.423 360.091 942.173C359.728 941.923 359.217 942.035 358.951 942.422Z" fill="#EACA91"/>
<path d="M459.436 876.122C459.233 876.417 459.293 876.811 459.57 877.001C459.847 877.191 460.236 877.106 460.439 876.811C460.642 876.516 460.582 876.122 460.305 875.932C460.028 875.741 459.639 875.826 459.436 876.122Z" fill="#EACA91"/>
<path d="M633.852 708.688C633.713 708.891 633.754 709.162 633.945 709.293C634.135 709.424 634.403 709.365 634.542 709.162C634.682 708.959 634.64 708.689 634.45 708.558C634.259 708.427 633.992 708.485 633.852 708.688Z" fill="#EACA91"/>
<path d="M613.156 641.649C612.953 641.944 613.014 642.338 613.291 642.529C613.568 642.719 613.957 642.634 614.16 642.339C614.363 642.043 614.303 641.65 614.026 641.459C613.748 641.269 613.359 641.354 613.156 641.649Z" fill="#EACA91"/>
<path d="M637.879 743.453C637.701 743.712 637.754 744.056 637.996 744.223C638.239 744.389 638.579 744.315 638.757 744.056C638.934 743.798 638.882 743.454 638.639 743.287C638.397 743.12 638.056 743.195 637.879 743.453Z" fill="#EACA91"/>
<path opacity="0.3" d="M573.072 751.306C572.869 751.602 572.93 751.995 573.207 752.186C573.484 752.376 573.873 752.291 574.076 751.996C574.279 751.701 574.219 751.307 573.942 751.116C573.664 750.926 573.275 751.011 573.072 751.306Z" fill="#EACA91"/>
<path d="M574.573 757.749C574.448 757.93 574.485 758.173 574.656 758.29C574.826 758.407 575.065 758.354 575.19 758.173C575.315 757.991 575.278 757.749 575.107 757.632C574.937 757.515 574.698 757.567 574.573 757.749Z" fill="#EACA91"/>
<path d="M600.876 731.54C600.751 731.722 600.788 731.964 600.958 732.081C601.129 732.198 601.368 732.146 601.493 731.964C601.618 731.782 601.581 731.54 601.41 731.423C601.24 731.306 601 731.358 600.876 731.54Z" fill="#EACA91"/>
<path opacity="0.54" d="M547.689 705.614C547.507 705.878 547.561 706.229 547.809 706.399C548.056 706.569 548.403 706.493 548.584 706.23C548.765 705.966 548.712 705.615 548.464 705.445C548.217 705.275 547.87 705.351 547.689 705.614Z" fill="#EACA91"/>
<path opacity="0.54" d="M573.605 719.071C573.368 719.417 573.438 719.879 573.763 720.102C574.088 720.325 574.544 720.225 574.782 719.879C575.02 719.533 574.949 719.071 574.625 718.848C574.3 718.625 573.843 718.724 573.605 719.071Z" fill="#EACA91"/>
<path d="M603.843 715.038C603.684 715.269 603.732 715.577 603.948 715.726C604.165 715.875 604.47 715.808 604.629 715.577C604.787 715.346 604.74 715.038 604.523 714.889C604.306 714.74 604.002 714.806 603.843 715.038Z" fill="#EACA91"/>
<path d="M613.204 751.551C613.023 751.815 613.077 752.166 613.324 752.336C613.572 752.506 613.919 752.43 614.1 752.166C614.281 751.903 614.227 751.551 613.98 751.382C613.733 751.212 613.385 751.287 613.204 751.551Z" fill="#EACA91"/>
<path opacity="0.54" d="M560.247 819.972C560.107 820.175 560.149 820.446 560.339 820.577C560.53 820.708 560.797 820.649 560.937 820.446C561.076 820.243 561.035 819.973 560.844 819.842C560.654 819.711 560.386 819.769 560.247 819.972Z" fill="#EACA91"/>
<path d="M638.159 737.167C638.02 737.37 638.061 737.641 638.251 737.772C638.442 737.903 638.71 737.845 638.849 737.642C638.988 737.439 638.947 737.168 638.757 737.037C638.566 736.906 638.298 736.964 638.159 737.167Z" fill="#EACA91"/>
<path d="M631.127 619.158C630.924 619.453 630.984 619.847 631.262 620.037C631.539 620.228 631.928 620.143 632.131 619.847C632.334 619.552 632.273 619.158 631.996 618.968C631.719 618.778 631.33 618.863 631.127 619.158Z" fill="#EACA91"/>
<path d="M597.246 564.579C597.043 564.875 597.104 565.268 597.381 565.459C597.658 565.649 598.047 565.564 598.25 565.269C598.453 564.974 598.393 564.58 598.115 564.389C597.838 564.199 597.449 564.284 597.246 564.579Z" fill="#EACA91"/>
<path opacity="0.54" d="M480.04 841.825C479.774 842.212 479.853 842.729 480.217 842.979C480.581 843.229 481.091 843.117 481.358 842.73C481.624 842.342 481.545 841.825 481.181 841.576C480.817 841.326 480.307 841.437 480.04 841.825Z" fill="#EACA91"/>
<path opacity="0.3" d="M519.111 831.735C518.909 832.03 518.969 832.424 519.246 832.614C519.523 832.804 519.912 832.719 520.115 832.424C520.318 832.129 520.258 831.735 519.981 831.545C519.703 831.354 519.314 831.439 519.111 831.735Z" fill="#EACA91"/>
<path opacity="0.54" d="M585.526 820.777C585.221 821.22 585.312 821.811 585.727 822.097C586.143 822.382 586.727 822.255 587.031 821.812C587.335 821.369 587.245 820.778 586.829 820.493C586.414 820.207 585.83 820.335 585.526 820.777Z" fill="#EACA91"/>
<path d="M629.809 768.973C629.504 769.416 629.595 770.006 630.01 770.292C630.426 770.578 631.01 770.45 631.314 770.007C631.619 769.564 631.528 768.974 631.113 768.688C630.697 768.402 630.113 768.53 629.809 768.973Z" fill="#EACA91"/>
<path d="M583.7 847.441C583.561 847.644 583.602 847.915 583.792 848.046C583.983 848.177 584.251 848.118 584.39 847.915C584.53 847.712 584.488 847.441 584.298 847.311C584.107 847.18 583.84 847.238 583.7 847.441Z" fill="#EACA91"/>
<path d="M625.12 762.317C624.98 762.52 625.022 762.791 625.212 762.922C625.403 763.052 625.67 762.994 625.81 762.791C625.949 762.588 625.908 762.317 625.717 762.186C625.527 762.055 625.259 762.114 625.12 762.317Z" fill="#EACA91"/>
<path opacity="0.3" d="M613.566 834.681C613.3 835.068 613.379 835.585 613.742 835.835C614.106 836.085 614.617 835.973 614.883 835.586C615.149 835.198 615.07 834.681 614.707 834.432C614.343 834.182 613.832 834.293 613.566 834.681Z" fill="#EACA91"/>
<path d="M596.634 838.63C596.457 838.889 596.51 839.233 596.752 839.4C596.995 839.567 597.335 839.492 597.513 839.234C597.69 838.975 597.637 838.631 597.395 838.464C597.152 838.298 596.812 838.372 596.634 838.63Z" fill="#EACA91"/>
<path opacity="0.3" d="M615.918 723.362C615.715 723.658 615.775 724.052 616.053 724.242C616.33 724.432 616.719 724.347 616.922 724.052C617.125 723.757 617.064 723.363 616.787 723.173C616.51 722.982 616.121 723.067 615.918 723.362Z" fill="#EACA91"/>
<path d="M466.137 1081.31C465.833 1081.75 465.923 1082.34 466.339 1082.63C466.754 1082.91 467.338 1082.79 467.642 1082.34C467.947 1081.9 467.856 1081.31 467.441 1081.02C467.025 1080.74 466.441 1080.87 466.137 1081.31Z" fill="#EACA91"/>
<path d="M398.143 908.059C397.838 908.502 397.929 909.092 398.344 909.378C398.76 909.664 399.344 909.536 399.648 909.093C399.953 908.65 399.862 908.059 399.446 907.774C399.031 907.488 398.447 907.616 398.143 908.059Z" fill="#EACA91"/>
<path d="M329.847 928.116C329.707 928.319 329.748 928.59 329.939 928.721C330.129 928.852 330.397 928.793 330.537 928.59C330.676 928.387 330.635 928.117 330.444 927.986C330.254 927.855 329.986 927.913 329.847 928.116Z" fill="#EACA91"/>
<path d="M440.69 912.281C440.551 912.484 440.592 912.755 440.783 912.886C440.973 913.017 441.241 912.958 441.38 912.755C441.52 912.552 441.478 912.282 441.288 912.151C441.097 912.02 440.83 912.078 440.69 912.281Z" fill="#EACA91"/>
<path d="M399.82 1005.59C399.618 1005.89 399.678 1006.28 399.955 1006.47C400.232 1006.66 400.621 1006.58 400.824 1006.28C401.027 1005.99 400.967 1005.59 400.69 1005.4C400.412 1005.21 400.023 1005.3 399.82 1005.59Z" fill="#EACA91"/>
<path d="M437.195 1050.47C436.928 1050.86 437.007 1051.38 437.371 1051.63C437.735 1051.88 438.246 1051.76 438.512 1051.38C438.778 1050.99 438.699 1050.47 438.336 1050.22C437.972 1049.97 437.461 1050.08 437.195 1050.47Z" fill="#EACA91"/>
<path d="M390.461 988.761C390.283 989.019 390.336 989.364 390.578 989.531C390.821 989.697 391.161 989.623 391.339 989.364C391.516 989.106 391.464 988.761 391.221 988.595C390.979 988.428 390.638 988.503 390.461 988.761Z" fill="#EACA91"/>
<path d="M377.465 970.199C377.262 970.494 377.322 970.888 377.599 971.079C377.877 971.269 378.266 971.184 378.469 970.889C378.671 970.593 378.611 970.2 378.334 970.009C378.057 969.819 377.668 969.904 377.465 970.199Z" fill="#EACA91"/>
<path d="M626.438 809.119C626.299 809.322 626.34 809.593 626.531 809.724C626.721 809.855 626.989 809.796 627.128 809.593C627.268 809.39 627.226 809.12 627.036 808.989C626.845 808.858 626.578 808.916 626.438 809.119Z" fill="#EACA91"/>
<path d="M677.28 451.21C677.141 451.413 677.182 451.684 677.373 451.815C677.563 451.945 677.831 451.887 677.97 451.684C678.11 451.481 678.068 451.21 677.878 451.079C677.687 450.948 677.42 451.007 677.28 451.21Z" fill="#EACA91"/>
<path d="M628.027 796.016C627.825 796.312 627.885 796.705 628.162 796.896C628.439 797.086 628.828 797.001 629.031 796.706C629.234 796.411 629.174 796.017 628.897 795.826C628.619 795.636 628.23 795.721 628.027 796.016Z" fill="#EACA91"/>
<path d="M1239.99 424.956C1240.16 424.127 1239.71 423.335 1238.99 423.185C1238.26 423.036 1237.54 423.587 1237.37 424.416C1237.19 425.245 1237.64 426.038 1238.37 426.187C1239.1 426.336 1239.82 425.785 1239.99 424.956Z" fill="#EACA91"/>
<path d="M1387.82 62.3185C1388.15 62.1222 1388.29 61.7257 1388.11 61.4329C1387.94 61.14 1387.53 61.0617 1387.2 61.258C1386.86 61.4542 1386.73 61.8507 1386.9 62.1435C1387.07 62.4364 1387.49 62.5147 1387.82 62.3185Z" fill="#EACA91"/>
<path d="M952.8 428.224C953.135 428.028 953.267 427.631 953.095 427.338C952.923 427.045 952.513 426.967 952.178 427.163C951.843 427.359 951.712 427.756 951.883 428.049C952.055 428.342 952.466 428.42 952.8 428.224Z" fill="#EACA91"/>
<path d="M889.132 457.763C889.467 457.567 889.599 457.171 889.427 456.878C889.255 456.585 888.845 456.507 888.51 456.703C888.176 456.899 888.044 457.296 888.215 457.588C888.387 457.881 888.798 457.96 889.132 457.763Z" fill="#EACA91"/>
<path d="M1288.84 101.678C1289.17 101.481 1289.3 101.085 1289.13 100.792C1288.96 100.499 1288.55 100.421 1288.21 100.617C1287.88 100.813 1287.75 101.21 1287.92 101.503C1288.09 101.796 1288.5 101.874 1288.84 101.678Z" fill="#EACA91"/>
<path d="M1359.63 47.4461C1360.12 47.1607 1360.31 46.584 1360.06 46.158C1359.81 45.7321 1359.21 45.6181 1358.72 45.9036C1358.24 46.189 1358.05 46.7657 1358.3 47.1917C1358.55 47.6177 1359.14 47.7316 1359.63 47.4461Z" fill="#EACA91"/>
<path opacity="0.54" d="M939.899 369.267C940.537 368.892 940.789 368.135 940.462 367.576C940.134 367.017 939.35 366.868 938.711 367.242C938.072 367.617 937.821 368.374 938.148 368.933C938.476 369.492 939.26 369.642 939.899 369.267Z" fill="#EACA91"/>
<path d="M1149.63 71.2047C1150.26 70.83 1150.52 70.0731 1150.19 69.514C1149.86 68.9549 1149.08 68.8054 1148.44 69.1801C1147.8 69.5547 1147.55 70.3116 1147.87 70.8707C1148.2 71.4298 1148.99 71.5793 1149.63 71.2047Z" fill="#EACA91"/>
<path d="M1329.65 105.843C1330.07 105.593 1330.24 105.088 1330.02 104.715C1329.8 104.343 1329.28 104.243 1328.86 104.493C1328.43 104.743 1328.26 105.247 1328.48 105.62C1328.7 105.993 1329.22 106.092 1329.65 105.843Z" fill="#EACA91"/>
<path d="M1136.56 96.6307C1137.05 96.3453 1137.24 95.7686 1136.99 95.3426C1136.74 94.9166 1136.14 94.8027 1135.66 95.0881C1135.17 95.3736 1134.98 95.9503 1135.23 96.3763C1135.48 96.8022 1136.07 96.9161 1136.56 96.6307Z" fill="#EACA91"/>
<path d="M985.876 454.416C986.606 453.987 986.894 453.122 986.519 452.483C986.145 451.844 985.249 451.674 984.519 452.102C983.789 452.53 983.501 453.395 983.876 454.034C984.251 454.673 985.146 454.844 985.876 454.416Z" fill="#EACA91"/>
<path d="M1028.2 471.371C1028.54 471.175 1028.67 470.779 1028.5 470.486C1028.33 470.193 1027.92 470.115 1027.58 470.311C1027.25 470.507 1027.12 470.904 1027.29 471.197C1027.46 471.489 1027.87 471.568 1028.2 471.371Z" fill="#EACA91"/>
<path d="M1151.55 190.211C1151.89 190.015 1152.02 189.618 1151.85 189.325C1151.68 189.032 1151.26 188.954 1150.93 189.15C1150.6 189.347 1150.46 189.743 1150.64 190.036C1150.81 190.329 1151.22 190.407 1151.55 190.211Z" fill="#EACA91"/>
<path d="M1157.81 219.581C1158.15 219.385 1158.28 218.988 1158.11 218.696C1157.94 218.403 1157.53 218.324 1157.19 218.521C1156.86 218.717 1156.73 219.113 1156.9 219.406C1157.07 219.699 1157.48 219.777 1157.81 219.581Z" fill="#EACA91"/>
<path d="M1398.09 131.059C1398.58 130.774 1398.77 130.197 1398.52 129.771C1398.27 129.345 1397.67 129.231 1397.18 129.517C1396.7 129.802 1396.51 130.379 1396.76 130.805C1397 131.231 1397.6 131.345 1398.09 131.059Z" fill="#EACA91"/>
<path d="M1184.55 80.6637C1185.19 80.289 1185.44 79.5321 1185.11 78.973C1184.79 78.4139 1184 78.2644 1183.36 78.639C1182.72 79.0137 1182.47 79.7706 1182.8 80.3297C1183.13 80.8888 1183.91 81.0383 1184.55 80.6637Z" fill="#EACA91"/>
<path d="M1006.18 525.639C1006.81 525.264 1007.07 524.507 1006.74 523.948C1006.41 523.389 1005.63 523.239 1004.99 523.614C1004.35 523.989 1004.1 524.745 1004.43 525.305C1004.75 525.864 1005.54 526.013 1006.18 525.639Z" fill="#EACA91"/>
<path d="M1206.09 149.863C1206.52 149.613 1206.69 149.108 1206.47 148.736C1206.25 148.363 1205.73 148.263 1205.3 148.513C1204.88 148.763 1204.71 149.267 1204.93 149.64C1205.15 150.013 1205.67 150.113 1206.09 149.863Z" fill="#EACA91"/>
<path d="M1228.79 187.06C1229.27 186.774 1229.47 186.198 1229.22 185.772C1228.97 185.346 1228.37 185.232 1227.88 185.517C1227.4 185.803 1227.2 186.379 1227.45 186.805C1227.7 187.231 1228.3 187.345 1228.79 187.06Z" fill="#EACA91"/>
<path d="M1359.48 137.714C1360.21 137.285 1360.5 136.42 1360.12 135.781C1359.75 135.143 1358.85 134.972 1358.12 135.4C1357.39 135.828 1357.1 136.693 1357.48 137.332C1357.85 137.971 1358.75 138.142 1359.48 137.714Z" fill="#EACA91"/>
<path d="M411.367 88.7643C412.139 88.4173 412.518 87.5883 412.214 86.9127C411.911 86.2371 411.039 85.9707 410.267 86.3177C409.495 86.6647 409.115 87.4937 409.419 88.1693C409.723 88.845 410.595 89.1113 411.367 88.7643Z" fill="#EACA91"/>
<path d="M62.4136 150.042C63.1911 150.376 64.0585 150.095 64.3509 149.415C64.6433 148.734 64.2499 147.912 63.4724 147.577C62.6948 147.243 61.8274 147.524 61.535 148.205C61.2427 148.886 61.636 149.708 62.4136 150.042Z" fill="#EACA91"/>
<path d="M1387.93 153.397C1388.27 153.201 1388.4 152.805 1388.23 152.512C1388.06 152.219 1387.65 152.141 1387.31 152.337C1386.98 152.533 1386.85 152.93 1387.02 153.222C1387.19 153.515 1387.6 153.594 1387.93 153.397Z" fill="#EACA91"/>
<path d="M1262.6 208.807C1262.93 208.61 1263.07 208.214 1262.89 207.921C1262.72 207.628 1262.31 207.55 1261.98 207.746C1261.64 207.942 1261.51 208.339 1261.68 208.632C1261.85 208.924 1262.26 209.003 1262.6 208.807Z" fill="#EACA91"/>
<path d="M1210.97 89.2482C1211.3 89.0519 1211.44 88.6554 1211.26 88.3626C1211.09 88.0697 1210.68 87.9914 1210.35 88.1876C1210.01 88.3839 1209.88 88.7804 1210.05 89.0732C1210.22 89.3661 1210.64 89.4444 1210.97 89.2482Z" fill="#EACA91"/>
<path d="M1312.23 13.4161C1312.56 13.2199 1312.7 12.8234 1312.52 12.5306C1312.35 12.2377 1311.94 12.1594 1311.61 12.3556C1311.27 12.5519 1311.14 12.9483 1311.31 13.2412C1311.48 13.534 1311.9 13.6124 1312.23 13.4161Z" fill="#EACA91"/>
<path d="M1211.23 37.4159C1211.56 37.2196 1211.7 36.8232 1211.52 36.5303C1211.35 36.2375 1210.94 36.1591 1210.61 36.3554C1210.27 36.5516 1210.14 36.9481 1210.31 37.2409C1210.48 37.5338 1210.9 37.6121 1211.23 37.4159Z" fill="#EACA91"/>
<path d="M1396.96 320.361C1397.07 319.808 1396.77 319.279 1396.29 319.18C1395.81 319.081 1395.32 319.448 1395.21 320.001C1395.09 320.553 1395.39 321.082 1395.88 321.181C1396.36 321.281 1396.85 320.913 1396.96 320.361Z" fill="#EACA91"/>
<path d="M1272.37 322.636C1272.52 321.911 1272.13 321.217 1271.49 321.087C1270.86 320.956 1270.22 321.438 1270.07 322.164C1269.92 322.889 1270.32 323.583 1270.95 323.713C1271.59 323.844 1272.22 323.362 1272.37 322.636Z" fill="#EACA91"/>
<path d="M1304.28 40.9049C1304.92 40.5302 1305.17 39.7733 1304.85 39.2142C1304.52 38.6551 1303.73 38.5056 1303.1 38.8803C1302.46 39.2549 1302.21 40.0118 1302.53 40.5709C1302.86 41.13 1303.64 41.2795 1304.28 40.9049Z" fill="#EACA91"/>
<path d="M1255.57 263.786C1255.72 263.061 1255.33 262.367 1254.69 262.237C1254.06 262.106 1253.42 262.589 1253.27 263.314C1253.12 264.039 1253.52 264.733 1254.15 264.863C1254.79 264.994 1255.42 264.512 1255.57 263.786Z" fill="#EACA91"/>
<path d="M1159.22 132.675C1159.65 132.425 1159.82 131.92 1159.6 131.548C1159.38 131.175 1158.86 131.075 1158.43 131.325C1158.01 131.575 1157.84 132.079 1158.06 132.452C1158.28 132.825 1158.8 132.925 1159.22 132.675Z" fill="#EACA91"/>
<path d="M1049.32 523.728C1049.8 523.442 1050 522.866 1049.75 522.44C1049.5 522.014 1048.9 521.9 1048.41 522.185C1047.93 522.471 1047.73 523.047 1047.98 523.473C1048.23 523.899 1048.83 524.013 1049.32 523.728Z" fill="#EACA91"/>
<path d="M1370.23 271.047C1370.96 270.619 1371.24 269.754 1370.87 269.115C1370.49 268.476 1369.6 268.305 1368.87 268.734C1368.14 269.162 1367.85 270.027 1368.23 270.666C1368.6 271.305 1369.5 271.476 1370.23 271.047Z" fill="#EACA91"/>
<path d="M1153.35 24.4161C1153.69 24.2199 1153.82 23.8234 1153.65 23.5306C1153.48 23.2377 1153.07 23.1594 1152.73 23.3556C1152.4 23.5519 1152.27 23.9483 1152.44 24.2412C1152.61 24.534 1153.02 24.6124 1153.35 24.4161Z" fill="#EACA91"/>
<path d="M1122.23 27.3819C1122.56 27.1857 1122.7 26.7892 1122.52 26.4964C1122.35 26.2035 1121.94 26.1252 1121.61 26.3214C1121.27 26.5177 1121.14 26.9142 1121.31 27.207C1121.48 27.4999 1121.9 27.5782 1122.23 27.3819Z" fill="#EACA91"/>
<path d="M1362.23 27.4161C1362.56 27.2199 1362.7 26.8234 1362.52 26.5306C1362.35 26.2377 1361.94 26.1594 1361.61 26.3556C1361.27 26.5519 1361.14 26.9483 1361.31 27.2412C1361.48 27.534 1361.9 27.6124 1362.23 27.4161Z" fill="#EACA91"/>
<path d="M1404.39 262.411C1404.82 262.161 1404.98 261.657 1404.77 261.284C1404.55 260.911 1404.02 260.811 1403.6 261.061C1403.17 261.311 1403.01 261.816 1403.22 262.188C1403.44 262.561 1403.96 262.661 1404.39 262.411Z" fill="#EACA91"/>
<path d="M1420.81 37.5914C1421.3 37.306 1421.49 36.7293 1421.24 36.3033C1420.99 35.8773 1420.4 35.7634 1419.91 36.0488C1419.42 36.3343 1419.23 36.911 1419.48 37.337C1419.73 37.7629 1420.33 37.8768 1420.81 37.5914Z" fill="#EACA91"/>
<path d="M1252.96 100.283C1253.69 99.8551 1253.98 98.99 1253.61 98.3511C1253.23 97.7121 1252.33 97.5412 1251.6 97.9694C1250.87 98.3975 1250.59 99.2626 1250.96 99.9016C1251.34 100.541 1252.23 100.711 1252.96 100.283Z" fill="#EACA91"/>
<path d="M309.499 40.0751C310.271 39.7281 310.651 38.8991 310.347 38.2235C310.043 37.5479 309.171 37.2815 308.4 37.6285C307.628 37.9755 307.248 38.8045 307.552 39.4801C307.856 40.1557 308.728 40.4221 309.499 40.0751Z" fill="#EACA91"/>
<path d="M29.4077 42.0693C30.1853 42.4033 31.0526 42.1224 31.345 41.4418C31.6374 40.7612 31.2441 39.9386 30.4665 39.6046C29.6889 39.2705 28.8216 39.5515 28.5292 40.2321C28.2368 40.9127 28.6301 41.7352 29.4077 42.0693Z" fill="#EACA91"/>
<path d="M1330.23 60.4161C1330.56 60.2199 1330.7 59.8234 1330.52 59.5306C1330.35 59.2377 1329.94 59.1594 1329.61 59.3556C1329.27 59.5519 1329.14 59.9483 1329.31 60.2412C1329.48 60.534 1329.9 60.6124 1330.23 60.4161Z" fill="#EACA91"/>
<path d="M1257.12 71.7765C1257.46 71.5802 1257.59 71.1838 1257.42 70.8909C1257.25 70.5981 1256.84 70.5197 1256.5 70.716C1256.17 70.9122 1256.04 71.3087 1256.21 71.6015C1256.38 71.8944 1256.79 71.9727 1257.12 71.7765Z" fill="#EACA91"/>
<path d="M1179.24 187.33C1179.57 187.133 1179.7 186.737 1179.53 186.444C1179.36 186.151 1178.95 186.073 1178.61 186.269C1178.28 186.465 1178.15 186.862 1178.32 187.155C1178.49 187.448 1178.9 187.526 1179.24 187.33Z" fill="#EACA91"/>
<path d="M1313.79 269.524C1314.27 269.238 1314.47 268.662 1314.22 268.236C1313.97 267.81 1313.37 267.696 1312.88 267.981C1312.4 268.267 1312.2 268.843 1312.45 269.269C1312.7 269.695 1313.3 269.809 1313.79 269.524Z" fill="#EACA91"/>
<path d="M1261.47 47.068C1262.11 46.6933 1262.36 45.9364 1262.03 45.3773C1261.7 44.8182 1260.92 44.6687 1260.28 45.0433C1259.64 45.418 1259.39 46.1749 1259.72 46.734C1260.04 47.2931 1260.83 47.4426 1261.47 47.068Z" fill="#EACA91"/>
<path d="M1249.51 58.9432C1250.15 58.5686 1250.4 57.8116 1250.07 57.2525C1249.75 56.6935 1248.96 56.5439 1248.32 56.9186C1247.69 57.2932 1247.43 58.0501 1247.76 58.6092C1248.09 59.1683 1248.87 59.3178 1249.51 58.9432Z" fill="#EACA91"/>
<path d="M1304.35 155.703C1304.98 155.328 1305.24 154.571 1304.91 154.012C1304.58 153.453 1303.8 153.304 1303.16 153.678C1302.52 154.053 1302.27 154.81 1302.6 155.369C1302.92 155.928 1303.71 156.078 1304.35 155.703Z" fill="#EACA91"/>
<path d="M1217.96 316.361C1218.07 315.808 1217.77 315.28 1217.29 315.18C1216.81 315.081 1216.32 315.448 1216.21 316.001C1216.09 316.554 1216.39 317.082 1216.88 317.182C1217.36 317.281 1217.85 316.914 1217.96 316.361Z" fill="#EACA91"/>
<path d="M942.937 246.376C943.271 246.179 943.403 245.783 943.232 245.49C943.06 245.197 942.649 245.119 942.315 245.315C941.98 245.511 941.848 245.908 942.02 246.201C942.192 246.494 942.602 246.572 942.937 246.376Z" fill="#EACA91"/>
<path d="M924.682 350.759C925.169 350.474 925.361 349.897 925.111 349.471C924.861 349.045 924.264 348.931 923.778 349.217C923.291 349.502 923.099 350.079 923.349 350.505C923.599 350.931 924.196 351.045 924.682 350.759Z" fill="#EACA91"/>
<path d="M961.67 196.222C962.096 195.972 962.264 195.467 962.045 195.095C961.827 194.722 961.304 194.622 960.878 194.872C960.453 195.122 960.285 195.626 960.503 195.999C960.722 196.372 961.244 196.471 961.67 196.222Z" fill="#EACA91"/>
<path opacity="0.3" d="M1126.38 236.024C1126.87 235.739 1127.06 235.162 1126.81 234.736C1126.56 234.31 1125.96 234.196 1125.48 234.481C1124.99 234.767 1124.8 235.344 1125.05 235.77C1125.3 236.196 1125.89 236.309 1126.38 236.024Z" fill="#EACA91"/>
<path d="M1059.12 214.118C1059.42 213.942 1059.54 213.587 1059.39 213.325C1059.23 213.063 1058.86 212.993 1058.57 213.169C1058.27 213.345 1058.15 213.699 1058.3 213.961C1058.46 214.223 1058.82 214.293 1059.12 214.118Z" fill="#EACA91"/>
<path opacity="0.54" d="M1059.83 301.691C1060.26 301.437 1060.43 300.922 1060.21 300.542C1059.99 300.161 1059.46 300.06 1059.02 300.315C1058.59 300.569 1058.42 301.084 1058.64 301.464C1058.86 301.844 1059.39 301.946 1059.83 301.691Z" fill="#EACA91"/>
<path opacity="0.54" d="M1021.62 229.26C1022.19 228.925 1022.41 228.249 1022.12 227.75C1021.83 227.25 1021.13 227.117 1020.56 227.451C1019.99 227.786 1019.76 228.462 1020.05 228.962C1020.35 229.461 1021.05 229.595 1021.62 229.26Z" fill="#EACA91"/>
<path d="M1092.08 342.844C1092.46 342.621 1092.61 342.169 1092.41 341.836C1092.22 341.503 1091.75 341.413 1091.37 341.637C1090.99 341.86 1090.84 342.311 1091.03 342.645C1091.23 342.978 1091.7 343.067 1092.08 342.844Z" fill="#EACA91"/>
<path d="M1001.42 199.727C1001.85 199.473 1002.03 198.958 1001.8 198.578C1001.58 198.198 1001.05 198.096 1000.61 198.351C1000.18 198.605 1000.01 199.12 1000.23 199.5C1000.45 199.881 1000.99 199.982 1001.42 199.727Z" fill="#EACA91"/>
<path opacity="0.54" d="M1122.4 137.117C1122.73 136.921 1122.87 136.525 1122.69 136.232C1122.52 135.939 1122.11 135.861 1121.78 136.057C1121.44 136.253 1121.31 136.65 1121.48 136.942C1121.65 137.235 1122.07 137.314 1122.4 137.117Z" fill="#EACA91"/>
<path d="M884.137 371.006C884.624 370.721 884.816 370.144 884.566 369.718C884.316 369.292 883.719 369.178 883.233 369.464C882.746 369.749 882.554 370.326 882.804 370.752C883.054 371.178 883.651 371.292 884.137 371.006Z" fill="#EACA91"/>
<path d="M908.602 442.209C909.089 441.923 909.281 441.346 909.031 440.92C908.781 440.495 908.184 440.381 907.698 440.666C907.211 440.951 907.019 441.528 907.269 441.954C907.519 442.38 908.116 442.494 908.602 442.209Z" fill="#EACA91"/>
<path opacity="0.54" d="M997.932 542.981C998.571 542.606 998.823 541.849 998.495 541.29C998.167 540.731 997.383 540.582 996.744 540.956C996.106 541.331 995.854 542.088 996.182 542.647C996.51 543.206 997.293 543.356 997.932 542.981Z" fill="#EACA91"/>
<path opacity="0.3" d="M1187.45 145.348C1187.93 145.062 1188.13 144.485 1187.88 144.059C1187.63 143.633 1187.03 143.52 1186.54 143.805C1186.06 144.09 1185.86 144.667 1186.11 145.093C1186.36 145.519 1186.96 145.633 1187.45 145.348Z" fill="#EACA91"/>
<path opacity="0.54" d="M1088.04 121.022C1088.77 120.594 1089.06 119.729 1088.68 119.09C1088.31 118.451 1087.41 118.28 1086.68 118.708C1085.95 119.136 1085.66 120.001 1086.04 120.64C1086.41 121.279 1087.31 121.45 1088.04 121.022Z" fill="#EACA91"/>
<path d="M990.652 165.942C991.382 165.514 991.669 164.649 991.295 164.01C990.92 163.371 990.024 163.2 989.294 163.628C988.564 164.056 988.276 164.922 988.651 165.56C989.026 166.199 989.922 166.37 990.652 165.942Z" fill="#EACA91"/>
<path d="M926.23 504.416C926.564 504.22 926.696 503.823 926.525 503.531C926.353 503.238 925.942 503.159 925.608 503.356C925.273 503.552 925.141 503.948 925.313 504.241C925.485 504.534 925.895 504.612 926.23 504.416Z" fill="#EACA91"/>
<path d="M1086.13 256.065C1086.47 255.869 1086.6 255.473 1086.43 255.18C1086.26 254.887 1085.85 254.809 1085.51 255.005C1085.18 255.201 1085.05 255.598 1085.22 255.89C1085.39 256.183 1085.8 256.262 1086.13 256.065Z" fill="#EACA91"/>
<path opacity="0.3" d="M1059.01 85.2906C1059.65 84.916 1059.9 84.159 1059.57 83.6C1059.25 83.0409 1058.46 82.8914 1057.82 83.266C1057.19 83.6406 1056.93 84.3976 1057.26 84.9566C1057.59 85.5157 1058.37 85.6652 1059.01 85.2906Z" fill="#EACA91"/>
<path d="M1085.17 89.9046C1085.59 89.6548 1085.76 89.1502 1085.54 88.7775C1085.32 88.4048 1084.8 88.3051 1084.37 88.5549C1083.95 88.8046 1083.78 89.3092 1084 89.682C1084.22 90.0547 1084.74 90.1544 1085.17 89.9046Z" fill="#EACA91"/>
<path opacity="0.3" d="M1099.85 214.209C1100.33 213.924 1100.53 213.347 1100.28 212.921C1100.03 212.495 1099.43 212.381 1098.94 212.667C1098.46 212.952 1098.26 213.529 1098.51 213.955C1098.76 214.381 1099.36 214.495 1099.85 214.209Z" fill="#EACA91"/>
<path d="M1370.68 204.089C1371.41 203.661 1371.7 202.796 1371.32 202.157C1370.95 201.518 1370.05 201.347 1369.32 201.775C1368.59 202.203 1368.31 203.069 1368.68 203.707C1369.06 204.346 1369.95 204.517 1370.68 204.089Z" fill="#EACA91"/>
<path d="M1357.75 249.089C1358.48 248.661 1358.77 247.796 1358.4 247.157C1358.02 246.518 1357.13 246.347 1356.4 246.775C1355.67 247.203 1355.38 248.069 1355.75 248.707C1356.13 249.346 1357.02 249.517 1357.75 249.089Z" fill="#EACA91"/>
<path d="M1248.23 180.416C1248.56 180.22 1248.7 179.823 1248.52 179.531C1248.35 179.238 1247.94 179.159 1247.61 179.356C1247.27 179.552 1247.14 179.948 1247.31 180.241C1247.48 180.534 1247.9 180.612 1248.23 180.416Z" fill="#EACA91"/>
<path d="M1243.79 130.059C1244.27 129.774 1244.47 129.197 1244.22 128.771C1243.97 128.345 1243.37 128.231 1242.88 128.517C1242.4 128.802 1242.2 129.379 1242.45 129.805C1242.7 130.231 1243.3 130.345 1243.79 130.059Z" fill="#EACA91"/>
<path d="M207.742 357.021C208.491 356.836 208.948 356.078 208.763 355.329C208.578 354.58 207.82 354.123 207.071 354.309C206.322 354.494 205.865 355.252 206.05 356.001C206.236 356.75 206.993 357.207 207.742 357.021Z" fill="#EACA91"/>
<path d="M342.513 384.998C343.499 384.754 344.101 383.757 343.857 382.771C343.613 381.784 342.616 381.183 341.629 381.427C340.643 381.671 340.042 382.668 340.286 383.654C340.53 384.64 341.527 385.242 342.513 384.998Z" fill="#EACA91"/>
<path d="M625.671 439.014C626.657 438.77 627.259 437.772 627.015 436.786C626.771 435.8 625.774 435.198 624.788 435.442C623.801 435.686 623.2 436.684 623.444 437.67C623.688 438.656 624.685 439.258 625.671 439.014Z" fill="#EACA91"/>
<path d="M264.085 482.147C264.454 482.056 264.679 481.683 264.587 481.314C264.496 480.945 264.123 480.72 263.754 480.811C263.385 480.902 263.16 481.275 263.251 481.644C263.343 482.013 263.716 482.239 264.085 482.147Z" fill="#EACA91"/>
<path d="M248.628 430.923C248.997 430.832 249.222 430.458 249.13 430.089C249.039 429.72 248.666 429.495 248.297 429.587C247.928 429.678 247.703 430.051 247.794 430.42C247.886 430.789 248.259 431.014 248.628 430.923Z" fill="#EACA91"/>
<path d="M308.241 420.677C308.61 420.586 308.835 420.213 308.744 419.844C308.652 419.475 308.279 419.249 307.91 419.341C307.541 419.432 307.316 419.805 307.408 420.174C307.499 420.543 307.872 420.768 308.241 420.677Z" fill="#EACA91"/>
<path opacity="0.7" d="M231.692 426.724C232.398 426.55 232.829 425.836 232.654 425.13C232.479 424.424 231.765 423.993 231.059 424.168C230.354 424.343 229.923 425.056 230.098 425.762C230.272 426.468 230.986 426.899 231.692 426.724Z" fill="#EACA91"/>
<path opacity="0.7" d="M323.126 503.085C323.832 502.91 324.262 502.196 324.088 501.49C323.913 500.784 323.199 500.354 322.493 500.528C321.787 500.703 321.356 501.417 321.531 502.123C321.706 502.829 322.42 503.259 323.126 503.085Z" fill="#EACA91"/>
<path d="M1023.36 112.779C1023.7 112.583 1023.83 112.186 1023.66 111.894C1023.49 111.601 1023.08 111.522 1022.74 111.719C1022.41 111.915 1022.27 112.311 1022.45 112.604C1022.62 112.897 1023.03 112.975 1023.36 112.779Z" fill="#EACA91"/>
<path d="M1013.23 350.416C1013.56 350.22 1013.7 349.824 1013.52 349.531C1013.35 349.238 1012.94 349.16 1012.61 349.356C1012.27 349.552 1012.14 349.949 1012.31 350.241C1012.48 350.534 1012.9 350.613 1013.23 350.416Z" fill="#EACA91"/>
<path d="M1105.7 167.335C1106.18 167.049 1106.38 166.473 1106.13 166.047C1105.88 165.621 1105.28 165.507 1104.79 165.792C1104.31 166.078 1104.11 166.654 1104.36 167.08C1104.61 167.506 1105.21 167.62 1105.7 167.335Z" fill="#EACA91"/>
<path d="M630.111 541.069L630.507 543.942L632.945 545.511L630.072 545.907L628.503 548.345L628.107 545.473L625.669 543.903L628.541 543.508L630.111 541.069Z" fill="#ECCF9C"/>
<path d="M784.345 386.35L784.741 389.223L787.179 390.792L784.307 391.188L782.737 393.626L782.341 390.754L779.903 389.184L782.776 388.789L784.345 386.35Z" fill="#ECCF9C"/>
<path d="M815.499 163.338L815.895 166.21L818.334 167.78L815.461 168.176L813.892 170.614L813.496 167.741L811.057 166.172L813.93 165.776L815.499 163.338Z" fill="#ECCF9C"/>
<path d="M631.12 164.568L631.516 167.44L633.955 169.01L631.082 169.406L629.513 171.844L629.117 168.971L626.679 167.402L629.551 167.006L631.12 164.568Z" fill="#ECCF9C"/>
<path d="M532.103 286.731L532.746 291.399L536.709 293.949L532.041 294.593L529.491 298.555L528.847 293.887L524.885 291.337L529.553 290.693L532.103 286.731Z" fill="#ECCF9C"/>
<path opacity="0.4" d="M578.715 231.21L579.061 233.723L581.194 235.097L578.681 235.443L577.308 237.576L576.961 235.063L574.828 233.69L577.341 233.343L578.715 231.21Z" fill="#ECCF9C"/>
<path d="M763.793 484.753L764.436 489.421L768.398 491.971L763.73 492.614L761.18 496.577L760.537 491.909L756.575 489.358L761.242 488.715L763.793 484.753Z" fill="#ECCF9C"/>
<path d="M639.91 673.839L640.553 678.507L644.515 681.057L639.847 681.701L637.297 685.663L636.654 680.995L632.692 678.445L637.36 677.801L639.91 673.839Z" fill="#ECCF9C"/>
<path d="M368.471 929.788L369.015 933.735L372.365 935.891L368.418 936.435L366.262 939.785L365.718 935.838L362.368 933.682L366.315 933.138L368.471 929.788Z" fill="#ECCF9C"/>
<path d="M699.741 564.164L700.187 567.396L702.93 569.161L699.698 569.607L697.932 572.35L697.487 569.118L694.744 567.353L697.976 566.907L699.741 564.164Z" fill="#ECCF9C"/>
<g opacity="0.5">
<path d="M1152.6 289.219L1154.18 290.326L1155.94 289.874L1154.99 291.418L1155.57 293.263L1153.98 292.157L1152.22 292.609L1153.18 291.065L1152.6 289.219Z" fill="#ECCF9C"/>
<path d="M1170.65 90.6126L1172.24 91.7191L1174 91.2669L1173.04 92.8113L1173.63 94.6566L1172.04 93.5501L1170.28 94.0022L1171.24 92.4578L1170.65 90.6126Z" fill="#ECCF9C"/>
<path d="M998.847 63.5147L1000.43 64.6212L1002.19 64.169L1001.24 65.7134L1001.82 67.5587L1000.23 66.4522L998.473 66.9043L999.429 65.3599L998.847 63.5147Z" fill="#ECCF9C"/>
<path d="M1019.85 165.659L1022.43 167.457L1025.29 166.723L1023.73 169.232L1024.68 172.231L1022.1 170.433L1019.24 171.168L1020.79 168.658L1019.85 165.659Z" fill="#ECCF9C"/>
<path d="M1077.84 209.461L1079.23 210.429L1080.77 210.034L1079.93 211.385L1080.44 213L1079.05 212.031L1077.51 212.427L1078.35 211.076L1077.84 209.461Z" fill="#ECCF9C"/>
<path opacity="0.4" d="M1010.95 118.471L1012.34 119.439L1013.87 119.044L1013.04 120.395L1013.55 122.01L1012.16 121.041L1010.62 121.437L1011.46 120.086L1010.95 118.471Z" fill="#ECCF9C"/>
<path d="M1180.24 152.868L1182.82 154.666L1185.68 153.932L1184.13 156.441L1185.07 159.44L1182.49 157.642L1179.63 158.377L1181.19 155.867L1180.24 152.868Z" fill="#ECCF9C"/>
<path d="M1243.02 377.222L1245.6 379.02L1248.46 378.286L1246.91 380.795L1247.85 383.794L1245.27 381.996L1242.41 382.731L1243.97 380.221L1243.02 377.222Z" fill="#ECCF9C"/>
<path d="M1325.81 375.242L1329.18 377.594L1332.92 376.633L1330.89 379.915L1332.13 383.836L1328.75 381.485L1325.01 382.445L1327.05 379.164L1325.81 375.242Z" fill="#ECCF9C"/>
<path d="M1225.12 210.986L1226.9 212.231L1228.88 211.722L1227.81 213.46L1228.46 215.536L1226.68 214.291L1224.7 214.799L1225.77 213.062L1225.12 210.986Z" fill="#ECCF9C"/>
</g>
<g opacity="0.5">
<path d="M462.704 345.677L464.557 346.235L466.088 345.258L465.66 347.023L466.787 348.596L464.934 348.038L463.403 349.015L463.832 347.249L462.704 345.677Z" fill="#ECCF9C"/>
<path d="M418.095 151.304L419.948 151.862L421.479 150.885L421.05 152.65L422.178 154.222L420.325 153.665L418.794 154.642L419.222 152.876L418.095 151.304Z" fill="#ECCF9C"/>
<path d="M288.708 72.2983L290.561 72.8562L292.092 71.8793L291.664 73.6445L292.791 75.2171L290.938 74.6592L289.407 75.6361L289.836 73.8709L288.708 72.2983Z" fill="#ECCF9C"/>
<path d="M246.382 178.986L248.235 179.543L249.766 178.567L249.338 180.332L250.465 181.904L248.612 181.346L247.081 182.323L247.509 180.558L246.382 178.986Z" fill="#ECCF9C"/>
<path d="M298.11 269.533L301.121 270.439L303.609 268.852L302.913 271.72L304.745 274.276L301.734 273.369L299.245 274.956L299.942 272.088L298.11 269.533Z" fill="#ECCF9C"/>
<path d="M366.851 293.125L368.472 293.613L369.812 292.758L369.437 294.303L370.424 295.679L368.802 295.19L367.462 296.045L367.837 294.501L366.851 293.125Z" fill="#ECCF9C"/>
<path opacity="0.4" d="M274.976 227.452L276.597 227.94L277.937 227.086L277.562 228.63L278.549 230.006L276.927 229.518L275.587 230.373L275.962 228.828L274.976 227.452Z" fill="#ECCF9C"/>
<path d="M446.571 207.49L449.581 208.397L452.07 206.809L451.374 209.678L453.206 212.233L450.195 211.326L447.706 212.914L448.403 210.045L446.571 207.49Z" fill="#ECCF9C"/>
<path d="M712.482 383.116L716.42 384.302L719.674 382.226L718.763 385.977L721.159 389.319L717.222 388.133L713.967 390.209L714.878 386.458L712.482 383.116Z" fill="#ECCF9C"/>
<path d="M507.296 248.768L509.38 249.396L511.103 248.297L510.621 250.283L511.889 252.052L509.805 251.424L508.082 252.523L508.564 250.537L507.296 248.768Z" fill="#ECCF9C"/>
</g>
<g opacity="0.5">
<path d="M323.411 270.316L321.555 270.866L320.81 272.522L320.201 270.811L318.396 270.114L320.251 269.565L320.996 267.908L321.606 269.619L323.411 270.316Z" fill="#ECCF9C"/>
<path d="M656.055 295.004L654.2 295.553L653.455 297.21L652.845 295.499L651.04 294.802L652.896 294.253L653.641 292.596L654.25 294.307L656.055 295.004Z" fill="#ECCF9C"/>
<path d="M595.712 291.12L593.856 291.669L593.111 293.326L592.502 291.614L590.697 290.917L592.552 290.368L593.297 288.711L593.906 290.423L595.712 291.12Z" fill="#ECCF9C"/>
<path d="M502.808 243.755L499.793 244.648L498.582 247.34L497.592 244.559L494.658 243.427L497.673 242.534L498.884 239.842L499.874 242.623L502.808 243.755Z" fill="#ECCF9C"/>
<path d="M432.385 261.713L430.762 262.194L430.11 263.643L429.577 262.146L427.997 261.536L429.621 261.055L430.273 259.606L430.806 261.103L432.385 261.713Z" fill="#ECCF9C"/>
<path opacity="0.4" d="M545.223 266.264L543.6 266.745L542.948 268.194L542.415 266.697L540.835 266.087L542.459 265.606L543.111 264.157L543.644 265.654L545.223 266.264Z" fill="#ECCF9C"/>
<path d="M412.409 333.831L409.394 334.723L408.183 337.416L407.193 334.635L404.26 333.502L407.275 332.61L408.486 329.917L409.476 332.698L412.409 333.831Z" fill="#ECCF9C"/>
<path d="M148.07 351.924L144.127 353.091L142.544 356.611L141.249 352.975L137.413 351.494L141.355 350.326L142.939 346.806L144.234 350.443L148.07 351.924Z" fill="#ECCF9C"/>
<path d="M286.905 349.342L284.818 349.96L283.979 351.824L283.294 349.899L281.263 349.115L283.35 348.497L284.189 346.633L284.874 348.558L286.905 349.342Z" fill="#ECCF9C"/>
</g>
<g opacity="0.5">
<path d="M806.095 221.223L807.682 222.329L809.442 221.877L808.485 223.421L809.068 225.267L807.48 224.16L805.721 224.612L806.677 223.068L806.095 221.223Z" fill="#ECCF9C"/>
<path d="M824.151 22.616L825.739 23.7225L827.498 23.2703L826.542 24.8147L827.124 26.66L825.537 25.5535L823.778 26.0056L824.734 24.4613L824.151 22.616Z" fill="#ECCF9C"/>
<path d="M652.345 -4.48191L653.932 -3.37542L655.692 -3.82756L654.735 -2.28318L655.318 -0.437916L653.73 -1.5444L651.971 -1.09226L652.927 -2.63664L652.345 -4.48191Z" fill="#ECCF9C"/>
<path d="M673.345 97.6628L675.925 99.4609L678.784 98.7261L677.23 101.236L678.176 104.234L675.597 102.436L672.738 103.171L674.292 100.661L673.345 97.6628Z" fill="#ECCF9C"/>
<path d="M731.337 141.464L732.726 142.433L734.265 142.037L733.428 143.388L733.938 145.003L732.549 144.035L731.01 144.43L731.847 143.079L731.337 141.464Z" fill="#ECCF9C"/>
<path opacity="0.4" d="M664.444 50.4744L665.833 51.4426L667.373 51.047L666.536 52.3983L667.046 54.0129L665.657 53.0448L664.117 53.4404L664.954 52.0891L664.444 50.4744Z" fill="#ECCF9C"/>
<path d="M833.74 84.8718L836.319 86.6698L839.178 85.9351L837.624 88.4447L838.571 91.4433L835.991 89.6453L833.132 90.38L834.686 87.8704L833.74 84.8718Z" fill="#ECCF9C"/>
<path d="M839.652 314.136L842.232 315.934L845.091 315.199L843.536 317.709L844.483 320.707L841.903 318.909L839.044 319.644L840.599 317.134L839.652 314.136Z" fill="#ECCF9C"/>
<path d="M878.614 142.989L880.4 144.234L882.38 143.726L881.304 145.463L881.959 147.539L880.173 146.294L878.194 146.803L879.27 145.065L878.614 142.989Z" fill="#ECCF9C"/>
</g>
<g opacity="0.5">
<path d="M1102.21 400.964L1103.89 400.005L1104.24 398.222L1105.22 399.749L1107.14 400.014L1105.46 400.973L1105.11 402.756L1104.13 401.23L1102.21 400.964Z" fill="#ECCF9C"/>
<path d="M854.255 281.98L855.935 281.021L856.282 279.238L857.267 280.764L859.183 281.03L857.502 281.989L857.156 283.772L856.171 282.245L854.255 281.98Z" fill="#ECCF9C"/>
<path d="M707.856 321.35L709.537 320.391L709.884 318.608L710.868 320.135L712.785 320.401L711.104 321.36L710.757 323.143L709.773 321.616L707.856 321.35Z" fill="#ECCF9C"/>
<path d="M819.048 492.247L820.728 491.288L821.075 489.505L822.06 491.031L823.976 491.297L822.295 492.256L821.949 494.039L820.964 492.513L819.048 492.247Z" fill="#ECCF9C"/>
<path d="M854.714 394.591L857.445 393.033L858.009 390.135L859.608 392.616L862.723 393.048L859.992 394.606L859.428 397.504L857.829 395.023L854.714 394.591Z" fill="#ECCF9C"/>
<path d="M921.762 416.821L923.233 415.982L923.536 414.422L924.398 415.758L926.075 415.99L924.604 416.829L924.301 418.39L923.439 417.054L921.762 416.821Z" fill="#ECCF9C"/>
<path opacity="0.4" d="M810.866 438.183L812.337 437.344L812.64 435.784L813.501 437.12L815.178 437.352L813.708 438.191L813.404 439.752L812.543 438.416L810.866 438.183Z" fill="#ECCF9C"/>
<path d="M916.191 257.667L918.922 256.109L919.485 253.211L921.085 255.692L924.2 256.124L921.468 257.682L920.905 260.58L919.305 258.099L916.191 257.667Z" fill="#ECCF9C"/>
<path d="M1142.53 408.563L1145.27 407.005L1145.83 404.107L1147.43 406.588L1150.54 407.02L1147.81 408.578L1147.25 411.476L1145.65 408.995L1142.53 408.563Z" fill="#ECCF9C"/>
<path d="M1349.93 470.833L1353.5 468.795L1354.23 465.006L1356.33 468.25L1360.4 468.815L1356.83 470.853L1356.09 474.642L1354 471.398L1349.93 470.833Z" fill="#ECCF9C"/>
<path d="M986.352 284.456L988.243 283.377L988.633 281.371L989.741 283.089L991.897 283.388L990.006 284.467L989.616 286.473L988.509 284.755L986.352 284.456Z" fill="#ECCF9C"/>
</g>
<g opacity="0.5">
<path d="M586.643 639.786L585.15 641.018L585.112 642.834L583.882 641.497L581.948 641.561L583.441 640.33L583.479 638.514L584.709 639.851L586.643 639.786Z" fill="#ECCF9C"/>
<path d="M851.24 714.799L849.748 716.031L849.709 717.847L848.479 716.51L846.546 716.574L848.038 715.343L848.076 713.527L849.306 714.864L851.24 714.799Z" fill="#ECCF9C"/>
<path d="M988.795 651.069L987.302 652.3L987.264 654.116L986.034 652.779L984.1 652.844L985.593 651.613L985.631 649.796L986.861 651.133L988.795 651.069Z" fill="#ECCF9C"/>
<path d="M850.119 501.608L848.626 502.839L848.588 504.655L847.358 503.318L845.424 503.383L846.917 502.152L846.955 500.336L848.185 501.672L850.119 501.608Z" fill="#ECCF9C"/>
<path d="M831.606 603.911L829.18 605.912L829.119 608.863L827.12 606.691L823.977 606.796L826.403 604.795L826.465 601.844L828.464 604.016L831.606 603.911Z" fill="#ECCF9C"/>
<path d="M761.754 593.426L760.447 594.503L760.414 596.092L759.338 594.922L757.646 594.979L758.952 593.902L758.985 592.312L760.061 593.482L761.754 593.426Z" fill="#ECCF9C"/>
<path opacity="0.4" d="M867.39 553.488L866.084 554.565L866.051 556.155L864.974 554.985L863.282 555.041L864.589 553.964L864.622 552.375L865.698 553.545L867.39 553.488Z" fill="#ECCF9C"/>
<path d="M794.35 749.306L791.924 751.307L791.863 754.258L789.864 752.086L786.721 752.19L789.147 750.19L789.209 747.239L791.208 749.411L794.35 749.306Z" fill="#ECCF9C"/>
<path d="M545.612 639.167L543.186 641.167L543.124 644.118L541.126 641.946L537.983 642.051L540.409 640.05L540.471 637.099L542.469 639.271L545.612 639.167Z" fill="#ECCF9C"/>
<path d="M535.358 787.634L532.186 790.25L532.105 794.11L529.491 791.269L525.382 791.406L528.554 788.79L528.635 784.931L531.249 787.771L535.358 787.634Z" fill="#ECCF9C"/>
<path d="M720.653 734.859L718.974 736.244L718.931 738.287L717.547 736.783L715.371 736.856L717.051 735.471L717.094 733.427L718.477 734.931L720.653 734.859Z" fill="#ECCF9C"/>
</g>
<path d="M1046.53 385.688L1049.36 385.078L1050.75 382.529L1051.35 385.364L1053.9 386.747L1051.07 387.357L1049.69 389.905L1049.08 387.071L1046.53 385.688Z" fill="#ECCF9C"/>
<path d="M860.946 71.0034L863.78 70.3938L865.163 67.8449L865.773 70.6798L868.322 72.0624L865.487 72.672L864.104 75.2209L863.494 72.386L860.946 71.0034Z" fill="#ECCF9C"/>
<path d="M636.227 56.6201L639.062 56.0105L640.444 53.4616L641.054 56.2965L643.603 57.6791L640.768 58.2887L639.385 60.8376L638.776 58.0027L636.227 56.6201Z" fill="#ECCF9C"/>
<path d="M651.248 240.391L654.083 239.781L655.466 237.232L656.075 240.067L658.624 241.45L655.789 242.059L654.407 244.608L653.797 241.773L651.248 240.391Z" fill="#ECCF9C"/>
<path d="M780.476 329.99L785.082 329L787.329 324.858L788.32 329.465L792.462 331.711L787.855 332.702L785.608 336.844L784.618 332.237L780.476 329.99Z" fill="#ECCF9C"/>
<path d="M1043.26 450.773L1045.74 450.24L1046.95 448.009L1047.48 450.49L1049.71 451.7L1047.23 452.233L1046.02 454.463L1045.49 451.983L1043.26 450.773Z" fill="#ECCF9C"/>
<path opacity="0.4" d="M721.625 287.665L724.106 287.131L725.316 284.901L725.849 287.381L728.079 288.591L725.599 289.125L724.389 291.355L723.856 288.874L721.625 287.665Z" fill="#ECCF9C"/>
<path d="M936.319 129.346L940.926 128.355L943.173 124.213L944.163 128.82L948.305 131.066L943.699 132.057L941.452 136.199L940.461 131.592L936.319 129.346Z" fill="#ECCF9C"/>
<path d="M1182.87 378.352L1187.48 377.361L1189.73 373.219L1190.72 377.826L1194.86 380.073L1190.25 381.063L1188.01 385.205L1187.02 380.598L1182.87 378.352Z" fill="#ECCF9C"/>
<path d="M1323.02 208.389L1329.04 207.093L1331.98 201.677L1333.28 207.701L1338.69 210.639L1332.67 211.935L1329.73 217.351L1328.43 211.327L1323.02 208.389Z" fill="#ECCF9C"/>
<path d="M1044.59 142.067L1047.78 141.381L1049.34 138.514L1050.02 141.703L1052.89 143.258L1049.7 143.944L1048.15 146.812L1047.46 143.622L1044.59 142.067Z" fill="#ECCF9C"/>
<path d="M671.936 575.552L671.632 576.972L672.511 578.126L671.092 577.822L669.937 578.702L670.241 577.282L669.362 576.127L670.781 576.432L671.936 575.552Z" fill="#ECCF9C"/>
<path d="M791.448 512.387L791.144 513.807L792.023 514.962L790.604 514.657L789.449 515.537L789.753 514.117L788.874 512.963L790.293 513.267L791.448 512.387Z" fill="#ECCF9C"/>
<path d="M874.295 439.45L873.991 440.87L874.871 442.025L873.451 441.72L872.297 442.6L872.601 441.18L871.721 440.026L873.141 440.33L874.295 439.45Z" fill="#ECCF9C"/>
<path d="M787.321 408.549L787.017 409.968L787.896 411.123L786.477 410.819L785.322 411.698L785.626 410.279L784.747 409.124L786.166 409.428L787.321 408.549Z" fill="#ECCF9C"/>
<path d="M706.304 501.823L706.037 503.065L706.807 504.076L705.565 503.81L704.555 504.579L704.821 503.337L704.051 502.327L705.293 502.593L706.304 501.823Z" fill="#ECCF9C"/>
<path opacity="0.4" d="M751.28 430.961L751.014 432.203L751.784 433.213L750.542 432.947L749.531 433.717L749.797 432.475L749.028 431.464L750.27 431.73L751.28 430.961Z" fill="#ECCF9C"/>
<path d="M752.698 544.682L752.203 546.988L753.632 548.865L751.326 548.37L749.449 549.8L749.944 547.493L748.515 545.617L750.821 546.111L752.698 544.682Z" fill="#ECCF9C"/>
<path d="M615.114 622.88L614.619 625.186L616.048 627.063L613.742 626.568L611.865 627.998L612.36 625.691L610.931 623.815L613.237 624.309L615.114 622.88Z" fill="#ECCF9C"/>
<path d="M663.905 721.775L663.258 724.791L665.127 727.245L662.111 726.599L659.657 728.468L660.304 725.452L658.435 722.998L661.451 723.644L663.905 721.775Z" fill="#ECCF9C"/>
<path d="M668.01 615.904L667.668 617.501L668.657 618.8L667.06 618.458L665.761 619.448L666.103 617.851L665.114 616.552L666.711 616.894L668.01 615.904Z" fill="#ECCF9C"/>
<path d="M130.196 111.355L128.865 113.17L129.358 115.288L127.567 114.054L125.391 114.629L126.722 112.814L126.229 110.695L128.02 111.929L130.196 111.355Z" fill="#ECCF9C"/>
<path d="M362.725 145.423L361.394 147.238L361.888 149.357L360.097 148.123L357.921 148.697L359.251 146.882L358.758 144.764L360.549 145.998L362.725 145.423Z" fill="#ECCF9C"/>
<path d="M500.03 35.8824L498.699 37.6976L499.192 39.816L497.401 38.5819L495.225 39.1565L496.556 37.3414L496.063 35.223L497.854 36.4571L500.03 35.8824Z" fill="#ECCF9C"/>
<path d="M225.291 27.6342L224.127 29.2224L224.559 31.076L222.991 29.9962L221.087 30.499L222.252 28.9108L221.82 27.0572L223.387 28.137L225.291 27.6342Z" fill="#ECCF9C"/>
<path d="M289.516 152.855L287.353 155.804L288.155 159.247L285.244 157.241L281.708 158.175L283.871 155.225L283.069 151.783L285.979 153.788L289.516 152.855Z" fill="#ECCF9C"/>
<path d="M25.6927 311.62L22.8648 315.478L23.9134 319.979L20.1072 317.357L15.483 318.578L18.3109 314.721L17.2623 310.219L21.0684 312.842L25.6927 311.62Z" fill="#ECCF9C"/>
<path d="M220.423 202.461L218.926 204.503L219.481 206.886L217.466 205.498L215.018 206.144L216.515 204.102L215.96 201.719L217.975 203.107L220.423 202.461Z" fill="#ECCF9C"/>
<path opacity="0.6" d="M446.731 442.427L447.547 444.027L449.294 444.45L447.693 445.266L447.271 447.013L446.454 445.412L444.708 444.99L446.309 444.173L446.731 442.427Z" fill="#ECCF9C"/>
<path opacity="0.6" d="M466.96 486.865L469.268 484.729L469.162 481.779L471.281 483.835L474.413 483.551L472.105 485.687L472.211 488.637L470.092 486.581L466.96 486.865Z" fill="#ECCF9C"/>
<path opacity="0.6" d="M522.156 439.586L523.399 438.436L523.342 436.848L524.483 437.954L526.169 437.802L524.926 438.952L524.983 440.54L523.842 439.434L522.156 439.586Z" fill="#ECCF9C"/>
<path opacity="0.6" d="M480.47 465.458L480.003 467.336L481.053 468.818L479.269 468.475L477.753 469.678L478.22 467.8L477.17 466.318L478.954 466.66L480.47 465.458Z" fill="#ECCF9C"/>
<path opacity="0.6" d="M528.324 367.174L527.914 368.817L528.833 370.114L527.272 369.815L525.945 370.867L526.355 369.224L525.436 367.926L526.997 368.226L528.324 367.174Z" fill="#ECCF9C"/>
<path opacity="0.6" d="M580.35 420.963L579.59 424.014L581.296 426.423L578.397 425.866L575.933 427.82L576.693 424.768L574.987 422.359L577.886 422.916L580.35 420.963Z" fill="#ECCF9C"/>
<path opacity="0.6" d="M530.067 536.997L529.541 539.109L530.722 540.777L528.715 540.391L527.009 541.744L527.535 539.632L526.354 537.964L528.361 538.349L530.067 536.997Z" fill="#ECCF9C"/>
<path opacity="0.6" d="M362.045 435.095L363.49 438.454L366.864 439.509L363.659 441.001L362.671 444.522L361.225 441.162L357.852 440.107L361.056 438.616L362.045 435.095Z" fill="#ECCF9C"/>
<path opacity="0.6" d="M160.678 477.609L163.951 479.242L167.208 477.87L165.723 481.078L167.241 484.405L163.969 482.772L160.711 484.144L162.196 480.936L160.678 477.609Z" fill="#ECCF9C"/>
<g opacity="0.6">
<path d="M865.256 240.033L868.082 240.684L870.415 238.963L869.764 241.789L871.485 244.123L868.659 243.471L866.325 245.192L866.977 242.367L865.256 240.033Z" fill="#ECCF9C"/>
<path d="M535.25 4.40361L538.076 5.05508L540.41 3.33414L539.758 6.15975L541.479 8.49359L538.653 7.84212L536.32 9.56306L536.971 6.73745L535.25 4.40361Z" fill="#ECCF9C"/>
<path d="M614.22 140.387L618.811 141.446L622.604 138.649L621.545 143.241L624.342 147.033L619.75 145.975L615.957 148.771L617.016 144.18L614.22 140.387Z" fill="#ECCF9C"/>
<path d="M719.055 169.106L721.527 169.676L723.57 168.17L722.999 170.642L724.505 172.684L722.033 172.114L719.991 173.62L720.561 171.148L719.055 169.106Z" fill="#ECCF9C"/>
<path opacity="0.4" d="M578.903 77.0812L581.375 77.6513L583.417 76.1455L582.847 78.6179L584.353 80.66L581.881 80.0899L579.838 81.5958L580.408 79.1234L578.903 77.0812Z" fill="#ECCF9C"/>
<path d="M840.501 24.8741L845.092 25.9327L848.885 23.1362L847.826 27.7278L850.623 31.5203L846.031 30.4616L842.239 33.2582L843.297 28.6666L840.501 24.8741Z" fill="#ECCF9C"/>
<path d="M911.352 368.349L915.944 369.408L919.737 366.611L918.678 371.203L921.474 374.995L916.883 373.937L913.09 376.733L914.149 372.142L911.352 368.349Z" fill="#ECCF9C"/>
<path d="M1157.07 260.597L1163.08 261.981L1168.04 258.324L1166.65 264.329L1170.31 269.288L1164.31 267.904L1159.35 271.561L1160.73 265.557L1157.07 260.597Z" fill="#ECCF9C"/>
<path d="M933.133 82.3544L936.311 83.0873L938.937 81.1512L938.204 84.33L940.14 86.9556L936.961 86.2227L934.336 88.1588L935.069 84.98L933.133 82.3544Z" fill="#ECCF9C"/>
</g>
</svg>
