<svg width="1440" height="900" viewBox="0 0 1440 900" fill="none" xmlns="http://www.w3.org/2000/svg">
<rect width="1440" height="900" fill="url(#paint0_linear_14_2267)"/>
<rect x="-1248" y="159" width="2026.38" height="65.0878" fill="#F6F4D4"/>
<rect x="-1248" y="224.088" width="2026.38" height="675.912" fill="#E6988E"/>
<rect x="-539.676" y="261.638" width="594.162" height="145.196" fill="#E8D7A5"/>
<rect x="-326.919" y="441.882" width="381.405" height="423.071" fill="#E8D7A5"/>
<rect x="18.1621" y="732.274" width="125.169" height="12.973" rx="6.48649" transform="rotate(-90 18.1621 732.274)" fill="#C96928"/>
<rect x="1345.54" y="23" width="655.243" height="875.608" fill="#A44A3F"/>
<rect x="1345.54" y="542.758" width="655.243" height="355.851" fill="#F6F4D2"/>
<path d="M1360.96 741.821C1349.89 749.76 1398.81 829.75 1398.81 829.75C1398.81 829.75 1467.61 815.872 1460.95 792.547C1456.3 776.291 1411.05 745.084 1411.05 745.084C1411.05 745.084 1372.04 733.882 1360.96 741.821Z" fill="#E8D7A5"/>
<path d="M1528.89 767.147C1540.47 760.058 1497.14 676.609 1497.14 676.609C1497.14 676.609 1427.57 685.298 1432.63 709.062C1436.15 725.625 1479.15 760.141 1479.15 760.141C1479.15 760.141 1517.3 774.236 1528.89 767.147Z" fill="#E8D7A5"/>
<path d="M1393.54 651.027C1407.55 651.627 1412.61 597.658 1412.61 597.658C1412.61 597.658 1346.21 578.123 1338.29 591.019C1332.77 600.006 1352.98 630.846 1352.98 630.846C1352.98 630.846 1379.54 650.428 1393.54 651.027Z" fill="#E8D7A5"/>
<path d="M1386.55 518.934C1374.72 517.235 1365.45 568.593 1365.45 568.593C1365.45 568.593 1420.01 592.657 1427.92 580.924C1433.44 572.747 1419.12 541.546 1419.12 541.546C1419.12 541.546 1398.39 520.633 1386.55 518.934Z" fill="#E8D7A5"/>
<path d="M1407.47 716.421C1423.38 712.348 1414.45 658.9 1414.45 658.9C1414.45 658.9 1334.48 662.196 1329.07 677.194C1325.3 687.646 1356.38 710.522 1356.38 710.522C1356.38 710.522 1391.56 720.494 1407.47 716.421Z" fill="#E8D7A5"/>
<path d="M1535.72 864.476C1544.37 853.738 1493.15 804.644 1493.15 804.644C1493.15 804.644 1435.38 841.62 1443.76 858.736C1449.6 870.663 1492.15 880.181 1492.15 880.181C1492.15 880.181 1527.06 875.214 1535.72 864.476Z" fill="#E8D7A5"/>
<path d="M1436.97 676.247C1446.99 685.601 1509.49 616.746 1509.49 616.746C1509.49 616.746 1480.16 550.147 1460.11 562.5C1446.14 571.11 1428.02 624.566 1428.02 624.566C1428.02 624.566 1426.96 666.893 1436.97 676.247Z" fill="#E8D7A5"/>
<rect x="1372.33" y="109.267" width="103.026" height="45.2901" fill="#9B2228"/>
<rect x="1345.54" y="173.967" width="57.6944" height="45.2901" fill="#9B2228"/>
<rect x="1345.54" y="109.267" width="10.3026" height="45.2901" fill="#8B0B12"/>
<rect x="1372.33" y="497.467" width="103.026" height="45.2901" fill="#9B2228"/>
<rect x="1345.54" y="497.467" width="10.3026" height="45.2901" fill="#8B0B12"/>
<rect x="1419.72" y="173.967" width="103.026" height="45.2901" fill="#8B0B12"/>
<rect x="1345.54" y="68.29" width="57.6944" height="21.5667" fill="#9B2228"/>
<rect x="1419.72" y="68.29" width="103.026" height="21.5667" fill="#8B0B12"/>
<rect x="1372.33" y="238.667" width="103.026" height="45.2901" fill="#9B2228"/>
<rect x="1345.54" y="303.367" width="57.6944" height="45.2901" fill="#9B2228"/>
<rect x="1345.54" y="238.667" width="10.3026" height="45.2901" fill="#8B0B12"/>
<rect x="1419.72" y="303.367" width="103.026" height="45.2901" fill="#8B0B12"/>
<rect x="1372.33" y="368.067" width="103.026" height="45.2901" fill="#9B2228"/>
<rect x="1345.54" y="432.767" width="57.6944" height="45.2901" fill="#9B2228"/>
<rect x="1345.54" y="368.067" width="10.3026" height="45.2901" fill="#8B0B12"/>
<rect x="1419.72" y="432.767" width="103.026" height="45.2901" fill="#8B0B12"/>
<rect x="1345.54" y="23" width="655.243" height="45.2901" fill="#E8D7A5"/>
<g filter="url(#filter0_b_14_2267)">
<rect y="-7" width="1440" height="913" fill="#08151B" fill-opacity="0.37"/>
</g>
<defs>
<filter id="filter0_b_14_2267" x="-10" y="-17" width="1460" height="933" filterUnits="userSpaceOnUse" color-interpolation-filters="sRGB">
<feFlood flood-opacity="0" result="BackgroundImageFix"/>
<feGaussianBlur in="BackgroundImage" stdDeviation="5"/>
<feComposite in2="SourceAlpha" operator="in" result="effect1_backgroundBlur_14_2267"/>
<feBlend mode="normal" in="SourceGraphic" in2="effect1_backgroundBlur_14_2267" result="shape"/>
</filter>
<linearGradient id="paint0_linear_14_2267" x1="720" y1="-227" x2="720" y2="900" gradientUnits="userSpaceOnUse">
<stop stop-color="#F2F3D4"/>
<stop offset="0.659671" stop-color="#C9CF76"/>
</linearGradient>
</defs>
</svg>
