<svg width="1940" height="542" viewBox="0 0 1940 542" fill="none" xmlns="http://www.w3.org/2000/svg">
<g filter="url(#filter0_d)">
<path opacity="0.3608" d="M1567.79 336.303C1540.55 311.743 1513.27 287.129 1486.04 262.568C1466.95 285.014 1446.95 306.538 1426.2 327.032C1421.82 331.37 1416.06 335.924 1410.68 333.376C1408.01 332.074 1405.87 329.147 1402.96 328.876C1399.73 328.605 1397.16 331.749 1394.97 334.46C1385.78 345.954 1373.92 354.683 1360.97 359.454C1349.5 363.737 1337.17 364.984 1325.98 370.189C1311.79 376.803 1300.41 389.327 1288.94 400.93C1246.9 443.544 1198.43 477.864 1146.25 501.936C1286.7 495.376 1427.1 488.761 1567.55 482.201C1577.31 481.767 1588.88 480.032 1593.26 470.111C1595.49 465.068 1595.21 459.159 1594.83 453.574C1592.31 414.538 1599.4 364.821 1567.79 336.303Z" fill="#2B2F71"/>
<path opacity="0.2118" d="M1486.57 267.502C1510.42 293.147 1535.94 316.839 1562.79 338.309C1564.22 339.448 1565.83 341.074 1565.5 343.026C1565.31 343.948 1564.74 344.653 1564.22 345.303C1554.6 356.96 1543.89 367.424 1532.32 376.532C1535.41 367.044 1538.51 357.61 1541.6 348.122C1542.93 344.056 1543.98 338.634 1540.98 335.978C1539.41 334.568 1537.27 334.514 1535.27 334.46C1528.7 334.243 1522.13 333.375 1515.7 331.857C1519.51 330.339 1523.75 328.333 1525.18 323.996C1522.75 324.592 1520.46 322.369 1519.27 319.875C1518.08 317.381 1517.51 314.562 1516.04 312.285C1514.65 310.116 1512.56 308.653 1510.51 307.351C1501.23 301.442 1491.09 297.267 1480.66 294.99C1483.8 293.255 1486.95 291.466 1490.14 289.731C1490.9 289.297 1491.75 288.755 1491.9 287.779C1491.99 287.237 1491.8 286.695 1491.61 286.153C1489.52 280.785 1487.52 275.309 1486.57 267.502Z" fill="#6E8BC1"/>
<path opacity="0.1098" d="M1487.04 268.315C1483.14 272.544 1481.19 278.996 1481.99 285.068C1482.23 286.803 1482.66 288.593 1482.19 290.273C1481.04 294.285 1475.47 295.261 1475.04 299.436C1474.76 302.309 1477.19 304.478 1479.19 306.321C1483.99 310.605 1487.9 316.568 1488.76 323.454C1489.28 327.737 1488.56 332.129 1488.42 336.466C1487.95 350.454 1493.66 364.008 1502.09 374.201C1510.51 384.394 1521.42 391.496 1532.65 397.026C1546.84 404.02 1561.88 408.791 1577.21 411.177C1573.45 401.147 1577.74 389.87 1580.64 379.46C1582.69 372.141 1584.07 364.605 1584.78 356.96C1584.93 355.117 1585.07 353.219 1584.5 351.484C1583.55 348.665 1581.02 347.038 1578.69 345.629C1559.74 334.297 1540.98 321.827 1525.46 305.074C1513.7 292.442 1503.85 277.37 1487.04 268.315Z" fill="#6E8BC1"/>
<path d="M1445.15 448.478C1461.38 438.393 1475.19 421.694 1488.66 405.158C1536.41 346.604 1583.64 287.237 1630.39 227.002C1632.77 223.911 1635.82 220.604 1638.91 221.797C1640.87 222.556 1642.25 224.887 1643.53 227.164C1655.91 248.959 1668.24 270.7 1680.62 292.496C1683.14 296.887 1685.71 301.441 1689.24 304.044C1692.52 306.484 1696.28 306.972 1699.76 308.815C1713.09 315.917 1717.66 339.068 1725.56 356.146C1730.85 367.586 1738.08 376.803 1745.27 385.911C1773.41 421.749 1804.4 469.568 1832.59 505.405C1789.22 499.496 1746.04 510.122 1702.47 512.725C1640.2 516.466 1574.55 500.146 1512.27 503.887C1495.85 504.863 1479.09 505.785 1463.19 499.496C1447.34 493.152 1432.24 478.297 1445.15 448.478Z" fill="#2B2F71"/>
<path opacity="0.5216" d="M1638.2 221.146C1640.96 243.267 1650.01 265.333 1645.53 286.857C1642.68 300.52 1634.92 310.767 1627.3 319.93C1633.54 323.454 1639.53 327.683 1645.34 332.454C1646.96 333.809 1648.63 335.273 1649.58 337.604C1651.29 341.887 1650.1 347.472 1651.39 352.08C1653.2 358.424 1659.01 360.484 1661.53 366.285C1664.67 373.659 1661.24 383.309 1656.91 389.273C1652.58 395.237 1647.06 400.171 1644.87 408.249C1663.34 406.839 1681.81 406.351 1700.28 406.893C1702.76 406.948 1705.43 407.165 1707.38 409.387C1708.81 411.068 1709.57 413.616 1710.28 416.11C1712.23 422.779 1714.19 429.502 1716.09 436.171C1716.57 437.797 1717.04 439.478 1716.9 441.213C1716.66 444.086 1714.76 446.038 1713.14 447.773C1705.85 455.472 1700.19 466.207 1697 478.406C1701.28 481.496 1706.33 479.219 1711.09 478.948C1722.8 478.189 1734.09 491.58 1735.9 508.279C1769.03 506.707 1802.21 507.9 1835.35 509.092C1805.93 480.683 1779.41 446.038 1756.94 406.622C1748.94 392.634 1741.47 377.996 1732.66 365.092C1724.18 352.731 1714.28 341.508 1709.42 325.568C1708.09 321.177 1707.09 316.406 1704.76 312.99C1698.38 303.719 1686.33 310.062 1679.19 302.092C1677.38 300.086 1676.05 297.321 1674.77 294.61C1663.1 270.538 1651.58 246.412 1638.2 221.146Z" fill="url(#paint0_linear)"/>
<path opacity="0.3608" d="M371.367 264.35C408.757 234.755 446.213 205.095 483.603 175.5C509.815 202.547 537.27 228.483 565.77 253.178C571.784 258.404 579.693 263.892 587.08 260.822C590.74 259.254 593.682 255.726 597.669 255.399C602.114 255.073 605.644 258.862 608.651 262.128C621.267 275.978 637.544 286.497 655.324 292.246C671.077 297.407 688.007 298.909 703.369 305.181C722.848 313.151 738.471 328.243 754.225 342.223C811.944 393.573 878.489 434.927 950.131 463.934C757.297 456.029 564.528 448.059 371.693 440.154C358.293 439.631 342.409 437.54 336.395 425.585C333.323 419.509 333.715 412.388 334.238 405.659C337.702 358.621 327.963 298.713 371.367 264.35Z" fill="#2B2F71"/>
<path opacity="0.2118" d="M482.884 181.445C450.135 212.347 415.098 240.896 378.23 266.767C376.269 268.139 374.047 270.099 374.504 272.451C374.766 273.561 375.55 274.41 376.269 275.194C389.474 289.24 404.181 301.849 420.066 312.825C415.817 301.392 411.568 290.024 407.319 278.592C405.489 273.692 404.05 267.159 408.169 263.958C410.326 262.259 413.267 262.194 416.013 262.128C425.033 261.867 434.054 260.822 442.879 258.992C437.649 257.163 431.832 254.746 429.871 249.52C433.204 250.238 436.342 247.56 437.976 244.554C439.61 241.549 440.395 238.152 442.421 235.408C444.317 232.795 447.193 231.031 450.004 229.463C462.751 222.342 476.674 217.312 490.989 214.568C486.675 212.477 482.361 210.321 477.981 208.231C476.935 207.708 475.759 207.055 475.563 205.879C475.432 205.226 475.693 204.572 475.955 203.919C478.831 197.451 481.576 190.853 482.884 181.445Z" fill="#6E8BC1"/>
<path opacity="0.1098" d="M482.23 182.425C487.59 187.521 490.27 195.295 489.159 202.612C488.832 204.703 488.244 206.859 488.898 208.884C490.466 213.719 498.114 214.894 498.703 219.925C499.095 223.387 495.761 226.001 493.016 228.222C486.414 233.383 481.054 240.569 479.877 248.866C479.158 254.027 480.138 259.319 480.334 264.546C480.988 281.401 473.144 297.733 461.574 310.015C450.004 322.298 435.035 330.856 419.608 337.52C400.128 345.947 379.472 351.696 358.424 354.571C363.588 342.485 357.705 328.896 353.717 316.353C350.907 307.533 349.011 298.452 348.03 289.24C347.834 287.019 347.638 284.733 348.423 282.642C349.73 279.245 353.194 277.285 356.397 275.586C382.414 261.932 408.169 246.906 429.478 226.719C445.624 211.497 459.155 193.335 482.23 182.425Z" fill="#6E8BC1"/>
<path d="M539.754 399.518C517.463 387.367 498.507 367.245 480.008 347.319C414.444 276.762 349.599 205.226 285.408 132.644C282.14 128.92 277.956 124.935 273.707 126.372C271.027 127.286 269.132 130.096 267.367 132.84C250.371 159.102 233.441 185.3 216.445 211.563C212.981 216.854 209.451 222.342 204.614 225.478C200.103 228.418 194.939 229.006 190.168 231.227C171.865 239.785 165.589 267.681 154.738 288.26C147.483 302.045 137.547 313.151 127.676 324.127C89.0439 367.31 46.4896 424.932 7.79199 468.115C67.3419 460.994 126.63 473.799 186.442 476.935C271.942 481.442 362.084 461.778 447.585 466.286C470.137 467.462 493.146 468.572 514.979 460.994C536.747 453.35 557.468 435.45 539.754 399.518Z" fill="#2B2F71"/>
<path opacity="0.5216" d="M274.687 125.588C270.896 152.243 258.476 178.832 264.621 204.768C268.543 221.232 279.198 233.579 289.656 244.62C281.093 248.866 272.857 253.962 264.882 259.711C262.66 261.344 260.372 263.108 259.064 265.918C256.711 271.079 258.345 277.808 256.58 283.361C254.096 291.004 246.122 293.487 242.657 300.477C238.343 309.362 243.049 320.991 248.998 328.177C254.946 335.364 262.529 341.309 265.536 351.043C240.173 349.344 214.811 348.756 189.448 349.41C186.049 349.475 182.388 349.736 179.708 352.415C177.747 354.44 176.701 357.511 175.721 360.516C173.041 368.552 170.361 376.652 167.746 384.688C167.092 386.648 166.439 388.673 166.635 390.764C166.961 394.226 169.576 396.578 171.799 398.669C181.8 407.946 189.579 420.881 193.958 435.58C188.075 439.304 181.146 436.56 174.609 436.234C158.529 435.319 143.037 451.456 140.553 471.577C95.0571 469.683 49.4959 471.12 4 472.557C44.3972 438.324 80.8069 396.578 111.66 349.083C122.642 332.228 132.905 314.589 144.998 299.04C156.633 284.145 170.23 270.621 176.897 251.414C178.728 246.122 180.1 240.373 183.303 236.258C192.063 225.086 208.601 232.73 218.406 223.126C220.89 220.709 222.72 217.377 224.485 214.111C240.5 185.104 256.319 156.032 274.687 125.588Z" fill="url(#paint1_linear)"/>
<g clip-path="url(#clip0)">
<path opacity="0.3608" d="M1141.57 210.508C1198.25 165.611 1255.03 120.616 1311.71 75.7195C1351.44 116.751 1393.06 156.097 1436.26 193.56C1445.37 201.489 1457.36 209.814 1468.56 205.156C1474.11 202.777 1478.57 197.425 1484.61 196.93C1491.35 196.434 1496.7 202.183 1501.26 207.138C1520.38 228.149 1545.06 244.106 1572.01 252.828C1595.89 260.657 1621.55 262.937 1644.84 272.451C1674.37 284.542 1698.05 307.437 1721.93 328.646C1809.42 406.546 1910.3 469.282 2018.9 513.286C1726.59 501.294 1434.38 489.203 1142.07 477.211C1121.75 476.418 1097.68 473.246 1088.56 455.109C1083.9 445.892 1084.5 435.089 1085.29 424.881C1090.54 353.522 1075.78 262.639 1141.57 210.508Z" fill="#2B2F71"/>
<path opacity="0.2118" d="M1227.12 84.7383C1177.48 131.617 1124.37 174.928 1068.49 214.175C1065.51 216.256 1062.14 219.229 1062.84 222.797C1063.23 224.482 1064.42 225.771 1065.51 226.96C1085.53 248.268 1107.82 267.396 1131.9 284.047C1125.46 266.703 1119.02 249.458 1112.58 232.114C1109.8 224.68 1107.62 214.769 1113.87 209.913C1117.14 207.336 1121.6 207.237 1125.76 207.138C1139.43 206.742 1153.11 205.156 1166.48 202.381C1158.56 199.606 1149.74 195.939 1146.76 188.01C1151.82 189.1 1156.57 185.037 1159.05 180.478C1161.53 175.919 1162.72 170.765 1165.79 166.602C1168.66 162.638 1173.02 159.962 1177.28 157.583C1196.61 146.781 1217.71 139.149 1239.41 134.987C1232.87 131.815 1226.33 128.545 1219.69 125.373C1218.11 124.58 1216.32 123.589 1216.03 121.805C1215.83 120.814 1216.23 119.823 1216.62 118.832C1220.98 109.02 1225.14 99.01 1227.12 84.7383Z" fill="#6E8BC1"/>
<path opacity="0.1098" d="M1226.13 86.2249C1234.26 93.9554 1238.32 105.749 1236.64 116.85C1236.14 120.021 1235.25 123.292 1236.24 126.364C1238.62 133.698 1250.21 135.482 1251.1 143.113C1251.7 148.366 1246.65 152.331 1242.48 155.7C1232.48 163.53 1224.35 174.432 1222.57 187.019C1221.48 194.848 1222.96 202.876 1223.26 210.805C1224.25 236.375 1212.36 261.152 1194.82 279.785C1177.28 298.417 1154.59 311.401 1131.21 321.51C1101.68 334.295 1070.37 343.017 1038.46 347.377C1046.29 329.042 1037.37 308.428 1031.33 289.399C1027.07 276.019 1024.19 262.243 1022.71 248.268C1022.41 244.899 1022.11 241.43 1023.3 238.258C1025.28 233.105 1030.53 230.131 1035.39 227.554C1074.83 206.841 1113.87 184.046 1146.17 153.421C1170.64 130.328 1191.16 102.776 1226.13 86.2249Z" fill="#6E8BC1"/>
<path d="M1313.33 415.565C1279.54 397.13 1250.81 366.605 1222.76 336.376C1123.38 229.339 1025.08 120.814 927.78 10.7038C922.826 5.05462 916.484 -0.991039 910.044 1.18936C905.981 2.57689 903.107 6.83858 900.432 11.0012C874.669 50.843 849.005 90.5858 823.243 130.428C817.991 138.456 812.64 146.781 805.308 151.538C798.471 155.998 790.643 156.89 783.409 160.26C755.665 173.243 746.152 215.562 729.704 246.782C718.705 267.694 703.644 284.542 688.681 301.193C630.12 366.704 565.614 454.118 506.954 519.629C597.223 508.826 687.096 528.252 777.761 533.009C907.368 539.848 1044.01 510.016 1173.62 516.854C1207.8 518.638 1242.68 520.323 1275.78 508.826C1308.77 497.231 1340.18 470.075 1313.33 415.565Z" fill="#2B2F71"/>
<path opacity="0.5216" d="M911.529 0C905.782 40.4365 886.955 80.7739 896.269 120.12C902.215 145.096 918.366 163.827 934.22 180.577C921.24 187.019 908.754 194.749 896.666 203.471C893.297 205.949 889.829 208.625 887.847 212.886C884.28 220.716 886.757 230.924 884.082 239.349C880.316 250.944 868.227 254.71 862.976 265.315C856.436 278.794 863.57 296.435 872.587 307.337C881.604 318.239 893.099 327.258 897.657 342.026C859.21 339.449 820.764 338.557 782.318 339.548C777.166 339.647 771.617 340.043 767.554 344.107C764.582 347.179 762.996 351.837 761.51 356.396C757.447 368.587 753.385 380.876 749.421 393.067C748.43 396.04 747.439 399.112 747.737 402.284C748.232 407.537 752.196 411.105 755.565 414.276C770.725 428.35 782.516 447.973 789.155 470.273C780.237 475.922 769.734 471.759 759.825 471.264C735.45 469.876 711.966 494.356 708.201 524.882C639.235 522.008 570.171 524.188 501.206 526.369C562.442 474.435 617.634 411.105 664.404 339.052C681.05 313.482 696.607 286.723 714.939 263.135C732.576 240.538 753.186 220.022 763.293 190.884C766.068 182.856 768.149 174.135 773.004 167.891C786.282 150.943 811.351 162.539 826.214 147.97C829.98 144.303 832.754 139.248 835.429 134.293C859.706 90.2884 883.685 46.1849 911.529 0Z" fill="url(#paint2_linear)"/>
</g>
</g>
<defs>
<filter id="filter0_d" x="0" y="0" width="1939.31" height="542" filterUnits="userSpaceOnUse" color-interpolation-filters="sRGB">
<feFlood flood-opacity="0" result="BackgroundImageFix"/>
<feColorMatrix in="SourceAlpha" type="matrix" values="0 0 0 0 0 0 0 0 0 0 0 0 0 0 0 0 0 0 127 0"/>
<feOffset dy="4"/>
<feGaussianBlur stdDeviation="2"/>
<feColorMatrix type="matrix" values="0 0 0 0 0 0 0 0 0 0 0 0 0 0 0 0 0 0 0.25 0"/>
<feBlend mode="normal" in2="BackgroundImageFix" result="effect1_dropShadow"/>
<feBlend mode="normal" in="SourceGraphic" in2="effect1_dropShadow" result="shape"/>
</filter>
<linearGradient id="paint0_linear" x1="1684.13" y1="403.943" x2="1764.2" y2="358.383" gradientUnits="userSpaceOnUse">
<stop stop-color="#6E8BC1"/>
<stop offset="0.2464" stop-color="#6887BE" stop-opacity="0.7585"/>
<stop offset="0.5689" stop-color="#587BB5" stop-opacity="0.4423"/>
<stop offset="0.9323" stop-color="#3D67A6" stop-opacity="0.0860165"/>
<stop offset="1" stop-color="#3763A3" stop-opacity="0.0196078"/>
</linearGradient>
<linearGradient id="paint1_linear" x1="211.622" y1="345.855" x2="109.166" y2="279.425" gradientUnits="userSpaceOnUse">
<stop stop-color="#6E8BC1"/>
<stop offset="0.2464" stop-color="#6887BE" stop-opacity="0.7585"/>
<stop offset="0.5689" stop-color="#587BB5" stop-opacity="0.4423"/>
<stop offset="0.9323" stop-color="#3D67A6" stop-opacity="0.0860165"/>
<stop offset="1" stop-color="#3763A3" stop-opacity="0.0196078"/>
</linearGradient>
<linearGradient id="paint2_linear" x1="815.931" y1="334.155" x2="660.55" y2="233.489" gradientUnits="userSpaceOnUse">
<stop stop-color="#6E8BC1"/>
<stop offset="0.2464" stop-color="#6887BE" stop-opacity="0.7585"/>
<stop offset="0.5689" stop-color="#587BB5" stop-opacity="0.4423"/>
<stop offset="0.9323" stop-color="#3D67A6" stop-opacity="0.0860165"/>
<stop offset="1" stop-color="#3763A3" stop-opacity="0.0196078"/>
</linearGradient>
<clipPath id="clip0">
<rect width="1434" height="534" fill="white" transform="translate(501.306)"/>
</clipPath>
</defs>
</svg>
