<svg width="1328" height="877" viewBox="0 0 1328 877" fill="none" xmlns="http://www.w3.org/2000/svg">
<g filter="url(#filter0_d_401_17336)">
<rect x="26" y="109" width="1277" height="768" fill="url(#paint0_linear_401_17336)"/>
</g>
<g opacity="0.5" filter="url(#filter1_d_401_17336)">
<rect x="26" y="109" width="1277" height="768" fill="url(#paint1_radial_401_17336)"/>
</g>
<rect x="26" y="763" width="1277" height="114" fill="#08151B"/>
<rect x="26" y="736" width="1277" height="27" fill="#F6F4D4"/>
<g filter="url(#filter2_d_401_17336)">
<rect x="4" width="1320" height="136" rx="30" fill="#E8D7A5"/>
</g>
<path opacity="0.502" d="M117.21 281.89C115.82 344.35 113.05 409.33 113.05 469.28C113.05 472.52 115.92 475.52 119.16 475.5C122.4 475.49 125.45 472.47 125.22 469.23C121.13 409.84 121.59 345.3 117.21 281.89Z" fill="#F6F4D4"/>
<path opacity="0.502" d="M120.31 501.19C115.52 500.37 110.95 506.48 112.42 511.73C113.89 516.98 120.72 518.95 124.21 515.13C127.7 511.31 126.5 502.25 120.31 501.19Z" fill="#F6F4D4"/>
<path opacity="0.502" d="M39.5 779.74C37.56 804.78 37.38 829.96 38.95 855.02C39.06 856.82 41.71 856.88 41.89 855.08C44.39 830.54 43.74 805.49 39.5 779.74Z" fill="#F6F4D4"/>
<path opacity="0.502" d="M214.33 859.93C313.91 854.75 404.32 855.54 498.55 860.59C500.44 860.69 500.34 862.87 498.45 862.87C404.12 862.76 315.02 862.31 214.44 862.21C212.54 862.21 212.44 860.03 214.33 859.93Z" fill="#F6F4D4"/>
<path opacity="0.502" d="M36.9397 8.36011C23.5597 11.8401 14.5197 24.8401 16.6397 37.5501C16.8297 38.7101 18.0997 39.6801 19.3897 39.6601C20.6797 39.6301 21.7897 38.6201 21.7997 37.4501C21.9397 25.8501 28.5797 14.7601 36.9397 8.36011Z" fill="#F6F4D4"/>
<path opacity="0.502" d="M1211.38 312.4C1210.38 409.28 1213.33 504.77 1212.33 601.65C1212.27 607.57 1209.49 613.14 1206.47 613.39C1203.45 613.64 1200.71 608.54 1200.7 602.63C1200.45 508.88 1207.57 422.72 1211.38 312.4Z" fill="#F6F4D4"/>
<path opacity="0.502" d="M18.7399 48.4101C21.7299 47.8701 24.6399 51.2701 23.6499 54.1401C22.6599 57.0101 18.2599 57.8801 16.2499 55.6001C14.2399 53.3301 15.6199 48.9701 18.7399 48.4101Z" fill="#F6F4D4"/>
<path opacity="0.502" d="M1307.96 30.78C1306.3 53.79 1304.64 76.79 1302.99 99.8C1302.86 101.65 1304.46 103.44 1306.31 103.51C1308.16 103.58 1309.89 101.92 1309.9 100.07C1309.99 77.12 1310.08 54.17 1307.96 30.78Z" fill="#F6F4D4"/>
<g filter="url(#filter3_d_401_17336)">
<rect x="92.5" y="184" width="1147" height="612" rx="70" fill="#08151B"/>
<rect x="82.5" y="174" width="1167" height="632" rx="80" stroke="#F6F4D4" stroke-width="20"/>
</g>
<path opacity="0.102" d="M360.2 176L304.02 176.86L126.73 803.89L179.3 803.31" fill="#F6F4D4"/>
<path opacity="0.102" d="M263.96 178.04L280.21 178.58L105.22 774.56L88 773.99L263.96 178.04Z" fill="#F6F4D4"/>
<path opacity="0.102" d="M1129.09 176.27L1141.43 177.87L940.48 803.19L927.39 801.49L1129.09 176.27Z" fill="#F6F4D4"/>
<path opacity="0.102" d="M1182.38 170.14L1208.12 168.61L999.81 809.66L972.52 811.28L1182.38 170.14Z" fill="#F6F4D4"/>
<circle cx="156" cy="61" r="27.5" fill="#F6F4D2" stroke="#08151B" stroke-width="5"/>
<circle cx="156" cy="61.0001" r="18.9286" fill="#E8D7A5" stroke="#08151B" stroke-width="5"/>
<circle cx="326" cy="61" r="27.5" fill="#F6F4D2" stroke="#08151B" stroke-width="5"/>
<circle cx="326" cy="61.0001" r="18.9286" fill="#E8D7A5" stroke="#08151B" stroke-width="5"/>
<circle cx="836" cy="61" r="27.5" fill="#F6F4D2" stroke="#08151B" stroke-width="5"/>
<circle cx="836" cy="61.0001" r="18.9286" fill="#E8D7A5" stroke="#08151B" stroke-width="5"/>
<circle cx="1176" cy="61" r="27.5" fill="#F6F4D2" stroke="#08151B" stroke-width="5"/>
<circle cx="1176" cy="61.0001" r="18.9286" fill="#E8D7A5" stroke="#08151B" stroke-width="5"/>
<circle cx="1006" cy="61" r="27.5" fill="#F6F4D2" stroke="#08151B" stroke-width="5"/>
<circle cx="1006" cy="61.0001" r="18.9286" fill="#E8D7A5" stroke="#08151B" stroke-width="5"/>
<circle cx="496" cy="61" r="27.5" fill="#F6F4D2" stroke="#08151B" stroke-width="5"/>
<circle cx="496" cy="61.0001" r="18.9286" fill="#E8D7A5" stroke="#08151B" stroke-width="5"/>
<circle cx="666" cy="61" r="27.5" fill="#F6F4D2" stroke="#08151B" stroke-width="5"/>
<circle cx="666" cy="61.0001" r="18.9286" fill="#E8D7A5" stroke="#08151B" stroke-width="5"/>
<defs>
<filter id="filter0_d_401_17336" x="22" y="109" width="1285" height="776" filterUnits="userSpaceOnUse" color-interpolation-filters="sRGB">
<feFlood flood-opacity="0" result="BackgroundImageFix"/>
<feColorMatrix in="SourceAlpha" type="matrix" values="0 0 0 0 0 0 0 0 0 0 0 0 0 0 0 0 0 0 127 0" result="hardAlpha"/>
<feOffset dy="4"/>
<feGaussianBlur stdDeviation="2"/>
<feComposite in2="hardAlpha" operator="out"/>
<feColorMatrix type="matrix" values="0 0 0 0 0 0 0 0 0 0 0 0 0 0 0 0 0 0 0.25 0"/>
<feBlend mode="normal" in2="BackgroundImageFix" result="effect1_dropShadow_401_17336"/>
<feBlend mode="normal" in="SourceGraphic" in2="effect1_dropShadow_401_17336" result="shape"/>
</filter>
<filter id="filter1_d_401_17336" x="22" y="109" width="1285" height="776" filterUnits="userSpaceOnUse" color-interpolation-filters="sRGB">
<feFlood flood-opacity="0" result="BackgroundImageFix"/>
<feColorMatrix in="SourceAlpha" type="matrix" values="0 0 0 0 0 0 0 0 0 0 0 0 0 0 0 0 0 0 127 0" result="hardAlpha"/>
<feOffset dy="4"/>
<feGaussianBlur stdDeviation="2"/>
<feComposite in2="hardAlpha" operator="out"/>
<feColorMatrix type="matrix" values="0 0 0 0 0 0 0 0 0 0 0 0 0 0 0 0 0 0 0.25 0"/>
<feBlend mode="normal" in2="BackgroundImageFix" result="effect1_dropShadow_401_17336"/>
<feBlend mode="normal" in="SourceGraphic" in2="effect1_dropShadow_401_17336" result="shape"/>
</filter>
<filter id="filter2_d_401_17336" x="0" y="0" width="1328" height="144" filterUnits="userSpaceOnUse" color-interpolation-filters="sRGB">
<feFlood flood-opacity="0" result="BackgroundImageFix"/>
<feColorMatrix in="SourceAlpha" type="matrix" values="0 0 0 0 0 0 0 0 0 0 0 0 0 0 0 0 0 0 127 0" result="hardAlpha"/>
<feOffset dy="4"/>
<feGaussianBlur stdDeviation="2"/>
<feComposite in2="hardAlpha" operator="out"/>
<feColorMatrix type="matrix" values="0 0 0 0 0 0 0 0 0 0 0 0 0 0 0 0 0 0 0.25 0"/>
<feBlend mode="normal" in2="BackgroundImageFix" result="effect1_dropShadow_401_17336"/>
<feBlend mode="normal" in="SourceGraphic" in2="effect1_dropShadow_401_17336" result="shape"/>
</filter>
<filter id="filter3_d_401_17336" x="68.5" y="164" width="1195" height="660" filterUnits="userSpaceOnUse" color-interpolation-filters="sRGB">
<feFlood flood-opacity="0" result="BackgroundImageFix"/>
<feColorMatrix in="SourceAlpha" type="matrix" values="0 0 0 0 0 0 0 0 0 0 0 0 0 0 0 0 0 0 127 0" result="hardAlpha"/>
<feOffset dy="4"/>
<feGaussianBlur stdDeviation="2"/>
<feComposite in2="hardAlpha" operator="out"/>
<feColorMatrix type="matrix" values="0 0 0 0 0 0 0 0 0 0 0 0 0 0 0 0 0 0 0.25 0"/>
<feBlend mode="normal" in2="BackgroundImageFix" result="effect1_dropShadow_401_17336"/>
<feBlend mode="normal" in="SourceGraphic" in2="effect1_dropShadow_401_17336" result="shape"/>
</filter>
<linearGradient id="paint0_linear_401_17336" x1="664.5" y1="-155" x2="664" y2="1032" gradientUnits="userSpaceOnUse">
<stop stop-color="#C9CF76"/>
<stop offset="1" stop-color="#78AC42"/>
</linearGradient>
<radialGradient id="paint1_radial_401_17336" cx="0" cy="0" r="1" gradientUnits="userSpaceOnUse" gradientTransform="translate(664.25 438.5) rotate(90.0241) scale(593.5 986.848)">
<stop stop-color="#C9CF76"/>
<stop offset="1" stop-color="#78AC42"/>
</radialGradient>
</defs>
</svg>
