<svg width="1691" height="821" viewBox="0 0 1691 821" fill="none" xmlns="http://www.w3.org/2000/svg">
<path d="M470 718.105V43.8952C470 38.4316 474.702 34 480.5 34C486.298 34 491 38.4316 491 43.8952V718.105C491 723.568 486.298 728 480.5 728C474.702 728 470 723.568 470 718.105Z" fill="#522816"/>
<path d="M1340 718.105V43.8952C1340 38.4316 1344.93 34 1351 34C1357.07 34 1362 38.4316 1362 43.8952V718.105C1362 723.568 1357.07 728 1351 728C1344.93 728 1340 723.568 1340 718.105Z" fill="#522816"/>
<path d="M455 544.171V89.89C455 59.0625 481.996 34 515.347 34H1319.65C1352.94 34 1380 59.0018 1380 89.89V544.11C1380 574.938 1353 600 1319.65 600H515.282C481.996 600 455 574.998 455 544.171Z" fill="#EBE4D8"/>
<path d="M455.352 415C462.227 491.549 447.233 573.201 416 644.343C495.424 681.099 590.955 649.507 679.087 659.289C733.106 665.242 783.85 686.871 837.542 694.586C924.364 706.98 1011.58 682.436 1098.66 671.804C1193.21 660.261 1290.12 665.303 1382.7 686.627C1387.22 605.279 1378.64 530.674 1376.55 452.667C1083.6 449.751 792.821 443.311 455.352 415Z" fill="#EBE4D8"/>
<path d="M1380 102.906L1379.61 29.8942C1379.61 25.2546 1375 22.5685 1370 23.0569C1305.52 29.4058 1289.8 41.31 1249.27 48.2693C1241.96 49.5513 1240.65 58.7694 1247.42 61.6386C1287.3 78.7928 1328.09 94.3598 1369.6 109.499C1374.54 111.331 1380 107.912 1380 102.906Z" fill="#EBE4D8"/>
<path d="M457.195 114.362L457 34.1861C457 26.7703 464.49 23.1839 472.306 24.1565C513.795 29.5664 537.439 42.8783 571.112 47.3157C582.771 48.8353 584.725 63.7885 573.717 67.7395C560.039 72.7239 546.622 78.1338 533.596 84.3946C513.144 94.2418 493.67 106.338 476.409 122.021C469.31 128.525 457.261 123.662 457.195 114.362Z" fill="#EBE4D8"/>
<g opacity="0.1608">
<path opacity="0.1608" d="M485.302 90.9124C492.767 235.638 522.037 380.606 585.29 513.134C599.172 542.261 614.953 571.024 637.674 594.872C660.396 618.719 690.975 637.409 725.025 641.475C681.284 654.643 632.043 635.953 600.154 605.248C568.265 574.483 550.586 533.644 535.853 493.23C489.296 365.557 464.741 229.145 485.302 90.9124Z" fill="#BFB6A6"/>
<path opacity="0.1608" d="M486.808 349.051C495.124 451.117 528.519 551.424 583.719 640.079C565.122 637.591 549.014 625.941 538.21 611.68C527.406 597.42 521.185 580.672 515.619 564.046C493.16 496.993 479.474 426.723 486.808 349.051Z" fill="#BFB6A6"/>
<path opacity="0.1608" d="M1347.87 85.269C1342.3 207.178 1322.6 328.48 1289.14 446.445C1267.72 522.054 1238.58 599.423 1177.95 653.793C1201.26 664.048 1230.33 653.551 1247.42 635.589C1264.51 617.627 1272.31 593.84 1279.38 570.842C1328.1 411.674 1363.59 245.893 1347.87 85.269Z" fill="#BFB6A6"/>
<path opacity="0.1608" d="M1343.75 381.577C1336.35 476.422 1306.95 569.75 1258.16 653.429C1295.62 655.371 1332.88 659.983 1369.54 667.143C1352.13 661.985 1340.21 646.451 1335.43 630.128C1330.65 613.804 1331.89 596.51 1333.2 579.641C1338.11 514.59 1343.03 449.54 1343.75 381.577Z" fill="#BFB6A6"/>
<path opacity="0.1608" d="M1221.04 570.417C1195.56 624.666 1138.2 664.959 1074.95 673.09C1108.67 661.378 1139.64 642.931 1165.12 619.387C1178.47 607.008 1190.33 593.294 1202.11 579.58C1208.01 572.723 1213.83 565.927 1221.04 570.417Z" fill="#BFB6A6"/>
<path opacity="0.1608" d="M676.7 574.786C709.048 607.979 749.383 634.436 793.844 651.73C768.307 647.361 742.311 642.81 719.066 632.009C695.886 621.147 675.391 602.942 676.7 574.786Z" fill="#BFB6A6"/>
<path opacity="0.1608" d="M483.993 505.913C490.475 534.312 496.958 562.65 503.44 591.049C505.601 600.576 507.565 611.195 501.934 619.387C496.172 627.7 484.451 630.431 473.843 630.977C463.17 631.523 452.104 630.552 442.216 634.254C464.807 609.253 468.867 574.483 472.01 541.958C473.45 525.877 475.022 509.857 483.993 505.913Z" fill="#BFB6A6"/>
<path opacity="0.1608" d="M1334.32 33.0225C1297.45 58.2659 1247.88 66.7613 1203.75 55.4746C1244.87 53.3507 1285.6 45.5835 1334.32 33.0225Z" fill="#BFB6A6"/>
<path opacity="0.1608" d="M1341.26 36.6633C1329.41 57.2343 1305.57 71.4945 1280.43 73.0115C1301.25 66.822 1320.3 55.6566 1341.26 36.6633Z" fill="#BFB6A6"/>
<path opacity="0.1608" d="M487.856 35.2676C522.888 60.9358 567.742 74.8319 612.399 73.7396C572.849 61.2392 533.299 48.7389 487.856 35.2676Z" fill="#BFB6A6"/>
<path opacity="0.1608" d="M562.896 41.8821C582.344 56.2636 608.077 63.1206 632.763 60.572C635.579 60.2685 639.049 59.237 639.377 56.6277C639.77 53.4115 635.186 52.0159 631.716 51.7125C608.339 49.9527 584.963 48.1323 562.896 41.8821Z" fill="#BFB6A6"/>
</g>
<path opacity="0.651" d="M491 536.15V157.85C491 101.59 540.24 56 601.005 56H1241C1301.76 56 1351 101.59 1351 157.85V536.15C1351 592.41 1301.76 638 1241 638H601.005C540.24 638 491 592.349 491 536.15Z" fill="url(#paint0_radial)"/>
<path d="M1408.44 713.003C1396.19 687.881 1378.77 665.429 1368.74 639.275C1359.18 614.153 1354.4 587.696 1352.95 561.117C1349.94 503.834 1362.65 447.278 1374.64 391.451C1380.6 363.78 1387.48 335.806 1387.54 307.468C1387.67 278.28 1381.25 249.395 1377.32 220.572C1373.46 191.748 1370.84 162.742 1371.43 133.675C1371.76 118.99 1373.07 104.366 1375.03 89.7419C1376.93 75.6031 1379.03 61.4036 1379.35 47.0827C1379.49 39.9829 1379.16 32.8832 1378.24 25.8441C1377.98 24.0236 1376.08 23.2955 1374.64 23.5989C1374.57 22.0211 1372.74 20.3827 1370.64 21.2323C1343.78 32.337 1315.02 39.8009 1285.54 41.3179C1270.74 42.1068 1256 41.2572 1241.39 38.9513C1227.31 36.7061 1213.35 34.0361 1199.01 35.6745C1185.71 37.1916 1172.93 41.2572 1159.96 44.0486C1144.7 47.3254 1129.24 49.7527 1113.65 51.209C1084.69 53.9397 1055.54 53.3936 1026.65 49.9954C997.17 46.4759 968.084 40.5291 938.539 37.3736C909.387 34.2788 880.825 35.4925 851.87 39.3154C821.08 43.3811 790.487 48.1749 759.435 50.4202C728.908 52.6047 698.184 53.0902 667.591 51.9372C633.722 50.6022 600.181 46.6579 566.575 42.7136C530.937 38.5266 495.365 34.2182 459.794 29.5457C458.614 29.3636 457.501 29.667 456.846 30.6379C415.575 94.5964 448.002 169.72 459.859 236.652C473.616 314.143 451.867 391.026 447.412 468.274C446.299 487.692 446.43 507.111 448.198 526.468C449.967 545.765 452.915 565.001 454.422 584.358C456.977 617.733 454.553 653.535 434.114 682.299C394.48 738.065 308.179 692.493 247.058 700.382C184.889 708.392 41.7443 736.791 7.44681 776.669C4.49887 783.162 2.07501 789.776 0.109713 796.512C-0.807425 799.546 4.30234 800.82 5.15397 797.786C22.3175 739.471 174.932 717.13 239.131 706.389C298.483 696.498 376.989 742.98 424.746 700.382C448.329 679.325 458.156 648.438 460.187 618.886C462.873 580.414 453.243 542.245 452.129 503.894C449.902 427.071 473.092 351.705 469.489 274.821C467.655 236.592 456.649 199.879 448.788 162.499C441.516 127.971 437.651 91.3196 449.509 57.2772C452.326 49.2672 455.994 41.6213 460.58 34.3395C490.911 38.3445 521.242 42.0461 551.638 45.6263C581.904 49.3886 612.3 53.3329 642.828 55.4567C704.276 59.6438 765.724 56.6097 826.583 47.8109C857.438 43.3811 888.162 38.9513 919.476 40.6504C950.134 42.3495 980.203 48.357 1010.53 52.7261C1039.23 56.8524 1068.05 58.8549 1097.07 57.3379C1126.81 55.7602 1155.25 50.1168 1184.07 43.4418C1192.06 41.6213 1200.12 40.1043 1208.37 40.0436C1217.48 39.9829 1226.39 41.5 1235.3 42.9563C1250.82 45.505 1266.35 46.9613 1282.2 46.4152C1313.71 45.2622 1344.37 37.495 1373.07 25.662C1373.07 25.7227 1373.07 25.8441 1373.07 25.9048C1376.8 54.2431 1369.99 82.2781 1367.5 110.434C1365.01 138.833 1366.25 167.475 1369.14 195.813C1372.08 224.395 1377.72 252.733 1380.8 281.314C1382.3 295.392 1382.76 309.47 1381.52 323.548C1380.21 338.051 1377.46 352.433 1374.51 366.754C1363.17 421.731 1349.02 476.648 1347.39 532.84C1346.6 558.508 1348.5 584.358 1354.2 609.541C1360.09 635.331 1370.64 659.179 1384.53 682.056C1398.75 705.479 1415.06 729.994 1414.73 757.787C1414.47 780.785 1400.12 801.599 1377.65 811.49C1372.35 813.856 1366.71 815.374 1360.88 816.284C1357.54 816.769 1358.98 821.502 1362.26 820.956C1384.46 817.558 1404.25 803.419 1413.68 784.547C1425.34 761.367 1419.25 735.213 1408.44 713.003Z" fill="#6D6D6D"/>
<path d="M1407.52 754.524C1411.32 754.524 1414.4 751.672 1414.4 748.153C1414.4 744.634 1411.32 741.781 1407.52 741.781C1403.73 741.781 1400.65 744.634 1400.65 748.153C1400.65 751.672 1403.73 754.524 1407.52 754.524Z" fill="#FBB626"/>
<path d="M1369.41 670.359C1373.64 670.359 1377.07 667.181 1377.07 663.26C1377.07 659.339 1373.64 656.16 1369.41 656.16C1365.18 656.16 1361.75 659.339 1361.75 663.26C1361.75 667.181 1365.18 670.359 1369.41 670.359Z" fill="#FBB626"/>
<path d="M1365.35 41.5785C1373.27 41.5785 1379.69 35.6287 1379.69 28.2892C1379.69 20.9498 1373.27 15 1365.35 15C1357.43 15 1351.01 20.9498 1351.01 28.2892C1351.01 35.6287 1357.43 41.5785 1365.35 41.5785Z" fill="#FBB626"/>
<path d="M1299.94 55.8385C1303.66 55.8385 1306.68 53.0402 1306.68 49.5883C1306.68 46.1364 1303.66 43.3381 1299.94 43.3381C1296.21 43.3381 1293.19 46.1364 1293.19 49.5883C1293.19 53.0402 1296.21 55.8385 1299.94 55.8385Z" fill="#FBB626"/>
<path d="M1234.26 38.1803C1239.33 38.1803 1243.43 34.3768 1243.43 29.6849C1243.43 24.993 1239.33 21.1895 1234.26 21.1895C1229.2 21.1895 1225.1 24.993 1225.1 29.6849C1225.1 34.3768 1229.2 38.1803 1234.26 38.1803Z" fill="#FBB626"/>
<path d="M1391.94 70.4627C1396.31 70.4627 1399.86 67.1754 1399.86 63.1203C1399.86 59.0651 1396.31 55.7778 1391.94 55.7778C1387.56 55.7778 1384.02 59.0651 1384.02 63.1203C1384.02 67.1754 1387.56 70.4627 1391.94 70.4627Z" fill="#FBB626"/>
<path d="M1362.01 199.836C1366.17 199.836 1369.54 196.711 1369.54 192.857C1369.54 189.003 1366.17 185.879 1362.01 185.879C1357.86 185.879 1354.48 189.003 1354.48 192.857C1354.48 196.711 1357.86 199.836 1362.01 199.836Z" fill="#FBB626"/>
<path d="M1361.75 97.648C1363.74 97.648 1365.35 96.2896 1365.35 94.6139C1365.35 92.9382 1363.74 91.5798 1361.75 91.5798C1359.76 91.5798 1358.15 92.9382 1358.15 94.6139C1358.15 96.2896 1359.76 97.648 1361.75 97.648Z" fill="#FBB626"/>
<path d="M1374.59 172.226C1377.37 172.226 1379.63 170.134 1379.63 167.553C1379.63 164.973 1377.37 162.881 1374.59 162.881C1371.8 162.881 1369.54 164.973 1369.54 167.553C1369.54 170.134 1371.8 172.226 1374.59 172.226Z" fill="#FBB626"/>
<path d="M1374.72 262.459C1379.89 262.459 1384.08 258.574 1384.08 253.781C1384.08 248.989 1379.89 245.104 1374.72 245.104C1369.55 245.104 1365.35 248.989 1365.35 253.781C1365.35 258.574 1369.55 262.459 1374.72 262.459Z" fill="#FBB626"/>
<path d="M1368.17 353.056C1371.71 353.056 1374.59 350.394 1374.59 347.109C1374.59 343.825 1371.71 341.163 1368.17 341.163C1364.63 341.163 1361.75 343.825 1361.75 347.109C1361.75 350.394 1364.63 353.056 1368.17 353.056Z" fill="#FBB626"/>
<path d="M1393.71 305.421C1397.76 305.421 1401.04 302.378 1401.04 298.625C1401.04 294.871 1397.76 291.829 1393.71 291.829C1389.66 291.829 1386.37 294.871 1386.37 298.625C1386.37 302.378 1389.66 305.421 1393.71 305.421Z" fill="#FBB626"/>
<path d="M1357.5 426.541C1361.84 426.541 1365.35 423.281 1365.35 419.26C1365.35 415.238 1361.84 411.978 1357.5 411.978C1353.16 411.978 1349.64 415.238 1349.64 419.26C1349.64 423.281 1353.16 426.541 1357.5 426.541Z" fill="#FBB626"/>
<path d="M1388.86 375.387C1391.5 375.387 1393.64 373.404 1393.64 370.957C1393.64 368.511 1391.5 366.527 1388.86 366.527C1386.22 366.527 1384.08 368.511 1384.08 370.957C1384.08 373.404 1386.22 375.387 1388.86 375.387Z" fill="#FBB626"/>
<path d="M1343.88 517.442C1349.73 517.442 1354.48 513.041 1354.48 507.612C1354.48 502.183 1349.73 497.781 1343.88 497.781C1338.02 497.781 1333.27 502.183 1333.27 507.612C1333.27 513.041 1338.02 517.442 1343.88 517.442Z" fill="#FBB626"/>
<path d="M1361.36 599.908C1365.16 599.908 1368.23 597.056 1368.23 593.537C1368.23 590.018 1365.16 587.165 1361.36 587.165C1357.56 587.165 1354.48 590.018 1354.48 593.537C1354.48 597.056 1357.56 599.908 1361.36 599.908Z" fill="#FBB626"/>
<path d="M1354.03 628.428C1355.65 628.428 1356.97 627.206 1356.97 625.698C1356.97 624.19 1355.65 622.967 1354.03 622.967C1352.4 622.967 1351.08 624.19 1351.08 625.698C1351.08 627.206 1352.4 628.428 1354.03 628.428Z" fill="#FBB626"/>
<path d="M1393.9 720.118C1397.59 720.118 1400.58 717.347 1400.58 713.929C1400.58 710.51 1397.59 707.739 1393.9 707.739C1390.21 707.739 1387.22 710.51 1387.22 713.929C1387.22 717.347 1390.21 720.118 1393.9 720.118Z" fill="#FBB626"/>
<path d="M1402.87 673.09C1404.86 673.09 1406.48 671.596 1406.48 669.752C1406.48 667.909 1404.86 666.415 1402.87 666.415C1400.88 666.415 1399.27 667.909 1399.27 669.752C1399.27 671.596 1400.88 673.09 1402.87 673.09Z" fill="#FBB626"/>
<path d="M707.476 66.3971C710.622 66.3971 713.173 64.0335 713.173 61.1179C713.173 58.2022 710.622 55.8386 707.476 55.8386C704.33 55.8386 701.779 58.2022 701.779 61.1179C701.779 64.0335 704.33 66.3971 707.476 66.3971Z" fill="#FBB626"/>
<path d="M789.981 47.3432C796.924 47.3432 802.553 42.1269 802.553 35.6924C802.553 29.2578 796.924 24.0415 789.981 24.0415C783.037 24.0415 777.409 29.2578 777.409 35.6924C777.409 42.1269 783.037 47.3432 789.981 47.3432Z" fill="#FBB626"/>
<path d="M947.002 66.3971C953.873 66.3971 959.443 61.2352 959.443 54.8676C959.443 48.5001 953.873 43.3381 947.002 43.3381C940.131 43.3381 934.561 48.5001 934.561 54.8676C934.561 61.2352 940.131 66.3971 947.002 66.3971Z" fill="#FBB626"/>
<path d="M1017.79 48.7996C1020.32 48.7996 1022.37 46.8979 1022.37 44.5519C1022.37 42.206 1020.32 40.3042 1017.79 40.3042C1015.25 40.3042 1013.2 42.206 1013.2 44.5519C1013.2 46.8979 1015.25 48.7996 1017.79 48.7996Z" fill="#FBB626"/>
<path d="M1062.77 66.3971C1066.21 66.3971 1068.99 63.8162 1068.99 60.6324C1068.99 57.4486 1066.21 54.8677 1062.77 54.8677C1059.33 54.8677 1056.55 57.4486 1056.55 60.6324C1056.55 63.8162 1059.33 66.3971 1062.77 66.3971Z" fill="#FBB626"/>
<path d="M900.052 33.9326C903.271 33.9326 905.88 31.5146 905.88 28.5319C905.88 25.5492 903.271 23.1313 900.052 23.1313C896.834 23.1313 894.225 25.5492 894.225 28.5319C894.225 31.5146 896.834 33.9326 900.052 33.9326Z" fill="#FBB626"/>
<path d="M465.593 427.209C471.27 427.209 475.873 422.943 475.873 417.682C475.873 412.42 471.27 408.155 465.593 408.155C459.915 408.155 455.312 412.42 455.312 417.682C455.312 422.943 459.915 427.209 465.593 427.209Z" fill="#FBB626"/>
<path d="M450.614 54.5334C459.953 54.5334 467.524 47.5173 467.524 38.8626C467.524 30.2079 459.953 23.1919 450.614 23.1919C441.275 23.1919 433.704 30.2079 433.704 38.8626C433.704 47.5173 441.275 54.5334 450.614 54.5334Z" fill="#FBB626"/>
<path d="M467.884 268.163C474.792 268.163 480.391 262.974 480.391 256.573C480.391 250.172 474.792 244.983 467.884 244.983C460.977 244.983 455.378 250.172 455.378 256.573C455.378 262.974 460.977 268.163 467.884 268.163Z" fill="#FBB626"/>
<path d="M449.615 155.113C453.702 155.113 457.015 152.043 457.015 148.256C457.015 144.469 453.702 141.399 449.615 141.399C445.529 141.399 442.216 144.469 442.216 148.256C442.216 152.043 445.529 155.113 449.615 155.113Z" fill="#FBB626"/>
<path d="M455.64 305.057C459.618 305.057 462.842 302.069 462.842 298.382C462.842 294.696 459.618 291.707 455.64 291.707C451.662 291.707 448.437 294.696 448.437 298.382C448.437 302.069 451.662 305.057 455.64 305.057Z" fill="#FBB626"/>
<path d="M480.915 337.825C484.17 337.825 486.808 335.38 486.808 332.364C486.808 329.348 484.17 326.902 480.915 326.902C477.66 326.902 475.022 329.348 475.022 332.364C475.022 335.38 477.66 337.825 480.915 337.825Z" fill="#FBB626"/>
<path d="M606.702 55.8386C617.009 55.8386 625.364 48.0957 625.364 38.5444C625.364 28.993 617.009 21.2502 606.702 21.2502C596.395 21.2502 588.04 28.993 588.04 38.5444C588.04 48.0957 596.395 55.8386 606.702 55.8386Z" fill="#FBB626"/>
<path d="M432.329 118.462C437.753 118.462 442.151 114.387 442.151 109.36C442.151 104.333 437.753 100.257 432.329 100.257C426.904 100.257 422.507 104.333 422.507 109.36C422.507 114.387 426.904 118.462 432.329 118.462Z" fill="#FBB626"/>
<path d="M446.538 463.436C451.42 463.436 455.378 459.768 455.378 455.244C455.378 450.719 451.42 447.052 446.538 447.052C441.656 447.052 437.698 450.719 437.698 455.244C437.698 459.768 441.656 463.436 446.538 463.436Z" fill="#FBB626"/>
<path d="M466.64 606.947C471.739 606.947 475.873 603.117 475.873 598.391C475.873 593.666 471.739 589.835 466.64 589.835C461.541 589.835 457.408 593.666 457.408 598.391C457.408 603.117 461.541 606.947 466.64 606.947Z" fill="#FBB626"/>
<path d="M457.931 505.913C460.535 505.913 462.646 503.957 462.646 501.544C462.646 499.131 460.535 497.175 457.931 497.175C455.328 497.175 453.217 499.131 453.217 501.544C453.217 503.957 455.328 505.913 457.931 505.913Z" fill="#FBB626"/>
<path d="M461.467 642.87C463.746 642.87 465.593 641.159 465.593 639.048C465.593 636.936 463.746 635.225 461.467 635.225C459.189 635.225 457.342 636.936 457.342 639.048C457.342 641.159 459.189 642.87 461.467 642.87Z" fill="#FBB626"/>
<path d="M447.717 556.521C450.754 556.521 453.217 554.239 453.217 551.424C453.217 548.609 450.754 546.326 447.717 546.326C444.679 546.326 442.216 548.609 442.216 551.424C442.216 554.239 444.679 556.521 447.717 556.521Z" fill="#FBB626"/>
<path d="M433.757 674.98C439.001 674.98 443.252 671.041 443.252 666.182C443.252 661.322 439.001 657.383 433.757 657.383C428.513 657.383 424.263 661.322 424.263 666.182C424.263 671.041 428.513 674.98 433.757 674.98Z" fill="#FBB626"/>
<path d="M365.212 738.322C368.394 738.322 370.974 735.932 370.974 732.982C370.974 730.033 368.394 727.642 365.212 727.642C362.029 727.642 359.449 730.033 359.449 732.982C359.449 735.932 362.029 738.322 365.212 738.322Z" fill="#FBB626"/>
<path d="M300.452 722.97C304.141 722.97 307.131 720.199 307.131 716.781C307.131 713.362 304.141 710.591 300.452 710.591C296.763 710.591 293.773 713.362 293.773 716.781C293.773 720.199 296.763 722.97 300.452 722.97Z" fill="#FBB626"/>
<g filter="url(#filter0_f)">
<path d="M1407.52 754.524C1411.32 754.524 1414.4 751.672 1414.4 748.153C1414.4 744.634 1411.32 741.781 1407.52 741.781C1403.73 741.781 1400.65 744.634 1400.65 748.153C1400.65 751.672 1403.73 754.524 1407.52 754.524Z" fill="#FFDD97"/>
<path d="M1369.41 670.359C1373.64 670.359 1377.07 667.181 1377.07 663.26C1377.07 659.339 1373.64 656.16 1369.41 656.16C1365.18 656.16 1361.75 659.339 1361.75 663.26C1361.75 667.181 1365.18 670.359 1369.41 670.359Z" fill="#FFDD97"/>
<path d="M1365.35 41.5785C1373.27 41.5785 1379.69 35.6287 1379.69 28.2892C1379.69 20.9498 1373.27 15 1365.35 15C1357.43 15 1351.01 20.9498 1351.01 28.2892C1351.01 35.6287 1357.43 41.5785 1365.35 41.5785Z" fill="#FFDD97"/>
<path d="M1299.94 55.8385C1303.66 55.8385 1306.68 53.0402 1306.68 49.5883C1306.68 46.1364 1303.66 43.3381 1299.94 43.3381C1296.21 43.3381 1293.19 46.1364 1293.19 49.5883C1293.19 53.0402 1296.21 55.8385 1299.94 55.8385Z" fill="#FFDD97"/>
<path d="M1234.26 38.1803C1239.33 38.1803 1243.43 34.3768 1243.43 29.6849C1243.43 24.993 1239.33 21.1895 1234.26 21.1895C1229.2 21.1895 1225.1 24.993 1225.1 29.6849C1225.1 34.3768 1229.2 38.1803 1234.26 38.1803Z" fill="#FFDD97"/>
<path d="M1391.94 70.4627C1396.31 70.4627 1399.86 67.1754 1399.86 63.1203C1399.86 59.0651 1396.31 55.7778 1391.94 55.7778C1387.56 55.7778 1384.02 59.0651 1384.02 63.1203C1384.02 67.1754 1387.56 70.4627 1391.94 70.4627Z" fill="#FFDD97"/>
<path d="M1362.01 199.836C1366.17 199.836 1369.54 196.711 1369.54 192.857C1369.54 189.003 1366.17 185.879 1362.01 185.879C1357.86 185.879 1354.48 189.003 1354.48 192.857C1354.48 196.711 1357.86 199.836 1362.01 199.836Z" fill="#FFDD97"/>
<path d="M1361.75 97.648C1363.74 97.648 1365.35 96.2896 1365.35 94.6139C1365.35 92.9382 1363.74 91.5798 1361.75 91.5798C1359.76 91.5798 1358.15 92.9382 1358.15 94.6139C1358.15 96.2896 1359.76 97.648 1361.75 97.648Z" fill="#FFDD97"/>
<path d="M1374.59 172.226C1377.37 172.226 1379.63 170.134 1379.63 167.553C1379.63 164.973 1377.37 162.881 1374.59 162.881C1371.8 162.881 1369.54 164.973 1369.54 167.553C1369.54 170.134 1371.8 172.226 1374.59 172.226Z" fill="#FFDD97"/>
<path d="M1374.72 262.459C1379.89 262.459 1384.08 258.574 1384.08 253.781C1384.08 248.989 1379.89 245.104 1374.72 245.104C1369.55 245.104 1365.35 248.989 1365.35 253.781C1365.35 258.574 1369.55 262.459 1374.72 262.459Z" fill="#FFDD97"/>
<path d="M1368.17 353.056C1371.71 353.056 1374.59 350.394 1374.59 347.109C1374.59 343.825 1371.71 341.163 1368.17 341.163C1364.63 341.163 1361.75 343.825 1361.75 347.109C1361.75 350.394 1364.63 353.056 1368.17 353.056Z" fill="#FFDD97"/>
<path d="M1393.71 305.421C1397.76 305.421 1401.04 302.378 1401.04 298.625C1401.04 294.871 1397.76 291.829 1393.71 291.829C1389.66 291.829 1386.37 294.871 1386.37 298.625C1386.37 302.378 1389.66 305.421 1393.71 305.421Z" fill="#FFDD97"/>
<path d="M1357.5 426.541C1361.84 426.541 1365.35 423.281 1365.35 419.26C1365.35 415.238 1361.84 411.978 1357.5 411.978C1353.16 411.978 1349.64 415.238 1349.64 419.26C1349.64 423.281 1353.16 426.541 1357.5 426.541Z" fill="#FFDD97"/>
<path d="M1388.86 375.387C1391.5 375.387 1393.64 373.404 1393.64 370.957C1393.64 368.511 1391.5 366.527 1388.86 366.527C1386.22 366.527 1384.08 368.511 1384.08 370.957C1384.08 373.404 1386.22 375.387 1388.86 375.387Z" fill="#FFDD97"/>
<path d="M1343.88 517.442C1349.73 517.442 1354.48 513.041 1354.48 507.612C1354.48 502.183 1349.73 497.781 1343.88 497.781C1338.02 497.781 1333.27 502.183 1333.27 507.612C1333.27 513.041 1338.02 517.442 1343.88 517.442Z" fill="#FFDD97"/>
<path d="M1361.36 599.908C1365.16 599.908 1368.23 597.056 1368.23 593.537C1368.23 590.018 1365.16 587.165 1361.36 587.165C1357.56 587.165 1354.48 590.018 1354.48 593.537C1354.48 597.056 1357.56 599.908 1361.36 599.908Z" fill="#FFDD97"/>
<path d="M1354.03 628.428C1355.65 628.428 1356.97 627.206 1356.97 625.698C1356.97 624.19 1355.65 622.967 1354.03 622.967C1352.4 622.967 1351.08 624.19 1351.08 625.698C1351.08 627.206 1352.4 628.428 1354.03 628.428Z" fill="#FFDD97"/>
<path d="M1393.9 720.118C1397.59 720.118 1400.58 717.347 1400.58 713.929C1400.58 710.51 1397.59 707.739 1393.9 707.739C1390.21 707.739 1387.22 710.51 1387.22 713.929C1387.22 717.347 1390.21 720.118 1393.9 720.118Z" fill="#FFDD97"/>
<path d="M1402.87 673.09C1404.86 673.09 1406.48 671.596 1406.48 669.752C1406.48 667.909 1404.86 666.415 1402.87 666.415C1400.88 666.415 1399.27 667.909 1399.27 669.752C1399.27 671.596 1400.88 673.09 1402.87 673.09Z" fill="#FFDD97"/>
<path d="M707.476 66.3971C710.622 66.3971 713.173 64.0335 713.173 61.1179C713.173 58.2022 710.622 55.8386 707.476 55.8386C704.33 55.8386 701.779 58.2022 701.779 61.1179C701.779 64.0335 704.33 66.3971 707.476 66.3971Z" fill="#FFDD97"/>
<path d="M789.981 47.3432C796.924 47.3432 802.553 42.1269 802.553 35.6924C802.553 29.2578 796.924 24.0415 789.981 24.0415C783.037 24.0415 777.409 29.2578 777.409 35.6924C777.409 42.1269 783.037 47.3432 789.981 47.3432Z" fill="#FFDD97"/>
<path d="M947.002 66.3971C953.873 66.3971 959.443 61.2352 959.443 54.8676C959.443 48.5001 953.873 43.3381 947.002 43.3381C940.131 43.3381 934.561 48.5001 934.561 54.8676C934.561 61.2352 940.131 66.3971 947.002 66.3971Z" fill="#FFDD97"/>
<path d="M1017.79 48.7996C1020.32 48.7996 1022.37 46.8979 1022.37 44.5519C1022.37 42.206 1020.32 40.3042 1017.79 40.3042C1015.25 40.3042 1013.2 42.206 1013.2 44.5519C1013.2 46.8979 1015.25 48.7996 1017.79 48.7996Z" fill="#FFDD97"/>
<path d="M1062.77 66.3971C1066.21 66.3971 1068.99 63.8162 1068.99 60.6324C1068.99 57.4486 1066.21 54.8677 1062.77 54.8677C1059.33 54.8677 1056.55 57.4486 1056.55 60.6324C1056.55 63.8162 1059.33 66.3971 1062.77 66.3971Z" fill="#FFDD97"/>
<path d="M900.052 33.9326C903.271 33.9326 905.88 31.5146 905.88 28.5319C905.88 25.5492 903.271 23.1313 900.052 23.1313C896.834 23.1313 894.225 25.5492 894.225 28.5319C894.225 31.5146 896.834 33.9326 900.052 33.9326Z" fill="#FFDD97"/>
<path d="M465.593 427.209C471.27 427.209 475.873 422.943 475.873 417.682C475.873 412.42 471.27 408.155 465.593 408.155C459.915 408.155 455.312 412.42 455.312 417.682C455.312 422.943 459.915 427.209 465.593 427.209Z" fill="#FFDD97"/>
<path d="M448.971 51.488C457.402 51.488 464.238 45.1537 464.238 37.3399C464.238 29.5262 457.402 23.1919 448.971 23.1919C440.539 23.1919 433.704 29.5262 433.704 37.3399C433.704 45.1537 440.539 51.488 448.971 51.488Z" fill="#FFDD97"/>
<path d="M467.884 268.163C474.792 268.163 480.391 262.974 480.391 256.573C480.391 250.172 474.792 244.983 467.884 244.983C460.977 244.983 455.378 250.172 455.378 256.573C455.378 262.974 460.977 268.163 467.884 268.163Z" fill="#FFDD97"/>
<path d="M449.615 155.113C453.702 155.113 457.015 152.043 457.015 148.256C457.015 144.469 453.702 141.399 449.615 141.399C445.529 141.399 442.216 144.469 442.216 148.256C442.216 152.043 445.529 155.113 449.615 155.113Z" fill="#FFDD97"/>
<path d="M455.64 305.057C459.618 305.057 462.842 302.069 462.842 298.382C462.842 294.696 459.618 291.707 455.64 291.707C451.662 291.707 448.437 294.696 448.437 298.382C448.437 302.069 451.662 305.057 455.64 305.057Z" fill="#FFDD97"/>
<path d="M480.915 337.825C484.17 337.825 486.808 335.38 486.808 332.364C486.808 329.348 484.17 326.902 480.915 326.902C477.66 326.902 475.022 329.348 475.022 332.364C475.022 335.38 477.66 337.825 480.915 337.825Z" fill="#FFDD97"/>
<path d="M606.702 55.8386C617.009 55.8386 625.364 48.0957 625.364 38.5444C625.364 28.993 617.009 21.2502 606.702 21.2502C596.395 21.2502 588.04 28.993 588.04 38.5444C588.04 48.0957 596.395 55.8386 606.702 55.8386Z" fill="#FFDD97"/>
<path d="M432.329 118.462C437.753 118.462 442.151 114.387 442.151 109.36C442.151 104.333 437.753 100.257 432.329 100.257C426.904 100.257 422.507 104.333 422.507 109.36C422.507 114.387 426.904 118.462 432.329 118.462Z" fill="#FFDD97"/>
<path d="M446.538 463.436C451.42 463.436 455.378 459.768 455.378 455.244C455.378 450.719 451.42 447.052 446.538 447.052C441.656 447.052 437.698 450.719 437.698 455.244C437.698 459.768 441.656 463.436 446.538 463.436Z" fill="#FFDD97"/>
<path d="M466.64 606.947C471.739 606.947 475.873 603.117 475.873 598.391C475.873 593.666 471.739 589.835 466.64 589.835C461.541 589.835 457.408 593.666 457.408 598.391C457.408 603.117 461.541 606.947 466.64 606.947Z" fill="#FFDD97"/>
<path d="M457.931 505.913C460.535 505.913 462.646 503.957 462.646 501.544C462.646 499.131 460.535 497.175 457.931 497.175C455.328 497.175 453.217 499.131 453.217 501.544C453.217 503.957 455.328 505.913 457.931 505.913Z" fill="#FFDD97"/>
<path d="M461.467 642.87C463.746 642.87 465.593 641.159 465.593 639.048C465.593 636.936 463.746 635.225 461.467 635.225C459.189 635.225 457.342 636.936 457.342 639.048C457.342 641.159 459.189 642.87 461.467 642.87Z" fill="#FFDD97"/>
<path d="M447.717 556.521C450.754 556.521 453.217 554.239 453.217 551.424C453.217 548.609 450.754 546.326 447.717 546.326C444.679 546.326 442.216 548.609 442.216 551.424C442.216 554.239 444.679 556.521 447.717 556.521Z" fill="#FFDD97"/>
<path d="M436.346 675.648C441.59 675.648 445.841 671.708 445.841 666.849C445.841 661.989 441.59 658.05 436.346 658.05C431.103 658.05 426.852 661.989 426.852 666.849C426.852 671.708 431.103 675.648 436.346 675.648Z" fill="#FFDD97"/>
<path d="M365.212 738.322C368.394 738.322 370.974 735.932 370.974 732.982C370.974 730.033 368.394 727.642 365.212 727.642C362.029 727.642 359.449 730.033 359.449 732.982C359.449 735.932 362.029 738.322 365.212 738.322Z" fill="#FFDD97"/>
<path d="M300.452 722.97C304.141 722.97 307.131 720.199 307.131 716.781C307.131 713.362 304.141 710.591 300.452 710.591C296.763 710.591 293.773 713.362 293.773 716.781C293.773 720.199 296.763 722.97 300.452 722.97Z" fill="#FFDD97"/>
</g>
<path opacity="0.4" d="M337.399 638.115C368.434 599.431 402.419 535.722 436.886 447.838C471.354 359.953 471.419 260.81 498.164 197.027C518.087 149.6 561.872 113.346 611.348 92.1603C660.825 70.9744 715.788 63.6168 770.053 61.3429C884.993 56.4343 1000.96 73.4901 1108.78 111.161C1196.31 141.741 1282.39 189.385 1327.87 265.834C1360.39 320.46 1369.16 385.533 1362.52 447.838C1358.41 486.718 1347.53 526.745 1319.56 555.685C1289.74 586.521 1245.16 600.142 1202.69 612.246C997.658 639.596 451.477 612.246 337.399 638.115Z" fill="url(#paint1_linear)"/>
<path d="M360.219 745.527C359.416 747.686 357.673 749.358 355.773 750.62C353.808 751.876 351.692 752.656 349.504 753.494C352.111 753.75 354.724 753.94 357.331 754.195C357.722 754.233 358.178 754.278 358.523 754.114C359.07 753.905 359.381 753.409 359.693 752.913C360.479 751.608 361.33 750.309 361.672 748.829C362.073 747.42 361.979 745.7 360.219 745.527Z" fill="#5C5C5C"/>
<path d="M358.88 753.82L358.712 715.236L430.662 652.387L428.088 678.659C427.693 682.701 425.947 686.413 423.099 689.293L358.88 753.82Z" fill="#5C5C5C"/>
<path d="M382.694 694.747C374.728 702.194 363.475 705.567 356.103 713.664C354.998 714.872 353.919 716.478 354.424 718.041C354.818 719.396 356.188 720.188 357.602 720.524C360.744 721.358 364.118 720.504 366.916 718.804C369.714 717.103 371.925 714.687 373.946 712.187C376.715 708.772 379.183 705.065 381.339 701.196C382.475 699.004 383.571 696.544 382.694 694.747Z" fill="#5C5C5C"/>
<path d="M341.536 695.125C364.211 697.346 384.393 680.759 386.615 658.077C388.837 635.395 372.257 615.207 349.582 612.986C326.907 610.765 306.725 627.352 304.503 650.034C302.281 672.716 318.862 692.904 341.536 695.125Z" fill="#5C5C5C"/>
<path d="M170.409 729.37L174.253 690.126C174.604 686.54 177.752 683.953 181.337 684.304L357.225 701.532C360.81 701.883 363.396 705.033 363.045 708.618L359.201 747.863C358.85 751.448 355.701 754.036 352.117 753.684L176.228 736.456C172.644 736.105 170.064 732.89 170.409 729.37Z" fill="#858585"/>
<path opacity="0.302" d="M341.359 612.97C316.012 625.23 314.982 634.409 319.296 638.056C315.731 637.51 312.165 636.963 308.6 636.416C315.053 624.28 323.326 617.061 341.359 612.97Z" fill="#424242"/>
<path opacity="0.302" d="M357.71 614.637C351.652 628.128 345.658 641.626 339.6 655.117C349.552 656.948 359.544 658.387 369.592 659.24C372.851 659.559 376.252 659.76 379.22 658.34C382.95 656.533 385.196 652.409 385.475 648.224C385.747 644.105 384.37 640.021 382.434 636.277C377.352 626.368 368.188 618.494 357.71 614.637Z" fill="#383838"/>
<path opacity="0.4588" d="M357.534 614.423C365.222 617.874 373.631 622.712 378.422 630.224C383.212 637.736 385.199 647.013 383.874 655.834C373.368 654.278 362.725 652.775 352.132 653.449C378.052 647.431 377.47 629.868 357.534 614.423Z" fill="#383838"/>
<path d="M176.426 685.402L241.294 629.692C242.517 628.627 244.145 628.129 245.84 628.294L425.247 645.868C430.526 646.385 432.644 652.976 428.618 656.465L363.749 712.175C362.526 713.24 360.899 713.739 359.204 713.573L179.731 695.993C174.452 695.476 172.406 688.826 176.426 685.402Z" fill="#B3B3B3"/>
<path d="M324.035 662.214L346.981 644.915C347.267 644.679 347.606 644.581 347.997 644.619L408.147 650.511C409.45 650.639 409.883 652.261 408.882 653.084L385.936 670.384C385.65 670.619 385.311 670.717 384.92 670.679L324.77 664.787C323.401 664.653 322.974 662.966 324.035 662.214Z" fill="#545454"/>
<path d="M392.643 671.765C383.317 660.847 370.346 651.547 356.01 650.801C341.674 650.055 327.142 655.345 316.639 665.175C340.081 667.669 387.717 671.677 392.643 671.765Z" fill="#8A8A8A"/>
<path d="M367.507 730.906L368.931 716.369C369.174 713.891 371.385 712.133 373.797 712.37L421.695 717.061C424.172 717.304 425.929 719.516 425.692 721.928L424.268 736.466C424.026 738.943 421.814 740.701 419.403 740.465L371.569 735.779C369.087 735.602 367.264 733.383 367.507 730.906Z" fill="#787878"/>
<path d="M389.711 671.477C380.385 660.56 367.413 651.26 353.078 650.514C338.742 649.768 324.21 655.057 313.707 664.888C337.148 667.382 384.785 671.39 389.711 671.477Z" fill="#ABABAB"/>
<path d="M179.302 706.416L179.545 703.939C179.743 701.918 181.532 700.448 183.552 700.646L229.039 705.101C231.059 705.299 232.529 707.088 232.331 709.109L232.088 711.587C231.89 713.607 230.102 715.078 228.081 714.88L182.594 710.424C180.574 710.226 179.104 708.437 179.302 706.416Z" fill="#5C5C5C"/>
<path d="M366.052 733.001L367.393 719.311C367.654 716.638 370.087 714.639 372.759 714.901L419.745 719.503C422.417 719.765 424.416 722.198 424.154 724.871L422.813 738.561C422.551 741.234 420.119 743.233 417.447 742.972L370.46 738.369C367.789 738.107 365.79 735.674 366.052 733.001Z" fill="#3D3D3D"/>
<path d="M423.891 723.529C424.181 725.269 425.708 726.471 427.046 727.59C428.377 728.773 429.671 730.348 429.374 732.03C429.207 733.067 428.466 733.915 428.429 734.965C428.339 735.877 428.752 737.037 428.102 737.631C427.816 737.866 427.477 737.965 427.145 737.998C424.794 738.492 422.377 738.979 420.026 739.473C420.499 734.649 420.971 729.825 421.437 725.066C421.489 724.544 421.533 724.088 421.773 723.651C422.007 723.279 422.502 722.932 423.891 723.529Z" fill="#3D3D3D"/>
<path d="M419.805 782.034C420.907 776.153 424.78 770.872 430.059 768.032C434.361 765.755 439.637 764.956 443.07 761.475C447.68 756.727 446.895 748.62 443.144 743.251C439.394 737.882 433.347 734.459 427.021 731.207C426.548 732.674 426.069 734.207 425.596 735.674C430.582 736.492 435.246 739.252 438.342 743.241C440.74 746.306 442.181 750.396 441.153 754.179C440.002 758.541 436.033 761.443 432.017 763.485C428.001 765.527 423.639 767.074 420.498 770.255C417.292 773.429 415.772 778.874 419.805 782.034Z" fill="#3D3D3D"/>
<path opacity="0.349" d="M361.93 714.63C360.621 724.637 359.305 734.71 357.996 744.717C357.682 747.253 357.205 750.102 355.078 751.671C352.944 753.305 349.868 753.135 347.072 752.795C335.746 751.554 324.419 750.313 313.099 749.007C321.508 747.79 329.121 742.613 333.108 735.5C337.094 728.388 337.317 719.393 333.699 711.996C342.692 712.877 351.627 713.686 361.93 714.63Z" fill="#616060"/>
<path d="M181.133 696.46C177.56 705.39 175.886 715.098 176.192 724.737C176.262 727.377 176.522 730.101 177.81 732.399C179.098 734.697 181.688 736.464 184.294 736.061C181.89 736.418 179.487 736.775 177.094 736.343C174.702 735.912 172.413 734.437 171.515 732.177C170.998 730.744 171.086 729.173 171.168 727.668C171.996 715.178 172.825 702.688 173.653 690.199C174.215 693.873 177.869 696.864 181.133 696.46Z" fill="#616060"/>
<g opacity="0.8">
<path opacity="0.1608" d="M488.83 118.959C496.205 256.201 525.125 393.558 587.622 519.18C601.338 546.79 616.93 574.054 639.38 596.659C661.83 619.264 692.043 636.98 725.685 640.834C682.468 653.316 633.816 635.6 602.308 606.495C570.801 577.39 553.333 538.679 538.776 500.371C492.776 379.35 468.515 250.046 488.83 118.959Z" fill="#BFB6A6"/>
<path opacity="0.1608" d="M490.318 363.705C498.534 460.453 531.53 555.533 586.069 639.569C567.695 637.21 551.78 626.167 541.105 612.65C530.43 599.133 524.284 583.257 518.784 567.497C496.593 503.88 483.007 437.273 490.318 363.705Z" fill="#BFB6A6"/>
<path opacity="0.1608" d="M1341.08 113.668C1335.58 229.224 1316.11 344.206 1283.05 456.024C1261.89 527.693 1233.1 601.031 1173.19 652.568C1196.23 662.289 1224.95 652.338 1241.84 635.312C1258.72 618.287 1266.42 595.739 1273.41 573.939C1321.54 423.008 1356.55 265.864 1341.08 113.668Z" fill="#BFB6A6"/>
<path opacity="0.1608" d="M1337.01 394.536C1329.7 484.439 1300.65 572.904 1252.45 652.223C1289.45 654.064 1326.27 658.435 1362.5 665.222C1345.29 660.333 1333.51 645.608 1328.79 630.136C1324.07 614.663 1325.3 598.27 1326.59 582.279C1331.44 520.618 1336.3 458.9 1337.01 394.536Z" fill="#BFB6A6"/>
<path opacity="0.1608" d="M1215.76 573.479C1190.6 624.901 1133.92 663.094 1071.43 670.802C1104.74 659.701 1135.35 642.215 1160.51 619.897C1173.71 608.163 1185.42 595.164 1197.07 582.164C1202.83 575.665 1208.65 569.222 1215.76 573.479Z" fill="#BFB6A6"/>
<path opacity="0.1608" d="M677.939 577.62C709.899 609.083 749.753 634.162 793.682 650.555C768.45 646.414 742.765 642.1 719.798 631.861C696.895 621.565 676.58 604.309 677.939 577.62Z" fill="#BFB6A6"/>
<path opacity="0.1608" d="M487.536 512.393C493.941 539.312 500.346 566.174 506.751 593.093C508.886 602.124 510.827 612.189 505.263 619.955C499.57 627.835 487.989 630.423 477.508 630.941C467.027 631.459 456.029 630.538 446.259 634.047C468.58 610.349 472.591 577.39 475.696 546.56C477.12 531.317 478.608 516.132 487.536 512.393Z" fill="#BFB6A6"/>
<path opacity="0.1608" d="M1327.63 64.1433C1291.2 88.0714 1242.23 96.1242 1198.62 85.4255C1239.25 83.4124 1279.56 76.0499 1327.63 64.1433Z" fill="#BFB6A6"/>
<path opacity="0.1608" d="M1334.55 67.5945C1322.84 87.0936 1299.29 100.611 1274.45 102.049C1295.02 96.1817 1313.85 85.5981 1334.55 67.5945Z" fill="#BFB6A6"/>
<path opacity="0.1608" d="M491.353 66.2715C525.966 90.6023 570.283 103.774 614.407 102.739C575.33 90.8899 536.188 79.0409 491.353 66.2715Z" fill="#BFB6A6"/>
<path opacity="0.1608" d="M565.496 72.4836C584.711 86.1157 610.137 92.6154 634.527 90.1996C637.309 89.912 640.738 88.9341 641.062 86.4608C641.45 83.4123 636.921 82.0893 633.492 81.8017C610.395 80.1336 587.299 78.4081 565.496 72.4836Z" fill="#BFB6A6"/>
</g>
<defs>
<filter id="filter0_f" x="278.773" y="0" width="1150.63" height="769.524" filterUnits="userSpaceOnUse" color-interpolation-filters="sRGB">
<feFlood flood-opacity="0" result="BackgroundImageFix"/>
<feBlend mode="normal" in="SourceGraphic" in2="BackgroundImageFix" result="shape"/>
<feGaussianBlur stdDeviation="7.5" result="effect1_foregroundBlur"/>
</filter>
<radialGradient id="paint0_radial" cx="0" cy="0" r="1" gradientUnits="userSpaceOnUse" gradientTransform="translate(920.986 346.97) scale(474.302 351.138)">
<stop stop-color="white"/>
<stop offset="0.8537" stop-color="white" stop-opacity="0.1463"/>
<stop offset="1" stop-color="white" stop-opacity="0"/>
</radialGradient>
<linearGradient id="paint1_linear" x1="631.858" y1="764.024" x2="1048.09" y2="93.4036" gradientUnits="userSpaceOnUse">
<stop stop-color="white"/>
<stop offset="1" stop-color="white" stop-opacity="0"/>
</linearGradient>
</defs>
</svg>
