<svg width="1503" height="468" viewBox="0 0 1503 468" fill="none" xmlns="http://www.w3.org/2000/svg">
<g opacity="0.4">
<path d="M654.09 104.275C656.662 104.275 658.747 102.19 658.747 99.6178C658.747 97.0459 656.662 94.9609 654.09 94.9609C651.519 94.9609 649.434 97.0459 649.434 99.6178C649.434 102.19 651.519 104.275 654.09 104.275Z" fill="#FBB63B"/>
<path d="M1376.57 435.23C1377.75 435.23 1378.7 434.274 1378.7 433.095C1378.7 431.917 1377.75 430.961 1376.57 430.961C1375.39 430.961 1374.43 431.917 1374.43 433.095C1374.43 434.274 1375.39 435.23 1376.57 435.23Z" fill="#FBB63B"/>
<path d="M105.568 467.23C106.747 467.23 107.702 466.274 107.702 465.095C107.702 463.917 106.747 462.961 105.568 462.961C104.389 462.961 103.434 463.917 103.434 465.095C103.434 466.274 104.389 467.23 105.568 467.23Z" fill="#FBB63B"/>
<path d="M1056.57 379.23C1057.75 379.23 1058.7 378.274 1058.7 377.095C1058.7 375.917 1057.75 374.961 1056.57 374.961C1055.39 374.961 1054.43 375.917 1054.43 377.095C1054.43 378.274 1055.39 379.23 1056.57 379.23Z" fill="#FBB63B"/>
<path d="M1325.54 341.17C1327.25 341.17 1328.64 339.78 1328.64 338.066C1328.64 336.351 1327.25 334.961 1325.54 334.961C1323.82 334.961 1322.43 336.351 1322.43 338.066C1322.43 339.78 1323.82 341.17 1325.54 341.17Z" fill="#FBB63B"/>
<path d="M72.5084 394.11C74.7588 394.11 76.5831 392.286 76.5831 390.036C76.5831 387.785 74.7588 385.961 72.5084 385.961C70.2579 385.961 68.4336 387.785 68.4336 390.036C68.4336 392.286 70.2579 394.11 72.5084 394.11Z" fill="#FBB63B"/>
<path d="M738.496 43.4293C740.746 43.4293 742.57 41.605 742.57 39.3546C742.57 37.1041 740.746 35.2798 738.496 35.2798C736.245 35.2798 734.421 37.1041 734.421 39.3546C734.421 41.605 736.245 43.4293 738.496 43.4293Z" fill="#FBB63B"/>
<path d="M1157.15 463.394C1158.65 463.394 1159.87 462.178 1159.87 460.677C1159.87 459.177 1158.65 457.961 1157.15 457.961C1155.65 457.961 1154.43 459.177 1154.43 460.677C1154.43 462.178 1155.65 463.394 1157.15 463.394Z" fill="#FBB63B"/>
<path d="M600.538 52.1701C602.253 52.1701 603.643 50.7801 603.643 49.0655C603.643 47.3509 602.253 45.9609 600.538 45.9609C598.824 45.9609 597.434 47.3509 597.434 49.0655C597.434 50.7801 598.824 52.1701 600.538 52.1701Z" fill="#FBB63B"/>
<path d="M593.09 314.275C595.662 314.275 597.747 312.19 597.747 309.618C597.747 307.046 595.662 304.961 593.09 304.961C590.519 304.961 588.434 307.046 588.434 309.618C588.434 312.19 590.519 314.275 593.09 314.275Z" fill="#FBB63B"/>
<path d="M22.568 439.23C23.7468 439.23 24.7024 438.274 24.7024 437.095C24.7024 435.917 23.7468 434.961 22.568 434.961C21.3892 434.961 20.4336 435.917 20.4336 437.095C20.4336 438.274 21.3892 439.23 22.568 439.23Z" fill="#FBB63B"/>
<path d="M132.568 286.23C133.747 286.23 134.702 285.274 134.702 284.095C134.702 282.917 133.747 281.961 132.568 281.961C131.389 281.961 130.434 282.917 130.434 284.095C130.434 285.274 131.389 286.23 132.568 286.23Z" fill="#FBB63B"/>
<path d="M560.568 403.23C561.747 403.23 562.702 402.274 562.702 401.095C562.702 399.917 561.747 398.961 560.568 398.961C559.389 398.961 558.434 399.917 558.434 401.095C558.434 402.274 559.389 403.23 560.568 403.23Z" fill="#FBB63B"/>
<path d="M371.568 260.23C372.747 260.23 373.702 259.274 373.702 258.095C373.702 256.917 372.747 255.961 371.568 255.961C370.389 255.961 369.434 256.917 369.434 258.095C369.434 259.274 370.389 260.23 371.568 260.23Z" fill="#FBB63B"/>
<path d="M1268.54 386.17C1270.25 386.17 1271.64 384.78 1271.64 383.066C1271.64 381.351 1270.25 379.961 1268.54 379.961C1266.82 379.961 1265.43 381.351 1265.43 383.066C1265.43 384.78 1266.82 386.17 1268.54 386.17Z" fill="#FBB63B"/>
<path d="M815.508 133.11C817.759 133.11 819.583 131.286 819.583 129.036C819.583 126.785 817.759 124.961 815.508 124.961C813.258 124.961 811.434 126.785 811.434 129.036C811.434 131.286 813.258 133.11 815.508 133.11Z" fill="#FBB63B"/>
<path d="M787.508 219.11C789.759 219.11 791.583 217.286 791.583 215.036C791.583 212.785 789.759 210.961 787.508 210.961C785.258 210.961 783.434 212.785 783.434 215.036C783.434 217.286 785.258 219.11 787.508 219.11Z" fill="#FBB63B"/>
<path d="M753.15 349.394C754.65 349.394 755.867 348.178 755.867 346.677C755.867 345.177 754.65 343.961 753.15 343.961C751.65 343.961 750.434 345.177 750.434 346.677C750.434 348.178 751.65 349.394 753.15 349.394Z" fill="#FBB63B"/>
<path d="M671.538 392.17C673.253 392.17 674.643 390.78 674.643 389.066C674.643 387.351 673.253 385.961 671.538 385.961C669.824 385.961 668.434 387.351 668.434 389.066C668.434 390.78 669.824 392.17 671.538 392.17Z" fill="#FBB63B"/>
<path d="M1157.09 338.275C1159.66 338.275 1161.75 336.19 1161.75 333.618C1161.75 331.046 1159.66 328.961 1157.09 328.961C1154.52 328.961 1152.43 331.046 1152.43 333.618C1152.43 336.19 1154.52 338.275 1157.09 338.275Z" fill="#FBB63B"/>
<path d="M1207.57 435.23C1208.75 435.23 1209.7 434.274 1209.7 433.095C1209.7 431.917 1208.75 430.961 1207.57 430.961C1206.39 430.961 1205.43 431.917 1205.43 433.095C1205.43 434.274 1206.39 435.23 1207.57 435.23Z" fill="#FBB63B"/>
<path d="M1068.57 273.34C1069.75 273.34 1070.7 272.384 1070.7 271.205C1070.7 270.026 1069.75 269.071 1068.57 269.071C1067.39 269.071 1066.43 270.026 1066.43 271.205C1066.43 272.384 1067.39 273.34 1068.57 273.34Z" fill="#FBB63B"/>
<path d="M871.568 205.23C872.747 205.23 873.702 204.274 873.702 203.095C873.702 201.917 872.747 200.961 871.568 200.961C870.389 200.961 869.434 201.917 869.434 203.095C869.434 204.274 870.389 205.23 871.568 205.23Z" fill="#FBB63B"/>
<path d="M857.568 45.2297C858.747 45.2297 859.702 44.2741 859.702 43.0953C859.702 41.9165 858.747 40.9609 857.568 40.9609C856.389 40.9609 855.434 41.9165 855.434 43.0953C855.434 44.2741 856.389 45.2297 857.568 45.2297Z" fill="#FBB63B"/>
<path d="M1023.71 276.685C1025.43 276.685 1026.82 275.295 1026.82 273.58C1026.82 271.866 1025.43 270.476 1023.71 270.476C1022 270.476 1020.61 271.866 1020.61 273.58C1020.61 275.295 1022 276.685 1023.71 276.685Z" fill="#FBB63B"/>
<path d="M973.118 224.357C975.368 224.357 977.193 222.533 977.193 220.282C977.193 218.032 975.368 216.208 973.118 216.208C970.867 216.208 969.043 218.032 969.043 220.282C969.043 222.533 970.867 224.357 973.118 224.357Z" fill="#FBB63B"/>
<path d="M1190.51 224.357C1192.76 224.357 1194.58 222.533 1194.58 220.282C1194.58 218.032 1192.76 216.208 1190.51 216.208C1188.26 216.208 1186.43 218.032 1186.43 220.282C1186.43 222.533 1188.26 224.357 1190.51 224.357Z" fill="#FBB63B"/>
<path d="M669.15 244.394C670.65 244.394 671.867 243.178 671.867 241.677C671.867 240.177 670.65 238.961 669.15 238.961C667.65 238.961 666.434 240.177 666.434 241.677C666.434 243.178 667.65 244.394 669.15 244.394Z" fill="#FBB63B"/>
<path d="M903.538 289.17C905.253 289.17 906.643 287.78 906.643 286.066C906.643 284.351 905.253 282.961 903.538 282.961C901.824 282.961 900.434 284.351 900.434 286.066C900.434 287.78 901.824 289.17 903.538 289.17Z" fill="#FBB63B"/>
<path d="M1285.1 250.273C1287.67 250.273 1289.75 248.188 1289.75 245.616C1289.75 243.044 1287.67 240.959 1285.1 240.959C1282.53 240.959 1280.44 243.044 1280.44 245.616C1280.44 248.188 1282.53 250.273 1285.1 250.273Z" fill="#FBB63B"/>
<path d="M1417.24 244.451C1418.42 244.451 1419.37 243.496 1419.37 242.317C1419.37 241.138 1418.42 240.183 1417.24 240.183C1416.06 240.183 1415.1 241.138 1415.1 242.317C1415.1 243.496 1416.06 244.451 1417.24 244.451Z" fill="#FBB63B"/>
<path d="M1331.08 198.658C1332.26 198.658 1333.22 197.703 1333.22 196.524C1333.22 195.345 1332.26 194.39 1331.08 194.39C1329.91 194.39 1328.95 195.345 1328.95 196.524C1328.95 197.703 1329.91 198.658 1331.08 198.658Z" fill="#FBB63B"/>
<path d="M1499.31 231.645C1501.03 231.645 1502.42 230.255 1502.42 228.541C1502.42 226.826 1501.03 225.436 1499.31 225.436C1497.6 225.436 1496.21 226.826 1496.21 228.541C1496.21 230.255 1497.6 231.645 1499.31 231.645Z" fill="#FBB63B"/>
<path d="M1439.36 190.121C1441.61 190.121 1443.43 188.297 1443.43 186.046C1443.43 183.796 1441.61 181.972 1439.36 181.972C1437.11 181.972 1435.28 183.796 1435.28 186.046C1435.28 188.297 1437.11 190.121 1439.36 190.121Z" fill="#FBB63B"/>
<path d="M1397.45 159.851C1399.7 159.851 1401.52 158.027 1401.52 155.776C1401.52 153.526 1399.7 151.702 1397.45 151.702C1395.2 151.702 1393.37 153.526 1393.37 155.776C1393.37 158.027 1395.2 159.851 1397.45 159.851Z" fill="#FBB63B"/>
<path d="M1387.94 284.423C1389.44 284.423 1390.65 283.207 1390.65 281.707C1390.65 280.206 1389.44 278.99 1387.94 278.99C1386.44 278.99 1385.22 280.206 1385.22 281.707C1385.22 283.207 1386.44 284.423 1387.94 284.423Z" fill="#FBB63B"/>
<path d="M998.657 67.3138C1001.23 67.3138 1003.31 65.2288 1003.31 62.6569C1003.31 60.085 1001.23 58 998.657 58C996.085 58 994 60.085 994 62.6569C994 65.2288 996.085 67.3138 998.657 67.3138Z" fill="#FBB63B"/>
<path d="M1066.71 105.234C1067.88 105.234 1068.84 104.278 1068.84 103.099C1068.84 101.92 1067.88 100.965 1066.71 100.965C1065.53 100.965 1064.57 101.92 1064.57 103.099C1064.57 104.278 1065.53 105.234 1066.71 105.234Z" fill="#FBB63B"/>
<path d="M970.215 119.678C971.394 119.678 972.35 118.722 972.35 117.544C972.35 116.365 971.394 115.409 970.215 115.409C969.037 115.409 968.081 116.365 968.081 117.544C968.081 118.722 969.037 119.678 970.215 119.678Z" fill="#FBB63B"/>
<path d="M637.568 443.23C638.747 443.23 639.702 442.274 639.702 441.095C639.702 439.917 638.747 438.961 637.568 438.961C636.389 438.961 635.434 439.917 635.434 441.095C635.434 442.274 636.389 443.23 637.568 443.23Z" fill="#FBB63B"/>
<path d="M1139.49 146.571C1141.21 146.571 1142.6 145.182 1142.6 143.467C1142.6 141.752 1141.21 140.362 1139.49 140.362C1137.78 140.362 1136.39 141.752 1136.39 143.467C1136.39 145.182 1137.78 146.571 1139.49 146.571Z" fill="#FBB63B"/>
<path d="M1068.79 167.605C1071.04 167.605 1072.87 165.78 1072.87 163.53C1072.87 161.279 1071.04 159.455 1068.79 159.455C1066.54 159.455 1064.72 161.279 1064.72 163.53C1064.72 165.78 1066.54 167.605 1068.79 167.605Z" fill="#FBB63B"/>
<path d="M1024.51 321.11C1026.76 321.11 1028.58 319.286 1028.58 317.036C1028.58 314.785 1026.76 312.961 1024.51 312.961C1022.26 312.961 1020.43 314.785 1020.43 317.036C1020.43 319.286 1022.26 321.11 1024.51 321.11Z" fill="#FBB63B"/>
<path d="M918.966 97.3713C920.681 97.3713 922.071 95.9813 922.071 94.2667C922.071 92.5521 920.681 91.1621 918.966 91.1621C917.252 91.1621 915.862 92.5521 915.862 94.2667C915.862 95.9813 917.252 97.3713 918.966 97.3713Z" fill="#FBB63B"/>
<path d="M155.307 50.5462C157.879 50.5462 159.964 48.4612 159.964 45.8893C159.964 43.3174 157.879 41.2324 155.307 41.2324C152.735 41.2324 150.65 43.3174 150.65 45.8893C150.65 48.4612 152.735 50.5462 155.307 50.5462Z" fill="#FBB63B"/>
<path d="M29.7965 135.55C30.9753 135.55 31.9309 134.594 31.9309 133.416C31.9309 132.237 30.9753 131.281 29.7965 131.281C28.6177 131.281 27.6621 132.237 27.6621 133.416C27.6621 134.594 28.6177 135.55 29.7965 135.55Z" fill="#FBB63B"/>
<path d="M3.10459 200.7C4.81921 200.7 6.20918 199.31 6.20918 197.595C6.20918 195.881 4.81921 194.491 3.10459 194.491C1.38997 194.491 0 195.881 0 197.595C0 199.31 1.38997 200.7 3.10459 200.7Z" fill="#FBB63B"/>
<path d="M53.5622 87.685C55.0625 87.685 56.2787 86.4688 56.2787 84.9685C56.2787 83.4682 55.0625 82.252 53.5622 82.252C52.0619 82.252 50.8457 83.4682 50.8457 84.9685C50.8457 86.4688 52.0619 87.685 53.5622 87.685Z" fill="#FBB63B"/>
<path d="M191.639 76.175C193.353 76.175 194.743 74.785 194.743 73.0704C194.743 71.3558 193.353 69.9658 191.639 69.9658C189.924 69.9658 188.534 71.3558 188.534 73.0704C188.534 74.785 189.924 76.175 191.639 76.175Z" fill="#FBB63B"/>
<path d="M227.054 189.384C229.352 189.384 231.214 187.521 231.214 185.224C231.214 182.926 229.352 181.063 227.054 181.063C224.757 181.063 222.894 182.926 222.894 185.224C222.894 187.521 224.757 189.384 227.054 189.384Z" fill="#FBB63B"/>
<path d="M281.508 312.465C282.563 312.465 283.418 311.61 283.418 310.556C283.418 309.501 282.563 308.646 281.508 308.646C280.454 308.646 279.599 309.501 279.599 310.556C279.599 311.61 280.454 312.465 281.508 312.465Z" fill="#FBB63B"/>
<path d="M198.073 239.756C199.128 239.756 199.983 238.901 199.983 237.846C199.983 236.792 199.128 235.937 198.073 235.937C197.019 235.937 196.164 236.792 196.164 237.846C196.164 238.901 197.019 239.756 198.073 239.756Z" fill="#FBB63B"/>
<path d="M271.753 374.634C273.283 374.634 274.524 373.394 274.524 371.863C274.524 370.333 273.283 369.093 271.753 369.093C270.223 369.093 268.982 370.333 268.982 371.863C268.982 373.394 270.223 374.634 271.753 374.634Z" fill="#FBB63B"/>
<path d="M219.099 336.324C221.109 336.324 222.739 334.694 222.739 332.684C222.739 330.674 221.109 329.044 219.099 329.044C217.088 329.044 215.458 330.674 215.458 332.684C215.458 334.694 217.088 336.324 219.099 336.324Z" fill="#FBB63B"/>
<path d="M286.119 265.012C287.46 265.012 288.548 263.924 288.548 262.582C288.548 261.241 287.46 260.153 286.119 260.153C284.777 260.153 283.689 261.241 283.689 262.582C283.689 263.924 284.777 265.012 286.119 265.012Z" fill="#FBB63B"/>
<path d="M26.8629 298.455C28.2046 298.455 29.2923 297.367 29.2923 296.026C29.2923 294.684 28.2046 293.596 26.8629 293.596C25.5213 293.596 24.4336 294.684 24.4336 296.026C24.4336 297.367 25.5213 298.455 26.8629 298.455Z" fill="#FBB63B"/>
<path d="M186.695 191.65C188.225 191.65 189.466 190.409 189.466 188.879C189.466 187.349 188.225 186.108 186.695 186.108C185.164 186.108 183.924 187.349 183.924 188.879C183.924 190.409 185.164 191.65 186.695 191.65Z" fill="#FBB63B"/>
<path d="M180.204 129.503C181.735 129.503 182.975 128.262 182.975 126.732C182.975 125.201 181.735 123.961 180.204 123.961C178.674 123.961 177.434 125.201 177.434 126.732C177.434 128.262 178.674 129.503 180.204 129.503Z" fill="#FBB63B"/>
<path d="M476.415 133.082C478.987 133.082 481.072 130.997 481.072 128.425C481.072 125.854 478.987 123.769 476.415 123.769C473.843 123.769 471.758 125.854 471.758 128.425C471.758 130.997 473.843 133.082 476.415 133.082Z" fill="#FBB63B"/>
<path d="M433.439 259.99C434.617 259.99 435.573 259.034 435.573 257.856C435.573 256.677 434.617 255.721 433.439 255.721C432.26 255.721 431.304 256.677 431.304 257.856C431.304 259.034 432.26 259.99 433.439 259.99Z" fill="#FBB63B"/>
<path d="M532.321 152.92C533.5 152.92 534.455 151.965 534.455 150.786C534.455 149.607 533.5 148.651 532.321 148.651C531.142 148.651 530.187 149.607 530.187 150.786C530.187 151.965 531.142 152.92 532.321 152.92Z" fill="#FBB63B"/>
<path d="M375.568 102.23C376.747 102.23 377.702 101.274 377.702 100.095C377.702 98.9165 376.747 97.9609 375.568 97.9609C374.389 97.9609 373.434 98.9165 373.434 100.095C373.434 101.274 374.389 102.23 375.568 102.23Z" fill="#FBB63B"/>
<path d="M478.332 316.408C480.047 316.408 481.437 315.018 481.437 313.303C481.437 311.589 480.047 310.199 478.332 310.199C476.618 310.199 475.228 311.589 475.228 313.303C475.228 315.018 476.618 316.408 478.332 316.408Z" fill="#FBB63B"/>
<path d="M540.804 240.283C543.055 240.283 544.879 238.459 544.879 236.209C544.879 233.958 543.055 232.134 540.804 232.134C538.554 232.134 536.729 233.958 536.729 236.209C536.729 238.459 538.554 240.283 540.804 240.283Z" fill="#FBB63B"/>
<path d="M289.15 357.394C290.65 357.394 291.867 356.178 291.867 354.677C291.867 353.177 290.65 351.961 289.15 351.961C287.65 351.961 286.434 353.177 286.434 354.677C286.434 356.178 287.65 357.394 289.15 357.394Z" fill="#FBB63B"/>
<path d="M493.048 47.9075C495.619 47.9075 497.704 45.8226 497.704 43.2506C497.704 40.6787 495.619 38.5938 493.048 38.5938C490.476 38.5938 488.391 40.6787 488.391 43.2506C488.391 45.8226 490.476 47.9075 493.048 47.9075Z" fill="#FBB63B"/>
<path d="M442.139 13.2297C443.318 13.2297 444.274 12.2741 444.274 11.0953C444.274 9.91654 443.318 8.96094 442.139 8.96094C440.96 8.96094 440.005 9.91654 440.005 11.0953C440.005 12.2741 440.96 13.2297 442.139 13.2297Z" fill="#FBB63B"/>
<path d="M1201.25 134.665C1203.82 134.665 1205.91 132.58 1205.91 130.008C1205.91 127.437 1203.82 125.352 1201.25 125.352C1198.68 125.352 1196.59 127.437 1196.59 130.008C1196.59 132.58 1198.68 134.665 1201.25 134.665Z" fill="#FBB63B"/>
<path d="M1419.05 50.8181C1420.23 50.8181 1421.19 49.8625 1421.19 48.6837C1421.19 47.5049 1420.23 46.5493 1419.05 46.5493C1417.87 46.5493 1416.92 47.5049 1416.92 48.6837C1416.92 49.8625 1417.87 50.8181 1419.05 50.8181Z" fill="#FBB63B"/>
<path d="M1202.88 71.9524C1204.06 71.9524 1205.02 70.9968 1205.02 69.818C1205.02 68.6392 1204.06 67.6836 1202.88 67.6836C1201.7 67.6836 1200.75 68.6392 1200.75 69.818C1200.75 70.9968 1201.7 71.9524 1202.88 71.9524Z" fill="#FBB63B"/>
<path d="M1374.04 67.3112C1375.75 67.3112 1377.14 65.9213 1377.14 64.2066C1377.14 62.492 1375.75 61.1021 1374.04 61.1021C1372.32 61.1021 1370.93 62.492 1370.93 64.2066C1370.93 65.9213 1372.32 67.3112 1374.04 67.3112Z" fill="#FBB63B"/>
<path d="M1269.07 15.1495C1271.33 15.1495 1273.15 13.3252 1273.15 11.0748C1273.15 8.82434 1271.33 7 1269.07 7C1266.82 7 1265 8.82434 1265 11.0748C1265 13.3252 1266.82 15.1495 1269.07 15.1495Z" fill="#FBB63B"/>
<path d="M1319.92 107.485C1321.42 107.485 1322.64 106.269 1322.64 104.768C1322.64 103.268 1321.42 102.052 1319.92 102.052C1318.42 102.052 1317.21 103.268 1317.21 104.768C1317.21 106.269 1318.42 107.485 1319.92 107.485Z" fill="#FBB63B"/>
<path d="M1076.1 6.20918C1077.82 6.20918 1079.21 4.81921 1079.21 3.10459C1079.21 1.38997 1077.82 0 1076.1 0C1074.39 0 1073 1.38997 1073 3.10459C1073 4.81921 1074.39 6.20918 1076.1 6.20918Z" fill="#FBB63B"/>
<path d="M378.09 167.275C380.662 167.275 382.747 165.19 382.747 162.618C382.747 160.046 380.662 157.961 378.09 157.961C375.519 157.961 373.434 160.046 373.434 162.618C373.434 165.19 375.519 167.275 378.09 167.275Z" fill="#FBB63B"/>
<path d="M326.254 53.3562C327.433 53.3562 328.388 52.4006 328.388 51.2218C328.388 50.043 327.433 49.0874 326.254 49.0874C325.075 49.0874 324.12 50.043 324.12 51.2218C324.12 52.4006 325.075 53.3562 326.254 53.3562Z" fill="#FBB63B"/>
<path d="M330.251 177.214C331.43 177.214 332.386 176.258 332.386 175.079C332.386 173.9 331.43 172.945 330.251 172.945C329.072 172.945 328.117 173.9 328.117 175.079C328.117 176.258 329.072 177.214 330.251 177.214Z" fill="#FBB63B"/>
<path d="M266.172 19.3762C267.887 19.3762 269.277 17.9862 269.277 16.2716C269.277 14.557 267.887 13.167 266.172 13.167C264.457 13.167 263.067 14.557 263.067 16.2716C263.067 17.9862 264.457 19.3762 266.172 19.3762Z" fill="#FBB63B"/>
<path d="M262.866 93.7623C265.116 93.7623 266.941 91.938 266.941 89.6876C266.941 87.4371 265.116 85.6128 262.866 85.6128C260.615 85.6128 258.791 87.4371 258.791 89.6876C258.791 91.938 260.615 93.7623 262.866 93.7623Z" fill="#FBB63B"/>
<path d="M475.538 254.17C477.253 254.17 478.643 252.78 478.643 251.066C478.643 249.351 477.253 247.961 475.538 247.961C473.824 247.961 472.434 249.351 472.434 251.066C472.434 252.78 473.824 254.17 475.538 254.17Z" fill="#FBB63B"/>
<path d="M80.5382 181.17C82.2528 181.17 83.6428 179.78 83.6428 178.066C83.6428 176.351 82.2528 174.961 80.5382 174.961C78.8236 174.961 77.4336 176.351 77.4336 178.066C77.4336 179.78 78.8236 181.17 80.5382 181.17Z" fill="#FBB63B"/>
</g>
</svg>
