<svg width="1290" height="2257" viewBox="0 0 1290 2257" fill="none" xmlns="http://www.w3.org/2000/svg">
<path d="M19 1782C25 1766.5 55.5 1760 55.5 1760L1235 1756C1235 1756 1274.44 1765.72 1278.5 1780.5C1284 1800.5 1273.5 1809.12 1245.5 1813.5C1245.5 1813.5 947.5 1860.5 855.5 1872C763.5 1883.5 738.5 1985.5 738.5 2049C738.5 2112.5 811.5 2187 886 2212.5C960.5 2238 1290.5 2257 1290.5 2257H-2C-2 2257 332 2241 399.5 2212.5C467 2184 526.717 2124.18 536.5 2049C546 1976 528.5 1925 437.5 1872C379.187 1838.04 235.667 1824.61 140.088 1819.34C90.8362 1818.51 55.93 1817.42 48 1816C13 1809.72 12.3617 1799.15 19 1782Z" fill="#D8ECD8"/>
<path d="M488 1879C519.696 1897.57 544.406 1935.84 553.331 1980.17C562.256 2024.51 551.776 2070.86 536.421 2110.94C535.121 2114.35 530.769 2121.53 536.467 2124.35C542.804 2127.47 550.232 2118.77 551.985 2111.55C565.552 2055.83 569.754 2032.57 562.453 1984.98C554.886 1935.62 523.817 1893.27 488 1879Z" fill="#F7F4D3"/>
<path d="M45.6981 1777.69C40.577 1776.09 36.6723 1777.08 33.939 1782.61C31.386 1787.74 29.5688 1794.13 32.5273 1799C35.4859 1803.87 43.2502 1804.6 45.8484 1799.5C49.9933 1791.34 55.0694 1780.63 45.6981 1777.69Z" fill="#F7F4D3"/>
<path d="M84 1805.44C148.412 1807.95 212.825 1810.48 277.253 1812.99C284.814 1813.29 286.24 1806.93 280.413 1806.08C242.559 1800.58 153.154 1803.8 84 1805.44Z" fill="#F7F4D3"/>
<path d="M827 1856C792.023 1868.79 760.478 1883.53 732.618 1932.55C730.058 1937.04 730.517 1946.9 734.127 1949.51C737.737 1952.12 744.144 1943.64 746.141 1938.59C764.34 1892.88 798.992 1871.76 827 1856Z" fill="#F7F4D3"/>
<path d="M730.838 2111C738.723 2151.69 758.557 2187.2 785.835 2209.49C813.1 2231.77 847.607 2240.66 881.52 2234.11C815.177 2232.52 755.762 2175.94 730.838 2111Z" fill="#F7F4D3"/>
<rect x="298.733" y="99.6653" width="682.467" height="535.342" rx="10" fill="#C96928"/>
<rect x="299" y="269" width="683" height="285" fill="#F19B79"/>
<rect x="299" y="508" width="683" height="20" fill="#F19B79"/>
<path d="M297.361 99.6653C297.361 99.6653 715.617 99.6653 983.617 99.6653C983.617 133.101 983.617 151.847 983.617 185.282C983.617 185.282 944.425 204.7 907.648 154.389C870.872 104.079 838.071 171.16 826.144 185.282C813.222 198.522 768.495 209.113 760.543 172.925C754.579 145.563 747.621 127.91 727.742 127.027C714.821 126.144 701.9 133.206 694.942 143.798C687.985 154.389 677.051 167.629 667.111 163.216C653.196 157.037 637.293 128.792 614.432 140.267C607.475 143.797 602.504 150.859 601.511 157.92C598.529 173.807 593.5 194 568.5 194C559 194 534.333 195 519.012 149.093C514.333 137 512.054 134.971 504.103 132.323C495.157 129.675 483.23 130.558 468.321 148.211C438.502 182.634 414.647 181.751 392.781 162.333C374.889 146.445 368.926 135.854 353.022 139.384C346.065 141.15 340.101 144.68 336.126 149.976C324.198 164.099 295.373 194.991 292.392 169.395C287.422 139.385 297.361 99.6653 297.361 99.6653Z" fill="#542120"/>
<path d="M395.156 102.186C374.93 92.5324 406.919 2.69452 450.283 6.9225C490.562 10.8496 515.216 92.7135 493.329 101.649C471.443 110.585 415.383 111.84 395.156 102.186Z" fill="url(#paint0_linear_0)"/>
<path d="M484.252 85.599C484.252 85.599 487.198 89.8643 486.018 91.5723C485.25 92.6846 483.506 92.7074 482.557 91.9025C480.955 90.5439 484.252 85.599 484.252 85.599Z" fill="#EF9B7D"/>
<path d="M469.585 71.0177C469.585 71.0177 472.531 75.2831 471.351 76.991C470.583 78.1033 468.839 78.1261 467.89 77.3212C466.288 75.9627 469.585 71.0177 469.585 71.0177Z" fill="#EF9B7D"/>
<path d="M487.511 65.2623C487.511 65.2623 490.686 69.3751 489.601 71.1395C488.895 72.2886 487.154 72.3982 486.162 71.6417C484.488 70.3648 487.511 65.2623 487.511 65.2623Z" fill="#EF9B7D"/>
<path d="M464.919 48.5809C464.919 48.5809 467.865 52.8463 466.685 54.5542C465.917 55.6665 464.173 55.6893 463.224 54.8844C461.622 53.5259 464.919 48.5809 464.919 48.5809Z" fill="#EF9B7D"/>
<path d="M452.266 30.7456C452.266 30.7456 455.828 34.5312 454.921 36.393C454.331 37.6054 452.61 37.8837 451.549 37.227C449.758 36.1185 452.266 30.7456 452.266 30.7456Z" fill="#EF9B7D"/>
<path d="M480.362 43.9031C480.362 43.9031 483.537 48.0159 482.453 49.7803C481.746 50.9294 480.006 51.039 479.014 50.2825C477.34 49.0056 480.362 43.9031 480.362 43.9031Z" fill="#EF9B7D"/>
<path d="M454.286 86.5482C454.286 86.5482 457.231 90.8135 456.052 92.5215C455.284 93.6338 453.539 93.6566 452.59 92.8517C450.989 91.4931 454.286 86.5482 454.286 86.5482Z" fill="#EF9B7D"/>
<path d="M417.552 70.4122C417.552 70.4122 420.498 74.6776 419.318 76.3855C418.55 77.4978 416.806 77.5206 415.857 76.7157C414.255 75.3572 417.552 70.4122 417.552 70.4122Z" fill="#EF9B7D"/>
<path d="M438.796 73.328C438.796 73.328 441.97 77.4407 440.886 79.2051C440.179 80.3542 438.439 80.4638 437.447 79.7073C435.773 78.4304 438.796 73.328 438.796 73.328Z" fill="#EF9B7D"/>
<path d="M453.319 59.971C453.319 59.971 456.264 64.2363 455.085 65.9443C454.317 67.0566 452.573 67.0794 451.624 66.2745C450.022 64.9159 453.319 59.971 453.319 59.971Z" fill="#EF9B7D"/>
<path d="M438.819 40.9874C438.819 40.9874 441.765 45.2528 440.585 46.9607C439.817 48.073 438.073 48.0958 437.124 47.2909C435.522 45.9324 438.819 40.9874 438.819 40.9874Z" fill="#EF9B7D"/>
<path d="M428.162 23.9703C428.162 23.9703 431.337 28.083 430.252 29.8475C429.546 30.9965 427.805 31.1062 426.814 30.3496C425.14 29.0727 428.162 23.9703 428.162 23.9703Z" fill="#EF9B7D"/>
<path d="M421.966 86.3053C421.966 86.3053 424.911 90.5706 423.732 92.2786C422.964 93.3909 421.22 93.4137 420.271 92.6088C418.669 91.2502 421.966 86.3053 421.966 86.3053Z" fill="#EF9B7D"/>
<path d="M399.185 83.7008C399.185 83.7008 402.131 87.9661 400.952 89.6741C400.184 90.7864 398.439 90.8092 397.49 90.0043C395.888 88.6457 399.185 83.7008 399.185 83.7008Z" fill="#EF9B7D"/>
<path d="M428.162 55.2933C428.162 55.2933 431.337 59.406 430.252 61.1705C429.546 62.3195 427.805 62.4292 426.814 61.6726C425.14 60.3957 428.162 55.2933 428.162 55.2933Z" fill="#EF9B7D"/>
<path d="M468.078 26.7685C468.078 26.7685 471.828 30.3743 471.018 32.2783C470.49 33.5182 468.785 33.8807 467.692 33.277C465.847 32.2579 468.078 26.7685 468.078 26.7685Z" fill="#EF9B7D"/>
<path d="M447.519 14.4103C447.519 14.4103 450.465 18.6756 449.285 20.3836C448.517 21.4959 446.773 21.5187 445.824 20.7138C444.222 19.3552 447.519 14.4103 447.519 14.4103Z" fill="#EF9B7D"/>
<path d="M414.657 39.0713C414.657 39.0713 417.542 43.3743 416.338 45.0668C415.555 46.1691 413.81 46.1693 412.873 45.3522C411.29 43.9731 414.657 39.0713 414.657 39.0713Z" fill="#EF9B7D"/>
<path d="M404.024 59.0041C404.024 59.0041 406.909 63.3071 405.705 64.9997C404.921 66.102 403.177 66.1022 402.239 65.2851C400.657 63.906 404.024 59.0041 404.024 59.0041Z" fill="#EF9B7D"/>
<path d="M786.216 97.8192C766.615 86.9927 804.03 -0.801399 847.058 5.97052C887.024 12.2606 906.638 95.428 884.246 103.06C861.853 110.691 805.817 108.646 786.216 97.8192Z" fill="url(#paint1_linear_0)"/>
<path d="M876.164 86.505C876.164 86.505 878.845 90.936 877.563 92.5715C876.728 93.6366 874.986 93.5567 874.088 92.6974C872.572 91.247 876.164 86.505 876.164 86.505Z" fill="#EF9B7D"/>
<path d="M862.414 71.0868C862.414 71.0868 865.094 75.5178 863.812 77.1533C862.978 78.2184 861.235 78.1385 860.337 77.2792C858.821 75.8289 862.414 71.0868 862.414 71.0868Z" fill="#EF9B7D"/>
<path d="M880.659 66.3962C880.659 66.3962 883.577 70.6884 882.386 72.3858C881.611 73.4912 879.867 73.4983 878.923 72.6848C877.33 71.3117 880.659 66.3962 880.659 66.3962Z" fill="#EF9B7D"/>
<path d="M859.125 48.4156C859.125 48.4156 861.805 52.8466 860.523 54.4821C859.689 55.5472 857.946 55.4673 857.048 54.608C855.532 53.1577 859.125 48.4156 859.125 48.4156Z" fill="#EF9B7D"/>
<path d="M847.584 29.868C847.584 29.868 850.908 33.8564 849.889 35.6614C849.226 36.837 847.491 37.0135 846.472 36.2955C844.753 35.0837 847.584 29.868 847.584 29.868Z" fill="#EF9B7D"/>
<path d="M874.826 44.6547C874.826 44.6547 877.744 48.9469 876.554 50.6443C875.778 51.7497 874.034 51.7568 873.091 50.9432C871.498 49.5701 874.826 44.6547 874.826 44.6547Z" fill="#EF9B7D"/>
<path d="M846.194 85.6891C846.194 85.6891 848.874 90.1201 847.592 91.7556C846.758 92.8207 845.015 92.7408 844.117 91.8815C842.601 90.4311 846.194 85.6891 846.194 85.6891Z" fill="#EF9B7D"/>
<path d="M810.511 67.4208C810.511 67.4208 813.191 71.8518 811.91 73.4873C811.075 74.5524 809.332 74.4725 808.434 73.6132C806.918 72.1628 810.511 67.4208 810.511 67.4208Z" fill="#EF9B7D"/>
<path d="M831.538 71.581C831.538 71.581 834.456 75.8731 833.266 77.5706C832.491 78.676 830.747 78.683 829.803 77.8695C828.21 76.4964 831.538 71.581 831.538 71.581Z" fill="#EF9B7D"/>
<path d="M846.851 59.1028C846.851 59.1028 849.531 63.5338 848.249 65.1693C847.415 66.2344 845.672 66.1545 844.774 65.2952C843.258 63.8449 846.851 59.1028 846.851 59.1028Z" fill="#EF9B7D"/>
<path d="M833.535 39.3002C833.535 39.3002 836.216 43.7312 834.934 45.3666C834.099 46.4317 832.357 46.3519 831.459 45.4926C829.943 44.0422 833.535 39.3002 833.535 39.3002Z" fill="#EF9B7D"/>
<path d="M823.936 21.6864C823.936 21.6864 826.854 25.9786 825.664 27.676C824.889 28.7815 823.145 28.7885 822.201 27.975C820.608 26.6019 823.936 21.6864 823.936 21.6864Z" fill="#EF9B7D"/>
<path d="M813.947 83.5448C813.947 83.5448 816.627 87.9758 815.345 89.6113C814.511 90.6764 812.768 90.5965 811.87 89.7372C810.354 88.2868 813.947 83.5448 813.947 83.5448Z" fill="#EF9B7D"/>
<path d="M791.367 79.6046C791.367 79.6046 794.047 84.0356 792.765 85.6711C791.93 86.7362 790.188 86.6563 789.29 85.797C787.774 84.3466 791.367 79.6046 791.367 79.6046Z" fill="#EF9B7D"/>
<path d="M822.025 52.9533C822.025 52.9533 824.943 57.2455 823.752 58.9429C822.977 60.0483 821.233 60.0553 820.289 59.2418C818.696 57.8687 822.025 52.9533 822.025 52.9533Z" fill="#EF9B7D"/>
<path d="M863.61 26.8283C863.61 26.8283 867.133 30.6483 866.208 32.5012C865.605 33.7078 863.881 33.9694 862.827 33.3024C861.048 32.1766 863.61 26.8283 863.61 26.8283Z" fill="#EF9B7D"/>
<path d="M843.842 13.2823C843.842 13.2823 846.522 17.7133 845.24 19.3488C844.406 20.4139 842.663 20.334 841.765 19.4747C840.249 18.0244 843.842 13.2823 843.842 13.2823Z" fill="#EF9B7D"/>
<path d="M809.534 35.9658C809.534 35.9658 812.151 40.4308 810.846 42.0495C809.996 43.1037 808.255 43.0013 807.369 42.1305C805.874 40.6607 809.534 35.9658 809.534 35.9658Z" fill="#EF9B7D"/>
<path d="M797.703 55.237C797.703 55.237 800.32 59.702 799.016 61.3207C798.166 62.3749 796.425 62.2725 795.539 61.4017C794.043 59.9319 797.703 55.237 797.703 55.237Z" fill="#EF9B7D"/>
<path d="M590.665 100.503C570.713 90.3141 605.17 1.36047 648.401 6.74071C688.557 11.7381 710.943 94.228 688.818 102.578C666.692 110.928 610.618 110.691 590.665 100.503Z" fill="url(#paint2_linear_0)"/>
<path d="M680.186 86.2925C680.186 86.2925 683.013 90.6347 681.787 92.3106C680.989 93.4021 679.244 93.3785 678.318 92.5486C676.754 91.1479 680.186 86.2925 680.186 86.2925Z" fill="#EF9B7D"/>
<path d="M665.927 71.3263C665.927 71.3263 668.754 75.6684 667.528 77.3444C666.729 78.4358 664.985 78.4122 664.059 77.5823C662.495 76.1816 665.927 71.3263 665.927 71.3263Z" fill="#EF9B7D"/>
<path d="M684.005 66.0498C684.005 66.0498 687.065 70.2455 685.933 71.9804C685.195 73.1103 683.452 73.1736 682.481 72.3909C680.843 71.07 684.005 66.0498 684.005 66.0498Z" fill="#EF9B7D"/>
<path d="M661.882 48.7735C661.882 48.7735 664.709 53.1156 663.483 54.7916C662.684 55.883 660.94 55.8594 660.014 55.0296C658.45 53.6289 661.882 48.7735 661.882 48.7735Z" fill="#EF9B7D"/>
<path d="M649.726 30.6079C649.726 30.6079 653.182 34.4869 652.224 36.3238C651.601 37.5201 649.873 37.7525 648.83 37.0678C647.071 35.9121 649.726 30.6079 649.726 30.6079Z" fill="#EF9B7D"/>
<path d="M677.449 44.5082C677.449 44.5082 680.509 48.704 679.376 50.4389C678.638 51.5687 676.895 51.632 675.925 50.8494C674.287 49.5284 677.449 44.5082 677.449 44.5082Z" fill="#EF9B7D"/>
<path d="M650.204 86.4439C650.204 86.4439 653.031 90.7861 651.805 92.462C651.007 93.5535 649.262 93.5298 648.336 92.7C646.772 91.2993 650.204 86.4439 650.204 86.4439Z" fill="#EF9B7D"/>
<path d="M613.93 69.3362C613.93 69.3362 616.757 73.6784 615.531 75.3543C614.732 76.4458 612.988 76.4222 612.062 75.5923C610.498 74.1916 613.93 69.3362 613.93 69.3362Z" fill="#EF9B7D"/>
<path d="M635.085 72.8163C635.085 72.8163 638.146 77.0121 637.013 78.747C636.275 79.8768 634.532 79.9401 633.561 79.1575C631.923 77.8365 635.085 72.8163 635.085 72.8163Z" fill="#EF9B7D"/>
<path d="M649.972 59.8508C649.972 59.8508 652.799 64.193 651.573 65.8689C650.774 66.9604 649.03 66.9367 648.103 66.1069C646.54 64.7062 649.972 59.8508 649.972 59.8508Z" fill="#EF9B7D"/>
<path d="M636.001 40.4883C636.001 40.4883 638.828 44.8305 637.602 46.5064C636.804 47.5979 635.059 47.5743 634.133 46.7444C632.569 45.3437 636.001 40.4883 636.001 40.4883Z" fill="#EF9B7D"/>
<path d="M625.818 23.1935C625.818 23.1935 628.878 27.3893 627.745 29.1242C627.007 30.254 625.264 30.3173 624.294 29.5347C622.656 28.2137 625.818 23.1935 625.818 23.1935Z" fill="#EF9B7D"/>
<path d="M617.903 85.3411C617.903 85.3411 620.73 89.6833 619.504 91.3592C618.705 92.4507 616.961 92.427 616.035 91.5972C614.471 90.1965 617.903 85.3411 617.903 85.3411Z" fill="#EF9B7D"/>
<path d="M595.203 82.1314C595.203 82.1314 598.03 86.4736 596.804 88.1495C596.006 89.241 594.261 89.2173 593.335 88.3875C591.771 86.9868 595.203 82.1314 595.203 82.1314Z" fill="#EF9B7D"/>
<path d="M624.954 54.5055C624.954 54.5055 628.014 58.7013 626.881 60.4362C626.143 61.566 624.4 61.6293 623.429 60.8467C621.792 59.5257 624.954 54.5055 624.954 54.5055Z" fill="#EF9B7D"/>
<path d="M665.642 27.053C665.642 27.053 669.291 30.7573 668.429 32.639C667.867 33.8645 666.153 34.1815 665.077 33.5489C663.261 32.4811 665.642 27.053 665.642 27.053Z" fill="#EF9B7D"/>
<path d="M645.431 14.1524C645.431 14.1524 648.258 18.4945 647.032 20.1705C646.234 21.262 644.489 21.2383 643.563 20.4085C641.999 19.0078 645.431 14.1524 645.431 14.1524Z" fill="#EF9B7D"/>
<path d="M611.901 37.93C611.901 37.93 614.666 42.3082 613.416 43.9681C612.602 45.0491 610.859 45.0029 609.944 44.1612C608.4 42.7404 611.901 37.93 611.901 37.93Z" fill="#EF9B7D"/>
<path d="M600.721 57.5725C600.721 57.5725 603.487 61.9507 602.237 63.6106C601.423 64.6917 599.679 64.6455 598.764 63.8037C597.221 62.383 600.721 57.5725 600.721 57.5725Z" fill="#EF9B7D"/>
<path d="M354.249 4.77977C348.449 19.0179 363.228 17.1192 370.199 28.984C372.146 32.2982 382.766 45.1204 373.099 56.5107C378.918 59.7185 381.916 62.6616 385.182 68.3755C391.096 78.7188 397.263 98.7496 385.182 98.7496H305.916C293.836 98.7496 299.735 78.5669 305.916 68.3755C309.541 62.3982 312.991 59.3732 319.449 56.5107C311.232 42.7475 318.966 34.2048 326.216 24.7129C336.402 11.3774 360.049 -9.45834 354.249 4.77977Z" fill="#E8D7A5"/>
<path d="M349.021 16.2256C349.268 12.2642 354.404 2.92903 354.404 2.92903C354.404 2.92903 354.609 2.69948 354.569 3.2477C354.555 3.44895 354.507 3.755 354.404 4.21569C354.307 4.64462 353.392 7.60191 353.25 8.0761C352.866 9.36276 352.799 11.8986 353.635 13.652C354.174 14.7836 354.249 14.7462 356.182 16.6446C356.941 17.3893 357.929 18.1597 359.082 19.0175C361.005 20.3043 363.432 21.8651 363.432 21.8651C363.432 21.8651 359.071 24.7127 357.149 24.7127C354.489 24.7127 352.686 24.9786 350.866 22.8143C349.071 20.6812 348.84 19.1439 349.021 16.2256Z" fill="#DBCB9B"/>
<path d="M327.713 49.8661C319.98 41.873 320.416 32.3062 320.416 32.3062C320.416 32.3062 314.961 39.4922 316.066 46.544C317.032 52.7137 317.999 55.0867 319.932 56.5104C321.866 57.9342 325.205 60.7818 335.882 60.7818C341.199 60.7818 343.674 60.44 349.416 57.9342C351.345 57.0921 356.3 55.547 360.532 55.0867C366.503 54.4372 372.132 56.0358 372.132 56.0358C372.132 56.0358 365.281 53.8534 361.982 53.6629C353.766 53.1883 333.324 55.666 327.713 49.8661Z" fill="#DBCB9B"/>
<path d="M298.772 89.915C298.182 79.291 304.466 71.2229 304.466 71.2229C304.466 71.2229 306.683 86.6375 312.199 89.915C316.051 92.204 335.882 95.9018 335.882 95.9018L368.749 98.7418H317.942C315.037 98.7418 304.861 99.6705 302.049 97.8002C299.306 95.9753 298.973 93.525 298.772 89.915Z" fill="#DBCB9B"/>
<path d="M374.19 69.1047C376.645 71.9066 379.3 76.8324 379.3 76.8324C379.3 76.8324 380.838 76.0272 381.199 73.8843C381.363 72.9068 380.937 70.4653 379.905 68.6242C378.507 66.1297 376.742 64.4653 375.372 63.4902C374.671 62.9917 372.773 61.9599 370.782 61.637C369.537 61.4351 366.978 62.7474 366.978 62.7474C366.978 62.7474 371.828 66.4085 374.19 69.1047Z" fill="#F6E5B1"/>
<path d="M365.219 31.8926C366.356 33.7903 367.419 37.0379 367.419 37.0379C367.419 37.0379 368.564 36.3782 368.955 35.0463C369.134 34.4387 369.073 33.0552 368.654 31.8393C368.085 30.1918 367.065 29.1036 366.379 28.4156C366.028 28.0639 364.342 27.2351 363.673 27.0969C362.977 26.9531 361.716 27.4991 361.716 27.4991C361.716 27.4991 364.126 30.0664 365.219 31.8926Z" fill="#F6E5B1"/>
<path d="M334.983 35.5945C329.652 27.0783 339.817 10.4411 339.817 10.4411L343.2 7.1189C343.2 7.1189 339.663 17.0491 340.783 21.8313C341.923 26.6946 343.43 30.7743 347.55 33.6962C351.375 36.409 358.183 35.5945 363.5 35.5945C368.817 35.5945 372.683 38.4421 374.617 40.8151C377.118 43.8852 377.578 46.5102 377.033 49.3578C376.269 53.357 373.167 56.4767 373.167 56.4767C373.167 56.4767 370.703 47.7091 366.4 45.0864C362.07 42.4474 353.13 42.7134 348.033 42.7134C343.683 42.7134 339.094 42.162 334.983 35.5945Z" fill="#542120"/>
<path d="M330.634 73.0875C321.45 69.9669 312.844 60.748 312.844 60.748C312.844 60.748 310.427 61.6972 309.46 63.5956C308.494 65.494 312.267 72.1383 316.617 75.4605C320.967 78.7826 328.124 82.5794 344.167 85.9015C363.298 89.8631 390.567 93.0204 391.534 93.0204C392.5 93.0204 392.017 90.1729 392.017 87.7999C392.017 85.4269 391.534 82.5794 391.534 82.5794C391.534 82.5794 344.65 77.8505 330.634 73.0875Z" fill="#542120"/>
<path d="M554.349 4.77977C548.549 19.0179 563.328 17.1192 570.299 28.984C572.246 32.2982 582.866 45.1204 573.199 56.5107C579.018 59.7185 582.016 62.6616 585.283 68.3755C591.196 78.7188 597.363 98.7496 585.283 98.7496H506.016C493.936 98.7496 499.835 78.5669 506.016 68.3755C509.641 62.3982 513.092 59.3732 519.549 56.5107C511.333 42.7475 519.066 34.2048 526.316 24.7129C536.502 11.3774 560.149 -9.45834 554.349 4.77977Z" fill="#E8D7A5"/>
<path d="M549.121 16.2256C549.368 12.2642 554.504 2.92903 554.504 2.92903C554.504 2.92903 554.709 2.69948 554.669 3.2477C554.655 3.44895 554.607 3.755 554.504 4.21569C554.408 4.64462 553.492 7.60191 553.35 8.0761C552.966 9.36276 552.899 11.8986 553.735 13.652C554.274 14.7836 554.349 14.7462 556.282 16.6446C557.041 17.3893 558.029 18.1597 559.182 19.0175C561.105 20.3043 563.532 21.8651 563.532 21.8651C563.532 21.8651 559.171 24.7127 557.249 24.7127C554.589 24.7127 552.786 24.9786 550.966 22.8143C549.171 20.6812 548.94 19.1439 549.121 16.2256Z" fill="#DBCB9B"/>
<path d="M527.813 49.8661C520.08 41.873 520.516 32.3062 520.516 32.3062C520.516 32.3062 515.061 39.4922 516.166 46.544C517.132 52.7137 518.099 55.0867 520.032 56.5104C521.966 57.9342 525.305 60.7818 535.982 60.7818C541.299 60.7818 543.774 60.44 549.516 57.9342C551.445 57.0921 556.4 55.547 560.632 55.0867C566.603 54.4372 572.232 56.0358 572.232 56.0358C572.232 56.0358 565.382 53.8534 562.082 53.6629C553.866 53.1883 533.424 55.666 527.813 49.8661Z" fill="#DBCB9B"/>
<path d="M498.873 89.915C498.283 79.291 504.566 71.2229 504.566 71.2229C504.566 71.2229 506.783 86.6375 512.299 89.915C516.152 92.204 535.983 95.9018 535.983 95.9018L568.849 98.7418H518.042C515.137 98.7418 504.961 99.6705 502.149 97.8002C499.406 95.9753 499.073 93.525 498.873 89.915Z" fill="#DBCB9B"/>
<path d="M574.29 69.1047C576.745 71.9066 579.4 76.8324 579.4 76.8324C579.4 76.8324 580.938 76.0272 581.299 73.8843C581.463 72.9068 581.037 70.4653 580.005 68.6242C578.607 66.1297 576.842 64.4653 575.472 63.4902C574.771 62.9917 572.873 61.9599 570.882 61.637C569.637 61.4351 567.079 62.7474 567.079 62.7474C567.079 62.7474 571.928 66.4085 574.29 69.1047Z" fill="#F6E5B1"/>
<path d="M565.319 31.8926C566.456 33.7903 567.519 37.0379 567.519 37.0379C567.519 37.0379 568.664 36.3782 569.055 35.0463C569.234 34.4387 569.174 33.0552 568.754 31.8393C568.186 30.1918 567.165 29.1036 566.479 28.4156C566.128 28.0639 564.442 27.2351 563.773 27.0969C563.077 26.9531 561.816 27.4991 561.816 27.4991C561.816 27.4991 564.226 30.0664 565.319 31.8926Z" fill="#F6E5B1"/>
<path d="M535.083 35.5945C529.752 27.0783 539.917 10.4411 539.917 10.4411L543.3 7.1189C543.3 7.1189 539.763 17.0491 540.883 21.8313C542.023 26.6946 543.53 30.7743 547.65 33.6962C551.476 36.409 558.283 35.5945 563.6 35.5945C568.917 35.5945 572.783 38.4421 574.717 40.8151C577.218 43.8852 577.678 46.5102 577.133 49.3578C576.369 53.357 573.267 56.4767 573.267 56.4767C573.267 56.4767 570.803 47.7091 566.5 45.0864C562.17 42.4474 553.23 42.7134 548.133 42.7134C543.783 42.7134 539.195 42.162 535.083 35.5945Z" fill="#542120"/>
<path d="M530.734 73.0875C521.55 69.9669 512.944 60.748 512.944 60.748C512.944 60.748 510.527 61.6972 509.56 63.5956C508.594 65.494 512.367 72.1383 516.717 75.4605C521.067 78.7826 528.224 82.5794 544.267 85.9015C563.398 89.8631 590.667 93.0204 591.634 93.0204C592.6 93.0204 592.117 90.1729 592.117 87.7999C592.117 85.4269 591.634 82.5794 591.634 82.5794C591.634 82.5794 544.75 77.8505 530.734 73.0875Z" fill="#542120"/>
<path d="M745.749 7.62718C739.949 21.8653 754.728 19.9666 761.699 31.8314C763.646 35.1456 774.266 47.9678 764.599 59.3581C770.418 62.5659 773.416 65.509 776.682 71.223C782.596 81.5662 788.763 101.597 776.682 101.597H697.416C685.336 101.597 691.235 81.4143 697.416 71.223C701.041 65.2456 704.491 62.2206 710.949 59.3581C702.732 45.5949 710.466 37.0522 717.716 27.5603C727.902 14.2249 751.549 -6.61093 745.749 7.62718Z" fill="#E8D7A5"/>
<path d="M740.521 19.073C740.768 15.1116 745.904 5.77644 745.904 5.77644C745.904 5.77644 746.109 5.54689 746.069 6.09511C746.055 6.29636 746.007 6.60241 745.904 7.06311C745.807 7.49203 744.892 10.4493 744.75 10.9235C744.366 12.2102 744.299 14.746 745.135 16.4994C745.674 17.6311 745.749 17.5936 747.682 19.492C748.441 20.2368 749.429 21.0071 750.582 21.865C752.505 23.1517 754.932 24.7125 754.932 24.7125C754.932 24.7125 750.571 27.5601 748.649 27.5601C745.989 27.5601 744.186 27.826 742.366 25.6617C740.571 23.5286 740.34 21.9913 740.521 19.073Z" fill="#DBCB9B"/>
<path d="M719.213 52.7135C711.48 44.7204 711.916 35.1536 711.916 35.1536C711.916 35.1536 706.461 42.3396 707.566 49.3914C708.532 55.5611 709.499 57.9341 711.432 59.3579C713.366 60.7816 716.705 63.6292 727.382 63.6292C732.699 63.6292 735.174 63.2874 740.916 60.7816C742.845 59.9396 747.8 58.3945 752.032 57.9341C758.003 57.2847 763.632 58.8833 763.632 58.8833C763.632 58.8833 756.781 56.7008 753.482 56.5103C745.266 56.0357 724.824 58.5135 719.213 52.7135Z" fill="#DBCB9B"/>
<path d="M690.272 92.7624C689.682 82.1384 695.966 74.0703 695.966 74.0703C695.966 74.0703 698.183 89.4849 703.699 92.7624C707.551 95.0514 727.382 98.7492 727.382 98.7492L760.249 101.589H709.442C706.537 101.589 696.361 102.518 693.549 100.648C690.806 98.8227 690.473 96.3724 690.272 92.7624Z" fill="#DBCB9B"/>
<path d="M765.69 71.9521C768.145 74.754 770.8 79.6798 770.8 79.6798C770.8 79.6798 772.338 78.8747 772.699 76.7317C772.863 75.7542 772.437 73.3127 771.405 71.4716C770.007 68.9771 768.242 67.3127 766.872 66.3376C766.171 65.8391 764.273 64.8073 762.282 64.4844C761.037 64.2825 758.478 65.5948 758.478 65.5948C758.478 65.5948 763.328 69.2559 765.69 71.9521Z" fill="#F6E5B1"/>
<path d="M756.719 34.74C757.856 36.6377 758.919 39.8853 758.919 39.8853C758.919 39.8853 760.064 39.2257 760.455 37.8937C760.634 37.2862 760.573 35.9027 760.154 34.6867C759.585 33.0392 758.565 31.951 757.879 31.263C757.528 30.9113 755.842 30.0825 755.173 29.9443C754.477 29.8006 753.216 30.3465 753.216 30.3465C753.216 30.3465 755.626 32.9138 756.719 34.74Z" fill="#F6E5B1"/>
<path d="M726.483 38.4419C721.152 29.9258 731.317 13.2885 731.317 13.2885L734.7 9.96631C734.7 9.96631 731.163 19.8966 732.283 24.6787C733.423 29.5421 734.93 33.6217 739.05 36.5436C742.875 39.2564 749.683 38.4419 755 38.4419C760.317 38.4419 764.183 41.2895 766.117 43.6625C768.618 46.7326 769.078 49.3576 768.533 52.2052C767.769 56.2044 764.667 59.3241 764.667 59.3241C764.667 59.3241 762.203 50.5565 757.9 47.9338C753.57 45.2948 744.63 45.5609 739.533 45.5609C735.183 45.5609 730.594 45.0094 726.483 38.4419Z" fill="#542120"/>
<path d="M722.134 75.9349C712.95 72.8143 704.344 63.5955 704.344 63.5955C704.344 63.5955 701.927 64.5446 700.96 66.443C699.994 68.3414 703.767 74.9857 708.117 78.3079C712.467 81.63 719.624 85.4268 735.667 88.7489C754.798 92.7105 782.067 95.8678 783.034 95.8678C784 95.8678 783.517 93.0203 783.517 90.6473C783.517 88.2743 783.034 85.4268 783.034 85.4268C783.034 85.4268 736.15 80.6979 722.134 75.9349Z" fill="#542120"/>
<path d="M942.949 7.62718C937.149 21.8653 951.928 19.9666 958.899 31.8314C960.846 35.1456 971.466 47.9678 961.799 59.3581C967.618 62.5659 970.615 65.509 973.882 71.223C979.796 81.5662 985.962 101.597 973.882 101.597H894.615C882.535 101.597 888.434 81.4143 894.615 71.223C898.241 65.2456 901.691 62.2206 908.149 59.3581C899.932 45.5949 907.666 37.0522 914.916 27.5603C925.101 14.2249 948.749 -6.61093 942.949 7.62718Z" fill="#E8D7A5"/>
<path d="M937.721 19.073C937.967 15.1116 943.103 5.77644 943.103 5.77644C943.103 5.77644 943.309 5.54689 943.269 6.09511C943.254 6.29636 943.207 6.60241 943.103 7.06311C943.007 7.49203 942.092 10.4493 941.95 10.9235C941.566 12.2102 941.499 14.746 942.334 16.4994C942.874 17.6311 942.949 17.5936 944.882 19.492C945.641 20.2368 946.629 21.0071 947.782 21.865C949.704 23.1517 952.132 24.7125 952.132 24.7125C952.132 24.7125 947.771 27.5601 945.849 27.5601C943.188 27.5601 941.386 27.826 939.565 25.6617C937.771 23.5286 937.54 21.9913 937.721 19.073Z" fill="#DBCB9B"/>
<path d="M916.413 52.7135C908.679 44.7204 909.115 35.1536 909.115 35.1536C909.115 35.1536 903.661 42.3396 904.765 49.3914C905.732 55.5611 906.699 57.9341 908.632 59.3579C910.565 60.7816 913.905 63.6292 924.582 63.6292C929.899 63.6292 932.374 63.2874 938.115 60.7816C940.045 59.9396 944.999 58.3945 949.232 57.9341C955.202 57.2847 960.832 58.8833 960.832 58.8833C960.832 58.8833 953.981 56.7008 950.682 56.5103C942.465 56.0357 922.024 58.5135 916.413 52.7135Z" fill="#DBCB9B"/>
<path d="M887.472 92.7624C886.882 82.1384 893.166 74.0703 893.166 74.0703C893.166 74.0703 895.383 89.4849 900.899 92.7624C904.751 95.0514 924.582 98.7492 924.582 98.7492L957.449 101.589H906.641C903.737 101.589 893.561 102.518 890.749 100.648C888.005 98.8227 887.673 96.3724 887.472 92.7624Z" fill="#DBCB9B"/>
<path d="M962.89 71.9521C965.344 74.754 968 79.6798 968 79.6798C968 79.6798 969.538 78.8747 969.898 76.7317C970.063 75.7542 969.637 73.3127 968.605 71.4716C967.206 68.9771 965.442 67.3127 964.071 66.3376C963.371 65.8391 961.473 64.8073 959.481 64.4844C958.237 64.2825 955.678 65.5948 955.678 65.5948C955.678 65.5948 960.528 69.2559 962.89 71.9521Z" fill="#F6E5B1"/>
<path d="M953.919 34.74C955.055 36.6377 956.118 39.8853 956.118 39.8853C956.118 39.8853 957.263 39.2257 957.655 37.8937C957.834 37.2862 957.773 35.9027 957.354 34.6867C956.785 33.0392 955.765 31.951 955.079 31.263C954.728 30.9113 953.042 30.0825 952.373 29.9443C951.676 29.8006 950.415 30.3465 950.415 30.3465C950.415 30.3465 952.825 32.9138 953.919 34.74Z" fill="#F6E5B1"/>
<path d="M923.683 38.4419C918.352 29.9258 928.516 13.2885 928.516 13.2885L931.9 9.96631C931.9 9.96631 928.362 19.8966 929.483 24.6787C930.623 29.5421 932.13 33.6217 936.25 36.5436C940.075 39.2564 946.883 38.4419 952.2 38.4419C957.516 38.4419 961.383 41.2895 963.316 43.6625C965.818 46.7326 966.277 49.3576 965.733 52.2052C964.969 56.2044 961.866 59.3241 961.866 59.3241C961.866 59.3241 959.403 50.5565 955.1 47.9338C950.77 45.2948 941.829 45.5609 936.733 45.5609C932.383 45.5609 927.794 45.0094 923.683 38.4419Z" fill="#542120"/>
<path d="M919.333 75.9349C910.15 72.8143 901.543 63.5955 901.543 63.5955C901.543 63.5955 899.127 64.5446 898.16 66.443C897.193 68.3414 900.967 74.9857 905.317 78.3079C909.667 81.63 916.823 85.4268 932.867 88.7489C951.998 92.7105 979.267 95.8678 980.233 95.8678C981.2 95.8678 980.717 93.0203 980.717 90.6473C980.717 88.2743 980.233 85.4268 980.233 85.4268C980.233 85.4268 933.35 80.6979 919.333 75.9349Z" fill="#542120"/>
<path d="M297.767 98.7156H984.583V153.199C984.583 153.199 951.422 162.186 915.057 130.17C878.693 98.1538 843.524 126.8 825.538 153.199C813.557 184.142 779.853 179.645 771.991 156.616C766.094 139.204 747.896 116.689 728.239 116.128C715.463 115.566 702.687 120.06 695.807 126.8C688.928 133.54 678.116 141.965 668.288 139.157C654.529 135.225 637.709 116.75 615.333 116.75C608.833 116.75 599.173 116.75 595.574 130.17C584.356 172 575 178.5 569 178.5C556.631 178.5 540 171 526.458 130.17C521.141 118.174 507.608 116.75 499.874 116.75C491.029 115.065 476.916 118.936 462.174 130.17C432.69 152.075 418.653 150.952 397.031 138.595C379.34 128.485 375.565 124.696 358.667 121.496C349.465 121.496 343.942 122.093 335.95 131.937C320.33 151.177 302.648 162.938 299.7 146.65C294.786 127.552 297.767 98.7156 297.767 98.7156Z" fill="#E8D7A5"/>
<rect x="170.5" y="635.006" width="949.267" height="534.393" rx="10" fill="#C96928"/>
<rect x="171" y="803" width="949" height="271" fill="#F19B79"/>
<path d="M172.554 635.006H1120.73V722.958C1120.73 722.958 1069.74 742.906 1018.75 691.223C967.758 639.54 922.277 708.451 905.739 722.958C887.823 736.559 825.806 747.439 814.78 710.264C806.511 682.156 796.864 664.021 769.3 663.114C751.384 662.208 733.469 669.462 723.822 680.342C714.174 691.223 699.014 704.824 685.232 700.29C665.938 693.943 643.888 664.928 612.19 676.715C602.543 680.342 595.651 687.596 594.273 694.85C590.139 711.171 574.98 745.626 536.391 741.999C496.424 738.372 484.019 701.197 479.884 685.782C478.506 677.622 470.237 671.275 459.212 668.555C446.808 665.835 430.271 666.742 409.598 684.876C368.253 720.238 335.177 719.331 304.858 699.383C280.051 683.062 271.782 672.182 249.731 675.809C240.084 677.622 231.815 681.249 226.303 686.689C209.765 701.197 169.797 732.932 165.663 706.637C158.772 675.809 172.554 635.006 172.554 635.006Z" fill="#542120"/>
<path d="M171.738 635.007H1120.73V689.424C1120.73 689.424 1074.91 698.4 1024.67 666.423C974.422 634.445 925.827 663.057 900.976 689.424C884.421 720.33 837.852 715.838 826.988 692.837C818.84 675.446 793.695 652.959 766.535 652.398C748.881 651.837 731.228 656.325 721.722 663.057C712.217 669.789 697.278 678.204 683.698 675.399C664.686 671.472 639.171 648.471 607.937 655.764C598.431 658.008 591.687 658.5 584.5 667C573.509 680 569.16 714.99 531.136 712.746C491.754 710.502 491.801 675.96 487.727 666.423C480.38 654.441 461.681 653.019 450.996 653.019C438.774 651.336 419.274 655.203 398.904 666.423C358.165 688.302 338.77 687.18 308.894 674.838C284.45 664.74 279.234 660.955 255.885 657.76C243.171 657.76 235.539 658.356 224.497 668.188C202.914 687.405 178.483 699.152 174.409 682.883C167.619 663.808 171.738 635.007 171.738 635.007Z" fill="#E8D7A5"/>
<path d="M974.18 638.107C956.765 628.909 990.007 554.319 1028.24 560.072C1063.74 565.416 1081.17 636.075 1061.28 642.559C1041.38 649.043 991.595 647.305 974.18 638.107Z" fill="url(#paint3_linear_0)"/>
<path d="M1054.1 628.494C1054.1 628.494 1056.48 632.259 1055.34 633.648C1054.6 634.553 1053.05 634.485 1052.25 633.755C1050.9 632.523 1054.1 628.494 1054.1 628.494Z" fill="#EF9B7D"/>
<path d="M1041.88 615.395C1041.88 615.395 1044.26 619.16 1043.12 620.549C1042.38 621.454 1040.83 621.386 1040.03 620.656C1038.69 619.424 1041.88 615.395 1041.88 615.395Z" fill="#EF9B7D"/>
<path d="M1058.09 611.41C1058.09 611.41 1060.68 615.057 1059.62 616.499C1058.94 617.438 1057.39 617.444 1056.55 616.753C1055.13 615.586 1058.09 611.41 1058.09 611.41Z" fill="#EF9B7D"/>
<path d="M1038.96 596.134C1038.96 596.134 1041.34 599.898 1040.2 601.288C1039.46 602.193 1037.91 602.125 1037.11 601.395C1035.76 600.163 1038.96 596.134 1038.96 596.134Z" fill="#EF9B7D"/>
<path d="M1028.7 580.376C1028.7 580.376 1031.66 583.764 1030.75 585.298C1030.16 586.296 1028.62 586.446 1027.72 585.836C1026.19 584.807 1028.7 580.376 1028.7 580.376Z" fill="#EF9B7D"/>
<path d="M1052.91 592.939C1052.91 592.939 1055.5 596.585 1054.44 598.027C1053.75 598.966 1052.2 598.972 1051.37 598.281C1049.95 597.115 1052.91 592.939 1052.91 592.939Z" fill="#EF9B7D"/>
<path d="M1027.47 627.801C1027.47 627.801 1029.85 631.566 1028.71 632.955C1027.97 633.86 1026.42 633.792 1025.62 633.062C1024.28 631.83 1027.47 627.801 1027.47 627.801Z" fill="#EF9B7D"/>
<path d="M995.766 612.281C995.766 612.281 998.147 616.045 997.008 617.435C996.267 618.34 994.718 618.272 993.92 617.542C992.574 616.309 995.766 612.281 995.766 612.281Z" fill="#EF9B7D"/>
<path d="M1014.45 615.815C1014.45 615.815 1017.04 619.462 1015.98 620.904C1015.29 621.843 1013.74 621.849 1012.91 621.158C1011.49 619.991 1014.45 615.815 1014.45 615.815Z" fill="#EF9B7D"/>
<path d="M1028.05 605.214C1028.05 605.214 1030.43 608.978 1029.29 610.368C1028.55 611.273 1027 611.205 1026.21 610.475C1024.86 609.242 1028.05 605.214 1028.05 605.214Z" fill="#EF9B7D"/>
<path d="M1016.22 588.389C1016.22 588.389 1018.6 592.154 1017.46 593.543C1016.72 594.448 1015.17 594.38 1014.38 593.65C1013.03 592.418 1016.22 588.389 1016.22 588.389Z" fill="#EF9B7D"/>
<path d="M1007.69 573.425C1007.69 573.425 1010.29 577.071 1009.23 578.513C1008.54 579.453 1006.99 579.458 1006.15 578.767C1004.74 577.601 1007.69 573.425 1007.69 573.425Z" fill="#EF9B7D"/>
<path d="M998.818 625.979C998.818 625.979 1001.2 629.744 1000.06 631.133C999.319 632.038 997.771 631.97 996.973 631.24C995.626 630.008 998.818 625.979 998.818 625.979Z" fill="#EF9B7D"/>
<path d="M978.756 622.633C978.756 622.633 981.139 626.398 980 627.787C979.259 628.692 977.711 628.624 976.912 627.894C975.565 626.661 978.756 622.633 978.756 622.633Z" fill="#EF9B7D"/>
<path d="M1005.99 599.989C1005.99 599.989 1008.59 603.635 1007.53 605.078C1006.84 606.017 1005.29 606.023 1004.45 605.332C1003.04 604.165 1005.99 599.989 1005.99 599.989Z" fill="#EF9B7D"/>
<path d="M1042.94 577.793C1042.94 577.793 1046.07 581.039 1045.25 582.613C1044.71 583.638 1043.18 583.86 1042.25 583.294C1040.67 582.337 1042.94 577.793 1042.94 577.793Z" fill="#EF9B7D"/>
<path d="M1025.38 566.285C1025.38 566.285 1027.76 570.049 1026.62 571.439C1025.88 572.344 1024.33 572.276 1023.53 571.546C1022.19 570.314 1025.38 566.285 1025.38 566.285Z" fill="#EF9B7D"/>
<path d="M994.897 585.556C994.897 585.556 997.223 589.35 996.063 590.725C995.309 591.621 993.761 591.534 992.974 590.794C991.646 589.545 994.897 585.556 994.897 585.556Z" fill="#EF9B7D"/>
<path d="M984.386 601.929C984.386 601.929 986.711 605.723 985.552 607.098C984.797 607.993 983.25 607.906 982.463 607.167C981.134 605.918 984.386 601.929 984.386 601.929Z" fill="#EF9B7D"/>
<path d="M218.372 636.785C200.401 628.583 228.823 552.257 267.351 555.849C303.137 559.185 325.041 628.737 305.596 636.328C286.15 643.92 236.342 644.986 218.372 636.785Z" fill="url(#paint4_linear_0)"/>
<path d="M297.531 622.692C297.531 622.692 300.148 626.316 299.1 627.767C298.418 628.712 296.868 628.732 296.025 628.048C294.601 626.893 297.531 622.692 297.531 622.692Z" fill="#EF9B7D"/>
<path d="M284.499 610.304C284.499 610.304 287.117 613.928 286.069 615.379C285.386 616.324 283.837 616.343 282.993 615.66C281.57 614.505 284.499 610.304 284.499 610.304Z" fill="#EF9B7D"/>
<path d="M300.426 605.414C300.426 605.414 303.247 608.908 302.283 610.408C301.655 611.384 300.109 611.477 299.228 610.834C297.741 609.749 300.426 605.414 300.426 605.414Z" fill="#EF9B7D"/>
<path d="M280.353 591.242C280.353 591.242 282.971 594.866 281.923 596.317C281.24 597.262 279.691 597.281 278.847 596.597C277.424 595.443 280.353 591.242 280.353 591.242Z" fill="#EF9B7D"/>
<path d="M269.113 576.089C269.113 576.089 272.277 579.305 271.471 580.887C270.947 581.917 269.417 582.154 268.475 581.596C266.884 580.654 269.113 576.089 269.113 576.089Z" fill="#EF9B7D"/>
<path d="M294.075 587.268C294.075 587.268 296.895 590.762 295.932 592.261C295.304 593.237 293.757 593.33 292.876 592.688C291.389 591.603 294.075 587.268 294.075 587.268Z" fill="#EF9B7D"/>
<path d="M270.906 623.499C270.906 623.499 273.523 627.123 272.475 628.574C271.793 629.519 270.243 629.538 269.4 628.854C267.977 627.7 270.906 623.499 270.906 623.499Z" fill="#EF9B7D"/>
<path d="M238.27 609.79C238.27 609.79 240.887 613.414 239.839 614.865C239.157 615.81 237.607 615.829 236.764 615.145C235.341 613.991 238.27 609.79 238.27 609.79Z" fill="#EF9B7D"/>
<path d="M257.144 612.267C257.144 612.267 259.965 615.761 259.001 617.26C258.373 618.236 256.827 618.33 255.946 617.687C254.459 616.602 257.144 612.267 257.144 612.267Z" fill="#EF9B7D"/>
<path d="M270.047 600.919C270.047 600.919 272.665 604.543 271.617 605.994C270.934 606.939 269.384 606.958 268.541 606.274C267.118 605.12 270.047 600.919 270.047 600.919Z" fill="#EF9B7D"/>
<path d="M257.164 584.79C257.164 584.79 259.782 588.414 258.734 589.865C258.051 590.81 256.502 590.83 255.658 590.146C254.235 588.992 257.164 584.79 257.164 584.79Z" fill="#EF9B7D"/>
<path d="M247.697 570.333C247.697 570.333 250.517 573.827 249.554 575.326C248.926 576.302 247.38 576.395 246.498 575.753C245.011 574.668 247.697 570.333 247.697 570.333Z" fill="#EF9B7D"/>
<path d="M242.191 623.292C242.191 623.292 244.808 626.916 243.76 628.367C243.078 629.312 241.528 629.332 240.685 628.648C239.262 627.494 242.191 623.292 242.191 623.292Z" fill="#EF9B7D"/>
<path d="M221.952 621.081C221.952 621.081 224.572 624.706 223.525 626.156C222.844 627.101 221.294 627.119 220.45 626.435C219.025 625.28 221.952 621.081 221.952 621.081Z" fill="#EF9B7D"/>
<path d="M247.697 596.945C247.697 596.945 250.517 600.439 249.554 601.938C248.926 602.914 247.38 603.007 246.498 602.365C245.011 601.28 247.697 596.945 247.697 596.945Z" fill="#EF9B7D"/>
<path d="M283.161 572.71C283.161 572.71 286.492 575.774 285.772 577.391C285.303 578.445 283.789 578.753 282.818 578.24C281.179 577.374 283.161 572.71 283.161 572.71Z" fill="#EF9B7D"/>
<path d="M264.894 562.211C264.894 562.211 267.511 565.834 266.463 567.286C265.781 568.231 264.231 568.25 263.388 567.566C261.965 566.412 264.894 562.211 264.894 562.211Z" fill="#EF9B7D"/>
<path d="M235.698 583.162C235.698 583.162 238.261 586.818 237.191 588.256C236.495 589.193 234.945 589.193 234.112 588.499C232.706 587.327 235.698 583.162 235.698 583.162Z" fill="#EF9B7D"/>
<path d="M226.25 600.097C226.25 600.097 228.814 603.753 227.744 605.191C227.048 606.128 225.498 606.128 224.665 605.434C223.259 604.262 226.25 600.097 226.25 600.097Z" fill="#EF9B7D"/>
<path d="M219.324 565.707C214.171 577.804 227.302 576.191 233.495 586.271C235.225 589.087 244.66 599.98 236.072 609.658C241.242 612.383 243.905 614.883 246.807 619.738C252.062 628.525 257.54 645.544 246.807 645.544H176.382C165.649 645.544 170.89 628.396 176.382 619.738C179.603 614.66 182.668 612.09 188.405 609.658C181.105 597.964 187.976 590.707 194.418 582.642C203.467 571.312 224.477 553.61 219.324 565.707Z" fill="#E8D7A5"/>
<path d="M214.679 575.431C214.898 572.066 219.461 564.135 219.461 564.135C219.461 564.135 219.644 563.94 219.608 564.405C219.595 564.576 219.553 564.836 219.461 565.228C219.376 565.592 218.562 568.105 218.436 568.508C218.095 569.601 218.036 571.755 218.778 573.245C219.257 574.206 219.324 574.175 221.042 575.787C221.715 576.42 222.593 577.075 223.618 577.803C225.326 578.897 227.483 580.223 227.483 580.223C227.483 580.223 223.608 582.642 221.9 582.642C219.537 582.642 217.935 582.868 216.318 581.029C214.724 579.217 214.518 577.911 214.679 575.431Z" fill="#DBCB9B"/>
<path d="M195.747 604.012C188.877 597.221 189.264 589.094 189.264 589.094C189.264 589.094 184.418 595.199 185.399 601.19C186.258 606.432 187.117 608.448 188.835 609.657C190.553 610.867 193.519 613.286 203.006 613.286C207.729 613.286 209.928 612.996 215.03 610.867C216.744 610.152 221.146 608.839 224.907 608.448C230.211 607.896 235.213 609.254 235.213 609.254C235.213 609.254 229.126 607.4 226.195 607.238C218.895 606.835 200.733 608.94 195.747 604.012Z" fill="#DBCB9B"/>
<path d="M170.035 638.037C169.51 629.011 175.093 622.156 175.093 622.156C175.093 622.156 177.063 635.253 181.964 638.037C185.387 639.982 203.006 643.124 203.006 643.124L232.207 645.536H187.066C184.485 645.536 175.444 646.325 172.946 644.736C170.508 643.186 170.213 641.104 170.035 638.037Z" fill="#DBCB9B"/>
<path d="M237.041 620.358C239.222 622.738 241.581 626.923 241.581 626.923C241.581 626.923 242.948 626.239 243.268 624.418C243.414 623.588 243.035 621.514 242.118 619.949C240.876 617.83 239.308 616.416 238.091 615.588C237.468 615.164 235.782 614.287 234.013 614.013C232.907 613.842 230.634 614.956 230.634 614.956C230.634 614.956 234.942 618.067 237.041 620.358Z" fill="#F6E5B1"/>
<path d="M229.07 588.742C230.08 590.355 231.025 593.114 231.025 593.114C231.025 593.114 232.042 592.553 232.39 591.422C232.548 590.905 232.495 589.73 232.122 588.697C231.617 587.297 230.71 586.373 230.101 585.788C229.789 585.489 228.291 584.785 227.697 584.668C227.078 584.546 225.958 585.01 225.958 585.01C225.958 585.01 228.099 587.191 229.07 588.742Z" fill="#F6E5B1"/>
<path d="M202.207 591.887C197.47 584.652 206.501 570.517 206.501 570.517L209.507 567.695C209.507 567.695 206.364 576.131 207.36 580.194C208.373 584.326 209.711 587.792 213.372 590.275C216.771 592.579 222.819 591.887 227.543 591.887C232.267 591.887 235.702 594.307 237.42 596.323C239.642 598.931 240.05 601.161 239.567 603.581C238.888 606.978 236.132 609.629 236.132 609.629C236.132 609.629 233.943 602.18 230.12 599.952C226.272 597.71 218.329 597.936 213.801 597.936C209.937 597.936 205.86 597.467 202.207 591.887Z" fill="#542120"/>
<path d="M198.342 623.741C190.183 621.09 182.536 613.258 182.536 613.258C182.536 613.258 180.389 614.064 179.53 615.677C178.671 617.29 182.024 622.935 185.889 625.757C189.753 628.58 196.112 631.806 210.366 634.628C227.363 637.994 251.591 640.676 252.45 640.676C253.309 640.676 252.879 638.257 252.879 636.241C252.879 634.225 252.45 631.806 252.45 631.806C252.45 631.806 210.795 627.788 198.342 623.741Z" fill="#542120"/>
<path d="M1085.74 570.955C1080.59 583.052 1093.72 581.439 1099.91 591.519C1101.64 594.335 1111.08 605.228 1102.49 614.906C1107.66 617.631 1110.32 620.131 1113.22 624.986C1118.48 633.774 1123.96 650.792 1113.22 650.792H1042.8C1032.07 650.792 1037.31 633.644 1042.8 624.986C1046.02 619.908 1049.09 617.338 1054.82 614.906C1047.52 603.212 1054.39 595.955 1060.83 587.89C1069.88 576.561 1090.89 558.859 1085.74 570.955Z" fill="#E8D7A5"/>
<path d="M1081.1 580.68C1081.32 577.314 1085.88 569.383 1085.88 569.383C1085.88 569.383 1086.06 569.188 1086.03 569.654C1086.01 569.825 1085.97 570.085 1085.88 570.476C1085.79 570.84 1084.98 573.353 1084.85 573.756C1084.51 574.849 1084.45 577.003 1085.2 578.493C1085.67 579.454 1085.74 579.423 1087.46 581.035C1088.13 581.668 1089.01 582.323 1090.04 583.052C1091.74 584.145 1093.9 585.471 1093.9 585.471C1093.9 585.471 1090.03 587.89 1088.32 587.89C1085.95 587.89 1084.35 588.116 1082.74 586.277C1081.14 584.465 1080.94 583.159 1081.1 580.68Z" fill="#DBCB9B"/>
<path d="M1062.16 609.26C1055.29 602.469 1055.68 594.342 1055.68 594.342C1055.68 594.342 1050.84 600.447 1051.82 606.438C1052.68 611.68 1053.53 613.696 1055.25 614.905C1056.97 616.115 1059.94 618.534 1069.42 618.534C1074.15 618.534 1076.35 618.244 1081.45 616.115C1083.16 615.4 1087.56 614.087 1091.32 613.696C1096.63 613.144 1101.63 614.502 1101.63 614.502C1101.63 614.502 1095.54 612.648 1092.61 612.486C1085.31 612.083 1067.15 614.188 1062.16 609.26Z" fill="#DBCB9B"/>
<path d="M1036.45 643.286C1035.93 634.26 1041.51 627.405 1041.51 627.405C1041.51 627.405 1043.48 640.501 1048.38 643.286C1051.8 645.231 1069.42 648.372 1069.42 648.372L1098.62 650.785H1053.48C1050.9 650.785 1041.86 651.574 1039.36 649.985C1036.93 648.435 1036.63 646.353 1036.45 643.286Z" fill="#DBCB9B"/>
<path d="M1103.46 625.605C1105.64 627.986 1108 632.171 1108 632.171C1108 632.171 1109.37 631.487 1109.69 629.666C1109.83 628.836 1109.45 626.761 1108.54 625.197C1107.29 623.078 1105.73 621.664 1104.51 620.835C1103.89 620.412 1102.2 619.535 1100.43 619.261C1099.32 619.089 1097.05 620.204 1097.05 620.204C1097.05 620.204 1101.36 623.315 1103.46 625.605Z" fill="#F6E5B1"/>
<path d="M1095.49 593.99C1096.5 595.602 1097.44 598.362 1097.44 598.362C1097.44 598.362 1098.46 597.801 1098.81 596.669C1098.97 596.153 1098.91 594.978 1098.54 593.945C1098.03 592.545 1097.13 591.621 1096.52 591.036C1096.21 590.737 1094.71 590.033 1094.11 589.916C1093.5 589.794 1092.38 590.257 1092.38 590.257C1092.38 590.257 1094.52 592.439 1095.49 593.99Z" fill="#F6E5B1"/>
<path d="M1068.62 597.135C1063.89 589.9 1072.92 575.765 1072.92 575.765L1075.92 572.943C1075.92 572.943 1072.78 581.379 1073.78 585.442C1074.79 589.574 1076.13 593.04 1079.79 595.523C1083.19 597.827 1089.24 597.135 1093.96 597.135C1098.68 597.135 1102.12 599.555 1103.84 601.571C1106.06 604.179 1106.47 606.409 1105.98 608.829C1105.31 612.226 1102.55 614.877 1102.55 614.877C1102.55 614.877 1100.36 607.428 1096.54 605.2C1092.69 602.958 1084.75 603.184 1080.22 603.184C1076.35 603.184 1072.28 602.715 1068.62 597.135Z" fill="#542120"/>
<path d="M1064.76 628.989C1056.6 626.338 1048.95 618.506 1048.95 618.506C1048.95 618.506 1046.81 619.312 1045.95 620.925C1045.09 622.538 1048.44 628.183 1052.31 631.005C1056.17 633.828 1062.53 637.053 1076.78 639.876C1093.78 643.242 1118.01 645.924 1118.87 645.924C1119.73 645.924 1119.3 643.505 1119.3 641.489C1119.3 639.473 1118.87 637.053 1118.87 637.053C1118.87 637.053 1077.21 633.036 1064.76 628.989Z" fill="#542120"/>
<rect x="54.5" y="1169.4" width="1181.27" height="606.531" rx="10" fill="#C96928"/>
<rect x="54" y="1347" width="1182" height="348" fill="#F19B79"/>
<path d="M51.0209 1169.4H1235.77V1262.02C1235.77 1262.02 1172.05 1283.03 1108.34 1228.6C1044.62 1174.17 987.797 1246.74 967.133 1262.02C944.746 1276.34 867.256 1287.8 853.48 1248.65C843.148 1219.05 831.093 1199.95 796.653 1199C774.266 1198.04 751.881 1205.68 739.827 1217.14C727.773 1228.6 708.83 1242.92 691.61 1238.15C667.502 1231.47 639.951 1200.91 600.344 1213.32C588.29 1217.14 579.679 1224.78 577.957 1232.42C572.791 1249.61 553.85 1285.89 505.634 1282.07C455.695 1278.25 440.195 1239.1 435.029 1222.87C433.307 1214.28 422.975 1207.59 409.199 1204.73C393.701 1201.86 373.037 1202.82 347.207 1221.92C295.546 1259.16 254.218 1258.2 216.334 1237.19C185.338 1220.01 175.006 1208.55 147.453 1212.37C135.399 1214.28 125.068 1218.1 118.18 1223.83C97.5158 1239.1 47.5769 1272.52 42.4108 1244.83C33.8007 1212.37 51.0209 1169.4 51.0209 1169.4Z" fill="#542120"/>
<path d="M50.2462 1169.4H1235.77V1223.82C1235.77 1223.82 1178.53 1232.79 1115.76 1200.82C1052.99 1168.84 992.283 1197.45 961.238 1223.82C940.557 1254.72 882.381 1250.23 868.809 1227.23C858.63 1209.84 827.218 1187.35 793.289 1186.79C771.235 1186.23 749.183 1190.72 737.308 1197.45C725.433 1204.18 706.771 1212.6 689.806 1209.79C666.056 1205.86 634.181 1182.86 595.163 1190.16C583.288 1192.4 571.414 1194.68 564 1203.5C548.706 1221.68 546.721 1249.38 499.22 1247.14C450.023 1244.89 450.081 1210.35 444.992 1200.82C435.814 1188.83 412.454 1187.41 399.106 1187.41C383.838 1185.73 359.478 1189.6 334.031 1200.82C283.138 1222.69 258.909 1221.57 221.587 1209.23C191.051 1199.13 184.535 1195.35 155.366 1192.15C139.483 1192.15 129.95 1192.75 116.155 1202.58C89.1928 1221.8 58.6726 1233.54 53.5833 1217.28C45.101 1198.2 50.2462 1169.4 50.2462 1169.4Z" fill="#E8D7A5"/>
<path d="M1085.27 1173.96C1067.26 1164.65 1101.63 1089.19 1141.15 1095.01C1177.86 1100.41 1195.88 1171.9 1175.31 1178.46C1154.74 1185.02 1103.27 1183.26 1085.27 1173.96Z" fill="url(#paint5_linear_0)"/>
<path d="M1167.89 1164.23C1167.89 1164.23 1170.35 1168.04 1169.17 1169.45C1168.41 1170.36 1166.8 1170.29 1165.98 1169.55C1164.59 1168.31 1167.89 1164.23 1167.89 1164.23Z" fill="#EF9B7D"/>
<path d="M1155.26 1150.98C1155.26 1150.98 1157.72 1154.79 1156.54 1156.19C1155.78 1157.11 1154.17 1157.04 1153.35 1156.3C1151.96 1155.05 1155.26 1150.98 1155.26 1150.98Z" fill="#EF9B7D"/>
<path d="M1172.02 1146.95C1172.02 1146.95 1174.7 1150.64 1173.6 1152.09C1172.89 1153.04 1171.29 1153.05 1170.42 1152.35C1168.96 1151.17 1172.02 1146.95 1172.02 1146.95Z" fill="#EF9B7D"/>
<path d="M1152.24 1131.49C1152.24 1131.49 1154.7 1135.3 1153.52 1136.71C1152.75 1137.62 1151.15 1137.55 1150.33 1136.81C1148.94 1135.57 1152.24 1131.49 1152.24 1131.49Z" fill="#EF9B7D"/>
<path d="M1141.64 1115.55C1141.64 1115.55 1144.69 1118.98 1143.75 1120.53C1143.14 1121.54 1141.55 1121.69 1140.61 1121.07C1139.04 1120.03 1141.64 1115.55 1141.64 1115.55Z" fill="#EF9B7D"/>
<path d="M1166.66 1128.26C1166.66 1128.26 1169.34 1131.95 1168.25 1133.41C1167.53 1134.36 1165.93 1134.36 1165.06 1133.66C1163.6 1132.48 1166.66 1128.26 1166.66 1128.26Z" fill="#EF9B7D"/>
<path d="M1140.36 1163.53C1140.36 1163.53 1142.82 1167.34 1141.64 1168.74C1140.88 1169.66 1139.28 1169.59 1138.45 1168.85C1137.06 1167.61 1140.36 1163.53 1140.36 1163.53Z" fill="#EF9B7D"/>
<path d="M1107.58 1147.83C1107.58 1147.83 1110.05 1151.64 1108.87 1153.04C1108.1 1153.96 1106.5 1153.89 1105.68 1153.15C1104.28 1151.9 1107.58 1147.83 1107.58 1147.83Z" fill="#EF9B7D"/>
<path d="M1126.9 1151.4C1126.9 1151.4 1129.58 1155.09 1128.48 1156.55C1127.77 1157.5 1126.17 1157.51 1125.3 1156.81C1123.84 1155.63 1126.9 1151.4 1126.9 1151.4Z" fill="#EF9B7D"/>
<path d="M1140.96 1140.68C1140.96 1140.68 1143.42 1144.49 1142.25 1145.89C1141.48 1146.81 1139.88 1146.74 1139.05 1146C1137.66 1144.75 1140.96 1140.68 1140.96 1140.68Z" fill="#EF9B7D"/>
<path d="M1128.73 1123.66C1128.73 1123.66 1131.19 1127.46 1130.02 1128.87C1129.25 1129.79 1127.65 1129.72 1126.82 1128.98C1125.43 1127.73 1128.73 1123.66 1128.73 1123.66Z" fill="#EF9B7D"/>
<path d="M1119.92 1108.52C1119.92 1108.52 1122.6 1112.21 1121.5 1113.66C1120.79 1114.61 1119.19 1114.62 1118.32 1113.92C1116.86 1112.74 1119.92 1108.52 1119.92 1108.52Z" fill="#EF9B7D"/>
<path d="M1110.74 1161.69C1110.74 1161.69 1113.2 1165.49 1112.02 1166.9C1111.26 1167.82 1109.66 1167.75 1108.83 1167.01C1107.44 1165.76 1110.74 1161.69 1110.74 1161.69Z" fill="#EF9B7D"/>
<path d="M1090 1158.3C1090 1158.3 1092.46 1162.11 1091.28 1163.51C1090.52 1164.43 1088.92 1164.36 1088.09 1163.62C1086.7 1162.38 1090 1158.3 1090 1158.3Z" fill="#EF9B7D"/>
<path d="M1118.16 1135.39C1118.16 1135.39 1120.84 1139.08 1119.75 1140.54C1119.03 1141.49 1117.43 1141.5 1116.57 1140.8C1115.1 1139.62 1118.16 1135.39 1118.16 1135.39Z" fill="#EF9B7D"/>
<path d="M1156.36 1112.94C1156.36 1112.94 1159.59 1116.22 1158.74 1117.81C1158.19 1118.85 1156.61 1119.07 1155.64 1118.5C1154 1117.53 1156.36 1112.94 1156.36 1112.94Z" fill="#EF9B7D"/>
<path d="M1138.2 1101.29C1138.2 1101.29 1140.66 1105.1 1139.48 1106.51C1138.72 1107.42 1137.12 1107.35 1136.29 1106.62C1134.9 1105.37 1138.2 1101.29 1138.2 1101.29Z" fill="#EF9B7D"/>
<path d="M1106.69 1120.79C1106.69 1120.79 1109.09 1124.63 1107.89 1126.02C1107.11 1126.93 1105.51 1126.84 1104.7 1126.09C1103.32 1124.83 1106.69 1120.79 1106.69 1120.79Z" fill="#EF9B7D"/>
<path d="M1095.82 1137.35C1095.82 1137.35 1098.22 1141.19 1097.03 1142.58C1096.24 1143.49 1094.65 1143.4 1093.83 1142.65C1092.46 1141.39 1095.82 1137.35 1095.82 1137.35Z" fill="#EF9B7D"/>
<path d="M105.418 1171.75C86.8392 1163.46 116.222 1086.24 156.053 1089.87C193.049 1093.25 215.694 1163.61 195.591 1171.29C175.488 1178.97 123.996 1180.05 105.418 1171.75Z" fill="url(#paint6_linear_0)"/>
<path d="M187.254 1157.5C187.254 1157.5 189.96 1161.16 188.876 1162.63C188.171 1163.59 186.569 1163.61 185.697 1162.91C184.226 1161.75 187.254 1157.5 187.254 1157.5Z" fill="#EF9B7D"/>
<path d="M173.782 1144.96C173.782 1144.96 176.488 1148.63 175.404 1150.1C174.699 1151.05 173.097 1151.07 172.225 1150.38C170.754 1149.21 173.782 1144.96 173.782 1144.96Z" fill="#EF9B7D"/>
<path d="M190.247 1140.02C190.247 1140.02 193.163 1143.55 192.167 1145.07C191.518 1146.06 189.919 1146.15 189.008 1145.5C187.471 1144.4 190.247 1140.02 190.247 1140.02Z" fill="#EF9B7D"/>
<path d="M169.496 1125.68C169.496 1125.68 172.202 1129.34 171.119 1130.81C170.413 1131.77 168.811 1131.79 167.939 1131.1C166.468 1129.93 169.496 1125.68 169.496 1125.68Z" fill="#EF9B7D"/>
<path d="M157.875 1110.35C157.875 1110.35 161.146 1113.6 160.313 1115.2C159.771 1116.24 158.19 1116.48 157.216 1115.92C155.571 1114.97 157.875 1110.35 157.875 1110.35Z" fill="#EF9B7D"/>
<path d="M183.681 1121.66C183.681 1121.66 186.597 1125.19 185.601 1126.71C184.952 1127.7 183.353 1127.79 182.442 1127.14C180.905 1126.04 183.681 1121.66 183.681 1121.66Z" fill="#EF9B7D"/>
<path d="M159.729 1158.31C159.729 1158.31 162.435 1161.98 161.352 1163.45C160.646 1164.4 159.044 1164.42 158.172 1163.73C156.701 1162.56 159.729 1158.31 159.729 1158.31Z" fill="#EF9B7D"/>
<path d="M125.989 1144.44C125.989 1144.44 128.695 1148.11 127.611 1149.58C126.906 1150.53 125.304 1150.55 124.432 1149.86C122.961 1148.69 125.989 1144.44 125.989 1144.44Z" fill="#EF9B7D"/>
<path d="M145.501 1146.95C145.501 1146.95 148.417 1150.48 147.421 1152C146.772 1152.99 145.174 1153.08 144.263 1152.43C142.725 1151.33 145.501 1146.95 145.501 1146.95Z" fill="#EF9B7D"/>
<path d="M158.841 1135.47C158.841 1135.47 161.547 1139.13 160.463 1140.6C159.758 1141.56 158.156 1141.58 157.284 1140.89C155.813 1139.72 158.841 1135.47 158.841 1135.47Z" fill="#EF9B7D"/>
<path d="M145.523 1119.15C145.523 1119.15 148.228 1122.82 147.145 1124.29C146.439 1125.24 144.837 1125.26 143.966 1124.57C142.494 1123.4 145.523 1119.15 145.523 1119.15Z" fill="#EF9B7D"/>
<path d="M135.735 1104.52C135.735 1104.52 138.651 1108.06 137.655 1109.58C137.006 1110.56 135.407 1110.66 134.496 1110.01C132.959 1108.91 135.735 1104.52 135.735 1104.52Z" fill="#EF9B7D"/>
<path d="M130.043 1158.1C130.043 1158.1 132.748 1161.77 131.665 1163.24C130.959 1164.19 129.357 1164.21 128.486 1163.52C127.014 1162.35 130.043 1158.1 130.043 1158.1Z" fill="#EF9B7D"/>
<path d="M109.119 1155.87C109.119 1155.87 111.827 1159.53 110.745 1161C110.04 1161.96 108.437 1161.97 107.565 1161.28C106.093 1160.11 109.119 1155.87 109.119 1155.87Z" fill="#EF9B7D"/>
<path d="M135.735 1131.45C135.735 1131.45 138.651 1134.98 137.655 1136.5C137.006 1137.49 135.407 1137.58 134.496 1136.93C132.959 1135.83 135.735 1131.45 135.735 1131.45Z" fill="#EF9B7D"/>
<path d="M172.398 1106.93C172.398 1106.93 175.842 1110.03 175.098 1111.67C174.613 1112.73 173.047 1113.04 172.043 1112.52C170.349 1111.65 172.398 1106.93 172.398 1106.93Z" fill="#EF9B7D"/>
<path d="M153.514 1096.31C153.514 1096.31 156.22 1099.97 155.136 1101.44C154.431 1102.4 152.829 1102.42 151.957 1101.72C150.486 1100.56 153.514 1096.31 153.514 1096.31Z" fill="#EF9B7D"/>
<path d="M123.33 1117.5C123.33 1117.5 125.98 1121.2 124.874 1122.66C124.154 1123.6 122.552 1123.61 121.691 1122.9C120.237 1121.72 123.33 1117.5 123.33 1117.5Z" fill="#EF9B7D"/>
<path d="M113.563 1134.64C113.563 1134.64 116.213 1138.34 115.107 1139.79C114.387 1140.74 112.785 1140.74 111.924 1140.04C110.47 1138.85 113.563 1134.64 113.563 1134.64Z" fill="#EF9B7D"/>
<path d="M99.9927 1099.84C94.6653 1112.08 108.24 1110.45 114.643 1120.65C116.432 1123.5 126.186 1134.52 117.307 1144.31C122.652 1147.07 125.405 1149.6 128.405 1154.51C133.837 1163.4 139.501 1180.61 128.405 1180.61H55.5978C44.5019 1180.61 49.9203 1163.27 55.5978 1154.51C58.9277 1149.37 62.0969 1146.77 68.0284 1144.31C60.4813 1132.48 67.5845 1125.14 74.2437 1116.98C83.5995 1105.52 105.32 1087.61 99.9927 1099.84Z" fill="#E8D7A5"/>
<path d="M95.1901 1109.68C95.4163 1106.28 100.134 1098.25 100.134 1098.25C100.134 1098.25 100.323 1098.06 100.286 1098.53C100.272 1098.7 100.229 1098.96 100.134 1099.36C100.045 1099.73 99.2045 1102.27 99.0743 1102.68C98.7212 1103.78 98.6599 1105.96 99.4275 1107.47C99.9229 1108.44 99.9917 1108.41 101.768 1110.04C102.464 1110.68 103.372 1111.34 104.431 1112.08C106.197 1113.19 108.427 1114.53 108.427 1114.53C108.427 1114.53 104.421 1116.98 102.655 1116.98C100.212 1116.98 98.5563 1117.21 96.8841 1115.35C95.236 1113.51 95.0234 1112.19 95.1901 1109.68Z" fill="#DBCB9B"/>
<path d="M75.618 1138.6C68.5148 1131.73 68.9154 1123.5 68.9154 1123.5C68.9154 1123.5 63.9051 1129.68 64.9199 1135.74C65.8077 1141.05 66.6956 1143.08 68.4715 1144.31C70.2473 1145.53 73.3146 1147.98 83.1217 1147.98C88.0052 1147.98 90.2784 1147.69 95.5523 1145.53C97.3246 1144.81 101.875 1143.48 105.763 1143.08C111.247 1142.53 116.418 1143.9 116.418 1143.9C116.418 1143.9 110.125 1142.02 107.095 1141.86C99.5478 1141.45 80.7721 1143.58 75.618 1138.6Z" fill="#DBCB9B"/>
<path d="M49.0359 1173.02C48.4939 1163.89 54.2653 1156.95 54.2653 1156.95C54.2653 1156.95 56.3021 1170.2 61.3685 1173.02C64.9069 1174.99 83.122 1178.17 83.122 1178.17L113.311 1180.61H66.6431C63.9753 1180.61 54.6282 1181.41 52.0456 1179.8C49.5257 1178.23 49.2201 1176.12 49.0359 1173.02Z" fill="#DBCB9B"/>
<path d="M118.308 1155.13C120.563 1157.54 123.002 1161.78 123.002 1161.78C123.002 1161.78 124.415 1161.08 124.746 1159.24C124.897 1158.4 124.505 1156.3 123.557 1154.72C122.273 1152.58 120.652 1151.15 119.393 1150.31C118.75 1149.88 117.006 1148.99 115.177 1148.72C114.034 1148.54 111.684 1149.67 111.684 1149.67C111.684 1149.67 116.138 1152.82 118.308 1155.13Z" fill="#F6E5B1"/>
<path d="M110.068 1123.15C111.112 1124.78 112.088 1127.57 112.088 1127.57C112.088 1127.57 113.14 1127 113.499 1125.86C113.663 1125.34 113.608 1124.15 113.223 1123.1C112.7 1121.69 111.763 1120.75 111.133 1120.16C110.811 1119.86 109.262 1119.15 108.647 1119.03C108.008 1118.9 106.85 1119.37 106.85 1119.37C106.85 1119.37 109.063 1121.58 110.068 1123.15Z" fill="#F6E5B1"/>
<path d="M82.2963 1126.33C77.3996 1119.01 86.7358 1104.71 86.7358 1104.71L89.8434 1101.85C89.8434 1101.85 86.5942 1110.39 87.6237 1114.5C88.6705 1118.68 90.0545 1122.19 93.8389 1124.7C97.3527 1127.03 103.606 1126.33 108.489 1126.33C113.373 1126.33 116.924 1128.78 118.7 1130.82C120.998 1133.46 121.42 1135.71 120.92 1138.16C120.218 1141.6 117.368 1144.28 117.368 1144.28C117.368 1144.28 115.106 1136.74 111.153 1134.49C107.176 1132.22 98.964 1132.45 94.2829 1132.45C90.2873 1132.45 86.0725 1131.98 82.2963 1126.33Z" fill="#542120"/>
<path d="M78.3006 1158.56C69.8655 1155.88 61.9602 1147.95 61.9602 1147.95C61.9602 1147.95 59.7404 1148.77 58.8525 1150.4C57.9647 1152.03 61.4305 1157.74 65.426 1160.6C69.4216 1163.45 75.9951 1166.72 90.7311 1169.57C108.304 1172.98 133.35 1175.69 134.238 1175.69C135.126 1175.69 134.682 1173.24 134.682 1171.2C134.682 1169.16 134.238 1166.72 134.238 1166.72C134.238 1166.72 91.1751 1162.65 78.3006 1158.56Z" fill="#542120"/>
<path d="M1200.6 1106.02C1195.28 1118.26 1208.85 1116.62 1215.25 1126.82C1217.04 1129.67 1226.8 1140.69 1217.92 1150.48C1223.26 1153.24 1226.02 1155.77 1229.02 1160.68C1234.45 1169.57 1240.11 1186.79 1229.02 1186.79H1156.21C1145.11 1186.79 1150.53 1169.44 1156.21 1160.68C1159.54 1155.54 1162.71 1152.94 1168.64 1150.48C1161.09 1138.65 1168.2 1131.31 1174.85 1123.15C1184.21 1111.69 1205.93 1093.78 1200.6 1106.02Z" fill="#E8D7A5"/>
<path d="M1195.8 1115.86C1196.03 1112.45 1200.75 1104.43 1200.75 1104.43C1200.75 1104.43 1200.93 1104.23 1200.9 1104.7C1200.88 1104.87 1200.84 1105.14 1200.75 1105.53C1200.66 1105.9 1199.82 1108.44 1199.69 1108.85C1199.33 1109.96 1199.27 1112.14 1200.04 1113.64C1200.53 1114.62 1200.6 1114.58 1202.38 1116.22C1203.08 1116.86 1203.98 1117.52 1205.04 1118.26C1206.81 1119.36 1209.04 1120.7 1209.04 1120.7C1209.04 1120.7 1205.03 1123.15 1203.27 1123.15C1200.82 1123.15 1199.17 1123.38 1197.5 1121.52C1195.85 1119.69 1195.64 1118.36 1195.8 1115.86Z" fill="#DBCB9B"/>
<path d="M1176.23 1144.77C1169.13 1137.9 1169.53 1129.68 1169.53 1129.68C1169.53 1129.68 1164.52 1135.86 1165.53 1141.92C1166.42 1147.22 1167.31 1149.26 1169.08 1150.48C1170.86 1151.71 1173.93 1154.15 1183.73 1154.15C1188.62 1154.15 1190.89 1153.86 1196.16 1151.71C1197.94 1150.98 1202.49 1149.65 1206.37 1149.26C1211.86 1148.7 1217.03 1150.07 1217.03 1150.07C1217.03 1150.07 1210.74 1148.2 1207.71 1148.04C1200.16 1147.63 1181.38 1149.76 1176.23 1144.77Z" fill="#DBCB9B"/>
<path d="M1149.65 1179.2C1149.11 1170.06 1154.88 1163.13 1154.88 1163.13C1154.88 1163.13 1156.91 1176.38 1161.98 1179.2C1165.52 1181.16 1183.73 1184.34 1183.73 1184.34L1213.92 1186.78H1167.25C1164.59 1186.78 1155.24 1187.58 1152.66 1185.97C1150.14 1184.4 1149.83 1182.3 1149.65 1179.2Z" fill="#DBCB9B"/>
<path d="M1218.92 1161.31C1221.17 1163.72 1223.61 1167.95 1223.61 1167.95C1223.61 1167.95 1225.03 1167.26 1225.36 1165.42C1225.51 1164.58 1225.12 1162.48 1224.17 1160.89C1222.88 1158.75 1221.26 1157.32 1220 1156.48C1219.36 1156.05 1217.62 1155.17 1215.79 1154.89C1214.65 1154.72 1212.3 1155.84 1212.3 1155.84C1212.3 1155.84 1216.75 1158.99 1218.92 1161.31Z" fill="#F6E5B1"/>
<path d="M1210.68 1129.32C1211.72 1130.95 1212.7 1133.75 1212.7 1133.75C1212.7 1133.75 1213.75 1133.18 1214.11 1132.03C1214.28 1131.51 1214.22 1130.32 1213.83 1129.28C1213.31 1127.86 1212.38 1126.93 1211.74 1126.33C1211.42 1126.03 1209.87 1125.32 1209.26 1125.2C1208.62 1125.08 1207.46 1125.55 1207.46 1125.55C1207.46 1125.55 1209.68 1127.75 1210.68 1129.32Z" fill="#F6E5B1"/>
<path d="M1182.91 1132.5C1178.01 1125.18 1187.35 1110.88 1187.35 1110.88L1190.45 1108.03C1190.45 1108.03 1187.21 1116.56 1188.23 1120.67C1189.28 1124.85 1190.67 1128.36 1194.45 1130.87C1197.96 1133.2 1204.22 1132.5 1209.1 1132.5C1213.98 1132.5 1217.54 1134.95 1219.31 1136.99C1221.61 1139.63 1222.03 1141.89 1221.53 1144.33C1220.83 1147.77 1217.98 1150.45 1217.98 1150.45C1217.98 1150.45 1215.72 1142.92 1211.76 1140.66C1207.79 1138.39 1199.58 1138.62 1194.89 1138.62C1190.9 1138.62 1186.68 1138.15 1182.91 1132.5Z" fill="#542120"/>
<path d="M1178.91 1164.73C1170.48 1162.05 1162.57 1154.13 1162.57 1154.13C1162.57 1154.13 1160.35 1154.94 1159.46 1156.57C1158.58 1158.2 1162.04 1163.92 1166.04 1166.77C1170.03 1169.63 1176.61 1172.89 1191.34 1175.75C1208.91 1179.15 1233.96 1181.86 1234.85 1181.86C1235.74 1181.86 1235.29 1179.42 1235.29 1177.38C1235.29 1175.34 1234.85 1172.89 1234.85 1172.89C1234.85 1172.89 1191.79 1168.83 1178.91 1164.73Z" fill="#542120"/>
<defs>
<linearGradient id="paint0_linear_0" x1="442.049" y1="6.96142" x2="443.673" y2="155.193" gradientUnits="userSpaceOnUse">
<stop stop-color="#9B2227"/>
<stop offset="1" stop-color="#EF9B7D"/>
</linearGradient>
<linearGradient id="paint1_linear_0" x1="838.836" y1="5.52487" x2="831.735" y2="153.601" gradientUnits="userSpaceOnUse">
<stop stop-color="#9B2227"/>
<stop offset="1" stop-color="#EF9B7D"/>
</linearGradient>
<linearGradient id="paint2_linear_0" x1="640.169" y1="6.56053" x2="637.848" y2="154.783" gradientUnits="userSpaceOnUse">
<stop stop-color="#9B2227"/>
<stop offset="1" stop-color="#EF9B7D"/>
</linearGradient>
<linearGradient id="paint3_linear_0" x1="1020.93" y1="559.694" x2="1015.16" y2="685.524" gradientUnits="userSpaceOnUse">
<stop stop-color="#9B2227"/>
<stop offset="1" stop-color="#EF9B7D"/>
</linearGradient>
<linearGradient id="paint4_linear_0" x1="260.035" y1="555.882" x2="261.354" y2="681.82" gradientUnits="userSpaceOnUse">
<stop stop-color="#9B2227"/>
<stop offset="1" stop-color="#EF9B7D"/>
</linearGradient>
<linearGradient id="paint5_linear_0" x1="1133.6" y1="1094.63" x2="1127.89" y2="1221.94" gradientUnits="userSpaceOnUse">
<stop stop-color="#9B2227"/>
<stop offset="1" stop-color="#EF9B7D"/>
</linearGradient>
<linearGradient id="paint6_linear_0" x1="148.489" y1="1089.9" x2="149.796" y2="1217.32" gradientUnits="userSpaceOnUse">
<stop stop-color="#9B2227"/>
<stop offset="1" stop-color="#EF9B7D"/>
</linearGradient>
</defs>
</svg>
