<svg width="1290" height="501" viewBox="0 0 1290 501" fill="none" xmlns="http://www.w3.org/2000/svg">
<path d="M19 26C25 10.5 55.5 4 55.5 4L1235 0C1235 0 1274.44 9.72208 1278.5 24.5C1284 44.5 1273.5 53.1244 1245.5 57.5C1245.5 57.5 947.5 104.5 855.5 116C763.5 127.5 738.5 229.5 738.5 293C738.5 356.5 811.5 431 886 456.5C960.5 482 1290.5 501 1290.5 501H-2C-2 501 332 485 399.5 456.5C467 428 526.717 368.177 536.5 293C546 220 528.5 169 437.5 116C379.187 82.0372 235.667 68.6061 140.088 63.3393C90.8362 62.5102 55.93 61.4236 48 60C13 53.7166 12.3617 43.1489 19 26Z" fill="#D8ECD8"/>
<path d="M488 123C519.696 141.573 544.406 179.842 553.331 224.175C562.256 268.508 551.776 314.861 536.421 354.94C535.121 358.348 530.769 365.535 536.467 368.348C542.804 371.466 550.232 362.774 551.985 355.548C565.552 299.828 569.754 276.566 562.453 228.983C554.886 179.618 523.817 137.267 488 123Z" fill="#F7F4D3"/>
<path d="M45.6981 21.6926C40.577 20.0916 36.6723 21.082 33.939 26.611C31.386 31.744 29.5688 38.1313 32.5273 43.0002C35.4859 47.869 43.2502 48.5952 45.8484 43.4953C49.9933 35.342 55.0694 24.6304 45.6981 21.6926Z" fill="#F7F4D3"/>
<path d="M84 49.4394C148.412 51.952 212.825 54.4771 277.253 56.9897C284.814 57.2897 286.24 50.927 280.413 50.0769C242.559 44.5767 153.154 47.8018 84 49.4394Z" fill="#F7F4D3"/>
<path d="M827 100C792.023 112.789 760.478 127.53 732.618 176.545C730.058 181.042 730.517 190.904 734.127 193.513C737.737 196.122 744.144 187.638 746.141 182.59C764.34 136.883 798.992 115.759 827 100Z" fill="#F7F4D3"/>
<path d="M730.838 355C738.723 395.693 758.557 431.202 785.835 453.488C813.1 475.773 847.607 484.662 881.52 478.113C815.177 476.52 755.762 419.938 730.838 355Z" fill="#F7F4D3"/>
</svg>
