<svg width="958" height="189" viewBox="0 0 958 189" fill="none" xmlns="http://www.w3.org/2000/svg">
<path d="M9.55368 81.0063H957.733V168.958C957.733 168.958 906.742 188.906 855.75 137.223C804.758 85.5401 759.277 154.451 742.739 168.958C724.823 182.559 662.806 193.439 651.78 156.264C643.511 128.156 633.864 110.021 606.3 109.114C588.384 108.208 570.469 115.462 560.822 126.342C551.174 137.223 536.014 150.824 522.232 146.29C502.938 139.943 480.888 110.928 449.19 122.715C439.543 126.342 432.651 133.596 431.273 140.85C427.139 157.171 411.98 191.626 373.391 187.999C333.424 184.372 321.019 147.197 316.884 131.782C315.506 123.622 307.237 117.275 296.212 114.555C283.808 111.835 267.271 112.742 246.598 130.876C205.253 166.238 172.177 165.331 141.858 145.383C117.051 129.062 108.782 118.182 86.7308 121.809C77.0837 123.622 68.8153 127.249 63.3026 132.689C46.7646 147.197 6.79735 178.932 2.66284 152.637C-4.22801 121.809 9.55368 81.0063 9.55368 81.0063Z" fill="#542120"/>
<path d="M8.73756 81.0066H957.733V135.424C957.733 135.424 911.913 144.4 861.667 112.423C811.422 80.4454 762.827 109.057 737.976 135.424C721.422 166.33 674.852 161.838 663.988 138.837C655.84 121.446 630.695 98.9586 603.535 98.3976C585.881 97.8366 568.228 102.325 558.722 109.057C549.217 115.789 534.278 124.204 520.698 121.399C501.686 117.472 476.171 94.4708 444.937 101.764C435.431 104.008 428.687 104.5 421.5 113C410.509 126 406.16 160.99 368.136 158.746C328.754 156.502 328.801 121.96 324.727 112.423C317.38 100.441 298.681 99.0193 287.996 99.0193C275.774 97.3363 256.274 101.203 235.904 112.423C195.165 134.302 175.77 133.18 145.894 120.838C121.45 110.74 116.234 106.955 92.8849 103.76C80.1708 103.76 72.5394 104.356 61.4966 114.188C39.9138 133.405 15.4828 145.152 11.4089 128.883C4.61891 109.808 8.73756 81.0066 8.73756 81.0066Z" fill="#E8D7A5"/>
<path d="M811.18 84.1068C793.765 74.9086 827.007 0.319026 865.236 6.07242C900.745 11.4165 918.171 82.0752 898.276 88.5591C878.381 95.0429 828.595 93.305 811.18 84.1068Z" fill="url(#paint0_linear_0_1)"/>
<path d="M891.096 74.4944C891.096 74.4944 893.477 78.259 892.339 79.6485C891.597 80.5534 890.049 80.4855 889.251 79.7554C887.904 78.5232 891.096 74.4944 891.096 74.4944Z" fill="#EF9B7D"/>
<path d="M878.879 61.3951C878.879 61.3951 881.26 65.1596 880.122 66.5491C879.38 67.454 877.832 67.3862 877.034 66.6561C875.687 65.4239 878.879 61.3951 878.879 61.3951Z" fill="#EF9B7D"/>
<path d="M895.089 57.41C895.089 57.41 897.682 61.0566 896.624 62.4987C895.935 63.4379 894.386 63.4439 893.547 62.7527C892.132 61.5862 895.089 57.41 895.089 57.41Z" fill="#EF9B7D"/>
<path d="M875.957 42.1338C875.957 42.1338 878.338 45.8984 877.2 47.2879C876.458 48.1928 874.91 48.1249 874.112 47.3948C872.765 46.1626 875.957 42.1338 875.957 42.1338Z" fill="#EF9B7D"/>
<path d="M865.704 26.3757C865.704 26.3757 868.657 29.7642 867.752 31.2977C867.163 32.2965 865.621 32.4464 864.716 31.8364C863.188 30.8069 865.704 26.3757 865.704 26.3757Z" fill="#EF9B7D"/>
<path d="M889.907 38.9385C889.907 38.9385 892.5 42.5851 891.442 44.0273C890.754 44.9664 889.204 44.9724 888.366 44.2812C886.95 43.1147 889.907 38.9385 889.907 38.9385Z" fill="#EF9B7D"/>
<path d="M864.468 73.801C864.468 73.801 866.85 77.5656 865.711 78.9551C864.969 79.86 863.421 79.7921 862.623 79.0621C861.276 77.8299 864.468 73.801 864.468 73.801Z" fill="#EF9B7D"/>
<path d="M832.766 58.2805C832.766 58.2805 835.147 62.0451 834.008 63.4346C833.267 64.3395 831.718 64.2716 830.92 63.5416C829.574 62.3094 832.766 58.2805 832.766 58.2805Z" fill="#EF9B7D"/>
<path d="M851.447 61.815C851.447 61.815 854.04 65.4616 852.982 66.9037C852.294 67.8429 850.744 67.8489 849.906 67.1577C848.49 65.9911 851.447 61.815 851.447 61.815Z" fill="#EF9B7D"/>
<path d="M865.052 51.2136C865.052 51.2136 867.433 54.9781 866.294 56.3676C865.553 57.2726 864.005 57.2047 863.207 56.4746C861.86 55.2424 865.052 51.2136 865.052 51.2136Z" fill="#EF9B7D"/>
<path d="M853.222 34.3892C853.222 34.3892 855.603 38.1537 854.464 39.5432C853.723 40.4481 852.175 40.3803 851.377 39.6502C850.03 38.418 853.222 34.3892 853.222 34.3892Z" fill="#EF9B7D"/>
<path d="M844.694 19.4246C844.694 19.4246 847.286 23.0712 846.229 24.5133C845.54 25.4525 843.99 25.4585 843.152 24.7673C841.736 23.6007 844.694 19.4246 844.694 19.4246Z" fill="#EF9B7D"/>
<path d="M835.818 71.9793C835.818 71.9793 838.199 75.7438 837.06 77.1333C836.319 78.0382 834.771 77.9704 833.973 77.2403C832.626 76.0081 835.818 71.9793 835.818 71.9793Z" fill="#EF9B7D"/>
<path d="M815.756 68.6333C815.756 68.6333 818.139 72.3983 817 73.7874C816.259 74.6921 814.711 74.6238 813.912 73.8936C812.565 72.661 815.756 68.6333 815.756 68.6333Z" fill="#EF9B7D"/>
<path d="M842.995 45.9888C842.995 45.9888 845.587 49.6354 844.53 51.0775C843.841 52.0167 842.291 52.0227 841.453 51.3315C840.038 50.165 842.995 45.9888 842.995 45.9888Z" fill="#EF9B7D"/>
<path d="M879.942 23.7932C879.942 23.7932 883.072 27.0386 882.25 28.6128C881.715 29.638 880.183 29.8602 879.246 29.2935C877.666 28.337 879.942 23.7932 879.942 23.7932Z" fill="#EF9B7D"/>
<path d="M862.378 12.2847C862.378 12.2847 864.76 16.0492 863.621 17.4387C862.879 18.3437 861.331 18.2758 860.533 17.5457C859.186 16.3135 862.378 12.2847 862.378 12.2847Z" fill="#EF9B7D"/>
<path d="M831.897 31.5563C831.897 31.5563 834.223 35.3498 833.063 36.7251C832.309 37.6207 830.761 37.5337 829.974 36.7938C828.646 35.5451 831.897 31.5563 831.897 31.5563Z" fill="#EF9B7D"/>
<path d="M821.386 47.9291C821.386 47.9291 823.711 51.7226 822.552 53.0979C821.797 53.9935 820.25 53.9065 819.463 53.1666C818.134 51.9179 821.386 47.9291 821.386 47.9291Z" fill="#EF9B7D"/>
<path d="M55.3717 82.7846C37.4011 74.5828 65.8231 -1.74313 104.351 1.84895C140.137 5.18544 162.041 74.7367 142.596 82.3283C123.15 89.9199 73.3424 90.9864 55.3717 82.7846Z" fill="url(#paint1_linear_0_1)"/>
<path d="M134.531 68.6923C134.531 68.6923 137.148 72.3161 136.1 73.7672C135.418 74.7122 133.868 74.7316 133.025 74.0477C131.601 72.8935 134.531 68.6923 134.531 68.6923Z" fill="#EF9B7D"/>
<path d="M121.499 56.3041C121.499 56.3041 124.117 59.9279 123.069 61.379C122.386 62.324 120.837 62.3434 119.993 61.6596C118.57 60.5053 121.499 56.3041 121.499 56.3041Z" fill="#EF9B7D"/>
<path d="M137.426 51.4143C137.426 51.4143 140.247 54.9085 139.283 56.4075C138.655 57.3837 137.109 57.4769 136.228 56.8342C134.741 55.7493 137.426 51.4143 137.426 51.4143Z" fill="#EF9B7D"/>
<path d="M117.353 37.2419C117.353 37.2419 119.971 40.8657 118.923 42.3168C118.24 43.2618 116.691 43.2811 115.847 42.5973C114.424 41.4431 117.353 37.2419 117.353 37.2419Z" fill="#EF9B7D"/>
<path d="M106.113 22.0892C106.113 22.0892 109.277 25.3054 108.471 26.8872C107.947 27.9173 106.417 28.1537 105.475 27.5957C103.884 26.654 106.113 22.0892 106.113 22.0892Z" fill="#EF9B7D"/>
<path d="M131.075 33.2677C131.075 33.2677 133.895 36.7619 132.932 38.261C132.304 39.2372 130.757 39.3304 129.876 38.6876C128.389 37.6028 131.075 33.2677 131.075 33.2677Z" fill="#EF9B7D"/>
<path d="M107.906 69.4987C107.906 69.4987 110.523 73.1225 109.475 74.5736C108.793 75.5186 107.243 75.538 106.4 74.8541C104.977 73.6999 107.906 69.4987 107.906 69.4987Z" fill="#EF9B7D"/>
<path d="M75.27 55.7897C75.27 55.7897 77.8872 59.4135 76.8393 60.8646C76.1568 61.8096 74.6071 61.829 73.7639 61.1451C72.3407 59.9909 75.27 55.7897 75.27 55.7897Z" fill="#EF9B7D"/>
<path d="M94.1439 58.267C94.1439 58.267 96.9646 61.7612 96.0009 63.2602C95.3733 64.2365 93.8268 64.3296 92.9457 63.6869C91.4586 62.602 94.1439 58.267 94.1439 58.267Z" fill="#EF9B7D"/>
<path d="M107.047 46.9188C107.047 46.9188 109.665 50.5426 108.617 51.9937C107.934 52.9387 106.384 52.9581 105.541 52.2742C104.118 51.12 107.047 46.9188 107.047 46.9188Z" fill="#EF9B7D"/>
<path d="M94.1645 30.7904C94.1645 30.7904 96.7818 34.4143 95.7338 35.8653C95.0513 36.8103 93.5016 36.8297 92.6584 36.1459C91.2353 34.9916 94.1645 30.7904 94.1645 30.7904Z" fill="#EF9B7D"/>
<path d="M84.6966 16.3327C84.6966 16.3327 87.5173 19.8269 86.5536 21.3259C85.926 22.3021 84.3795 22.3953 83.4984 21.7526C82.0113 20.6677 84.6966 16.3327 84.6966 16.3327Z" fill="#EF9B7D"/>
<path d="M79.1909 69.2924C79.1909 69.2924 81.8081 72.9162 80.7602 74.3673C80.0777 75.3123 78.528 75.3317 77.6848 74.6478C76.2616 73.4936 79.1909 69.2924 79.1909 69.2924Z" fill="#EF9B7D"/>
<path d="M58.9518 67.0815C58.9518 67.0815 61.5725 70.7063 60.5255 72.1563C59.8437 73.1007 58.2937 73.119 57.4498 72.4347C56.0254 71.2798 58.9518 67.0815 58.9518 67.0815Z" fill="#EF9B7D"/>
<path d="M84.6966 42.9447C84.6966 42.9447 87.5173 46.4389 86.5536 47.938C85.926 48.9142 84.3795 49.0074 83.4984 48.3646C82.0113 47.2798 84.6966 42.9447 84.6966 42.9447Z" fill="#EF9B7D"/>
<path d="M120.161 18.7102C120.161 18.7102 123.492 21.7737 122.772 23.3913C122.303 24.4448 120.789 24.7528 119.818 24.2398C118.179 23.374 120.161 18.7102 120.161 18.7102Z" fill="#EF9B7D"/>
<path d="M101.894 8.21061C101.894 8.21061 104.511 11.8344 103.463 13.2855C102.781 14.2305 101.231 14.2499 100.388 13.566C98.9647 12.4118 101.894 8.21061 101.894 8.21061Z" fill="#EF9B7D"/>
<path d="M72.6975 29.1625C72.6975 29.1625 75.2609 32.8183 74.1915 34.2563C73.4951 35.1928 71.9452 35.193 71.1122 34.4988C69.7063 33.3271 72.6975 29.1625 72.6975 29.1625Z" fill="#EF9B7D"/>
<path d="M63.2503 46.0973C63.2503 46.0973 65.8136 49.7531 64.7442 51.1911C64.0478 52.1276 62.4979 52.1278 61.665 51.4336C60.259 50.2619 63.2503 46.0973 63.2503 46.0973Z" fill="#EF9B7D"/>
<path d="M56.3242 11.7071C51.1711 23.8038 64.3018 22.1906 70.4953 32.271C72.2253 35.0867 81.6604 45.9804 73.0718 55.6575C78.2419 58.3829 80.905 60.8834 83.8075 65.7379C89.0616 74.5255 94.5404 91.5435 83.8075 91.5435H13.3815C2.64865 91.5435 7.88974 74.3964 13.3815 65.7379C16.6025 60.6595 19.6681 58.0895 25.4055 55.6575C18.1053 43.9643 24.9761 36.7065 31.4175 28.6422C40.4672 17.3125 61.4774 -0.389532 56.3242 11.7071Z" fill="#E8D7A5"/>
<path d="M51.6792 21.4315C51.8981 18.0659 56.4612 10.1348 56.4612 10.1348C56.4612 10.1348 56.6439 9.93972 56.6084 10.4055C56.5953 10.5765 56.5529 10.8365 56.4612 11.2279C56.3758 11.5923 55.5623 14.1048 55.4365 14.5077C55.0949 15.6008 55.0356 17.7553 55.778 19.2449C56.2573 20.2064 56.3238 20.1746 58.0415 21.7874C58.7154 22.4202 59.5934 23.0747 60.6181 23.8035C62.3259 24.8967 64.4829 26.2228 64.4829 26.2228C64.4829 26.2228 60.6082 28.6421 58.9004 28.6421C56.5367 28.6421 54.9354 28.868 53.3178 27.0292C51.7237 25.217 51.518 23.9109 51.6792 21.4315Z" fill="#DBCB9B"/>
<path d="M32.7475 50.0124C25.8767 43.2214 26.2641 35.0935 26.2641 35.0935C26.2641 35.0935 21.4178 41.1988 22.3993 47.1899C23.2581 52.4317 24.117 54.4478 25.8347 55.6574C27.5525 56.867 30.5194 59.2863 40.0058 59.2863C44.7295 59.2863 46.9283 58.9959 52.0297 56.867C53.7441 56.1516 58.146 54.8389 61.9065 54.4478C67.211 53.896 72.2127 55.2542 72.2127 55.2542C72.2127 55.2542 66.1259 53.4 63.1948 53.2381C55.8945 52.8349 37.733 54.94 32.7475 50.0124Z" fill="#DBCB9B"/>
<path d="M7.03474 84.0372C6.5105 75.0111 12.0931 68.1565 12.0931 68.1565C12.0931 68.1565 14.0633 81.2527 18.9639 84.0372C22.3866 85.982 40.0058 89.1236 40.0058 89.1236L69.2068 91.5365H24.0659C21.4854 91.5365 12.4441 92.3255 9.94593 90.7364C7.50848 89.1861 7.21287 87.1043 7.03474 84.0372Z" fill="#DBCB9B"/>
<path d="M74.0407 66.3576C76.2215 68.7381 78.581 72.923 78.581 72.923C78.581 72.923 79.9475 72.239 80.2677 70.4183C80.4138 69.5878 80.0353 67.5135 79.1183 65.9493C77.8759 63.8301 76.3081 62.416 75.0907 61.5875C74.4683 61.164 72.7818 60.2874 71.0126 60.013C69.9065 59.8416 67.6336 60.9564 67.6336 60.9564C67.6336 60.9564 71.942 64.0669 74.0407 66.3576Z" fill="#F6E5B1"/>
<path d="M66.0705 34.7423C67.0802 36.3545 68.0246 39.1137 68.0246 39.1137C68.0246 39.1137 69.0419 38.5533 69.3898 37.4217C69.5484 36.9055 69.4948 35.7301 69.1221 34.697C68.617 33.2973 67.7105 32.3727 67.1008 31.7882C66.7891 31.4894 65.291 30.7853 64.6966 30.6679C64.078 30.5457 62.9575 31.0096 62.9575 31.0096C62.9575 31.0096 65.0988 33.1908 66.0705 34.7423Z" fill="#F6E5B1"/>
<path d="M39.2069 37.8874C34.4704 30.6521 43.5011 16.5171 43.5011 16.5171L46.5071 13.6946C46.5071 13.6946 43.3642 22.1313 44.36 26.1942C45.3726 30.3261 46.7113 33.7921 50.3719 36.2745C53.7707 38.5794 59.8193 37.8874 64.543 37.8874C69.2667 37.8874 72.7021 40.3067 74.4198 42.3227C76.6421 44.9311 77.0505 47.1613 76.5669 49.5806C75.8879 52.9783 73.1315 55.6288 73.1315 55.6288C73.1315 55.6288 70.9429 48.1799 67.1196 45.9517C63.2724 43.7095 55.3293 43.9356 50.8014 43.9356C46.9365 43.9356 42.8595 43.4671 39.2069 37.8874Z" fill="#542120"/>
<path d="M35.3419 69.7414C27.1828 67.0901 19.5361 59.2578 19.5361 59.2578C19.5361 59.2578 17.3889 60.0642 16.5301 61.6771C15.6713 63.2899 19.0237 68.9349 22.8886 71.7574C26.7534 74.5799 33.1119 77.8056 47.3659 80.6281C64.3635 83.9939 88.5909 86.6763 89.4497 86.6763C90.3086 86.6763 89.8792 84.257 89.8792 82.241C89.8792 80.2249 89.4497 77.8056 89.4497 77.8056C89.4497 77.8056 47.7953 73.788 35.3419 69.7414Z" fill="#542120"/>
<path d="M922.742 16.9552C917.589 29.0518 930.719 27.4387 936.913 37.519C938.643 40.3347 948.078 51.2285 939.489 60.9056C944.659 63.6309 947.322 66.1314 950.225 70.9859C955.479 79.7735 960.958 96.7916 950.225 96.7916H879.799C869.066 96.7916 874.307 79.6445 879.799 70.9859C883.02 65.9076 886.086 63.3376 891.823 60.9056C884.523 49.2124 891.394 41.9545 897.835 33.8903C906.885 22.5605 927.895 4.85851 922.742 16.9552Z" fill="#E8D7A5"/>
<path d="M918.097 26.6795C918.316 23.3139 922.879 15.3828 922.879 15.3828C922.879 15.3828 923.061 15.1878 923.026 15.6535C923.013 15.8245 922.97 16.0845 922.879 16.4759C922.793 16.8404 921.98 19.3529 921.854 19.7557C921.512 20.8489 921.453 23.0033 922.196 24.493C922.675 25.4544 922.741 25.4226 924.459 27.0355C925.133 27.6682 926.011 28.3227 927.036 29.0515C928.743 30.1448 930.9 31.4708 930.9 31.4708C930.9 31.4708 927.026 33.8901 925.318 33.8901C922.954 33.8901 921.353 34.116 919.735 32.2772C918.141 30.465 917.936 29.1589 918.097 26.6795Z" fill="#DBCB9B"/>
<path d="M899.165 55.2604C892.294 48.4695 892.682 40.3416 892.682 40.3416C892.682 40.3416 887.835 46.4468 888.817 52.438C889.676 57.6797 890.534 59.6958 892.252 60.9054C893.97 62.1151 896.937 64.5344 906.423 64.5344C911.147 64.5344 913.346 64.244 918.447 62.1151C920.162 61.3997 924.563 60.0869 928.324 59.6958C933.628 59.1441 938.63 60.5022 938.63 60.5022C938.63 60.5022 932.543 58.6481 929.612 58.4862C922.312 58.0829 904.151 60.188 899.165 55.2604Z" fill="#DBCB9B"/>
<path d="M873.452 89.2857C872.928 80.2597 878.511 73.405 878.511 73.405C878.511 73.405 880.481 86.5012 885.381 89.2857C888.804 91.2305 906.423 94.3721 906.423 94.3721L935.624 96.785H890.483C887.903 96.785 878.862 97.574 876.363 95.985C873.926 94.4346 873.63 92.3528 873.452 89.2857Z" fill="#DBCB9B"/>
<path d="M940.458 71.6054C942.639 73.9859 944.998 78.1708 944.998 78.1708C944.998 78.1708 946.365 77.4868 946.685 75.6661C946.831 74.8356 946.453 72.7613 945.536 71.1971C944.293 69.0779 942.726 67.6638 941.508 66.8353C940.886 66.4118 939.199 65.5352 937.43 65.2608C936.324 65.0894 934.051 66.2042 934.051 66.2042C934.051 66.2042 938.359 69.3147 940.458 71.6054Z" fill="#F6E5B1"/>
<path d="M932.488 39.9901C933.498 41.6023 934.442 44.3615 934.442 44.3615C934.442 44.3615 935.459 43.8011 935.807 42.6695C935.966 42.1533 935.912 40.9779 935.54 39.9448C935.034 38.5451 934.128 37.6205 933.518 37.036C933.207 36.7372 931.708 36.0331 931.114 35.9157C930.495 35.7935 929.375 36.2574 929.375 36.2574C929.375 36.2574 931.516 38.4386 932.488 39.9901Z" fill="#F6E5B1"/>
<path d="M905.624 43.1354C900.888 35.9001 909.919 21.7651 909.919 21.7651L912.925 18.9426C912.925 18.9426 909.782 27.3793 910.777 31.4422C911.79 35.5741 913.129 39.0402 916.789 41.5226C920.188 43.8274 926.237 43.1354 930.96 43.1354C935.684 43.1354 939.12 45.5547 940.837 47.5708C943.06 50.1791 943.468 52.4093 942.984 54.8286C942.305 58.2264 939.549 60.8768 939.549 60.8768C939.549 60.8768 937.36 53.4279 933.537 51.1997C929.69 48.9576 921.747 49.1836 917.219 49.1836C913.354 49.1836 909.277 48.7151 905.624 43.1354Z" fill="#542120"/>
<path d="M901.76 74.9892C893.601 72.3379 885.954 64.5056 885.954 64.5056C885.954 64.5056 883.807 65.312 882.948 66.9249C882.089 68.5377 885.442 74.1827 889.307 77.0052C893.171 79.8277 899.53 83.0534 913.784 85.8759C930.781 89.2417 955.009 91.9241 955.868 91.9241C956.727 91.9241 956.297 89.5048 956.297 87.4888C956.297 85.4727 955.868 83.0534 955.868 83.0534C955.868 83.0534 914.213 79.0358 901.76 74.9892Z" fill="#542120"/>
<defs>
<linearGradient id="paint0_linear_0_1" x1="857.931" y1="5.6938" x2="852.161" y2="131.524" gradientUnits="userSpaceOnUse">
<stop stop-color="#9B2227"/>
<stop offset="1" stop-color="#EF9B7D"/>
</linearGradient>
<linearGradient id="paint1_linear_0_1" x1="97.0347" y1="1.88202" x2="98.3541" y2="127.82" gradientUnits="userSpaceOnUse">
<stop stop-color="#9B2227"/>
<stop offset="1" stop-color="#EF9B7D"/>
</linearGradient>
</defs>
</svg>
