<svg width="1196" height="195" viewBox="0 0 1196 195" fill="none" xmlns="http://www.w3.org/2000/svg">
<path d="M11.0209 81.3992H1195.77V174.021C1195.77 174.021 1132.05 195.028 1068.34 140.601C1004.62 86.1736 947.797 158.743 927.133 174.021C904.746 188.344 827.256 199.802 813.48 160.653C803.148 131.052 791.093 111.955 756.653 111C734.266 110.045 711.881 117.684 699.827 129.142C687.773 140.601 668.83 154.924 651.61 150.149C627.502 143.465 599.951 112.909 560.344 125.323C548.29 129.142 539.679 136.781 537.957 144.42C532.791 161.607 513.85 197.892 465.634 194.073C415.695 190.253 400.195 151.104 395.029 134.871C393.307 126.278 382.975 119.594 369.199 116.729C353.701 113.865 333.037 114.819 307.207 133.917C255.546 171.156 214.218 170.201 176.334 149.194C145.338 132.007 135.006 120.549 107.453 124.368C95.3993 126.278 85.068 130.097 78.18 135.827C57.5158 151.104 7.57687 184.525 2.41082 156.834C-6.19926 124.368 11.0209 81.3992 11.0209 81.3992Z" fill="#542120"/>
<path d="M10.2462 81.3992H1195.77V135.817C1195.77 135.817 1138.53 144.793 1075.76 112.815C1012.99 80.838 952.283 109.449 921.238 135.817C900.557 166.723 842.381 162.231 828.809 139.23C818.63 121.838 787.218 99.3512 753.289 98.7902C731.235 98.2292 709.183 102.717 697.308 109.449C685.433 116.181 666.771 124.597 649.806 121.792C626.056 117.865 594.181 94.8633 555.163 102.156C543.288 104.4 531.414 106.685 524 115.5C508.706 133.685 506.721 161.382 459.22 159.138C410.023 156.894 410.081 122.352 404.992 112.815C395.814 100.834 372.454 99.4119 359.106 99.4119C343.838 97.7289 319.478 101.595 294.031 112.815C243.138 134.694 218.909 133.572 181.587 121.23C151.051 111.132 144.535 107.348 115.366 104.152C99.4832 104.152 89.9498 104.748 76.1547 114.581C49.1928 133.797 18.6726 145.544 13.5833 129.275C5.10104 110.201 10.2462 81.3992 10.2462 81.3992Z" fill="#E8D7A5"/>
<path d="M1045.27 85.9557C1027.26 76.6499 1061.63 1.1875 1101.15 7.00822C1137.86 12.4148 1155.88 83.9004 1135.31 90.4601C1114.74 97.0198 1063.27 95.2615 1045.27 85.9557Z" fill="url(#paint0_linear_0_1)"/>
<path d="M1127.89 76.2307C1127.89 76.2307 1130.35 80.0393 1129.17 81.4451C1128.41 82.3606 1126.8 82.2919 1125.98 81.5533C1124.59 80.3067 1127.89 76.2307 1127.89 76.2307Z" fill="#EF9B7D"/>
<path d="M1115.26 62.978C1115.26 62.978 1117.72 66.7866 1116.54 68.1924C1115.78 69.1079 1114.17 69.0392 1113.35 68.3006C1111.96 67.054 1115.26 62.978 1115.26 62.978Z" fill="#EF9B7D"/>
<path d="M1132.02 58.9465C1132.02 58.9465 1134.7 62.6358 1133.6 64.0948C1132.89 65.045 1131.29 65.051 1130.42 64.3518C1128.96 63.1715 1132.02 58.9465 1132.02 58.9465Z" fill="#EF9B7D"/>
<path d="M1112.24 43.4914C1112.24 43.4914 1114.7 47.3 1113.52 48.7058C1112.75 49.6213 1111.15 49.5526 1110.33 48.814C1108.94 47.5674 1112.24 43.4914 1112.24 43.4914Z" fill="#EF9B7D"/>
<path d="M1101.64 27.549C1101.64 27.549 1104.69 30.9772 1103.75 32.5287C1103.14 33.5391 1101.55 33.6908 1100.61 33.0737C1099.04 32.0321 1101.64 27.549 1101.64 27.549Z" fill="#EF9B7D"/>
<path d="M1126.66 40.2589C1126.66 40.2589 1129.34 43.9481 1128.25 45.4071C1127.53 46.3573 1125.93 46.3633 1125.06 45.6641C1123.6 44.4839 1126.66 40.2589 1126.66 40.2589Z" fill="#EF9B7D"/>
<path d="M1100.36 75.5294C1100.36 75.5294 1102.82 79.338 1101.64 80.7438C1100.88 81.6593 1099.28 81.5906 1098.45 80.852C1097.06 79.6054 1100.36 75.5294 1100.36 75.5294Z" fill="#EF9B7D"/>
<path d="M1067.58 59.8269C1067.58 59.8269 1070.05 63.6355 1068.87 65.0413C1068.1 65.9568 1066.5 65.8881 1065.68 65.1495C1064.28 63.9029 1067.58 59.8269 1067.58 59.8269Z" fill="#EF9B7D"/>
<path d="M1086.9 63.403C1086.9 63.403 1089.58 67.0923 1088.48 68.5513C1087.77 69.5015 1086.17 69.5075 1085.3 68.8083C1083.84 67.628 1086.9 63.403 1086.9 63.403Z" fill="#EF9B7D"/>
<path d="M1100.96 52.6775C1100.96 52.6775 1103.42 56.4861 1102.25 57.8919C1101.48 58.8074 1099.88 58.7387 1099.05 58.0001C1097.66 56.7535 1100.96 52.6775 1100.96 52.6775Z" fill="#EF9B7D"/>
<path d="M1088.73 35.6562C1088.73 35.6562 1091.19 39.4648 1090.02 40.8706C1089.25 41.7861 1087.65 41.7174 1086.82 40.9788C1085.43 39.7322 1088.73 35.6562 1088.73 35.6562Z" fill="#EF9B7D"/>
<path d="M1079.92 20.5166C1079.92 20.5166 1082.6 24.2058 1081.5 25.6648C1080.79 26.615 1079.19 26.621 1078.32 25.9218C1076.86 24.7416 1079.92 20.5166 1079.92 20.5166Z" fill="#EF9B7D"/>
<path d="M1070.74 73.6863C1070.74 73.6863 1073.2 77.4949 1072.02 78.9006C1071.26 79.8161 1069.66 79.7475 1068.83 79.0089C1067.44 77.7622 1070.74 73.6863 1070.74 73.6863Z" fill="#EF9B7D"/>
<path d="M1050 70.2995C1050 70.2995 1052.46 74.1081 1051.28 75.5139C1050.52 76.4294 1048.92 76.3607 1048.09 75.6221C1046.7 74.3755 1050 70.2995 1050 70.2995Z" fill="#EF9B7D"/>
<path d="M1078.16 47.3917C1078.16 47.3917 1080.84 51.081 1079.75 52.54C1079.03 53.4901 1077.43 53.4962 1076.57 52.7969C1075.1 51.6167 1078.16 47.3917 1078.16 47.3917Z" fill="#EF9B7D"/>
<path d="M1116.36 24.9362C1116.36 24.9362 1119.59 28.2196 1118.74 29.8122C1118.19 30.8494 1116.61 31.0742 1115.64 30.5009C1114 29.5333 1116.36 24.9362 1116.36 24.9362Z" fill="#EF9B7D"/>
<path d="M1098.2 13.2931C1098.2 13.2931 1100.66 17.1017 1099.48 18.5074C1098.72 19.4229 1097.12 19.3543 1096.29 18.6157C1094.9 17.369 1098.2 13.2931 1098.2 13.2931Z" fill="#EF9B7D"/>
<path d="M1066.69 32.7902C1066.69 32.7902 1069.09 36.6281 1067.89 38.0194C1067.11 38.9255 1065.51 38.8375 1064.7 38.089C1063.32 36.8257 1066.69 32.7902 1066.69 32.7902Z" fill="#EF9B7D"/>
<path d="M1055.82 49.3546C1055.82 49.3546 1058.22 53.1925 1057.03 54.5838C1056.24 55.4899 1054.65 55.4019 1053.83 54.6534C1052.46 53.3901 1055.82 49.3546 1055.82 49.3546Z" fill="#EF9B7D"/>
<path d="M65.4175 83.7534C46.8392 75.4557 76.2224 -1.76339 116.053 1.87072C153.049 5.24626 175.694 75.6114 155.591 83.2918C135.488 90.9722 83.9959 92.0512 65.4175 83.7534Z" fill="url(#paint1_linear_0_1)"/>
<path d="M147.254 69.4963C147.254 69.4963 149.96 73.1625 148.876 74.6306C148.171 75.5866 146.569 75.6062 145.697 74.9144C144.226 73.7466 147.254 69.4963 147.254 69.4963Z" fill="#EF9B7D"/>
<path d="M133.782 56.9632C133.782 56.9632 136.488 60.6294 135.404 62.0975C134.699 63.0536 133.097 63.0731 132.225 62.3813C130.754 61.2136 133.782 56.9632 133.782 56.9632Z" fill="#EF9B7D"/>
<path d="M150.247 52.0161C150.247 52.0161 153.163 55.5511 152.167 57.0677C151.518 58.0554 149.919 58.1496 149.008 57.4994C147.471 56.4018 150.247 52.0161 150.247 52.0161Z" fill="#EF9B7D"/>
<path d="M129.496 37.6778C129.496 37.6778 132.202 41.344 131.119 42.8121C130.413 43.7681 128.811 43.7877 127.939 43.0959C126.468 41.9281 129.496 37.6778 129.496 37.6778Z" fill="#EF9B7D"/>
<path d="M117.875 22.3477C117.875 22.3477 121.146 25.6016 120.313 27.2018C119.771 28.244 118.19 28.4832 117.216 27.9187C115.571 26.9659 117.875 22.3477 117.875 22.3477Z" fill="#EF9B7D"/>
<path d="M143.681 33.6571C143.681 33.6571 146.597 37.1922 145.601 38.7088C144.952 39.6964 143.353 39.7907 142.442 39.1404C140.905 38.0429 143.681 33.6571 143.681 33.6571Z" fill="#EF9B7D"/>
<path d="M119.729 70.3122C119.729 70.3122 122.435 73.9784 121.352 75.4465C120.646 76.4025 119.044 76.4221 118.172 75.7303C116.701 74.5625 119.729 70.3122 119.729 70.3122Z" fill="#EF9B7D"/>
<path d="M85.9889 56.4427C85.9889 56.4427 88.6947 60.1089 87.6113 61.577C86.9057 62.533 85.3036 62.5526 84.4319 61.8608C82.9606 60.693 85.9889 56.4427 85.9889 56.4427Z" fill="#EF9B7D"/>
<path d="M105.501 58.9489C105.501 58.9489 108.417 62.4839 107.421 64.0005C106.772 64.9882 105.174 65.0824 104.263 64.4322C102.725 63.3346 105.501 58.9489 105.501 58.9489Z" fill="#EF9B7D"/>
<path d="M118.841 47.4681C118.841 47.4681 121.547 51.1344 120.463 52.6024C119.758 53.5585 118.156 53.5781 117.284 52.8862C115.813 51.7185 118.841 47.4681 118.841 47.4681Z" fill="#EF9B7D"/>
<path d="M105.523 31.1509C105.523 31.1509 108.228 34.8172 107.145 36.2852C106.439 37.2413 104.837 37.2609 103.966 36.569C102.494 35.4013 105.523 31.1509 105.523 31.1509Z" fill="#EF9B7D"/>
<path d="M95.7347 16.5239C95.7347 16.5239 98.6508 20.059 97.6545 21.5756C97.0057 22.5632 95.4069 22.6575 94.496 22.0072C92.9586 20.9097 95.7347 16.5239 95.7347 16.5239Z" fill="#EF9B7D"/>
<path d="M90.0426 70.1035C90.0426 70.1035 92.7484 73.7697 91.665 75.2377C90.9594 76.1938 89.3573 76.2134 88.4856 75.5215C87.0143 74.3538 90.0426 70.1035 90.0426 70.1035Z" fill="#EF9B7D"/>
<path d="M69.119 67.8662C69.119 67.8662 71.8275 71.5331 70.7448 73.0004C70.0398 73.9559 68.4375 73.9747 67.5652 73.2825C66.093 72.1143 69.119 67.8662 69.119 67.8662Z" fill="#EF9B7D"/>
<path d="M95.7347 43.4474C95.7347 43.4474 98.6508 46.9825 97.6545 48.499C97.0057 49.4867 95.4069 49.581 94.496 48.9307C92.9586 47.8331 95.7347 43.4474 95.7347 43.4474Z" fill="#EF9B7D"/>
<path d="M132.398 18.9292C132.398 18.9292 135.842 22.0286 135.098 23.6651C134.613 24.7309 133.047 25.0425 132.043 24.5235C130.349 23.6476 132.398 18.9292 132.398 18.9292Z" fill="#EF9B7D"/>
<path d="M113.514 8.3067C113.514 8.3067 116.22 11.9729 115.136 13.441C114.431 14.397 112.829 14.4166 111.957 13.7248C110.486 12.5571 113.514 8.3067 113.514 8.3067Z" fill="#EF9B7D"/>
<path d="M83.3297 29.5039C83.3297 29.5039 85.9797 33.2025 84.8742 34.6574C84.1542 35.6048 82.5519 35.605 81.6908 34.9027C80.2373 33.7173 83.3297 29.5039 83.3297 29.5039Z" fill="#EF9B7D"/>
<path d="M73.5626 46.6371C73.5626 46.6371 76.2126 50.3357 75.1071 51.7906C74.3871 52.738 72.7849 52.7382 71.9237 52.0359C70.4703 50.8505 73.5626 46.6371 73.5626 46.6371Z" fill="#EF9B7D"/>
<path d="M59.9927 11.8442C54.6653 24.0824 68.24 22.4504 74.6431 32.6487C76.4316 35.4974 86.1857 46.5186 77.3067 56.3089C82.6516 59.0662 85.4047 61.5959 88.4054 66.5072C93.8372 75.3977 99.5013 92.6149 88.4054 92.6149H15.5978C4.50193 92.6149 9.92026 75.2671 15.5978 66.5072C18.9277 61.3695 22.0969 58.7694 28.0284 56.3089C20.4813 44.4789 27.5845 37.1362 34.2437 28.9775C43.5995 17.5152 65.3202 -0.393964 59.9927 11.8442Z" fill="#E8D7A5"/>
<path d="M55.1901 21.6824C55.4163 18.2774 60.1337 10.2535 60.1337 10.2535C60.1337 10.2535 60.3226 10.0562 60.2859 10.5274C60.2724 10.7004 60.2285 10.9635 60.1337 11.3594C60.0454 11.7281 59.2045 14.27 59.0743 14.6776C58.7212 15.7835 58.6599 17.9632 59.4275 19.4703C59.9229 20.443 59.9917 20.4108 61.7675 22.0425C62.4642 22.6827 63.3719 23.3449 64.4312 24.0822C66.1968 25.1882 68.4268 26.5298 68.4268 26.5298C68.4268 26.5298 64.421 28.9774 62.6554 28.9774C60.2118 28.9774 58.5563 29.206 56.8841 27.3457C55.236 25.5122 55.0234 24.1908 55.1901 21.6824Z" fill="#DBCB9B"/>
<path d="M35.618 50.5977C28.5148 43.7273 28.9154 35.5043 28.9154 35.5043C28.9154 35.5043 23.9051 41.681 24.9199 47.7422C25.8077 53.0453 26.6956 55.085 28.4715 56.3088C30.2473 57.5326 33.3146 59.9802 43.1217 59.9802C48.0052 59.9802 50.2784 59.6864 55.5523 57.5326C57.3246 56.8088 61.8754 55.4807 65.7631 55.085C71.247 54.5268 76.4179 55.9009 76.4179 55.9009C76.4179 55.9009 70.1253 54.025 67.095 53.8612C59.5478 53.4533 40.7721 55.583 35.618 50.5977Z" fill="#DBCB9B"/>
<path d="M9.03591 85.0211C8.49395 75.8894 14.2653 68.9546 14.2653 68.9546C14.2653 68.9546 16.3021 82.204 21.3685 85.0211C24.9069 86.9886 43.122 90.167 43.122 90.167L73.3105 92.6081H26.6431C23.9753 92.6081 14.6282 93.4064 12.0456 91.7988C9.52567 90.2302 9.22007 88.1241 9.03591 85.0211Z" fill="#DBCB9B"/>
<path d="M78.3079 67.1339C80.5625 69.5423 83.0018 73.7762 83.0018 73.7762C83.0018 73.7762 84.4146 73.0841 84.7456 71.2422C84.8966 70.4019 84.5053 68.3034 83.5573 66.7209C82.2729 64.5768 80.652 63.1462 79.3935 62.308C78.7501 61.8796 77.0065 60.9926 75.1774 60.7151C74.034 60.5416 71.6842 61.6696 71.6842 61.6696C71.6842 61.6696 76.1383 64.8164 78.3079 67.1339Z" fill="#F6E5B1"/>
<path d="M70.0678 35.1488C71.1117 36.7799 72.088 39.5714 72.088 39.5714C72.088 39.5714 73.1397 39.0044 73.4994 37.8595C73.6634 37.3373 73.608 36.1481 73.2226 35.103C72.7005 33.6869 71.7633 32.7515 71.133 32.1602C70.8108 31.8579 69.262 31.1455 68.6475 31.0267C68.008 30.9031 66.8496 31.3724 66.8496 31.3724C66.8496 31.3724 69.0633 33.5791 70.0678 35.1488Z" fill="#F6E5B1"/>
<path d="M42.2963 38.3308C37.3996 31.0108 46.7358 16.7104 46.7358 16.7104L49.8434 13.8549C49.8434 13.8549 46.5942 22.3903 47.6237 26.5007C48.6705 30.681 50.0545 34.1876 53.8389 36.699C57.3527 39.0309 63.6058 38.3308 68.4893 38.3308C73.3727 38.3308 76.9243 40.7783 78.7001 42.818C80.9976 45.4569 81.4197 47.7132 80.9198 50.1608C80.2178 53.5983 77.3682 56.2797 77.3682 56.2797C77.3682 56.2797 75.1055 48.7437 71.1529 46.4894C67.1757 44.221 58.964 44.4497 54.2829 44.4497C50.2873 44.4497 46.0725 43.9757 42.2963 38.3308Z" fill="#542120"/>
<path d="M38.3006 70.5574C29.8655 67.8751 21.9602 59.9512 21.9602 59.9512C21.9602 59.9512 19.7404 60.767 18.8525 62.3988C17.9647 64.0305 21.4305 69.7415 25.426 72.5971C29.4216 75.4526 35.9951 78.716 50.7311 81.5715C68.3036 84.9767 93.3503 87.6905 94.2382 87.6905C95.1261 87.6905 94.6822 85.2429 94.6822 83.2033C94.6822 81.1636 94.2382 78.716 94.2382 78.716C94.2382 78.716 51.1751 74.6514 38.3006 70.5574Z" fill="#542120"/>
<path d="M1160.6 18.0182C1155.28 30.2564 1168.85 28.6244 1175.25 38.8227C1177.04 41.6713 1186.8 52.6925 1177.92 62.4829C1183.26 65.2401 1186.02 67.7699 1189.02 72.6812C1194.45 81.5716 1200.11 98.7888 1189.02 98.7888H1116.21C1105.11 98.7888 1110.53 81.4411 1116.21 72.6812C1119.54 67.5434 1122.71 64.9433 1128.64 62.4829C1121.09 50.6529 1128.2 43.3101 1134.85 35.1515C1144.21 23.6891 1165.93 5.77999 1160.6 18.0182Z" fill="#E8D7A5"/>
<path d="M1155.8 27.8564C1156.03 24.4514 1160.75 16.4275 1160.75 16.4275C1160.75 16.4275 1160.93 16.2301 1160.9 16.7014C1160.88 16.8743 1160.84 17.1374 1160.75 17.5334C1160.66 17.9021 1159.82 20.444 1159.69 20.8516C1159.33 21.9575 1159.27 24.1372 1160.04 25.6442C1160.53 26.617 1160.6 26.5848 1162.38 28.2165C1163.08 28.8567 1163.98 29.5188 1165.04 30.2562C1166.81 31.3622 1169.04 32.7037 1169.04 32.7037C1169.04 32.7037 1165.03 35.1513 1163.27 35.1513C1160.82 35.1513 1159.17 35.3799 1157.5 33.5196C1155.85 31.6861 1155.64 30.3648 1155.8 27.8564Z" fill="#DBCB9B"/>
<path d="M1136.23 56.7718C1129.13 49.9014 1129.53 41.6783 1129.53 41.6783C1129.53 41.6783 1124.52 47.855 1125.53 53.9163C1126.42 59.2194 1127.31 61.2591 1129.08 62.4829C1130.86 63.7067 1133.93 66.1542 1143.73 66.1542C1148.62 66.1542 1150.89 65.8604 1156.16 63.7067C1157.94 62.9829 1162.49 61.6548 1166.37 61.2591C1171.86 60.7009 1177.03 62.0749 1177.03 62.0749C1177.03 62.0749 1170.74 60.1991 1167.71 60.0353C1160.16 59.6273 1141.38 61.7571 1136.23 56.7718Z" fill="#DBCB9B"/>
<path d="M1109.65 91.1952C1109.11 82.0635 1114.88 75.1287 1114.88 75.1287C1114.88 75.1287 1116.91 88.3781 1121.98 91.1952C1125.52 93.1627 1143.73 96.3411 1143.73 96.3411L1173.92 98.7822H1127.25C1124.59 98.7822 1115.24 99.5805 1112.66 97.9728C1110.14 96.4043 1109.83 94.2981 1109.65 91.1952Z" fill="#DBCB9B"/>
<path d="M1178.92 73.308C1181.17 75.7163 1183.61 79.9502 1183.61 79.9502C1183.61 79.9502 1185.03 79.2582 1185.36 77.4163C1185.51 76.576 1185.12 74.4775 1184.17 72.895C1182.88 70.7509 1181.26 69.3202 1180 68.4821C1179.36 68.0536 1177.62 67.1667 1175.79 66.8892C1174.65 66.7157 1172.3 67.8436 1172.3 67.8436C1172.3 67.8436 1176.75 70.9905 1178.92 73.308Z" fill="#F6E5B1"/>
<path d="M1170.68 41.3227C1171.72 42.9539 1172.7 45.7453 1172.7 45.7453C1172.7 45.7453 1173.75 45.1783 1174.11 44.0335C1174.28 43.5113 1174.22 42.3221 1173.83 41.2769C1173.31 39.8609 1172.38 38.9255 1171.74 38.3341C1171.42 38.0318 1169.87 37.3194 1169.26 37.2007C1168.62 37.0771 1167.46 37.5464 1167.46 37.5464C1167.46 37.5464 1169.68 39.7531 1170.68 41.3227Z" fill="#F6E5B1"/>
<path d="M1142.91 44.5047C1138.01 37.1847 1147.35 22.8843 1147.35 22.8843L1150.45 20.0288C1150.45 20.0288 1147.21 28.5642 1148.23 32.6747C1149.28 36.8549 1150.67 40.3615 1154.45 42.873C1157.96 45.2048 1164.22 44.5047 1169.1 44.5047C1173.98 44.5047 1177.54 46.9523 1179.31 48.992C1181.61 51.6308 1182.03 53.8871 1181.53 56.3347C1180.83 59.7722 1177.98 62.4537 1177.98 62.4537C1177.98 62.4537 1175.72 54.9176 1171.76 52.6633C1167.79 50.395 1159.58 50.6237 1154.89 50.6237C1150.9 50.6237 1146.68 50.1497 1142.91 44.5047Z" fill="#542120"/>
<path d="M1138.91 76.7313C1130.48 74.0491 1122.57 66.1251 1122.57 66.1251C1122.57 66.1251 1120.35 66.941 1119.46 68.5727C1118.58 70.2044 1122.04 75.9155 1126.04 78.771C1130.03 81.6265 1136.61 84.89 1151.34 87.7455C1168.91 91.1506 1193.96 93.8645 1194.85 93.8645C1195.74 93.8645 1195.29 91.4169 1195.29 89.3772C1195.29 87.3376 1194.85 84.89 1194.85 84.89C1194.85 84.89 1151.79 80.8253 1138.91 76.7313Z" fill="#542120"/>
<defs>
<linearGradient id="paint0_linear_0_1" x1="1093.6" y1="6.62517" x2="1087.89" y2="133.939" gradientUnits="userSpaceOnUse">
<stop stop-color="#9B2227"/>
<stop offset="1" stop-color="#EF9B7D"/>
</linearGradient>
<linearGradient id="paint1_linear_0_1" x1="108.489" y1="1.90418" x2="109.796" y2="129.317" gradientUnits="userSpaceOnUse">
<stop stop-color="#9B2227"/>
<stop offset="1" stop-color="#EF9B7D"/>
</linearGradient>
</defs>
</svg>
