<svg width="694" height="198" viewBox="0 0 694 198" fill="none" xmlns="http://www.w3.org/2000/svg">
<path d="M6.3613 99.6653C6.3613 99.6653 424.617 99.6653 692.617 99.6653C692.617 133.101 692.617 151.847 692.617 185.282C692.617 185.282 653.425 204.7 616.648 154.389C579.872 104.079 547.071 171.16 535.144 185.282C522.222 198.522 477.495 209.113 469.543 172.925C463.579 145.563 456.621 127.91 436.742 127.027C423.821 126.144 410.9 133.206 403.942 143.798C396.985 154.389 386.051 167.629 376.111 163.216C362.196 157.037 346.293 128.792 323.432 140.267C316.475 143.797 311.504 150.859 310.511 157.92C307.529 173.807 302.5 194 277.5 194C268 194 243.333 195 228.012 149.093C223.333 137 221.054 134.971 213.103 132.323C204.157 129.675 192.23 130.558 177.321 148.211C147.502 182.634 123.647 181.751 101.781 162.333C83.8894 146.445 77.9256 135.854 62.0224 139.384C55.0647 141.15 49.1015 144.68 45.1257 149.976C33.1983 164.099 4.37339 194.991 1.39153 169.395C-3.57823 139.385 6.3613 99.6653 6.3613 99.6653Z" fill="#542120"/>
<path d="M104.156 102.186C83.9295 92.5324 115.919 2.69452 159.283 6.9225C199.562 10.8496 224.216 92.7135 202.329 101.649C180.443 110.585 124.383 111.84 104.156 102.186Z" fill="url(#paint0_linear_0_1)"/>
<path d="M193.252 85.599C193.252 85.599 196.198 89.8643 195.018 91.5723C194.25 92.6846 192.506 92.7074 191.557 91.9025C189.955 90.5439 193.252 85.599 193.252 85.599Z" fill="#EF9B7D"/>
<path d="M178.585 71.0177C178.585 71.0177 181.531 75.2831 180.351 76.991C179.583 78.1033 177.839 78.1261 176.89 77.3212C175.288 75.9627 178.585 71.0177 178.585 71.0177Z" fill="#EF9B7D"/>
<path d="M196.511 65.2623C196.511 65.2623 199.686 69.3751 198.601 71.1395C197.895 72.2886 196.154 72.3982 195.162 71.6417C193.488 70.3648 196.511 65.2623 196.511 65.2623Z" fill="#EF9B7D"/>
<path d="M173.919 48.5809C173.919 48.5809 176.865 52.8463 175.685 54.5542C174.917 55.6665 173.173 55.6893 172.224 54.8844C170.622 53.5259 173.919 48.5809 173.919 48.5809Z" fill="#EF9B7D"/>
<path d="M161.266 30.7456C161.266 30.7456 164.828 34.5312 163.921 36.393C163.331 37.6054 161.61 37.8837 160.549 37.227C158.758 36.1185 161.266 30.7456 161.266 30.7456Z" fill="#EF9B7D"/>
<path d="M189.362 43.9031C189.362 43.9031 192.537 48.0159 191.453 49.7803C190.746 50.9294 189.006 51.039 188.014 50.2825C186.34 49.0056 189.362 43.9031 189.362 43.9031Z" fill="#EF9B7D"/>
<path d="M163.286 86.5482C163.286 86.5482 166.231 90.8135 165.052 92.5215C164.284 93.6338 162.539 93.6566 161.59 92.8517C159.989 91.4931 163.286 86.5482 163.286 86.5482Z" fill="#EF9B7D"/>
<path d="M126.552 70.4122C126.552 70.4122 129.498 74.6776 128.318 76.3855C127.55 77.4978 125.806 77.5206 124.857 76.7157C123.255 75.3572 126.552 70.4122 126.552 70.4122Z" fill="#EF9B7D"/>
<path d="M147.796 73.328C147.796 73.328 150.97 77.4407 149.886 79.2051C149.179 80.3542 147.439 80.4638 146.447 79.7073C144.773 78.4304 147.796 73.328 147.796 73.328Z" fill="#EF9B7D"/>
<path d="M162.319 59.971C162.319 59.971 165.264 64.2363 164.085 65.9443C163.317 67.0566 161.573 67.0794 160.624 66.2745C159.022 64.9159 162.319 59.971 162.319 59.971Z" fill="#EF9B7D"/>
<path d="M147.819 40.9874C147.819 40.9874 150.765 45.2528 149.585 46.9607C148.817 48.073 147.073 48.0958 146.124 47.2909C144.522 45.9324 147.819 40.9874 147.819 40.9874Z" fill="#EF9B7D"/>
<path d="M137.162 23.9703C137.162 23.9703 140.337 28.083 139.252 29.8475C138.546 30.9965 136.805 31.1062 135.814 30.3496C134.14 29.0727 137.162 23.9703 137.162 23.9703Z" fill="#EF9B7D"/>
<path d="M130.966 86.3053C130.966 86.3053 133.911 90.5706 132.732 92.2786C131.964 93.3909 130.22 93.4137 129.271 92.6088C127.669 91.2502 130.966 86.3053 130.966 86.3053Z" fill="#EF9B7D"/>
<path d="M108.185 83.7008C108.185 83.7008 111.131 87.9661 109.952 89.6741C109.184 90.7864 107.439 90.8092 106.49 90.0043C104.888 88.6457 108.185 83.7008 108.185 83.7008Z" fill="#EF9B7D"/>
<path d="M137.162 55.2933C137.162 55.2933 140.337 59.406 139.252 61.1705C138.546 62.3195 136.805 62.4292 135.814 61.6726C134.14 60.3957 137.162 55.2933 137.162 55.2933Z" fill="#EF9B7D"/>
<path d="M177.078 26.7685C177.078 26.7685 180.828 30.3743 180.018 32.2783C179.49 33.5182 177.785 33.8807 176.692 33.277C174.847 32.2579 177.078 26.7685 177.078 26.7685Z" fill="#EF9B7D"/>
<path d="M156.519 14.4103C156.519 14.4103 159.465 18.6756 158.285 20.3836C157.517 21.4959 155.773 21.5187 154.824 20.7138C153.222 19.3552 156.519 14.4103 156.519 14.4103Z" fill="#EF9B7D"/>
<path d="M123.657 39.0713C123.657 39.0713 126.542 43.3743 125.338 45.0668C124.555 46.1691 122.81 46.1693 121.873 45.3522C120.29 43.9731 123.657 39.0713 123.657 39.0713Z" fill="#EF9B7D"/>
<path d="M113.024 59.0041C113.024 59.0041 115.909 63.3071 114.705 64.9997C113.921 66.102 112.177 66.1022 111.239 65.2851C109.657 63.906 113.024 59.0041 113.024 59.0041Z" fill="#EF9B7D"/>
<path d="M495.216 97.8192C475.615 86.9927 513.03 -0.801399 556.058 5.97052C596.024 12.2606 615.638 95.428 593.246 103.06C570.853 110.691 514.817 108.646 495.216 97.8192Z" fill="url(#paint1_linear_0_1)"/>
<path d="M585.164 86.505C585.164 86.505 587.845 90.936 586.563 92.5715C585.728 93.6366 583.986 93.5567 583.088 92.6974C581.572 91.247 585.164 86.505 585.164 86.505Z" fill="#EF9B7D"/>
<path d="M571.414 71.0868C571.414 71.0868 574.094 75.5178 572.812 77.1533C571.978 78.2184 570.235 78.1385 569.337 77.2792C567.821 75.8289 571.414 71.0868 571.414 71.0868Z" fill="#EF9B7D"/>
<path d="M589.659 66.3962C589.659 66.3962 592.577 70.6884 591.386 72.3858C590.611 73.4912 588.867 73.4983 587.923 72.6848C586.33 71.3117 589.659 66.3962 589.659 66.3962Z" fill="#EF9B7D"/>
<path d="M568.125 48.4156C568.125 48.4156 570.805 52.8466 569.523 54.4821C568.689 55.5472 566.946 55.4673 566.048 54.608C564.532 53.1577 568.125 48.4156 568.125 48.4156Z" fill="#EF9B7D"/>
<path d="M556.584 29.868C556.584 29.868 559.908 33.8564 558.889 35.6614C558.226 36.837 556.491 37.0135 555.472 36.2955C553.753 35.0837 556.584 29.868 556.584 29.868Z" fill="#EF9B7D"/>
<path d="M583.826 44.6547C583.826 44.6547 586.744 48.9469 585.554 50.6443C584.778 51.7497 583.034 51.7568 582.091 50.9432C580.498 49.5701 583.826 44.6547 583.826 44.6547Z" fill="#EF9B7D"/>
<path d="M555.194 85.6891C555.194 85.6891 557.874 90.1201 556.592 91.7556C555.758 92.8207 554.015 92.7408 553.117 91.8815C551.601 90.4311 555.194 85.6891 555.194 85.6891Z" fill="#EF9B7D"/>
<path d="M519.511 67.4208C519.511 67.4208 522.191 71.8518 520.91 73.4873C520.075 74.5524 518.332 74.4725 517.434 73.6132C515.918 72.1628 519.511 67.4208 519.511 67.4208Z" fill="#EF9B7D"/>
<path d="M540.538 71.581C540.538 71.581 543.456 75.8731 542.266 77.5706C541.491 78.676 539.747 78.683 538.803 77.8695C537.21 76.4964 540.538 71.581 540.538 71.581Z" fill="#EF9B7D"/>
<path d="M555.851 59.1028C555.851 59.1028 558.531 63.5338 557.249 65.1693C556.415 66.2344 554.672 66.1545 553.774 65.2952C552.258 63.8449 555.851 59.1028 555.851 59.1028Z" fill="#EF9B7D"/>
<path d="M542.535 39.3002C542.535 39.3002 545.216 43.7312 543.934 45.3666C543.099 46.4317 541.357 46.3519 540.459 45.4926C538.943 44.0422 542.535 39.3002 542.535 39.3002Z" fill="#EF9B7D"/>
<path d="M532.936 21.6864C532.936 21.6864 535.854 25.9786 534.664 27.676C533.889 28.7815 532.145 28.7885 531.201 27.975C529.608 26.6019 532.936 21.6864 532.936 21.6864Z" fill="#EF9B7D"/>
<path d="M522.947 83.5448C522.947 83.5448 525.627 87.9758 524.345 89.6113C523.511 90.6764 521.768 90.5965 520.87 89.7372C519.354 88.2868 522.947 83.5448 522.947 83.5448Z" fill="#EF9B7D"/>
<path d="M500.367 79.6046C500.367 79.6046 503.047 84.0356 501.765 85.6711C500.93 86.7362 499.188 86.6563 498.29 85.797C496.774 84.3466 500.367 79.6046 500.367 79.6046Z" fill="#EF9B7D"/>
<path d="M531.025 52.9533C531.025 52.9533 533.943 57.2455 532.752 58.9429C531.977 60.0483 530.233 60.0553 529.289 59.2418C527.696 57.8687 531.025 52.9533 531.025 52.9533Z" fill="#EF9B7D"/>
<path d="M572.61 26.8283C572.61 26.8283 576.133 30.6483 575.208 32.5012C574.605 33.7078 572.881 33.9694 571.827 33.3024C570.048 32.1766 572.61 26.8283 572.61 26.8283Z" fill="#EF9B7D"/>
<path d="M552.842 13.2823C552.842 13.2823 555.522 17.7133 554.24 19.3488C553.406 20.4139 551.663 20.334 550.765 19.4747C549.249 18.0244 552.842 13.2823 552.842 13.2823Z" fill="#EF9B7D"/>
<path d="M518.534 35.9658C518.534 35.9658 521.151 40.4308 519.846 42.0495C518.996 43.1037 517.255 43.0013 516.369 42.1305C514.874 40.6607 518.534 35.9658 518.534 35.9658Z" fill="#EF9B7D"/>
<path d="M506.703 55.237C506.703 55.237 509.32 59.702 508.016 61.3207C507.166 62.3749 505.425 62.2725 504.539 61.4017C503.043 59.9319 506.703 55.237 506.703 55.237Z" fill="#EF9B7D"/>
<path d="M299.665 100.503C279.713 90.3141 314.17 1.36047 357.401 6.74071C397.557 11.7381 419.943 94.228 397.818 102.578C375.692 110.928 319.618 110.691 299.665 100.503Z" fill="url(#paint2_linear_0_1)"/>
<path d="M389.186 86.2925C389.186 86.2925 392.013 90.6347 390.787 92.3106C389.989 93.4021 388.244 93.3785 387.318 92.5486C385.754 91.1479 389.186 86.2925 389.186 86.2925Z" fill="#EF9B7D"/>
<path d="M374.927 71.3263C374.927 71.3263 377.754 75.6684 376.528 77.3444C375.729 78.4358 373.985 78.4122 373.059 77.5823C371.495 76.1816 374.927 71.3263 374.927 71.3263Z" fill="#EF9B7D"/>
<path d="M393.005 66.0498C393.005 66.0498 396.065 70.2455 394.933 71.9804C394.195 73.1103 392.452 73.1736 391.481 72.3909C389.843 71.07 393.005 66.0498 393.005 66.0498Z" fill="#EF9B7D"/>
<path d="M370.882 48.7735C370.882 48.7735 373.709 53.1156 372.483 54.7916C371.684 55.883 369.94 55.8594 369.014 55.0296C367.45 53.6289 370.882 48.7735 370.882 48.7735Z" fill="#EF9B7D"/>
<path d="M358.726 30.6079C358.726 30.6079 362.182 34.4869 361.224 36.3238C360.601 37.5201 358.873 37.7525 357.83 37.0678C356.071 35.9121 358.726 30.6079 358.726 30.6079Z" fill="#EF9B7D"/>
<path d="M386.449 44.5082C386.449 44.5082 389.509 48.704 388.376 50.4389C387.638 51.5687 385.895 51.632 384.925 50.8494C383.287 49.5284 386.449 44.5082 386.449 44.5082Z" fill="#EF9B7D"/>
<path d="M359.204 86.4439C359.204 86.4439 362.031 90.7861 360.805 92.462C360.007 93.5535 358.262 93.5298 357.336 92.7C355.772 91.2993 359.204 86.4439 359.204 86.4439Z" fill="#EF9B7D"/>
<path d="M322.93 69.3362C322.93 69.3362 325.757 73.6784 324.531 75.3543C323.732 76.4458 321.988 76.4222 321.062 75.5923C319.498 74.1916 322.93 69.3362 322.93 69.3362Z" fill="#EF9B7D"/>
<path d="M344.085 72.8163C344.085 72.8163 347.146 77.0121 346.013 78.747C345.275 79.8768 343.532 79.9401 342.561 79.1575C340.923 77.8365 344.085 72.8163 344.085 72.8163Z" fill="#EF9B7D"/>
<path d="M358.972 59.8508C358.972 59.8508 361.799 64.193 360.573 65.8689C359.774 66.9604 358.03 66.9367 357.103 66.1069C355.54 64.7062 358.972 59.8508 358.972 59.8508Z" fill="#EF9B7D"/>
<path d="M345.001 40.4883C345.001 40.4883 347.828 44.8305 346.602 46.5064C345.804 47.5979 344.059 47.5743 343.133 46.7444C341.569 45.3437 345.001 40.4883 345.001 40.4883Z" fill="#EF9B7D"/>
<path d="M334.818 23.1935C334.818 23.1935 337.878 27.3893 336.745 29.1242C336.007 30.254 334.264 30.3173 333.294 29.5347C331.656 28.2137 334.818 23.1935 334.818 23.1935Z" fill="#EF9B7D"/>
<path d="M326.903 85.3411C326.903 85.3411 329.73 89.6833 328.504 91.3592C327.705 92.4507 325.961 92.427 325.035 91.5972C323.471 90.1965 326.903 85.3411 326.903 85.3411Z" fill="#EF9B7D"/>
<path d="M304.203 82.1314C304.203 82.1314 307.03 86.4736 305.804 88.1495C305.006 89.241 303.261 89.2173 302.335 88.3875C300.771 86.9868 304.203 82.1314 304.203 82.1314Z" fill="#EF9B7D"/>
<path d="M333.954 54.5055C333.954 54.5055 337.014 58.7013 335.881 60.4362C335.143 61.566 333.4 61.6293 332.429 60.8467C330.792 59.5257 333.954 54.5055 333.954 54.5055Z" fill="#EF9B7D"/>
<path d="M374.642 27.053C374.642 27.053 378.291 30.7573 377.429 32.639C376.867 33.8645 375.153 34.1815 374.077 33.5489C372.261 32.4811 374.642 27.053 374.642 27.053Z" fill="#EF9B7D"/>
<path d="M354.431 14.1524C354.431 14.1524 357.258 18.4945 356.032 20.1705C355.234 21.262 353.489 21.2383 352.563 20.4085C350.999 19.0078 354.431 14.1524 354.431 14.1524Z" fill="#EF9B7D"/>
<path d="M320.901 37.93C320.901 37.93 323.666 42.3082 322.416 43.9681C321.602 45.0491 319.859 45.0029 318.944 44.1612C317.4 42.7404 320.901 37.93 320.901 37.93Z" fill="#EF9B7D"/>
<path d="M309.721 57.5725C309.721 57.5725 312.487 61.9507 311.237 63.6106C310.423 64.6917 308.679 64.6455 307.764 63.8037C306.221 62.383 309.721 57.5725 309.721 57.5725Z" fill="#EF9B7D"/>
<path d="M63.2492 4.77977C57.4491 19.0179 72.2281 17.1192 79.1992 28.984C81.1464 32.2982 91.7658 45.1204 82.0991 56.5107C87.9182 59.7185 90.9156 62.6616 94.1824 68.3755C100.096 78.7188 106.263 98.7496 94.1824 98.7496H14.9158C2.83555 98.7496 8.73457 78.5669 14.9158 68.3755C18.5411 62.3982 21.9915 59.3732 28.4491 56.5107C20.2325 42.7475 27.9658 34.2048 35.2158 24.7129C45.4016 11.3774 69.0492 -9.45834 63.2492 4.77977Z" fill="#E8D7A5"/>
<path d="M58.0214 16.2256C58.2677 12.2642 63.4036 2.92903 63.4036 2.92903C63.4036 2.92903 63.6093 2.69948 63.5693 3.2477C63.5546 3.44895 63.5068 3.755 63.4036 4.21569C63.3075 4.64462 62.3919 7.60191 62.2503 8.0761C61.8658 9.36276 61.799 11.8986 62.6347 13.652C63.1741 14.7836 63.249 14.7462 65.1823 16.6446C65.9408 17.3893 66.929 18.1597 68.0823 19.0175C70.0045 20.3043 72.4323 21.8651 72.4323 21.8651C72.4323 21.8651 68.0712 24.7127 66.149 24.7127C63.4886 24.7127 61.6862 24.9786 59.8657 22.8143C58.0714 20.6812 57.8399 19.1439 58.0214 16.2256Z" fill="#DBCB9B"/>
<path d="M36.7129 49.8661C28.9796 41.873 29.4157 32.3062 29.4157 32.3062C29.4157 32.3062 23.9609 39.4922 25.0657 46.544C26.0323 52.7137 26.999 55.0867 28.9324 56.5104C30.8658 57.9342 34.2051 60.7818 44.8823 60.7818C50.199 60.7818 52.6739 60.44 58.4156 57.9342C60.3452 57.0921 65.2997 55.547 69.5323 55.0867C75.5027 54.4372 81.1323 56.0358 81.1323 56.0358C81.1323 56.0358 74.2814 53.8534 70.9823 53.6629C62.7656 53.1883 42.3243 55.666 36.7129 49.8661Z" fill="#DBCB9B"/>
<path d="M7.77249 89.915C7.18245 79.291 13.4658 71.2229 13.4658 71.2229C13.4658 71.2229 15.6833 86.6375 21.1991 89.915C25.0515 92.204 44.8825 95.9018 44.8825 95.9018L77.7492 98.7418H26.9417C24.0372 98.7418 13.8609 99.6705 11.0491 97.8002C8.30571 95.9753 7.97299 93.525 7.77249 89.915Z" fill="#DBCB9B"/>
<path d="M83.1899 69.1047C85.6445 71.9066 88.3002 76.8324 88.3002 76.8324C88.3002 76.8324 89.8383 76.0272 90.1987 73.8843C90.363 72.9068 89.9371 70.4653 88.9049 68.6242C87.5066 66.1297 85.7419 64.4653 84.3717 63.4902C83.6712 62.9917 81.773 61.9599 79.7817 61.637C78.5368 61.4351 75.9785 62.7474 75.9785 62.7474C75.9785 62.7474 80.8278 66.4085 83.1899 69.1047Z" fill="#F6E5B1"/>
<path d="M74.2193 31.8926C75.3557 33.7903 76.4187 37.0379 76.4187 37.0379C76.4187 37.0379 77.5637 36.3782 77.9552 35.0463C78.1338 34.4387 78.0735 33.0552 77.6539 31.8393C77.0855 30.1918 76.0651 29.1036 75.3789 28.4156C75.0281 28.0639 73.3419 27.2351 72.6729 27.0969C71.9767 26.9531 70.7155 27.4991 70.7155 27.4991C70.7155 27.4991 73.1256 30.0664 74.2193 31.8926Z" fill="#F6E5B1"/>
<path d="M43.9833 35.5945C38.6523 27.0783 48.8167 10.4411 48.8167 10.4411L52.2 7.1189C52.2 7.1189 48.6626 17.0491 49.7833 21.8313C50.9231 26.6946 52.4298 30.7743 56.55 33.6962C60.3754 36.409 67.1833 35.5945 72.5 35.5945C77.8166 35.5945 81.6833 38.4421 83.6166 40.8151C86.118 43.8852 86.5775 46.5102 86.0333 49.3578C85.269 53.357 82.1666 56.4767 82.1666 56.4767C82.1666 56.4767 79.7032 47.7091 75.4 45.0864C71.0699 42.4474 62.1296 42.7134 57.0333 42.7134C52.6833 42.7134 48.0945 42.162 43.9833 35.5945Z" fill="#542120"/>
<path d="M39.6335 73.0875C30.4502 69.9669 21.8435 60.748 21.8435 60.748C21.8435 60.748 19.4268 61.6972 18.4602 63.5956C17.4936 65.494 21.2669 72.1383 25.6169 75.4605C29.9669 78.7826 37.1235 82.5794 53.1669 85.9015C72.2982 89.8631 99.5669 93.0204 100.534 93.0204C101.5 93.0204 101.017 90.1729 101.017 87.7999C101.017 85.4269 100.534 82.5794 100.534 82.5794C100.534 82.5794 53.6502 77.8505 39.6335 73.0875Z" fill="#542120"/>
<path d="M263.349 4.77977C257.549 19.0179 272.328 17.1192 279.299 28.984C281.246 32.2982 291.866 45.1204 282.199 56.5107C288.018 59.7185 291.016 62.6616 294.283 68.3755C300.196 78.7188 306.363 98.7496 294.283 98.7496H215.016C202.936 98.7496 208.835 78.5669 215.016 68.3755C218.641 62.3982 222.092 59.3732 228.549 56.5107C220.333 42.7475 228.066 34.2048 235.316 24.7129C245.502 11.3774 269.149 -9.45834 263.349 4.77977Z" fill="#E8D7A5"/>
<path d="M258.121 16.2256C258.368 12.2642 263.504 2.92903 263.504 2.92903C263.504 2.92903 263.709 2.69948 263.669 3.2477C263.655 3.44895 263.607 3.755 263.504 4.21569C263.408 4.64462 262.492 7.60191 262.35 8.0761C261.966 9.36276 261.899 11.8986 262.735 13.652C263.274 14.7836 263.349 14.7462 265.282 16.6446C266.041 17.3893 267.029 18.1597 268.182 19.0175C270.105 20.3043 272.532 21.8651 272.532 21.8651C272.532 21.8651 268.171 24.7127 266.249 24.7127C263.589 24.7127 261.786 24.9786 259.966 22.8143C258.171 20.6812 257.94 19.1439 258.121 16.2256Z" fill="#DBCB9B"/>
<path d="M236.813 49.8661C229.08 41.873 229.516 32.3062 229.516 32.3062C229.516 32.3062 224.061 39.4922 225.166 46.544C226.132 52.7137 227.099 55.0867 229.032 56.5104C230.966 57.9342 234.305 60.7818 244.982 60.7818C250.299 60.7818 252.774 60.44 258.516 57.9342C260.445 57.0921 265.4 55.547 269.632 55.0867C275.603 54.4372 281.232 56.0358 281.232 56.0358C281.232 56.0358 274.382 53.8534 271.082 53.6629C262.866 53.1883 242.424 55.666 236.813 49.8661Z" fill="#DBCB9B"/>
<path d="M207.873 89.915C207.283 79.291 213.566 71.2229 213.566 71.2229C213.566 71.2229 215.783 86.6375 221.299 89.915C225.152 92.204 244.983 95.9018 244.983 95.9018L277.849 98.7418H227.042C224.137 98.7418 213.961 99.6705 211.149 97.8002C208.406 95.9753 208.073 93.525 207.873 89.915Z" fill="#DBCB9B"/>
<path d="M283.29 69.1047C285.745 71.9066 288.4 76.8324 288.4 76.8324C288.4 76.8324 289.938 76.0272 290.299 73.8843C290.463 72.9068 290.037 70.4653 289.005 68.6242C287.607 66.1297 285.842 64.4653 284.472 63.4902C283.771 62.9917 281.873 61.9599 279.882 61.637C278.637 61.4351 276.079 62.7474 276.079 62.7474C276.079 62.7474 280.928 66.4085 283.29 69.1047Z" fill="#F6E5B1"/>
<path d="M274.319 31.8926C275.456 33.7903 276.519 37.0379 276.519 37.0379C276.519 37.0379 277.664 36.3782 278.055 35.0463C278.234 34.4387 278.174 33.0552 277.754 31.8393C277.186 30.1918 276.165 29.1036 275.479 28.4156C275.128 28.0639 273.442 27.2351 272.773 27.0969C272.077 26.9531 270.816 27.4991 270.816 27.4991C270.816 27.4991 273.226 30.0664 274.319 31.8926Z" fill="#F6E5B1"/>
<path d="M244.083 35.5945C238.752 27.0783 248.917 10.4411 248.917 10.4411L252.3 7.1189C252.3 7.1189 248.763 17.0491 249.883 21.8313C251.023 26.6946 252.53 30.7743 256.65 33.6962C260.476 36.409 267.283 35.5945 272.6 35.5945C277.917 35.5945 281.783 38.4421 283.717 40.8151C286.218 43.8852 286.678 46.5102 286.133 49.3578C285.369 53.357 282.267 56.4767 282.267 56.4767C282.267 56.4767 279.803 47.7091 275.5 45.0864C271.17 42.4474 262.23 42.7134 257.133 42.7134C252.783 42.7134 248.195 42.162 244.083 35.5945Z" fill="#542120"/>
<path d="M239.734 73.0875C230.55 69.9669 221.944 60.748 221.944 60.748C221.944 60.748 219.527 61.6972 218.56 63.5956C217.594 65.494 221.367 72.1383 225.717 75.4605C230.067 78.7826 237.224 82.5794 253.267 85.9015C272.398 89.8631 299.667 93.0204 300.634 93.0204C301.6 93.0204 301.117 90.1729 301.117 87.7999C301.117 85.4269 300.634 82.5794 300.634 82.5794C300.634 82.5794 253.75 77.8505 239.734 73.0875Z" fill="#542120"/>
<path d="M454.749 7.62718C448.949 21.8653 463.728 19.9666 470.699 31.8314C472.646 35.1456 483.266 47.9678 473.599 59.3581C479.418 62.5659 482.416 65.509 485.682 71.223C491.596 81.5662 497.763 101.597 485.682 101.597H406.416C394.336 101.597 400.235 81.4143 406.416 71.223C410.041 65.2456 413.491 62.2206 419.949 59.3581C411.732 45.5949 419.466 37.0522 426.716 27.5603C436.902 14.2249 460.549 -6.61093 454.749 7.62718Z" fill="#E8D7A5"/>
<path d="M449.521 19.073C449.768 15.1116 454.904 5.77644 454.904 5.77644C454.904 5.77644 455.109 5.54689 455.069 6.09511C455.055 6.29636 455.007 6.60241 454.904 7.06311C454.807 7.49203 453.892 10.4493 453.75 10.9235C453.366 12.2102 453.299 14.746 454.135 16.4994C454.674 17.6311 454.749 17.5936 456.682 19.492C457.441 20.2368 458.429 21.0071 459.582 21.865C461.505 23.1517 463.932 24.7125 463.932 24.7125C463.932 24.7125 459.571 27.5601 457.649 27.5601C454.989 27.5601 453.186 27.826 451.366 25.6617C449.571 23.5286 449.34 21.9913 449.521 19.073Z" fill="#DBCB9B"/>
<path d="M428.213 52.7135C420.48 44.7204 420.916 35.1536 420.916 35.1536C420.916 35.1536 415.461 42.3396 416.566 49.3914C417.532 55.5611 418.499 57.9341 420.432 59.3579C422.366 60.7816 425.705 63.6292 436.382 63.6292C441.699 63.6292 444.174 63.2874 449.916 60.7816C451.845 59.9396 456.8 58.3945 461.032 57.9341C467.003 57.2847 472.632 58.8833 472.632 58.8833C472.632 58.8833 465.781 56.7008 462.482 56.5103C454.266 56.0357 433.824 58.5135 428.213 52.7135Z" fill="#DBCB9B"/>
<path d="M399.272 92.7624C398.682 82.1384 404.966 74.0703 404.966 74.0703C404.966 74.0703 407.183 89.4849 412.699 92.7624C416.551 95.0514 436.382 98.7492 436.382 98.7492L469.249 101.589H418.442C415.537 101.589 405.361 102.518 402.549 100.648C399.806 98.8227 399.473 96.3724 399.272 92.7624Z" fill="#DBCB9B"/>
<path d="M474.69 71.9521C477.145 74.754 479.8 79.6798 479.8 79.6798C479.8 79.6798 481.338 78.8747 481.699 76.7317C481.863 75.7542 481.437 73.3127 480.405 71.4716C479.007 68.9771 477.242 67.3127 475.872 66.3376C475.171 65.8391 473.273 64.8073 471.282 64.4844C470.037 64.2825 467.478 65.5948 467.478 65.5948C467.478 65.5948 472.328 69.2559 474.69 71.9521Z" fill="#F6E5B1"/>
<path d="M465.719 34.74C466.856 36.6377 467.919 39.8853 467.919 39.8853C467.919 39.8853 469.064 39.2257 469.455 37.8937C469.634 37.2862 469.573 35.9027 469.154 34.6867C468.585 33.0392 467.565 31.951 466.879 31.263C466.528 30.9113 464.842 30.0825 464.173 29.9443C463.477 29.8006 462.216 30.3465 462.216 30.3465C462.216 30.3465 464.626 32.9138 465.719 34.74Z" fill="#F6E5B1"/>
<path d="M435.483 38.4419C430.152 29.9258 440.317 13.2885 440.317 13.2885L443.7 9.96631C443.7 9.96631 440.163 19.8966 441.283 24.6787C442.423 29.5421 443.93 33.6217 448.05 36.5436C451.875 39.2564 458.683 38.4419 464 38.4419C469.317 38.4419 473.183 41.2895 475.117 43.6625C477.618 46.7326 478.078 49.3576 477.533 52.2052C476.769 56.2044 473.667 59.3241 473.667 59.3241C473.667 59.3241 471.203 50.5565 466.9 47.9338C462.57 45.2948 453.63 45.5609 448.533 45.5609C444.183 45.5609 439.594 45.0094 435.483 38.4419Z" fill="#542120"/>
<path d="M431.134 75.9349C421.95 72.8143 413.344 63.5955 413.344 63.5955C413.344 63.5955 410.927 64.5446 409.96 66.443C408.994 68.3414 412.767 74.9857 417.117 78.3079C421.467 81.63 428.624 85.4268 444.667 88.7489C463.798 92.7105 491.067 95.8678 492.034 95.8678C493 95.8678 492.517 93.0203 492.517 90.6473C492.517 88.2743 492.034 85.4268 492.034 85.4268C492.034 85.4268 445.15 80.6979 431.134 75.9349Z" fill="#542120"/>
<path d="M651.949 7.62718C646.149 21.8653 660.928 19.9666 667.899 31.8314C669.846 35.1456 680.466 47.9678 670.799 59.3581C676.618 62.5659 679.615 65.509 682.882 71.223C688.796 81.5662 694.962 101.597 682.882 101.597H603.615C591.535 101.597 597.434 81.4143 603.615 71.223C607.241 65.2456 610.691 62.2206 617.149 59.3581C608.932 45.5949 616.666 37.0522 623.916 27.5603C634.101 14.2249 657.749 -6.61093 651.949 7.62718Z" fill="#E8D7A5"/>
<path d="M646.721 19.073C646.967 15.1116 652.103 5.77644 652.103 5.77644C652.103 5.77644 652.309 5.54689 652.269 6.09511C652.254 6.29636 652.207 6.60241 652.103 7.06311C652.007 7.49203 651.092 10.4493 650.95 10.9235C650.566 12.2102 650.499 14.746 651.334 16.4994C651.874 17.6311 651.949 17.5936 653.882 19.492C654.641 20.2368 655.629 21.0071 656.782 21.865C658.704 23.1517 661.132 24.7125 661.132 24.7125C661.132 24.7125 656.771 27.5601 654.849 27.5601C652.188 27.5601 650.386 27.826 648.565 25.6617C646.771 23.5286 646.54 21.9913 646.721 19.073Z" fill="#DBCB9B"/>
<path d="M625.413 52.7135C617.679 44.7204 618.115 35.1536 618.115 35.1536C618.115 35.1536 612.661 42.3396 613.765 49.3914C614.732 55.5611 615.699 57.9341 617.632 59.3579C619.565 60.7816 622.905 63.6292 633.582 63.6292C638.899 63.6292 641.374 63.2874 647.115 60.7816C649.045 59.9396 653.999 58.3945 658.232 57.9341C664.202 57.2847 669.832 58.8833 669.832 58.8833C669.832 58.8833 662.981 56.7008 659.682 56.5103C651.465 56.0357 631.024 58.5135 625.413 52.7135Z" fill="#DBCB9B"/>
<path d="M596.472 92.7624C595.882 82.1384 602.166 74.0703 602.166 74.0703C602.166 74.0703 604.383 89.4849 609.899 92.7624C613.751 95.0514 633.582 98.7492 633.582 98.7492L666.449 101.589H615.641C612.737 101.589 602.561 102.518 599.749 100.648C597.005 98.8227 596.673 96.3724 596.472 92.7624Z" fill="#DBCB9B"/>
<path d="M671.89 71.9521C674.344 74.754 677 79.6798 677 79.6798C677 79.6798 678.538 78.8747 678.898 76.7317C679.063 75.7542 678.637 73.3127 677.605 71.4716C676.206 68.9771 674.442 67.3127 673.071 66.3376C672.371 65.8391 670.473 64.8073 668.481 64.4844C667.237 64.2825 664.678 65.5948 664.678 65.5948C664.678 65.5948 669.528 69.2559 671.89 71.9521Z" fill="#F6E5B1"/>
<path d="M662.919 34.74C664.055 36.6377 665.118 39.8853 665.118 39.8853C665.118 39.8853 666.263 39.2257 666.655 37.8937C666.834 37.2862 666.773 35.9027 666.354 34.6867C665.785 33.0392 664.765 31.951 664.079 31.263C663.728 30.9113 662.042 30.0825 661.373 29.9443C660.676 29.8006 659.415 30.3465 659.415 30.3465C659.415 30.3465 661.825 32.9138 662.919 34.74Z" fill="#F6E5B1"/>
<path d="M632.683 38.4419C627.352 29.9258 637.516 13.2885 637.516 13.2885L640.9 9.96631C640.9 9.96631 637.362 19.8966 638.483 24.6787C639.623 29.5421 641.13 33.6217 645.25 36.5436C649.075 39.2564 655.883 38.4419 661.2 38.4419C666.516 38.4419 670.383 41.2895 672.316 43.6625C674.818 46.7326 675.277 49.3576 674.733 52.2052C673.969 56.2044 670.866 59.3241 670.866 59.3241C670.866 59.3241 668.403 50.5565 664.1 47.9338C659.77 45.2948 650.829 45.5609 645.733 45.5609C641.383 45.5609 636.794 45.0094 632.683 38.4419Z" fill="#542120"/>
<path d="M628.333 75.9349C619.15 72.8143 610.543 63.5955 610.543 63.5955C610.543 63.5955 608.127 64.5446 607.16 66.443C606.193 68.3414 609.967 74.9857 614.317 78.3079C618.667 81.63 625.823 85.4268 641.867 88.7489C660.998 92.7105 688.267 95.8678 689.233 95.8678C690.2 95.8678 689.717 93.0203 689.717 90.6473C689.717 88.2743 689.233 85.4268 689.233 85.4268C689.233 85.4268 642.35 80.6979 628.333 75.9349Z" fill="#542120"/>
<path d="M6.76675 98.7156H693.583V153.199C693.583 153.199 660.422 162.186 624.057 130.17C587.693 98.1538 552.524 126.8 534.538 153.199C522.557 184.142 488.853 179.645 480.991 156.616C475.094 139.204 456.896 116.689 437.239 116.128C424.463 115.566 411.687 120.06 404.807 126.8C397.928 133.54 387.116 141.965 377.288 139.157C363.529 135.225 346.709 116.75 324.333 116.75C317.833 116.75 308.173 116.75 304.574 130.17C293.356 172 284 178.5 278 178.5C265.631 178.5 249 171 235.458 130.17C230.141 118.174 216.608 116.75 208.874 116.75C200.029 115.065 185.916 118.936 171.174 130.17C141.69 152.075 127.653 150.952 106.031 138.595C88.3403 128.485 84.5651 124.696 67.6667 121.496C58.4651 121.496 52.942 122.093 44.95 131.937C29.33 151.177 11.6485 162.938 8.70005 146.65C3.78597 127.552 6.76675 98.7156 6.76675 98.7156Z" fill="#E8D7A5"/>
<defs>
<linearGradient id="paint0_linear_0_1" x1="151.049" y1="6.96142" x2="152.673" y2="155.193" gradientUnits="userSpaceOnUse">
<stop stop-color="#9B2227"/>
<stop offset="1" stop-color="#EF9B7D"/>
</linearGradient>
<linearGradient id="paint1_linear_0_1" x1="547.836" y1="5.52487" x2="540.735" y2="153.601" gradientUnits="userSpaceOnUse">
<stop stop-color="#9B2227"/>
<stop offset="1" stop-color="#EF9B7D"/>
</linearGradient>
<linearGradient id="paint2_linear_0_1" x1="349.169" y1="6.56053" x2="346.848" y2="154.783" gradientUnits="userSpaceOnUse">
<stop stop-color="#9B2227"/>
<stop offset="1" stop-color="#EF9B7D"/>
</linearGradient>
</defs>
</svg>
