<svg width="375" height="203" viewBox="0 0 375 203" fill="none" xmlns="http://www.w3.org/2000/svg">
<path d="M-5 0C-5 0 129.806 10.4456 194.294 11.7785C212.398 12.1528 207.051 23.7808 188.025 23.7808C169 23.7808 146.79 29.9198 148.55 40.6986C149.918 49.0794 210.477 53.3663 209.997 60.3674C209.517 67.3685 181.924 65.1863 176.977 73.1331C173.676 78.4342 174.876 83.9995 174.876 83.9995H180.03C180.03 83.9995 180.03 77.7802 185.446 76.5809C190.863 75.3816 238.96 72.2901 238.96 59.145C238.96 46 214.5 49 203.5 44C192.5 39 240.5 22.9401 289.5 23.7808C338.5 24.6216 384.5 0 384.5 0H-5Z" fill="#151C44"/>
<path d="M203.488 107.864C208.454 117.055 206.486 131.479 196.434 131.479C186.159 135.473 174.058 136.878 166.371 128.336C160.305 121.597 170.837 114.541 176.246 104.971C180.573 97.3157 174.632 84.6324 173.761 75.8738L181.158 80.672C181.158 92.1724 199.4 100.296 203.488 107.864Z" fill="#151C44"/>
<path d="M179.262 69.2683L201.434 165.529C201.399 166.245 200.836 166.583 200.182 166.705C199.355 166.858 198.967 166.667 198.626 166.482L175.916 68L179.262 69.2683Z" fill="#664840"/>
<path d="M173.494 71.1467L261.563 195.873C261.828 196.634 262.284 198.327 261.985 199.013C261.685 199.698 260.447 200.065 259.866 200.162L168.812 70.9993L173.494 71.1467Z" fill="#8B574A"/>
<path d="M207.423 198.464C203.401 199.04 192.814 201.615 183.026 199.58C177.737 198.892 159.123 198.394 153.311 196.711C147.499 195.028 141.1 197.5 131.351 194.692C121.601 191.883 132.631 184.214 135.645 180.953C138.66 177.693 141.553 173.031 148.839 171.842C156.124 170.653 172.79 168.224 181.624 166.492C190.458 164.76 204.684 169.341 208.834 170.012C212.985 170.682 215.357 176.536 225.858 179.537C236.359 182.538 233.253 187.654 232.607 189.172C231.961 190.69 211.446 197.889 207.423 198.464Z" fill="#808080"/>
<path d="M202.362 193.928C199.1 194.411 190.514 196.563 182.58 194.88C178.293 194.314 163.202 193.919 158.492 192.526C153.781 191.132 148.591 193.195 140.689 190.87C132.788 188.545 141.738 182.157 144.185 179.443C146.633 176.729 148.984 172.85 154.892 171.854C160.8 170.858 174.314 168.822 181.478 167.372C188.642 165.923 200.171 169.717 203.535 170.271C206.9 170.824 208.817 175.688 217.328 178.172C225.838 180.657 223.314 184.914 222.789 186.177C222.264 187.44 205.624 193.445 202.362 193.928Z" fill="#3A3530"/>
<path d="M204.625 129.066C206.382 125.434 189.053 96.9955 180.169 83.23C173.384 97.2395 159.697 126.02 159.228 129.066C158.76 132.112 163.426 135.021 165.818 136.095H196.131C198.23 135.265 202.868 132.698 204.625 129.066Z" stroke="#363636" stroke-width="4" stroke-linejoin="round"/>
<path d="M112.582 183.803L186.377 75.4928C186.62 74.8175 187.057 73.3078 186.864 72.6713C186.672 72.0349 185.746 71.638 185.307 71.5191L109 183.69L112.582 183.803Z" fill="#78544B"/>
<path fill-rule="evenodd" clip-rule="evenodd" d="M197.452 129.798H164.063V149.077C164.063 149.094 164.062 149.111 164.062 149.129C164.062 152.202 171.537 154.693 180.757 154.693C189.977 154.693 197.451 152.202 197.451 149.129C197.451 149.129 197.451 149.128 197.451 149.128H197.452V129.798Z" fill="#A1ADB8"/>
<ellipse cx="180.757" cy="133.313" rx="17.573" ry="4.68612" fill="#2A3170"/>
<rect x="163.184" y="126.283" width="35.1459" height="7.02918" fill="#2A3170"/>
<ellipse cx="180.757" cy="126.576" rx="17.573" ry="4.68612" fill="#3B68A6"/>
<path fill-rule="evenodd" clip-rule="evenodd" d="M178.121 120.719C178.61 121.305 179.556 122.622 179.439 123.208C179.373 123.541 178.957 123.826 178.61 124.064C178.443 124.179 178.293 124.282 178.204 124.375C178.149 124.423 178.12 124.474 178.12 124.526C178.12 124.849 179.235 125.112 180.61 125.112C181.984 125.112 183.099 124.85 183.099 124.526H183.1C183.1 124.508 183.096 124.488 183.087 124.467C183.086 124.465 183.085 124.463 183.084 124.46C183.027 124.339 182.831 124.184 182.617 124.014C182.294 123.759 181.929 123.47 181.929 123.208C181.929 122.74 182.71 121.353 183.1 120.719H178.121Z" fill="#2A3170"/>
<ellipse cx="180.61" cy="120.719" rx="2.4895" ry="0.585765" fill="#3B68A6"/>
<rect x="178.12" y="120.426" width="4.97901" height="0.292883" fill="#3B68A6"/>
<ellipse cx="180.61" cy="120.426" rx="2.4895" ry="0.585765" fill="#6F8CC1"/>
<path d="M189.073 169.037C180.187 169.613 136.75 186.94 135.715 188.708C134.68 190.476 136.981 191.805 138.888 192.546C141.482 193.555 146.829 191.486 146.829 191.486C156.322 187.782 177.208 179.816 184.803 177.594C194.296 174.815 210.504 171.805 213.977 171.342C216.756 170.971 211.957 169.804 209.642 168.106C208.484 168.647 197.576 168.486 189.073 169.037Z" fill="#4A433C"/>
<path d="M188.041 166.827C187.411 167.247 174.646 186.175 168.343 195.586C166.242 197.162 163.09 196.374 163.09 194.929C163.09 193.485 181.344 168.009 182.131 166.827C182.919 165.645 188.829 166.301 188.041 166.827Z" fill="#655442"/>
<path d="M193.376 172.762C193.426 176.111 183.037 175.954 177.278 175.957C168.218 176.206 167.189 171.011 168.798 168.884C170.625 166.468 175.604 164.071 178.563 162.605C180.551 161.619 178.95 157.936 177.763 155.468C180.499 157.28 185.852 161.374 185.373 163.26C184.775 165.618 193.327 169.413 193.376 172.762Z" fill="#FBB63B"/>
<path d="M190.612 173.457C190.65 176.037 182.647 175.916 178.21 175.918C171.23 176.111 170.437 172.108 171.677 170.469C173.085 168.608 176.92 166.761 179.2 165.632C180.731 164.873 181.832 162.717 180.918 160.816C183.026 162.212 184.816 164.684 184.447 166.137C183.986 167.953 190.574 170.877 190.612 173.457Z" fill="#E4694A"/>
<path d="M181.08 175.619C182.085 175.091 190.351 174.342 194.359 174.034L180.486 177.865C180.266 177.337 180.076 176.148 181.08 175.619Z" fill="#4A433C"/>
<path d="M172.492 172.524C181.575 173.307 217.659 186.383 218.857 187.96C220.055 189.538 219.268 190.3 217.047 190.758C214.187 191.347 209.488 189.981 209.488 189.981C199.915 186.486 178.86 178.983 171.218 176.927C161.666 174.358 148.326 173.735 146.374 172.524C143.993 171.046 148.051 169.798 150.078 169.271C153.754 168.314 164.003 171.792 172.492 172.524Z" fill="#574F48"/>
<path d="M180.81 82.2951C180.138 82.4218 176.921 82.5486 176.345 81.7247C175.625 81.7247 176.236 82.9854 176.744 83.1303C178.008 83.4913 179.569 83.5659 180.14 83.4655C180.812 83.3474 183.498 82.8021 183.354 81.7247C183.21 80.6472 181.482 82.1683 180.81 82.2951Z" fill="#E4694A"/>
<path d="M178.332 83.3778C179.004 83.5046 182.22 83.6314 182.797 82.8074C183.517 82.8074 182.905 84.0682 182.398 84.2131C181.134 84.5741 179.573 84.6486 179.002 84.5483C178.33 84.4302 175.644 83.8849 175.788 82.8074C175.932 81.73 177.66 83.2511 178.332 83.3778Z" fill="#CA5335"/>
</svg>
