<svg width="1440" height="812" viewBox="0 0 1440 812" fill="none" xmlns="http://www.w3.org/2000/svg">
<path d="M-5 21.5C-5 21.5 339.556 73.6061 652.37 80.0639C965.184 86.5217 1240.74 104.296 1170.1 138.214C1099.47 172.133 970.08 167.956 978.618 220.176C985.255 260.779 1279.01 281.548 1276.68 315.466C1274.36 349.385 1140.51 338.813 1116.51 377.313C1100.5 402.995 1106.32 429.958 1106.32 429.958H1131.32C1131.32 429.958 1131.32 399.827 1157.59 394.016C1183.87 388.206 1418.16 364.624 1417.18 309.544C1416.4 265.939 1348.87 249.251 1318.6 237.943C1231.48 205.405 1473.6 196.357 1537.25 154.366C1649.53 80.2902 1554.33 23 1554.33 23L778 0L-5 21.5Z" fill="#151C44"/>
<path d="M1197.03 520.535C1212.33 548.693 1206.27 592.879 1175.31 592.879C1143.66 605.116 1106.4 609.419 1082.72 583.252C1064.04 562.607 1096.48 540.99 1113.13 511.675C1126.46 488.223 1108.16 449.368 1105.48 422.537L1128.26 437.236C1128.26 472.467 1184.44 497.354 1197.03 520.535Z" fill="#151C44"/>
<path d="M1122.2 401.903L1190.42 698.099C1190.32 700.305 1188.58 701.344 1186.57 701.718C1184.03 702.191 1182.83 701.601 1181.78 701.033L1111.9 398L1122.2 401.903Z" fill="#664840"/>
<path d="M1104.45 407.683L1375.44 791.469C1376.26 793.811 1377.66 799.023 1376.74 801.132C1375.82 803.241 1372.01 804.368 1370.22 804.668L1090.04 407.229L1104.45 407.683Z" fill="#8B574A"/>
<path d="M1208.85 799.443C1196.48 801.214 1163.9 809.138 1133.78 802.875C1117.51 800.759 1060.23 799.227 1042.35 794.048C1024.46 788.868 1004.78 796.477 974.776 787.835C944.775 779.192 978.715 755.595 987.99 745.561C997.265 735.528 1006.17 721.183 1028.59 717.525C1051.01 713.866 1102.29 706.393 1129.47 701.063C1156.65 695.733 1200.42 709.829 1213.2 711.893C1225.97 713.957 1233.27 731.968 1265.58 741.202C1297.89 750.436 1288.33 766.179 1286.34 770.851C1284.36 775.522 1221.23 797.672 1208.85 799.443Z" fill="#808080"/>
<path d="M1193.28 785.485C1183.24 786.971 1156.82 793.592 1132.41 788.416C1119.22 786.673 1072.78 785.458 1058.28 781.171C1043.79 776.883 1027.82 783.229 1003.51 776.074C979.193 768.92 1006.73 749.266 1014.26 740.914C1021.79 732.563 1029.03 720.627 1047.21 717.562C1065.39 714.498 1106.97 708.231 1129.01 703.772C1151.06 699.313 1186.53 710.987 1196.89 712.69C1207.24 714.394 1213.14 729.36 1239.33 737.004C1265.51 744.649 1257.75 757.748 1256.13 761.634C1254.52 765.52 1203.31 784 1193.28 785.485Z" fill="#3A3530"/>
<path d="M1200.71 585.864C1206.15 574.666 1152.51 486.98 1125.01 444.537C1104.01 487.733 1061.65 576.472 1060.2 585.864C1058.74 595.256 1073.19 604.226 1080.59 607.537H1174.42C1180.92 604.978 1195.27 597.062 1200.71 585.864Z" stroke="#363636" stroke-width="4" stroke-linejoin="round"/>
<path d="M917.022 754.328L1144.09 421.055C1144.84 418.977 1146.18 414.332 1145.59 412.374C1145 410.415 1142.15 409.194 1140.8 408.828L906 753.981L917.022 754.328Z" fill="#78544B"/>
<path fill-rule="evenodd" clip-rule="evenodd" d="M1178.17 588.155H1075.43V647.552C1075.43 647.58 1075.43 647.607 1075.43 647.635C1075.43 657.092 1098.43 664.758 1126.8 664.758C1155.17 664.758 1178.17 657.092 1178.17 647.635H1178.17V588.155Z" fill="#A1ADB8"/>
<ellipse cx="1126.8" cy="598.97" rx="54.0726" ry="14.4194" fill="#2A3170"/>
<rect x="1072.72" y="577.341" width="108.145" height="21.6291" fill="#2A3170"/>
<ellipse cx="1126.8" cy="578.242" rx="54.0726" ry="14.4194" fill="#3B68A6"/>
<path fill-rule="evenodd" clip-rule="evenodd" d="M1118.69 560.218C1120.19 562.02 1123.1 566.076 1122.74 567.878C1122.54 568.901 1121.26 569.78 1120.19 570.512C1119.66 570.876 1119.18 571.205 1118.91 571.497C1118.77 571.631 1118.69 571.77 1118.69 571.913C1118.69 571.92 1118.69 571.927 1118.69 571.934H1118.69C1118.69 572.929 1122.12 573.736 1126.35 573.736C1130.58 573.736 1134.01 572.929 1134.01 571.933C1134.01 571.833 1133.97 571.735 1133.9 571.639C1133.68 571.28 1133.13 570.839 1132.52 570.359C1131.53 569.573 1130.4 568.683 1130.4 567.878C1130.4 566.436 1132.8 562.17 1134.01 560.218H1118.69Z" fill="#2A3170"/>
<ellipse cx="1126.35" cy="560.218" rx="7.66029" ry="1.80242" fill="#3B68A6"/>
<rect x="1118.69" y="559.317" width="15.3206" height="0.901211" fill="#3B68A6"/>
<ellipse cx="1126.35" cy="559.317" rx="7.66029" ry="1.80242" fill="#6F8CC1"/>
<path d="M1152.61 708.437C1125.18 710.231 991.082 764.207 987.887 769.716C984.692 775.224 991.797 779.365 997.683 781.674C1005.69 784.815 1022.2 778.372 1022.2 778.372C1051.51 766.83 1115.98 742.017 1139.43 735.092C1168.74 726.436 1218.77 717.059 1229.5 715.616C1238.07 714.462 1223.26 710.827 1216.11 705.537C1212.54 707.22 1178.86 706.72 1152.61 708.437Z" fill="#4A433C"/>
<path d="M1148.87 702.571C1146.93 703.861 1107.65 761.979 1088.26 790.877C1081.79 795.715 1072.09 793.296 1072.09 788.86C1072.09 784.425 1128.26 706.2 1130.69 702.571C1133.11 698.942 1151.3 700.958 1148.87 702.571Z" fill="#655442"/>
<path d="M1165.63 720.356C1165.78 730.661 1133.81 730.178 1116.09 730.187C1088.22 730.955 1085.05 714.968 1090 708.424C1095.62 700.989 1110.94 693.613 1120.05 689.102C1126.17 686.071 1121.24 674.736 1117.59 667.143C1126.01 672.717 1142.48 685.316 1141 691.119C1139.16 698.373 1165.48 710.052 1165.63 720.356Z" fill="#FBB63B"/>
<path d="M1157.12 722.495C1157.24 730.433 1132.61 730.061 1118.96 730.069C1097.48 730.66 1095.04 718.344 1098.86 713.302C1103.19 707.574 1114.99 701.892 1122.01 698.416C1126.72 696.081 1130.11 689.448 1127.29 683.599C1133.78 687.893 1139.29 695.499 1138.15 699.97C1136.73 705.559 1157.01 714.556 1157.12 722.495Z" fill="#E4694A"/>
<path d="M1101.37 719.624C1129.32 722.035 1240.35 762.268 1244.04 767.123C1247.72 771.978 1245.3 774.323 1238.47 775.731C1229.67 777.542 1215.21 773.341 1215.21 773.341C1185.75 762.587 1120.96 739.498 1097.45 733.174C1068.06 725.269 1027.01 723.351 1021 719.624C1013.68 715.076 1026.16 711.237 1032.4 709.614C1043.71 706.671 1075.25 717.371 1101.37 719.624Z" fill="#574F48"/>
<path d="M1127.11 442.181C1125 442.532 1114.93 442.883 1113.13 440.6C1110.87 440.6 1112.79 444.094 1114.37 444.495C1118.33 445.495 1123.22 445.702 1125.01 445.424C1127.11 445.097 1135.53 443.586 1135.08 440.6C1134.63 437.615 1129.21 441.829 1127.11 442.181Z" fill="#E4694A"/>
<path d="M1119.08 445.621C1121.18 446.031 1131.26 446.441 1133.06 443.777C1135.32 443.777 1133.4 447.853 1131.81 448.321C1127.85 449.489 1122.97 449.729 1121.18 449.405C1119.07 449.023 1110.66 447.26 1111.11 443.777C1111.56 440.294 1116.97 445.211 1119.08 445.621Z" fill="#CA5335"/>
</svg>
