<svg width="1000" height="483" viewBox="0 0 1000 483" fill="none" xmlns="http://www.w3.org/2000/svg">
<path d="M-2.88281 0.352295C-2.88281 0.352295 436.119 34.8154 601.137 39.2132C766.156 43.6109 911.519 55.7151 874.257 78.8138C836.995 101.912 768.738 99.068 773.242 134.63C776.743 162.281 931.709 176.425 930.48 199.524C929.252 222.622 858.645 215.423 845.984 241.641C837.539 259.131 840.609 277.493 840.609 277.493H853.797C853.797 277.493 853.797 256.973 867.657 253.017C881.517 249.06 1005.11 233 1004.6 195.491C1004.19 165.795 968.561 154.431 952.592 146.73C906.632 124.571 1034.36 118.409 1067.94 89.8134C1127.16 39.3673 1076.95 0.352295 1076.95 0.352295H-2.88281Z" fill="#151C44"/>
<path d="M888.066 316.323C896.807 332.503 893.343 357.892 875.649 357.892C857.562 364.924 836.26 367.397 822.728 352.361C812.051 340.498 830.591 328.076 840.112 311.231C847.729 297.755 837.271 275.428 835.737 260.011L848.758 268.457C848.758 288.701 880.869 303.002 888.066 316.323Z" fill="#151C44"/>
<path d="M845.421 248.383L884.45 417.831C884.388 419.092 883.396 419.687 882.245 419.901C880.791 420.171 880.108 419.834 879.507 419.509L839.53 246.151L845.421 248.383Z" fill="#664840"/>
<path d="M835.265 251.69L990.294 471.245C990.761 472.585 991.563 475.566 991.036 476.773C990.509 477.979 988.33 478.624 987.306 478.796L827.023 251.43L835.265 251.69Z" fill="#8B574A"/>
<path d="M894.993 475.807C887.913 476.82 869.276 481.354 852.046 477.77C842.736 476.56 809.969 475.684 799.738 472.721C789.508 469.758 778.244 474.11 761.082 469.166C743.919 464.222 763.336 450.723 768.642 444.983C773.948 439.243 779.042 431.036 791.866 428.944C804.691 426.851 834.028 422.575 849.578 419.526C865.128 416.477 890.17 424.541 897.477 425.722C904.783 426.903 908.959 437.206 927.443 442.489C945.928 447.771 940.46 456.778 939.323 459.45C938.187 462.123 902.073 474.794 894.993 475.807Z" fill="#808080"/>
<path d="M886.083 467.822C880.342 468.672 865.227 472.46 851.262 469.498C843.715 468.502 817.15 467.807 808.858 465.354C800.567 462.901 791.431 466.531 777.521 462.438C763.611 458.345 779.367 447.102 783.675 442.324C787.983 437.546 792.121 430.718 802.521 428.965C812.921 427.212 836.71 423.627 849.321 421.076C861.931 418.525 882.226 425.203 888.149 426.178C894.071 427.152 897.446 435.714 912.427 440.087C927.408 444.46 922.966 451.954 922.041 454.177C921.117 456.4 891.825 466.972 886.083 467.822Z" fill="#3A3530"/>
<path d="M890.068 353.645C893.161 347.252 862.657 297.191 847.018 272.96C835.074 297.621 810.98 348.283 810.155 353.645C809.331 359.007 817.545 364.128 821.756 366.019H875.116C878.811 364.558 886.974 360.038 890.068 353.645Z" stroke="#363636" stroke-width="4" stroke-linejoin="round"/>
<path d="M728.044 449.998L857.945 259.34C858.372 258.151 859.142 255.494 858.803 254.374C858.464 253.253 856.834 252.555 856.062 252.345L721.738 449.799L728.044 449.998Z" fill="#78544B"/>
<path fill-rule="evenodd" clip-rule="evenodd" d="M877.441 354.934H818.667V388.861C818.666 388.894 818.665 388.928 818.665 388.961C818.665 394.371 831.822 398.757 848.052 398.757C864.282 398.757 877.439 394.371 877.439 388.961C877.439 388.961 877.439 388.961 877.439 388.961H877.441V354.934Z" fill="#A1ADB8"/>
<ellipse cx="848.052" cy="361.121" rx="30.9337" ry="8.24899" fill="#2A3170"/>
<rect x="817.118" y="348.747" width="61.8674" height="12.3735" fill="#2A3170"/>
<ellipse cx="848.052" cy="349.263" rx="30.9337" ry="8.24899" fill="#3B68A6"/>
<path fill-rule="evenodd" clip-rule="evenodd" d="M843.411 338.951C844.271 339.983 845.938 342.303 845.731 343.334C845.614 343.919 844.882 344.421 844.271 344.841C843.974 345.045 843.705 345.229 843.55 345.394C843.459 345.477 843.41 345.564 843.41 345.653C843.41 346.223 845.372 346.684 847.792 346.684C850.212 346.684 852.174 346.223 852.175 345.654H852.176C852.176 345.636 852.173 345.617 852.169 345.598C852.161 345.566 852.147 345.533 852.128 345.502C852.008 345.293 851.681 345.035 851.325 344.753C850.757 344.303 850.114 343.794 850.114 343.334C850.114 342.509 851.488 340.068 852.176 338.951H843.411Z" fill="#2A3170"/>
<ellipse cx="847.793" cy="338.952" rx="4.38228" ry="1.03112" fill="#3B68A6"/>
<rect x="843.411" y="338.436" width="8.76455" height="0.515562" fill="#3B68A6"/>
<ellipse cx="847.793" cy="338.436" rx="4.38228" ry="1.03112" fill="#6F8CC1"/>
<path d="M862.691 424.006C847.049 425.02 770.587 455.52 768.765 458.633C766.943 461.745 770.994 464.085 774.35 465.39C778.917 467.165 788.329 463.524 788.329 463.524C805.04 457.002 841.805 442.981 855.174 439.068C871.885 434.177 900.416 428.878 906.53 428.063C911.421 427.411 902.975 425.357 898.899 422.368C896.861 423.319 877.659 423.036 862.691 424.006Z" fill="#4A433C"/>
<path d="M860.875 420.115C859.765 420.855 837.296 454.174 826.2 470.74C822.501 473.514 816.953 472.127 816.953 469.585C816.953 467.042 849.085 422.196 850.472 420.115C851.859 418.035 862.262 419.191 860.875 420.115Z" fill="#655442"/>
<path d="M870.266 430.563C870.353 436.458 852.066 436.182 841.928 436.187C825.98 436.626 824.168 427.481 827 423.737C830.218 419.484 838.981 415.264 844.19 412.684C847.69 410.949 844.872 404.465 842.782 400.121C847.599 403.31 857.021 410.517 856.179 413.837C855.125 417.987 870.179 424.668 870.266 430.563Z" fill="#FBB63B"/>
<path d="M865.401 431.786C865.468 436.328 851.379 436.115 843.569 436.119C831.283 436.458 829.887 429.412 832.069 426.527C834.547 423.251 841.299 420 845.311 418.012C848.008 416.676 849.945 412.881 848.336 409.535C852.046 411.991 855.197 416.343 854.548 418.901C853.736 422.098 865.334 427.245 865.401 431.786Z" fill="#E4694A"/>
<path d="M848.623 435.593C850.39 434.663 864.943 433.345 871.998 432.802L847.576 439.547C847.188 438.617 846.855 436.524 848.623 435.593Z" fill="#4A433C"/>
<path d="M833.504 430.144C849.492 431.523 913.01 454.54 915.12 457.317C917.229 460.095 915.844 461.436 911.933 462.242C906.899 463.278 898.628 460.874 898.628 460.874C881.777 454.722 844.712 441.513 831.261 437.896C814.446 433.374 790.964 432.276 787.529 430.144C783.336 427.543 790.48 425.346 794.048 424.418C800.519 422.734 818.56 428.855 833.504 430.144Z" fill="#574F48"/>
<path d="M848.145 271.314C846.962 271.537 841.3 271.761 840.286 270.31C839.018 270.31 840.095 272.53 840.988 272.785C843.213 273.42 845.96 273.551 846.965 273.375C848.149 273.167 852.877 272.207 852.624 270.31C852.37 268.414 849.328 271.091 848.145 271.314Z" fill="#E4694A"/>
<path d="M843.784 273.22C844.967 273.443 850.629 273.667 851.643 272.216C852.91 272.216 851.834 274.436 850.94 274.691C848.715 275.326 845.968 275.457 844.963 275.281C843.78 275.073 839.052 274.113 839.305 272.216C839.559 270.32 842.601 272.997 843.784 273.22Z" fill="#CA5335"/>
</svg>
