<svg width="225" height="78" viewBox="0 0 225 78" fill="none" xmlns="http://www.w3.org/2000/svg">
<path d="M66.9006 48.5722C63.5298 45.7244 66.6379 41.8791 71.6967 48.0321C75.6944 52.8946 80.2226 66.399 90.8799 68.0196C96.1048 68.8141 109.53 63.6981 118.056 63.6981C133.16 63.6981 148.55 67.4492 166.547 68.6354C178.515 69.4243 177.19 69.3375 189.46 69.6403C198.467 69.8625 200.651 67.8105 210.718 67.8105C218.217 67.8105 224.492 69.579 224.492 71.9351C224.492 77.743 187.861 77.743 174.54 77.743C161.218 77.743 132.443 72.3411 120.188 72.8813C104.075 73.5914 100.035 79.7931 85.5513 76.1224C77.0255 73.9616 75.4262 65.318 73.8278 58.8364C73.0417 55.6487 69.1051 50.4346 66.9006 48.5722Z" fill="#F6F4D2"/>
<path d="M6.87135 35.9781C7.93076 37.8454 19.7926 33.9726 19.7926 33.9726L25.3521 20.1894C25.3521 20.1894 20.0555 10.8527 18.2389 11.8989C16.4222 12.9452 17.068 16.8611 15.7368 18.49C14.4055 20.119 8.95418 19.4424 7.95836 21.4452C6.96254 23.448 9.97197 26.9555 9.83193 29.323C9.69189 31.6905 5.81194 34.1109 6.87135 35.9781Z" fill="#78AC42" stroke="#78AC42"/>
<path d="M18.7678 31.5136C19.1207 26.7547 20.5038 23.656 24.0905 20.6349C28.3325 17.0617 34.3323 15.8517 38.4767 19.6865C49.3408 29.7392 61.7392 39.6488 66.529 44.7893C66.9694 45.2619 66.4239 46.5649 66.4239 46.5649C66.4239 46.5649 65.7717 47.7028 64.8809 47.93C58.1076 48.0214 41.4083 48.2064 27.1089 43.7659C21.2829 41.9567 18.3122 37.6581 18.7678 31.5136Z" fill="#C9D070"/>
<path d="M20.8013 39.8156C18.667 37.1065 18.667 32.772 18.667 32.772C18.667 32.772 22.6879 37.4054 25.0701 38.732C28.8367 40.8294 31.1147 41.7434 35.2081 43.0665C44.0009 45.9086 59.7526 44.6919 59.7526 44.6919L59.7526 46.3174C59.7527 46.9521 59.2191 47.9428 59.2191 47.9428C59.2191 47.9428 43.7716 48.2349 34.6746 45.7755C29.9608 44.5012 24.1345 44.0465 20.8013 39.8156Z" fill="#BCC266"/>
<path d="M59.7526 43.6083C60.333 42.3488 61.8869 40.3574 61.8869 40.3574L67.2227 44.6919L66.1555 47.9428L59.219 47.9428C59.219 47.9428 59.1449 44.9268 59.7526 43.6083Z" fill="#78AC42"/>
</svg>
