<?xml version="1.0" encoding="utf-8"?>
<svg viewBox="0 0 500 500" xmlns="http://www.w3.org/2000/svg">
  <title>Twitter_Logo_Blue</title>
  <rect class="cls-1" width="795.088" height="795.088" style="fill: none;" x="-145.281" y="-145.281"/>
  <path class="cls-2" d="M 160.072 454.195 C 347.593 454.195 450.161 298.835 450.161 164.109 C 450.161 159.696 450.161 155.302 449.862 150.929 C 469.817 136.497 487.042 118.627 500.728 98.155 C 482.122 106.401 462.383 111.807 442.17 114.196 C 463.454 101.457 479.383 81.413 486.991 57.807 C 466.98 69.68 445.087 78.05 422.255 82.551 C 368.436 25.327 272.849 47.82 250.198 123.04 C 245.063 140.091 244.481 158.191 248.506 175.538 C 166.53 171.428 90.152 132.707 38.385 69.017 C 11.326 115.6 25.146 175.195 69.949 205.115 C 53.727 204.635 37.853 200.256 23.676 192.353 C 23.676 192.773 23.676 193.21 23.676 193.647 C 23.689 242.178 57.899 283.978 105.47 293.589 C 90.459 297.68 74.713 298.279 59.434 295.338 C 72.79 336.87 111.068 365.321 154.686 366.142 C 118.587 394.513 73.987 409.915 28.067 409.871 C 19.957 409.854 11.851 409.362 3.799 408.4 C 50.424 438.317 104.674 454.191 160.072 454.116" style="fill: rgb(29, 161, 242);"/>
</svg>