<?xml version="1.0" encoding="UTF-8"?>
<svg xmlns="http://www.w3.org/2000/svg" xmlns:xlink="http://www.w3.org/1999/xlink" width="196px" height="68px" viewBox="0 0 196 68" version="1.1">
<g id="surface1">
<path style=" stroke:none;fill-rule:nonzero;fill:rgb(5.882353%,5.490196%,5.882353%);fill-opacity:1;" d="M 60.324219 46.613281 L 50.027344 46.613281 C 49.761719 46.613281 49.542969 46.828125 49.542969 47.09375 L 49.542969 52.128906 C 49.542969 52.398438 49.761719 52.613281 50.027344 52.613281 L 54.042969 52.613281 L 54.042969 58.867188 C 54.042969 58.867188 53.140625 59.175781 50.648438 59.175781 C 47.703125 59.175781 43.59375 58.101562 43.59375 49.0625 C 43.59375 40.019531 47.875 38.832031 51.894531 38.832031 C 55.371094 38.832031 56.871094 39.445312 57.824219 39.738281 C 58.121094 39.832031 58.398438 39.53125 58.398438 39.265625 L 59.550781 34.402344 C 59.550781 34.277344 59.507812 34.128906 59.367188 34.027344 C 58.976562 33.75 56.617188 32.425781 50.648438 32.425781 C 43.773438 32.425781 36.71875 35.351562 36.71875 49.414062 C 36.71875 63.476562 44.792969 65.574219 51.597656 65.574219 C 57.230469 65.574219 60.648438 63.164062 60.648438 63.164062 C 60.789062 63.085938 60.804688 62.890625 60.804688 62.800781 L 60.804688 47.09375 C 60.804688 46.828125 60.589844 46.613281 60.324219 46.613281 "/>
<path style=" stroke:none;fill-rule:nonzero;fill:rgb(5.882353%,5.490196%,5.882353%);fill-opacity:1;" d="M 113.402344 34.113281 C 113.402344 33.84375 113.191406 33.628906 112.925781 33.628906 L 107.125 33.628906 C 106.859375 33.628906 106.644531 33.84375 106.644531 34.113281 C 106.644531 34.113281 106.648438 45.320312 106.648438 45.320312 L 97.609375 45.320312 L 97.609375 34.113281 C 97.609375 33.84375 97.394531 33.628906 97.128906 33.628906 L 91.328125 33.628906 C 91.066406 33.628906 90.851562 33.84375 90.851562 34.113281 L 90.851562 64.457031 C 90.851562 64.726562 91.066406 64.941406 91.328125 64.941406 L 97.128906 64.941406 C 97.394531 64.941406 97.609375 64.726562 97.609375 64.457031 L 97.609375 51.476562 L 106.648438 51.476562 C 106.648438 51.476562 106.632812 64.457031 106.632812 64.457031 C 106.632812 64.726562 106.847656 64.941406 107.113281 64.941406 L 112.925781 64.941406 C 113.191406 64.941406 113.402344 64.726562 113.402344 64.457031 Z M 113.402344 34.113281 "/>
<path style=" stroke:none;fill-rule:nonzero;fill:rgb(5.882353%,5.490196%,5.882353%);fill-opacity:1;" d="M 71.269531 38.09375 C 71.269531 36.007812 69.59375 34.320312 67.527344 34.320312 C 65.464844 34.320312 63.789062 36.007812 63.789062 38.09375 C 63.789062 40.179688 65.464844 41.871094 67.527344 41.871094 C 69.59375 41.871094 71.269531 40.179688 71.269531 38.09375 "/>
<path style=" stroke:none;fill-rule:nonzero;fill:rgb(5.882353%,5.490196%,5.882353%);fill-opacity:1;" d="M 70.851562 58.054688 L 70.851562 44.050781 C 70.851562 43.78125 70.640625 43.566406 70.375 43.566406 L 64.59375 43.566406 C 64.328125 43.566406 64.089844 43.839844 64.089844 44.105469 L 64.089844 64.171875 C 64.089844 64.761719 64.457031 64.9375 64.933594 64.9375 L 70.140625 64.9375 C 70.714844 64.9375 70.851562 64.65625 70.851562 64.164062 Z M 70.851562 58.054688 "/>
<path style=" stroke:none;fill-rule:nonzero;fill:rgb(5.882353%,5.490196%,5.882353%);fill-opacity:1;" d="M 135.441406 43.609375 L 129.6875 43.609375 C 129.421875 43.609375 129.207031 43.828125 129.207031 44.097656 L 129.207031 58.976562 C 129.207031 58.976562 127.746094 60.046875 125.671875 60.046875 C 123.597656 60.046875 123.046875 59.105469 123.046875 57.070312 L 123.046875 44.097656 C 123.046875 43.828125 122.832031 43.609375 122.566406 43.609375 L 116.726562 43.609375 C 116.464844 43.609375 116.246094 43.828125 116.246094 44.097656 L 116.246094 58.054688 C 116.246094 64.089844 119.609375 65.566406 124.238281 65.566406 C 128.035156 65.566406 131.09375 63.46875 131.09375 63.46875 C 131.09375 63.46875 131.238281 64.574219 131.304688 64.703125 C 131.371094 64.835938 131.542969 64.96875 131.730469 64.96875 L 135.445312 64.949219 C 135.707031 64.949219 135.921875 64.734375 135.921875 64.464844 L 135.921875 44.097656 C 135.921875 43.828125 135.707031 43.609375 135.441406 43.609375 "/>
<path style=" stroke:none;fill-rule:nonzero;fill:rgb(5.882353%,5.490196%,5.882353%);fill-opacity:1;" d="M 148.898438 60.027344 C 146.902344 59.964844 145.550781 59.058594 145.550781 59.058594 L 145.550781 49.449219 C 145.550781 49.449219 146.886719 48.632812 148.523438 48.484375 C 150.597656 48.300781 152.59375 48.925781 152.59375 53.871094 C 152.59375 59.082031 151.691406 60.109375 148.898438 60.027344 M 151.167969 42.929688 C 147.902344 42.929688 145.679688 44.386719 145.679688 44.386719 L 145.679688 34.113281 C 145.679688 33.84375 145.464844 33.628906 145.199219 33.628906 L 139.382812 33.628906 C 139.121094 33.628906 138.90625 33.84375 138.90625 34.113281 L 138.90625 64.457031 C 138.90625 64.726562 139.121094 64.941406 139.386719 64.941406 L 143.421875 64.941406 C 143.601562 64.941406 143.738281 64.847656 143.839844 64.683594 C 143.941406 64.523438 144.085938 63.285156 144.085938 63.285156 C 144.085938 63.285156 146.464844 65.539062 150.964844 65.539062 C 156.25 65.539062 159.28125 62.859375 159.28125 53.503906 C 159.28125 44.152344 154.441406 42.929688 151.167969 42.929688 "/>
<path style=" stroke:none;fill-rule:nonzero;fill:rgb(5.882353%,5.490196%,5.882353%);fill-opacity:1;" d="M 87.519531 43.5625 L 83.167969 43.5625 C 83.167969 43.5625 83.164062 37.816406 83.164062 37.816406 C 83.164062 37.597656 83.050781 37.488281 82.800781 37.488281 L 76.871094 37.488281 C 76.640625 37.488281 76.519531 37.589844 76.519531 37.8125 L 76.519531 43.75 C 76.519531 43.75 73.546875 44.46875 73.347656 44.527344 C 73.144531 44.585938 73 44.769531 73 44.988281 L 73 48.722656 C 73 48.988281 73.214844 49.207031 73.476562 49.207031 L 76.519531 49.207031 L 76.519531 58.183594 C 76.519531 64.851562 81.195312 65.507812 84.351562 65.507812 C 85.792969 65.507812 87.519531 65.042969 87.804688 64.9375 C 87.976562 64.875 88.078125 64.695312 88.078125 64.503906 L 88.082031 60.398438 C 88.082031 60.128906 87.855469 59.914062 87.601562 59.914062 C 87.347656 59.914062 86.699219 60.015625 86.03125 60.015625 C 83.894531 60.015625 83.167969 59.023438 83.167969 57.738281 C 83.167969 56.453125 83.167969 49.207031 83.167969 49.207031 L 87.519531 49.207031 C 87.785156 49.207031 88 48.988281 88 48.722656 L 88 44.046875 C 88 43.777344 87.785156 43.5625 87.519531 43.5625 "/>
</g>
</svg>
