<svg width="140" height="47" viewBox="0 0 140 47" fill="none" xmlns="http://www.w3.org/2000/svg">
<path d="M41.9624 1.50293H46.1117V8.13055H52.5358V1.50293H56.6908V17.7578H52.5358V11.5155H46.1117V17.7578H41.9624V1.50293Z" fill="#111130"/>
<path d="M71.4718 17.7578L70.3808 14.8827H63.504L62.3898 17.7578H58.1245L64.9548 1.50293H69.2202L75.917 17.7578H71.4718ZM64.7517 11.6341H69.1563L66.9743 5.83637L64.7517 11.6341Z" fill="#111130"/>
<path d="M86.566 5.4273C85.9214 5.05255 85.1952 4.84874 84.4536 4.83449C83.6845 4.81959 82.9266 5.02494 82.2658 5.4273C81.6073 5.83892 81.0699 6.42473 80.7106 7.12274C80.3369 7.86548 80.142 8.68853 80.142 9.52362C80.142 10.3587 80.3369 11.1818 80.7106 11.9245C81.0686 12.6219 81.6064 13.2061 82.2658 13.614C82.9266 14.0164 83.6845 14.2217 84.4536 14.2068C85.1628 14.1913 85.8601 14.0173 86.4964 13.697C87.2094 13.3533 87.8561 12.8814 88.4056 12.3039L90.8313 15.0071C89.9574 15.9439 88.9126 16.6971 87.7556 17.2242C86.5296 17.8068 85.1862 18.0852 83.8348 18.0368C82.4835 17.9884 81.1625 17.6145 79.9794 16.9456C78.7305 16.2271 77.6956 15.1761 76.985 13.9045C76.2512 12.5932 75.8745 11.1051 75.894 9.59475C75.8721 8.11084 76.249 6.6492 76.9836 5.36883C77.7182 4.08847 78.7825 3.03839 80.0606 2.33283C81.3955 1.59934 82.8916 1.22595 84.4072 1.24799C85.6059 1.2545 86.7907 1.51068 87.8891 2.00086C88.9849 2.47205 89.9729 3.1705 90.7907 4.05198L88.3882 7.01603C87.8917 6.36649 87.2719 5.82611 86.566 5.4273Z" fill="#111130"/>
<path d="M107.898 17.7578H102.93L98.7519 11.4503L96.7556 13.7207V17.7578H92.6006V1.50293H96.7556V8.55144L102.727 1.50293H107.538L101.636 8.20168L107.898 17.7578Z" fill="#111130"/>
<path d="M41.8984 30.1296H46.0535V46.3845H41.8984V30.1296Z" fill="#111130"/>
<path d="M49.1411 30.1296H53.2846V42.7684H60.0278V46.3845H49.1411V30.1296Z" fill="#111130"/>
<path d="M63.1904 30.1296H67.3455V42.7684H74.0887V46.3845H63.1904V30.1296Z" fill="#111130"/>
<path d="M76.4043 30.1296H80.5594V46.3845H76.4043V30.1296Z" fill="#111130"/>
<path d="M94.9455 30.1296H98.8046V46.3845H95.1718L87.9585 36.6743V46.3845H84.0762V30.1296H87.7322L94.9687 39.9051L94.9455 30.1296Z" fill="#111130"/>
<path d="M114.322 30.9657C115.593 31.6531 116.659 32.6769 117.409 33.9297C118.163 35.219 118.55 36.6967 118.529 38.198C118.553 39.6982 118.173 41.1762 117.431 42.4712C116.689 43.7662 115.614 44.8286 114.322 45.5429C112.977 46.2969 111.463 46.6809 109.929 46.6574C108.397 46.6792 106.884 46.2996 105.536 45.5547C104.254 44.8522 103.185 43.802 102.449 42.5196C101.696 41.2108 101.308 39.716 101.329 38.198C101.31 36.7165 101.691 35.2582 102.429 33.9827C103.166 32.7071 104.233 31.6634 105.513 30.9657C106.871 30.2488 108.377 29.8748 109.906 29.8748C111.435 29.8748 112.941 30.2488 114.299 30.9657H114.322ZM107.782 34.0957C107.108 34.5159 106.556 35.1138 106.186 35.8267C105.794 36.5693 105.594 37.4018 105.606 38.2454C105.586 39.0993 105.786 39.9436 106.186 40.6937C106.561 41.4045 107.111 42.0031 107.782 42.4306C108.434 42.8534 109.192 43.0756 109.964 43.0709C110.731 43.0762 111.483 42.8538 112.129 42.4306C112.791 42.0063 113.329 41.4059 113.684 40.6937C114.058 39.9393 114.252 39.1057 114.252 38.2602C114.252 37.4147 114.058 36.5811 113.684 35.8267C113.329 35.1162 112.791 34.5178 112.129 34.0957C111.476 33.6947 110.726 33.4893 109.964 33.5029C109.197 33.4916 108.442 33.6967 107.782 34.0957Z" fill="#111130"/>
<path d="M120.393 30.1296H124.548V46.3845H120.393V30.1296Z" fill="#111130"/>
<path d="M135.69 33.7694C134.914 33.4826 134.1 33.3187 133.276 33.2833C132.853 33.2614 132.432 33.3621 132.063 33.5738C131.921 33.6615 131.805 33.7864 131.726 33.9354C131.648 34.0845 131.61 34.2523 131.616 34.4215C131.615 34.5904 131.649 34.7576 131.716 34.912C131.783 35.0664 131.881 35.2044 132.005 35.3167C132.281 35.5753 132.605 35.7766 132.956 35.9095C133.334 36.0577 133.897 36.2474 134.639 36.5023C135.571 36.7664 136.484 37.0932 137.373 37.4804C138.103 37.8104 138.74 38.3244 139.224 38.9743C139.766 39.7367 140.038 40.665 139.996 41.6064C140.021 42.5986 139.725 43.5717 139.154 44.3748C138.558 45.1664 137.753 45.7671 136.833 46.1058C135.793 46.5082 134.689 46.7092 133.577 46.6986C132.234 46.6958 130.901 46.4572 129.637 45.9932C128.4 45.5648 127.25 44.91 126.242 44.0606L127.855 40.7409C128.7 41.4938 129.664 42.0951 130.705 42.5193C131.618 42.9438 132.604 43.1814 133.606 43.2188C134.118 43.2451 134.627 43.124 135.075 42.8691C135.245 42.7633 135.384 42.613 135.478 42.4337C135.572 42.2544 135.617 42.0526 135.608 41.8494C135.613 41.6737 135.58 41.499 135.511 41.338C135.442 41.177 135.338 41.0338 135.208 40.9187C134.918 40.6548 134.578 40.4532 134.21 40.3259C133.81 40.1777 133.247 40.0058 132.521 39.8042C131.599 39.5552 130.696 39.2402 129.817 38.8617C129.103 38.5417 128.476 38.0494 127.989 37.4271C127.452 36.6871 127.184 35.7799 127.229 34.8602C127.21 33.9083 127.491 32.9754 128.03 32.1985C128.588 31.3981 129.363 30.7804 130.258 30.4201C131.323 29.9982 132.459 29.7966 133.601 29.8272C134.753 29.8272 135.9 29.9949 137.007 30.3252C138.05 30.6216 139.045 31.0708 139.961 31.659L138.394 35.044C137.539 34.5223 136.633 34.0951 135.69 33.7694Z" fill="#111130"/>
<path d="M8.68153 19.0738H21.6458V10.6974H30.2112V0.578125H5.75093L0 10.6974H8.68153V19.0738Z" fill="#111130"/>
<path d="M21.6458 27.9128H8.68153V36.2892H0V46.4085H24.6866L30.2112 36.2892H21.6458V27.9128Z" fill="#111130"/>
</svg>
