<?xml version="1.0" encoding="UTF-8"?>
<svg xmlns="http://www.w3.org/2000/svg" xmlns:xlink="http://www.w3.org/1999/xlink" width="201px" height="45px" viewBox="0 0 200 45" version="1.1">
<g id="surface1">
<path style=" stroke:none;fill-rule:nonzero;fill:rgb(8.627451%,25.098039%,49.803922%);fill-opacity:1;" d="M 51.777344 36.988281 L 51.777344 0.0195312 L 57.988281 0.0195312 L 57.988281 36.988281 L 51.777344 36.988281 "/>
<path style=" stroke:none;fill-rule:nonzero;fill:rgb(8.627451%,25.098039%,49.803922%);fill-opacity:1;" d="M 32.945312 18.636719 L 32.945312 13.820312 C 32.945312 9.464844 29.679688 7.1875 25.644531 7.1875 C 21.714844 7.1875 18.390625 9.398438 18.390625 13.820312 L 18.390625 30.710938 C 18.390625 35.140625 21.714844 37.339844 25.644531 37.339844 C 29.75 37.339844 32.945312 35.070312 32.945312 30.710938 L 32.945312 25.328125 L 26.738281 25.328125 L 26.738281 31.34375 C 26.738281 31.976562 26.339844 32.511719 25.667969 32.511719 C 25.015625 32.511719 24.597656 31.988281 24.597656 31.34375 L 24.597656 13.074219 C 24.597656 12.492188 25.078125 12.015625 25.660156 12.015625 C 26.238281 12.015625 26.738281 12.492188 26.738281 13.074219 L 26.738281 18.636719 L 32.945312 18.636719 "/>
<path style=" stroke:none;fill-rule:nonzero;fill:rgb(8.627451%,25.098039%,49.803922%);fill-opacity:1;" d="M 127.066406 18.859375 L 124.917969 18.859375 L 124.917969 13.160156 C 124.917969 12.480469 125.390625 12.023438 126 12.023438 C 126.582031 12.023438 127.066406 12.476562 127.066406 13.160156 Z M 133.273438 13.832031 C 133.273438 9.453125 130.007812 7.1875 125.96875 7.1875 C 122.039062 7.1875 118.71875 9.40625 118.71875 13.832031 L 118.71875 30.707031 C 118.71875 35.140625 122.046875 37.339844 125.972656 37.339844 C 129.855469 37.339844 133.273438 35.140625 133.273438 30.707031 L 133.273438 25.332031 L 127.070312 25.332031 L 127.070312 31.339844 C 127.070312 32.136719 126.546875 32.527344 126 32.527344 C 125.375 32.527344 124.921875 32.042969 124.921875 31.339844 L 124.921875 23.347656 L 133.273438 23.347656 L 133.273438 13.832031 "/>
<path style=" stroke:none;fill-rule:nonzero;fill:rgb(8.627451%,25.098039%,49.803922%);fill-opacity:1;" d="M 177.144531 18.859375 L 174.996094 18.859375 L 174.996094 13.15625 C 174.996094 12.480469 175.464844 12.019531 176.074219 12.019531 C 176.660156 12.019531 177.144531 12.472656 177.144531 13.15625 Z M 183.355469 13.828125 C 183.355469 9.453125 180.082031 7.1875 176.046875 7.1875 C 172.121094 7.1875 168.800781 9.402344 168.800781 13.828125 L 168.800781 30.703125 C 168.800781 35.140625 172.125 37.355469 176.050781 37.355469 C 179.933594 37.355469 183.355469 35.140625 183.355469 30.703125 L 183.355469 25.328125 L 177.148438 25.328125 L 177.148438 31.335938 C 177.148438 32.132812 176.621094 32.527344 176.078125 32.527344 C 175.453125 32.527344 175 32.042969 175 31.335938 L 175 23.347656 L 183.355469 23.347656 L 183.355469 13.828125 "/>
<path style=" stroke:none;fill-rule:nonzero;fill:rgb(8.627451%,25.098039%,49.803922%);fill-opacity:1;" d="M 68.46875 7.535156 C 68.46875 7.535156 68.46875 30.339844 68.46875 30.820312 C 68.46875 31.535156 68.066406 31.980469 67.402344 31.980469 C 66.761719 31.980469 66.324219 31.566406 66.324219 30.820312 C 66.324219 30.457031 66.324219 7.535156 66.324219 7.535156 L 60.121094 7.535156 L 60.121094 32.058594 C 60.121094 35.3125 62.128906 37.339844 64.519531 37.339844 C 66.945312 37.339844 68.050781 35.574219 68.421875 34.929688 L 68.558594 34.929688 L 68.671875 36.984375 L 74.675781 36.984375 L 74.675781 7.535156 L 68.46875 7.535156 "/>
<path style=" stroke:none;fill-rule:nonzero;fill:rgb(8.627451%,25.098039%,49.803922%);fill-opacity:1;" d="M 145.695312 7.1875 C 143.621094 7.1875 142.347656 8.769531 141.761719 9.589844 L 141.628906 9.589844 L 141.503906 7.539062 L 135.414062 7.539062 L 135.414062 36.988281 L 141.628906 36.988281 L 141.628906 13.703125 C 141.628906 12.984375 142.039062 12.542969 142.6875 12.542969 C 143.316406 12.542969 143.757812 13 143.757812 13.703125 L 143.757812 23.320312 L 149.972656 23.320312 L 149.972656 12.265625 C 149.972656 9.15625 148.101562 7.1875 145.695312 7.1875 "/>
<path style=" stroke:none;fill-rule:nonzero;fill:rgb(8.627451%,25.098039%,49.803922%);fill-opacity:1;" d="M 195.765625 7.1875 C 193.691406 7.1875 192.417969 8.769531 191.832031 9.589844 L 191.695312 9.589844 L 191.574219 7.539062 L 185.484375 7.539062 L 185.484375 36.992188 L 191.695312 36.992188 L 191.695312 13.707031 C 191.695312 12.988281 192.109375 12.546875 192.757812 12.546875 C 193.386719 12.546875 193.828125 13 193.828125 13.707031 L 193.828125 23.320312 L 200.042969 23.320312 L 200.042969 12.269531 C 200.042969 9.15625 198.171875 7.1875 195.765625 7.1875 "/>
<path style=" stroke:none;fill-rule:nonzero;fill:rgb(8.627451%,25.098039%,49.803922%);fill-opacity:1;" d="M 160.457031 28.941406 C 160.457031 29.726562 159.988281 30.160156 159.390625 30.160156 C 158.800781 30.160156 158.320312 29.726562 158.320312 28.941406 L 158.320312 13.675781 C 158.320312 12.917969 158.839844 12.550781 159.386719 12.550781 C 160 12.550781 160.457031 12.992188 160.457031 13.675781 C 160.457031 14.269531 160.457031 28.941406 160.457031 28.941406 Z M 160.546875 7.539062 L 160.457031 9.601562 L 160.300781 9.601562 C 159.976562 8.929688 158.75 7.1875 156.433594 7.1875 C 154.195312 7.1875 152.109375 8.921875 152.109375 12.117188 L 152.109375 29.703125 C 152.109375 33.070312 154.042969 35.039062 156.46875 35.039062 C 158.773438 35.039062 159.886719 33.488281 160.273438 32.882812 L 160.453125 32.882812 L 160.453125 39.375 C 160.453125 40.0625 160.019531 40.492188 159.378906 40.492188 C 158.863281 40.492188 158.308594 40.128906 158.308594 39.375 C 158.308594 38.667969 158.308594 36.753906 158.308594 36.753906 L 152.109375 36.753906 L 152.109375 38.375 C 152.109375 42.976562 155.050781 45.03125 159.371094 45.03125 C 163.65625 45.03125 166.664062 42.976562 166.664062 38.375 L 166.664062 7.539062 L 160.546875 7.539062 "/>
<path style=" stroke:none;fill-rule:nonzero;fill:rgb(8.627451%,25.098039%,49.803922%);fill-opacity:1;" d="M 45.324219 7.1875 C 43.132812 7.1875 41.816406 8.777344 41.390625 9.589844 L 41.289062 9.589844 L 41.289062 0.0195312 L 35.082031 0.0195312 L 35.082031 36.988281 L 41.28125 36.988281 L 41.28125 13.945312 C 41.28125 13.324219 41.699219 12.816406 42.355469 12.816406 C 43.019531 12.816406 43.425781 13.339844 43.425781 13.960938 L 43.425781 36.988281 L 49.636719 36.988281 L 49.636719 12.542969 C 49.636719 8.5625 47.28125 7.1875 45.324219 7.1875 "/>
<path style=" stroke:none;fill-rule:nonzero;fill:rgb(8.627451%,25.098039%,49.803922%);fill-opacity:1;" d="M 91.074219 10.042969 C 90.757812 8.984375 89.453125 7.1875 87.132812 7.1875 C 84.898438 7.1875 83.601562 8.691406 83.144531 9.589844 L 83.023438 9.589844 L 82.960938 7.539062 L 76.8125 7.539062 L 76.8125 36.988281 L 83.027344 36.988281 L 83.027344 13.714844 C 83.027344 12.984375 83.523438 12.539062 84.132812 12.539062 C 84.742188 12.539062 85.242188 13.007812 85.242188 13.714844 L 85.242188 36.988281 L 91.457031 36.988281 L 91.457031 13.726562 C 91.457031 12.964844 91.992188 12.539062 92.566406 12.539062 C 93.148438 12.539062 93.671875 12.976562 93.671875 13.726562 L 93.671875 36.988281 L 99.882812 36.988281 L 99.882812 12.816406 C 99.882812 8.8125 97.785156 7.1875 95.410156 7.1875 C 93.058594 7.1875 91.628906 8.96875 91.164062 10.042969 L 91.074219 10.042969 "/>
<path style=" stroke:none;fill-rule:nonzero;fill:rgb(8.627451%,25.098039%,49.803922%);fill-opacity:1;" d="M 110.378906 30.839844 C 110.378906 31.550781 109.96875 32 109.304688 32 C 108.753906 32 108.238281 31.621094 108.238281 30.839844 L 108.238281 13.753906 C 108.238281 12.925781 108.78125 12.550781 109.308594 12.550781 C 109.898438 12.550781 110.378906 12.917969 110.378906 13.753906 Z M 112.09375 7.1875 C 110.019531 7.1875 108.761719 8.953125 108.371094 9.601562 L 108.238281 9.601562 L 108.238281 0.0195312 L 102.027344 0.0195312 L 102.027344 36.988281 L 108.167969 36.988281 L 108.238281 34.929688 L 108.371094 34.929688 C 108.679688 35.722656 109.78125 37.335938 112.046875 37.339844 C 114.667969 37.339844 116.585938 35.066406 116.585938 31.621094 L 116.585938 12.542969 C 116.585938 9.230469 114.582031 7.191406 112.09375 7.1875 "/>
<path style=" stroke:none;fill-rule:nonzero;fill:rgb(8.627451%,25.098039%,49.803922%);fill-opacity:1;" d="M 13.238281 18.332031 C 11.910156 17.027344 10.183594 15.339844 9.417969 14.605469 C 7.523438 12.78125 6.980469 11.769531 6.980469 9.46875 C 6.980469 7.757812 6.980469 6.5625 6.980469 6.5625 C 6.980469 5.855469 7.460938 5.460938 8.097656 5.460938 C 8.753906 5.460938 9.199219 5.933594 9.199219 6.5625 L 9.199219 12.34375 L 16.117188 12.34375 L 16.117188 6.640625 C 16.117188 1.851562 12.3125 0 8.097656 0 C 3.859375 0 0.0234375 1.8125 0.0273438 6.675781 L 0.0273438 11.097656 C 0.0273438 14.683594 1.515625 16.605469 2.964844 17.980469 C 4.09375 19.050781 4.980469 19.902344 6.738281 21.566406 C 8.789062 23.507812 9.199219 24.519531 9.199219 27.304688 C 9.199219 28.335938 9.199219 30.039062 9.199219 30.742188 C 9.199219 31.738281 8.742188 32.144531 8.097656 32.144531 C 7.402344 32.144531 6.980469 31.714844 6.980469 30.742188 C 6.980469 30.066406 6.980469 23.796875 6.980469 23.796875 L 0 23.796875 L 0 30.875 C 0 35.773438 3.8125 37.578125 8.097656 37.578125 C 12.320312 37.578125 16.253906 35.773438 16.253906 30.632812 L 16.253906 25.6875 C 16.253906 22.789062 15.613281 20.671875 13.238281 18.332031 "/>
</g>
</svg>
