<svg width="255" height="332" viewBox="0 0 255 332" fill="none" xmlns="http://www.w3.org/2000/svg">
<path d="M151.564 8.46056C135.73 33.6631 176.078 30.3022 195.109 51.3039C200.425 57.1702 229.417 79.8665 203.026 100.028C218.913 105.706 227.096 110.916 236.014 121.03C252.159 139.338 268.994 174.794 236.014 174.794H19.6107C-13.3692 174.794 2.73555 139.069 19.6107 121.03C29.5081 110.449 38.9279 105.095 56.5577 100.028C34.1257 75.6662 55.2383 60.545 75.0313 43.7437C102.839 20.1389 167.399 -16.742 151.564 8.46056Z" fill="#E8D7A5"/>
<path d="M137.289 28.7204C137.961 21.7084 151.983 5.18446 151.983 5.18446C151.983 5.18446 152.544 4.77812 152.435 5.74852C152.395 6.10474 152.265 6.64648 151.983 7.46194C151.72 8.22117 149.221 13.4558 148.834 14.2951C147.785 16.5726 147.602 21.0613 149.884 24.1649C151.356 26.168 151.561 26.1017 156.839 29.462C158.91 30.7803 161.608 32.1439 164.756 33.6623C170.004 35.94 176.632 38.7027 176.632 38.7027C176.632 38.7027 164.726 43.7431 159.478 43.7431C152.215 43.7431 147.294 44.2138 142.324 40.3829C137.426 36.6072 136.794 33.886 137.289 28.7204Z" fill="#DBCB9B"/>
<path d="M79.1155 88.2666C58.003 74.1181 59.1936 57.1841 59.1936 57.1841C59.1936 57.1841 44.3018 69.904 47.3179 82.3861C49.9567 93.307 52.5958 97.5073 57.8742 100.028C63.1525 102.548 72.2692 107.588 101.419 107.588C115.934 107.588 122.69 106.983 138.366 102.548C143.633 101.057 157.16 98.3223 168.715 97.5073C185.014 96.3578 200.384 99.1875 200.384 99.1875C200.384 99.1875 181.68 95.3244 172.674 94.9871C150.241 94.1471 94.435 98.5329 79.1155 88.2666Z" fill="#DBCB9B"/>
<path d="M0.106735 159.156C-1.50413 140.351 15.6499 126.07 15.6499 126.07C15.6499 126.07 21.7039 153.355 36.7625 159.156C47.2797 163.208 101.42 169.753 101.42 169.753L191.148 174.78H52.4399C44.5105 174.78 16.7286 176.424 9.0522 173.113C1.56244 169.883 0.654105 165.546 0.106735 159.156Z" fill="#DBCB9B"/>
<path d="M206.002 122.32C212.703 127.28 219.954 135.999 219.954 135.999C219.954 135.999 224.153 134.574 225.137 130.781C225.585 129.05 224.422 124.729 221.605 121.47C217.787 117.054 212.969 114.108 209.229 112.382C207.316 111.5 202.134 109.673 196.697 109.102C193.299 108.745 186.315 111.067 186.315 111.067C186.315 111.067 199.553 117.548 206.002 122.32Z" fill="#F6E5B1"/>
<path d="M181.509 56.4521C184.612 59.8112 187.514 65.5597 187.514 65.5597C187.514 65.5597 190.64 64.3921 191.708 62.0345C192.196 60.9591 192.031 58.5102 190.886 56.3578C189.334 53.4417 186.548 51.5154 184.675 50.2976C183.717 49.6751 179.114 48.2081 177.287 47.9635C175.387 47.709 171.944 48.6753 171.944 48.6753C171.944 48.6753 178.523 53.2197 181.509 56.4521Z" fill="#F6E5B1"/>
<path d="M98.9652 63.0049C84.411 47.9306 112.161 18.4813 112.161 18.4813L121.397 12.6009C121.397 12.6009 111.74 30.1782 114.8 38.6429C117.911 47.2514 122.025 54.4727 133.273 59.6446C143.717 64.4466 162.303 63.0049 176.818 63.0049C191.333 63.0049 201.889 68.0453 207.167 72.2456C213.996 77.6799 215.25 82.3264 213.765 87.3668C211.678 94.4458 203.208 99.9678 203.208 99.9678C203.208 99.9678 196.483 84.4486 184.735 79.8062C172.914 75.1349 148.506 75.6059 134.593 75.6059C122.717 75.6059 110.189 74.6297 98.9652 63.0049Z" fill="#C96928"/>
<path d="M87.0889 129.37C62.0178 123.846 38.521 107.528 38.521 107.528C38.521 107.528 31.9232 109.209 29.2842 112.569C26.6453 115.929 36.9466 127.69 48.8224 133.57C60.6982 139.451 80.2364 146.171 124.036 152.052C176.266 159.064 250.712 164.653 253.351 164.653C255.99 164.653 254.67 159.613 254.67 155.412C254.67 151.212 253.351 146.171 253.351 146.171C253.351 146.171 125.355 137.801 87.0889 129.37Z" fill="#C96928"/>
<path d="M9.39947 181.153C8.79172 178.064 11.1567 175.188 14.3055 175.188H242.118C245.25 175.188 247.61 178.034 247.032 181.112L219.436 327.924C218.992 330.287 216.927 332 214.522 332H43.1851C40.7958 332 38.7403 330.309 38.2791 327.965L9.39947 181.153Z" fill="#F19B79"/>
<circle cx="128" cy="175" r="85" fill="#542120"/>
<circle cx="128" cy="175" r="75" fill="white"/>
</svg>
