<svg width="1048" height="793" viewBox="0 0 1048 793" fill="none" xmlns="http://www.w3.org/2000/svg">
<path d="M581.5 707.5C558.307 680.712 553 624.5 553 624.5H493C493 624.5 487 680 456 707.5C421.716 737.913 333.77 733.317 291 749.5C254 763.5 254 793 254 793H792C792 793 779.5 763.5 747.5 749.5C706.749 731.671 624.527 757.196 581.5 707.5Z" fill="#DACA9C"/>
<rect x="493" y="38" width="60" height="599" fill="#DACA9C"/>
<path d="M87.1759 476.989C36.5734 476.989 3 404 3 404H169.165H345.716H521.72H697.178H877.008H1047C1047 404 1011.21 478.052 966.104 476.989C921.947 475.948 877.008 404 877.008 404C877.008 404 834.818 476.989 790.646 476.989C738.173 476.989 697.178 404 697.178 404C697.178 404 660.511 476.989 611.909 476.989C546.317 476.989 521.72 404 521.72 404C521.72 404 488.378 476.989 432.625 476.989C387.5 476.989 345.716 404 345.716 404C345.716 404 306.372 476.989 254.981 476.989C199.228 476.989 169.165 404 169.165 404C169.165 404 144.569 476.989 87.1759 476.989Z" fill="#E3D3A2"/>
<path d="M169.165 404H3C3 404 36.5734 476.989 87.1759 476.989C144.569 476.989 169.165 404 169.165 404ZM169.165 404H345.716M169.165 404C169.165 404 199.228 476.989 254.981 476.989C306.372 476.989 345.716 404 345.716 404M345.716 404H521.72M345.716 404C345.716 404 387.5 476.989 432.625 476.989C488.378 476.989 521.72 404 521.72 404M521.72 404H697.178M521.72 404C521.72 404 546.317 476.989 611.909 476.989C660.511 476.989 697.178 404 697.178 404M697.178 404H877.008M697.178 404C697.178 404 738.173 476.989 790.646 476.989C834.818 476.989 877.008 404 877.008 404M877.008 404H1047C1047 404 1011.21 478.052 966.104 476.989C921.947 475.948 877.008 404 877.008 404Z" stroke="#E3D3A2"/>
<path d="M1047 366H3V403H1047V366Z" fill="#E8D7A5" stroke="#E8D7A5"/>
<path d="M85.1759 111.989C34.5734 111.989 1 39 1 39H167.165H343.716H519.72H695.178H875.008H1045C1045 39 1009.21 113.052 964.104 111.989C919.947 110.948 875.008 39 875.008 39C875.008 39 832.818 111.989 788.646 111.989C736.173 111.989 695.178 39 695.178 39C695.178 39 658.511 111.989 609.909 111.989C544.317 111.989 519.72 39 519.72 39C519.72 39 486.378 111.989 430.625 111.989C385.5 111.989 343.716 39 343.716 39C343.716 39 304.372 111.989 252.981 111.989C197.228 111.989 167.165 39 167.165 39C167.165 39 142.569 111.989 85.1759 111.989Z" fill="#E3D3A2"/>
<path d="M167.165 39H1C1 39 34.5734 111.989 85.1759 111.989C142.569 111.989 167.165 39 167.165 39ZM167.165 39H343.716M167.165 39C167.165 39 197.228 111.989 252.981 111.989C304.372 111.989 343.716 39 343.716 39M343.716 39H519.72M343.716 39C343.716 39 385.5 111.989 430.625 111.989C486.378 111.989 519.72 39 519.72 39M519.72 39H695.178M519.72 39C519.72 39 544.317 111.989 609.909 111.989C658.511 111.989 695.178 39 695.178 39M695.178 39H875.008M695.178 39C695.178 39 736.173 111.989 788.646 111.989C832.818 111.989 875.008 39 875.008 39M875.008 39H1045C1045 39 1009.21 113.052 964.104 111.989C919.947 110.948 875.008 39 875.008 39Z" stroke="#E3D3A2"/>
<path d="M1045 1H1V38H1045V1Z" fill="#E8D7A5" stroke="#E8D7A5"/>
</svg>
