<svg width="1440" height="1024" viewBox="0 0 1440 1024" fill="none" xmlns="http://www.w3.org/2000/svg">
<path d="M1440 0H-656V1445H1440V0Z" fill="#08151B"/>
<path d="M1439.85 -100.614H-656V789.388H1439.85V-100.614Z" fill="#E6988E"/>
<path d="M1469.11 777.534H-692.389V807.168H1469.11V777.534Z" fill="#E8D7A8"/>
<path d="M692.136 1364.57H1439.71L1440.73 1042.4L735.366 1040.85L624.598 981.584L622.56 1232.62L692.136 1364.57Z" fill="#E8D7A8"/>
<path d="M735.366 1040.57L1440.73 1042.4V1018.41V981.584H624.598" fill="#F6F4D4"/>
<path d="M735.366 1040.57L624.598 981.584H1440.73" fill="#F6F4D4"/>
<path d="M735.366 1040.57L624.598 981.584H1440.73" stroke="#E8D7A8" stroke-miterlimit="10"/>
<path d="M1325.88 989.204H1170.72V1017.71H1325.88V989.204Z" fill="#A34B42"/>
<path d="M1148.45 882.805L1156.46 989.204H1343.5L1356.74 882.805H1148.45Z" fill="#9A242B"/>
<path opacity="0.5" d="M-518.013 850.631C-449.748 770.619 -123.995 777.252 87.6431 779.086C348.188 781.485 635.223 760.318 698.976 850.631C779.177 964.086 724.157 1151.2 694.464 1319.13H-519.469C-558.187 1200.17 -590.791 935.863 -518.013 850.631Z" fill="#D9ECD8" stroke="#C76931" stroke-width="6" stroke-miterlimit="10"/>
<path d="M615.719 807.732L614.409 1002.47L613.536 1218.37L625.617 1233.47L629.255 811.26L615.719 807.732Z" fill="#C76931"/>
<path d="M612.08 999.364H-409.575L-521.798 1096.87H692.135L612.08 999.364Z" fill="#F6F4D4" stroke="#E8D7A8" stroke-width="2" stroke-miterlimit="10"/>
<path d="M90.4087 784.872L93.3198 1319.13H115.59V784.872H90.4087Z" fill="#C76931"/>
<path d="M290.111 1060.61C289.238 1060.61 289.092 1059.34 289.092 1059.34C289.092 1059.34 283.27 1016.86 284.143 1014.6C285.017 1012.35 346.587 1012.63 358.231 1014.32C362.743 1015.03 357.94 1056.51 355.465 1059.2C353.282 1061.45 299.427 1060.89 290.111 1060.61Z" fill="#ED9B22"/>
<path d="M358.231 1014.32C350.953 1013.33 324.025 1012.77 304.667 1013.05C304.667 1013.19 304.667 1013.19 304.667 1013.33C305.54 1017.57 307.578 1019.26 307.578 1019.26C307.578 1019.26 318.64 1005.86 323.734 1008.11C328.829 1010.37 350.371 1011.36 354.592 1010.23C358.959 1009.1 356.048 1011.78 358.231 1014.32C360.56 1016.72 353.573 1046.92 348.915 1052.42C344.403 1057.64 308.742 1060.18 288.801 1056.94C288.946 1058.49 289.092 1059.48 289.092 1059.48C289.092 1059.48 289.238 1060.75 290.111 1060.75C299.427 1061.03 353.428 1061.74 355.611 1059.34C357.94 1056.52 362.889 1014.89 358.231 1014.32Z" fill="#C26028"/>
<path d="M285.308 1029.14C285.308 1029.14 285.89 1017.43 290.111 1017.14C294.187 1016.86 294.623 1025.19 303.066 1022.08C311.508 1018.84 308.306 1014.18 319.077 1017.43C329.848 1020.67 331.303 1026.03 339.6 1021.38C347.751 1016.72 351.681 1015.45 354.447 1019.68C357.212 1023.92 357.649 1032.38 362.016 1029.99C366.382 1027.59 367.692 1005.01 359.541 1001.76C351.39 998.518 287.2 995.413 280.941 1000.78C274.537 1006.14 276.429 1029.56 285.308 1029.14Z" fill="#E7D6A4"/>
<path d="M322.133 988.216C322.133 988.216 320.096 978.621 329.557 974.669C329.557 974.669 333.341 974.811 330.43 977.209C327.519 979.608 324.608 980.032 323.88 987.652C323.152 995.131 322.133 988.216 322.133 988.216Z" fill="#78AC42"/>
<path d="M322.133 1007.83C328.243 1007.83 333.195 1002.97 333.195 996.965C333.195 990.964 328.243 986.1 322.133 986.1C316.024 986.1 311.071 990.964 311.071 996.965C311.071 1002.97 316.024 1007.83 322.133 1007.83Z" fill="#9B2228"/>
<path d="M450.077 1060.61C449.204 1060.61 449.204 1059.48 449.204 1059.48C449.204 1059.48 443.818 1020.11 444.691 1017.99C445.565 1015.87 502.477 1016.16 513.394 1017.71C517.615 1018.27 513.103 1056.8 510.919 1059.34C508.736 1061.45 458.81 1060.89 450.077 1060.61Z" fill="#ED9B22"/>
<path d="M513.393 1017.71C506.552 1016.72 481.662 1016.3 463.759 1016.58C463.759 1016.72 463.759 1016.72 463.759 1016.86C464.632 1020.81 466.524 1022.37 466.524 1022.37C466.524 1022.37 476.859 1009.95 481.517 1012.06C486.32 1014.18 506.261 1015.03 510.046 1014.04C513.976 1012.91 511.21 1015.45 513.393 1017.71C515.577 1019.97 509.172 1047.91 504.66 1052.99C500.439 1057.93 467.398 1060.18 448.912 1057.08C449.058 1058.49 449.203 1059.34 449.203 1059.34C449.203 1059.34 449.349 1060.47 450.077 1060.47C458.81 1060.75 508.736 1061.31 510.773 1059.06C513.102 1056.8 517.614 1018.27 513.393 1017.71Z" fill="#C26028"/>
<path d="M445.71 1031.4C445.71 1031.4 446.292 1020.53 450.077 1020.25C453.861 1019.97 454.298 1027.73 462.158 1024.76C470.018 1021.8 466.961 1017.43 477.005 1020.39C486.902 1023.35 488.358 1028.29 496.072 1024.06C503.641 1019.68 507.28 1018.56 509.755 1022.51C512.229 1026.32 512.666 1034.36 516.741 1032.1C520.817 1029.84 521.981 1008.82 514.412 1006C506.843 1003.03 447.311 1000.07 441.634 1005.15C435.667 1010.09 437.413 1031.82 445.71 1031.4Z" fill="#E7D6A4"/>
<path d="M479.77 993.437C479.77 993.437 477.878 984.547 486.611 980.878C486.611 980.878 490.105 981.019 487.485 983.277C484.865 985.535 482.099 985.958 481.371 992.873C480.789 999.929 479.77 993.437 479.77 993.437Z" fill="#78AC42"/>
<path d="M479.77 1011.64C485.478 1011.64 490.105 1007.16 490.105 1001.62C490.105 996.089 485.478 991.603 479.77 991.603C474.063 991.603 469.436 996.089 469.436 1001.62C469.436 1007.16 474.063 1011.64 479.77 1011.64Z" fill="#9B2228"/>
<path d="M352.991 1061.31C351.681 1061.31 351.535 1059.48 351.535 1059.48C351.535 1059.48 342.802 994.848 344.112 991.462C345.568 987.934 439.014 988.357 456.772 990.897C463.759 991.885 456.335 1055.1 452.551 1059.06C449.203 1062.72 367.11 1061.74 352.991 1061.31Z" fill="#ED9B22"/>
<path d="M456.772 990.897C445.564 989.345 404.663 988.499 375.407 989.063C375.407 989.204 375.407 989.345 375.407 989.486C376.862 995.978 379.919 998.518 379.919 998.518C379.919 998.518 396.803 978.197 404.518 981.584C412.378 984.971 444.982 986.523 451.387 984.83C457.791 982.995 453.279 987.087 456.772 990.897C460.266 994.566 449.786 1040.43 442.508 1048.9C435.521 1056.94 381.374 1060.61 350.953 1055.67C351.244 1058.07 351.536 1059.48 351.536 1059.48C351.536 1059.48 351.681 1061.31 352.991 1061.31C367.256 1061.74 449.203 1062.72 452.551 1059.06C456.19 1055.1 463.613 991.885 456.772 990.897Z" fill="#C26028"/>
<path d="M347.46 1022.08C347.46 1022.08 348.479 1004.16 354.738 1003.88C360.996 1003.46 361.724 1016.16 374.533 1011.36C387.342 1006.56 382.539 999.364 398.841 1004.3C415.143 1009.1 417.472 1017.43 429.99 1010.23C442.508 1003.17 448.33 1001.2 452.551 1007.55C456.772 1013.9 457.354 1027.02 464.05 1023.21C470.6 1019.54 472.638 985.112 460.265 980.314C447.748 975.516 350.08 970.577 340.764 978.762C331.157 987.087 333.923 1022.93 347.46 1022.08Z" fill="#E7D6A4"/>
<path d="M405.245 949.41C405.245 949.41 402.189 934.734 416.453 928.808C416.453 928.808 422.275 929.09 417.909 932.618C413.542 936.287 409.175 936.851 408.011 948.422C406.846 959.994 405.245 949.41 405.245 949.41Z" fill="#78AC42"/>
<path d="M405.245 979.326C414.57 979.326 422.13 971.934 422.13 962.816C422.13 953.698 414.57 946.306 405.245 946.306C395.92 946.306 388.361 953.698 388.361 962.816C388.361 971.934 395.92 979.326 405.245 979.326Z" fill="#9B2228"/>
<path d="M1044.82 1025.89H958.503C954.719 1025.89 951.662 1022.93 951.662 1019.26V960.981H1051.66V1019.26C1051.66 1022.93 1048.6 1025.89 1044.82 1025.89Z" fill="#C96928"/>
<path d="M1051.66 988.216H951.661V1006.28H1051.66V988.216Z" fill="#6F2E21"/>
<path d="M1051.66 1006.28H951.661V1012.91H1051.66V1006.28Z" fill="#E8D7A5"/>
<path d="M1051.66 981.584H951.661V988.216H1051.66V981.584Z" fill="#E8D7A5"/>
<path d="M951.515 960.981H1051.66V974.669C1051.66 974.669 1046.27 977.774 1040.89 969.73C1035.5 961.687 1030.7 972.412 1028.95 974.669C1027.06 976.786 1020.51 978.479 1019.34 972.694C1018.47 968.319 1017.45 965.497 1014.54 965.356C1012.65 965.215 1010.76 966.344 1009.74 968.037C1008.72 969.73 1007.12 971.847 1005.66 971.142C1003.62 970.154 1001.3 965.638 997.948 967.473C996.929 968.037 996.201 969.166 996.055 970.295C995.619 972.835 994.018 978.197 989.942 977.633C985.721 977.068 984.411 971.283 983.974 968.884C983.829 967.614 982.955 966.626 981.791 966.203C980.481 965.779 978.734 965.92 976.551 968.743C972.184 974.246 968.691 974.105 965.489 971C962.869 968.46 961.995 966.767 959.666 967.332C958.647 967.614 957.774 968.178 957.192 969.025C955.445 971.283 951.224 976.222 950.788 972.129C950.06 967.332 951.515 960.981 951.515 960.981Z" fill="#542120"/>
<path d="M882.668 961.123C901.237 961.123 916.291 944.886 916.291 924.856C916.291 904.827 901.237 888.59 882.668 888.59C864.098 888.59 849.044 904.827 849.044 924.856C849.044 944.886 864.098 961.123 882.668 961.123Z" fill="#9A242B"/>
<path d="M882.959 888.59V961.123C901.444 960.981 916.291 944.753 916.291 924.856C916.291 904.818 901.444 888.731 882.959 888.59Z" fill="#9A242B"/>
<path d="M959.666 1025.89H807.561C803.777 1025.89 800.72 1022.93 800.72 1019.26V918.224H966.653V1019.26C966.653 1022.93 963.451 1025.89 959.666 1025.89Z" fill="#C96928"/>
<path d="M966.653 963.38H800.72V993.296H966.653V963.38Z" fill="#EF9B7D"/>
<path d="M966.653 993.296H800.72V1004.3H966.653V993.296Z" fill="#F6F4D2"/>
<path d="M966.653 952.374H800.72V963.38H966.653V952.374Z" fill="#F6F4D2"/>
<path d="M800.574 918.224H966.653V940.943C966.653 940.943 957.774 946.023 948.895 932.759C940.017 919.494 932.157 937.274 929.1 940.943C926.043 944.471 915.127 947.435 913.089 937.698C911.633 930.501 910.032 925.703 905.083 925.562C901.881 925.421 898.824 927.255 897.223 930.078C895.622 932.9 893.002 936.428 890.382 935.158C886.889 933.464 882.959 925.985 877.428 928.949C875.681 929.936 874.517 931.771 874.226 933.747C873.352 937.98 870.878 946.87 864.182 945.882C857.195 944.895 854.867 935.44 854.284 931.489C853.993 929.513 852.683 927.679 850.791 926.973C848.753 926.126 845.697 926.55 842.203 931.207C835.071 940.379 829.249 939.956 823.863 934.875C819.351 930.642 818.187 927.82 814.111 928.666C812.51 929.09 811.054 930.078 810.035 931.348C807.124 935.158 800.138 943.201 799.264 936.428C798.1 928.808 800.574 918.224 800.574 918.224Z" fill="#F6F4D4"/>
<path d="M157.51 563.183C147.176 537.218 119.666 518.591 87.2067 518.591C54.8934 518.591 27.3833 537.218 16.9033 563.183H157.51Z" fill="#E8D7A5"/>
<path d="M88.0803 528.046C88.0803 528.046 80.2202 543.851 88.0803 543.992C95.7947 544.133 88.0803 528.046 88.0803 528.046Z" fill="#9B2227"/>
<path d="M73.67 525.224C73.67 525.224 58.5321 531.433 64.3544 537.359C70.0311 543.145 73.67 525.224 73.67 525.224Z" fill="#9B2227"/>
<path d="M99.7244 525.224C99.7244 525.224 104.819 542.298 110.204 536.089C115.59 529.739 99.7244 525.224 99.7244 525.224Z" fill="#9B2227"/>
<path d="M157.364 563.183H16.9033V592.535H157.364V563.183Z" fill="#F89E1B"/>
<path d="M16.3212 549.777C7.0056 536.936 9.77118 568.263 25.3456 572.355C40.9201 576.589 36.9901 563.183 45.4323 567.275C53.8745 571.509 50.6723 580.681 59.6968 578.988C68.7212 577.294 68.1389 566.429 74.5434 573.908C81.0934 581.387 92.0101 580.681 96.5223 575.601C101.035 570.521 101.762 573.908 112.097 577.294C122.431 580.681 123.159 578.141 129.563 572.214C136.113 566.288 134.803 578.988 147.758 573.908C160.712 568.828 169.155 561.349 164.642 553.728C160.13 546.249 150.96 551.188 144.556 557.115C138.006 563.042 129.418 552.176 116.755 560.502C104.819 568.263 110.204 550.483 96.6678 556.269C82.9856 562.195 82.9856 565.441 72.6512 558.809C62.3167 552.035 64.3545 562.195 57.9501 563.042C51.4001 563.889 55.9123 549.636 45.4323 553.023C35.0978 556.551 27.2378 564.876 16.3212 549.777Z" fill="#C3601E"/>
<path d="M107.294 358.287H92.447C65.8103 358.287 44.2681 382.558 44.2681 412.474C44.2681 419.389 49.217 424.892 55.3303 424.892H144.41C150.524 424.892 155.472 419.248 155.472 412.474C155.618 382.558 133.93 358.287 107.294 358.287Z" fill="#ED9B21"/>
<path d="M82.6946 370.564C84.7847 370.564 86.4791 369.11 86.4791 367.318C86.4791 365.525 84.7847 364.072 82.6946 364.072C80.6045 364.072 78.9102 365.525 78.9102 367.318C78.9102 369.11 80.6045 370.564 82.6946 370.564Z" fill="#E8D7A5"/>
<path d="M99.8701 370.564C101.96 370.564 103.655 369.11 103.655 367.318C103.655 365.525 101.96 364.072 99.8701 364.072C97.78 364.072 96.0857 365.525 96.0857 367.318C96.0857 369.11 97.78 370.564 99.8701 370.564Z" fill="#E8D7A5"/>
<path d="M117.191 370.564C119.281 370.564 120.976 369.11 120.976 367.318C120.976 365.525 119.281 364.072 117.191 364.072C115.101 364.072 113.407 365.525 113.407 367.318C113.407 369.11 115.101 370.564 117.191 370.564Z" fill="#E8D7A5"/>
<path d="M73.5247 389.332C75.6148 389.332 77.3091 387.878 77.3091 386.086C77.3091 384.293 75.6148 382.84 73.5247 382.84C71.4346 382.84 69.7402 384.293 69.7402 386.086C69.7402 387.878 71.4346 389.332 73.5247 389.332Z" fill="#E8D7A5"/>
<path d="M90.7002 389.332C92.7903 389.332 94.4846 387.878 94.4846 386.086C94.4846 384.293 92.7903 382.84 90.7002 382.84C88.6101 382.84 86.9158 384.293 86.9158 386.086C86.9158 387.878 88.6101 389.332 90.7002 389.332Z" fill="#E8D7A5"/>
<path d="M108.021 389.332C110.112 389.332 111.806 387.878 111.806 386.086C111.806 384.293 110.112 382.84 108.021 382.84C105.931 382.84 104.237 384.293 104.237 386.086C104.237 387.878 105.931 389.332 108.021 389.332Z" fill="#E8D7A5"/>
<path d="M126.507 389.332C128.597 389.332 130.291 387.878 130.291 386.086C130.291 384.293 128.597 382.84 126.507 382.84C124.417 382.84 122.722 384.293 122.722 386.086C122.722 387.878 124.417 389.332 126.507 389.332Z" fill="#E8D7A5"/>
<path d="M44.7046 415.72C45.869 421.082 50.2357 425.174 55.4757 425.174H144.556C149.796 425.174 154.162 421.223 155.327 415.72H44.7046Z" fill="#C96928"/>
<path d="M204.816 423.058H-560.807V445.777H204.816V423.058Z" fill="#E8D7A5"/>
<path d="M204.816 593.24H-560.807V615.959H204.816V593.24Z" fill="#E8D7A5"/>
<path d="M645.412 832.074C682.994 870.5 700.694 926.38 691.815 978.635C691.218 982.148 693.955 985.874 697.579 986.466C701.203 987.059 705.046 984.434 705.686 980.921C715.701 925.562 692.936 865.716 645.412 832.074Z" fill="#F6F4D4"/>
<path d="M74.0628 850.137C72.8401 896.831 71.6174 943.526 70.3948 990.206C83.0581 941.578 84.5283 890.241 74.0628 850.137Z" fill="#F6F4D4"/>
<path d="M1156.63 889.169C1158.57 915.007 1160.49 940.844 1162.43 966.682C1162.51 967.839 1163.69 968.799 1164.88 968.686C1166.08 968.573 1167.04 967.402 1166.89 966.259C1163.63 940.534 1160.39 914.823 1156.63 889.169Z" fill="#E6988E"/>
<path d="M1165.67 974.387C1163.65 974.556 1162.29 977.097 1163.31 978.804C1164.35 980.512 1167.29 980.61 1168.44 978.987C1169.6 977.351 1168.44 974.726 1165.67 974.387Z" fill="#E6988E"/>
<path d="M1174.19 1000.96C1174.13 1004.22 1174.07 1007.48 1174.01 1010.75C1173.97 1013.4 1176.54 1015.54 1179.24 1016C1181.93 1016.47 1184.67 1015.69 1187.26 1014.89C1183.6 1015.8 1179.47 1014.58 1176.98 1011.82C1174.51 1009.07 1174.61 1001.68 1174.19 1000.96Z" fill="#E6988E"/>
<path d="M1167.4 887.659C1210.49 892.33 1254.13 892.189 1297.17 887.221C1253.38 887.179 1209.6 887.137 1167.4 887.659Z" fill="#E6988E"/>
</svg>
