<svg width="1378" height="172" viewBox="0 0 1378 172" fill="none" xmlns="http://www.w3.org/2000/svg">
<path d="M864.2 419H1377.8L1378.5 190.7L893.9 189.6L817.8 147.6L816.4 325.5L864.2 419Z" fill="#E8D7A8"/>
<path d="M893.9 189.4L1378.5 190.7V173.7V147.6H817.8" fill="#F6F4D4"/>
<path d="M893.9 189.4L817.8 147.6H1378.5" fill="#F6F4D4"/>
<path d="M893.9 189.4L817.8 147.6H1378.5" stroke="#E8D7A8" stroke-miterlimit="10"/>
<path d="M1299.6 153H1193V173.2H1299.6V153Z" fill="#A34B42"/>
<path d="M1177.7 77.6001L1183.2 153H1311.7L1320.8 77.6001H1177.7Z" fill="#9A242B"/>
<path opacity="0.5" d="M32.8001 54.7999C79.7001 -1.9001 303.5 2.79989 448.9 4.09989C627.9 5.79989 825.1 -9.2001 868.9 54.7999C924 135.2 886.2 267.8 865.8 386.8H31.8001C5.20008 302.5 -17.1999 115.2 32.8001 54.7999Z" fill="#D9ECD8" stroke="#C76931" stroke-width="6" stroke-miterlimit="10"/>
<path d="M809.3 317.7H107.6L30.5 386.8H864.2L809.3 317.7Z" fill="#F6F4D4" stroke="#E8D7A8" stroke-width="3" stroke-miterlimit="10"/>
<path d="M106.3 24.3999L107.3 162.3L107.6 317.8L98.0001 325.6L96.0001 26.8999L106.3 24.3999Z" fill="#C76931"/>
<path d="M811.7 24.3999L810.8 162.4L810.2 315.4L818.5 326.1L821 26.8999L811.7 24.3999Z" fill="#C76931"/>
<path d="M809.2 160.2H107.3L30.2002 229.3H864.2L809.2 160.2Z" fill="#F6F4D4" stroke="#E8D7A8" stroke-width="2" stroke-miterlimit="10"/>
<path d="M450.8 8.19995L452.8 386.8H468.1V8.19995H450.8Z" fill="#C76931"/>
<path d="M26.9 384.1L26.5 419H871.1V384.1H26.9Z" fill="#A34B42"/>
<path d="M229.3 284.1C229.3 284.4 229.3 284.6 229.3 284.9C228.8 290 223.6 294.6 215.3 297.9V350.6C215.3 355.5 211.8 359.4 207.4 359.4H152.7C148.3 359.4 144.8 355.5 144.8 350.6V295.8C139.2 292.7 135.7 289 135.3 284.9C135.3 284.6 135.3 284.4 135.3 284.1C135.3 273.3 156.4 264.6 182.4 264.6C208.2 264.6 229.3 273.4 229.3 284.1Z" fill="#C96928"/>
<path d="M245.9 284.1C245.9 287 244.5 289.8 242 292.3C239.9 294.4 237 296.3 233.5 298V350.7C233.5 352.2 233.2 353.6 232.7 354.9C231.5 357.7 229.2 359.5 226.5 359.5H178C174.1 359.5 171 355.6 171 350.7V295.9C165.7 292.6 162.5 288.6 162.5 284.1C162.5 277.9 168.6 272.4 178.2 268.9L174.9 265.2L183 264.7H185.4H199.3C200.9 264.6 202.5 264.6 204.2 264.6C215.1 264.6 225.1 266.6 232.5 269.8C240.8 273.4 245.9 278.5 245.9 284.1Z" fill="#C96928"/>
<path d="M229.3 285.7C229.3 291.1 223.9 296 215.3 299.6V350.7C215.3 355.6 211.8 359.5 207.4 359.5H152.7C148.3 359.5 144.8 355.6 144.8 350.7V297.5C138.8 294.2 135.2 290.2 135.2 285.7C135.2 285.4 135.2 285.2 135.2 284.9C136.2 274.5 156.9 266.2 182.2 266.2C207.5 266.2 228.2 274.5 229.2 284.9C229.3 285.2 229.3 285.4 229.3 285.7Z" fill="#E8D7A5"/>
<path d="M170.3 305.4C170.3 305.6 170.3 305.8 170.3 306C169.9 310.1 165.7 313.7 159.2 316.4V358.5C159.2 362.4 156.4 365.5 152.9 365.5H109.3C105.8 365.5 103 362.4 103 358.5V314.8C98.5 312.4 95.7 309.3 95.4 306.1C95.4 305.9 95.4 305.7 95.4 305.4C95.4 296.8 112.2 289.9 132.9 289.9C153.5 289.9 170.3 296.8 170.3 305.4Z" fill="#C96928"/>
<path d="M183.5 305.4C183.5 307.7 182.4 309.9 180.4 311.9C178.7 313.6 176.4 315.1 173.6 316.4V358.5C173.6 359.7 173.4 360.8 172.9 361.8C172 364 170.1 365.5 168 365.5H129.3C126.2 365.5 123.7 362.4 123.7 358.5V314.8C119.5 312.2 116.9 308.9 116.9 305.4C116.9 300.5 121.8 296.1 129.4 293.3L126.8 290.7V290.4L133.2 290H135.1H146.2C147.5 289.9 148.8 289.9 150.1 289.9C158.8 289.9 166.7 291.5 172.7 294C179.4 296.8 183.5 300.9 183.5 305.4Z" fill="#C96928"/>
<path d="M170.3 306.7C170.3 311 166 314.9 159.1 317.7V358.5C159.1 362.4 156.3 365.5 152.8 365.5H109.2C105.7 365.5 102.9 362.4 102.9 358.5V316.1C98.1 313.5 95.3 310.2 95.3 306.7C95.3 306.5 95.3 306.3 95.3 306.1C96.1 297.8 112.6 291.2 132.8 291.2C153 291.2 169.5 297.8 170.3 306.1C170.3 306.2 170.3 306.5 170.3 306.7Z" fill="#E8D7A5"/>
<path d="M588 203.6C587.4 203.6 587.3 202.7 587.3 202.7C587.3 202.7 583.3 172.6 583.9 171C584.5 169.4 626.8 169.6 634.8 170.8C637.9 171.3 634.6 200.7 632.9 202.6C631.4 204.2 594.4 203.8 588 203.6Z" fill="#ED9B22"/>
<path d="M634.8 170.8C629.8 170.1 611.3 169.7 598 169.9C598 170 598 170 598 170.1C598.6 173.1 600 174.3 600 174.3C600 174.3 607.6 164.8 611.1 166.4C614.6 168 629.4 168.7 632.3 167.9C635.3 167.1 633.3 169 634.8 170.8C636.4 172.5 631.6 193.9 628.4 197.8C625.3 201.5 600.8 203.3 587.1 201C587.2 202.1 587.3 202.8 587.3 202.8C587.3 202.8 587.4 203.7 588 203.7C594.4 203.9 631.5 204.4 633 202.7C634.6 200.7 638 171.2 634.8 170.8Z" fill="#C26028"/>
<path d="M584.7 181.3C584.7 181.3 585.1 173 588 172.8C590.8 172.6 591.1 178.5 596.9 176.3C602.7 174 600.5 170.7 607.9 173C615.3 175.3 616.3 179.1 622 175.8C627.6 172.5 630.3 171.6 632.2 174.6C634.1 177.6 634.4 183.6 637.4 181.9C640.4 180.2 641.3 164.2 635.7 161.9C630.1 159.6 586 157.4 581.7 161.2C577.3 165 578.6 181.6 584.7 181.3Z" fill="#E7D6A4"/>
<path d="M610 152.3C610 152.3 608.6 145.5 615.1 142.7C615.1 142.7 617.7 142.8 615.7 144.5C613.7 146.2 611.7 146.5 611.2 151.9C610.7 157.2 610 152.3 610 152.3Z" fill="#78AC42"/>
<path d="M610 166.2C614.197 166.2 617.6 162.752 617.6 158.5C617.6 154.247 614.197 150.8 610 150.8C605.803 150.8 602.4 154.247 602.4 158.5C602.4 162.752 605.803 166.2 610 166.2Z" fill="#9B2228"/>
<path d="M697.9 203.6C697.3 203.6 697.3 202.8 697.3 202.8C697.3 202.8 693.6 174.9 694.2 173.4C694.8 171.9 733.9 172.1 741.4 173.2C744.3 173.6 741.2 200.9 739.7 202.7C738.2 204.2 703.9 203.8 697.9 203.6Z" fill="#ED9B22"/>
<path d="M741.4 173.2C736.7 172.5 719.6 172.2 707.3 172.4C707.3 172.5 707.3 172.5 707.3 172.6C707.9 175.4 709.2 176.5 709.2 176.5C709.2 176.5 716.3 167.7 719.5 169.2C722.8 170.7 736.5 171.3 739.1 170.6C741.8 169.8 739.9 171.6 741.4 173.2C742.9 174.8 738.5 194.6 735.4 198.2C732.5 201.7 709.8 203.3 697.1 201.1C697.2 202.1 697.3 202.7 697.3 202.7C697.3 202.7 697.4 203.5 697.9 203.5C703.9 203.7 738.2 204.1 739.6 202.5C741.2 200.9 744.3 173.6 741.4 173.2Z" fill="#C26028"/>
<path d="M694.9 182.9C694.9 182.9 695.3 175.2 697.9 175C700.5 174.8 700.8 180.3 706.2 178.2C711.6 176.1 709.5 173 716.4 175.1C723.2 177.2 724.2 180.7 729.5 177.7C734.7 174.6 737.2 173.8 738.9 176.6C740.6 179.3 740.9 185 743.7 183.4C746.5 181.8 747.3 166.9 742.1 164.9C736.9 162.8 696 160.7 692.1 164.3C688 167.8 689.2 183.2 694.9 182.9Z" fill="#E7D6A4"/>
<path d="M718.3 156C718.3 156 717 149.7 723 147.1C723 147.1 725.4 147.2 723.6 148.8C721.8 150.4 719.9 150.7 719.4 155.6C719 160.6 718.3 156 718.3 156Z" fill="#78AC42"/>
<path d="M718.3 168.9C722.221 168.9 725.4 165.721 725.4 161.8C725.4 157.879 722.221 154.7 718.3 154.7C714.379 154.7 711.2 157.879 711.2 161.8C711.2 165.721 714.379 168.9 718.3 168.9Z" fill="#9B2228"/>
<path d="M631.2 204.1C630.3 204.1 630.2 202.8 630.2 202.8C630.2 202.8 624.2 157 625.1 154.6C626.1 152.1 690.3 152.4 702.5 154.2C707.3 154.9 702.2 199.7 699.6 202.5C697.3 205.1 640.9 204.4 631.2 204.1Z" fill="#ED9B22"/>
<path d="M702.5 154.2C694.8 153.1 666.7 152.5 646.6 152.9C646.6 153 646.6 153.1 646.6 153.2C647.6 157.8 649.7 159.6 649.7 159.6C649.7 159.6 661.3 145.2 666.6 147.6C672 150 694.4 151.1 698.8 149.9C703.2 148.6 700.1 151.5 702.5 154.2C704.9 156.8 697.7 189.3 692.7 195.3C687.9 201 650.7 203.6 629.8 200.1C630 201.8 630.2 202.8 630.2 202.8C630.2 202.8 630.3 204.1 631.2 204.1C641 204.4 697.3 205.1 699.6 202.5C702.1 199.7 707.2 154.9 702.5 154.2Z" fill="#C26028"/>
<path d="M627.4 176.3C627.4 176.3 628.1 163.6 632.4 163.4C636.7 163.1 637.2 172.1 646 168.7C654.8 165.3 651.5 160.2 662.7 163.7C673.9 167.1 675.5 173 684.1 167.9C692.7 162.9 696.7 161.5 699.6 166C702.5 170.5 702.9 179.8 707.5 177.1C712 174.5 713.4 150.1 704.9 146.7C696.3 143.3 629.2 139.8 622.8 145.6C616.2 151.5 618.1 176.9 627.4 176.3Z" fill="#E7D6A4"/>
<path d="M667.1 124.8C667.1 124.8 665 114.4 674.8 110.2C674.8 110.2 678.8 110.4 675.8 112.9C672.8 115.5 669.8 115.9 669 124.1C668.2 132.3 667.1 124.8 667.1 124.8Z" fill="#78AC42"/>
<path d="M667.1 146C673.506 146 678.7 140.762 678.7 134.3C678.7 127.838 673.506 122.6 667.1 122.6C660.693 122.6 655.5 127.838 655.5 134.3C655.5 140.762 660.693 146 667.1 146Z" fill="#9B2228"/>
<path d="M375 289.6H295C285.2 289.6 277.3 298.4 277.3 309.3V322.7C277.3 326.2 279.8 329 283 329H283.8V348C283.8 354 288.2 358.8 293.6 358.8H376.5C381.9 358.8 386.3 353.9 386.3 348V329H387.1C390.2 329 392.8 326.2 392.8 322.7V309.3C392.7 298.4 384.8 289.6 375 289.6Z" fill="#E8D7A5"/>
<path d="M293.5 358.8H376.4C381.8 358.8 386.2 353.9 386.2 348V329H283.8V348C283.8 354 288.2 358.8 293.5 358.8Z" fill="#C96928"/>
<path d="M335 358.8H376.5C381.9 358.8 386.3 353.9 386.3 348V329H335V358.8Z" fill="#C96928"/>
<path d="M301.4 318.5C303.3 318.5 304.8 305.6 304.8 289.6H298C298 305.5 299.5 318.5 301.4 318.5Z" fill="#C96928"/>
<path d="M335 318.5C336.9 318.5 338.4 305.6 338.4 289.6H331.7C331.7 305.5 333.2 318.5 335 318.5Z" fill="#C96928"/>
<path d="M368.6 318.5C370.5 318.5 372 305.6 372 289.6H365.3C365.3 305.5 366.8 318.5 368.6 318.5Z" fill="#C96928"/>
<path d="M550.7 339.1C556.941 339.1 562 333.503 562 326.6C562 319.696 556.941 314.1 550.7 314.1C544.459 314.1 539.4 319.696 539.4 326.6C539.4 333.503 544.459 339.1 550.7 339.1Z" fill="#9B2227"/>
<path d="M550.8 314.1V339.2C557 339.1 562 333.6 562 326.7C562 319.8 557 314.1 550.8 314.1Z" fill="#A44A3F"/>
<path d="M574.1 361.6H528C525.4 361.6 523.3 359.5 523.3 356.9V324.4H578.9V356.9C578.8 359.4 576.7 361.6 574.1 361.6Z" fill="#C96928"/>
<path d="M578.8 339.9H523.2V350.2H578.8V339.9Z" fill="#F19B79"/>
<path d="M523.2 324.3H578.8V332.1C578.8 332.1 575.8 333.9 572.8 329.3C569.8 324.7 567.2 330.9 566.1 332.1C565.1 333.3 561.4 334.3 560.7 331C560.2 328.5 559.7 326.9 558 326.8C556.9 326.7 555.9 327.4 555.4 328.3C554.9 329.3 554 330.5 553.1 330.1C551.9 329.5 550.6 326.9 548.8 328C548.2 328.3 547.8 329 547.7 329.6C547.4 331.1 546.6 334.1 544.3 333.8C542 333.5 541.2 330.2 541 328.8C540.9 328.1 540.5 327.5 539.8 327.2C539.1 326.9 538.1 327.1 536.9 328.7C534.5 331.9 532.5 331.7 530.8 330C529.3 328.5 528.9 327.6 527.5 327.9C527 328 526.5 328.4 526.1 328.8C525.1 330.1 522.8 332.9 522.5 330.6C522.3 328 523.2 324.3 523.2 324.3Z" fill="#E8D7A5"/>
<path d="M625 340.3C631.241 340.3 636.3 334.703 636.3 327.8C636.3 320.896 631.241 315.3 625 315.3C618.759 315.3 613.7 320.896 613.7 327.8C613.7 334.703 618.759 340.3 625 340.3Z" fill="#9B2227"/>
<path d="M625.1 315.3V340.4C631.3 340.3 636.3 334.8 636.3 327.9C636.3 321 631.2 315.4 625.1 315.3Z" fill="#A44A3F"/>
<path d="M648.3 362.8H602.2C599.6 362.8 597.5 360.7 597.5 358.1V325.6H653.1V358.1C653.1 360.7 651 362.8 648.3 362.8Z" fill="#C96928"/>
<path d="M653.1 341.2H597.5V351.5H653.1V341.2Z" fill="#F19B79"/>
<path d="M597.4 325.6H653V333.4C653 333.4 650 335.2 647 330.6C644 326 641.4 332.2 640.3 333.4C639.3 334.6 635.6 335.6 634.9 332.3C634.4 329.8 633.9 328.2 632.2 328.1C631.1 328 630.1 328.7 629.6 329.6C629.1 330.6 628.2 331.8 627.3 331.4C626.1 330.8 624.8 328.2 623 329.3C622.4 329.6 622 330.3 621.9 330.9C621.6 332.4 620.8 335.4 618.5 335.1C616.2 334.8 615.4 331.5 615.2 330.1C615.1 329.4 614.7 328.8 614 328.5C613.3 328.2 612.3 328.4 611.1 330C608.7 333.2 606.7 333 605 331.3C603.5 329.8 603.1 328.9 601.7 329.2C601.2 329.3 600.7 329.7 600.3 330.1C599.3 331.4 597 334.2 596.7 331.9C596.6 329.2 597.4 325.6 597.4 325.6Z" fill="#E8D7A5"/>
<path d="M275.7 169.1V199.1H268.3C267.1 199.1 266 198.2 265.7 196.9L259.2 169.8L275.7 169.1Z" fill="#78AC42"/>
<path d="M275.7 169.1V199.1H283.1C284.3 199.1 285.4 198.2 285.7 196.9L292.2 169.8L275.7 169.1Z" fill="#78AC42"/>
<path d="M284.1 169.5L280 199.2H283C284.2 199.2 285.3 198.3 285.6 197L292.1 169.9L284.1 169.5Z" fill="#78AC42"/>
<path d="M267.2 169.5L271.3 199.2H268.3C267.1 199.2 266 198.3 265.7 197L259.2 169.9L267.2 169.5Z" fill="#C9D070"/>
<path d="M288.5 156.6C287.2 156.6 286.1 156.8 285 157.3C283.7 153.5 280.1 150.8 275.9 150.8C271.6 150.8 268 153.6 266.8 157.6C265.6 157 264.2 156.7 262.8 156.7C257.5 156.7 253.2 161 253.2 166.4C253.2 171.7 257.5 176.1 262.8 176.1C265.3 176.1 267.7 175.1 269.4 173.5C271.1 175.1 273.4 176.1 276 176.1C278.4 176.1 280.6 175.2 282.3 173.7C284 175.2 286.2 176.1 288.6 176.1C293.9 176.1 298.2 171.8 298.2 166.4C298.1 160.9 293.8 156.6 288.5 156.6Z" fill="#C96928"/>
<path d="M262.8 156.6C264.1 156.6 265.2 156.8 266.3 157.3C267.6 153.5 271.2 150.8 275.4 150.8C275.5 150.8 275.6 150.8 275.7 150.8V176C275.6 176 275.5 176 275.4 176C273 176 270.8 175.1 269.1 173.6C267.4 175.1 265.2 176 262.8 176C257.5 176 253.2 171.7 253.2 166.3C253.2 160.9 257.5 156.6 262.8 156.6Z" fill="#ED9B21"/>
<path d="M351.5 169.5V199.5H344.1C342.9 199.5 341.8 198.6 341.5 197.3L335 170.2L351.5 169.5Z" fill="#78AC42"/>
<path d="M351.5 169.5V199.5H358.9C360.1 199.5 361.2 198.6 361.5 197.3L368 170.2L351.5 169.5Z" fill="#78AC42"/>
<path d="M360 169.8L355.9 199.5H358.9C360.1 199.5 361.2 198.6 361.5 197.3L368 170.2L360 169.8Z" fill="#78AC42"/>
<path d="M343.1 169.8L347.2 199.5H344.2C343 199.5 341.9 198.6 341.6 197.3L335.1 170.2L343.1 169.8Z" fill="#C9D070"/>
<path d="M364.4 157C363.1 157 362 157.2 360.9 157.7C359.6 153.9 356 151.2 351.8 151.2C347.5 151.2 343.9 154 342.7 158C341.5 157.4 340.1 157.1 338.7 157.1C333.4 157.1 329.1 161.4 329.1 166.8C329.1 172.1 333.4 176.5 338.7 176.5C341.2 176.5 343.6 175.5 345.3 173.9C347 175.5 349.3 176.5 351.9 176.5C354.3 176.5 356.5 175.6 358.2 174.1C359.9 175.6 362.1 176.5 364.5 176.5C369.8 176.5 374.1 172.2 374.1 166.8C374 161.3 369.7 157 364.4 157Z" fill="#C96928"/>
<path d="M338.7 157C340 157 341.1 157.2 342.2 157.7C343.5 153.9 347.1 151.2 351.3 151.2C351.4 151.2 351.5 151.2 351.6 151.2V176.4C351.5 176.4 351.4 176.4 351.3 176.4C348.9 176.4 346.7 175.5 345 174C343.3 175.5 341.1 176.4 338.7 176.4C333.4 176.4 329.1 172.1 329.1 166.7C329.1 161.3 333.4 157 338.7 157Z" fill="#ED9B21"/>
<path d="M315 150.8V199.7H303C301 199.7 299.2 198.2 298.7 196L288.1 152L315 150.8Z" fill="#78AC42"/>
<path d="M315 150.8V199.7H327C329 199.7 330.8 198.2 331.3 196L341.9 151.9L315 150.8Z" fill="#78AC42"/>
<path d="M328.7 151.4L322 199.7H327C329 199.7 330.8 198.2 331.3 196L341.9 151.9L328.7 151.4Z" fill="#78AC42"/>
<path d="M301.2 151.4L307.9 199.7H302.9C300.9 199.7 299.1 198.2 298.6 196L288.1 152L301.2 151.4Z" fill="#C9D070"/>
<path d="M335.9 130.4C333.9 130.4 331.9 130.8 330.1 131.5C328 125.3 322.2 120.8 315.3 120.8C308.3 120.8 302.4 125.4 300.4 131.8C298.4 130.9 296.2 130.3 293.9 130.3C285.3 130.3 278.3 137.4 278.3 146.1C278.3 154.8 285.3 161.9 293.9 161.9C298.1 161.9 301.8 160.3 304.6 157.6C307.4 160.3 311.2 161.9 315.3 161.9C319.2 161.9 322.8 160.4 325.6 158C328.3 160.4 331.9 161.9 335.9 161.9C344.5 161.9 351.5 154.8 351.5 146.1C351.5 137.4 344.5 130.4 335.9 130.4Z" fill="#C96928"/>
<path d="M294 130.4C296 130.4 298 130.8 299.8 131.5C301.9 125.3 307.7 120.8 314.6 120.8C314.8 120.8 314.9 120.8 315 120.8V161.8C314.8 161.8 314.7 161.8 314.6 161.8C310.7 161.8 307.1 160.3 304.3 157.9C301.6 160.3 298 161.8 294 161.8C285.4 161.8 278.4 154.7 278.4 146C278.4 137.5 285.4 130.4 294 130.4Z" fill="#ED9B21"/>
<path d="M700.5 339.6C706.741 339.6 711.8 334.004 711.8 327.1C711.8 320.197 706.741 314.6 700.5 314.6C694.259 314.6 689.2 320.197 689.2 327.1C689.2 334.004 694.259 339.6 700.5 339.6Z" fill="#9B2227"/>
<path d="M700.6 314.5V339.6C706.8 339.5 711.8 334 711.8 327.1C711.8 320.2 706.8 314.6 700.6 314.5Z" fill="#A44A3F"/>
<path d="M723.9 362H677.8C675.2 362 673.1 359.9 673.1 357.3V324.8H728.7V357.3C728.6 359.9 726.5 362 723.9 362Z" fill="#C96928"/>
<path d="M728.6 340.4H673V350.7H728.6V340.4Z" fill="#F19B79"/>
<path d="M672.9 324.8H728.5V332.6C728.5 332.6 725.5 334.4 722.5 329.8C719.5 325.2 716.9 331.4 715.8 332.6C714.8 333.8 711.1 334.8 710.4 331.5C709.9 329 709.4 327.4 707.7 327.3C706.6 327.2 705.6 327.9 705.1 328.8C704.6 329.8 703.7 331 702.8 330.6C701.6 330 700.3 327.4 698.5 328.5C697.9 328.8 697.5 329.5 697.4 330.1C697.1 331.6 696.3 334.6 694 334.3C691.7 334 690.9 330.7 690.7 329.3C690.6 328.6 690.2 328 689.5 327.7C688.8 327.4 687.8 327.6 686.6 329.2C684.2 332.4 682.2 332.2 680.5 330.5C679 329 678.6 328.1 677.2 328.4C676.7 328.5 676.2 328.9 675.8 329.3C674.8 330.6 672.5 333.4 672.2 331.1C672.1 328.5 672.9 324.8 672.9 324.8Z" fill="#E8D7A5"/>
<path d="M774.7 340.8C780.941 340.8 786 335.203 786 328.3C786 321.396 780.941 315.8 774.7 315.8C768.459 315.8 763.4 321.396 763.4 328.3C763.4 335.203 768.459 340.8 774.7 340.8Z" fill="#9B2227"/>
<path d="M774.8 315.7V340.8C781 340.7 786 335.2 786 328.3C786 321.4 781 315.8 774.8 315.7Z" fill="#A44A3F"/>
<path d="M798.1 363.2H752C749.4 363.2 747.3 361.1 747.3 358.5V326H802.9V358.5C802.8 361.1 800.7 363.2 798.1 363.2Z" fill="#C96928"/>
<path d="M802.9 341.6H747.3V351.9H802.9V341.6Z" fill="#F19B79"/>
<path d="M747.2 326H802.8V333.8C802.8 333.8 799.8 335.6 796.8 331C793.8 326.4 791.2 332.6 790.1 333.8C789.1 335 785.4 336 784.7 332.7C784.2 330.2 783.7 328.6 782 328.5C780.9 328.4 779.9 329.1 779.4 330C778.9 331 778 332.2 777.1 331.8C775.9 331.2 774.6 328.6 772.8 329.7C772.2 330 771.8 330.7 771.7 331.3C771.4 332.8 770.6 335.8 768.3 335.5C766 335.2 765.2 331.9 765 330.5C764.9 329.8 764.5 329.2 763.8 328.9C763.1 328.6 762.1 328.8 760.9 330.4C758.5 333.6 756.5 333.4 754.8 331.7C753.3 330.2 752.9 329.3 751.5 329.6C751 329.7 750.5 330.1 750.1 330.5C749.1 331.8 746.8 334.6 746.5 332.3C746.4 329.7 747.2 326 747.2 326Z" fill="#E8D7A5"/>
<path d="M132.3 168V198.6H124.9C123.7 198.6 122.6 197.7 122.3 196.3L115.8 168.7L132.3 168Z" fill="#A34B42"/>
<path d="M132.3 168V198.6H139.7C140.9 198.6 142 197.7 142.3 196.3L148.8 168.7L132.3 168Z" fill="#A34B42"/>
<path d="M140.7 168.4L136.6 198.1H139.6C140.8 198.1 141.9 197.2 142.2 195.9L148.7 168.8L140.7 168.4Z" fill="#A34B42"/>
<path d="M124.9 170.2L128.9 198.7L125.4 198.6C124 198.6 122.8 197.6 122.4 196.4L115.6 170.3L124.9 170.2Z" fill="#E6988E"/>
<path d="M145.1 155.5C143.8 155.5 142.7 155.7 141.6 156.2C140.3 152.4 136.7 149.7 132.5 149.7C128.2 149.7 124.6 152.5 123.4 156.5C122.2 155.9 120.8 155.6 119.4 155.6C114.1 155.6 109.8 159.9 109.8 165.3C109.8 170.6 114.1 175 119.4 175C121.9 175 124.3 174 126 172.4C127.7 174 130 175 132.6 175C135 175 137.2 174.1 138.9 172.6C140.6 174.1 142.8 175 145.2 175C150.5 175 154.8 170.7 154.8 165.3C154.7 159.8 150.4 155.5 145.1 155.5Z" fill="#C96928"/>
<path d="M119.4 155.5C120.7 155.5 121.8 155.7 122.9 156.2C124.2 152.4 127.8 149.7 132 149.7C132.1 149.7 132.2 149.7 132.3 149.7V174.9C132.2 174.9 132.1 174.9 132 174.9C129.6 174.9 127.4 174 125.7 172.5C124 174 121.8 174.9 119.4 174.9C114.1 174.9 109.8 170.6 109.8 165.2C109.8 159.8 114.1 155.5 119.4 155.5Z" fill="#ED9B21"/>
<path d="M208.1 168.4V198.4H200.7C199.5 198.4 198.4 197.5 198.1 196.2L191.6 169.1L208.1 168.4Z" fill="#A34B42"/>
<path d="M208.1 168.4V198.4H215.5C216.7 198.4 217.8 197.5 218.1 196.2L224.6 169.1L208.1 168.4Z" fill="#A34B42"/>
<path d="M216.6 168.8L212.5 198.5H215.5C216.7 198.5 217.8 197.6 218.1 196.3L224.6 169.2L216.6 168.8Z" fill="#A34B42"/>
<path d="M200.2 168.8L203.2 198.6L200.2 198.5C199 198.5 197.9 197.5 197.7 196.2L192.2 168.9L200.2 168.8Z" fill="#E6988E"/>
<path d="M221 155.9C219.7 155.9 218.6 156.1 217.5 156.6C216.2 152.8 212.6 150.1 208.4 150.1C204.1 150.1 200.5 152.9 199.3 156.9C198.1 156.3 196.7 156 195.3 156C190 156 185.7 160.3 185.7 165.7C185.7 171 190 175.4 195.3 175.4C197.8 175.4 200.2 174.4 201.9 172.8C203.6 174.4 205.9 175.4 208.5 175.4C210.9 175.4 213.1 174.5 214.8 173C216.5 174.5 218.7 175.4 221.1 175.4C226.4 175.4 230.7 171.1 230.7 165.7C230.6 160.2 226.3 155.9 221 155.9Z" fill="#C96928"/>
<path d="M195.3 155.9C196.6 155.9 197.7 156.1 198.8 156.6C200.1 152.8 203.7 150.1 207.9 150.1C208 150.1 208.1 150.1 208.2 150.1V175.3C208.1 175.3 208 175.3 207.9 175.3C205.5 175.3 203.3 174.4 201.6 172.9C199.9 174.4 197.7 175.3 195.3 175.3C190 175.3 185.7 171 185.7 165.6C185.7 160.2 190 155.9 195.3 155.9Z" fill="#ED9B21"/>
<path d="M171.6 149.8V198.7H159.6C157.6 198.7 155.8 197.2 155.3 195L144.7 150.9L171.6 149.8Z" fill="#A34B42"/>
<path d="M171.6 149.8V198.7H183.6C185.6 198.7 187.4 197.2 187.9 195L198.5 150.9L171.6 149.8Z" fill="#A34B42"/>
<path d="M185.3 150.3L178.6 198.6H183.6C185.6 198.6 187.4 197.1 187.9 194.9L198.5 150.8L185.3 150.3Z" fill="#A34B42"/>
<path d="M157.8 150.3L164.5 198.6H159.5C157.5 198.6 155.7 197.1 155.2 194.9L144.6 150.8L157.8 150.3Z" fill="#E6988E"/>
<path d="M192.5 129.3C190.5 129.3 188.5 129.7 186.7 130.4C184.6 124.2 178.8 119.7 171.9 119.7C164.9 119.7 159 124.3 157 130.7C155 129.8 152.8 129.2 150.5 129.2C141.9 129.2 134.9 136.3 134.9 145C134.9 153.7 141.9 160.8 150.5 160.8C154.7 160.8 158.4 159.2 161.2 156.5C164 159.2 167.8 160.8 171.9 160.8C175.8 160.8 179.4 159.3 182.2 156.9C184.9 159.3 188.5 160.8 192.5 160.8C201.1 160.8 208.1 153.7 208.1 145C208.1 136.4 201.1 129.3 192.5 129.3Z" fill="#C96928"/>
<path d="M150.6 129.3C152.6 129.3 154.6 129.7 156.4 130.4C158.5 124.2 164.3 119.7 171.2 119.7C171.4 119.7 171.5 119.7 171.6 119.7V160.7C171.4 160.7 171.3 160.7 171.2 160.7C167.3 160.7 163.7 159.2 160.9 156.8C158.2 159.2 154.6 160.7 150.6 160.7C142 160.7 135 153.6 135 144.9C135 136.4 142 129.3 150.6 129.3Z" fill="#ED9B21"/>
<path d="M1106.5 179H1047.2C1044.6 179 1042.5 176.9 1042.5 174.3V133H1111.2V174.3C1111.2 176.9 1109.1 179 1106.5 179Z" fill="#C96928"/>
<path d="M1111.2 152.3H1042.5V165.1H1111.2V152.3Z" fill="#6F2E21"/>
<path d="M1111.2 165.1H1042.5V169.8H1111.2V165.1Z" fill="#E8D7A5"/>
<path d="M1111.2 147.6H1042.5V152.3H1111.2V147.6Z" fill="#E8D7A5"/>
<path d="M1042.4 133H1111.2V142.7C1111.2 142.7 1107.5 144.9 1103.8 139.2C1100.1 133.5 1096.8 141.1 1095.6 142.7C1094.3 144.2 1089.8 145.4 1089 141.3C1088.4 138.2 1087.7 136.2 1085.7 136.1C1084.4 136 1083.1 136.8 1082.4 138C1081.7 139.2 1080.6 140.7 1079.6 140.2C1078.2 139.5 1076.6 136.3 1074.3 137.6C1073.6 138 1073.1 138.8 1073 139.6C1072.7 141.4 1071.6 145.2 1068.8 144.8C1065.9 144.4 1065 140.3 1064.7 138.6C1064.6 137.7 1064 137 1063.2 136.7C1062.3 136.4 1061.1 136.5 1059.6 138.5C1056.6 142.4 1054.2 142.3 1052 140.1C1050.2 138.3 1049.6 137.1 1048 137.5C1047.3 137.7 1046.7 138.1 1046.3 138.7C1045.1 140.3 1042.2 143.8 1041.9 140.9C1041.4 137.5 1042.4 133 1042.4 133Z" fill="#542120"/>
<path d="M995.1 133.1C1007.86 133.1 1018.2 121.594 1018.2 107.4C1018.2 93.2062 1007.86 81.7 995.1 81.7C982.342 81.7 972 93.2062 972 107.4C972 121.594 982.342 133.1 995.1 133.1Z" fill="#9A242B"/>
<path d="M995.3 81.7V133.1C1008 133 1018.2 121.5 1018.2 107.4C1018.2 93.2 1008 81.8 995.3 81.7Z" fill="#9A242B"/>
<path d="M1048 179H943.5C940.9 179 938.8 176.9 938.8 174.3V102.7H1052.8V174.3C1052.8 176.9 1050.6 179 1048 179Z" fill="#C96928"/>
<path d="M1052.8 134.7H938.8V155.9H1052.8V134.7Z" fill="#EF9B7D"/>
<path d="M1052.8 155.9H938.8V163.7H1052.8V155.9Z" fill="#F6F4D2"/>
<path d="M1052.8 126.9H938.8V134.7H1052.8V126.9Z" fill="#F6F4D2"/>
<path d="M938.7 102.7H1052.8V118.8C1052.8 118.8 1046.7 122.4 1040.6 113C1034.5 103.6 1029.1 116.2 1027 118.8C1024.9 121.3 1017.4 123.4 1016 116.5C1015 111.4 1013.9 108 1010.5 107.9C1008.3 107.8 1006.2 109.1 1005.1 111.1C1004 113.1 1002.2 115.6 1000.4 114.7C998 113.5 995.3 108.2 991.5 110.3C990.3 111 989.5 112.3 989.3 113.7C988.7 116.7 987 123 982.4 122.3C977.6 121.6 976 114.9 975.6 112.1C975.4 110.7 974.5 109.4 973.2 108.9C971.8 108.3 969.7 108.6 967.3 111.9C962.4 118.4 958.4 118.1 954.7 114.5C951.6 111.5 950.8 109.5 948 110.1C946.9 110.4 945.9 111.1 945.2 112C943.2 114.7 938.4 120.4 937.8 115.6C937 110.2 938.7 102.7 938.7 102.7Z" fill="#F6F4D4"/>
<path d="M104.98 33.3198C80.9399 35.5998 57.9999 47.8298 42.7099 66.5098C27.4199 85.1898 19.9599 110.1 22.4799 134.11C22.9199 138.35 27.2599 141.76 31.4799 141.2C35.6999 140.64 38.9999 136.21 38.3199 132C34.8899 110.63 40.1099 87.9898 52.5499 70.2798C64.9899 52.5698 84.5299 39.9898 104.98 33.3198Z" fill="#F6F4D4"/>
<path d="M33.03 151.12C28.86 149.71 23.91 153.69 24.38 158.06C24.85 162.43 30.54 165.26 34.31 163C38.08 160.75 38.88 153.1 33.03 151.12Z" fill="#F6F4D4"/>
<path d="M37.73 365.66C38.5 367.1 40.43 367.79 41.94 367.17C43.45 366.55 44.33 364.7 43.86 363.13C38.34 344.75 32.82 326.36 27.3 307.98C29.42 327.79 33.06 347.44 37.73 365.66Z" fill="#F6F4D4"/>
<path d="M832.1 41.6499C857.92 68.8799 870.08 108.48 863.98 145.51C863.57 148 865.45 150.64 867.94 151.06C870.43 151.48 873.07 149.62 873.51 147.13C880.39 107.9 864.75 65.4899 832.1 41.6499Z" fill="#F6F4D4"/>
<path d="M863.39 324.4C859.89 336.05 856.4 347.7 852.9 359.35C852.15 361.86 853.98 364.81 856.56 365.25C859.14 365.69 861.85 363.52 861.97 360.9C862.59 348.19 863.21 335.47 863.39 324.4Z" fill="#F6F4D4"/>
<path d="M439.57 54.45C438.73 87.54 437.89 120.63 437.05 153.71C445.75 119.25 446.76 82.87 439.57 54.45Z" fill="#F6F4D4"/>
<path d="M478.54 246.52C479.36 269.17 480.18 291.82 481 314.47C485.68 290.4 485.32 265.37 478.54 246.52Z" fill="#F6F4D4"/>
<path d="M201.94 28.4799C263.12 26.5299 324.42 28.6599 385.31 34.8599C324.88 19.0899 261.04 16.5099 201.94 28.4799Z" fill="#F6F4D4"/>
<path d="M1183.32 82.1099C1184.65 100.42 1185.97 118.73 1187.3 137.04C1187.36 137.86 1188.17 138.54 1188.99 138.46C1189.81 138.38 1190.47 137.55 1190.37 136.74C1188.13 118.51 1185.9 100.29 1183.32 82.1099Z" fill="#E6988E"/>
<path d="M1189.53 142.5C1188.14 142.62 1187.21 144.42 1187.91 145.63C1188.62 146.84 1190.64 146.91 1191.43 145.76C1192.23 144.6 1191.43 142.74 1189.53 142.5Z" fill="#E6988E"/>
<path d="M1195.38 161.33C1195.34 163.64 1195.3 165.95 1195.26 168.27C1195.23 170.15 1197 171.66 1198.85 171.99C1200.7 172.32 1202.58 171.77 1204.36 171.2C1201.85 171.85 1199.01 170.98 1197.3 169.03C1195.6 167.08 1195.67 161.84 1195.38 161.33Z" fill="#E6988E"/>
<path d="M1190.72 81.0398C1220.32 84.3498 1250.3 84.2498 1279.87 80.7298C1249.79 80.6998 1219.71 80.6698 1190.72 81.0398Z" fill="#E6988E"/>
<path d="M1252.7 229H1005V386.7H1252.7V229Z" fill="#C9CF76"/>
<path d="M1109.2 295.3H1147V274.8H1172V250.1H1100.7L1083.9 274.8H1109.2V295.3Z" fill="#08151B"/>
<path d="M1147 316.9H1109.2V337.3H1083.9V362H1155.9L1172 337.3H1147V316.9Z" fill="#08151B"/>
<path d="M1172 270.6C1172.55 270.6 1173 270.197 1173 269.7C1173 269.203 1172.55 268.8 1172 268.8C1171.45 268.8 1171 269.203 1171 269.7C1171 270.197 1171.45 270.6 1172 270.6Z" stroke="#F6F4D2" stroke-width="6" stroke-miterlimit="10" stroke-linecap="round"/>
<path d="M1172 275.6C1172.55 275.6 1173 275.197 1173 274.7C1173 274.203 1172.55 273.8 1172 273.8C1171.45 273.8 1171 274.203 1171 274.7C1171 275.197 1171.45 275.6 1172 275.6Z" stroke="#F6F4D2" stroke-width="6" stroke-miterlimit="10" stroke-linecap="round"/>
<path d="M1168.9 275.6C1169.45 275.6 1169.9 275.197 1169.9 274.7C1169.9 274.203 1169.45 273.8 1168.9 273.8C1168.35 273.8 1167.9 274.203 1167.9 274.7C1167.9 275.197 1168.35 275.6 1168.9 275.6Z" stroke="#F6F4D2" stroke-width="6" stroke-miterlimit="10" stroke-linecap="round"/>
<path d="M1165.2 275.6C1165.75 275.6 1166.2 275.197 1166.2 274.7C1166.2 274.203 1165.75 273.8 1165.2 273.8C1164.65 273.8 1164.2 274.203 1164.2 274.7C1164.2 275.197 1164.65 275.6 1165.2 275.6Z" stroke="#F6F4D2" stroke-width="6" stroke-miterlimit="10" stroke-linecap="round"/>
<path d="M1161.8 275.6C1162.35 275.6 1162.8 275.197 1162.8 274.7C1162.8 274.203 1162.35 273.8 1161.8 273.8C1161.25 273.8 1160.8 274.203 1160.8 274.7C1160.8 275.197 1161.25 275.6 1161.8 275.6Z" stroke="#F6F4D2" stroke-width="6" stroke-miterlimit="10" stroke-linecap="round"/>
<path d="M1157.9 275.6C1158.45 275.6 1158.9 275.197 1158.9 274.7C1158.9 274.203 1158.45 273.8 1157.9 273.8C1157.35 273.8 1156.9 274.203 1156.9 274.7C1156.9 275.197 1157.35 275.6 1157.9 275.6Z" stroke="#F6F4D2" stroke-width="6" stroke-miterlimit="10" stroke-linecap="round"/>
<path d="M1154.2 275.6C1154.75 275.6 1155.2 275.197 1155.2 274.7C1155.2 274.203 1154.75 273.8 1154.2 273.8C1153.65 273.8 1153.2 274.203 1153.2 274.7C1153.2 275.197 1153.65 275.6 1154.2 275.6Z" stroke="#F6F4D2" stroke-width="6" stroke-miterlimit="10" stroke-linecap="round"/>
<path d="M1150.8 275.6C1151.35 275.6 1151.8 275.197 1151.8 274.7C1151.8 274.203 1151.35 273.8 1150.8 273.8C1150.25 273.8 1149.8 274.203 1149.8 274.7C1149.8 275.197 1150.25 275.6 1150.8 275.6Z" stroke="#F6F4D2" stroke-width="6" stroke-miterlimit="10" stroke-linecap="round"/>
<path d="M1147.2 281.6C1147.75 281.6 1148.2 281.197 1148.2 280.7C1148.2 280.203 1147.75 279.8 1147.2 279.8C1146.65 279.8 1146.2 280.203 1146.2 280.7C1146.2 281.197 1146.65 281.6 1147.2 281.6Z" stroke="#F6F4D2" stroke-width="6" stroke-miterlimit="10" stroke-linecap="round"/>
<path d="M1147.2 278.4C1147.75 278.4 1148.2 277.997 1148.2 277.5C1148.2 277.003 1147.75 276.6 1147.2 276.6C1146.65 276.6 1146.2 277.003 1146.2 277.5C1146.2 277.997 1146.65 278.4 1147.2 278.4Z" stroke="#F6F4D2" stroke-width="6" stroke-miterlimit="10" stroke-linecap="round"/>
<path d="M1147.2 275.6C1147.75 275.6 1148.2 275.197 1148.2 274.7C1148.2 274.203 1147.75 273.8 1147.2 273.8C1146.65 273.8 1146.2 274.203 1146.2 274.7C1146.2 275.197 1146.65 275.6 1147.2 275.6Z" stroke="#F6F4D2" stroke-width="6" stroke-miterlimit="10" stroke-linecap="round"/>
<path d="M1147.2 291.1C1147.75 291.1 1148.2 290.697 1148.2 290.2C1148.2 289.703 1147.75 289.3 1147.2 289.3C1146.65 289.3 1146.2 289.703 1146.2 290.2C1146.2 290.697 1146.65 291.1 1147.2 291.1Z" stroke="#F6F4D2" stroke-width="6" stroke-miterlimit="10" stroke-linecap="round"/>
<path d="M1147.2 287.9C1147.75 287.9 1148.2 287.497 1148.2 287C1148.2 286.503 1147.75 286.1 1147.2 286.1C1146.65 286.1 1146.2 286.503 1146.2 287C1146.2 287.497 1146.65 287.9 1147.2 287.9Z" stroke="#F6F4D2" stroke-width="6" stroke-miterlimit="10" stroke-linecap="round"/>
<path d="M1147.2 285.1C1147.75 285.1 1148.2 284.697 1148.2 284.2C1148.2 283.703 1147.75 283.3 1147.2 283.3C1146.65 283.3 1146.2 283.703 1146.2 284.2C1146.2 284.697 1146.65 285.1 1147.2 285.1Z" stroke="#F6F4D2" stroke-width="6" stroke-miterlimit="10" stroke-linecap="round"/>
<path d="M1147.2 294.2C1147.75 294.2 1148.2 293.797 1148.2 293.3C1148.2 292.803 1147.75 292.4 1147.2 292.4C1146.65 292.4 1146.2 292.803 1146.2 293.3C1146.2 293.797 1146.65 294.2 1147.2 294.2Z" stroke="#F6F4D2" stroke-width="6" stroke-miterlimit="10" stroke-linecap="round"/>
<path d="M1147.2 325.2C1147.75 325.2 1148.2 324.797 1148.2 324.3C1148.2 323.803 1147.75 323.4 1147.2 323.4C1146.65 323.4 1146.2 323.803 1146.2 324.3C1146.2 324.797 1146.65 325.2 1147.2 325.2Z" stroke="#F6F4D2" stroke-width="6" stroke-miterlimit="10" stroke-linecap="round"/>
<path d="M1147.2 322C1147.75 322 1148.2 321.597 1148.2 321.1C1148.2 320.603 1147.75 320.2 1147.2 320.2C1146.65 320.2 1146.2 320.603 1146.2 321.1C1146.2 321.597 1146.65 322 1147.2 322Z" stroke="#F6F4D2" stroke-width="6" stroke-miterlimit="10" stroke-linecap="round"/>
<path d="M1147.2 319.2C1147.75 319.2 1148.2 318.797 1148.2 318.3C1148.2 317.803 1147.75 317.4 1147.2 317.4C1146.65 317.4 1146.2 317.803 1146.2 318.3C1146.2 318.797 1146.65 319.2 1147.2 319.2Z" stroke="#F6F4D2" stroke-width="6" stroke-miterlimit="10" stroke-linecap="round"/>
<path d="M1147.2 334.7C1147.75 334.7 1148.2 334.297 1148.2 333.8C1148.2 333.303 1147.75 332.9 1147.2 332.9C1146.65 332.9 1146.2 333.303 1146.2 333.8C1146.2 334.297 1146.65 334.7 1147.2 334.7Z" stroke="#F6F4D2" stroke-width="6" stroke-miterlimit="10" stroke-linecap="round"/>
<path d="M1147.2 331.5C1147.75 331.5 1148.2 331.097 1148.2 330.6C1148.2 330.103 1147.75 329.7 1147.2 329.7C1146.65 329.7 1146.2 330.103 1146.2 330.6C1146.2 331.097 1146.65 331.5 1147.2 331.5Z" stroke="#F6F4D2" stroke-width="6" stroke-miterlimit="10" stroke-linecap="round"/>
<path d="M1147.2 328.7C1147.75 328.7 1148.2 328.297 1148.2 327.8C1148.2 327.303 1147.75 326.9 1147.2 326.9C1146.65 326.9 1146.2 327.303 1146.2 327.8C1146.2 328.297 1146.65 328.7 1147.2 328.7Z" stroke="#F6F4D2" stroke-width="6" stroke-miterlimit="10" stroke-linecap="round"/>
<path d="M1147.2 337.8C1147.75 337.8 1148.2 337.397 1148.2 336.9C1148.2 336.403 1147.75 336 1147.2 336C1146.65 336 1146.2 336.403 1146.2 336.9C1146.2 337.397 1146.65 337.8 1147.2 337.8Z" stroke="#F6F4D2" stroke-width="6" stroke-miterlimit="10" stroke-linecap="round"/>
<path d="M1109.7 281.8C1110.25 281.8 1110.7 281.397 1110.7 280.9C1110.7 280.403 1110.25 280 1109.7 280C1109.15 280 1108.7 280.403 1108.7 280.9C1108.7 281.397 1109.15 281.8 1109.7 281.8Z" stroke="#F6F4D2" stroke-width="6" stroke-miterlimit="10" stroke-linecap="round"/>
<path d="M1109.7 278.6C1110.25 278.6 1110.7 278.197 1110.7 277.7C1110.7 277.203 1110.25 276.8 1109.7 276.8C1109.15 276.8 1108.7 277.203 1108.7 277.7C1108.7 278.197 1109.15 278.6 1109.7 278.6Z" stroke="#F6F4D2" stroke-width="6" stroke-miterlimit="10" stroke-linecap="round"/>
<path d="M1109.7 275.7C1110.25 275.7 1110.7 275.297 1110.7 274.8C1110.7 274.303 1110.25 273.9 1109.7 273.9C1109.15 273.9 1108.7 274.303 1108.7 274.8C1108.7 275.297 1109.15 275.7 1109.7 275.7Z" stroke="#F6F4D2" stroke-width="6" stroke-miterlimit="10" stroke-linecap="round"/>
<path d="M1109.7 291.3C1110.25 291.3 1110.7 290.897 1110.7 290.4C1110.7 289.903 1110.25 289.5 1109.7 289.5C1109.15 289.5 1108.7 289.903 1108.7 290.4C1108.7 290.897 1109.15 291.3 1109.7 291.3Z" stroke="#F6F4D2" stroke-width="6" stroke-miterlimit="10" stroke-linecap="round"/>
<path d="M1109.7 288.1C1110.25 288.1 1110.7 287.697 1110.7 287.2C1110.7 286.703 1110.25 286.3 1109.7 286.3C1109.15 286.3 1108.7 286.703 1108.7 287.2C1108.7 287.697 1109.15 288.1 1109.7 288.1Z" stroke="#F6F4D2" stroke-width="6" stroke-miterlimit="10" stroke-linecap="round"/>
<path d="M1109.7 285.2C1110.25 285.2 1110.7 284.797 1110.7 284.3C1110.7 283.803 1110.25 283.4 1109.7 283.4C1109.15 283.4 1108.7 283.803 1108.7 284.3C1108.7 284.797 1109.15 285.2 1109.7 285.2Z" stroke="#F6F4D2" stroke-width="6" stroke-miterlimit="10" stroke-linecap="round"/>
<path d="M1109.7 294.3C1110.25 294.3 1110.7 293.897 1110.7 293.4C1110.7 292.903 1110.25 292.5 1109.7 292.5C1109.15 292.5 1108.7 292.903 1108.7 293.4C1108.7 293.897 1109.15 294.3 1109.7 294.3Z" stroke="#F6F4D2" stroke-width="6" stroke-miterlimit="10" stroke-linecap="round"/>
<path d="M1165.2 337.8C1165.75 337.8 1166.2 337.397 1166.2 336.9C1166.2 336.403 1165.75 336 1165.2 336C1164.65 336 1164.2 336.403 1164.2 336.9C1164.2 337.397 1164.65 337.8 1165.2 337.8Z" stroke="#F6F4D2" stroke-width="6" stroke-miterlimit="10" stroke-linecap="round"/>
<path d="M1168.9 337.8C1169.45 337.8 1169.9 337.397 1169.9 336.9C1169.9 336.403 1169.45 336 1168.9 336C1168.35 336 1167.9 336.403 1167.9 336.9C1167.9 337.397 1168.35 337.8 1168.9 337.8Z" stroke="#F6F4D2" stroke-width="6" stroke-miterlimit="10" stroke-linecap="round"/>
<path d="M1154.1 337.8C1154.65 337.8 1155.1 337.397 1155.1 336.9C1155.1 336.403 1154.65 336 1154.1 336C1153.55 336 1153.1 336.403 1153.1 336.9C1153.1 337.397 1153.55 337.8 1154.1 337.8Z" stroke="#F6F4D2" stroke-width="6" stroke-miterlimit="10" stroke-linecap="round"/>
<path d="M1157.8 337.8C1158.35 337.8 1158.8 337.397 1158.8 336.9C1158.8 336.403 1158.35 336 1157.8 336C1157.25 336 1156.8 336.403 1156.8 336.9C1156.8 337.397 1157.25 337.8 1157.8 337.8Z" stroke="#F6F4D2" stroke-width="6" stroke-miterlimit="10" stroke-linecap="round"/>
<path d="M1161.1 337.8C1161.65 337.8 1162.1 337.397 1162.1 336.9C1162.1 336.403 1161.65 336 1161.1 336C1160.55 336 1160.1 336.403 1160.1 336.9C1160.1 337.397 1160.55 337.8 1161.1 337.8Z" stroke="#F6F4D2" stroke-width="6" stroke-miterlimit="10" stroke-linecap="round"/>
<path d="M1150.5 337.8C1151.05 337.8 1151.5 337.397 1151.5 336.9C1151.5 336.403 1151.05 336 1150.5 336C1149.95 336 1149.5 336.403 1149.5 336.9C1149.5 337.397 1149.95 337.8 1150.5 337.8Z" stroke="#F6F4D2" stroke-width="6" stroke-miterlimit="10" stroke-linecap="round"/>
<path d="M1102.9 275.6C1103.45 275.6 1103.9 275.197 1103.9 274.7C1103.9 274.203 1103.45 273.8 1102.9 273.8C1102.35 273.8 1101.9 274.203 1101.9 274.7C1101.9 275.197 1102.35 275.6 1102.9 275.6Z" stroke="#F6F4D2" stroke-width="6" stroke-miterlimit="10" stroke-linecap="round"/>
<path d="M1106.6 275.6C1107.15 275.6 1107.6 275.197 1107.6 274.7C1107.6 274.203 1107.15 273.8 1106.6 273.8C1106.05 273.8 1105.6 274.203 1105.6 274.7C1105.6 275.197 1106.05 275.6 1106.6 275.6Z" stroke="#F6F4D2" stroke-width="6" stroke-miterlimit="10" stroke-linecap="round"/>
<path d="M1091.8 275.6C1092.35 275.6 1092.8 275.197 1092.8 274.7C1092.8 274.203 1092.35 273.8 1091.8 273.8C1091.25 273.8 1090.8 274.203 1090.8 274.7C1090.8 275.197 1091.25 275.6 1091.8 275.6Z" stroke="#F6F4D2" stroke-width="6" stroke-miterlimit="10" stroke-linecap="round"/>
<path d="M1095.5 275.6C1096.05 275.6 1096.5 275.197 1096.5 274.7C1096.5 274.203 1096.05 273.8 1095.5 273.8C1094.95 273.8 1094.5 274.203 1094.5 274.7C1094.5 275.197 1094.95 275.6 1095.5 275.6Z" stroke="#F6F4D2" stroke-width="6" stroke-miterlimit="10" stroke-linecap="round"/>
<path d="M1098.9 275.6C1099.45 275.6 1099.9 275.197 1099.9 274.7C1099.9 274.203 1099.45 273.8 1098.9 273.8C1098.35 273.8 1097.9 274.203 1097.9 274.7C1097.9 275.197 1098.35 275.6 1098.9 275.6Z" stroke="#F6F4D2" stroke-width="6" stroke-miterlimit="10" stroke-linecap="round"/>
<path d="M1088.2 275.6C1088.75 275.6 1089.2 275.197 1089.2 274.7C1089.2 274.203 1088.75 273.8 1088.2 273.8C1087.65 273.8 1087.2 274.203 1087.2 274.7C1087.2 275.197 1087.65 275.6 1088.2 275.6Z" stroke="#F6F4D2" stroke-width="6" stroke-miterlimit="10" stroke-linecap="round"/>
<path d="M1113.8 251.9C1114.35 251.9 1114.8 251.497 1114.8 251C1114.8 250.503 1114.35 250.1 1113.8 250.1C1113.25 250.1 1112.8 250.503 1112.8 251C1112.8 251.497 1113.25 251.9 1113.8 251.9Z" stroke="#F6F4D2" stroke-width="6" stroke-miterlimit="10" stroke-linecap="round"/>
<path d="M1117.5 251.9C1118.05 251.9 1118.5 251.497 1118.5 251C1118.5 250.503 1118.05 250.1 1117.5 250.1C1116.95 250.1 1116.5 250.503 1116.5 251C1116.5 251.497 1116.95 251.9 1117.5 251.9Z" stroke="#F6F4D2" stroke-width="6" stroke-miterlimit="10" stroke-linecap="round"/>
<path d="M1120.9 251.9C1121.45 251.9 1121.9 251.497 1121.9 251C1121.9 250.503 1121.45 250.1 1120.9 250.1C1120.35 250.1 1119.9 250.503 1119.9 251C1119.9 251.497 1120.35 251.9 1120.9 251.9Z" stroke="#F6F4D2" stroke-width="6" stroke-miterlimit="10" stroke-linecap="round"/>
<path d="M1102.7 251.9C1103.25 251.9 1103.7 251.497 1103.7 251C1103.7 250.503 1103.25 250.1 1102.7 250.1C1102.15 250.1 1101.7 250.503 1101.7 251C1101.7 251.497 1102.15 251.9 1102.7 251.9Z" stroke="#F6F4D2" stroke-width="6" stroke-miterlimit="10" stroke-linecap="round"/>
<path d="M1106.4 251.9C1106.95 251.9 1107.4 251.497 1107.4 251C1107.4 250.503 1106.95 250.1 1106.4 250.1C1105.85 250.1 1105.4 250.503 1105.4 251C1105.4 251.497 1105.85 251.9 1106.4 251.9Z" stroke="#F6F4D2" stroke-width="6" stroke-miterlimit="10" stroke-linecap="round"/>
<path d="M1109.8 251.9C1110.35 251.9 1110.8 251.497 1110.8 251C1110.8 250.503 1110.35 250.1 1109.8 250.1C1109.25 250.1 1108.8 250.503 1108.8 251C1108.8 251.497 1109.25 251.9 1109.8 251.9Z" stroke="#F6F4D2" stroke-width="6" stroke-miterlimit="10" stroke-linecap="round"/>
<path d="M1099.1 251.9C1099.65 251.9 1100.1 251.497 1100.1 251C1100.1 250.503 1099.65 250.1 1099.1 250.1C1098.55 250.1 1098.1 250.503 1098.1 251C1098.1 251.497 1098.55 251.9 1099.1 251.9Z" stroke="#F6F4D2" stroke-width="6" stroke-miterlimit="10" stroke-linecap="round"/>
<path d="M1139 251.9C1139.55 251.9 1140 251.497 1140 251C1140 250.503 1139.55 250.1 1139 250.1C1138.45 250.1 1138 250.503 1138 251C1138 251.497 1138.45 251.9 1139 251.9Z" stroke="#F6F4D2" stroke-width="6" stroke-miterlimit="10" stroke-linecap="round"/>
<path d="M1142.7 251.9C1143.25 251.9 1143.7 251.497 1143.7 251C1143.7 250.503 1143.25 250.1 1142.7 250.1C1142.15 250.1 1141.7 250.503 1141.7 251C1141.7 251.497 1142.15 251.9 1142.7 251.9Z" stroke="#F6F4D2" stroke-width="6" stroke-miterlimit="10" stroke-linecap="round"/>
<path d="M1146.1 251.9C1146.65 251.9 1147.1 251.497 1147.1 251C1147.1 250.503 1146.65 250.1 1146.1 250.1C1145.55 250.1 1145.1 250.503 1145.1 251C1145.1 251.497 1145.55 251.9 1146.1 251.9Z" stroke="#F6F4D2" stroke-width="6" stroke-miterlimit="10" stroke-linecap="round"/>
<path d="M1127.9 251.9C1128.45 251.9 1128.9 251.497 1128.9 251C1128.9 250.503 1128.45 250.1 1127.9 250.1C1127.35 250.1 1126.9 250.503 1126.9 251C1126.9 251.497 1127.35 251.9 1127.9 251.9Z" stroke="#F6F4D2" stroke-width="6" stroke-miterlimit="10" stroke-linecap="round"/>
<path d="M1131.6 251.9C1132.15 251.9 1132.6 251.497 1132.6 251C1132.6 250.503 1132.15 250.1 1131.6 250.1C1131.05 250.1 1130.6 250.503 1130.6 251C1130.6 251.497 1131.05 251.9 1131.6 251.9Z" stroke="#F6F4D2" stroke-width="6" stroke-miterlimit="10" stroke-linecap="round"/>
<path d="M1135 251.9C1135.55 251.9 1136 251.497 1136 251C1136 250.503 1135.55 250.1 1135 250.1C1134.45 250.1 1134 250.503 1134 251C1134 251.497 1134.45 251.9 1135 251.9Z" stroke="#F6F4D2" stroke-width="6" stroke-miterlimit="10" stroke-linecap="round"/>
<path d="M1124.3 251.9C1124.85 251.9 1125.3 251.497 1125.3 251C1125.3 250.503 1124.85 250.1 1124.3 250.1C1123.75 250.1 1123.3 250.503 1123.3 251C1123.3 251.497 1123.75 251.9 1124.3 251.9Z" stroke="#F6F4D2" stroke-width="6" stroke-miterlimit="10" stroke-linecap="round"/>
<path d="M1164.4 251.9C1164.95 251.9 1165.4 251.497 1165.4 251C1165.4 250.503 1164.95 250.1 1164.4 250.1C1163.85 250.1 1163.4 250.503 1163.4 251C1163.4 251.497 1163.85 251.9 1164.4 251.9Z" stroke="#F6F4D2" stroke-width="6" stroke-miterlimit="10" stroke-linecap="round"/>
<path d="M1168.1 251.9C1168.65 251.9 1169.1 251.497 1169.1 251C1169.1 250.503 1168.65 250.1 1168.1 250.1C1167.55 250.1 1167.1 250.503 1167.1 251C1167.1 251.497 1167.55 251.9 1168.1 251.9Z" stroke="#F6F4D2" stroke-width="6" stroke-miterlimit="10" stroke-linecap="round"/>
<path d="M1172 251.9C1172.55 251.9 1173 251.497 1173 251C1173 250.503 1172.55 250.1 1172 250.1C1171.45 250.1 1171 250.503 1171 251C1171 251.497 1171.45 251.9 1172 251.9Z" stroke="#F6F4D2" stroke-width="6" stroke-miterlimit="10" stroke-linecap="round"/>
<path d="M1153.3 251.9C1153.85 251.9 1154.3 251.497 1154.3 251C1154.3 250.503 1153.85 250.1 1153.3 250.1C1152.75 250.1 1152.3 250.503 1152.3 251C1152.3 251.497 1152.75 251.9 1153.3 251.9Z" stroke="#F6F4D2" stroke-width="6" stroke-miterlimit="10" stroke-linecap="round"/>
<path d="M1157 251.9C1157.55 251.9 1158 251.497 1158 251C1158 250.503 1157.55 250.1 1157 250.1C1156.45 250.1 1156 250.503 1156 251C1156 251.497 1156.45 251.9 1157 251.9Z" stroke="#F6F4D2" stroke-width="6" stroke-miterlimit="10" stroke-linecap="round"/>
<path d="M1160.3 251.9C1160.85 251.9 1161.3 251.497 1161.3 251C1161.3 250.503 1160.85 250.1 1160.3 250.1C1159.75 250.1 1159.3 250.503 1159.3 251C1159.3 251.497 1159.75 251.9 1160.3 251.9Z" stroke="#F6F4D2" stroke-width="6" stroke-miterlimit="10" stroke-linecap="round"/>
<path d="M1149.7 251.9C1150.25 251.9 1150.7 251.497 1150.7 251C1150.7 250.503 1150.25 250.1 1149.7 250.1C1149.15 250.1 1148.7 250.503 1148.7 251C1148.7 251.497 1149.15 251.9 1149.7 251.9Z" stroke="#F6F4D2" stroke-width="6" stroke-miterlimit="10" stroke-linecap="round"/>
<path d="M1088.9 267C1089.45 267 1089.9 266.597 1089.9 266.1C1089.9 265.603 1089.45 265.2 1088.9 265.2C1088.35 265.2 1087.9 265.603 1087.9 266.1C1087.9 266.597 1088.35 267 1088.9 267Z" stroke="#F6F4D2" stroke-width="6" stroke-miterlimit="10" stroke-linecap="round"/>
<path d="M1090.5 264.2C1091.05 264.2 1091.5 263.797 1091.5 263.3C1091.5 262.803 1091.05 262.4 1090.5 262.4C1089.95 262.4 1089.5 262.803 1089.5 263.3C1089.5 263.797 1089.95 264.2 1090.5 264.2Z" stroke="#F6F4D2" stroke-width="6" stroke-miterlimit="10" stroke-linecap="round"/>
<path d="M1092 261.6C1092.55 261.6 1093 261.197 1093 260.7C1093 260.203 1092.55 259.8 1092 259.8C1091.45 259.8 1091 260.203 1091 260.7C1091 261.197 1091.45 261.6 1092 261.6Z" stroke="#F6F4D2" stroke-width="6" stroke-miterlimit="10" stroke-linecap="round"/>
<path d="M1093.6 258.8C1094.15 258.8 1094.6 258.397 1094.6 257.9C1094.6 257.403 1094.15 257 1093.6 257C1093.05 257 1092.6 257.403 1092.6 257.9C1092.6 258.397 1093.05 258.8 1093.6 258.8Z" stroke="#F6F4D2" stroke-width="6" stroke-miterlimit="10" stroke-linecap="round"/>
<path d="M1095.1 256.2C1095.65 256.2 1096.1 255.797 1096.1 255.3C1096.1 254.803 1095.65 254.4 1095.1 254.4C1094.55 254.4 1094.1 254.803 1094.1 255.3C1094.1 255.797 1094.55 256.2 1095.1 256.2Z" stroke="#F6F4D2" stroke-width="6" stroke-miterlimit="10" stroke-linecap="round"/>
<path d="M1084 275.6C1084.55 275.6 1085 275.197 1085 274.7C1085 274.203 1084.55 273.8 1084 273.8C1083.45 273.8 1083 274.203 1083 274.7C1083 275.197 1083.45 275.6 1084 275.6Z" stroke="#F6F4D2" stroke-width="6" stroke-miterlimit="10" stroke-linecap="round"/>
<path d="M1085.7 272.7C1086.25 272.7 1086.7 272.297 1086.7 271.8C1086.7 271.303 1086.25 270.9 1085.7 270.9C1085.15 270.9 1084.7 271.303 1084.7 271.8C1084.7 272.297 1085.15 272.7 1085.7 272.7Z" stroke="#F6F4D2" stroke-width="6" stroke-miterlimit="10" stroke-linecap="round"/>
<path d="M1087.1 270.2C1087.65 270.2 1088.1 269.797 1088.1 269.3C1088.1 268.803 1087.65 268.4 1087.1 268.4C1086.55 268.4 1086.1 268.803 1086.1 269.3C1086.1 269.797 1086.55 270.2 1087.1 270.2Z" stroke="#F6F4D2" stroke-width="6" stroke-miterlimit="10" stroke-linecap="round"/>
<path d="M1172 267.4C1172.55 267.4 1173 266.997 1173 266.5C1173 266.003 1172.55 265.6 1172 265.6C1171.45 265.6 1171 266.003 1171 266.5C1171 266.997 1171.45 267.4 1172 267.4Z" stroke="#F6F4D2" stroke-width="6" stroke-miterlimit="10" stroke-linecap="round"/>
<path d="M1193.6 318.9L1186.4 316.4C1185 315.9 1183.4 316.4 1182.8 317.6L1170.7 337.9C1170.4 338.3 1171 338.8 1171.5 338.6L1195.3 328.2C1196.7 327.6 1197.1 326.2 1196.5 325L1193.6 318.9Z" fill="#E7988C"/>
<path d="M1195.5 311.5L1202.3 317.3C1202.6 317.6 1202.4 318 1202 318.1L1193.6 319L1194.8 311.7C1194.9 311.4 1195.3 311.3 1195.5 311.5Z" fill="#E7988C"/>
<path d="M1202.3 317.3L1201.8 316.9C1201.7 317 1201.6 317.1 1201.4 317.1L1193.8 317.9L1193.6 319L1202 318.1C1202.5 318 1202.6 317.6 1202.3 317.3Z" fill="#A44A3F"/>
<path d="M1195.3 326.7L1171.5 337.1C1171.4 337.2 1171.2 337.2 1171.1 337.2L1170.7 337.9C1170.4 338.3 1171 338.8 1171.5 338.6L1195.3 328.2C1196.5 327.7 1197 326.5 1196.6 325.4C1196.4 325.9 1196 326.4 1195.3 326.7Z" fill="#A44A3F"/>
<path d="M1172.9 334.1L1175.8 336.6L1171.4 338.6C1170.9 338.8 1170.3 338.4 1170.6 337.9L1172.9 334.1Z" fill="#E7988C"/>
<path d="M1174.7 335.7L1171 337.4L1170.7 337.9C1170.7 338 1170.6 338 1170.6 338.1C1170.5 338.5 1171 338.8 1171.5 338.6L1175.9 336.7L1174.7 335.7Z" fill="#A44A3F"/>
<path d="M1175.8 336.6L1177.8 335.8L1173.9 332.5L1172.9 334.1" fill="#F6F4D2"/>
<path d="M1177.8 335.8L1175.8 336.6L1174.7 335.7L1176.6 334.8L1177.8 335.8Z" fill="#E8D7A5"/>
<path d="M1172 261.4C1172.55 261.4 1173 260.997 1173 260.5C1173 260.003 1172.55 259.6 1172 259.6C1171.45 259.6 1171 260.003 1171 260.5C1171 260.997 1171.45 261.4 1172 261.4Z" stroke="#F6F4D2" stroke-width="6" stroke-miterlimit="10" stroke-linecap="round"/>
<path d="M1172 264.3C1172.55 264.3 1173 263.897 1173 263.4C1173 262.903 1172.55 262.5 1172 262.5C1171.45 262.5 1171 262.903 1171 263.4C1171 263.897 1171.45 264.3 1172 264.3Z" stroke="#F6F4D2" stroke-width="6" stroke-miterlimit="10" stroke-linecap="round"/>
<path d="M1172 258.2C1172.55 258.2 1173 257.797 1173 257.3C1173 256.803 1172.55 256.4 1172 256.4C1171.45 256.4 1171 256.803 1171 257.3C1171 257.797 1171.45 258.2 1172 258.2Z" stroke="#F6F4D2" stroke-width="6" stroke-miterlimit="10" stroke-linecap="round"/>
<path d="M1172 254.7C1172.55 254.7 1173 254.297 1173 253.8C1173 253.303 1172.55 252.9 1172 252.9C1171.45 252.9 1171 253.303 1171 253.8C1171 254.297 1171.45 254.7 1172 254.7Z" stroke="#F6F4D2" stroke-width="6" stroke-miterlimit="10" stroke-linecap="round"/>
<path d="M1172 273.6C1172.55 273.6 1173 273.197 1173 272.7C1173 272.203 1172.55 271.8 1172 271.8C1171.45 271.8 1171 272.203 1171 272.7C1171 273.197 1171.45 273.6 1172 273.6Z" stroke="#F6F4D2" stroke-width="6" stroke-miterlimit="10" stroke-linecap="round"/>
<path d="M1097.1 253.6C1097.65 253.6 1098.1 253.197 1098.1 252.7C1098.1 252.203 1097.65 251.8 1097.1 251.8C1096.55 251.8 1096.1 252.203 1096.1 252.7C1096.1 253.197 1096.55 253.6 1097.1 253.6Z" stroke="#F6F4D2" stroke-width="6" stroke-miterlimit="10" stroke-linecap="round"/>
</svg>
