<svg width="1440" height="249" viewBox="0 0 1440 249" fill="none" xmlns="http://www.w3.org/2000/svg">
<path d="M692.136 589.565H1439.71L1440.73 267.404L735.366 265.852L624.598 206.584L622.56 457.625L692.136 589.565Z" fill="#E8D7A8"/>
<path d="M735.366 265.569L1440.73 267.404V243.415V206.584H624.598" fill="#F6F4D4"/>
<path d="M735.366 265.569L624.598 206.584H1440.73" fill="#F6F4D4"/>
<path d="M735.366 265.569L624.598 206.584H1440.73" stroke="#E8D7A8" stroke-miterlimit="10"/>
<path d="M1325.88 214.204H1170.72V242.709H1325.88V214.204Z" fill="#A34B42"/>
<path d="M1148.45 107.805L1156.46 214.204H1343.5L1356.74 107.805H1148.45Z" fill="#9A242B"/>
<path opacity="0.5" d="M-518.013 75.6307C-449.748 -4.38051 -123.995 2.2518 87.6431 4.08627C348.188 6.4852 635.223 -14.6818 698.976 75.6307C779.178 189.086 724.157 376.202 694.464 544.127H-519.469C-558.187 425.168 -590.791 160.863 -518.013 75.6307Z" fill="#D9ECD8" stroke="#C76931" stroke-width="6" stroke-miterlimit="10"/>
<path d="M615.719 32.7324L614.409 227.469L613.536 443.372L625.617 458.471L629.255 36.2603L615.719 32.7324Z" fill="#C76931"/>
<path d="M612.08 224.364H-409.575L-521.798 321.874H692.135L612.08 224.364Z" fill="#F6F4D4" stroke="#E8D7A8" stroke-width="2" stroke-miterlimit="10"/>
<path d="M90.4087 9.87207L93.3198 544.127H115.59V9.87207H90.4087Z" fill="#C76931"/>
<path d="M290.111 285.607C289.238 285.607 289.092 284.337 289.092 284.337C289.092 284.337 283.27 241.862 284.143 239.604C285.017 237.347 346.587 237.629 358.231 239.322C362.743 240.028 357.94 281.515 355.465 284.196C353.282 286.454 299.427 285.889 290.111 285.607Z" fill="#ED9B22"/>
<path d="M358.231 239.322C350.953 238.334 324.025 237.77 304.667 238.052C304.667 238.193 304.667 238.193 304.667 238.334C305.54 242.568 307.578 244.261 307.578 244.261C307.578 244.261 318.64 230.855 323.734 233.113C328.829 235.371 350.371 236.359 354.592 235.23C358.959 234.101 356.048 236.782 358.231 239.322C360.56 241.721 353.573 271.919 348.915 277.423C344.403 282.644 308.742 285.184 288.801 281.938C288.946 283.491 289.092 284.478 289.092 284.478C289.092 284.478 289.238 285.748 290.111 285.748C299.427 286.031 353.428 286.736 355.611 284.337C357.94 281.515 362.889 239.887 358.231 239.322Z" fill="#C26028"/>
<path d="M285.308 254.139C285.308 254.139 285.89 242.427 290.111 242.145C294.187 241.862 294.623 250.188 303.066 247.084C311.508 243.838 308.306 239.181 319.077 242.427C329.848 245.672 331.303 251.035 339.6 246.378C347.751 241.721 351.681 240.451 354.447 244.685C357.212 248.918 357.649 257.385 362.016 254.986C366.382 252.587 367.692 230.009 359.541 226.763C351.39 223.518 287.2 220.413 280.941 225.775C274.537 231.138 276.429 254.563 285.308 254.139Z" fill="#E7D6A4"/>
<path d="M322.133 213.216C322.133 213.216 320.096 203.621 329.557 199.669C329.557 199.669 333.341 199.811 330.43 202.209C327.519 204.608 324.608 205.032 323.88 212.652C323.152 220.131 322.133 213.216 322.133 213.216Z" fill="#78AC42"/>
<path d="M322.133 232.831C328.243 232.831 333.195 227.966 333.195 221.965C333.195 215.964 328.243 211.1 322.133 211.1C316.024 211.1 311.071 215.964 311.071 221.965C311.071 227.966 316.024 232.831 322.133 232.831Z" fill="#9B2228"/>
<path d="M450.077 285.607C449.204 285.607 449.204 284.478 449.204 284.478C449.204 284.478 443.818 245.108 444.691 242.991C445.565 240.875 502.477 241.157 513.394 242.709C517.615 243.273 513.103 281.797 510.919 284.337C508.736 286.454 458.81 285.89 450.077 285.607Z" fill="#ED9B22"/>
<path d="M513.393 242.709C506.552 241.721 481.662 241.298 463.759 241.58C463.759 241.721 463.759 241.721 463.759 241.862C464.632 245.813 466.524 247.366 466.524 247.366C466.524 247.366 476.859 234.948 481.517 237.064C486.32 239.181 506.261 240.028 510.046 239.04C513.976 237.911 511.21 240.451 513.393 242.709C515.577 244.967 509.172 272.907 504.66 277.987C500.439 282.926 467.398 285.184 448.912 282.08C449.058 283.491 449.203 284.337 449.203 284.337C449.203 284.337 449.349 285.466 450.077 285.466C458.81 285.748 508.736 286.313 510.773 284.055C513.102 281.797 517.614 243.273 513.393 242.709Z" fill="#C26028"/>
<path d="M445.71 256.397C445.71 256.397 446.292 245.531 450.077 245.249C453.861 244.967 454.298 252.728 462.158 249.765C470.018 246.801 466.961 242.427 477.005 245.39C486.902 248.353 488.358 253.292 496.072 249.059C503.641 244.685 507.28 243.556 509.755 247.507C512.229 251.317 512.666 259.36 516.741 257.102C520.817 254.845 521.981 233.819 514.412 230.997C506.843 228.033 447.311 225.07 441.634 230.15C435.667 235.089 437.413 256.82 445.71 256.397Z" fill="#E7D6A4"/>
<path d="M479.77 218.437C479.77 218.437 477.878 209.547 486.611 205.878C486.611 205.878 490.105 206.019 487.485 208.277C484.865 210.535 482.099 210.958 481.371 217.873C480.789 224.929 479.77 218.437 479.77 218.437Z" fill="#78AC42"/>
<path d="M479.77 236.641C485.478 236.641 490.105 232.155 490.105 226.622C490.105 221.089 485.478 216.603 479.77 216.603C474.063 216.603 469.436 221.089 469.436 226.622C469.436 232.155 474.063 236.641 479.77 236.641Z" fill="#9B2228"/>
<path d="M352.991 286.313C351.681 286.313 351.535 284.478 351.535 284.478C351.535 284.478 342.802 219.848 344.112 216.462C345.568 212.934 439.014 213.357 456.772 215.897C463.759 216.885 456.335 280.104 452.551 284.055C449.203 287.724 367.11 286.736 352.991 286.313Z" fill="#ED9B22"/>
<path d="M456.772 215.897C445.564 214.345 404.663 213.499 375.407 214.063C375.407 214.204 375.407 214.345 375.407 214.486C376.862 220.978 379.919 223.518 379.919 223.518C379.919 223.518 396.803 203.197 404.518 206.584C412.378 209.971 444.982 211.523 451.387 209.83C457.791 207.995 453.279 212.087 456.772 215.897C460.266 219.566 449.786 265.428 442.508 273.895C435.521 281.938 381.374 285.607 350.953 280.668C351.244 283.067 351.536 284.479 351.536 284.479C351.536 284.479 351.681 286.313 352.991 286.313C367.256 286.736 449.203 287.724 452.551 284.055C456.19 280.104 463.613 216.885 456.772 215.897Z" fill="#C26028"/>
<path d="M347.46 247.083C347.46 247.083 348.479 229.162 354.738 228.88C360.996 228.457 361.724 241.157 374.533 236.359C387.342 231.561 382.539 224.364 398.841 229.303C415.143 234.101 417.472 242.427 429.99 235.23C442.508 228.174 448.33 226.199 452.551 232.549C456.772 238.899 457.354 252.022 464.05 248.212C470.6 244.543 472.638 210.112 460.265 205.314C447.748 200.516 350.08 195.577 340.764 203.762C331.157 212.087 333.923 247.93 347.46 247.083Z" fill="#E7D6A4"/>
<path d="M405.245 174.41C405.245 174.41 402.189 159.734 416.453 153.808C416.453 153.808 422.275 154.09 417.909 157.618C413.542 161.287 409.175 161.851 408.011 173.422C406.846 184.994 405.245 174.41 405.245 174.41Z" fill="#78AC42"/>
<path d="M405.245 204.326C414.57 204.326 422.13 196.934 422.13 187.816C422.13 178.698 414.57 171.306 405.245 171.306C395.92 171.306 388.361 178.698 388.361 187.816C388.361 196.934 395.92 204.326 405.245 204.326Z" fill="#9B2228"/>
<path d="M1044.82 250.894H958.503C954.719 250.894 951.662 247.93 951.662 244.261V185.981H1051.66V244.261C1051.66 247.93 1048.6 250.894 1044.82 250.894Z" fill="#C96928"/>
<path d="M1051.66 213.216H951.661V231.279H1051.66V213.216Z" fill="#6F2E21"/>
<path d="M1051.66 231.279H951.661V237.911H1051.66V231.279Z" fill="#E8D7A5"/>
<path d="M1051.66 206.584H951.661V213.216H1051.66V206.584Z" fill="#E8D7A5"/>
<path d="M951.515 185.981H1051.66V199.669C1051.66 199.669 1046.27 202.774 1040.89 194.73C1035.5 186.687 1030.7 197.412 1028.95 199.669C1027.06 201.786 1020.51 203.479 1019.34 197.694C1018.47 193.319 1017.45 190.497 1014.54 190.356C1012.65 190.215 1010.76 191.344 1009.74 193.037C1008.72 194.73 1007.12 196.847 1005.66 196.142C1003.62 195.154 1001.3 190.638 997.948 192.473C996.929 193.037 996.201 194.166 996.055 195.295C995.619 197.835 994.018 203.197 989.942 202.633C985.721 202.068 984.411 196.283 983.974 193.884C983.829 192.614 982.955 191.626 981.791 191.203C980.481 190.779 978.734 190.92 976.551 193.743C972.184 199.246 968.691 199.105 965.489 196C962.869 193.46 961.995 191.767 959.666 192.332C958.647 192.614 957.774 193.178 957.192 194.025C955.445 196.283 951.224 201.222 950.788 197.129C950.06 192.332 951.515 185.981 951.515 185.981Z" fill="#542120"/>
<path d="M882.668 186.123C901.237 186.123 916.291 169.886 916.291 149.856C916.291 129.827 901.237 113.59 882.668 113.59C864.098 113.59 849.044 129.827 849.044 149.856C849.044 169.886 864.098 186.123 882.668 186.123Z" fill="#9A242B"/>
<path d="M882.959 113.59V186.123C901.444 185.981 916.291 169.753 916.291 149.856C916.291 129.818 901.444 113.731 882.959 113.59Z" fill="#9A242B"/>
<path d="M959.666 250.894H807.561C803.777 250.894 800.72 247.93 800.72 244.261V143.224H966.653V244.261C966.653 247.93 963.451 250.894 959.666 250.894Z" fill="#C96928"/>
<path d="M966.653 188.38H800.72V218.296H966.653V188.38Z" fill="#EF9B7D"/>
<path d="M966.653 218.296H800.72V229.303H966.653V218.296Z" fill="#F6F4D2"/>
<path d="M966.653 177.374H800.72V188.38H966.653V177.374Z" fill="#F6F4D2"/>
<path d="M800.574 143.224H966.653V165.943C966.653 165.943 957.774 171.023 948.895 157.759C940.017 144.494 932.157 162.274 929.1 165.943C926.043 169.471 915.127 172.435 913.089 162.698C911.633 155.501 910.032 150.703 905.083 150.562C901.881 150.421 898.824 152.255 897.223 155.078C895.622 157.9 893.002 161.428 890.382 160.158C886.889 158.464 882.959 150.985 877.428 153.949C875.681 154.936 874.517 156.771 874.226 158.747C873.352 162.98 870.878 171.87 864.182 170.882C857.196 169.895 854.867 160.44 854.284 156.489C853.993 154.513 852.683 152.679 850.791 151.973C848.753 151.126 845.697 151.55 842.203 156.207C835.071 165.379 829.249 164.956 823.863 159.875C819.351 155.642 818.187 152.82 814.111 153.666C812.51 154.09 811.054 155.078 810.035 156.348C807.124 160.158 800.138 168.201 799.264 161.428C798.1 153.808 800.574 143.224 800.574 143.224Z" fill="#F6F4D4"/>
<path d="M645.412 57.0744C682.994 95.4995 700.694 151.38 691.815 203.635C691.218 207.148 693.955 210.874 697.579 211.466C701.203 212.059 705.046 209.434 705.686 205.921C715.701 150.562 692.936 90.7158 645.412 57.0744Z" fill="#F6F4D4"/>
<path d="M74.0628 75.1368C72.8401 121.831 71.6174 168.526 70.3948 215.206C83.0581 166.578 84.5283 115.241 74.0628 75.1368Z" fill="#F6F4D4"/>
<path d="M1156.63 114.169C1158.57 140.007 1160.49 165.844 1162.43 191.682C1162.51 192.839 1163.69 193.799 1164.88 193.686C1166.08 193.573 1167.04 192.402 1166.89 191.259C1163.63 165.534 1160.39 139.823 1156.63 114.169Z" fill="#E6988E"/>
<path d="M1165.67 199.387C1163.65 199.556 1162.29 202.097 1163.31 203.804C1164.35 205.512 1167.29 205.61 1168.44 203.987C1169.6 202.351 1168.44 199.726 1165.67 199.387Z" fill="#E6988E"/>
<path d="M1174.19 225.959C1174.13 229.219 1174.07 232.478 1174.01 235.752C1173.97 238.405 1176.54 240.536 1179.24 241.001C1181.93 241.467 1184.67 240.691 1187.26 239.887C1183.6 240.804 1179.47 239.576 1176.98 236.825C1174.51 234.073 1174.61 226.678 1174.19 225.959Z" fill="#E6988E"/>
<path d="M1167.4 112.659C1210.49 117.33 1254.13 117.189 1297.17 112.221C1253.38 112.179 1209.6 112.137 1167.4 112.659Z" fill="#E6988E"/>
</svg>
