<svg width="361" height="295" fill="none" xmlns="http://www.w3.org/2000/svg">
  <path d="M661.661 127.647c.338.502 1.08 1.133.942 1.485-.432 1.261-1.476 2.381-1.661 3.647-.185 1.265.011 3.728.618 3.933 3.571 1.192 3.545 4.188 4.199 6.957.22.873.837 1.654 1.27 2.458l1.798.393a22.203 22.203 0 0 0-.474 3.236c-.003.322.717.657 1.106.987-1.108 3.479-4.861 5.918-3.711 10.304l3.005-5.402c.221 4.343-3.307 6.693-5.265 9.89-1.053 1.698-2.196 3.368-3.643 5.598l3.233-.453c-1.18.944-2.38 1.914-3.58 2.887l.543.578c4.014-2.234 8.253-4.144 11.995-6.794 2.896-2.056 5.118-5.053 7.689-7.579 2.228-2.189 4.507-4.312 6.773-6.443l.656.605-2.895 3.365 6.346-1.599c-6.31 2.011-11.178 5.739-15.401 10.721-1.584 1.872-4.157 3.084-6.51 4.098-4.653 2.014-7.858 5.553-11.031 9.235-1.062 1.236-2.326 2.301-3.946 3.876l12.524-3.156c.07.42.142.834.212 1.253-2.419.356-4.83.792-7.28 1.041-4.065.428-5.782 3.839-7.898 6.468-2.855 3.574-5.251 7.516-7.655 11.433a8.719 8.719 0 0 0-1.297 4.507c.141 5.395-3.176 8.823-6.46 12.346-1.311 1.414-3.821 2.42-1.624 5.229.374.477-1.453 2.553-2.079 3.974a5.769 5.769 0 0 0-.448 2.681c.114 1.412.496 2.805.921 5.008.768-.765 1.592-1.699 2.546-2.499 1.109-.939 2.348-1.708 3.475-2.639 1.461-1.213 2.763-2.629 4.292-3.749 2.371-1.741 4.768-3.524 7.381-4.83 1.059-.524 2.706.184 4.138.335-.148-4.21 3.719-6.459 7.192-4.413 1.26.747 2.214 2.059 3.191 3.21.686.8 1.126 1.129 2.445 1.226 1.711.124 3.297 1.948 4.936 3.031l-.329.996c-1.862-.19-3.795-.758-5.564-.436-1.062.197-2.19 1.644-2.691 2.79-.468 1.071.109 2.573-.282 3.716-.196.577-1.511.778-2.923 1.415.448.927 1.016 2.126 1.578 3.283l.305.598a1.78 1.78 0 0 0-.644.217c-1 .963-.919 4.781-3.629 1.352-.048-.064-1.212.436-1.242.71-.047.539.22 1.409.619 1.606.599.298 1.427.133 2.025.161l.179 2.912 2.473-1.889-.121-.073c.013 1.378.031 2.771.037 3.615 1.693 1.253 3.375 2.476 5.027 3.739.227.173.498.669.41.822-1.414 2.627-2.88 5.223-4.672 8.43l3.218-.811c1-.252 2.227-.236 3.068-.773 1.424-.919 3.573-1.135 2.682-4.213-.51-1.773 1.222-4.194 2.115-6.825 2.667 3.464 6.648 4.124 7.639 7.789l-4.114 2.577-.734-2.912c-3.645 2.439-3.621 2.596 1.056 6.015l-11.631 6.682 2.292.494-4.726 1.191c4.718 2.857 11.328 1.993 13.358-1.576-.531-.66-1.07-1.318-1.059-1.321l8.704-10.041-3.119-1.128 5.995-1.511c-.644-4.855.915-10.262-2.481-14.932l-.056.014c1.063 1.634 2.635 3.143 3.066 4.932.639 2.65.475 5.494.655 8.255l1.289.279 3.925-11.204c.068 2.035.139 4.05.209 6.168 1.47-.37 3.03-2.657 3.432.433.102.769-.728 1.633-1.292 2.752l-2.801-2.244c.348 1.381.309 2.8.874 3.118 1.086.608 2.53.589 4.517.962.437.628 1.155 2.488 2.505 3.338 1.041.651 2.906 3.468 4.518-.312.604-1.431 3.555-2.325 5.534-2.538 1.198-.128 2.588 1.527 3.889 2.374 1.083.704 2.2 1.359 3.248 2.111 1.981 1.419 4.137 2.666 3.713 5.758-.122.868.615 1.857 1.003 2.923-2.181-.32-4.349-.953-6.392.975-.529.499-2.813-.295-3.877-1.067-1.62-1.18-2.87-2.849-4.26-4.301l-.723.471c.197 1.539.371 3.047.561 4.416-.387-.339-2.057 2.424-2.469-.568-1.597.613-3.52.859-4.7 1.926-1.341 1.216-3.609 2.454-2.523 4.761l-6.629 4.35c2.808.765 4.944 2.529 5.109-.755 3.268.367 6.76 1.619 9.754.9 3.699-.888 3.54-5.378 4.81-8.183 2.684.284 5.286.72 7.9.788 2.933.091 6.845 2.872 6.547 4.996-.07.494-.49.941.027 1.069l2.165 5.976-.931.656c-1.356-2.231-2.843-4.651-5.556-2.419-1.605 1.317-2.67 3.297-3.979 4.972l2.64 1.717-2.599 2.287c-4.234-3.535-4.361-3.772-3.076-5.243l-3.441-.483c.287-1.144.374-2.409.949-3.387.279-.468 1.463-.496 2.25-.524 2.191-.079 4.39-.034 6.585-.099.185-.007.357-.487.544-.772l-1.952-.358-.01-.843 4.449-.633c.968-1.546-.721-2.2-2.218-2.501-2.157-.43-4.389-.482-6.521-.672.292.61.811 1.646 1.373 2.85-2.657.483-5 1.002-7.377 1.319-2.996.398-2.624 1.622-.69 3.564l-4.845 1.535c.759.634 1.625.714 2.485.695 1.67-.023 3.33-.116 4.993-.178-4.84 2.014-10.802 1.464-14.981 6.622l2.548.152c-1.016 2.272-.701 4.055 3.132 4.411l-4.371 4.158 4.947-.85c.055.125.106.248.154.359l-2.828 1.649c.63 1.116 1.157 2.039 1.574 2.779l8.469-1.046c.07.276.139.548.234.818-4.222.667-7.948 2.487-11.577 4.47l2.651-2.653c-.809-1.146-1.554-2.197-2.288-3.234-2.26 1.76-2.387 4.424-.288 5.773l-2.379 4.172c.126-.981.434-1.983.331-2.942-.103-.958-.6-1.925-.925-2.883-1.01.719-2.516 1.234-2.921 2.209-.636 1.526-.533 3.366-.758 5.185l3.938-.992c-6.19 4.831-10.034 11.302-13.077 18.38-.479 1.11-1.791 2.171-2.959 2.624-6.12 2.372-12.31 4.571-18.502 6.747a11.715 11.715 0 0 1-3.335.443c-3.665.153-7.202.577-10.006 3.359a3.27 3.27 0 0 1-1.861.747c-4.492.477-9.023 1.48-13.475 1.205-12.134-.75-23.366.838-33.039 9.096-3.195 2.73-7.132 4.576-10.602 6.764 5.363 6.759 14.119 5.712 20.573 9.457 2.102-9.097 7.553-13.758 17.429-14.674.471-1.108.923-2.182 1.378-3.258l.569.254c-.098 1.061-.193 2.121-.31 3.421l-3.367 1.273c-7.399.3-13.466 5.589-13.754 11.203 2.689.355 5.39.516 7.999 1.089 6.14 1.347 12.221 2.97 18.371 4.263.901.189 2.057-.832 3.34-1.398l-5.382-3.427c.537.174 1.066.354 1.604.52 4.616 1.414 6.591-.295 5.184-5.045-.703-2.364-.069-2.559 1.806-2.52.335-.055.657-.167.953-.331l-2.196 8.739c3.697-1.726 5.563-.703 6.989 1.522l-6.771-1.664c-.624 5.131-2.102 6.059-6.484 5.067-2.379-.539-4.898-.532-7.256-1.097-3.6-.851-7.139-1.976-10.699-2.996-2.867-.822-5.664-1.665-8.139 1.098-.508.569-1.954.723-2.796.482a76.897 76.897 0 0 1-9.463-3.208 48.9 48.9 0 0 1-8.646-4.693c-2.669-1.88-5.211-2.451-8.1-.952-9.382 4.849-19.68 6.738-29.813 9.045-6.515 1.479-13.225 2.106-19.768 3.473-2.115.442-4.033 1.953-5.969 3.092-5.832 3.403-11.917 6.461-17.355 10.416-5.148 3.739-9.841 8.208-14.299 12.778-6.626 6.787-13.071 13.774-19.191 21.013-3.282 3.876-6.433 7.85-8.033 13.08-1.514 4.927-4.687 9.347-7.134 13.989-.212.403-.757.965-.64 1.162 2.751 4.741-1.929 8.585-1.536 13.011.41 4.621.821 9.245 1.297 13.861.362 3.482.663 6.979 1.314 10.427.474 2.529 1.661 4.921 2.178 7.447.501 2.442.462 4.984.81 7.465 1.032 7.247 1.974 14.513 3.291 21.708 1.935 10.548 4.114 21.051 6.311 31.549.961 4.585 2.786 9.04 3.298 13.655 1.022 9.27 4.194 17.998 5.985 27.074.986 4.984 2.441 9.873 3.56 14.315l-24.474 11.233c-2.166-6.107-4.55-11.755-6.158-17.618-2.466-9.013-4.57-18.134-6.504-27.273-2.809-13.349-5.657-26.701-7.972-40.139-1.873-10.929-2.869-22.004-4.461-32.984a37.88 37.88 0 0 0-2.627-9.62c-.823-1.896-2.829-3.257-4.83-5.444-.216-1.49.258-3.28 2.226-5.19 2.781-2.685 1.82-6.846 1.126-9.978-1.089-4.918-3.474-9.561-5.459-14.257-.454-1.077-1.479-1.946-2.308-2.856-5.096-5.731-10.164-11.504-15.369-17.116-2.363-2.54-5.115-4.717-7.569-7.179-.824-.813-1.972-2.326-1.728-2.931 1.09-2.482-.392-3.871-1.708-5.362-7.228-8.202-13.65-16.973-18.786-26.627-.83-1.561-1.328-3.298-2.333-5.855-.062 1.691-.083 2.319-.071 1.955-1.305-.799-2.737-2.18-4.411-2.616-8.369-2.175-16.897-2.304-25.507-1.877-3.387.171-6.894-.577-10.254-1.31-6.931-1.509-13.846-3.129-20.686-5.006-5.178-1.422-10.155-3.578-15.348-4.917-6.495-1.67-13.096-1.559-19.825-.991-8.011.677-16.204 1.059-24.143.13-6.252-.739-10.437-5.937-14.792-10.492-4.435-4.635-8.172-10.375-14.83-12.472-2.28-5.154-7.332-4.504-11.545-5.249-4.535-.778-9.234-1.416-13.769-1.075-4.413.318-8.695 2.104-13.081 3.05-4.459.961-8.818 2.552-13.598.878-2.086-.732-4.662-.305-6.985-.07-8.196.827-16.369 1.883-24.569 2.663-1.885.177-3.845-.405-5.549-.611l1.255-1.038c-6.332-1.354-11.945-1.274-16.702 2.581-4.507-6.546-12.071-4.501-17.705-7.734l5.919.943 4.833-2.874.517.823-3.062 1.382.116 1.059c3.513.421 7.019 1.07 10.543 1.21 4.235.167 8.488-.111 12.736-.141.396-.005.775.428 1.162.656 4.488 2.656 9.289 2.204 14.147 1.476 5.819-.867 11.654-1.658 17.469-2.576 1.176-.185 2.293-.776 3.795-1.306l-2.451-.763c3.258-.984 7.451.075 9.036-4.235-4.264-.68-8.673-1.573-13.128-1.983-1.531-.138-3.172.942-4.763 1.466-2.563.039-5.207-.311-7.673.191-4.47.916-7.207-1.312-9.696-4.4.329.045.648.144.944.294 4.046 2.918 8.181 4.218 13.174 2.027a14.632 14.632 0 0 1 7.555-1.054c5.992.872 11.883 2.337 17.83 3.486 1.536.3 3.127.311 4.695.452l.288-1.14c-1.521-.728-3.121-1.357-4.532-2.232-.673-.402-1.078-1.253-1.602-1.899l2.261-.935c-.966-3.33-2.984-4.314-6.587-3.501-2.255.501-4.864-.195-7.263-.623-8.771-1.569-17.483-1.152-26.138.704-.946.202-1.677 1.411-2.51 2.153l-8.029-.859-.049.076c1.284-.324 2.563-.686 3.847-1.009l7.338-1.85c-.053-.383-.109-.766-.162-1.15-1.623-.139-3.224-.347-4.839-.408-1.889-.076-3.788.093-5.667-.053-5.668-.437-11.341-.992-17.013-1.445a1.93 1.93 0 0 0-1.478.611c-.514.701-.791 1.585-1.16 2.392l.7.304-2.989 1.182 8.379 2.938 1.758.677-4.907 5.873-3.866-1.427c1.01-1.886 5.191.45 5.163-3.711l-5.097 1.828c-1.368-.874-2.878-2.411-4.657-2.836-2.764-.665-5.239-3.273-8.562-1.415-.696.39-2.176-.555-3.93-1.074l2.434-1.602c-.615-1.353-.845-2.911-1.732-3.565a12.297 12.297 0 0 0-4.928-2.116c-4.2-.752-8.483-1.038-12.67-1.821-1.959-.368-3.75-1.568-5.686-2.18-.501-.16-1.482.31-1.838.789-.454.61-.492 1.529-.617 1.977l-4.842-2.074 1.512-3.248-1.475.166c-1.101-1.708-2.015-3.097-3.17-4.874l-4.743 2.569.373 1.12 3.676-.743c.423.798 1.018 1.914 1.568 2.947-1.96.494-3.861.667-5.451 1.461-1.519.78-2.719 2.178-4.343 3.544-.91-.74-3.917.542-3.85-2.801l-3.5.671c.61-1.523 1.306-3.278 2.316-5.824l-10.463 7.187c.389-2.71 1.304-4.859.779-6.548-.551-1.763-2.497-3.087-3.77-4.529l2.537-1.544c-.893-5.214.7-6.501 10.178-8.147.078-.071.232-.153.222-.206-.111-.647-.249-1.287-.219-1.136a21.293 21.293 0 0 0 1.561-1.684c.55-.765 1.114-2.305 1.516-2.255 1.34.166 2.604.883 3.884 1.454-.087.404-.205.8-.353 1.185l-2.047-.751 1.714 6.801.845-.252-.734-1.53c3.319-.44 2.865-2.806 2.147-6.099l9.108 2.889 4.759-2.918-3.971-7.975c-1.62-.524-4.528-1.177-7.125-2.456-.99-.489-1.273-2.419-1.377-3.885-1.731-1.279-2.453-2.443-.453-4.431.636-.625.457-2.045.652-3.098l-.926-.382 3.061-1.637c1.364 1.411 2.156 2.978 3.18 3.168 3.213.584 4.561-1.546 4.814-4.528l5.553 1.146c.042-.321.088-.642.13-.966-1.329-1.019-4.553-1.731-.52-3.64.287-.136.125-1.659-.15-2.42a3.85 3.85 0 0 0-1.479-2.009c-2.22-1.247-3.017-.065-2.917 2.192-6.493-1.174-6.213-7.327-9.126-11.479 2.084-.43 3.671-.604 3.085-3.513-.761-3.81 3.353-5.914 7.677-4.193 1.464.579 2.822 1.416 4.49 3.148-1.928.529-3.883.978-5.764 1.627-.765.272-2.01 1.225-1.918 1.539.81 2.761-2.56 3.5-2.68 5.749.006.026-.958.011-2.346.019 1.758 1.145 2.72 1.951 3.82 2.444 1.1.493 2.224.603 4.179 1.098-1.062-1.443-1.719-2.345-2.515-3.427l3.145-3.476c1.726 4.281 7.454 4.703 7.148 9.981l3.63-.732c1.797 2.921 3.457 3.412 6.999 1.714-.977-.362-1.659-.563-2.29-.864-.728-.339-1.43-.73-2.101-1.17 1.409-2.947-2.474-3.624-2.49-6.05l3.195.469c1.472-2.431 3.542-4.346 3.677-6.393.299-4.47 4.062-5.684 6.28-8.351.917-1.088 1.037-2.802 1.604-4.489 1.242.596 2.946 2.036 4.706 2.101 1.971.075 3.988-1.092 6.067-1.743l-1.955-1.457c.67-.994 1.118-2.429 2.054-2.875 2.27-1.089 2.002-2.99.753-3.834-1.249-.845-4.603-1.111-4.899-.536-1.198 2.334-3.091 2.037-4.955 2.233-1.396.149-3.561-.599-2.493 2.256-.78.196-1.746.757-2.288.481-.542-.276-1.11-1.522-.927-2.104 1.168-3.649.301-5.356-3.876-5.741l2.668-3.117-.686-.768 3.45-2.502 1.317 5.226 5.67-2.361-2.256-1.877 4.244.82 2.364-4.371 6.657 1.212.24-.624-4.78-3.813c2.336.304 3.18-3.89 5.341-.437 1.071 1.715 1.926 3.58 2.924 5.46l-2.456 1.722 3.553 1.042c1.788-6.314 5.438-.052 8.175-1.099.587-.223 1.68.867 2.249 1.188l-1.429 2.285c-1.678-.137-2.828.812-2.358 3.405.101.558-.815 1.238-1.045 1.931-.657 1.964-1.201 3.963-1.763 5.843 1.58.364 3.145.335 3.353.846.633 1.568.74 3.347 1.148 5.547.168-.043 1.133-.23 2.049-.517.916-.286 2.172-1.242 2.537-.961 2.863 2.288 2.877-.066 3.491-1.9l-2.997-1.007 1.735-3.796-4.028-2.01c1.905-2.489 6.22-3.278 9.968-2.015 3.153 1.059 4.659.275 5.809-2.691.27-.691 1.317-1.074 2.249-1.758-.33-2.267 1.314-4.237 5.132-5.561l-.149-.089c-.182 2.193-1.509 4.819 1.606 5.443l-2.514 4.818c4.057.251 6.057-1.896 6.168-5.58 2.47.064 3.894-.461 3.756-3.638-.088-1.923 1.559-3.926 2.741-6.61-1.368-.009-2.985.034-4.595-.053a4.674 4.674 0 0 1-1.587-.58c-2.773-1.286-6.485-1.224-7.509-5.099-.088-.252-.18-.507-.271-.758.46-.981.919-1.962 1.609-3.446 1.953-.805 4.52-3.283 7.652-1.63-.572-1.686-1.536-3.353-1.621-5.062-.109-2.196-.62-2.869-2.935-2.667-2.055.181-3.48-.937-2.587-3.429.138-.451.238-.913.299-1.381l5.492-3.127.18-.736a14.601 14.601 0 0 1-2.034-.194c-1.065-.256-2.105-.621-3.515-1.048l.738-2.397 8.449.686.185-.841-3.251-1.765c2.527-.998 5.12 2.989 7.591-1.052l-8.482-.01c-2.341-.974-5.872.563-6.882-4.514l-3.224 9.526-1.278.017c-1.94-2.326-4.027-4.543-5.777-7.012-1.542-2.164 1.386-7.495 4.413-8.373.495-.145.981-.311 1.47-.466l-.168-.855-3.988.478c.014-1.08.033-2.153.047-2.886l13.653.211.361.643-5.891 3.073-.519 1.358 5.075 1.031c.359-.42-.648-1.754 1.034-2.984 1.916-1.396 1.936-5.648 3.865-6.718 2.837-1.597.555-2.713.518-3.93-.094-3.037 1.829-2.478 3.615-2.463l1.262-3.137 6.27 3.422-.841 2.681c.53.056 1.055.151 1.572.283 2.131.722 4.825-.307 6.61-1.761 1.217-.985 3.061-1.196 4.711-1.787l-1.894-1.638c.803-.516 1.501-1.117 2.31-1.452 1.249-.509 2.568-.837 3.87-1.245l.068-1.18c.379.416 1.072 1.214 1.097 1.2 3.821-3.186 5.001 1.177 7.197 2.521.432.265.784 1.093 1.099 1.053 3.929-.478 4.685 3.262 6.47 4.722l4.271-2.978c-2.043-1.192-4.251-2.502-6.511-3.782-1.992-1.134-4.017-2.204-5.999-3.328-.393-.218-.985-.506-1.035-.83a64.113 64.113 0 0 1-.85-6.932c-.068-1.499.306-3.023.456-4.319l6.649 1.619c.122.279.407.938.581 1.347l3.947-1.559c-1.629 5.683-1.637 5.685-5.355 1.925l-2.59 4.623 2.469 2.033-1.579 1.895.597.794c1.352-.856 2.804-1.587 4.025-2.602 1.221-1.014 3.435-.548 4.209 1.452l.492-2.283c3.532 1.412 6.788 3.053 7.834 7.156-.668 1.649-1.969 3.374-1.778 4.918.12.994 2.419 1.721 4.57 3.076-.181-3.177-.668-5.52-.338-7.739.303-2.041 1.486-3.947 2.282-5.926l1.065.196-4.187-6.202c1.252-1.979 7.905.08 2.956-4.528 1.62-1.226 2.995-.906 4.015.636.481.728.622 1.681 1.092 3.024l3.275 2.521c-.332-1.822-.618-3.382-.985-5.373l9.54-.17c-1.485-4.806-4.097-6.712-7.833-7.22-1.875-.254-3.607-1.568-5.402-2.406l3.331-4.769-5.077.612-.565 1.306c-1.113-2.07-2.232-4.134-3.388-6.292 2.803-1.167 4.881-2.024 6.952-2.895 1.858-.79 2.301-.151 1.325 1.774 3.02-1.341 3.492-3.472 1.726-7.327l4.956-1.491-1.654-3.112-2.435.812 2.302-5.344 1.936 1.382-1.604 1.512c.957.648 2.179 2.047 2.775 1.813 1.93-.756 3.028-2.351 1.592-4.712l.77-.678 2.708 3.231-2.455 3.588.617.369.824-1.125c3.083.672 2.964 5.208 7.092 4.827 2.394-.234 2.222 2.767 2.519 4.276.226 1.134-1.305 2.591-2.472 3.568.124-1.884.245-3.776.364-5.677-.544.062-1.093.12-1.649.197a1005.117 1005.117 0 0 1-7.384-4.094c1.001 1.828 1.822 3.32 2.779 5.072l1.604-1.718c.04.335.084.665.128 1l2.939-.344c-1.191 2.174-2.631 4.256-3.468 6.559-.402 1.101.339 2.622.714 4.85-.671-1.387-.973-2.018-1.38-2.86l-1.563 1.958c.453-2 .733-3.25 1.116-4.93-.551.508-.91.801-1.218 1.137-.627.662-1.788 1.49-1.665 1.979a3.321 3.321 0 0 0 1.969 2.049c2.793.78 3.064 2.344 1.871 4.621l-1.106-4.389c-2.402 5.103-2.399 5.098.528 8.112.118.191.202.401.248.62l-4.832-2.395-.443.823c.819 1.171 1.514 2.464 2.487 3.49 1.454 1.531 2.938 1.184 3.829-.699l1.136-1.037 5.527 1.358c.076-.674.166-1.451.259-2.233 6.288-.79 6.288-.79 5.565-2.446l3.215-1.041-.091-.048c.57.547 1.369 1.668 1.679 1.562 2.528-.998 2.987.748 3.467 2.429.687 2.411.981 4.981 2.004 7.228 1.023 2.247 2.743 4.192 4.413 6.641l1.813-1.124c-.562-.858-1.12-1.702-1.634-2.498l2.796-4.988 1.964 1.665.822-6.71c1.618-.967 3.607-2.243 5.677-3.368 1.923-1.048 3.931-1.935 5.9-2.896l.031-1.199 6.276 4.33 3.937-2.636c-1.12-1.56-1.959-2.825-2.903-4.004-.447-.562-1.114-1.395-1.643-1.369-3.526.186-4.637-2.253-5.635-4.574l4.134-3.336 3.57 5.126.686-.51-.735-4.348c2.547.291 4.949.122 4.463-3.729-.049-.385 1.986-1.573 2.136-1.42 1.733 1.632 1.703-.675 2.492-1.025l1.406 2.822-2.816.026 3.74 3.576 3.878-.978-.187-2.128 2.969.756c-.365-3.453-5.75-1.064-5.261-4.827l-3.824.88c-.578-1.664-1.16-3.328-1.572-4.506l4.01-6.33c-.13-.17.197.26.864 1.143.597-2.087 1.235-3.84 1.578-5.645.327-1.73.341-3.516.506-5.415l-1.99-.853a30.944 30.944 0 0 1 2.264-2.722c2.673-2.563 5.519-4.595 9.484-2.553.318.162 1.068-.106 1.389-.41 2.926-2.785 4.078-.674 5.255 2.25l2.972-2.715-.114-.058c1.265.94-1.545 4.533 1.464 3.664.224 2.23-.28 4.878.794 6.302 1.811 2.35 4.867 3.105 8.12 2.59-.401-.787-.681-1.332-.959-1.881.67-.082 1.453.03 1.99-.295.892-.51 1.927-1.129 2.375-1.98 1.388-2.637 2.979-1.664 4.6-.461 1.822 1.351 3.431 3.105 5.419 4.077 1.173.578 2.912.013 4.585-.044 1.572-3.687 5.806-2.987 8.779-3.776 2.568-.68 5.818 1.205 8.767 1.959l.619-1.041c-.548-.958-1.097-1.911-1.734-3.021l2.479-.86c-.741 3.363 1.395 3.222 3.38 2.956 3.521-.49 5.623.604 7.109 3.885.27.6.854 1.06 1.292 1.584l1.756-1.871c-.535 4.652 2.118 5.635 4.579 5.38 1.255-.928 1.703-1.465 2.267-1.639 3.312-1.033 3.32-1.003 4.964-4.292l6.076 2.514.679-.298 5.474 4.393-.244.605-1.871-.192c-.245.793-.359 1.85-.871 2.654-.774 1.215-1.741 2.542-3.316.72a.866.866 0 0 0-.847.011c-.227.188-.281.587-.409.897l-2.578-2.526c-.033.941-.346 1.933-.037 2.657.967 2.261-.594 3.723-2.032 3.894-3.278.429-2.213 3.44-3.569 4.913.572.491 1.26 1.489 1.696 1.391 2.252-.516 5.355-.159 4.992-4.057-.032-.365.922-.816 1.421-1.231l-.928 3.013 8.125-.051c-2.72-3.122-.906-5.171 1.272-7.399.646 1.62 1.189 2.876 2.911 1.093 1.496-1.545 3.696-2.52 4.849-4.263 1.388-2.069 1.713-4.842 3.058-6.956.85-1.353 2.741-2.072 4.164-3.074l-.117-.085c-.535 1.468-1.648 2.912.13 4.405.146.122-1.034 1.523-1.201 2.403-.212 1.129-.024 2.332-.006 3.503 1.074-.338 2.133-.732 3.225-1 1.867-.47 3.761-.828 5.666-1.257.804-.179 1.601-.403 2.915-.734 1.574 1.52 2.622 1.28 4.088-1.721l.555-.43 2.608-3.436 1.064-.125c-1.818-4.377-3.634-8.754-5.449-13.129-.344-.83-.666-1.666-.999-2.5 1.412 2.043 2.823 4.086 4.233 6.131.475-.838.56-1.526.3-2.036-1.219-2.397-2.528-4.742-3.811-7.107l-.065.12c1.312 1.424 2.291 3.563 4.874 2.281-.011 2.885-.333 5.816.055 8.644.441 3.232 1.517 6.367 2.473 10.163 2.842-2.9 3.528-.984 3.882.407.249.986-.362 2.172-.464 3.293a6.536 6.536 0 0 0 .118 2.642c.094.278 1.513.508 1.844.214a3.348 3.348 0 0 0 .965-2.156 7.078 7.078 0 0 0-.422-3.252c-1.707-3.719-3.586-7.362-5.401-11.033l.766-.364c.647 1.496 1.298 2.992 2.179 5.009.613-1.62 1.115-2.95 1.65-4.386 5.456.824 5.304-5.576 8.188-7.176 1.072 2.758 2.127 5.462 3.465 8.9l1.41-4.393c.326 2.332.43 3.989.877 5.543.088.348 1.447.545 2.174.453 1.887-.233 3.754-.668 5.544-1-.64 4.754-.64 4.754-4.795 7.326.373.835.728 1.738 1.177 2.589.392.739.892 1.415 1.485 2.333l.993-1.322 3.655-.004-4.449 3.833 2.927 1.501c.117 1.805.231 3.61.422 6.4l4.552-6.224-2.226 6.698c.582-.103 1.373-.032 1.512-.302.826-1.573 2.327-1.983 3.358-.993.659.628.352 2.389.296 3.63-.039.823-.384 1.629-.726 2.886l-2.192.755c.014 2.227.797 4.737-.121 5.818-2.962 3.526-3.205 3.321-3.873 6.451l.751-.313c1.342 1.858 2.67 3.694 4.058 5.611l4.023-3.237c-.793 2.066-2.904 4.055.472 6.785.867-.747 2.114-1.628 3.005-2.786.153-.197-1.187-1.562-1.993-2.554l1.18-2.219-.494-.384-1.331.768c.511-2.32 1.812-4.498.209-7.047-.537-.853-.047-2.66.471-3.803.899-1.993 2.188-3.81 3.326-5.705 2.317.278 4.629.552 6.64-1.125-.092-1.168-.202-2.375-.27-3.212l-3.034-.303-3.634 3.568-2.52-2.736c-.147-1.705-.383-4.389-.616-7.172l6.002-1.513.148.447-2.9 1.235c3.992-.212-.93 5.209 3.358 4.549l2.879-6.359 5.814 2.592-.809 6.242c1.927 2.007 5.685-1.81 7.211 2.387 1.712-3.211 6.874.669 6.667-4.249-.097-1.96-.194-3.921-.293-6.298l2.127 1.148c.235-3.557.466-7.021.695-10.537l.555 1.051c.999-3.252 2.437-6.918 3.18-10.726.469-2.392-.106-4.99.595-7.55l.397 9.452c.018.436.144 1.155-.045 1.27-3.831 2.129-1.916 5.727-2.333 8.734-.611 4.413-1.351 8.816-2.018 13.212 2.825-2.796 6.07-4.428 10.259-4.328 1.997.048 4.062-.928 6.244-.962-2.456.619-4.893 1.63-7.377 1.759-3.344.184-5.825 1.365-8.03 4.132 2.881-.035 6.372-1.054 7.478.136 1.796 1.929 2.036 5.323 3.225 9.001l12.747-13.689c-.25.786-.379 1.644-.762 2.348-2.477 4.443-6.409 7.776-10.094 10.936-3.117 2.675-5.966 5.028-7.144 9.017a.985.985 0 0 1-.388.555c-9.554 4.872-10.292 15.146-14.322 23.398-.835 1.711-1.501 3.495-2.316 5.367l3.358 1.322-1.856 1.897c.533.334.919.717 1.051.64 3.352-1.901 6.88-3.322 6.62-8.481-.165-3.301.853-6.824 2.075-9.959.634-1.628 2.79-2.743 4.403-3.888 1.513-1.072 3.221-1.872 5.344-3.07l-2.852 9.568 3.027 1.599-.222.492-2.528-.359-.139.472 2.654 1.506c.04 1.023-.25 2.156.186 2.689.526.637 1.771 1.169 2.522.984.687-.173 1.596-1.339 1.605-2.076.056-5.969 4.62-8.873 8.395-12.119 1.129-.972 3.548-.446 4.563-.531-2.409 1.659-5.716 3.485-8.421 5.969-1.577 1.445-2.527 3.848-3.145 5.997-.646 2.259-.957 3.985-3.828 4.74-2.934.767-5.793 2.42-8.223 4.291-1.253.967-1.497 3.244-2.202 4.922l1.155.503c.243-.518.49-1.033.747-1.574 1.94 2.374 1.251 7.422-1.3 9.855 1.356 2.37 2.943 3.959 5.829 1.39-1.225 2.829-2.393 3.739-5.5 2.374-1.62-.711-4.357 1.126-6.586 1.811.647 1.21 1.685 2.354 1.854 3.637.275 2.114-.012 4.303-.08 7.277 1.162-.368 2.94-.431 3.969-1.341 4.525-4.007 10.235-4.771 15.722-6.074 2.353-.558 3.634-1.746 4.795-3.817a115.638 115.638 0 0 1 7.575-11.734c.779-1.066 2.649-1.287 3.941-2.033 1.771-1.022 3.627-1.994 5.149-3.326 1.522-1.333 2.612-3.041 3.896-4.579.381.253.761.503 1.146.751l-.068-.062c-1.39 1.541-2.631 3.263-4.196 4.599-1.565 1.335-3.364 2.908-5.288 3.341-2.907.657-4.57 2.013-5.137 4.82l3.56-.699-.08-.047c-4.956 3.142-8.965 6.955-10.908 12.824-.366 1.116-3.343 1.605-5.196 1.956-6.548 1.254-12.823 2.835-16.701 9.041-.349.556-1.531.588-2.561.946.357.673.713 1.409 1.144 2.142.687 1.153 2.163 3.166 2.019 3.286-2.018 1.699-4.249 3.147-7.079 1.84-.502-.227-1.01-.445-1.559-.687l.689-1.786-.435-.311-1.791 2.063-.796-3.158-6.271 1.581 5.83 4.747c-2.061.754-4.677 1.655-7.24 2.682a2.777 2.777 0 0 0-1.356 1.378c-1.475 3.397-2.965 6.793-4.223 10.258-.372 1.031.008 2.333.052 3.798l-2.27-1.131c-.849 2.636-2.278 5.14.683 7.549-.825 1.987-1.712 4.124-2.681 6.468l5.416-1.365c-1.104.771-2.113 1.902-3.336 2.23-2.601.707-4.929 1.584-5.997 4.322-.929 2.394-1.844 4.796-2.768 7.196a676.713 676.713 0 0 0-.186-5.292l-7.276 7.328c3.135.909 5.797.762 7.571-2.186l-.305 2.804c4.289-.132 8.482 1.193 12.54-1.417 3.078-1.967 6.573-3.281 9.821-4.996 1.534-.812 2.923-1.9 4.383-2.867-.84 1.124-1.463 2.591-2.572 3.312a43.333 43.333 0 0 1-7.673 4.081c-3.375 1.335-6.888 3.006-10.402 3.161-7.303.304-7.318-.053-9.597 6.75a.894.894 0 0 0 .005.51c3.121-.425 6.135-.751 9.115-1.26 3.314-.554 6.615-.528 9.68-2.813 2.609-1.951 6.158-2.612 9.198-4.033a4.232 4.232 0 0 0 2.014-2.262c.897-2.743 1.491-5.568 2.284-8.674l-2.142 1.377c.678-1.361 1.991-2.78 1.905-4.1-.269-4.137-1.062-8.232-1.656-12.354l-1.386.536c4.541-5.467.975-11.317.925-17.077l1.787 5.437 4.166 1.868.776.4c.912-1.818 1.958-3.558 2.653-5.432.172-.481-.806-1.385-1.218-2.075a2.43 2.43 0 0 1-.094-.719l1.631-.745-1.482-3.028c1.1.001 2.284-.262 3.279.063 1.612.522 2.408.103 3.171-1.359 1.357-2.633 6.204-2.477 7.821.3l4.301-3.553c-.162-.309-.32-.623-.477-.932l4.39.628c-1.33-1.876-2.296-3.232-3.655-5.145.938-.391 2.098-1.048 3.345-1.362 3.314-.836 3.599-1.471 1.71-4.318-.352-.531-.669-1.082-1.134-1.79l6.234-.468c.012.045.093.525.237 1.35l3.412-4.703c1.541 1.891 3.212 3.673 4.657-.423.735 1.339 1.3 2.431 2.093 3.911l5.033-1.991c.043.66.125 1.866.203 3.077l.75.124.69-2.762c3.4-1.392 6.517-2.65 9.59-4.004.06-.015-.47-1.363-.725-2.088l.67-2.984.725-2.763.578.045.175 1.401c.598-2.636.801-5.736 4.396-5.947 1.808-.106 3.661.586 5.394 1.241-3.432.432-4.143 3.549-2.14 6.867-1.514 1.616-3.141 2.892-4.012 4.556-.291.546 1.327 2.115 2.092 3.213l.871-.939c.345.596.917 1.592 1.492 2.582l.82-.056c.052-1.101.1-2.201.148-3.241l4.734-2.384c1.642-.211 3.289-.622 4.93-.583 2.141.052 3.815-1.783 3.284-3.889-.094-.373.066-.81.069-1.208.006-1.061.423-2.576-.115-3.087-.904-.86-1.961-2.868-3.792-1.089l2.235-5.45-3.37-.771-1.213 2.212-7.673-.973-1.576-2.238-2.109 1.948a8.693 8.693 0 0 1-.985-1.53c-.247-.569-.249-1.239-.382-2.004l2.951-2.843c.831.266 1.686.449 2.552.547 1.083.093 2.188-.154 3.389-.242l-1.7-3.593 3.066-1.412-3.013-.269c1.837-2.003 3.407-3.637 4.877-5.365.383-.446.737-1.611.648-1.664-3.065-1.797-1.096-4.004-.9-5.149 1.298 2.317 2.894 5.186 4.518 8.052-.38-2.973.103-4.79 3.476-5.108.585-.06 1.117-1.981 1.445-3.107.702-2.412 1.81-4.883 1.733-7.301-.124-3.938-1.059-7.839-1.685-11.977-1.562.104-2.589.28-3.587.194a2.264 2.264 0 0 1-1.502-.869c-.189-.277.25-.932.311-1.431.159-1.335 3.482-2.597-.429-4.065 4.799.379 4.74.791 5.267 5.025.401 3.166 1.958 6.191 3.212 9.909.925-1.718 1.624-3.01 2.318-4.304.377.409 1.116.87 1.067 1.212-.331 2.278-.843 4.531-1.282 6.79-.202-.458-.401-.916-.952-2.202-1.322 3.509-2.443 6.245-3.361 9.045-.275.863-.075 1.892.104 2.808.041.164 1.343.384 1.475.184a8.408 8.408 0 0 0 1.111-2.555c.507-1.958.898-3.95 1.336-5.93l-.145 6.388 4.416-2.847c.132.177.26.355.388.533l-1.517 1.653 4.023 2.162 2.738-5.851c-2.589.756-4.494.065-5.5-3.092 1.849.217 3.551.527 5.255.562.709.011 2.008-.506 2.041-.912.156-1.54-.075-3.117-.176-4.95l1.952.12c-.061 1.365-.123 2.731-.187 4.096l.87.301 3.001-6.759-1.117-.353c.067-3.451.132-6.897.209-11.065l-2.279 3.56c-1.469-2.87-2.648-5.169-4.099-7.995-2.573-.761-2.302 4.856-5.68 3.722l1.587-1.015-2.397-1.635-.869 2.462c-1.22.307-2.725.214-1.775 2.408.144.333-2.259 1.761-3.484 2.681l-1.184-.758 2.312-7.998-.605-.177 2.574-3.352c-.04-.046.361.806.693.782 1.027-.084 2.027-.511 3.046-.768-.406-.886-.754-2.502-1.228-2.541-3.567-.292-1.873-3.525-3.041-5.089.858-.613 1.664-1.539 2.601-1.699.761-.129 2.331.603 2.404 1.097.435 3.002 2.902 1.42 3.811 2.271 2.897-4.922 7.358-7.242 12.241-9.62l-2.03-.178.968-3.25 4.322.25-1.91 5.999c1.646-.415 3.331-.959 5.092-1.248 1.524-.253 3.84-1.365 3.193 2.022-.325 1.67 3.731 2.406.978 4.589l2.389 1.696-.42.793-2.096-.786c-.077.512-.162 1.025-.356 2.225-1.091-1.479-1.769-2.626-2.69-3.522-.321-.316-1.612-.256-1.837.066-1.095 1.578-1.645 3.146.748 4.306 1.193.576 2.166 1.601 3.819 2.868l-4.3.155 2.754 1.477-2.852 2.704.437.803 6.733-2.408c.713.845 1.699 2.014 3.158 3.726l-8.665 3.2c.854 1.075 1.945 2.614 3.211 3.998 1.209 1.319 1.808 2.324-.36 3.299-.635.283-1.072 1.008-1.312 2.117l2.892-1.126c-.444 1.847-.889 3.674-1.331 5.496l-3.805-.577.709 1.051-2.317 2.855-.857-.55 1.431-3.536c-3.035.983-1.921 6.792-6.286 3.87l-.559.725 2.526 3.142-1.583 7.644-.313-2.74-2.491 3.63c-.324-.403-.583-.735-.847-1.061-1.898 3.34-3.792 6.676-5.65 9.954 4.81-.179 4.587 4.466 6.687 6.652 2.376-2.508 3.128-6.771 1.719-9.401s-1.016-4.948.926-7.101c-1.828 4.26.366 7.847 2.131 12.329 1.658-1.974 3.138-3.518 4.351-5.245 1.083-1.547 1.875-3.303 2.794-4.964l-.18 1.634.679.456 10.06-15.215-1.27-.315c-.42-.768-1.32-2.085-1.182-2.215 2.326-2.083.903-4.198.278-6.347-.234-.806-.189-1.695-.304-2.781 1.59 2.982 3.382 3.006 5.509.311l-.57 8.131 1.202.046c-.146.807-.296 1.615-.633 3.458 2.343-1.352 3.883-2.264 5.444-3.13a7.086 7.086 0 0 1 1.589-.655c1.427-.387 1.722-1.045 1.87-1.717l2.533-5.732zm-325.748-20.375c.477 1.249.954 2.495 1.701 4.466l1.633-6.688c-.744.041-.202-3.291-1.91-.729-.49-.273-1.053-.886-1.463-.794-1.261.274-2.467.812-3.971 1.35l4.01 2.395zm-95.096 116.577l1.123-3.153c-1.132-.287-1.572-.502-1.996-.486-.989.047-1.97.203-2.954.316.599.801 1.199 1.607 1.833 2.388.233.239.488.455.762.646l-1.368 2.544 3.408 4.071.715-.315-1.523-6.011zm199.48-100.893l2.217 4.637c-.532-2.22 3.598-5.491-1.302-6.742l-.985 2.234c-.14-.839-.281-1.68-.437-2.598-.624.419-1.052.896-1.553.987-.501.091-1.23-.532-1.461-.346-2.018 1.632-1.677 3.173.854 3.389.839.067 1.775-.991 2.667-1.561zm61.622 10.31c-.899-3.187-3.544.306-4.861-1.268l-2.192 2.879c3.459 2.26 4.893-1.062 7.142-1.729l-2.564 3.374c.2.239.395.48.581.727l9.056-7.495c-.291.61-.728 1.192-.841 1.832a28.188 28.188 0 0 0-.229 3.233l3.423.067c-.042-1.836-.075-3.336-.107-4.693l-2.276-.399.326-1.857-2.234 1.202 4.145-8.567-1-.709-9.134 2.302 2.71 3.084-5.464-1.203-.372.836 5.448 4.955c-.171.345-.454.908-.909 1.872l3.488-1.609a1958.722 1958.722 0 0 0-4.136 3.166zm145.694 121.307c.165-.748.335-1.494.499-2.245-5.99-.563-5.99-.563-5.698 3.051l3.318 1.399 1.558-1.695c1.877 1.464-1.063 1.661-.24 1.918l1.564 1.115 2.587-5.721-3.588 2.178zm-446.176 25.893c1.422 1.626 2.84 3.222 4.419 5.012l3.174-4.119c-1.937-.501-3.534-1.027-5.168-1.29-.721-.116-1.514.294-2.3.468l-5.311 3.343 5.932 1.153c-.285-1.746-.518-3.156-.746-4.567zm152.472-20.747l-4.336-2.539 4.589.407-5.013-2.96 3.259-1.873c-1.595-.027-2.38-.167-3.103-.012-2.356.45-4.3.849-4.307-2.786-.003-2.186-1.071-4.374-1.691-6.552-.041-.165-.361-.251-.639-.427l-2.243 1.026-.421-.617 4.474-3.449c-1.249-1.694-9.126-2.627-11.971-1.096 3.139 1.194 3.26 1.802 1.388 4.719-.739 1.151-1.108 2.538-1.465 3.39 1.308.465 2.332.651 3.147 1.192.319.21.127 1.195.16 1.691l-3.15.575c2.556 2.377 3.775 1.685 6.456-2.897a39.801 39.801 0 0 1-2.134 5.222c-.293.65-.818 1.794-.609 1.964.828.716 2.17 1.835 2.844 1.566 3.579-1.378 3.261 1.536 4.343 4.094 1.21-2.175 2.16-3.887 2.752-4.957l3.495 1.898-3.302 1.277c2.982 2.857 5.165 3.025 7.533 1.019l1.238 2.566c-.734-.124-1.471-.244-2.206-.376-3.223-.578-5.143 1.002-5.031 3.776l4.537 2.251c-.461.426-1.042 1.271-1.425 1.201-1.601-.291-2.821-.044-2.836 1.77-.019 2.181-1.562 4.832 1.316 6.326a34.238 34.238 0 0 0 5.995 2.427c.6.179 1.483-.572 2.124-.848.375.385.908 1.176 1.646 1.57.372.2 1.579-.208 1.644-.502.777-3.677 2.33-3.215 4.495-1.069.485.477 1.513.412 2.178.562-.14.83-.252 1.537-.394 2.422l3.382-1.968c-2.338-5.183-4.776-10.59-7.2-15.97l-8.447 3.562 1.907 7.57c-.701-1.209-.903-2.623-1.581-3.754-.702-1.213-1.89-2.144-2.862-3.197-.089-.843.747-1.887 1.634-2.968.608-.737.685-1.896 1.007-2.858l5.762.135c-1.531-4.501-3.795-5.244-6.939-2.503zm24.111-129.104l4.276-1.383c-.937-1.638-1.538-2.685-2.065-3.609a17.785 17.785 0 0 0-2.836.04c-.409.063-.728.704-1.088 1.068-4.484 1.599-.93 6.015-3.928 8.39 3.787-.157 4.354-2.697 5.641-4.506zm-44.099 10.891c-1.189.545-2.39 1.071-3.557 1.639-2.906 1.419-3.026 3.87.221 6.061-.605-3.849 1.704-4.943 4.598-5.525.261-.066.431-.621.644-.957.547-3.075 1.43-6.315-3.086-6.828.148.983.789 2.532.371 2.904-1.935 1.758.331 1.929.82 2.703l-.011.003zm-25.325-4.793c2.105-2.817 2.518 1.485 4.072.958-.899-3.441-5.823-7.528-8.469-6.623.701 1.411 1.383 2.78 2.066 4.148l-2.141 2.076c.778.598 1.75 1.857 2.309 1.697.879-.246 1.468-1.454 2.174-2.259l-.011.003zm-75.994 191.933c.321-.018.87-.152.928-.035 2.5 4.848 7.559 2.902 11.531 4.108a15.914 15.914 0 0 0-5.741-3.611c-2.11-.826-4.319-1.384-6.682-2.115.035.503.075 1.117.113 1.726-.397-.471-1.085-.917-1.149-1.409-.273-2.659-.215-2.665-3.66-2.96l1.886 3.593-5.473-4.94 1.545-1.747c-4.113-2.933-8.096-5.677-11.97-8.576-1.413-1.053-3.101-2.239-3.725-3.753-1.824-4.419-2.934-9.185-7.541-11.792l2.808.448-1.325-5.26 2.337 1.539 6.234-5.541c-1.921.334-2.997.712-4.047.623-1.051-.088-2.014-.6-3.204-.991l-1.203 4.424c-1.41-.867-2.869-1.679-4.234-2.621a21.887 21.887 0 0 1-2.229-2.01l-1.042 2.291 3.538 1.752-3.08 2.225 3.151 2.247-4.191.338 4.691 2.39-5.555-.085a9.68 9.68 0 0 0-.753-2.12c-1.106-1.869-4.15-2.448-5.427-1.058-2.806 3.041-4.219 7.689-9.329 8.333l3.691 1.321c-1.948.65-4.473-.187-5.615.716-2.885 2.288-3.391.061-3.774-1.633-.505-2.255-.405-4.63-.603-7.498l2.853 1.004-1.118 1.504.275.808 6.358-2.828c-2.576-1.225-4.485-2.046-6.302-3.033a16.945 16.945 0 0 1-3.085-2.315c-1.09-.988-2.06-2.109-3.087-3.192-2.603 2.823-2.146-1.476-3.001-1.498l-3.799 1.215.042 2.073c-1.57-.576-2.887-1.281-4.29-1.523-2.365-.404-2.206-1.699-1.147-3.069.727-.946 1.969-1.481 2.9-2.295a30.101 30.101 0 0 0 2.314-2.33c1.773-1.915 3.533-3.848 5.172-5.642l-2.418-1.185 1.17-3.705-2.225-.956.291-.546 2.205-.055c-.147-1.087-.262-1.939-.314-2.303l2.846.267c.912-4.807-3.47-4.6-5.579-6.383-2.318-1.936-4.856-1.61-6.895.631.439.719.877 1.434 1.456 2.376l-7.295 1.469c-1.39.533-2.752.832-4.083 1.223-1.619.476-3.211 1.024-4.816 1.54.02.284.043.564.066.844l6.968.083-.172.69-9.849 3.45c-.784-.766-1.685-1.647-2.581-2.525.495 4.834 2.163 8.585 6.549 10.866 1.87.962 3.256 2.979 4.665 4.68 1.351 1.645 2.29 3.619 3.707 5.18.898.996 2.316 2.04 3.532 2.075 1.216.035 2.489-1.151 3.848-1.871.855 2.671-.323 3.603-2.181 3.273 1.819 4.067 3.67 8.261 5.343 11.968l4.026.224c.002.198.008.395.011.593l-2.428 1.033c1.152.571 2.212.804 2.828 1.455 2.263 2.395 4.756 4.696 6.48 7.457 4.165 6.664 8.55 12.693 17.629 12.045.461-.001.919.07 1.359.209 3.854.958 7.703 1.929 11.611 2.913-.97-4.432-4.797-6.73-10.539-6.077a6238.6 6238.6 0 0 0-.399-8.689l3.628 1.071c.905-1.308-1.369-3.859 1.564-4.082 1.557-.123 3.176.426 4.718.859.906.256 1.712.871 3.28 1.706l-2.963 6.201c2.571 1.08 2.349 4.295 2.177 6.748-.346 4.927 3.282 5.95 6.284 7.607 9.255 5.127 18.858 1.722 28.433 1.235l-.488-1.938c2.151 1.745 4.452 2.324 7.249.758a1184.65 1184.65 0 0 0-.601-3.096l-9.683-2.82c1.036 2.141 1.655 3.414 2.273 4.687-.662-.785-1.319-1.58-1.998-2.354-.68-.774-1.38-1.522-2.072-2.281l-1.603-3.748zm211.073-118.832c-2.239-.679-4.068.084-3.782 2.433.341 2.769 1.575 5.427 2.417 8.125l.975-.274c.17-1.233.471-2.449.482-3.694.027-2.21-.121-4.42-.225-6.644l.546-4.417c-.918-.023-2.216-.43-2.667.017-.669.669-.743 1.934-1.072 2.945l1.076-.457 2.25 1.966zm168.243 27.688l3.524.482-6.993 3.394 2.878.755-1.254 2.381 7.141-4.003c-.328-.608-1-1.273-.877-1.732.36-1.377.781-2.916-1.079-3.019-1.086-.06-2.243 1.148-3.369 1.785-.074-1.414-.145-2.829-.218-4.188.806-.505 1.734-1.549 2.74-1.636 3.848-.326 4.761-1.43 3.846-5.217l-10.955 6.731c2.025 1.876 3.313 3.08 4.616 4.267zm-390.111 22.443l-4.139.007c-.037.196-.075.392-.11.588l8.346 3.974 2.219 4.475c2.819-4.68 1.353-7.63-3.343-8.118-1.059-.106-2.074-.668-3.113-1.01l5.216-.377c.075-.305.144-.612.214-.916-1.025-.38-2.024-.899-3.089-1.107-.815-.16-1.706.069-2.561.126.119.787.241 1.57.36 2.358zm-51.117 61.492c-1.144-.537-2.29-1.07-2.701-1.268-.199-1.308-.319-2.115-.443-2.921l-4.695-5.082c-.398.434-.702 1.055-1.163 1.211a19.201 19.201 0 0 1-3.09.595c-.19.048-.422-.1-.619-.157.049-.151.148-.311.132-.454-.219-2.446-1.823-3.137-4.089-1.796-.52-.488-.968-1.273-1.549-1.42-5.236-1.229-10.514-2.341-15.759-3.492 2.898 2.048 6.122 3.562 9.075 5.514 3.096 2.046 5.709 1.685 8.294-.689 2.193 1.484-.158 2.207-.3 2.414 1.163 1.735 1.904 3.053 2.868 4.184a6.317 6.317 0 0 0 2.118 1.363c1.713-2.261 2.467.542 3.684.66l2.012 4.424c.172.683.231 1.926.497 1.974 3.8.631 7.632 1.126 11.484 1.652-.758-1.56-1.092-2.758-1.821-3.638-1.074-1.298-1.203-3.905-3.935-3.074zm6.859-62.574l-8.224-4.279a2805.74 2805.74 0 0 1 1.432 4.502l-2.795.109c1.095 3.099 1.979 5.913 3.12 8.615.304.717 1.56 1.655 2.102 1.503 2.224-.625 4.312-1.619 7.055-2.723l-6.373-5.329 3.867 1.169 4.616 4.736 2.177-5.035c1.433 1.624 2.249 2.53 3.064 3.448-1.34-5.347-5.539-6.274-10.033-6.717l-.008.001zm75.845 79.259c-.561-3.8-4.079-2.18-6.74-4.061.496 1.971.642 3.982 1.084 4.05 1.855.286 3.8-.013 5.712-.098 3.54.612 7.063 1.439 10.636 1.77 2.772.254 5.605-.115 8.408-.206l-.046-.877c-4.342-.784-8.673-1.681-13.038-2.272-1.188-.162-2.502.563-3.618.844l-1.39-1.119-1.008 1.969zm-75.872-84.659l1.154-4.729-4.359 2.063 2.157 4.193c.356.375.644.981 1.068 1.088 3.308.826 6.636 1.556 9.986 2.323-.243-5.06-4.337-6.183-8.003-7.908l-2.003 2.97zm291.945-98.105l-4.245-3.773c-2.093 3.937-3.137 8.333-1.111 13.519 4.074-2.293 3.166-6.891 5.299-9.799.241-.895.434-1.802.578-2.718.249-1.789.378-3.594.385-5.401-.021-.951-.59-1.887-1.182-3.62-2.153 4.783-4.209 8.504.275 11.789l.001.003zm-136.043-5.017l-3.23 2.842c.902 1.341 2.577 2.713 2.63 4.137.112 3.279 2.093 1.247 2.709 1.91-.302-1.512-1.1-3.042-.627-3.812.472-.77 2.203-.976 3.713-1.539-.421-2.471-.941-5.543-1.42-8.376l-2.432 1.645c-.308-.371-.613-.747-.921-1.118l-4.152 4.885.88.847 2.85-1.421zm206.909 87.913c-.408-1.005-.812-2.011-1.219-3.012l-.982.295c-.241 1.498-3.181 3.128.401 4.488l1.899-1.915-.121 1.789 8.554 6.248 1.84-2.671-1.427-1.565 2.148-2.503c-2.649-.73-4.822-1.54-7.063-1.864-1.288-.18-2.687.431-4.03.71zm-157.06-82.54l-2.183-3.324c-.14.754-.243 1.323-.31 1.702l-2.456-.831c-.656 4.298.408 6.785 3.513 8.158.479-1.926.956-3.813 1.429-5.731l2.828 14.373c3.737-5.495 1.552-11.015 1.69-16.405.022-.716-1.986-1.484-3.08-2.221-.1-.066-.329.083-.676.171.28.699.534 1.33 1.069 2.668l-1.973-1.718c.046 1.017.097 2.084.149 3.158zM151.959 294.197c-.006.446-.012.896-.015 1.341-.427-.118-.808-.261-1.219-.363-5.462-1.403-10.051-6.804-16.521-3.495.35-1.112.705-2.226 1.051-3.341l-4.793-.666c.535 2.31-.899 5.506 3.344 5.187l1.636 3.34-6.93-.922.56-2.757-5.48-5.157 2.258 8.958-.432.081-2.849-7.821c-1.078 2.292-1.787 3.809-2.765 5.897l-4.189-1.925c.409 1.088.626 1.652.844 2.232-1.547-1.412-3.094-2.825-4.718-4.277-1.013 2.911 7.96 9.534 15.271 11.07l-3.333-3.662c.731.034 1.858-.222 2.13.15 2.848 3.836 7.348 5.008 11.361 6.455 6.232 2.236 12.836 3.442 19.887 5.242l-.955-2.423 1.455.245c-1.896-4.025-3.799-8.063-5.695-12.091.869 1.242 1.807 2.443 2.581 3.737 1.183 1.952 2.259 3.968 3.379 5.956l.842-.533c-.462-4.592-2.776-8.007-6.767-10.359-1.963-2.844-3.746-5.841-5.965-8.469-1.267-1.499-3.248-2.397-4.907-3.563-3.652-2.283-4.844-7.549-9.894-8.146-1.174-.141-2.394-.679-3.494-.477-1.712.312-3.336 1.099-4.947 1.667 2.366 3.231 4.478 6.367 6.87 9.273 1.242 1.51 2.784 2.57 4.151-.335.487-1.032 2.162-1.629 3.425-2.054.288-.101 1.104 1.23 1.369 1.572l2.585-1.572c-.643.868-1.145 1.916-1.967 2.544-.602.461-1.646.292-2.449.538a21.12 21.12 0 0 0-2.41 1.115 3603.658 3603.658 0 0 1 17.696 7.811l-.001-.003zm382.905-69.583l-2.379-3.438c-.108 2.409.395 4.359-.353 5.25-1.531 1.799-3.75 3.029-5.684 4.489.161.261.317.52.477.777l1.504-.76c-.991 4.402 2.779 4.933 5.235 6.47.411.261 1.362-.344 2.068-.521-.199-.645-.19-1.541-.629-1.882-1.502-1.123-1.13-2.181-.872-3.838.289-1.863.649-3.582 1.483-5.237.783-.328 1.563-.918 2.357-.931 2.767-.05 3.847-1.624 2.761-4.892l-1.209 2.528c-.198-1.701-.307-2.797-.486-3.883a.919.919 0 0 0-.708-.556c-.356.018-.967.243-.999.478-.273 1.657-.423 3.346-.578 4.715l-1.988 1.231zm-286.284 3.4c2.383-1.427 3.738-1.816 5.981 1.24 2.243 3.055 4.073 5.436 2.242 9.716 2.25-.384 5.082-.312 5.28-.993 1.098-3.849 3.783-2.914 6.661-3.23l-19.651-11.626c-.181 2.149-.301 3.529-.379 4.923l-7.537 3.534c2.289 2.088 3.178 5.837 7.623 4.495.58-.174 1.69 1.221 2.483 1.974.563.549.985 1.249 1.872 2.403l.894-4.644c-2.158-.985-4.304-1.972-7.024-3.216l4.17-2.155-2.615-2.421zm221.069-6.024c2.907.934 2.91 2.692 1.324 4.827-1.18 1.619-2.451 3.194-3.68 4.79l1.179 1.04c-3.241-.354-5.182 1.128-6.004 4.229-.139.535-.478 1.49-.657 1.475-3.507-.307-3.603 3.346-5.533 4.825-.768.59-.792 2.148-1.161 3.269l.825.372 12.515-14.182c4.396-6.014 11.453-10.333 12.213-17.936l-6.226-.54c-.078.509-.068 1.824-.533 2.941-.261.634-1.742 1.468-1.933 1.309-1.84-1.521-2.322.458-2.862 1.246-.309.443.4 1.586.649 2.416-2.497-.458-4.049.648-5.148 2.886-.846 1.702-2.202 3.155-2.987 4.877-.528 1.165-.455 2.604-.652 3.92l.916.372c1.966-1.65 3.901-3.313 5.876-4.942 2.365-1.974 3.248-4.284 1.879-7.194zm-203.117 41.408l-3.218.811c.758 8.424 5.855 13.531 12.916 18.075-.141-1.644-.017-2.695-.339-3.582-1.256-3.408-2.593-6.79-4.049-10.096-.112-.253-1.424-.01-2.169.059-.31.077-.609.195-.888.351l.257-2.32c-2.213-.086-4.254-.421-2.64-3.356l1.802.55.48-.601-3.786-3.996-5.642 2.299c.323.224 1.073 1.107 1.989 1.305 1.715.362 3.516.34 5.287.501zm254.981 41.194l-11 11.045c3.422 2.866 5.632 2.154 8.123-.062 2.916-2.605 6.3-4.724 9.449-7.101 1.271-.959 2.455-2.04 4.012-3.345-1.834-.598-3.284-.761-4.341-1.471-2.572-1.781-4.553-1.294-6.326 1.062l.083-.128zm-64.511-203.234c.381 1.619-.807 3.979 2.013 4.586l.157-3.191 3.09.384.316-1.691 5.256 3.526c3.386-3.152 3.779-5.716.935-9.048-1.207-1.42-3.006-2.32-4.398-3.604-1.833-1.698-2.991-.29-3.818.934-1.193 1.77-2.005 3.792-2.98 5.705-.036-1.638-.075-3.276-.115-4.993l-3.825 1.786c1.1 1.847 2.236 3.724 3.369 5.606zm-102.271 102.99c.001-1.934.274-3.924-.092-5.785-.247-1.248-1.351-2.351-2.16-3.453-.693-.937-1.512-1.779-2.649-3.092l-2.263.031c-1.45-1.704-2.588-3.036-4.213-4.949-.001 1.711.212 3.234-.035 3.311-4.008 1.281-2.67 4.794-3.331 7.45 2.92 1.427 7.164.89 7.374 4.89l7.466 1.62a5.796 5.796 0 0 0-.945.282c-.196.115-.357.28-.467.479-.61.948.082 3.381-2.423 2.167-.96-.469-1.859-1.076-3.767-2.203 1.327 3.171 2.321 5.556 3.469 8.3l2.593-2.313c.907 1.077 1.702 2.028 2.562 3.03 2.217-2.499 4.24-4.978 7.579-3.101-.204 1.584-.524 2.912-.413 4.221.023.264 1.681.371 2.651.595.095-1.577.369-2.725.177-3.788-.217-1.208-.52-2.946-1.356-3.394-3.131-1.665-6.486-2.899-9.753-4.299l-.004.001zm-117.66 84.581c2.629 1.219 3.506 5.234 8.235 3.363 3.301-1.3 7.724.499 11.652.554 1.27.013 2.553-1.116 3.829-1.724-.083-.439-.163-.884-.246-1.323-3.122-1.254-6.144-3.053-9.386-3.629-5.171-.924-10.486-1.046-15.745-1.451-.311-.021-.672.483-1.004.741-3.792-.743-7.418-.64-11.367 2.468l15.238 3.992a668.04 668.04 0 0 0-1.206-2.991zm-22.815 8.254l-.114 2.697 2.979-.922c-.278.805-.767.988-1.196 1.255-4.617 3.025-5.965 7.334-2.761 10.187 3.43 3.054 7.374 5.534 11.122 8.23.281.203.775.114 2.206.281-1.771-1.816-2.938-2.931-4.007-4.151-.751-.851-1.364-1.82-2.039-2.733 2.784-1.869.735-4.266.761-6.639l6.259.721c-.104-.68-.271-1.754-.429-2.758l-2.748.042 1.26-3.363 3.113.49 4.042-1.745c.453 2.792.799 4.936 1.149 7.079l1.248.701-11.398 4.028c.294 2.065-.885 5.419 2.611 5.634 1.177.073 2.515-2.619 3.683-3.941.516.898 1.435 2.544 2.521 4.41 1.784-2.716 3.187-2.697 4.482-.645.52.822 1.655 1.246 2.49 1.881.516.394.987.843 1.881 1.618l-8.823-.904c-.155 4.882-.067 5.733 2.12 6.837 3.185 1.611 6.516 2.888 10.104 4.445a868.76 868.76 0 0 1-.641-4.118c1.132 6.066 5.335 7.242 10.628 7.246 2.55-.007 5.107.639 7.654 1.041 6.616 1.052 13.147 3.193 20.037 1.155 5.911-1.747 6.572-2.45 5.668-8.399-.041-.272.201-.587.317-.898l1.752 6.95c7.622-1.261 15.026-2.659 22.475-3.631 2.305-.303 4.782.498 7.173.848.677.149 1.342.349 1.989.599-3.874-3.415-7.632-7.001-12.078-9.176-5.977-2.924-10.927-6.968-15.971-11.12-2.88-2.37-6.486-3.875-9.833-5.656-.564-.298-1.449-.032-2.179.001l-.026.876 3.542.569c-.151 1.229-.3 2.417-.498 3.98 1.346 2.189 3.476 4.435 7.418 3.601-1.011.965-2.033 1.306-2.347 1.949-.258.549.32 1.507.538 2.246.2.684.427 1.362.642 2.042-1.569-.931-2.323-2.146-3.238-3.225-.349-.405-1.06-.503-1.608-.739-.204.671-.734 1.452-.551 1.989.313.91.903 2.008 1.682 2.419 2.879 1.501 2.285 3.445 1.015 5.603-1.683-3.418-3.363-6.838-5.337-10.842l-2.457 3.088-2.215-1.621 2.086-6.357c-1.431-.64-2.98-1.29-4.485-2.046-.377-.187-.578-.719-.855-1.094 1.457-.518.575-3.547 3.152-2.93.464.109 1.012-.14 1.836-.276-3.898-1.968-3.881-1.944-6.498.494-.544.502-1.576 1.274-1.913 1.085-3.233-1.801-4.28 1.321-6.098 2.585-1.013.704-1.772 1.725-2.668 2.629l-.542-.732c-.768.59-1.445 1.479-1.959 1.394-2.051-.344-2.032-.456-3.333 1.202l-.231-3.09-1.759-.851c2.598-1.981 3.958-5.043 7.89-4.104-.391-.795-.654-1.84-1.124-1.972-2.427-.667-4.957-.958-7.379-1.634-2.012-.565-4.404-.982-5.798-2.326-4.466-4.297-9.269-6.501-15.492-4.655l.314 1.247c.083.332.142.722.222 1.135-5.062.124-7.807-1.665-7.968-5.233.011 3.193-1.801 3.88-4.177 3.351 1.355 1.913 2.598 3.661 3.84 5.408l-2.672 1.638.167-3.087-8.72-1.332c2.003-1.739.267-2.941-.944-3.021-1.715-.112-3.497.742-5.77 1.315l6.811 1.745zm430.507-110.851c-.974 1.349-1.943 2.7-2.923 4.043-2.123 2.917-4.513 5.722-3.131 10.448l11.845-16.669-.535-.437-5.359 2.772c2.94-3.52 5.935-7.026 8.742-10.663.541-.704.318-1.998.432-3.011 1.286-.522 4.761.273 1.697-2.893-.318-.317-.202-1.335.018-1.91.962-2.485.571-4.511-1.387-6.435-.931-.921-1.215-2.473-1.797-3.759l.288-.152 4.382 6.176c3.215-4.164 2.432-8.357 2.05-12.628l1.074 3.393c5.739-6.793 6.415-9.341 3.553-12.129l-1.234 2.807-2.707-2.33-1.131 2.27a114.55 114.55 0 0 1-.1-1.166c-.646-.234-1.284-.638-1.939-.671-.987.011-1.972.093-2.947.247l-.101-1.015c-7.625 3.343-12.129 9.984-16.915 16.259-1.403 1.835-2.118 4.198-3.14 6.318-.549 2.151-1.103 4.303-1.673 6.543l6.452-1.995 4.809.951-5.294 2.624c-.638-.533-1.566-1.649-1.873-1.512-1.489.74-3.552 1.518-4.055 2.816-1.964 4.933-3.143 10.18-5.121 15.105-1.851 4.691-4.217 8.756-.648 14.03 1.439 2.119 2.39 6.698-2.52 8.23-.412.127-.568 1.084-.895 1.757 4.835-.948 6.082-5.184 8.163-8.408 3.241-5.037 6.032-10.357 9.013-15.559.519-.083 1.191.002 1.517-.283 1.197-.984 2.273-2.101 3.39-3.164zm-25.661 97.855c-2.285 2.621-5.355 4.76-5.663 9.24 3.36-.847 6.445-1.568 9.481-2.389 5.376-1.478 10.449-3.308 10.42-10.292.002-.346.127-.681.354-.942 2.536-2.537.985-5.132.423-7.773-2.286 1.311-4.349 2.466-6.384 3.669-1.921 1.135-3.81 2.318-5.713 3.48-1.394.578-2.927.988-4.08 1.862-.263.186.743 2.048 1.162 3.145zm-509.136-2.282l-4.741-2.112c1.505-1.356 2.877-2.559 4.205-3.795 1.174-1.09 2.316-2.215 3.473-3.325-.092-.131-.181-.263-.269-.392l-4.743 1.878-3.109-5.072c.92-1.737 1.82-3.428 2.702-5.127 1.11-1.721 2.873-2.257 5.045-2.32-.673-1.092-1.151-1.841-1.619-2.593l-.194.883-5.636-.517c.827 1.502 1.688 3.076 2.552 4.645l-5.342 1.346c-1.672-.238-4.244-.916-1.187-4.711l-4.018 1.386-1.826-2.16c-2.335 1.858-4.184 4.019-3.295 6.821.731 2.304 2.554 4.274 1.534 6.953-3.651-.31-5.99 1.434-7.39 4.641-5.762-1.882-7.905-1.549-12.469 2.158 4.365.702 5.701 7.186 11.271 5.044l-1.383.813 2.774.988-3.965 3.421-3.388-2.414c-.677 2.275-5.976.561-4.526 4.785 2.343-.154 4.704-.237 7.031-.549.33-.044.508-1.228.757-1.882 1.487.419 2.97.84 5.357 1.536 1.074 1.949 5.183 4.121 8.492 3.672 2.831 2.037 5.526 4.32 8.547 6.02 1.577.885 3.743 1.069 5.619.998 2.305-.085 4.489-1.926 6.959-.142.554.404 1.832-.196 2.778-.335l.268-.953-19.907-10.374a671.287 671.287 0 0 1 1.461 2.835l-5.806 2.055c.081-.211.25-.583.241-.617-2.673-1.708-2.146-4.31-1.931-6.845a1.375 1.375 0 0 0-.584-1.104c-2.967-1.503-2.087-3.317-.53-5.253.998-1.236 2.292-2.388 2.815-3.81.848-2.322-.853-3.684-2.651-4.771l6.191 3.176c-.441-1.437-.737-2.39-1.196-3.879l4.373 2.797-3.72 1.759 6.144 4.581-.502.781 5.235-.477 3.313.543-.008.867-5.43.884c.281.771.635 1.734 1.066 2.907 2.563-.951 5.131-1.69 7.445-2.892.704-.356 1.367-2.453 1.025-2.863-.893-1.037-2.394-2.175-3.614-2.134-1.221.042-2.454 1.448-3.694 2.245zm285.451-12.185l2.097-2.28-.964-5.167-2.484 1.487c-1.18-1.846-1.657-5.08-5.068-2.577l2.613-2.818a787.74 787.74 0 0 0-4.31-1.792c-1.453 2.68-2.789 5.224-4.168 7.739-2.143 3.907 3.326 4.501 3.35 7.588.007.55 1.769 1.082 2.72 1.625-.276.561-.941 1.356-.774 1.656 4.25 7.162 6.261 15.567 12.031 21.858.756.826 2.086 1.126 3.142 1.678-.142.651-.619 1.498-.374 1.92 2.133 3.627 4.396 7.173 6.622 10.745l.756-.373-3.306-13.117-3.762.948 3.412-2.321c-.226-.411-.5-.834-.721-1.287-2.242-4.957-4.712-9.829-6.62-14.913-1.052-2.804-1.211-5.955-1.679-8.962-.248-1.597-.956-2.2-2.513-1.637zm-248.56 48.89l3.939 3.438 3.274-2.385c-1.965-2.03-1.965-2.03-7.245-1.056l-2.225-3.14 1.205-1.097c-7.125-3.318-13.907-6.507-20.725-9.617-1.117-.512-2.568-1.198-3.558-.873-1.878.616-4.723-1.664-5.665 1.765-1.365.316-2.914 1.198-4.063.829-2.615-.833-5.093-2.174-7.52-3.504-3.051-1.676-6.09-3.416-8.962-5.379-2.543-1.741-4.712-.675-7.089.226-1.319.499-3.717-.179-1.968 2.588.094.151-.308.872-.558.935-2.012.443-2.983 3.002-2.149 4.594l-6.145 3.971c4.044 1.541 7.29 2.728 9.556 5.531l-1.39 3.32-2.259-.769-.511 1.026 6.964 4.005.447-.747c.306.899.609 1.797.908 2.692-3.25-1.479-6.566-2.537-10.165-1.805l-.161.934 10.67 1.381-.302-.484 7.182.599c.151-2.677-.337-5.242.62-6.96 1.101-1.933 3.549-3.102 5.42-4.609.084-.331.278-1.071.561-2.154.572.947.984 1.634 1.481 2.457 1.54-1.861 3.126-2.876 4.321-.18 3.308-1.195 5.548-3.569 6.841-6.833.513.728 1.533 2.047 1.467 2.103-2.131 1.832.496 2.206.932 3.208l.052-.061-3.579 1.553.33.869 3.062-.204-.726 2.367c1.101.322 2.212.633 3.296.979.744.246 1.458.59 2.185.891l-1.172 2.217 2.806.551-.641 4.087 6.645-1.674-6.046-2.395 3.056-1.905-3.166-1.382.301-1.167 5.668 1.068c.152-.971.254-1.671.411-2.719 2.805 1.587 5.367 2.851 7.69 4.461.697.483.727 1.925 1.082 2.939l-10.381 2.616 20.753 3.948.647-1.135-1.894-2.913c-2.46.62-4.046 1.273-5.667 1.345-1.16.046-2.354-.693-3.539-1.094-.012-.663-.046-1.758-.049-2.857l1.911.288-.517-5.296c1.633.227 2.988.422 4.354.613zm397.259 5.59c-.412-.865-.884-1.711-1.232-2.604-.657-1.68-.915-3.632-1.957-5.025-1.041-1.393-2.769-2.2-3.824-2.982l-2.03 3.048a14.098 14.098 0 0 0-1.666-1.41 1.467 1.467 0 0 0-1.176-.069c-2.953 1.28-5.88 2.613-8.984 4.003l2.194 2.988-3.77-.784c.344 1.27.556 2.599 1.075 3.794.325.755 1.123 1.305 1.684 1.957l-7.145.348-.35.973 2.23.232-.321 1.074-5.261-.191c-3.775 3.071-8.155 6.422-12.238 10.083-1.561 1.401-2.355 3.575-.744 6.217l-3.031-1.947c-.073.892-.163 1.954-.22 2.672l-3.252.819c.064-.362.142-.762.303-1.664-1.464.821-2.523 1.251-3.392 1.93-6.853 5.352-13.618 10.816-20.518 16.104-2.995 2.295-5.994 4.444-7.139 8.313-.221.699-1.014 1.193-1.44 1.848-1.899 2.94-3.872 5.839-5.609 8.869-2.002 3.494-3.766 7.11-5.667 10.674-.785 1.484-1.839 2.877-2.344 4.449-.698 2.161-.884 4.494-1.488 6.699-.614 2.29.925 5.547 2.698 5.02 2.301-.683 3.544.247 3.622 2.148.059 1.383-.675 3.624-1.693 4.072-3.049 1.339-2.933 3.343-2.186 5.85.24.758.388 1.541.441 2.334.266 6.285.498 12.578.738 18.869l1.125.07c2.807-5.245 6.722-9.983 6.498-16.592-.1-3.547 1.809-4.933 5.16-5.607 1.583-.32 3.434-1.433 4.325-2.753 5.351-7.955 12.39-14.381 19.11-21.033 4.827-4.789 10.321-8.869 13.801-14.891 8.784-15.191 22.605-24.573 37.582-32.675 3.182-1.723 6.025-4.07 9.771-6.642-3.996-1.772-8.311-2.137-9.747-6.353.737.231 1.589.302 2.188.727 1.104.79 1.949 1.982 3.106 2.651 1.599.927 3.386 1.529 5.135 2.279l1.303-5.306-5.455.945c.853-1.783 1.619-3.393 2.462-5.165-.317-.409-.852-1.096-2.012-2.598l3.286 1.304a4895.78 4895.78 0 0 1-4.058-7.139l2.932 2.294.977-4.613c-.086 1.609-.277 3.245-.207 4.879a5.25 5.25 0 0 0 .848 2.359c.776 1.281 2.382 2.44 2.429 3.699.117 3.015-.455 6.069-.829 9.689 3.724-1.637 7.25-2.923 10.464-4.757.989-.567 1.124-2.63 1.669-4.057l2.226 2.122c3.191-2.729-1.208-4.701-.151-7.532.79 1.087 1.636 2.792 2.028 2.693 1.549-.391 3.386-.996 4.336-2.157 2.615-3.2 4.841-6.718 7.335-10.276-.757-.528-1.969-.977-2.53-1.848-1.604-2.474-5.971-3.215-4.767-7.464.914 1.444 1.833 2.89 2.755 4.335l1.126-.403.652-4.42-.945-.159 1.958-1.684-4.038-.551-1.599 3.012c.845-3.389.773-6.511-2.816-8.326l2.528-1.717c-2.057-.525-3.952-1.096-3.942 1.922 0 .628-1.774 1.432-2.85 1.81-.496.177-1.282-.47-1.945-.752l-4.035 1.315-1.411-5.6-3.809 3.457c1.644.884 3.111 1.32 4.047 2.275.935.956 1.287 2.383 2.007 3.822l3.801-3.82 2.145 8.51-5.42 1.366c.069.276.104.557.158.834l7.27-.312c-1.019 1.174-1.989 2.3-2.987 3.46.402.59 1.034 1.506 2.232 3.249-1.543-.64-2.039-.908-2.569-1.056-2.293-.657-4.762-2.123-6.853-1.707-2.945.584-5.613 2.57-8.399 3.959l1.539-1.535-.622-1.034c-1.307.027-3.374-.425-3.767.191-.775 1.227-.625 3.035-.859 4.595zm39.407-21.146c-.216-.259-.454-.509-.646-.786-2.15-3.078-2.131-3.036 1.253-4.035.514-.154.82-1.001 1.201-1.538l-1.816-.999c.631-1.29.992-2.457 1.691-3.372 1.419-1.866 2.809-4.828 4.584-5.125 3.722-.62 3.015-2.212 1.974-4.769l4.422-.427c-.345-2.14-.704-4.368-1.047-6.485-2.934.315-5.966-.263-7.621.98-5.538 4.174-13.159 2.919-18.376 7.691-2.363 2.184-5.144 3.893-7.537 6.04-.43.386.109 1.85.114 1.917 2.753-.877 4.787-1.909 6.876-2.031 1.034-.058 2.162 1.567 3.564 2.675l-4.233.797-.587.981c1.087.83 2.856 2.556 3.143 2.34 1.329-1.025 2.289-2.589 3.168-3.7l3.384-.23.34-1.471-2.409-.012.451-1.189c2.601-.437 5.223-1.249 7.708.768.271.222.374.649.637 1.126l-1.413-.112c-.844 1.677-1.234 2.983-2.057 3.936-.824.954-2.161 1.494-3.074 2.407-.39.388-.572 1.732-.355 1.867 1.973 1.309 4.059 2.451 6.11 3.641-2.304 2.356-4.821 4.578-6.869 7.146-1.116 1.401-1.845 3.22.388 4.976 2.088 1.637 3.707 1.884 5.599.054l4.898-4.748c-1.274-.33-2.804-.524-2.811-.756-.032-1.136.022-2.511.641-3.381 1.534-2.15 1.643-3.547-1.295-4.176zm-269.285-22.972c-1.265.89-2.802 1.564-3.697 2.738-.658.856-.473 2.346-.653 3.583l-1.165.103c.825-6.35-3.717-7.377-8.195-8.888 1.508-.694 2.978-.548 4.229-1.006 1.327-.482 2.442-1.541 3.689-2.375-.284-.528-.609-1.121-.907-1.677l-1.445.805-.967-.781 2.512-1.498-.826-.443-5.897 1.486c.333-1.04.57-1.767.711-2.203-2.072-.439-4.114-1.203-6.149-1.194-1.463.007-2.95.989-4.363 1.667-.355.169-.461.835-.683 1.276-.546-.371-1.113-.716-1.636-1.12-.749-.578-1.464-1.195-2.191-1.794-.392.825-.91 1.618-1.144 2.487-.259.971-.591 2.11-.316 2.998.581 1.882 1.54 3.653 2.343 5.471l.888-.307c.163-.581.327-1.158.286-1.021l5.82-1.466-.828 6.453c-2.214.002-2.584 1.953-2.456 4.084.157 2.608 2.285 1.806 3.832 2.067 7.775 1.38 15.553 2.754 23.311 4.285 1.604.318 3.071 1.318 4.745 2.067-1.092-2.757-2.161-4.981-2.88-7.313-.55-1.791-.846-3.36-3.366-2.601-.399.12-1.446-.775-1.656-1.386-.507-1.46-.694-3.024-.996-4.536.379.204.744.435 1.091.69.809.673 1.588 1.386 2.375 2.085.249-1.139.836-2.323.683-3.404-.358-2.506-1.653-3.895-4.31-2.53.069 1.142.142 2.171.211 3.198zm160.259 48.26c-.224-2.294.393-5.355-.851-6.717-2.199-2.427-2.476-4.235-.69-6.36-.82-.846-1.462-1.502-2.484-2.55-4.193 3.069-8.459 6.145-12.676 9.292-5.879 4.383-11.159 9.279-14.261 16.158-2.483 5.537-5.17 10.989-7.516 16.583-.62 1.478-.591 3.372-.39 5.02.508 4.239.979 8.487 2.055 12.583.606 2.309.88 5.066 3.911 6.335 2.192.916 2.733 2.967 1.376 5.365-.572 1.01-.378 2.454-.531 3.707l1.513.552c1.642-2.713 3.563-5.301 4.847-8.173 1.22-2.721 1.694-5.77 2.666-8.611.311-.908 1.013-2.106 1.79-2.349 2.791-.878 3.211-3.215 3.895-5.463.397-1.291.473-2.847 1.251-3.841 5.583-7.1 11.312-14.089 17.07-21.205-.104-.554-.293-1.554-.485-2.554a1733.44 1733.44 0 0 0-.49-7.772zm177.848-53.37l.345 1.366c4.659-1.468 6.129-6.379 9.705-9.5-3.262.822-6.313 2.119-9.366 3.413-.089.022-.119.188-.178.287l-1.351-2.78c-1.852 2.023-3.227 3.687-4.778 5.174-1.366 1.305-2.983 2.339-4.39 3.611-1.701 1.568-2.155 3.373-.523 5.344-7.935 8.224-14.701 10.156-24.23 13.3-4.871 1.624-9.42 4.208-14.095 6.406a3.222 3.222 0 0 0-1.451 1.298c-2.515 5.064-4.853 10.215-7.46 15.231-2.061 3.965-4.548 7.803-9.427 8.557-4.793.735-7.606 4.648-11.588 6.663-1.232.624-2.591 1.943-2.936 3.205-1.022 3.743-4.289 4.721-7.028 6.345-1.25.74-2.775 1.005-4.099 1.644-2.918 1.402-5.79 2.908-8.676 4.37 6.129 1.591 12.142 2.39 18.13 3.371 4.507.73 9.227.386 13.332 3.313.97.7 3.371-.214 4.952-.827 1.425-.554 2.547-1.833 3.924-2.577 6.851-3.64 12.694-8.387 18.181-13.958 7.207-7.319 15.649-13.249 25.405-17.038 2.043-.792 4.754-1.753 5.593-3.422 2.5-4.996 6.946-6.76 11.566-8.591 1.23-.489 2.347-1.259 3.519-1.899l-.471-.703-4.062-.616 2.477-5.281c-.321-.689-.66-1.422-1.003-2.153l-.082.148 4.647-.667c1.126.732 2.086 1.36 3.062 1.955.004.019.249-.301.891-1.094l-2.648-.237c.895-1.175 1.37-1.794 1.607-2.112a1914.75 1914.75 0 0 1-3.381-3.491l4.411 2.064c.286-.914.319-1.887.817-2.397.811-.832 2.01-1.273 2.878-2.063.348-.322.25-1.135.36-1.723l-1.373-.189c-.309-.042-.713.024-.911-.148-2.273-1.964-4.402-.36-6.309.562-.446.215.145 2.579.262 3.955-3.159-1.129-2.036-3.354-1.458-4.793-1.469-2.095-3.402-3.685-3.673-5.518-.361-2.505.537-5.177.883-7.805zm-299.782 53.209c-.002 5.598-.174 10.98 4.267 15.117 2.073 1.927 4.543 3.568 6.145 5.828 4.443 6.272 8.596 12.752 12.724 19.238 2.951 4.636 5.567 9.487 8.565 14.091a9.62 9.62 0 0 0 4.002 3.469c3.325 1.441 6.871 2.421 10.332 3.569 1.04.346 2.444 1.175 3.112.804 2.58-1.484 4.221.02 5.654 1.561 3.274 3.541 6.256 7.371 9.576 10.873a22.24 22.24 0 0 0 11.02 6.397c-.288-4.294-.269-8.126-.85-11.85-.692-4.462-1.972-8.832-2.848-13.272-.736-3.736-.748-7.691-2.001-11.23-1.585-4.527-3.913-8.832-6.226-13.064-2.407-4.403-4.882-8.837-7.88-12.841-3.08-4.107-6.737-7.83-10.351-11.473a11.5 11.5 0 0 0-4.966-2.786c-4.952-1.348-10.177-1.885-14.957-3.65-3.899-1.439-7.146-4.571-10.982-6.26-4.269-1.882-8.023-4.143-10.857-7.891-.484-.644-1.408-1.348-2.135-1.352-1.957-.015-7.144 5.568-6.379 7.122 1.369 2.787.733 7.116 5.035 7.6zm18.104 53.897c-.234-1.354-.15-3.055-.828-4.357a128.93 128.93 0 0 0-6.995-12.211c-3.839-5.781-6.797-12.4-13.549-15.752-1.581-.792-3.005-1.906-4.425-2.973-4.246-3.19-8.965-4.779-14.29-4.279-5.816.548-11.474.057-16.862-2.452-1.206-.562-2.574-1.09-3.867-1.086-9.707.041-19.42-.14-28.897 2.769-2.948.905-6.23 1.066-9.373 1.147a123.55 123.55 0 0 1-13.836-.304c-2.882-.251-3.898 1.137-3.472 3.364.342 1.767 1.578 3.457 2.72 4.947 1.192 1.582 3.891 2.839 3.968 4.312.154 3.681 2.297 3.724 4.818 3.947 3.152.301 6.368.38 9.419 1.143 9.99 2.465 20.054 4.768 29.798 7.973 5.968 1.962 11.295 5.788 17.152 8.203 7.452 3.076 15.299 4.377 23.456 4.374 8.158-.003 16.355.782 25.063 1.235zm238.552-39.707c5.817-.768 10.409-1.83 15.008-1.885 9.884-.16 19.79.713 29.042-4.02 1.434-.735 3.338-.539 5.015-.831a28.868 28.868 0 0 0 3.977-.851c5.278-1.727 10.48-3.721 15.823-5.203 2.379-.658 3.55-1.982 4.657-3.952 1.642-2.935 3.569-5.735 5.445-8.546 1.492-2.237 2.605-4.36 2.75-7.326.136-2.615 1.594-5.602 3.408-7.556 1.649-1.773 2.454-2.865 1.08-4.977-.526-.812-.795-1.784-1.188-2.713-.841.287-2.311.582-2.312.829.039 3.082-2.442 2.91-4.308 3.618-.493.188-1.166.619-1.254 1.042-.426 2.061-1.139 1.875-2.634.779-1.894-1.368-3.898-.169-5.753.47-3.064 1.058-6.054 2.347-9.12 3.413-1.285.447-3.016.165-3.974.93-3.334 2.667-6.454 5.597-9.575 8.523-.916.854-1.396 2.337-2.405 2.901-2.67 1.442-5.526 2.535-8.317 3.751-5.581 2.426-11.229 4.715-16.725 7.323a38.041 38.041 0 0 0-6.997 4.542c-3.735 2.95-7.346 6.123-11.643 9.739zm-179.179.799c1.367-.436 2.19-.449 2.368-.796 1.869-3.611 4.622-7.119 5.224-10.951 1.533-9.671 3.343-19.171 7.834-27.925 2.595-5.06 5.762-9.82 8.43-14.828 1.401-2.635 3.145-3.825 6.198-3.761 1.247.032 3.346-1.026 3.649-2.015 1.692-5.555 5.622-8.959 9.991-12.339 2.784-2.167 4.922-5.373 6.769-8.455 1.19-1.99 1.323-4.612 2.153-7.827-2.384.954-4.268 1.703-6.13 2.458-1.016.411-1.987 1.061-3.04 1.231-4.015.638-8.194.659-12.046 1.805-3.852 1.145-7.328 3.339-9.982 4.607-2.887 5.464-5.459 10.269-7.967 15.109-3.011 5.728-6.003 11.468-8.784 17.318-.334.708.641 2.038 1.162 3.51a4.357 4.357 0 0 1-.804 1.394c-3.776 3.917-5.883 8.35-5.138 13.998.379 2.842.025 5.786.032 8.682.019 6.077.051 12.127.081 18.785zm67.487-69.456c2.541 4.238 5.739 2.293 8.905 1.169a26.31 26.31 0 0 0 9.474-5.587c2.512-2.348 4.541-4.582 4.454-8.268-.039-1.729.408-3.469.537-4.502 1.079-.097 2.117.13 2.595-.289 2.41-2.108 2.438-5.1 1.483-7.646-.985-2.618-2.795-5.012-4.629-7.17-.638-.749-2.524-.845-3.676-.566-.598.15-.933 1.735-1.208 2.722-.171.614.255 1.75-.028 1.92-2.757 1.663-2.385 4.571-2.457 6.947-.069 2.455-1.184 3.181-3.128 3.658-1.638.413-3.505.522-4.845 1.408-5.279 3.502-11.126 4.686-17.285 5.547-2.873.398-5.982 2.158-8.092 4.215-2.721 2.67-5.126 5.555-8.499 7.529-3.001 1.752-4.525 4.633-5.06 8.388l8.703-1.554c.247-1.384.113-3.144.895-4.326 1.326-2.049 2.707.013 4.156.267 2.636.455 5.154 2.226 8.176.857 2.173-.984 4.712-1.386 7.119-1.556 1.353-.095 2.78.808 4.169 1.264l.308-.903a571.876 571.876 0 0 1-2.067-3.524zm82.348 84.729c.054-.37.11-.746.167-1.118-2.017-.539-4.006-1.233-6.053-1.587-6.225-1.075-12.465-2.11-18.724-2.986-5.958-.833-12.116-.599-17.146 2.645-8.898 5.744-17.965 11.399-25.262 19.288-1.329 1.439-2.538 2.986-3.802 4.479 5.775-.526 10.063-3.437 14.309-6.642 2.148-1.621 4.826-2.713 7.43-3.504 3.466-1.052 7.094-1.574 10.651-2.331 2.109-.452 4.215-1.281 6.326-1.313 11.203-.159 21.528-4.067 32.104-6.931zm-248.38-32.881c-.302-5.481-.444-10.078-.863-14.657a10.36 10.36 0 0 0-1.568-4.393c-2.685-4.258-6.335-7.053-11.537-7.974-5.563-.98-10.982-2.746-16.534-3.812-3.053-.584-6.244-.439-9.374-.619l-.318 1.291c14.047 8.782 27.173 18.793 40.194 30.164zm61.622 70.664l26.866 34.996c2.906-3.972 5.595-1.807 8.883-.103-.08-2.362-.062-4.165-.218-5.951-.311-3.614-1.399-6.48-5.138-8.352-4.293-2.15-8.834-4.574-11.991-8.042-5.174-5.679-11.236-9.697-18.402-12.548zm59.54-135.159c2.743-1.195 5.393-2.748 8.248-3.5 3.937-1.031 8.029-1.475 12.059-2.133 1.59-.258 6.062-4.74 6.286-6.233.25-1.651.47-3.378 1.096-4.913.28-.698 1.5-1.418 2.303-1.43 5.593-.08 10.528-5.734 9.922-11.448-.225-2.119-.224-4.259-.371-7.283-2.463 3.507-4.724 6.585-6.795 9.787-.42.65.224 2.211-.237 2.573-2.817 2.21-5.785 4.185-8.627 6.187l-.177 4.686c-12.917-4.173-18.775 3.913-23.707 13.707zm-73.197 1.995c.541-2.121 1.236-3.837 1.388-5.614.149-1.911-1.052-4.585-.15-5.666 2.113-2.518.779-4.786.454-7.13-.063-.472-1.255-.791-1.876-1.143a10.875 10.875 0 0 0-.888-2.281c-.094-.151-1.588.206-1.627.458-.101.641.253 1.353.457 2.163l-2.729 1.014c-.122-.184-.241-.372-.363-.556l1.602-2.182-2.569-.917 4.83-2.618c-.094-.183-.18-.352-.274-.551l-6.524 1.645c.114-1.927-.453-4.38.483-5.771 2.097-3.034-.559-2.845-1.876-3.426a30.445 30.445 0 0 0-5.55-1.829c-.914-.206-1.967.198-2.955.324 2.84 1.396 4.736 3.043 4.717 6.386l-3.025-.032c2.003 2.31 3.584 4.139 5.458 6.299l-5.667 3.349c1.678.625 3.282 1.221 4.203 1.569l1.763 6.995 1.932-1.785c-.376 6.276 3.617 8.668 8.786 11.299zm-83.173 108.943l.201-1.031c-5.511-1.39-10.94-3.051-16.51-4.077-9.269-1.717-18.65-2.819-27.907-4.583-4.621-.88-9.548-1.512-12.37-6.442-.818-1.433-3.096-2.03-4.704-3.007 3.612 4.124 7.959 7.371 11.226 11.463 5.535 6.969 12.431 9.317 20.981 8.496 4.338-.415 8.784.2 13.089-.425 4.163-.604 8.222-1.337 12.425-.602 1.167.206 2.376.136 3.569.208zm60.996-65.391c2.204-2.786 3.884-6.139 2.293-10.169-.428-1.083-1.499-2.433-2.507-2.671-7.878-1.849-15.489-5.287-24.091-4.119.827 2.713 1.821 5.495 2.502 8.353.415 1.773 1.187 2.507 3.009 2.993 6.149 1.654 12.222 3.605 18.786 5.58l.008.033zm82.84-67.005c-1.638.413-2.656.487-3.518.926-1.492.773-3.615-.169-4.69 2.373-.356.824-4.153.153-6.452.165-2.11 5.978-2.11 5.978 3.728 8.588-1.729 1.015-3.169 2.704-4.909-.275-2.319 7.73-.64 15.024.782 22.431 4.713-6.504 8.011-13.468 10.449-21.689l2.823-3.339-2.308.184c.503-1.234.998-2.466 1.552-3.829l2.596.942c-.016-2.251-.033-4.132-.053-6.477zm-81.543 69.203c4.18 6.886 19.669 15.841 28.911 16.803-.655-.629-1.459-1.061-1.451-1.44.297-4.696-3.328-7.784-4.693-11.771-1.859-5.407-6.402-5.822-10.976-5.968-2.248-.065-4.533.396-6.763.827-1.648.328-3.27.999-5.028 1.549zm121.334 25.759c1.211-1.353 2.18-2.582 3.297-3.661 4.842-4.666 9.818-9.199 14.554-13.97 2.132-2.125 3.808-4.723 5.813-7.257-2.018-.999-3.155-1.92-4.38-2.071-.927-.1-2.176.583-2.89 1.307-.715.724-.957 1.925-1.473 3.071-3.03-3.643-3.49-3.67-6.581-.906l1.924 3.032-.426.485-4.033-1.826-1.719 3.073-1.632-.538c.188 1.863.338 3.389.471 4.705l-4.2-.176c.221 1.083.455 2.168.654 3.257.068.38.196.856.037 1.158-1.707 3.352-1.404 6.602.584 10.317zm-15.462-90.152l.561.652c.408-.051.876.01 1.216-.167 3.58-1.895 7.324-3.263 11.163-4.54 2.359-.781 4.283-3.561 5.815-5.832.611-.913-.376-2.891-.633-4.386a7.239 7.239 0 0 1 .584-3.685 38.475 38.475 0 0 1 2.534-4.12c.933 1.496 1.818 2.912 3.046 4.886 1.667-2.834 4.904-3.082 4.129-6.849-.714-3.496-.188-7.253-.196-10.891.028-.216.085-.427.172-.627 3.198 1.302.997-2.343 2.338-2.884l-8.937 3.273 5.525 2.768c-1.391.517-2.389 1.281-2.974 1.039-2.657-1.093-2.616-.929-3.408 1.74-1.125 3.837-2.013 8.113-4.362 11.143-5.062 6.52-10.998 12.359-16.573 18.48zm-236.835 98.472l-.092 1.071 1.421.738c4.712 2.457 9.832 4.358 14.021 7.515 4.97 3.761 10.33 5.026 16.122 5.592 1.218-3.706.243-4.786-5.429-6.548 1.035-2.587-1.213-3.363-2.529-4.583-1.492-1.383-3.059-2.687-5.335-4.662l-18.179.877zm186.568-2.272l1.244-.595c-1.751-3.656-3.404-7.364-5.302-10.939-.749-1.399-2.014-2.557-3.116-3.764-6.04-6.64-12.082-13.287-18.233-19.832-.619-.661-1.97-.634-2.978-.932l-.527 1.026c2.099 4.441 3.839 9.108 6.407 13.264 2.753 4.467 5.982 8.631 11.272 10.72 4.254 1.679 8.024 4.195 9.708 8.876.305.8 1.014 1.455 1.525 2.176zm86.433-194.195c-.163 1.967.332 3.398 2.659 4.392 1.456.625 3.176 2.427 1.801 5.306l3.282 1.773c.11-1.139.169-2.289.357-3.416.08-.473.51-.879.648-1.354 1.478-5.05 2.928-10.103 4.534-15.657l-1.983 1.159c-.991-1.934-4.035.247-4.909-2.467-.13-.408-3.706-.527-4.037.096-1.057 2.014-2.136 3.103-4.468 3.834-1.473.458-2.278 3.107-3.646 5.178l5.762 1.156zm-88.46 144.845c3.836.621 5.631-1.55 5.511-4.263-.155-3.593-1.354-7.154-2.212-10.701-.492-2.047-1.824-4.086-1.679-6.048.248-3.413-1.603-5.368-3.713-7.345.396 1.572 1.499 2.798 2.028 4.205.305.816-.332 1.989-.541 3.003-.951-.42-2.007-.686-2.808-1.313-.527-.407-.684-1.297-1.241-2.467-1.462 4.565-3.769 8.406-1.766 12.415 1.754 3.527.721 8.897 6.295 9.981.042.895.089 1.772.126 2.533zm105.623-9.222c-.106-4.28 4.01-5.655 4.959-8.677-6.038 4.114-14.369 3.188-19.273 9.47-3.409-2.785-3.111 1.248-4.21 2.561-5.245-1.909-7.216-.643-7.218 4.436l6.759.797c.067-.962.151-2.158.219-3.163l3.639-2.855c3.73-.023 2.202 3.713 2.833 6.515.85-1.21 1.316-2.15 2.043-2.793.361-.317 1.203-.097 1.828-.119-.243 2.486.82 1.679 1.718.611 1.85-2.19 5.519-2.8 5.684-6.51-.035-.154 1.023-.274 1.019-.273zm-83.379-73.382c-3.331.962-3.372 1.286-2.489 4.001a6.472 6.472 0 0 1-.183 3.905c-.929 2.616-4.35 4.244-2.974 7.812.139.362-.351 1.144-.758 1.465-1.455 1.161-3.034 2.139-4.505 3.267-.847.654-1.574 1.457-2.605 2.423l4.412 1.755.874-4.409c.178.329.353.658.527.987l10.271-2.092c-.009-.034.309.486.648 1l.865-.254c-.199-1.216-.397-2.429-.629-3.835l5.216-.35c-3.285-2.435-.749-8.862-7.101-8.456-1.803-1.134 3.432-5.157-2.243-5.025l.674-2.194zm178.499 62.996c-5.081-1.256-9.294.016-12.345 2.448-1.59 1.266-.973 5.307-1.386 8.333 4.699-1.581 5.378-.716 4.739 3.966l-5.285-.776-.278.864 7.111 6.902c4.38-6.451 4.02-14.558 7.447-21.722l-.003-.015zm-153.957 24.074l-.922-.506c-5.748 4.188-14.288 22.934-13.268 28.997 1.931-1.444 3.792-3.084 5.888-4.346 4.626-2.766 7.266-6.468 6.323-12.07-.275-1.61-.858-3.17-1.058-4.783a4.999 4.999 0 0 1 .549-2.544c.744-1.617 1.653-3.16 2.492-4.733l-.004-.015zm-125.488 12.767c.195 3.246.806 6.792.531 10.267-.527 6.651 2.758 10.647 8.29 13.314 1.012.487 2.284.433 3.638.671-2.402-9.359-4.853-18.173-12.455-24.237l-.004-.015zm298.038-46.171c-1.269.808-2.399 1.51-3.527 2.246-2.699 1.764-5.387 3.545-8.083 5.308-2.276 1.491-1.326 3.511-.949 5.464.393 2.033 1.665 2.415 3.239 1.653 3.545-1.687 6.88-3.778 10.47-5.318 2.146-.938 1.963-2.198 1.349-3.77-.639-1.637-1.438-3.23-2.495-5.568l-.004-.015zM612.45 208.17c3.935-1.714 1.562-4.546 1.76-6.358l4.375-.789-1.054-4.181c1.071-.019 2.189.243 3.01-.139.651-.299 1.508-1.638 1.308-2.072-1.626-3.505-3.475-6.905-5.261-10.338l-1.437.267c-.647 3.939-1.442 7.859-1.894 11.815-.402 3.508-4.397 6.797-.734 10.586.135.145-.025.562-.073 1.209zm-420.071 50.91c3.489-2.177 3.598-3.761 1.344-5.694-.561-.478-1.007-2.156-.748-2.372 2.776-2.327 2.077-4.358-.179-6.505-.928-.894-1.64-2.004-2.308-2.86l-3.514 3.986-3.478-.461 1.04-2.772-4.832-2.287-.782 5.703 7.391 5.541.576-4.345.92-.101c1.089 3.096 2.181 6.199 3.39 9.642l2.504.199c-.399.672-.672 1.162-1.324 2.326zm336.948-134.932l-5.956-.416 3.289-2.699c-.367-.702-.749-1.399-1.507-2.832-2.018 3.367-3.855 6.378-7.226 7.748-.078.02-.125.198-.133.307-.369 4.063-.731 8.124-1.161 12.722 3.268-2.645 6.157-4.382 8.204-6.831 2.005-2.359 3.127-5.452 4.49-7.999zM203.154 342.022c-2.801-6.214-9.543-9.247-18.061-8.045.702 1.101 1.377 2.158 2.028 3.181.238-.723.442-1.398.726-2.049.294.038.578.127.841.264-.073 1.285-.234 2.568-.409 4.208 3.513 4.613 6.513 5.175 14.875 2.441zM419.52 160.434c1.496-.774 2.892-1.125 3.761-2.027.79-.803 1.544-2.251 1.374-3.256-.344-2.045 1.351-2.627 1.957-3.908.674-1.424.513-3.305.45-4.988-.018-.559-.838-1.091-1.521-1.907l-5.763 1.75 1.707 3.623-4.526 2.268 2.485 14.018 2.326-2.63a662.163 662.163 0 0 1-2.25-2.943zm10.921 3.326a21.434 21.434 0 0 1-2.066-.575c-.685-.26-1.481-1.056-1.944-.88-.609.233-.88 1.234-1.403 1.823-.462.426-.947.828-1.451 1.203a31.16 31.16 0 0 0-2.483 2.42c-.077.087.573 1.142.783 1.109 1.326-.207 2.628-.599 3.905-.921l-1.74-1.518 4.289-1.081c.731 3.218 3.508 1.414 5.562 2.191.12-2.547.501-4.751.251-6.88a31.086 31.086 0 0 0-1.864-7.914c-.452-1.133-2.221-1.743-3.392-2.591l-1.102.746c.837 2.139 3.839 4.63-1.288 5.914 2.106 1.554 3.597 2.666 5.071 3.74l-1.128 3.214zM259.978 275.308l-.779 1.098 3.446 7.376.768-.435-.678 1.643c.552.107 1.116.172 1.669.322.554.15 1.368.306 1.423.586.475 2.453 1.717 1.521 3.324 1.203 1.267-.248 3.661.352 4.025 1.229 1.43 3.327 1.897 3.762 5.378 2.674l-4.087-2.027 1.511-2.794c-5.779-2.752-8.918-9.881-16-10.875zm263.98-49.656l-5.899-1.606c-.009.2.101-.308.011-.777a13.214 13.214 0 0 0-.624-1.828c-4.335 1.938-5.4 13.04-1.847 18.786l2.243-3.32c-.231-.144-.467-.279-.697-.436l-1.818.978c.331-1.838.586-3.204.82-4.482l4.281.509c-.226-1.713-.376-2.831-.561-4.225.535.973.912 1.664 1.537 2.808l2.554-6.407zm-266.545 57.186c2.359-2.031 2.554-4.705.638-5.345-2.218-.739-.918-2.068-1.159-3.15-.183-.823-.448-2.269-.782-2.316-2.405-.188-5.357-2.56-6.654 1.224-.913-.472-1.803-1.276-2.345-1.096-.798.269-1.849 1.216-1.895 1.931-.058.983.465 2.602 1.194 2.926 3.651 1.633 7.448 2.935 11.167 4.332l-.164 1.494zm357.95-103.909c1.912-.462 4.524-.322 5.222-1.411 1.995-3.111 3.223-6.727 4.677-9.972a395.381 395.381 0 0 1-2.267-1.652l-3.721 2.784-4.176-3.088c.088 4.761.171 8.381.265 13.339zM246.719 294.64c4.18 5.322 13.337 7.457 17.554 4.754.482.574.966 1.154 1.193 1.426l4.201-4.234-2.173-2.323-3.624 2.696-2.616-2.33c-.108 1.258-.173 1.961-.149 1.741l-14.386-1.73zm243.753 44.825c1.5-1.232 3.182-2.687 4.935-4.046 2.81-2.161 6.768-3.453 5.847-8.306-.088-.458.768-1.095 1.173-1.645-6.368 2.347-11.509 6.076-15.025 11.265 1.078.971 1.799 1.611 3.07 2.732zm137.836-118.479c4.614.287 12.366-11.484 12.897-19.852-5.035 6.22-11.614 11.224-12.897 19.852zm-152.213-99.394c-1.47-.336-2.417-.502-3.327-.773-1.958-.587-4.495-2.273-5.7-1.589-1.672.958-2.52 3.613-3.268 5.699-.134.367 1.9 1.585 3.014 2.289.524.332 1.232.368 1.974.57.008-1.069.017-1.917.033-3.521.687 1.812 1.073 2.838 1.414 3.733l6.283-3.172c-.139-1.195-.318-2.441-.421-3.228l-.002-.008zM597.002 307.28l-1.121-.873-19.424 18.451c2.814-1.106 5.71-2.232 8.602-3.358.939-.372 2.191-.552 2.715-1.248 3.171-4.241 6.168-8.636 9.228-12.972zm-69.704-33.717l-1.031-.594-4.909 6.589 5.699-.761-3.233 1.882c.571.694 1.187 1.356 1.698 2.093 2.387 3.424 2.377 3.43 5.36 1.246l-.892-.089 2.403-3.73 2.772 3.99.719-.531c-.312-1.005-.621-2.007-.925-2.994l3.386-.397-.047-.643-11.168-1.783.168-4.278zm-89.493-91.091c1.062-1.173 1.702-2.462 2.707-2.882 3.637-1.527 2.804-4.092 1.832-6.722-.247-.664-.857-1.193-1.296-1.785-.611.551-1.396 1.011-1.797 1.691-1.468 2.474-2.907 4.973-4.138 7.57-.459.969-.317 2.223-.47 3.524-.518.417-1.662 1.058-2.327 2.028-.209.306.864 1.493 1.435 2.417 1.206-3.75 6.798-1.11 6.729-5.527l-2.675-.314zm-164.25 80.062c-.81 2.852.802 9.563 2.545 11.565.693.795 1.017 1.924 1.47 2.917 1.24 2.732 2.46 5.478 3.683 8.203l1.068-.361c.075-1.845.732-3.916.117-5.492-1.835-4.698-4.105-9.215-6.344-13.737-.568-1.135-1.66-2.05-2.539-3.095zm-41.186-54.516l-.207.64c1.756.669 4.612.894 5.093 2.079 1.808 4.467 5.654 4.196 9.336 5.257-.747-4.238-2.732-7.295-5.937-9.504-.479-.328-1.452.064-2.2.122.019.356.041.712.059 1.069l-3.803-.63c.416.689.685 1.142 1.049 1.752l-3.39-.785zm73.511 127.227c8.21-1.037 15.289 5.786 23.784 3.375-2.271-4.16-16.818-6.246-23.784-3.375zM75.775 304.594l-15.59 1.15c.274.503.779 1.42 1.276 2.322l-2.277 1.583.3 1.19c2.052-.35 5.214-.011 5.939-1.183 2.186-3.536 3.862-1.199 5.762-.213.38.198.621.637.93.984l.344-1.19 1.739.189 1.577-4.832zm461.318-48.104l-4.541 4.856a2.602 2.602 0 0 0-.694-.913c-.794-.534-1.653-1.108-2.559-1.284-.497-.097-1.683.71-1.642.886.639 2.618-.427 5.899 3.07 7.884l2.601-4.109c2.235-.583 4.401-1.756 6.457-3.08.28-.182.112-1.128.053-1.712-.03-.116-.429-.313-.642-.295-2.009.173-2.009.173-2.103-2.233zm62.18 10.686c3.311-1.748 6.721-.944 9.223 1.467.809.784 2.499.656 3.81.941.24-1.251 1.055-3.295.611-3.623-1.248-.921-3.011-1.155-4.586-1.624-.377-.111-1.025.104-1.172-.101-.774-1.072-1.428-2.233-2.107-3.336-5.901 3.774-5.901 3.774-5.779 6.276zm-404.475 78.627c-6.683-2.024-16.051-.461-20.695 2.944 6.851 1.652 13.555.137 20.695-2.944zm327.13-192.653l-2.452 10.106.861.672 10.198-6.143-4.846-1.557 1.866-2.455-5.627-.623zm-61.01-10.405l-3.264 8.441c1.399 2.402 2.592 4.507 3.716 6.447 1.107-2.712 2.245-5.27 3.169-7.905.285-.806.33-2.032-.098-2.69-1.011-1.599-2.361-2.958-3.523-4.293zM333.372 280.334l3.518-.55-1.821 1.44 12.836 2.843c.42-3.345-3.032-7.668-5.37-6.344-2.832 1.599-4.81-.436-7.14-.23l-2.023 2.841zm333.31-131.582c-6.024 4.451-6.007 11.922-9.128 18.076 4.025-1.07 10.052-13.403 9.128-18.076zm-383.669 107.19l1.313.011-.857 9.453 1.184.258c1.512-2.366 3.239-4.619 4.428-7.13.398-.847-.206-2.898-.995-3.414-1.668-1.088-3.76-1.529-5.964-2.336l-.921 5.294.659.187 1.153-2.323zm-71.893 8.3l.934.007c.027-1.373.615-3.295-.059-3.983-.882-.901-2.76-.825-4.242-1.177l.643 2.553-4.892-.24c.175 1.341.308 2.387.445 3.436 2.999-.358 5.393 4.56 9.269 1.523l-2.098-2.119zm463.521 24.599c5.765.239 9.335-2.011 9.813-7.863-4.413-1.127-6.349-.242-5.68 2.916-3.291.063-4.144 2.08-4.121 4.945l-.012.002zM426.483 185.388c-5.942 1.812-8.671 5.115-8.688 10.372l1.097.414 1.102-3.676 3.506 1.308 1.66-3.539 1.645 1.928.785-.257c-.377-2.172-.739-4.351-1.107-6.55zM113.759 278.29c.806.142 2.086.022 2.882.583 1.473 1.042 2.551 1.898 4.732 1.733 1.231-.095 2.676 2.74 4.041 4.25l-.671.491 4.177.301c-2.096-2.946-3.921-5.554-5.805-8.117-.307-.414-1.13-.985-1.32-.858-3.077 1.967-4.738-.291-5.075-1.234l-2.961 2.851zm578.176-5.025l2.192-10.537-2.937.288.544-.82-1.269-.939-2.397 6.587 2.204 1.469-2.794 1.895.764-.641 3.693 2.698zM537.15 243.657a1316.57 1316.57 0 0 1-5.238 2.674c1.468.642 1.468.642 7.147-1.162.101.951.208 1.976.273 2.658l6.063-2.719c-3.336-3.379-9.026-4.831-11.062-2.829l2.817 1.378zm-167.371-50.406c1.625-3.665-2.451-8.513-6.881-8.401l-.713 6.623 1.72-1.303c.433 1.292.855 2.54 1.277 3.791l.561-.217.26-1.332 3.776.839zm-32.161 113.555c4.521 9.087 9.079 8.903 13.053 4.051l-13.053-4.051zm78.68-.161l.984-.066c.173-5.081.342-10.157.517-15.406-5.628 1.204-5.786 1.855-3.858 6.415 1.186 2.849 1.592 6.018 2.353 9.038l.004.019zm-46.457-194.938l2.894-3.813c-1.071.162-1.961.097-2.058.34-.975 2.433-2.629 4.016-5.015 5.213-.703.36-.495 2.602-.7 3.98.82-.056 1.638-.103 2.455-.166 1.833-.149 3.667-.305 5.499-.457-.74-4.967-.74-4.967-3.075-5.097zm163.648 166.461c2.61-.07 5.209.633 6.307-.347 1.68-1.495 2.315-4.156 3.403-6.316.116-.232.286-.441.688-1.082l.491 2.595 2.455-2.246c-1.363-.685-2.636-1.718-3.026-1.453-2.764 1.888-5.336 4.029-8.1 6.182l-.821-.781-1.397 3.448zm103.988-.572c1.752-1.255 4.077-2.219 5.202-3.931 1.188-1.84 1.231-4.423 1.886-7.149-1.897 1.483-3.476 3.171-5.411 4.143-2.809 1.359-5.001 2.618-1.676 6.941l-.001-.004zm-63.564-12.076l-3.802-2.69 1.894-1.073c-.205-.278-.406-.553-.606-.828l-4.452 3.758c-.292-1.602-.541-2.952-.791-4.303l-1.953.282c.194 1.889.393 3.78.603 5.827l5.86-1.179 1.183 4.696 6.195-5.003-.509-.571-3.622 1.084zM240.91 197.14c-2.316-1.882-3.661-3.69-5.406-4.235-3.252-1.011-3.101-2.855-2.545-5.468.194-.915-.79-2.08-1.236-3.126-1.009.615-2.519 1.031-2.884 1.917a4.672 4.672 0 0 0 .353 3.698c2.434 3.988 6.282 6.012 11.718 7.214zm220.533 114.924c3.147-1.785 6.076-3.349 8.869-5.133.39-.249.463-1.803.087-2.32-1.747-2.41-5.648-1.804-6.689.963-.753 2.004-1.414 4.044-2.267 6.49zm-4.067-159.002l-.7.371-2.394 11.687 3.66.269-.557-3.393 4.31-.225c-1.523-3.082-2.923-5.897-4.319-8.709zm18.617 149.365c5.398 2.61 5.879 2.453 6.877-1.177l2.75.954c-2.4-.983-1.018-6.071-4.823-4.961-2.22.643-4.072 2.59-6.09 3.952.192.325.382.65.571.976l3.674-2.086 1.884 1.975-4.843.367zm72.256 13.724c-1.08-.176-2.78-.24-2.805-.484-.229-2.121-.156-4.272-.181-7.143l-7.712 3.503 5.834 2.984-.142.588-1.497.127c2.567 4.041 3.268 4.067 6.503.425zm80.957-140.103c-2.008-.534-5.273.908-5.267 2.729.011 3.57.456 7.134.712 10.701l.915.008 3.64-13.438zm-333.144 43.914l7.447.363c-1.149-1.299-1.678-2.126-2.417-2.678-1.012-.754-2.199-1.26-3.271-1.955a11.65 11.65 0 0 1-1.447-1.298c-1.555 2.086-2.301-.985-3.698-.498l-4.433 3.896c3.739-1.212 6.974.029 7.819 2.17zm86.901 71.086l11.508 10.077c.31-2.202-4.583-10.119-6.712-10.408-1.59-.215-3.866-1.634-4.796.331zm-187.809-87.514c.573 1.078 1.142 2.122 1.682 3.177.375.731.718 1.478 1.071 2.219l.703-1.765 6.551-2.516-4.826-4.533-5.181 3.418zm188.352 11.061l-.944.98c1.26 1.172 2.377 2.577 3.839 3.4.701.391 2.892-.229 2.95-.612a9.299 9.299 0 0 0-.394-4.462c-.46-1.242-1.6-2.237-2.456-3.332-.297-.377-.645-.718-.805-.896l-.83 2.317-1.125-.511.163-2.379-.757-.091c-.282 1.373-.559 2.745-.701 3.444l4.143 1.85-.289.839-2.794-.547zm-130.192-4.169l-1.267.93c.793 1.996 1.09 5.097 2.491 5.724 2.043.907 4.878.029 7.373-.091 0-.33 0-.659-.003-.988l-8.594-5.575zm222.892-47.544c-.206-.345-.406-.668-.605-1.003-1.623 1.124-3.251 2.241-4.862 3.377-.49.342-.933.74-1.399 1.111l-.551-2.184-1.966 1.869c.908 1.542 2.013 2.649 2.14 3.86.106 1.005-.945 2.127-1.978 4.186l5.584-1.864c-.763-2.288-1.212-3.628-1.798-5.37l3.851 1.292c-2.431-2.682-1.82-4.023 1.596-5.277l-.012.003zm-29.713 11.958c-.216-1.315-.378-2.287-.54-3.278l3.121-1.664.775 3.076 1.014-.434-2.749-5.604-.56.142-.145 2.747c-1.762-1.35-3.116-3.716-5.007-.965 3.036 2.268-.356 8.216 5.798 8.69l1.118-3.438-2.825.728zm-57.473 15.873c-.077 2.687-.303 4.248-.135 5.762.395 3.43.465 3.424 2.142 4.03l3.998-7.657-6.005-2.135zm252.796 72.705c-1.458-1.34-5.049-.594-7.685 1.754l1.402 5.562c4.385-.951 4.385-.951 4.746-3.975l-1.8 1.581c-.274-.284-.541-.571-.82-.858l4.157-4.064zm-29.636-76.39c-2.237.433-4.339.756-6.391 1.277a5.423 5.423 0 0 0-2.265 1.365c-.148.136.296 1.299.737 1.616 5.063 3.627 6.7 2.956 7.852-3.138.058-.37.08-.745.067-1.12zm-381.107-19.251c.616 1.246 1.134 2.295 1.624 3.291l-2.946.583 6.09 4.742c.282-.535.427-1.14.817-1.484 2.698-2.415 2.502-3.711-1.303-4.289-.647-.095-1.038-1.989-1.519-3.063-.184-.418-.301-.865-.444-1.293l-2.319 1.513zm82.438 147.546c-6.014-4.555-12.026-9.113-18.778-14.228 4.351 8.11 12.296 10.244 18.783 14.23l-.005-.002zm280.734-47.968c-5.828 3.057-6.614 3.826-7.058 6.995 8.617-1.012 8.807-1.187 7.063-6.992l-.005-.003zm-208.232 16.779l-4.867-9.861-1.22.391c.925 4.693 1.791 9.405 2.862 14.066.113.448 1.483.607 1.99.793l-1.661-6.593 2.896 1.204zm140.191-43.725c-3.689 4.816 1.039 8.075 1.451 12.06 2.046-6.61 1.777-8.483-1.451-12.06zm-411.391 9.298l1.742.125c.556-2.522 2.059-5.283 1.512-7.551-.858-3.547-3.649-.303-4.821-.651.548 2.741 1.05 5.413 1.567 8.077zm500.607 22.391a4.047 4.047 0 0 0-.66-.179 962.57 962.57 0 0 0-4.351 13.042l1.3.641c1.307-1.949 3.167-3.74 3.772-5.889.606-2.15.002-4.752-.061-7.615zm-26.633-12.097c-.414 2.01-.786 3.826-1.241 6.101 1.814-1.041 3.375-1.697 4.614-2.751.866-.722 1.294-1.97 1.979-3.079l1.327 1.122.979-.556-1.887-4.245-.873.002-1.558 3.946-3.34-.54zm27.849 23.224c-4.745 2.545-7.066 6.759-8.873 12.538 1.655-.759 2.902-.914 3.262-1.565 1.984-3.596 3.758-7.299 5.611-10.973zm28.972-43.824c1.979 2.181 5.412 2.114 3.223 5.591l2.251-.412c-.035.918-.068 1.764-.097 2.609l1.093.038c.199-3.039.401-6.08.634-9.616l-7.104 1.79zm-119.432 22.841l-10.497 9.747 10.877-4.019c-.09-1.315-.211-3.166-.38-5.728zm84.498-102.33c-2.237 3.299-4.961 6.245-3.707 10.859l5.291-3.898-.92.006-.664-6.967zm2.954 7.549l-5.413 4.937 4.17 6.134 1.368-.543c.074-1.547.145-3.093.234-4.946l-3.22 1.399c.473-2.691 4.903-3.276 2.861-6.981zM226.777 239.86c1.272 5.174 2.253 6.089 4.42 4.936l4.328 3.217 1.673-.247c-3.943-1.94-1.092-2.758-.647-3.716l-9.774-4.19zm227.245-16.239c3.982-1.797 8.433-3.038 9.61-8.48-4.11 2.124-8.103 3.857-9.61 8.48zm41.431-57.713l-1.466-.758-4.612 5.612 7.203 3.092c-.972-1.887-1.944-2.988-2.046-4.181-.103-1.193.586-2.51.921-3.765zm-331.145 53.645c2.052-2.602.198-5.719 3.001-6.807a14.415 14.415 0 0 0-1.388-2.056c-.494-.526-1.223-.823-1.793-1.287-1.713-1.394-2.961-1.306-3.677 1.018 1.79 1.451 5.419 1.878 2.806 5.546-.317.457.486 1.723 1.051 3.586zm103.306-28.813c2.186 2.371 4.37 4.738 7.105 7.713.478-1.617 1.391-3.034 1.009-3.684-1.599-2.737-3.982-4.598-8.106-4.047l-.008.018zm106.575 114.544c-1.79-1.447-3.175-3.067-4.927-3.797-1.126-.47-2.846.237-4.19.699-.494.168-.702 1.169-1.042 1.791 1.073.444 2.119 1.177 3.225 1.279 2.142.199 4.329.041 6.934.028zm87.047-79.487l-1.172-.773-7.987 4.963c2.608.895 5.285 2.459 5.871 1.887 1.58-1.542 2.26-3.996 3.288-6.077zm-223.544-43.729c.016-1.068.034-2.478.055-4.099-6.452.249-1.02 4.382-2.465 6.227 2.751-1.246 4.597-.583 5.628 2.325l3.687-3.279-6.905-1.174zm94.251 116.982c-.481-1.911-1.314-3.639-1.281-5.398.044-3.31-2.037-3.357-4.616-3.699 1.22 3.769 1.118 7.9 5.897 9.097zm110.921-47.746c-.181 4.162-6.06 6.196-1.702 10.417 3.983-3.195 3.983-3.195 1.702-10.417zm181.514-27.859l3.526-9.86-7.971 3.688 3.43 2.145 1.015 4.027zm30.686 62.613l3.094-4.214a16.003 16.003 0 0 1-1.917-1.668 20.105 20.105 0 0 1-1.569-2.431c-3.314 4.479-3.22 5.325.392 8.313zm-410.575-8.617c1.146-5.188-3.255-4.364-4.243-5.592l-3.845.969-.323.954 8.411 3.669zm104.962 3.779c.65 3.099 3.693 5.818 6.172 5.59.595-.05 1.359-.91 1.591-1.564.191-.58-.1-1.876-.469-2.002-2.337-.784-4.743-1.337-7.309-2.02l.015-.004zm171.833-111.187l-4.386 11.221c4.965-2.478 6.818-6.939 4.373-11.209l.013-.012zm158.583 128.754c-3.921-3.208-6.546-3.293-8.877-.57.547.942 1.077 1.849 1.71 2.944l7.167-2.374zM385.764 103.328c-.078-2.974-2.113-3.533-4.368-3.266-.95.12-1.775 1.241-2.657 1.9 1.028 1.15 1.946 2.447 3.174 3.317.222.158 1.69-1.438 2.891-2.499l.96.548zm224.429 76.432c.878 2.331 1.343 3.754-1.397 4.048-.773.083-1.35 1.749-2.018 2.688.958.227 2.27.96 2.806.582 1.839-1.289 3.401-2.968 5.426-4.825l-4.817-2.493zm-328.948 79.041c-1.515 5.015-.016 11.152 3.46 13.73l-3.46-13.73zm-41.096-60.254c-1.152.044-2.046.118-2.928.098-.958-.036-1.907-.194-2.855-.3.131.975.26 1.947.429 3.198l1.415-1.46a954.366 954.366 0 0 0 1.976 4.691c1.012-1.101 1.019-2.492 1.283-2.547 3.747-.726.915-2.465.683-3.669l-.003-.011zM370.57 268.3c1.97 4.747 3.762 9.055 5.55 13.361l.817-.286c-.951-4.595-4.363-8.777-1.987-14.187l-4.38 1.112zm-124.445-10.787c.803-1.096 1.812-1.882 1.939-2.795a8.021 8.021 0 0 0-.48-4.317c-.258-.551-2.026-.399-3.109-.567-.124 1.223-.555 2.522-.285 3.689.291 1.328 1.193 2.541 1.935 3.99zm-33.639-47.537c.755 1.751-4.004 4.229-.151 4.977 1.254.251 5.859 2.096 6.153-3.246l-5.069-.188-.933-1.543zm343.866 60.731l-6.15 3.952.829 3.288c3.68-.49 5.629-2.724 5.321-7.24zm-433.033-5.569c1.672.337 3.609.146 4.466 1.026 3.813 3.803 3.706 3.929 5.938 4.661-2.052-4.616-7.079-8.78-10.404-5.687zm118.173-.205l.96-.695c-.674-1.902-1.162-3.903-2.075-5.682-.852-1.666-2.361-.707-3.204.046-.395.353-.219 1.98.248 2.557 1.194 1.414 2.72 2.538 4.074 3.785l-.003-.011zm111.776-13.035l.675-.774c-.264-1.565-.524-3.135-.674-4.01l-5.846-1.147c-.134.399-.434 1.32-.578 1.757l6.423 4.174zm314.515 30.176c.502 1.172.989 2.347 1.817 4.231l5.998-6.712-.906-.963-6.909 3.444zm-59.977-34.079l-6.813-.364-.876-1.097c-.454 1.095-.978 2.168-1.317 3.294-.112.361.263.87.417 1.308l4.804-1.826c1.054 1.41 2.503 2.561 3.785-1.315zm-223.693-59.051c2.279-1.98 1.618-4.937-1.581-8.192-4.283 3.529-.102 5.468 1.569 8.195l.012-.003zm-27.125 52.886l1.023.25c.967-2.07 1.93-4.142 2.91-6.208.09-.193.32-.303.44-.507.322-.582.766-1.166.825-1.796.029-.281-.886-.996-1.103-.913a3.593 3.593 0 0 0-1.547 1.33c-.979 1.628-1.806 3.354-4.05 3.51-.07.018-.123.361-.246.753l2.377-.381c-.242 1.53-.443 2.748-.64 3.968l.011-.006zm116.186-50.685l.308.605 2.687-.883 3.153 2.778.538-.576c-.344-.434-.692-.87-.693-.874l3.355-1.953c-.189-.278-.381-.551-.569-.825l-1.536 1.578-2.901-4.267-4.342 4.417zm24.063 16.342c4.01 1.641 5.25.543 5.418-4.823-3.022.249-5.601.978-5.418 4.823zm-160.46 59.75l-6.774-3.974 1.93 7.659 4.844-3.685zm267.367-16.255l-6.254 8.861 11.123-6.869-.585-1.186c-.737.225-1.603.285-2.17.73-.494.386-.55 1.297-1.012 1.779-.149.153-1.358-.269-1.39-.519-.117-.765.115-1.577.288-2.796zM75.208 301.006c.002.511 0 1.02-.011 1.531 1.415.135 3.471.919 4.122.275 1.61-1.597 2.581-3.826 4.243-6.496l-8.354 4.69zm387.945-178.673c-4.239 3.105-5.745 6.454-4.428 9.206 4.452-1.566 2.98-5.785 4.428-9.206zm-110.722 54.063l-.535 4.351-2.517-.787-.244 4.953.754.345 5.37-5.203c-.748-.967-1.472-1.9-2.828-3.659zm113.799 17.769c1.805-2.65 3.193-5.711.534-7.677-1.778-1.322-2.986 1.336-3.952 2.858-.179.283-.169.685-.355 1.522l2.801-2.023c.126 1.083.183 1.938.335 2.746.152.807.423 1.727.641 2.589l-.004-.015zm-7.155-54.131c3.276 3.088 4.414 3.052 6.693-.222-3.802-3.286-4.513-3.257-6.693.222zm-261.509 33.972c.651 1.245.89 1.705 1.132 2.16l.944-.301-1.274-5.054-3.808.562 1.799 7.137 1.207-4.504zm283.619 22.258c-.194 1.986-.486 3.473-.415 4.94.034.67.8 1.299 1.237 1.943.943-.635 2.131-1.105 2.742-1.973.367-.526.116-1.871-.341-2.503-.605-.808-1.671-1.274-3.223-2.407zm-79.13-33.254c5.763.675 5.763.675 5.441-4.623-3.139-.134-4.298 1.961-5.462 4.62l.021.003zm240.307 152.985l1.102 1.886 9.611-6.225-.617-1.075-10.096 5.414zM199.585 266.8c-.099.854-.194 1.704-.288 2.498 2.962-1.937 3.985.925 5.998 1.494l-3.178 2.182 6.703-.181c-6.165-5.655-6.165-5.655-9.219-5.993h-.016zm23.577 10.068c2.941 4.44 6.174 4.967 9.723 1.893l-9.723-1.893zm361.993-39.044c-9.163.153-9.163.153-9.207 2.844 2.68-1.414 7.084 2.308 9.207-2.844zm39.723-97.573l4.101-7.921c-5.192-.22-3.868 4.548-6.085 5.785l1.984 2.136zm-140.374 25.502l-5.663 2.023c5.268 1.292 3.06 5.259 4.785 7.865.281-3.139.557-6.282.878-9.888zm155.877 111.726c-5.23.576-5.912 2.375-2.501 7.121.909-2.599 1.624-4.645 2.501-7.121zm-378.389-49.645l.243.963c1.869 1.117 3.747 2.242 5.634 3.375l.772-.353c-.91-1.422-1.556-3.181-2.824-4.135-.789-.596-2.514.058-3.825.15zm420.006 61.134l-.062.731 7.887-1.988-1.672-4.053-6.153 5.31zm-505.483-61.805c-2.001-5.704-2.716-5.754-7.258-.95l7.258.95zm380.127 54.412l-.882-1.104-9.112 7.005c.32.404.636.808.953 1.213l9.041-7.114zm-347.549 3.547c.067.265.133.53.219.791l9.427.355.261-.713c-1.33-.895-2.662-1.786-3.173-2.13l-6.734 1.697zm-80.246-24.636c1.023-5.395-3.779-3.451-5.024-6.059-2.347 6.249 3.47 3.529 5.021 6.047l.003.012zm149.386 38.177l9.548 3.009c-1.069-4.086-4.635-4.862-9.554-3.035l.006.026zm184.791-3.611c-.328.984-1.102 2.263-.81 2.586 2.594 2.745-.344 2.366-1.7 3.319 1.537.335 4.007.149 4.013-.095.055-1.927 2.809-4.514-1.503-5.81zM318.813 122.483l.088.994c-.806-.393-1.615-.784-3.026-1.469.867 2.088 1.448 3.494 2.29 5.529l4.385-5.206-.958-.95-2.779 1.102zm112.993 152.394l1.142.577 7.168-11.758-1.97-1.167-6.34 12.348zm40.744 43.074c1.438 2.417 2.493 4.191 3.916 6.576 1.019-3.83-.935-6.45-1.834-9.859l-2.082 3.283zm-224.275 23.883c-.338 3.904 3.047 3.317 4.778 4.782.598-4.402.381-4.617-4.789-4.779l.011-.003zm-.759-144.048l-5.893-2.906-.617.827c1.377 1.824 2.756 3.644 4.176 5.545l2.334-3.466zm59.147-27.565l-.981.834c2.863 6.822 3.096 7.021 6.928 5.277-.605-.431-1.331-1.185-1.547-1.063-2.274 1.324-2.32.402-2.308-1.693-.022-1.11-1.376-2.23-2.103-3.352l.011-.003zm118.087-27.627l-5.498-4.49-1.013.486c.658 1.62 1.054 3.458 2.114 4.751.373.47 2.344-.357 4.397-.747zm-148.99 34.438c-.913.694-2.303 1.481-2.254 1.675.963 2.247 2.113 4.414 3.223 6.6l1.343-.644c-.718-2.408-1.455-4.81-2.312-7.631zm-12.323 96.031l1.317-1.487-6.568-5.443-.842 1.006 6.093 5.924zm353.646-126.504l-.345-.501-4.492 5.804 2.557 3.151 2.28-8.454zM577.058 276.47l.668 1.281c2.795-1.102 6.2-1.202 7.138-5.372l-7.806 4.091zm-403.875 5.963c-.791-1.877-1.072-4.553-3.539-3.475l-2.079 4.891 5.618-1.416zm285.205-78.082l-1.722 7.58c2.236-2.152 3.698-3.536 5.372-5.129l-3.65-2.451zM313.15 91.504l6.398 5.998.743-.517c-.756-1-1.623-1.905-2.23-2.975a36.743 36.743 0 0 1-1.632-3.717l-3.279 1.211zM621.125 105.7c-.026.467-.047.933-.072 1.4 1.684-.028 3.361-.053 5.045-.113.784-.038 2.131-.033 2.238-.365.26-.796-.053-1.785-.156-2.7l-7.055 1.778zm-283.685 84.9c-.471-1.866-.768-3.252-1.184-4.601-.156-.508-.573-.935-.872-1.399-.452.431-1.298.883-1.285 1.3.072 2.05.376 4.089.627 6.392l2.714-1.692zm-13.02 18.561c-6.038-2.139-6.038-2.139-5.63 2.316l4.711 1.365.337-.775-2.606-2.103 3.188-.803zM114.011 321.191l.813 3.229 2.64-.709c-.296-.687-.424-1.556-.91-2.037-2.606-2.464-3.477-2.391-7.301.959l4.758-1.442zm436.208-123.245l-.956 1.138 3.476 3.963 3.364-3.305-5.884-1.796zm67.806 14.56c3.856.43 3.43-2.691 4.688-4.111.352-.399-.083-1.496-.174-2.267l-.952-.077-3.562 6.455zm-399.032 52.34c.043-.459.082-.917.125-1.381l-5.082-1.609-.388 3.833 5.345-.843zm171.275-14.726l4.503-.876c-1.637-.997-3.076-1.508-4.483-1.423-1.408.085-2.756.77-4.131 1.188l-.279 1.542c3.606-2.893 2.397.691 3.476 1.506l.914-1.937zm224.947 18.342c2.061 2.712 3.133.116 4.409-.853.52-.397.718-1.217 1.084-1.889l-3.089-1.06-2.404 3.802zm-65.732-19.104l2.262 2.895c-.133-2.213 3.342-4.18.29-6.46l-2.552 3.565zm3.57-10.03l-.585-1 4.296-3.068-.677-.941c-1.344.339-3.272.281-3.866 1.137-.511.745.495 2.532.829 3.857l.003.015zM191.579 164.57l5.05 1.042.738-.508c-.709-.845-1.264-2.087-2.17-2.45-1.501-.602-3.447-1.093-3.618 1.916zm471.84 115.357c1.45-.282 2.8-1.004 3.67-.623 2.588 1.134 3.279-.033 3.455-1.713l-6.384-.507-.741 2.843zM314.318 252.44c1.938-2.406 3.774-4.921-.427-7.491.169 2.717.305 5.1.427 7.491zm75.095-62.656l1.251-.49-3.877-7.931c-.083 3.324-.277 6.382 2.626 8.421zm-94.322 62.634c.18-.184.364-.366.551-.536a1047.744 1047.744 0 0 0-5.269-5.329c.433 2.459.7 3.972.871 5.028l3.847.837zm312.644-97.049c-4.026-.22-5.685 2.648-4.368 6.297-.97-2.101 5.581-1.009 1.517-4.471l2.851-1.826zm-30.247 93.426l3.025 2.553-1.838 4.191c1.739-.836 3.307-1.179 3.359-1.685.311-2.924-1.247-4.79-4.546-5.059zm-160.396-65.292l-6.055-4.226-.681.605c.977 1.591 1.953 3.183 2.824 4.607l3.912-.986zm117.501 114.974l-5.446 1.373.04.649 7.304 1.573.186-.841c-.811-1.042-1.61-2.103-2.103-2.749l.019-.005zM274.532 233.03c1.036-5.025.788-5.284-4.019-4.481l4.019 4.481zm235.652 73.881l-.31-.855c-1.258.318-2.619.446-3.739 1.03-.642.333-1.002 1.38-1.273 2.179-.092.281.55 1.155.716 1.121a4.875 4.875 0 0 0 2.028-.884 34.25 34.25 0 0 0 2.578-2.591zm48.415-27.147c6.357.244 6.357.244 8.999-3.784l-8.999 3.784zm96.724-35.887l.231-6.958c-3.112 1.447-3.167 2.791-.247 6.974l.016-.016zm-382.587-73.788l1.21-.472c-1.434-1.897 1.289-5.914-3.986-6.51 1.05 2.7 1.904 4.847 2.76 6.998l.016-.016zM63.911 288.517l4.989-3.266-1.182 1.187c-.923-.891-1.844-1.786-2.968-2.876l-.84 4.955zm159.975-85.602l1.126.292 1.533-3.761c-.948-.186-2.129-.825-2.802-.485-3.084 1.607.957 2.49.143 3.954zm381.084 67.823l-.37-1.122-1.458.515c-.839-1.091-1.441-1.876-2.577-3.36l-1.448 5.442 5.853-1.475zm-427.687-60.41l-.833.587c.815 1.264 1.632 2.522 2.427 3.755l4.219-2.004c-.661-.909-1.182-1.619-1.702-2.33l-.552.266.392 2.22-3.951-2.494zm183.181 84.885l1.42 5.633 3.733-2.009c-1.824-1.299-3.265-2.293-5.153-3.624zm-116.289-86.645c2.068.722 1.27 5.039 4.977 3.994-.212-3.122-1.376-4.925-4.977-3.994zm146.415-28.136c-.405-1.605-1.822-4.078-1.128-5.091 1.884-2.729-.504-2.362-1.525-3.355-.781 4.21.384 7.367 2.653 8.446zm62.764 61.726c3.744-2.929 3.621-3.588-.909-6.583l.909 6.583zm-279.176 33.891c-.016-.631-.028-1.263-.044-1.895l-4.825.025c.132.666.219 1.894.405 1.907 1.488.068 2.978.056 4.464-.037zm-38.977-21.48c1.6-.125 3.047-.101 4.396-.449.284-.071.215-1.511.31-2.317-1.683.222-3.87-.799-4.725 2.771l.019-.005zm389.347-34.31c.224 2.809.382 4.775.543 6.77 3.613-1.18 3.643-1.771-.543-6.77zm-251.666 74.278c2.929 4.391 6.363.548 9.46.753l-9.46-.753zm-131.053-34.461l-6.413-2.353c.406 2.776 2.371 3.769 6.413 2.353zm186.59 8.731l.899-.842c-1.052-1.323-2.11-2.672-3.63-4.591-.108 2.409-.169 3.818-.243 5.337l2.974.096zm100.38-50.017l-5.285-.7c.719 1.502 1.438 3 2.248 4.685l3.037-3.985zm167.44 23.033l-1.298-.423-1.531 5.709 4.939-1.245-3.123-1.051 1.013-2.99zm-328.631-42.745c-1.135-1.933-1.891-3.215-2.895-4.931l-2.357 4.194 5.252.737zM161.875 325.636l-5.14 1.91c.036.285.069.571.104.852l6.511.395c-.723-1.544-1.083-2.343-1.475-3.157zm395.738-51.61l.587.626 4.621-1.875c-.649-1.281-1.079-2.138-1.836-3.646l-3.372 4.895zM240.183 216.7c-.066.354-.135.709-.204 1.068l4.984 1.737 1.113-2.166a28.706 28.706 0 0 0-2.93-.6 26.872 26.872 0 0 0-2.963-.039zm151.47-4.134c.518-4.497-.239-5.299-4.282-5.209l4.282 5.209zm203.348 87.012c-.037.656-.065 1.315-.106 1.972 1.153.166 2.341.549 3.44.372.34-.054.436-1.627.643-2.505l-3.977.161zm25.973-110.197l.515-.054c-.303-1.877-.497-3.782-.973-5.611-.13-.515-1.117-.806-1.708-1.201-.14.738-.599 1.612-.358 2.19.688 1.625 1.662 3.127 2.524 4.676zm-88.481 79.463l.298 1.044c1.546-.389 3.162-.622 4.587-1.271.384-.176.187-1.635.353-3.53l-5.238 3.757zm-155.696-65.75l-.544.046-1.531 5.944 3.359-.847-1.284-5.143zm94.477-54.948l1.353.453c.667-2.268 2.922-4.079 2.403-6.691l-1.26-.385-2.496 6.623zm96.065 104.235c.057.823-.132 2.248.208 2.401a5 5 0 0 0 3.152.202c.498-.149.681-1.362.957-2l-4.317-.603zm53.635-102.083l-1.202-.582c-.871 2.057-1.743 4.111-2.607 6.179a4.887 4.887 0 0 0-.171.896c.361-.015.97.085 1.045-.073 1.018-2.118 1.968-4.275 2.935-6.42zm-216.531-6.513l.617.119c.974-1.733 1.944-3.469 2.908-5.207l-.677-.496-2.861 1.312.013 4.272zm59.548-26.161l-1.586-.986-3.229 5.303.999.594 3.816-4.911zm-201.978 49.74l-5.225-.478-.598.89c.785.703 1.667 2.061 2.325 1.962 1.081-.169 2.009-1.288 3.509-2.377l-.011.003zm233.902 11.341c3.83 1.242 5.089-.488 5.136-3.894l-5.136 3.894zm201.511 75.613l-3.745-2.966c.214 1.685.429 3.369.732 5.77l3.013-2.804zm-414.909-57.31l-3.991-3.389c.111 2.013.181 3.567.257 5.097l3.734-1.708zm230.337-49.935c3.366-4.616 3.474-5.116 1.781-8.683l-1.781 8.683zm-2.064 50.635l3.003-2.956-1.95-2.558-1.574 1.191c.186 1.541.338 2.793.521 4.323zm-30.437 118.757l-3.142-2.308-.849.38c.264 1.522.532 3.042.916 5.212l3.075-3.284z" fill="#1E2E55"/>
</svg>