<svg width="177" height="56" viewBox="0 0 177 56" fill="none" xmlns="http://www.w3.org/2000/svg">
<path d="M53.425 1.46838H58.6236V9.46001H66.6725V1.46838H71.8784V21.0686H66.6725V13.5416H58.6236V21.0686H53.425V1.46838Z" fill="#111130"/>
<path d="M90.3972 21.0686L89.0303 17.6017H80.4144L79.0184 21.0686H73.6743L82.2321 1.46838H87.5762L95.9667 21.0686H90.3972ZM81.9776 13.6846H87.4962L84.7623 6.69368L81.9776 13.6846Z" fill="#111130"/>
<path d="M109.309 6.20047C108.501 5.74859 107.591 5.50284 106.662 5.48565C105.698 5.46768 104.749 5.71529 103.921 6.20047C103.096 6.6968 102.423 7.40317 101.972 8.24484C101.504 9.14043 101.26 10.1329 101.26 11.1398C101.26 12.1468 101.504 13.1392 101.972 14.0348C102.421 14.8758 103.095 15.5802 103.921 16.0721C104.749 16.5572 105.698 16.8048 106.662 16.7869C107.551 16.7681 108.424 16.5583 109.221 16.1721C110.115 15.7577 110.925 15.1887 111.613 14.4923L114.653 17.7519C113.558 18.8815 112.249 19.7897 110.799 20.4253C109.263 21.1278 107.58 21.4635 105.887 21.4051C104.194 21.3467 102.538 20.8959 101.056 20.0893C99.4914 19.2229 98.1948 17.9556 97.3044 16.4223C96.3851 14.8411 95.9131 13.0468 95.9375 11.2256C95.9101 9.43629 96.3823 7.67384 97.3028 6.12996C98.2232 4.58609 99.5566 3.3199 101.158 2.46913C102.831 1.58468 104.705 1.13444 106.604 1.16102C108.106 1.16887 109.59 1.47777 110.966 2.06884C112.339 2.63701 113.577 3.4792 114.602 4.5421L111.592 8.11617C110.97 7.33295 110.193 6.68135 109.309 6.20047Z" fill="#111130"/>
<path d="M136.036 21.0686H129.812L124.577 13.463L122.076 16.2007V21.0686H116.87V1.46838H122.076V9.96753L129.558 1.46838H135.585L128.191 9.54579L136.036 21.0686Z" fill="#111130"/>
<path d="M53.345 35.9868H58.551V55.587H53.345V35.9868Z" fill="#111130"/>
<path d="M62.419 35.9868H67.6104V51.2267H76.0591V55.587H62.419V35.9868Z" fill="#111130"/>
<path d="M80.0217 35.9868H85.2276V51.2267H93.6763V55.587H80.0217V35.9868Z" fill="#111130"/>
<path d="M96.5774 35.9868H101.783V55.587H96.5774V35.9868Z" fill="#111130"/>
<path d="M119.808 35.9868H124.643V55.587H120.091L111.054 43.8784V55.587H106.189V35.9868H110.77L119.837 47.7741L119.808 35.9868Z" fill="#111130"/>
<path d="M144.085 36.9947C145.677 37.8236 147.013 39.0581 147.953 40.5688C148.897 42.1234 149.383 43.9052 149.356 45.7154C149.385 47.5244 148.909 49.3066 147.98 50.8682C147.051 52.4297 145.703 53.7108 144.085 54.572C142.4 55.4811 140.503 55.9442 138.581 55.9159C136.661 55.9421 134.766 55.4844 133.077 54.5863C131.47 53.7392 130.131 52.4728 129.209 50.9264C128.265 49.3483 127.78 47.5459 127.806 45.7154C127.782 43.929 128.259 42.1707 129.183 40.6326C130.108 39.0946 131.445 37.8361 133.048 36.9947C134.749 36.1303 136.637 35.6793 138.552 35.6793C140.467 35.6793 142.354 36.1303 144.056 36.9947H144.085ZM135.891 40.7689C135.046 41.2755 134.355 41.9965 133.891 42.8562C133.4 43.7515 133.15 44.7554 133.164 45.7726C133.14 46.8023 133.39 47.8203 133.891 48.7248C134.361 49.5819 135.051 50.3037 135.891 50.8192C136.708 51.329 137.657 51.5969 138.625 51.5912C139.586 51.5977 140.528 51.3295 141.337 50.8192C142.167 50.3075 142.841 49.5836 143.285 48.7248C143.754 47.8152 143.998 46.81 143.998 45.7905C143.998 44.771 143.754 43.7658 143.285 42.8562C142.841 41.9994 142.167 41.2778 141.337 40.7689C140.519 40.2854 139.579 40.0377 138.625 40.0541C137.664 40.0405 136.718 40.2878 135.891 40.7689Z" fill="#111130"/>
<path d="M151.69 35.9868H156.896V55.587H151.69V35.9868Z" fill="#111130"/>
<path d="M170.856 40.3758C169.884 40.0299 168.864 39.8322 167.832 39.7896C167.302 39.7632 166.775 39.8846 166.312 40.1399C166.134 40.2456 165.989 40.3962 165.89 40.5759C165.792 40.7557 165.744 40.9581 165.752 41.1621C165.75 41.3657 165.793 41.5674 165.877 41.7535C165.961 41.9397 166.085 42.106 166.239 42.2414C166.586 42.5532 166.991 42.796 167.432 42.9562C167.904 43.135 168.61 43.3637 169.54 43.6711C170.707 43.9895 171.851 44.3835 172.965 44.8505C173.88 45.2484 174.678 45.8682 175.284 46.6518C175.964 47.5711 176.305 48.6904 176.251 49.8256C176.283 51.0221 175.912 52.1954 175.197 53.1638C174.45 54.1183 173.441 54.8427 172.289 55.2511C170.986 55.7362 169.603 55.9786 168.21 55.9659C166.527 55.9625 164.857 55.6748 163.273 55.1152C161.723 54.5988 160.281 53.8091 159.019 52.785L161.041 48.782C162.099 49.6898 163.306 50.4149 164.611 50.9264C165.755 51.4382 166.99 51.7248 168.246 51.7699C168.887 51.8016 169.525 51.6555 170.085 51.3482C170.299 51.2207 170.473 51.0394 170.591 50.8232C170.708 50.6069 170.765 50.3637 170.754 50.1187C170.761 49.9068 170.719 49.6961 170.632 49.502C170.545 49.3079 170.416 49.1352 170.253 48.9964C169.889 48.6782 169.464 48.4351 169.002 48.2816C168.5 48.1029 167.795 47.8956 166.886 47.6526C165.731 47.3523 164.599 46.9725 163.498 46.516C162.604 46.1302 161.818 45.5365 161.208 44.7862C160.535 43.894 160.199 42.8 160.255 41.691C160.232 40.5432 160.584 39.4183 161.259 38.4815C161.959 37.5164 162.929 36.7716 164.051 36.3371C165.385 35.8283 166.808 35.5853 168.239 35.6222C169.683 35.6222 171.12 35.8244 172.507 36.2227C173.813 36.58 175.06 37.1218 176.208 37.831L174.244 41.9126C173.174 41.2836 172.038 40.7684 170.856 40.3758Z" fill="#111130"/>
<path d="M11.7268 22.6555H27.9698V12.5552H38.7016V0.353271H8.055L0.849609 12.5552H11.7268V22.6555Z" fill="#111130"/>
<path d="M27.9698 33.3134H11.7268V43.4137H0.849609V55.6156H31.7797L38.7016 43.4137H27.9698V33.3134Z" fill="#111130"/>
</svg>
