<svg width="205" height="304" viewBox="0 0 205 304" fill="none" xmlns="http://www.w3.org/2000/svg">
<path d="M157.51 251.183C147.176 225.218 119.666 206.591 87.2067 206.591C54.8934 206.591 27.3833 225.218 16.9033 251.183H157.51Z" fill="#E8D7A5"/>
<path d="M88.0803 216.046C88.0803 216.046 80.2202 231.851 88.0803 231.992C95.7947 232.133 88.0803 216.046 88.0803 216.046Z" fill="#9B2227"/>
<path d="M73.67 213.224C73.67 213.224 58.5321 219.433 64.3544 225.359C70.0311 231.145 73.67 213.224 73.67 213.224Z" fill="#9B2227"/>
<path d="M99.7244 213.224C99.7244 213.224 104.819 230.298 110.204 224.089C115.59 217.739 99.7244 213.224 99.7244 213.224Z" fill="#9B2227"/>
<path d="M157.364 251.183H16.9033V280.535H157.364V251.183Z" fill="#F89E1B"/>
<path d="M16.3212 237.777C7.0056 224.936 9.77118 256.263 25.3456 260.355C40.9201 264.589 36.9901 251.183 45.4323 255.275C53.8745 259.509 50.6723 268.681 59.6968 266.988C68.7212 265.294 68.1389 254.429 74.5434 261.908C81.0934 269.387 92.0101 268.681 96.5223 263.601C101.035 258.521 101.762 261.908 112.097 265.294C122.431 268.681 123.159 266.141 129.563 260.214C136.113 254.288 134.803 266.988 147.758 261.908C160.712 256.828 169.155 249.349 164.642 241.728C160.13 234.249 150.96 239.188 144.556 245.115C138.006 251.042 129.418 240.176 116.755 248.502C104.819 256.263 110.204 238.483 96.6678 244.269C82.9856 250.195 82.9856 253.441 72.6512 246.809C62.3167 240.035 64.3545 250.195 57.9501 251.042C51.4001 251.889 55.9123 237.636 45.4323 241.023C35.0978 244.551 27.2378 252.876 16.3212 237.777Z" fill="#C3601E"/>
<path d="M107.294 46.2866H92.447C65.8103 46.2866 44.2681 70.5581 44.2681 100.474C44.2681 107.389 49.217 112.892 55.3303 112.892H144.41C150.524 112.892 155.472 107.248 155.472 100.474C155.618 70.5581 133.93 46.2866 107.294 46.2866Z" fill="#ED9B21"/>
<path d="M82.6946 58.5635C84.7847 58.5635 86.4791 57.1104 86.4791 55.3179C86.4791 53.5254 84.7847 52.0723 82.6946 52.0723C80.6045 52.0723 78.9102 53.5254 78.9102 55.3179C78.9102 57.1104 80.6045 58.5635 82.6946 58.5635Z" fill="#E8D7A5"/>
<path d="M99.8701 58.5635C101.96 58.5635 103.655 57.1104 103.655 55.3179C103.655 53.5254 101.96 52.0723 99.8701 52.0723C97.78 52.0723 96.0857 53.5254 96.0857 55.3179C96.0857 57.1104 97.78 58.5635 99.8701 58.5635Z" fill="#E8D7A5"/>
<path d="M117.191 58.5635C119.281 58.5635 120.976 57.1104 120.976 55.3179C120.976 53.5254 119.281 52.0723 117.191 52.0723C115.101 52.0723 113.407 53.5254 113.407 55.3179C113.407 57.1104 115.101 58.5635 117.191 58.5635Z" fill="#E8D7A5"/>
<path d="M73.5247 77.3315C75.6148 77.3315 77.3091 75.8784 77.3091 74.0859C77.3091 72.2935 75.6148 70.8403 73.5247 70.8403C71.4346 70.8403 69.7402 72.2935 69.7402 74.0859C69.7402 75.8784 71.4346 77.3315 73.5247 77.3315Z" fill="#E8D7A5"/>
<path d="M90.7002 77.3315C92.7903 77.3315 94.4846 75.8784 94.4846 74.0859C94.4846 72.2935 92.7903 70.8403 90.7002 70.8403C88.6101 70.8403 86.9158 72.2935 86.9158 74.0859C86.9158 75.8784 88.6101 77.3315 90.7002 77.3315Z" fill="#E8D7A5"/>
<path d="M108.021 77.3315C110.112 77.3315 111.806 75.8784 111.806 74.0859C111.806 72.2935 110.112 70.8403 108.021 70.8403C105.931 70.8403 104.237 72.2935 104.237 74.0859C104.237 75.8784 105.931 77.3315 108.021 77.3315Z" fill="#E8D7A5"/>
<path d="M126.507 77.3315C128.597 77.3315 130.291 75.8784 130.291 74.0859C130.291 72.2935 128.597 70.8403 126.507 70.8403C124.417 70.8403 122.722 72.2935 122.722 74.0859C122.722 75.8784 124.417 77.3315 126.507 77.3315Z" fill="#E8D7A5"/>
<path d="M44.7046 103.72C45.869 109.082 50.2357 113.174 55.4757 113.174H144.556C149.796 113.174 154.162 109.223 155.327 103.72H44.7046Z" fill="#C96928"/>
<path d="M204.816 111.058H-560.807V133.777H204.816V111.058Z" fill="#E8D7A5"/>
<path d="M204.816 281.24H-560.807V303.959H204.816V281.24Z" fill="#E8D7A5"/>
</svg>
