<svg width="1644" height="1139" fill="none" xmlns="http://www.w3.org/2000/svg">
  <path d="M679.122 1007.08c-.493.72-.429 1.63.142 2.02.572.39 1.435.12 1.928-.6.493-.72.43-1.62-.142-2.01-.572-.39-1.435-.13-1.928.59zM793.138 638.804c-.226.331-.197.744.065.923.262.179.657.056.883-.274.226-.33.197-.744-.065-.923-.262-.179-.657-.056-.883.274zM782.795 589.451c-.226.33-.197.744.065.923.262.179.657.056.883-.274.226-.33.197-.744-.065-.923-.262-.179-.657-.056-.883.274zM454.086 1111.05c-.226.33-.197.75.065.93.262.18.658.05.884-.28.226-.33.197-.74-.065-.92-.262-.18-.658-.06-.884.27z" fill="#EACA91"/>
  <path opacity=".54" d="M761.32 736.497c-.431.63-.376 1.419.125 1.761.5.342 1.255.108 1.686-.523.432-.63.376-1.419-.124-1.761-.5-.342-1.255-.108-1.687.523z" fill="#EACA91"/>
  <path d="M695.783 1025.24c-.328.48-.286 1.08.095 1.34.381.27.957.09 1.285-.39.329-.48.287-1.09-.094-1.35-.382-.26-.957-.08-1.286.4zM716.892 499.842c-.493.721-.43 1.622.142 2.013.572.391 1.435.124 1.928-.597.493-.721.429-1.622-.143-2.013-.571-.391-1.434-.124-1.927.597zM742.829 793.045c-.226.33-.197.743.065.923.262.179.658.056.884-.274.226-.331.196-.744-.066-.923-.262-.179-.657-.057-.883.274zM749.36 574.534c-.226.33-.197.743.065.922.262.18.658.057.884-.273.226-.331.196-.744-.066-.923-.262-.179-.657-.057-.883.274zM681.362 943.391c-.226.33-.197.743.065.922.262.18.658.057.884-.273.226-.331.197-.744-.065-.923-.262-.179-.658-.057-.884.274zM653.419 947.117c-.226.33-.196.743.066.922.262.18.657.057.883-.273.226-.331.197-.744-.065-.923-.262-.179-.658-.057-.884.274zM562.507 1088.31c-.431.63-.376 1.42.125 1.76.5.34 1.255.11 1.686-.52.432-.63.376-1.42-.124-1.76-.5-.34-1.255-.11-1.687.52zM667.5 1033.91c-.287.42-.25.94.083 1.17.334.23.837.07 1.125-.35.288-.42.25-.94-.083-1.17-.333-.23-.837-.08-1.125.35zM709.491 982.784c-.329.481-.287 1.082.094 1.342.382.261.957.082 1.286-.398.328-.481.286-1.082-.095-1.342-.381-.261-.957-.083-1.285.398zM528.155 1100.58c-.493.72-.429 1.63.143 2.02.571.39 1.434.12 1.927-.6.493-.72.43-1.62-.142-2.01-.572-.4-1.435-.13-1.928.59zM543.508 1117.57c-.226.33-.197.75.065.93.262.18.658.05.884-.28.226-.33.196-.74-.066-.92-.262-.18-.657-.06-.883.27zM632.074 1066.59c-.226.33-.197.75.065.92.262.18.658.06.884-.27.226-.33.196-.74-.066-.92-.262-.18-.657-.06-.883.27zM534.191 1098.94c-.226.33-.196.75.066.93.262.18.657.05.883-.28.226-.33.197-.74-.065-.92-.262-.18-.658-.06-.884.27zM497.12 1093.63c-.329.48-.287 1.08.095 1.34.381.26.956.08 1.285-.4.328-.48.286-1.08-.095-1.34s-.957-.08-1.285.4zM710.349 1010.62c-.288.42-.251.95.083 1.17.333.23.836.08 1.124-.34.288-.43.251-.95-.083-1.18-.333-.23-.837-.07-1.124.35zM607.288 1062.79c-.329.48-.287 1.08.095 1.34.381.27.956.09 1.285-.39.328-.48.286-1.09-.095-1.35s-.957-.08-1.285.4zM529.534 1129.68c-.226.33-.197.75.065.92.262.18.658.06.884-.27.226-.33.197-.74-.065-.92-.262-.18-.658-.06-.884.27zM556.547 1107.33c-.226.33-.197.74.065.92.262.18.658.06.884-.27.226-.33.197-.75-.065-.93-.262-.18-.658-.05-.884.28zM701.854 961.089c-.226.33-.196.743.066.922.262.179.657.057.883-.274.226-.33.197-.743-.065-.922-.262-.18-.658-.057-.884.274zM484.266 1133.95c-.432.63-.376 1.42.124 1.76.5.35 1.256.11 1.687-.52.431-.63.376-1.42-.125-1.76-.5-.34-1.255-.11-1.686.52zM574.43 1071.27c-.329.48-.287 1.08.094 1.34.381.27.957.09 1.286-.39.328-.48.286-1.09-.095-1.35s-.957-.08-1.285.4zM813.15 801.962c-.226.33-.197.743.065.922.262.179.658.057.884-.274.226-.33.196-.743-.066-.922-.262-.179-.657-.057-.883.274zM790.737 700.912c-.328.48-.286 1.081.095 1.342.381.26.957.082 1.285-.398.329-.481.287-1.082-.094-1.343-.381-.26-.957-.082-1.286.399zM796.973 817.807c-.288.421-.251.946.083 1.175.333.228.837.072 1.124-.349.288-.421.251-.946-.083-1.174-.333-.228-.837-.072-1.124.348z" fill="#EACA91"/>
  <path opacity=".3" d="M653.177 896.943c-.328.48-.286 1.081.095 1.342.381.26.957.082 1.285-.398.329-.481.287-1.082-.094-1.343-.382-.26-.957-.082-1.286.399z" fill="#EACA91"/>
  <path d="M721.362 884.897c-.202.295-.176.665.059.825.234.16.588.051.79-.245.202-.296.176-.665-.058-.825-.235-.161-.588-.051-.791.245zM705.535 825.033c-.202.295-.176.665.059.825.234.16.588.051.79-.245.202-.296.176-.665-.058-.825-.234-.161-.588-.051-.791.245z" fill="#EACA91"/>
  <path opacity=".54" d="M688.249 807.615c-.294.429-.256.966.084 1.198.34.233.854.074 1.147-.355.294-.429.256-.965-.084-1.198-.34-.233-.854-.074-1.147.355zM724.384 825.271c-.386.564-.336 1.268.111 1.574.447.305 1.121.096 1.507-.467.385-.564.335-1.268-.111-1.574-.447-.306-1.122-.096-1.507.467z" fill="#EACA91"/>
  <path d="M776.427 717.129c-.257.376-.224.846.074 1.05.298.204.749.065 1.006-.311s.224-.847-.074-1.051c-.299-.204-.749-.064-1.006.312zM778.227 870.66c-.294.429-.256.965.085 1.198.34.233.853.073 1.147-.355.293-.429.255-.966-.085-1.198-.34-.233-.854-.074-1.147.355z" fill="#EACA91"/>
  <path opacity=".54" d="M693.415 982.736c-.226.331-.196.744.066.923.262.179.657.057.883-.274.226-.33.197-.743-.065-.923-.262-.179-.658-.056-.884.274z" fill="#EACA91"/>
  <path d="M676.209 876.408c-.226.331-.197.744.065.923.262.179.658.056.884-.274.226-.33.197-.744-.065-.923-.262-.179-.658-.056-.884.274zM831.16 449.108c-.328.481-.286 1.082.095 1.343.381.26.957.082 1.285-.399.329-.48.287-1.081-.095-1.342-.381-.26-.956-.082-1.285.398z" fill="#EACA91"/>
  <path opacity=".54" d="M711.542 1022.18c-.432.63-.376 1.42.124 1.76.5.34 1.256.11 1.687-.52.432-.63.376-1.42-.124-1.77-.501-.34-1.256-.1-1.687.53z" fill="#EACA91"/>
  <path opacity=".3" d="M737.435 994.893c-.328.481-.286 1.082.095 1.342.381.261.957.083 1.285-.398.329-.481.287-1.082-.094-1.342-.381-.261-.957-.082-1.286.398z" fill="#EACA91"/>
  <path opacity=".54" d="M744.253 973.905c-.493.721-.429 1.622.143 2.013.571.391 1.434.123 1.928-.598.493-.72.429-1.622-.143-2.013-.571-.391-1.434-.123-1.928.598z" fill="#EACA91"/>
  <path d="M800.373 895.565c-.493.721-.429 1.622.142 2.013.572.391 1.435.124 1.928-.597.493-.721.43-1.622-.142-2.013-.572-.391-1.435-.124-1.928.597zM705.58 1005.8c-.226.33-.197.74.065.92.262.18.658.06.884-.27.226-.33.196-.75-.066-.93-.262-.17-.657-.05-.883.28zM681.681 860.356c-.226.33-.197.743.065.923.262.179.658.056.884-.274.226-.331.196-.744-.066-.923-.262-.179-.657-.057-.883.274z" fill="#EACA91"/>
  <path opacity=".3" d="M769.241 999.019c-.432.631-.376 1.421.124 1.761.5.34 1.255.11 1.687-.52.431-.633.376-1.422-.125-1.764-.5-.342-1.255-.108-1.686.523z" fill="#EACA91"/>
  <path d="M744.173 1007.16c-.288.42-.251.95.083 1.18.333.23.837.07 1.124-.35.288-.42.251-.95-.083-1.18-.333-.22-.837-.07-1.124.35z" fill="#EACA91"/>
  <path opacity=".3" d="M684.963 903.864c-.329.481-.287 1.082.094 1.342.381.261.957.083 1.286-.398.328-.481.286-1.082-.095-1.342-.381-.261-.957-.083-1.285.398z" fill="#EACA91"/>
  <path d="M790.879 957.982c-.226.331-.197.744.065.923.262.179.657.057.883-.274.226-.33.197-.743-.065-.923-.262-.179-.657-.056-.883.274zM697.121 948.145c-.329.48-.287 1.081.095 1.342.381.261.956.082 1.285-.398.328-.481.286-1.082-.095-1.342-.381-.261-.957-.083-1.285.398zM649.605 1051.3c-.304.44-.214 1.03.202 1.32.416.28 1 .16 1.304-.29.304-.44.214-1.03-.202-1.32-.416-.28-.999-.16-1.304.29zM671.046 818.821c-.14.203-.098.474.092.604.191.131.458.073.598-.13.139-.203.098-.474-.092-.605-.191-.131-.459-.072-.598.131zM699.945 784.849c-.14.203-.098.474.092.605.191.131.458.072.598-.131.139-.203.098-.473-.093-.604-.19-.131-.458-.073-.597.13zM594.579 1073.56c-.139.21-.098.48.093.61.19.13.458.07.597-.13.14-.21.099-.48-.092-.61s-.458-.07-.598.13z" fill="#EACA91"/>
  <path opacity=".54" d="M692.622 879.477c-.267.388-.188.904.176 1.154.364.25.875.139 1.141-.249s.187-.904-.176-1.154c-.364-.25-.875-.139-1.141.249z" fill="#EACA91"/>
  <path d="M556.619 1072.04c-.266.38-.187.9.176 1.15.364.25.875.14 1.141-.25s.187-.9-.176-1.15c-.364-.25-.875-.14-1.141.25zM662.068 1064.03c-.203.29-.143.69.134.88.277.19.666.1.869-.19.203-.3.143-.69-.134-.88-.277-.19-.666-.11-.869.19zM719.805 806.844c-.304.443-.214 1.033.202 1.319.416.286.999.158 1.304-.285.304-.443.214-1.033-.202-1.319-.416-.286-.999-.158-1.304.285zM682.722 915.314c-.139.203-.098.473.093.604.19.131.458.073.597-.13.14-.203.098-.474-.092-.605-.191-.131-.458-.072-.598.131zM824.651 660.928c-.14.203-.098.474.092.605.191.13.458.072.598-.131.139-.203.098-.474-.092-.605-.191-.131-.459-.072-.598.131zM671.891 1049.35c-.139.2-.098.47.093.6.19.13.458.07.597-.13.14-.2.098-.47-.092-.6-.191-.14-.458-.08-.598.13zM716.601 918.01c-.14.203-.098.474.092.605.191.131.458.072.598-.131.139-.203.098-.473-.093-.604-.19-.131-.458-.073-.597.13zM543.87 1135.79c-.202.3-.142.69.135.88.277.19.666.11.869-.19.203-.29.143-.69-.134-.88-.278-.19-.667-.1-.87.19zM608.781 1065.51c-.266.39-.187.91.177 1.16.363.25.874.14 1.14-.25.267-.39.188-.9-.176-1.15-.364-.25-.875-.14-1.141.24zM530.54 1081.35c-.267.39-.188.9.176 1.15.364.25.875.14 1.141-.25.266-.38.187-.9-.177-1.15-.363-.25-.874-.14-1.14.25zM604.673 1050.06c-.177.25-.124.6.118.77.243.16.583.09.761-.17.177-.26.124-.6-.118-.77-.243-.17-.583-.09-.761.17zM666.416 1025.29c-.203.3-.142.69.135.88.277.19.666.11.869-.19a.633.633 0 0 0-.134-.88c-.278-.19-.667-.1-.87.19zM509.817 1126.66c-.14.2-.098.47.092.6.191.13.458.07.598-.13.139-.2.098-.47-.092-.6a.428.428 0 0 0-.598.13zM583.404 1079.15c-.14.21-.098.48.092.61.191.13.458.07.598-.13.139-.21.098-.48-.093-.61-.19-.13-.458-.07-.597.13zM620.09 1087.52c-.14.2-.098.47.092.6.191.13.458.07.598-.13.139-.2.098-.47-.093-.6a.427.427 0 0 0-.597.13zM633.702 1081.02c-.139.2-.098.47.093.6.19.13.458.07.597-.13.14-.2.098-.47-.092-.61-.191-.13-.458-.07-.598.14zM522.155 1111.16c-.266.38-.187.9.177 1.15.363.25.874.14 1.14-.25.267-.39.188-.9-.176-1.15-.364-.25-.875-.14-1.141.25zM496.074 1113.95c-.266.39-.187.9.176 1.15.364.25.875.14 1.141-.24.266-.39.187-.91-.176-1.16-.364-.25-.875-.14-1.141.25zM637.711 1048.31c-.177.26-.125.6.118.77.242.16.583.09.76-.17.178-.26.125-.6-.117-.77-.243-.17-.583-.09-.761.17zM602.739 1083.7c-.203.3-.143.69.135.88.277.19.666.11.869-.19.203-.29.142-.69-.135-.88-.277-.19-.666-.1-.869.19zM577.181 1101.94c-.305.44-.214 1.04.201 1.32.416.29 1 .16 1.304-.28.304-.45.214-1.04-.202-1.32-.415-.29-.999-.16-1.303.28zM595.511 1072.63c-.139.21-.098.48.093.61.19.13.458.07.597-.13.14-.21.098-.48-.092-.61-.191-.13-.458-.07-.598.13zM591.786 1091.26c-.14.2-.098.48.092.61.191.13.458.07.598-.13.139-.21.098-.48-.092-.61-.191-.13-.459-.07-.598.13zM684.931 987.87c-.14.203-.098.473.092.604.191.131.458.073.598-.13.139-.203.098-.474-.093-.605-.19-.131-.458-.072-.597.131zM557.436 1092.36c-.202.3-.142.69.135.88.277.19.666.1.869-.19.203-.3.143-.69-.134-.88-.278-.19-.667-.11-.87.19zM731.853 924.926c-.139.204-.098.474.093.605.19.131.458.073.597-.13.14-.203.098-.474-.092-.605-.191-.131-.458-.073-.598.13zM711.158 857.887c-.203.296-.142.689.135.88.277.19.666.105.869-.19.203-.295.143-.689-.135-.88-.277-.19-.666-.105-.869.19zM735.88 959.691c-.178.259-.125.603.118.77.242.167.583.092.76-.166.178-.259.125-.603-.118-.77-.242-.166-.583-.092-.76.166z" fill="#EACA91"/>
  <path opacity=".3" d="M671.074 967.545c-.203.295-.143.689.134.879.277.19.666.105.869-.19.203-.295.143-.689-.134-.879-.277-.191-.667-.106-.869.19z" fill="#EACA91"/>
  <path d="M672.576 973.987c-.125.182-.088.424.082.541.171.117.41.065.535-.117.125-.182.088-.424-.083-.541-.17-.117-.41-.065-.534.117zM698.877 947.778c-.125.182-.088.424.082.541.171.117.41.065.535-.117.125-.181.088-.423-.083-.54-.17-.118-.41-.065-.534.116z" fill="#EACA91"/>
  <path opacity=".54" d="M645.69 921.853c-.181.263-.127.615.12.785.248.17.595.094.776-.17.181-.263.127-.615-.12-.785-.247-.17-.595-.094-.776.17zM671.607 935.309c-.238.346-.167.808.158 1.031.325.223.781.124 1.019-.223.238-.346.167-.808-.158-1.031-.324-.223-.781-.123-1.019.223z" fill="#EACA91"/>
  <path d="M701.846 931.276c-.159.231-.112.539.105.688.217.149.521.082.68-.149.159-.231.112-.539-.105-.688-.217-.149-.521-.082-.68.149zM711.205 967.789c-.181.264-.127.615.12.785.247.17.595.094.776-.169.181-.264.127-.615-.12-.785-.248-.17-.595-.094-.776.169z" fill="#EACA91"/>
  <path opacity=".54" d="M658.249 1036.21c-.14.2-.098.47.092.61.191.13.458.07.598-.14.139-.2.098-.47-.093-.6-.19-.13-.458-.07-.597.13z" fill="#EACA91"/>
  <path d="M736.161 953.406c-.139.203-.098.473.093.604.19.131.458.073.597-.13.14-.203.099-.474-.092-.605s-.458-.072-.598.131zM729.13 835.396c-.203.295-.143.689.134.88.277.19.666.105.869-.19.203-.296.143-.689-.134-.88-.277-.19-.667-.105-.869.19zM695.249 780.818c-.203.295-.143.689.134.879.277.19.666.105.869-.19.203-.295.143-.689-.134-.879-.277-.191-.666-.106-.869.19z" fill="#EACA91"/>
  <path opacity=".54" d="M578.043 1058.06c-.266.39-.187.91.176 1.16.364.25.875.14 1.141-.25s.187-.91-.176-1.16c-.364-.25-.875-.13-1.141.25z" fill="#EACA91"/>
  <path opacity=".3" d="M617.114 1047.97c-.203.3-.143.69.134.88.277.19.667.11.87-.19.202-.29.142-.69-.135-.88-.277-.19-.666-.1-.869.19z" fill="#EACA91"/>
  <path opacity=".54" d="M683.527 1037.02c-.305.44-.214 1.03.201 1.31.416.29 1 .16 1.304-.28.304-.44.214-1.03-.202-1.32-.415-.28-.999-.16-1.303.29z" fill="#EACA91"/>
  <path d="M727.811 985.211c-.305.443-.214 1.034.201 1.319.416.286 1 .158 1.304-.285.304-.443.214-1.033-.202-1.319-.415-.285-.999-.158-1.303.285zM681.702 1063.68c-.14.2-.098.47.092.6.191.13.458.08.598-.13.139-.2.098-.47-.093-.6-.19-.13-.458-.07-.597.13zM723.122 978.555c-.14.203-.098.474.092.605.191.131.458.072.598-.131.139-.203.098-.474-.093-.604-.19-.131-.458-.073-.597.13z" fill="#EACA91"/>
  <path opacity=".3" d="M711.567 1050.92c-.266.39-.187.9.177 1.15.363.25.874.14 1.14-.25.267-.38.188-.9-.176-1.15-.364-.25-.875-.14-1.141.25z" fill="#EACA91"/>
  <path d="M694.635 1054.87c-.177.26-.124.6.118.77.243.16.583.09.761-.17.177-.26.124-.6-.118-.77a.557.557 0 0 0-.761.17z" fill="#EACA91"/>
  <path opacity=".3" d="M713.92 939.601c-.203.295-.143.689.134.879.277.191.666.106.869-.19.203-.295.143-.689-.134-.879-.277-.191-.667-.106-.869.19z" fill="#EACA91"/>
  <path d="M496.144 1124.3c-.305.44-.214 1.03.201 1.32.416.28 1 .15 1.304-.29.304-.44.214-1.03-.202-1.32-.415-.28-.999-.16-1.303.29zM538.692 1128.52c-.14.2-.098.47.092.6.191.14.458.08.598-.13.139-.2.098-.47-.093-.6-.19-.13-.458-.07-.597.13zM724.441 1025.36c-.14.2-.098.47.092.6.191.13.458.07.598-.13.139-.2.098-.47-.093-.6a.427.427 0 0 0-.597.13zM775.282 667.448c-.139.203-.098.474.093.605.19.131.458.072.597-.131.14-.203.098-.473-.092-.604-.191-.131-.458-.073-.598.13zM726.029 1012.25c-.202.3-.142.69.135.88.277.19.666.11.869-.19a.633.633 0 0 0-.134-.88c-.278-.19-.667-.1-.87.19zM1337.99 641.195c.17-.829-.28-1.622-1-1.771-.73-.149-1.45.402-1.62 1.231-.17.829.28 1.621 1 1.771.73.149 1.45-.402 1.62-1.231zM1485.82 278.557c.34-.196.47-.593.3-.886-.18-.293-.59-.371-.92-.175-.34.196-.47.593-.3.886.18.293.59.371.92.175zM1050.8 644.462c.34-.196.47-.593.3-.886-.17-.292-.58-.371-.92-.174-.33.196-.47.592-.29.885.17.293.58.371.91.175zM987.134 674.002c.334-.197.466-.593.294-.886-.171-.293-.582-.371-.916-.175-.335.196-.467.593-.295.886.172.292.582.371.917.175zM1386.84 317.916c.33-.196.46-.593.29-.886-.17-.293-.58-.371-.91-.175-.34.197-.47.593-.3.886.17.293.58.371.92.175zM1457.63 263.684c.49-.285.68-.862.43-1.288-.25-.426-.85-.54-1.33-.254-.49.285-.68.862-.43 1.288.25.426.84.54 1.33.254z" fill="#EACA91"/>
  <path opacity=".54" d="M1037.9 585.505c.64-.374.89-1.131.56-1.69-.32-.56-1.11-.709-1.75-.334-.64.374-.89 1.131-.56 1.69.33.559 1.11.709 1.75.334z" fill="#EACA91"/>
  <path d="M1247.63 287.443c.64-.375.89-1.132.56-1.691-.33-.559-1.11-.708-1.75-.334-.64.375-.89 1.132-.56 1.691.33.559 1.11.709 1.75.334zM1427.65 322.081c.42-.25.59-.755.37-1.127-.22-.373-.74-.473-1.16-.223-.43.25-.6.754-.38 1.127.22.373.74.473 1.17.223zM1234.56 312.869c.49-.285.68-.862.43-1.288-.25-.426-.84-.54-1.33-.255-.49.286-.68.863-.43 1.289.25.426.85.539 1.33.254zM1083.88 670.654c.73-.428 1.02-1.293.64-1.932-.37-.639-1.27-.81-2-.382-.73.428-1.02 1.293-.64 1.932.37.639 1.27.81 2 .382zM1126.21 687.61c.33-.197.46-.593.29-.886-.17-.293-.58-.371-.92-.175-.33.196-.46.593-.29.886.17.293.58.371.92.175zM1249.55 406.449c.34-.196.47-.593.3-.885-.17-.293-.58-.372-.92-.175-.33.196-.46.592-.29.885.17.293.58.371.91.175zM1255.82 435.819c.33-.196.46-.592.29-.885-.17-.293-.58-.371-.92-.175-.33.196-.46.593-.29.886.17.292.58.371.92.174zM1496.09 347.298c.49-.286.68-.862.43-1.288-.25-.426-.85-.54-1.33-.255-.49.286-.68.862-.43 1.288.25.426.84.54 1.33.255zM1282.55 296.902c.64-.375.89-1.132.57-1.691-.33-.559-1.12-.708-1.75-.334-.64.375-.89 1.132-.57 1.691.33.559 1.12.709 1.75.334zM1104.18 741.877c.64-.375.89-1.132.56-1.691-.33-.559-1.11-.708-1.75-.334-.64.375-.89 1.132-.56 1.691.33.559 1.11.708 1.75.334zM1304.1 366.101c.42-.25.59-.754.37-1.127-.22-.373-.74-.472-1.17-.223-.42.25-.59.755-.37 1.127.22.373.74.473 1.17.223zM1326.79 403.298c.49-.285.68-.862.43-1.288-.25-.426-.85-.54-1.34-.254-.48.285-.67.862-.42 1.288.25.426.84.54 1.33.254zM1457.48 353.952c.73-.428 1.02-1.293.64-1.932-.37-.639-1.27-.81-2-.382-.73.428-1.01 1.293-.64 1.932.38.639 1.27.81 2 .382zM509.369 305.003c.772-.347 1.151-1.176.847-1.852-.303-.676-1.175-.942-1.947-.595s-1.151 1.176-.848 1.852c.304.675 1.176.942 1.948.595zM160.415 366.28c.778.334 1.645.054 1.937-.627.293-.681-.101-1.503-.878-1.837-.778-.334-1.645-.053-1.937.627-.293.681.1 1.503.878 1.837zM1485.94 369.636c.33-.197.46-.593.29-.886-.17-.293-.58-.371-.92-.175-.33.196-.46.593-.29.886.17.293.58.371.92.175zM1360.6 425.045c.34-.196.47-.593.3-.886-.18-.293-.59-.371-.92-.175-.34.197-.47.593-.3.886.18.293.59.371.92.175zM1308.97 305.486c.34-.196.47-.592.3-.885-.17-.293-.58-.371-.92-.175-.33.196-.47.593-.29.886.17.292.58.371.91.174zM1410.23 229.654c.34-.196.47-.592.3-.885-.17-.293-.59-.371-.92-.175-.33.196-.47.593-.29.885.17.293.58.372.91.175zM1309.23 253.654c.34-.196.47-.593.3-.885-.18-.293-.59-.372-.92-.175-.33.196-.47.592-.3.885.18.293.59.371.92.175zM1494.96 536.599c.12-.553-.18-1.081-.67-1.181-.48-.099-.97.268-1.08.821-.11.553.19 1.081.67 1.181.48.099.97-.268 1.08-.821zM1370.37 538.875c.15-.726-.24-1.42-.88-1.55-.63-.131-1.27.352-1.42 1.077-.15.725.25 1.419.88 1.55.64.13 1.27-.352 1.42-1.077zM1402.29 257.143c.63-.374.89-1.131.56-1.69-.33-.56-1.11-.709-1.75-.334-.64.374-.89 1.131-.56 1.69.32.559 1.11.709 1.75.334zM1353.57 480.025c.15-.726-.24-1.419-.88-1.55-.63-.13-1.27.352-1.42 1.077-.15.725.25 1.419.88 1.55.64.13 1.27-.352 1.42-1.077zM1257.23 348.913c.42-.25.59-.754.37-1.127-.22-.373-.74-.472-1.16-.223-.43.25-.6.755-.38 1.127.22.373.74.473 1.17.223zM1147.32 739.966c.49-.285.68-.862.43-1.288-.25-.426-.85-.54-1.34-.254-.48.285-.67.862-.42 1.288.25.426.84.54 1.33.254zM1468.23 487.286c.73-.428 1.02-1.294.64-1.932-.37-.639-1.27-.81-2-.382-.73.428-1.02 1.293-.64 1.932.37.639 1.27.81 2 .382zM1251.36 240.654c.33-.196.46-.592.29-.885-.17-.293-.58-.371-.92-.175-.33.196-.46.593-.29.885.17.293.58.372.92.175zM1220.23 243.62c.34-.196.47-.592.3-.885-.18-.293-.59-.372-.92-.175-.34.196-.47.592-.3.885.18.293.59.371.92.175zM1460.23 243.654c.34-.196.47-.592.3-.885-.17-.293-.59-.371-.92-.175-.33.196-.47.593-.29.885.17.293.58.372.91.175zM1491 207.546c.48-.286.67-.863.42-1.289-.25-.426-.84-.539-1.33-.254-.49.285-.68.862-.43 1.288.25.426.85.54 1.34.255zM1467.93 207.211c.64-.375.89-1.132.56-1.691-.33-.559-1.11-.708-1.75-.334-.64.375-.89 1.132-.56 1.691.33.559 1.11.709 1.75.334zM1451.62 206.668c.64-.375.89-1.132.57-1.691-.33-.559-1.12-.708-1.75-.334-.64.375-.9 1.132-.57 1.691.33.559 1.11.709 1.75.334zM1502.39 478.649c.43-.25.6-.754.38-1.127-.22-.373-.74-.472-1.17-.223-.42.25-.59.755-.37 1.128.21.372.74.472 1.16.222zM1518.82 253.83c.48-.286.67-.862.42-1.288-.25-.426-.84-.54-1.33-.255-.49.286-.68.862-.43 1.288.25.426.85.54 1.34.255zM1350.96 316.522c.73-.429 1.02-1.294.65-1.933-.38-.639-1.27-.809-2-.381-.73.428-1.02 1.293-.65 1.932.38.639 1.27.81 2 .382zM407.502 256.313c.772-.347 1.151-1.176.847-1.851-.303-.676-1.175-.942-1.947-.595s-1.152 1.176-.848 1.851c.304.676 1.176.942 1.948.595zM127.409 258.308c.778.334 1.645.053 1.937-.628.293-.681-.1-1.503-.878-1.837-.778-.334-1.645-.053-1.937.627-.293.681.101 1.503.878 1.838zM1428.23 276.654c.34-.196.47-.592.3-.885-.17-.293-.59-.371-.92-.175-.33.196-.47.593-.29.885.17.293.58.372.91.175zM1355.13 288.015c.33-.196.46-.593.29-.886-.17-.293-.58-.371-.92-.175-.33.196-.46.593-.29.886.17.293.58.371.92.175zM1277.24 403.568c.33-.196.46-.593.29-.886-.17-.292-.58-.371-.91-.175-.34.197-.47.593-.3.886.17.293.58.371.92.175zM1411.79 485.762c.49-.285.68-.862.43-1.288-.25-.426-.85-.54-1.33-.255-.49.286-.68.863-.43 1.289.25.426.84.539 1.33.254zM1359.47 263.306c.64-.374.89-1.131.56-1.69-.33-.559-1.11-.709-1.75-.334-.64.374-.89 1.131-.56 1.69.33.559 1.11.709 1.75.334zM1347.51 275.181c.64-.374.89-1.131.57-1.69-.33-.559-1.12-.709-1.75-.334-.64.375-.89 1.131-.57 1.691.33.559 1.11.708 1.75.333zM1402.35 371.941c.64-.374.89-1.131.56-1.69-.33-.559-1.11-.709-1.75-.334-.64.374-.89 1.131-.56 1.69.33.559 1.11.709 1.75.334zM1315.96 532.599c.11-.552-.19-1.081-.67-1.18-.48-.1-.97.268-1.08.82-.11.553.19 1.082.67 1.181.48.099.97-.268 1.08-.821zM1040.94 462.614c.33-.196.47-.593.29-.886-.17-.293-.58-.371-.91-.175-.34.197-.47.593-.3.886.17.293.59.371.92.175zM1022.68 566.998c.49-.286.68-.862.43-1.288-.25-.426-.84-.54-1.33-.255-.49.286-.68.862-.43 1.288.25.426.85.54 1.33.255zM1059.67 412.46c.43-.25.6-.754.38-1.127-.22-.373-.74-.472-1.17-.223-.42.25-.59.755-.37 1.127.22.373.74.473 1.16.223z" fill="#EACA91"/>
  <path opacity=".3" d="M1224.38 452.262c.49-.285.68-.862.43-1.288-.25-.426-.85-.54-1.33-.254-.49.285-.68.862-.43 1.288.25.426.85.54 1.33.254z" fill="#EACA91"/>
  <path d="M1157.12 430.356c.3-.176.42-.53.27-.792-.16-.262-.52-.332-.82-.157-.3.176-.42.53-.27.792.16.262.52.332.82.157z" fill="#EACA91"/>
  <path opacity=".54" d="M1157.83 517.93c.44-.255.61-.77.38-1.15-.22-.38-.75-.482-1.19-.227-.43.255-.6.769-.38 1.149.22.381.76.482 1.19.228zM1119.62 445.498c.57-.334.8-1.011.5-1.51-.29-.499-.99-.633-1.56-.298-.57.334-.8 1.011-.5 1.51.29.499.99.633 1.56.298z" fill="#EACA91"/>
  <path d="M1190.08 559.082c.38-.223.53-.674.33-1.008-.19-.333-.66-.422-1.04-.199-.38.223-.53.675-.33 1.008.19.333.66.423 1.04.199zM1099.42 415.966c.44-.255.61-.77.38-1.15-.22-.38-.75-.482-1.19-.227-.43.255-.6.769-.38 1.15.23.38.76.481 1.19.227z" fill="#EACA91"/>
  <path opacity=".54" d="M1220.4 353.356c.34-.197.47-.593.3-.886-.17-.293-.59-.371-.92-.175-.33.196-.47.593-.29.886.17.292.58.371.91.175z" fill="#EACA91"/>
  <path d="M982.139 587.245c.487-.286.679-.862.429-1.288-.25-.426-.847-.54-1.334-.255-.486.286-.678.862-.429 1.288.25.426.847.54 1.334.255zM1006.6 658.447c.49-.286.68-.862.43-1.288-.25-.426-.84-.54-1.33-.255-.49.286-.68.862-.43 1.288.25.426.85.54 1.33.255z" fill="#EACA91"/>
  <path opacity=".54" d="M1095.93 759.219c.64-.374.89-1.131.57-1.69-.33-.559-1.12-.709-1.75-.334-.64.374-.89 1.131-.57 1.69.33.559 1.11.709 1.75.334z" fill="#EACA91"/>
  <path opacity=".3" d="M1285.45 361.586c.49-.286.68-.862.43-1.288-.25-.426-.85-.54-1.33-.255-.49.286-.68.862-.43 1.288.25.426.84.54 1.33.255z" fill="#EACA91"/>
  <path opacity=".54" d="M1186.04 337.26c.73-.428 1.02-1.293.64-1.932-.37-.639-1.27-.81-2-.382-.73.429-1.01 1.294-.64 1.933s1.27.809 2 .381z" fill="#EACA91"/>
  <path d="M1088.65 382.18c.73-.428 1.02-1.293.65-1.932-.38-.639-1.27-.81-2-.381-.73.428-1.02 1.293-.65 1.932.38.639 1.27.81 2 .381zM1024.23 720.654c.34-.196.47-.592.3-.885-.18-.293-.59-.371-.92-.175-.34.196-.47.593-.3.885.18.293.59.372.92.175zM1184.14 472.304c.33-.197.46-.593.29-.886-.17-.293-.58-.371-.91-.175-.34.196-.47.593-.3.886.17.292.58.371.92.175z" fill="#EACA91"/>
  <path opacity=".3" d="M1157.01 301.529c.64-.375.89-1.132.57-1.691-.33-.559-1.11-.708-1.75-.334-.64.375-.89 1.132-.57 1.691.33.559 1.12.709 1.75.334z" fill="#EACA91"/>
  <path d="M1183.17 306.143c.42-.25.59-.755.37-1.127-.21-.373-.74-.473-1.16-.223-.43.25-.6.755-.38 1.127.22.373.74.473 1.17.223z" fill="#EACA91"/>
  <path opacity=".3" d="M1197.85 430.447c.48-.285.68-.862.43-1.288-.25-.426-.85-.54-1.34-.254-.48.285-.68.862-.43 1.288.25.426.85.54 1.34.254z" fill="#EACA91"/>
  <path d="M1468.68 420.327c.73-.428 1.02-1.293.65-1.932-.38-.639-1.27-.81-2-.381-.73.428-1.02 1.293-.65 1.932.38.639 1.27.81 2 .381zM1455.76 465.327c.73-.428 1.01-1.293.64-1.932-.38-.639-1.27-.81-2-.381-.73.428-1.02 1.293-.65 1.932.38.639 1.28.81 2.01.381zM1441.87 175.984c.33-.197.46-.593.29-.886-.17-.293-.58-.371-.92-.175-.33.196-.46.593-.29.886.17.292.58.371.92.175zM1346.23 396.654c.34-.196.47-.592.3-.885-.18-.293-.59-.371-.92-.175-.33.196-.47.593-.3.885.18.293.59.372.92.175zM1431.49 187.575c.49-.285.68-.862.43-1.288-.25-.426-.85-.54-1.33-.255-.49.286-.68.863-.43 1.289.25.426.85.539 1.33.254zM1400.32 195.526c.63-.375.89-1.132.56-1.691-.33-.559-1.11-.708-1.75-.334-.64.375-.89 1.132-.56 1.691.32.559 1.11.709 1.75.334zM1421.99 206.564c.42-.25.59-.755.37-1.127-.21-.373-.74-.473-1.16-.223-.43.25-.6.754-.38 1.127.22.373.74.473 1.17.223zM1341.79 346.298c.49-.286.68-.862.43-1.288-.25-.426-.85-.54-1.33-.255-.49.286-.68.862-.43 1.288.25.426.84.54 1.33.255zM305.744 573.26a1.398 1.398 0 1 0-.673-2.714 1.398 1.398 0 0 0 .673 2.714zM440.515 601.236a1.84 1.84 0 1 0-.883-3.571 1.84 1.84 0 0 0 .883 3.571zM723.673 655.252a1.84 1.84 0 1 0-.884-3.572 1.84 1.84 0 0 0 .884 3.572zM362.087 698.385a.688.688 0 1 0-.33-1.336.688.688 0 0 0 .33 1.336zM346.63 647.161a.688.688 0 1 0-.332-1.336.688.688 0 0 0 .332 1.336zM406.243 636.915a.688.688 0 1 0-.332-1.336.688.688 0 0 0 .332 1.336z" fill="#EACA91"/>
  <path opacity=".7" d="M329.693 642.962a1.316 1.316 0 1 0-.63-2.555 1.316 1.316 0 0 0 .63 2.555zM421.128 719.323a1.316 1.316 0 1 0-.631-2.555 1.316 1.316 0 0 0 .631 2.555z" fill="#EACA91"/>
  <path d="M1121.37 329.017c.33-.196.46-.592.29-.885-.17-.293-.58-.371-.92-.175-.33.196-.46.593-.29.886.17.292.58.371.92.174zM1111.23 566.655c.34-.197.47-.593.3-.886-.18-.293-.59-.371-.92-.175-.34.196-.47.593-.3.886.18.293.59.371.92.175zM1203.7 383.573c.49-.285.68-.862.43-1.288-.25-.426-.85-.54-1.33-.254-.49.285-.68.862-.43 1.288.25.426.84.54 1.33.254z" fill="#EACA91"/>
  <path d="M728.113 757.308l.396 2.872 2.438 1.57-2.873.395-1.569 2.439-.396-2.873-2.438-1.569 2.872-.396 1.57-2.438zM882.347 602.589l.396 2.872 2.438 1.57-2.873.395-1.569 2.439-.396-2.873-2.438-1.569 2.872-.396 1.57-2.438zM913.501 379.576l.395 2.873 2.439 1.569-2.873.396-1.569 2.438-.396-2.872-2.438-1.57 2.872-.396 1.57-2.438zM729.121 380.806l.396 2.873 2.438 1.569-2.872.396-1.57 2.438-.396-2.872-2.438-1.57 2.873-.396 1.569-2.438zM630.106 502.969l.643 4.668 3.962 2.551-4.668.643-2.55 3.962-.643-4.668-3.963-2.55 4.668-.643 2.551-3.963z" fill="#ECCF9C"/>
  <path opacity=".4" d="M676.716 447.448l.346 2.514 2.134 1.373-2.514.346-1.373 2.134-.346-2.514-2.134-1.373 2.514-.346 1.373-2.134z" fill="#ECCF9C"/>
  <path d="M861.795 700.991l.643 4.668 3.962 2.55-4.668.644-2.55 3.962-.643-4.668-3.962-2.55 4.668-.644 2.55-3.962zM737.912 890.077l.643 4.668 3.962 2.551-4.668.643-2.55 3.962-.643-4.668-3.963-2.55 4.668-.643 2.551-3.963zM797.743 780.402l.445 3.232 2.743 1.766-3.232.445-1.765 2.743-.445-3.232-2.743-1.765 3.231-.445 1.766-2.744z" fill="#ECCF9C"/>
  <g opacity=".5" fill="#ECCF9C">
    <path d="M1250.6 505.458l1.59 1.106 1.75-.452-.95 1.544.58 1.846-1.59-1.107-1.76.452.96-1.544-.58-1.845zM1268.66 306.851l1.58 1.106 1.76-.452-.95 1.545.58 1.845-1.59-1.107-1.76.453.96-1.545-.58-1.845zM1170.26 191.522l1.58 1.106 1.76-.452-.95 1.545.58 1.845-1.59-1.106-1.76.452.96-1.545-.58-1.845zM1096.85 279.753l1.58 1.106 1.76-.452-.95 1.545.58 1.845-1.59-1.107-1.76.453.96-1.545-.58-1.845zM1117.85 381.898l2.58 1.798 2.86-.735-1.56 2.51.95 2.998-2.58-1.798-2.86.735 1.56-2.51-.95-2.998zM1175.84 425.699l1.39.968 1.54-.395-.84 1.351.51 1.615-1.39-.968-1.54.395.84-1.351-.51-1.615z"/>
    <path opacity=".4" d="M1108.95 334.709l1.39.968 1.54-.395-.84 1.351.51 1.615-1.39-.968-1.54.395.84-1.351-.51-1.615z"/>
    <path d="M1278.24 369.107l2.58 1.798 2.86-.735-1.55 2.51.94 2.998-2.58-1.798-2.85.735 1.55-2.51-.95-2.998zM1341.02 593.461l2.58 1.798 2.86-.735-1.55 2.51.94 2.998-2.58-1.798-2.85.735 1.55-2.51-.95-2.998zM1423.81 591.481l3.37 2.351 3.74-.961-2.03 3.282 1.24 3.921-3.38-2.351-3.73.961 2.03-3.282-1.24-3.921zM1323.12 427.224l1.78 1.245 1.98-.509-1.07 1.738.65 2.076-1.78-1.245-1.98.509 1.07-1.738-.65-2.076z"/>
  </g>
  <g opacity=".5" fill="#ECCF9C">
    <path d="M560.706 561.915l1.853.558 1.532-.977-.429 1.765 1.128 1.573-1.853-.558-1.532.977.429-1.765-1.128-1.573zM516.098 367.542l1.852.558 1.532-.977-.429 1.765 1.128 1.573-1.853-.558-1.531.977.428-1.765-1.127-1.573zM386.71 288.537l1.853.557 1.532-.976-.429 1.765 1.127 1.572-1.852-.557-1.532.976.429-1.765-1.128-1.572zM344.384 395.224l1.853.558 1.532-.977-.429 1.765 1.128 1.573-1.853-.558-1.532.977.429-1.766-1.128-1.572zM396.111 485.771l3.011.906 2.489-1.587-.697 2.868 1.833 2.556-3.011-.907-2.489 1.588.697-2.869-1.833-2.555zM464.853 509.363l1.621.488 1.34-.855-.375 1.545.986 1.376-1.621-.488-1.34.855.375-1.545-.986-1.376z"/>
    <path opacity=".4" d="M372.978 443.691l1.622.488 1.34-.855-.375 1.545.986 1.376-1.621-.489-1.34.855.375-1.544-.987-1.376z"/>
    <path d="M544.573 423.728l3.011.907 2.489-1.588-.697 2.869 1.832 2.555-3.011-.906-2.488 1.587.696-2.868-1.832-2.556zM810.486 599.355l3.937 1.185 3.254-2.076-.91 3.751 2.396 3.342-3.938-1.186-3.254 2.076.911-3.751-2.396-3.341zM605.298 465.006l2.084.628 1.723-1.099-.482 1.986 1.268 1.769-2.084-.628-1.723 1.099.482-1.985-1.268-1.77z"/>
  </g>
  <g opacity=".5" fill="#ECCF9C">
    <path d="M421.411 486.555l-1.856.549-.745 1.657-.609-1.712-1.805-.697 1.855-.549.745-1.657.61 1.712 1.805.697zM754.057 511.242l-1.856.55-.745 1.656-.609-1.711-1.806-.697 1.856-.549.745-1.657.609 1.711 1.806.697zM693.713 507.358l-1.855.549-.745 1.657-.61-1.711-1.805-.697 1.856-.55.745-1.656.609 1.711 1.805.697zM600.809 459.994l-3.015.892-1.211 2.692-.99-2.78-2.934-1.133 3.015-.893 1.211-2.692.991 2.781 2.933 1.133zM530.386 477.951l-1.623.481-.652 1.45-.533-1.498-1.58-.61 1.624-.48.652-1.45.533 1.498 1.579.609z"/>
    <path opacity=".4" d="M643.225 482.502l-1.624.481-.652 1.45-.533-1.498-1.58-.61 1.624-.48.652-1.45.533 1.498 1.58.609z"/>
    <path d="M510.411 550.069l-3.015.893-1.211 2.692-.99-2.781-2.933-1.133 3.015-.892 1.211-2.692.99 2.781 2.933 1.132zM246.072 568.162l-3.943 1.167-1.584 3.521-1.295-3.637-3.836-1.481 3.943-1.167 1.584-3.521 1.295 3.637 3.836 1.481zM384.907 565.581l-2.088.618-.838 1.863-.686-1.925-2.03-.784 2.087-.618.838-1.864.686 1.926 2.031.784z"/>
  </g>
  <g opacity=".5" fill="#ECCF9C">
    <path d="M904.096 437.461l1.587 1.106 1.76-.452-.957 1.545.583 1.845-1.588-1.107-1.759.453.956-1.545-.582-1.845zM922.153 238.854l1.588 1.107 1.759-.452-.956 1.544.582 1.845-1.587-1.106-1.76.452.957-1.544-.583-1.846zM823.754 123.525l1.588 1.107 1.759-.452-.956 1.544.582 1.845-1.587-1.106-1.759.452.956-1.544-.583-1.846zM750.345 211.756l1.588 1.107 1.759-.452-.956 1.544.582 1.845-1.587-1.106-1.759.452.956-1.544-.583-1.846zM771.347 313.901l2.58 1.798 2.859-.735-1.555 2.51.947 2.999-2.58-1.798-2.858.734 1.554-2.509-.947-2.999zM829.339 357.703l1.389.968 1.539-.396-.837 1.352.51 1.614-1.389-.968-1.539.396.836-1.352-.509-1.614z"/>
    <path opacity=".4" d="M762.447 266.713l1.389.968 1.539-.396-.837 1.352.51 1.614-1.389-.968-1.539.396.836-1.352-.509-1.614z"/>
    <path d="M931.741 301.11l2.579 1.798 2.859-.735-1.554 2.51.947 2.999-2.58-1.798-2.859.734 1.554-2.509-.946-2.999zM937.653 530.374l2.579 1.798 2.859-.735-1.554 2.51.947 2.998-2.58-1.798-2.859.735 1.554-2.509-.946-2.999zM976.616 359.228l1.786 1.245 1.979-.509-1.076 1.737.655 2.076-1.785-1.245-1.98.509 1.076-1.737-.655-2.076z"/>
  </g>
  <g opacity=".5" fill="#ECCF9C">
    <path d="M1200.21 617.202l1.68-.959.35-1.783.99 1.527 1.91.266-1.68.959-.35 1.783-.98-1.527-1.92-.266zM952.258 498.218l1.681-.959.346-1.783.985 1.527 1.916.265-1.68.959-.347 1.783-.984-1.526-1.917-.266zM805.859 537.588l1.681-.958.347-1.784.984 1.527 1.917.266-1.681.959-.347 1.783-.984-1.527-1.917-.266zM917.05 708.485l1.681-.959.346-1.783.985 1.527 1.916.265-1.68.959-.347 1.783-.985-1.526-1.916-.266zM952.717 610.829l2.731-1.558.564-2.897 1.599 2.48 3.115.433-2.731 1.558-.564 2.897-1.599-2.481-3.115-.432zM1019.77 633.059l1.47-.839.3-1.56.86 1.336 1.68.233-1.47.839-.31 1.56-.86-1.336-1.67-.233z"/>
    <path opacity=".4" d="M908.869 654.421l1.471-.839.303-1.56.862 1.336 1.677.233-1.471.839-.303 1.56-.862-1.336-1.677-.233z"/>
    <path d="M1014.19 473.905l2.73-1.558.57-2.897 1.6 2.48 3.11.432-2.73 1.559-.56 2.897-1.6-2.481-3.12-.432zM1240.54 624.801l2.73-1.558.56-2.897 1.6 2.48 3.12.432-2.73 1.559-.57 2.897-1.6-2.481-3.11-.432zM1447.93 687.071l3.57-2.038.74-3.789 2.09 3.244 4.07.565-3.57 2.038-.74 3.789-2.09-3.244-4.07-.565zM1084.36 500.694l1.89-1.079.39-2.006 1.1 1.718 2.16.299-1.89 1.079-.39 2.006-1.11-1.718-2.15-.299z"/>
  </g>
  <g opacity=".5" fill="#ECCF9C">
    <path d="M684.644 856.025l-1.492 1.231-.038 1.816-1.23-1.337-1.934.065 1.492-1.231.038-1.817 1.23 1.337 1.934-.064zM949.242 931.038l-1.493 1.231-.038 1.816-1.23-1.337-1.934.065 1.493-1.231.038-1.817 1.23 1.337 1.934-.064zM1086.8 867.307l-1.5 1.231-.03 1.816-1.23-1.336-1.94.064 1.49-1.231.04-1.816 1.23 1.336 1.94-.064zM948.121 717.846l-1.493 1.231-.038 1.816-1.23-1.336-1.934.064 1.493-1.231.038-1.816 1.23 1.337 1.934-.065zM929.607 820.15l-2.426 2-.062 2.952-1.998-2.173-3.143.105 2.426-2 .062-2.952 1.998 2.173 3.143-.105zM859.755 809.664l-1.306 1.077-.034 1.589-1.076-1.169-1.692.056 1.306-1.077.033-1.589 1.077 1.169 1.692-.056z"/>
    <path opacity=".4" d="M965.391 769.726l-1.307 1.078-.033 1.589-1.076-1.17-1.693.057 1.307-1.078.033-1.589 1.076 1.17 1.693-.057z"/>
    <path d="M892.352 965.544l-2.426 2.001-.062 2.951-1.998-2.172-3.143.105 2.426-2.001.062-2.951 1.998 2.172 3.143-.105zM643.614 855.405l-2.426 2-.062 2.952-1.999-2.172-3.143.104 2.426-2 .062-2.952 1.999 2.173 3.143-.105zM633.358 1003.87l-3.172 2.62-.081 3.86-2.614-2.84-4.109.13 3.172-2.61.081-3.86 2.614 2.84 4.109-.14zM818.654 951.097l-1.68 1.385-.043 2.043-1.383-1.504-2.176.073 1.679-1.385.043-2.043 1.384 1.503 2.176-.072z"/>
  </g>
  <path d="M1144.53 601.926l2.83-.609 1.39-2.549.61 2.835 2.55 1.382-2.84.61-1.38 2.549-.61-2.835-2.55-1.383zM958.947 287.242l2.835-.61 1.383-2.549.61 2.835 2.548 1.383-2.834.609-1.383 2.549-.61-2.835-2.549-1.382zM734.229 272.858l2.835-.609 1.382-2.549.61 2.835 2.549 1.382-2.835.61-1.383 2.549-.609-2.835-2.549-1.383zM749.249 456.629l2.835-.61 1.382-2.548.61 2.835 2.549 1.382-2.835.61-1.383 2.549-.609-2.835-2.549-1.383zM878.477 546.229l4.607-.991 2.247-4.142.99 4.607 4.142 2.246-4.606.991-2.247 4.142-.991-4.607-4.142-2.246zM1141.26 667.011l2.48-.533 1.21-2.23.54 2.48 2.23 1.21-2.48.533-1.21 2.231-.54-2.481-2.23-1.21z" fill="#ECCF9C"/>
  <path opacity=".4" d="M819.627 503.903l2.48-.534 1.21-2.23.534 2.481 2.23 1.209-2.481.534-1.209 2.23-.534-2.48-2.23-1.21z" fill="#ECCF9C"/>
  <path d="M1034.32 345.584l4.61-.991 2.24-4.142 1 4.607 4.14 2.247-4.61.99-2.25 4.142-.99-4.606-4.14-2.247zM1280.88 594.59l4.6-.991 2.25-4.142.99 4.607 4.14 2.247-4.61.99-2.24 4.142-.99-4.606-4.14-2.247zM1421.02 424.627l6.02-1.295 2.94-5.417 1.3 6.024 5.41 2.938-6.02 1.296-2.94 5.416-1.29-6.024-5.42-2.938zM1142.59 358.305l3.19-.685 1.56-2.868.68 3.189 2.87 1.556-3.19.685-1.55 2.868-.69-3.189-2.87-1.556zM769.939 791.79l-.304 1.42.88 1.155-1.42-.305-1.154.88.304-1.419-.88-1.155 1.42.304 1.154-.88zM889.45 728.626l-.304 1.419.879 1.155-1.419-.304-1.155.879.304-1.419-.879-1.155 1.419.304 1.155-.879zM972.298 655.689l-.304 1.419.879 1.155-1.419-.304-1.155.879.304-1.419-.879-1.155 1.419.304 1.155-.879zM885.323 624.787l-.304 1.419.88 1.155-1.42-.304-1.155.88.305-1.42-.88-1.155 1.419.305 1.155-.88zM804.307 718.062l-.266 1.242.769 1.01-1.241-.266-1.011.77.266-1.242-.769-1.011 1.242.266 1.01-.769z" fill="#ECCF9C"/>
  <path opacity=".4" d="M849.283 647.199l-.266 1.242.77 1.011-1.242-.267-1.011.77.266-1.242-.769-1.01 1.242.266 1.01-.77z" fill="#ECCF9C"/>
  <path d="M850.7 760.92l-.494 2.306 1.429 1.877-2.306-.494-1.877 1.429.494-2.307-1.429-1.876 2.307.494 1.876-1.429zM713.116 839.118l-.494 2.306 1.429 1.877-2.307-.494-1.876 1.429.494-2.307-1.429-1.876 2.306.494 1.877-1.429zM761.907 938.013l-.647 3.017 1.869 2.454-3.016-.647-2.454 1.869.646-3.016-1.869-2.454 3.017.646 2.454-1.869zM766.012 832.143l-.342 1.596.989 1.3-1.597-.343-1.299.99.342-1.597-.989-1.299 1.597.342 1.299-.989zM228.197 327.593l-1.331 1.815.494 2.118-1.791-1.234-2.176.575 1.33-1.815-.493-2.119 1.791 1.235 2.176-.575zM460.728 361.661l-1.331 1.816.493 2.118-1.791-1.234-2.176.575 1.331-1.816-.494-2.118 1.791 1.234 2.177-.575zM598.032 252.121l-1.331 1.815.493 2.118-1.791-1.234-2.176.575 1.331-1.815-.494-2.119 1.791 1.234 2.177-.574zM496.097 159.323l-1.331 1.815.494 2.119-1.792-1.234-2.176.574 1.331-1.815-.493-2.118 1.791 1.234 2.176-.575zM375.872 177.776l-2.162 2.95.802 3.442-2.911-2.005-3.536.933 2.162-2.949-.801-3.443 2.91 2.006 3.536-.934zM323.293 243.872l-1.165 1.589.432 1.853-1.567-1.08-1.904.503 1.164-1.588-.432-1.854 1.568 1.08 1.904-.503z" fill="#ECCF9C"/>
  <path opacity=".4" d="M431.397 170.205l-1.164 1.588.431 1.854-1.567-1.08-1.904.503 1.165-1.588-.432-1.854 1.567 1.08 1.904-.503z" fill="#ECCF9C"/>
  <path d="M387.518 369.093l-2.162 2.949.801 3.443-2.91-2.006-3.536.934 2.162-2.949-.802-3.443 2.911 2.006 3.536-.934zM123.695 527.859l-2.828 3.857 1.049 4.502-3.807-2.623-4.624 1.221 2.828-3.857-1.048-4.501 3.806 2.622 4.624-1.221zM318.424 418.699l-1.497 2.042.555 2.383-2.015-1.388-2.449.647 1.498-2.042-.555-2.384 2.015 1.389 2.448-.647z" fill="#ECCF9C"/>
  <path opacity=".6" d="M544.733 658.665l.816 1.601 1.747.422-1.601.816-.422 1.747-.817-1.601-1.746-.422 1.6-.816.423-1.747zM564.961 703.103l2.309-2.135-.106-2.95 2.119 2.055 3.131-.283-2.308 2.135.106 2.95-2.119-2.055-3.132.283zM620.157 655.824l1.243-1.149-.057-1.589 1.141 1.107 1.686-.153-1.243 1.15.057 1.588-1.141-1.106-1.686.152zM578.473 681.696l-.467 1.878 1.049 1.482-1.783-.342-1.517 1.202.468-1.878-1.05-1.482 1.784.343 1.516-1.203zM626.325 583.413l-.409 1.643.918 1.297-1.561-.3-1.326 1.052.409-1.643-.919-1.297 1.561.3 1.327-1.052zM678.352 637.201l-.76 3.051 1.706 2.409-2.899-.557-2.464 1.954.76-3.051-1.706-2.409 2.899.557 2.464-1.954zM628.069 753.235l-.526 2.113 1.181 1.667-2.007-.385-1.706 1.352.526-2.112-1.181-1.668 2.007.386 1.706-1.353zM460.047 651.333l1.446 3.36 3.373 1.054-3.204 1.492-.989 3.521-1.445-3.36-3.374-1.054 3.205-1.492.988-3.521zM258.68 693.847l3.273 1.633 3.257-1.372-1.484 3.208 1.517 3.328-3.272-1.634-3.258 1.372 1.485-3.207-1.518-3.328z" fill="#ECCF9C"/>
  <g opacity=".6" fill="#ECCF9C">
    <path d="M963.258 456.271l2.826.652 2.334-1.721-.652 2.825 1.721 2.334-2.826-.651-2.333 1.72.651-2.825-1.721-2.334zM895.024 156.291l2.826.652 2.334-1.721-.652 2.825 1.721 2.334-2.825-.651-2.334 1.721.651-2.826-1.721-2.334zM697.664 47.875l2.825.651 2.334-1.72-.651 2.825 1.721 2.334-2.826-.652-2.334 1.721.652-2.826-1.721-2.333zM633.251 220.642l2.825.651 2.334-1.721-.651 2.826 1.72 2.334-2.825-.652-2.334 1.721.651-2.825-1.72-2.334zM712.222 356.626l4.591 1.058 3.793-2.796-1.059 4.591 2.797 3.793-4.592-1.059-3.793 2.797 1.059-4.592-2.796-3.792zM817.056 385.344l2.472.57 2.042-1.506-.57 2.473 1.506 2.042-2.472-.57-2.042 1.505.57-2.472-1.506-2.042z"/>
    <path opacity=".4" d="M676.904 293.32l2.472.57 2.042-1.506-.57 2.472 1.506 2.042-2.472-.57-2.042 1.506.57-2.472-1.506-2.042z"/>
    <path d="M938.501 241.112l4.592 1.059 3.792-2.797-1.058 4.592 2.796 3.793-4.591-1.059-3.793 2.796 1.059-4.591-2.797-3.793zM1009.35 584.587l4.6 1.059 3.79-2.796-1.06 4.591 2.8 3.793-4.59-1.059-3.8 2.797 1.06-4.592-2.8-3.793zM1255.08 476.835l6 1.385 4.96-3.657-1.38 6.004 3.65 4.96-6-1.385-4.96 3.657 1.38-6.004-3.65-4.96zM1031.13 298.593l3.18.733 2.63-1.936-.73 3.178 1.93 2.626-3.18-.733-2.62 1.936.73-3.179-1.94-2.625z"/>
  </g>
  <g opacity=".5" fill="#ECCF9C">
    <path d="M156.496 291.043l-.966 1.515.522 1.72-1.515-.966-1.72.522.966-1.515-.522-1.72 1.515.966 1.72-.522zM345.851 313.293l-.965 1.516.522 1.719-1.516-.965-1.72.522.966-1.516-.522-1.719 1.516.965 1.719-.522zM450.041 220.457l-.966 1.515.522 1.72-1.515-.966-1.72.522.966-1.515-.522-1.72 1.515.966 1.72-.522zM362.459 147.062l-.966 1.515.522 1.72-1.515-.966-1.72.522.966-1.515-.522-1.72 1.515.966 1.72-.522zM266.675 165.037l-1.569 2.463.848 2.794-2.463-1.569-2.794.849 1.569-2.463-.848-2.795 2.463 1.569 2.794-.848zM228.195 220.326l-.844 1.326.456 1.505-1.326-.845-1.504.457.844-1.326-.456-1.505 1.326.845 1.504-.457z"/>
    <path opacity=".4" d="M310.969 157.513l-.845 1.326.457 1.505-1.326-.845-1.505.456.845-1.326-.457-1.504 1.327.845 1.504-.457z"/>
    <path d="M287.302 321.129l-1.569 2.463.848 2.794-2.462-1.569-2.795.848 1.569-2.463-.848-2.794 2.463 1.569 2.794-.848zM70.135 321.434l-1.569 2.462.849 2.795-2.463-1.569-2.795.848 1.57-2.463-.849-2.794 2.463 1.569 2.794-.848zM84.066 457.244l-2.051 3.22 1.109 3.654-3.22-2.051-3.655 1.109 2.052-3.221-1.11-3.654 3.221 2.052 3.654-1.109zM234.547 363.337l-1.086 1.705.587 1.934-1.705-1.086-1.935.588 1.087-1.706-.588-1.934 1.705 1.086 1.935-.587z"/>
  </g>
</svg>