<svg width="850" height="640" viewBox="0 0 850 640" fill="none" xmlns="http://www.w3.org/2000/svg">
<path d="M9.06328 195.008H146.606V211.449H9.06328C6.84954 211.449 4.72647 210.584 3.16112 209.045C1.59577 207.506 0.716359 205.419 0.716359 203.242V203.242C0.712531 202.162 0.925613 201.092 1.34337 200.093C1.76113 199.094 2.37535 198.186 3.15082 197.421C3.92628 196.656 4.84773 196.049 5.86232 195.635C6.87692 195.221 7.9647 195.008 9.06328 195.008V195.008Z" fill="#08151B"/>
<path d="M148.809 105.006L148.845 68.7073C148.845 64.0467 153.113 60.7585 157.236 62.2739C181.273 70.9589 210.254 76.1414 239.767 67.4993C274.041 57.4561 285.202 35.74 315.725 31.83C335.793 29.2567 363.218 34.5177 398.562 64.7115C417.044 22.9448 458.757 -2.54546 501.917 1.00002C539.725 4.10947 573.171 29.0851 588.694 65.5121C604.69 47.6417 628 27.9485 654.968 29.3996C685.898 31.058 697.538 59.2146 733.071 69.5293C750.834 74.676 776.485 75.9627 812.127 59.958C817.674 57.4704 823.76 61.8522 823.76 68.2999L823.724 105.356L148.809 105.006Z" fill="#E8D7A5"/>
<path d="M495.627 85.0049C512.285 64.6113 514.655 41.101 507.479 31.787C501.662 24.2028 488.065 24.1957 482.474 31.787C475.654 41.0367 478.788 64.1753 495.627 85.0049Z" fill="#C96928"/>
<path d="M466.108 85.3266C465.381 62.5384 454.474 44.811 445.386 41.9017C437.955 39.5285 429.892 46.4121 430.524 54.5825C431.302 64.5398 445.219 79.2221 466.108 85.3266Z" fill="#C96928"/>
<path d="M522.813 85.8557C543.055 79.7369 556.71 64.4113 557.451 54.3181C558.055 46.1191 550.246 39.4285 543.062 42.0089C534.301 45.147 524.013 62.9316 522.813 85.8557Z" fill="#C96928"/>
<path d="M363.894 76.2557C350.858 57.6062 331.67 47.9491 322.058 49.8076C314.235 51.3373 310.883 60.8872 315.878 67.3992C321.971 75.3622 342.206 81.0236 363.894 76.2557Z" fill="#C96928"/>
<path d="M611.466 76.084C632.799 80.5087 653.07 73.8395 659.01 65.5262C663.845 58.7569 660.348 49.2642 652.568 48.0419C643.08 46.555 624.547 56.9341 611.466 76.084Z" fill="#C96928"/>
<path d="M315.994 84.0184C304.623 71.6521 289.092 64.4182 281.821 64.94C275.874 65.3689 273.933 71.0374 278.244 75.3834C283.501 80.7017 299.54 85.5338 315.994 84.0184Z" fill="#C96928"/>
<path d="M658.538 82.6389C673.239 84.3616 688.028 79.7796 692.841 74.8116C696.768 70.7586 695.023 65.469 689.628 65.0616C683.048 64.5684 669.204 71.2018 658.538 82.6389Z" fill="#C96928"/>
<path d="M272.726 80.8662C260.867 92.196 226.09 93.9402 207.121 91.3239C180.408 87.6426 162.282 70.6944 158.901 79.9941C157.323 84.3545 161.918 89.6656 161.918 105.349" stroke="#C96928" stroke-width="3" stroke-miterlimit="10"/>
<path d="M695.968 82.0385C707.827 92.6535 742.603 94.2904 761.572 91.8386C788.286 88.386 807.219 71.5592 809.422 80.666C810.214 83.9327 807.132 90.6734 807.132 105.349" stroke="#C96928" stroke-width="3" stroke-miterlimit="10"/>
<path d="M824 171H149V640H824V171Z" fill="#E7988C"/>
<path d="M239.55 332H266.494C283.342 332.011 299.496 338.539 311.405 350.147C323.313 361.755 330.002 377.495 330 393.905V634H176V393.905C175.999 385.776 177.642 377.726 180.835 370.216C184.029 362.705 188.71 355.881 194.611 350.132C200.512 344.383 207.518 339.823 215.229 336.712C222.94 333.601 231.204 332 239.55 332V332Z" fill="#C96928" stroke="#0C161C" stroke-width="11" stroke-miterlimit="10"/>
<path d="M316 396H189V457H316V396Z" fill="#08151B" stroke="#E8D7A5" stroke-width="2" stroke-miterlimit="10"/>
<path d="M251.655 357.863L202.242 395.526" stroke="#E8D7A5" stroke-width="2" stroke-miterlimit="10"/>
<path d="M253.72 357.863L303.132 395.526" stroke="#E8D7A5" stroke-width="2" stroke-miterlimit="10"/>
<path d="M252.927 361.537C254.806 361.537 256.33 359.892 256.33 357.863C256.33 355.833 254.806 354.188 252.927 354.188C251.048 354.188 249.524 355.833 249.524 357.863C249.524 359.892 251.048 361.537 252.927 361.537Z" fill="#08151B" stroke="#E8D7A5" stroke-width="2" stroke-miterlimit="10"/>
<path d="M225.967 559.955H188.093V620.736H225.967V559.955Z" fill="#E8D7A5"/>
<path d="M270.682 559.955H232.809V620.736H270.682V559.955Z" fill="#E8D7A5"/>
<path d="M315.398 559.955H277.524V620.736H315.398V559.955Z" fill="#E8D7A5"/>
<path d="M225.967 492.055H188.093V552.835H225.967V492.055Z" fill="#E8D7A5"/>
<path d="M270.69 492.055H232.816V552.835H270.69V492.055Z" fill="#E8D7A5"/>
<path d="M315.405 492.055H277.531V552.835H315.405V492.055Z" fill="#E8D7A5"/>
<path d="M211.557 410.362V408.4H202.359V421H204.699V416.176H210.783V414.196H204.699V410.362H211.557ZM216.16 419.038V415.564H222.244V413.638H216.16V410.362H223.018V408.4H213.82V421H223.27V419.038H216.16ZM234.807 414.448C235.779 413.926 236.427 412.972 236.427 411.676C236.427 409.678 234.807 408.4 231.783 408.4H225.879V421H232.143C235.383 421 237.075 419.74 237.075 417.58C237.075 415.942 236.157 414.88 234.807 414.448ZM231.531 410.236C233.151 410.236 234.069 410.812 234.069 411.982C234.069 413.134 233.151 413.71 231.531 413.71H228.219V410.236H231.531ZM231.999 419.164H228.219V415.528H231.999C233.763 415.528 234.717 416.086 234.717 417.346C234.717 418.606 233.763 419.164 231.999 419.164ZM250.336 421L247.438 416.86C249.148 416.194 250.12 414.79 250.12 412.882C250.12 410.092 248.068 408.4 244.756 408.4H239.572V421H241.912V417.328H244.756C244.918 417.328 245.08 417.328 245.242 417.31L247.816 421H250.336ZM247.762 412.882C247.762 414.466 246.7 415.402 244.648 415.402H241.912V410.38H244.648C246.7 410.38 247.762 411.298 247.762 412.882ZM258.156 421.18C261.594 421.18 263.664 419.182 263.664 415.51V408.4H261.36V415.42C261.36 418.012 260.208 419.128 258.174 419.128C256.14 419.128 254.97 418.012 254.97 415.42V408.4H252.63V415.51C252.63 419.182 254.7 421.18 258.156 421.18ZM276.109 421H278.557L272.869 408.4H270.565L264.895 421H267.307L268.549 418.084H274.849L276.109 421ZM269.341 416.248L271.699 410.74L274.075 416.248H269.341ZM290.924 421L288.026 416.86C289.736 416.194 290.708 414.79 290.708 412.882C290.708 410.092 288.656 408.4 285.344 408.4H280.16V421H282.5V417.328H285.344C285.506 417.328 285.668 417.328 285.83 417.31L288.404 421H290.924ZM288.35 412.882C288.35 414.466 287.288 415.402 285.236 415.402H282.5V410.38H285.236C287.288 410.38 288.35 411.298 288.35 412.882ZM303.518 408.4H301.214L297.488 414.538L293.798 408.4H291.296L296.246 416.59V421H298.586V416.554L303.518 408.4ZM202.922 441.02L206.288 437.816C208.034 436.178 208.376 435.062 208.376 433.838C208.376 431.606 206.612 430.22 203.876 430.22C201.806 430.22 200.06 430.994 199.088 432.308L200.726 433.568C201.428 432.668 202.454 432.254 203.678 432.254C205.226 432.254 206.018 432.92 206.018 434.072C206.018 434.774 205.802 435.512 204.578 436.682L199.574 441.434V443H208.862V441.02H202.922ZM214.155 435.278H212.949L213.219 432.362H218.637V430.4H211.239L210.591 437.258H213.633C216.243 437.258 217.017 438.014 217.017 439.22C217.017 440.408 216.027 441.146 214.353 441.146C212.931 441.146 211.563 440.66 210.645 439.904L209.655 441.722C210.807 442.64 212.607 443.18 214.389 443.18C217.773 443.18 219.375 441.344 219.375 439.13C219.375 436.898 217.881 435.278 214.155 435.278ZM225.897 438.932H230.847V437.06H225.897V438.932ZM240.786 441.02L244.152 437.816C245.898 436.178 246.24 435.062 246.24 433.838C246.24 431.606 244.476 430.22 241.74 430.22C239.67 430.22 237.924 430.994 236.952 432.308L238.59 433.568C239.292 432.668 240.318 432.254 241.542 432.254C243.09 432.254 243.882 432.92 243.882 434.072C243.882 434.774 243.666 435.512 242.442 436.682L237.438 441.434V443H246.726V441.02H240.786ZM247.735 430.4V434.522H249.913V432.38H254.863L250.129 443H252.631L257.527 431.966V430.4H247.735ZM259.5 440.138C258.672 440.138 258.042 440.732 258.042 441.632C258.042 442.28 258.384 442.748 258.888 442.964L258.168 445.718H259.626L260.544 443.18C260.868 442.352 260.958 442.028 260.958 441.632C260.958 440.75 260.346 440.138 259.5 440.138ZM270.633 441.02L273.999 437.816C275.745 436.178 276.087 435.062 276.087 433.838C276.087 431.606 274.323 430.22 271.587 430.22C269.517 430.22 267.771 430.994 266.799 432.308L268.437 433.568C269.139 432.668 270.165 432.254 271.389 432.254C272.937 432.254 273.729 432.92 273.729 434.072C273.729 434.774 273.513 435.512 272.289 436.682L267.285 441.434V443H276.573V441.02H270.633ZM283.127 443.18C286.133 443.18 288.401 440.84 288.401 436.7C288.401 432.56 286.133 430.22 283.127 430.22C280.139 430.22 277.871 432.56 277.871 436.7C277.871 440.84 280.139 443.18 283.127 443.18ZM283.127 441.146C281.417 441.146 280.229 439.742 280.229 436.7C280.229 433.658 281.417 432.254 283.127 432.254C284.855 432.254 286.043 433.658 286.043 436.7C286.043 439.742 284.855 441.146 283.127 441.146ZM293.081 441.02L296.447 437.816C298.193 436.178 298.535 435.062 298.535 433.838C298.535 431.606 296.771 430.22 294.035 430.22C291.965 430.22 290.219 430.994 289.247 432.308L290.885 433.568C291.587 432.668 292.613 432.254 293.837 432.254C295.385 432.254 296.177 432.92 296.177 434.072C296.177 434.774 295.961 435.512 294.737 436.682L289.733 441.434V443H299.021V441.02H293.081ZM303.557 441.02L306.923 437.816C308.669 436.178 309.011 435.062 309.011 433.838C309.011 431.606 307.247 430.22 304.511 430.22C302.441 430.22 300.695 430.994 299.723 432.308L301.361 433.568C302.063 432.668 303.089 432.254 304.313 432.254C305.861 432.254 306.653 432.92 306.653 434.072C306.653 434.774 306.437 435.512 305.213 436.682L300.209 441.434V443H309.497V441.02H303.557Z" fill="#E8D7A5"/>
<path d="M823.803 170.046L848.779 253.194H112.978L148.139 170.811L170.09 170.847L823.803 170.046Z" fill="#C9CF76"/>
<path d="M728.658 268.248L728.156 253.194H691.133L690.791 268.012C690.878 269.726 691.603 271.349 692.827 272.572C701.188 281.543 717.468 281.636 726.469 273.044C727.137 272.425 727.674 271.683 728.05 270.86C728.425 270.037 728.632 269.149 728.658 268.248V268.248Z" fill="#C7D8C7"/>
<path d="M690.849 265.646L691.133 253.194H650.867L650.714 265.01C650.532 268.812 652.859 272.458 656.582 274.76C664.965 279.935 677.529 279.763 685.941 274.259C689.089 272.201 690.973 268.927 690.849 265.646Z" fill="#B7B75C"/>
<path d="M650.678 267.89L650.867 253.194H612.622V267.64C612.624 269.318 613.273 270.933 614.44 272.158C622.794 281.129 639.081 281.229 648.075 272.637C649.449 271.3 650.648 269.649 650.678 267.89Z" fill="#C7D8C7"/>
<path d="M612.557 266.01L612.637 253.194H572.546V265.832C572.357 269.634 574.727 272.744 578.486 275.045C586.869 280.221 599.433 280.049 607.845 274.545C609.313 273.643 610.519 272.383 611.344 270.888C612.17 269.392 612.588 267.712 612.557 266.01V266.01Z" fill="#B7B75C"/>
<path d="M572.546 267.847V253.194H534.737L534.476 267.597C534.564 269.314 535.294 270.938 536.526 272.158C544.887 281.129 561.167 281.222 570.168 272.637C571.572 271.411 572.427 269.69 572.546 267.847V267.847Z" fill="#C7D8C7"/>
<path d="M534.65 265.832L534.788 253.165H494.522L494.646 265.038C494.672 266.999 495.21 268.921 496.21 270.618C497.21 272.316 498.636 273.732 500.353 274.731C508.736 279.906 521.308 279.735 529.713 274.231C532.832 272.201 534.737 269.113 534.65 265.832Z" fill="#B7B75C"/>
<path d="M494.609 268.555L494.493 253.194H457.455L456.852 268.376C456.9 270.061 457.587 271.667 458.778 272.88C467.133 281.851 483.419 281.944 492.421 273.351C493.089 272.733 493.626 271.991 494.002 271.168C494.377 270.345 494.584 269.457 494.609 268.555Z" fill="#C7D8C7"/>
<path d="M456.939 266.446L457.455 253.194H417.124L416.979 265.639C416.797 269.441 419.015 273.173 422.737 275.474C431.12 280.65 443.692 280.478 452.097 274.974C455.245 272.923 457.056 269.727 456.939 266.446Z" fill="#B7B75C"/>
<path d="M416.957 268.126L417.124 253.194H379.243L379.054 267.94C379.055 269.62 379.705 271.238 380.871 272.465C389.226 281.436 405.512 281.529 414.514 272.937C415.929 271.703 416.804 269.98 416.957 268.126Z" fill="#C7D8C7"/>
<path d="M379.09 265.717L379.243 253.194H339.304L339.064 265.388C338.883 269.184 341.282 272.458 345.005 274.76C353.388 279.935 365.952 279.763 374.364 274.259C375.836 273.359 377.046 272.099 377.874 270.602C378.703 269.104 379.122 267.421 379.09 265.717V265.717Z" fill="#B7B75C"/>
<path d="M339.064 268.283L339.341 253.194H300.805L301.016 267.919C301.016 269.599 301.666 271.216 302.834 272.444C311.188 281.415 327.475 281.507 336.476 272.923C337.843 271.586 338.999 270.042 339.064 268.283Z" fill="#C7D8C7"/>
<path d="M300.958 265.939L300.776 253.194H260.903L260.983 265.16C260.794 268.955 262.83 272.637 266.552 274.938C274.936 280.114 287.5 279.942 295.912 274.438C299.075 272.379 301.082 269.22 300.958 265.939Z" fill="#B7B75C"/>
<path d="M261.056 267.569L260.903 253.194H223.095L222.876 267.433C222.884 269.111 223.536 270.724 224.701 271.95C233.056 280.928 249.342 281.021 258.336 272.429C259.747 271.064 261.027 269.327 261.056 267.569Z" fill="#C7D8C7"/>
<path d="M222.884 265.832L223.102 253.165H182.538L182.436 264.988C182.254 268.784 184.53 272.429 188.253 274.731C196.636 279.906 209.207 279.735 217.612 274.231C220.768 272.201 223.007 269.155 222.884 265.832Z" fill="#B7B75C"/>
<path d="M182.414 267.833L182.538 253.194H144.795L144.62 267.597C144.681 269.304 145.383 270.929 146.591 272.158C154.945 281.129 171.224 281.229 180.225 272.637C180.895 272.018 181.433 271.275 181.809 270.45C182.185 269.626 182.39 268.736 182.414 267.833V267.833Z" fill="#C7D8C7"/>
<path d="M144.65 265.524L144.795 253.194H112.978C112.978 253.194 109.691 267.075 115.443 272.279C119.434 275.889 132.427 279.313 140.258 273.916C141.645 272.99 142.774 271.737 143.542 270.27C144.309 268.804 144.69 267.172 144.65 265.524Z" fill="#B7B75C"/>
<path d="M211.592 170.811L182.538 253.194H144.795L176.256 170.811H211.592Z" fill="#D8ECD8"/>
<path d="M260.903 253.194L278.164 170.811H241.998L223.102 253.165L260.903 253.194Z" fill="#D8ECD8"/>
<path d="M300.776 253.194L315.143 170.811H353.766L339.312 253.194H300.776Z" fill="#D8ECD8"/>
<path d="M379.243 253.194L394.039 170.811H427.732L417.124 253.194H379.243Z" fill="#D8ECD8"/>
<path d="M494.493 253.194L500.208 171.212L463.89 170.811L457.455 253.194H494.493Z" fill="#D8ECD8"/>
<path d="M534.751 253.165L537.253 170.304H575.119L572.545 253.194L534.751 253.165Z" fill="#D8ECD8"/>
<path d="M650.867 253.194L647.973 169.939H610.994L612.637 253.194H650.867Z" fill="#D8ECD8"/>
<path d="M728.156 253.194L717.831 169.939H683.316L691.133 253.194H728.156Z" fill="#D8ECD8"/>
<path d="M849.36 262.136L848.779 253.194H806.455V265.581C806.266 269.377 808.571 273.073 812.272 275.367C820.655 280.543 835.597 280.778 844.009 275.303C845.503 274.269 846.702 272.876 847.492 271.257C848.951 268.442 849.597 265.287 849.36 262.136V262.136Z" fill="#B7B75C"/>
<path d="M806.455 268.205V253.194H768.225L768.029 268.062C768.108 269.773 768.825 271.396 770.043 272.622C778.397 281.593 794.684 281.686 803.685 273.101C805.081 271.765 806.426 269.963 806.455 268.205Z" fill="#C7D8C7"/>
<path d="M768.043 266.182L768.203 253.194H728.134L728.403 265.438C728.221 269.241 730.257 272.923 733.98 275.217C742.356 280.392 754.927 280.221 763.332 274.717C764.802 273.818 766.01 272.558 766.835 271.062C767.661 269.566 768.078 267.884 768.043 266.182V266.182Z" fill="#B7B75C"/>
<path d="M806.455 253.194L789.333 169.939H756.454L768.226 253.194H806.455Z" fill="#D8ECD8"/>
<path d="M824.007 170.811H148.809V105.005H823.789L824.007 170.811Z" fill="#E7988C"/>
<path d="M815.879 113.283H157.156V163.349H815.879V113.283Z" fill="#E8D7A5"/>
<path d="M269.158 133.575V130.299H264.16V152.727H269.41V141.849C269.41 137.271 271.93 134.919 275.92 134.919C276.298 134.919 276.676 134.961 277.138 135.045V130.047C273.4 130.047 270.67 131.223 269.158 133.575ZM284.237 126.603C286.211 126.603 287.597 125.175 287.597 123.327C287.597 121.605 286.169 120.303 284.237 120.303C282.305 120.303 280.877 121.689 280.877 123.453C280.877 125.217 282.305 126.603 284.237 126.603ZM281.591 152.727H286.841V130.299H281.591V152.727ZM300.662 153.021C306.962 153.021 310.826 150.291 310.826 146.091C310.826 137.313 296.966 141.345 296.966 136.809C296.966 135.339 298.478 134.289 301.67 134.289C303.812 134.289 305.954 134.709 308.096 135.969L310.112 131.979C308.096 130.761 304.694 130.047 301.712 130.047C295.664 130.047 291.842 132.819 291.842 137.061C291.842 146.007 305.702 141.975 305.702 146.259C305.702 147.813 304.316 148.737 300.998 148.737C298.184 148.737 295.16 147.813 293.186 146.511L291.17 150.501C293.186 151.929 296.924 153.021 300.662 153.021ZM336.431 141.639C336.431 134.625 331.643 130.047 325.091 130.047C318.413 130.047 313.499 134.835 313.499 141.513C313.499 148.191 318.371 153.021 325.889 153.021C329.753 153.021 332.903 151.761 334.919 149.367L332.105 146.133C330.509 147.771 328.535 148.569 326.015 148.569C322.109 148.569 319.379 146.469 318.749 143.193H336.347C336.389 142.689 336.431 142.059 336.431 141.639ZM325.091 134.247C328.535 134.247 331.013 136.473 331.433 139.707H318.707C319.211 136.431 321.689 134.247 325.091 134.247ZM365.094 147.771C364.296 148.401 363.246 148.695 362.154 148.695C360.138 148.695 359.046 147.519 359.046 145.335V134.667H365.052V130.467H359.046V125.343H353.796V130.467H350.1V134.667H353.796V145.461C353.796 150.417 356.61 153.021 361.524 153.021C363.414 153.021 365.304 152.517 366.564 151.509L365.094 147.771ZM380.224 153.021C387.196 153.021 392.194 148.233 392.194 141.513C392.194 134.793 387.196 130.047 380.224 130.047C373.336 130.047 368.296 134.793 368.296 141.513C368.296 148.233 373.336 153.021 380.224 153.021ZM380.224 148.527C376.444 148.527 373.588 145.797 373.588 141.513C373.588 137.229 376.444 134.499 380.224 134.499C384.046 134.499 386.902 137.229 386.902 141.513C386.902 145.797 384.046 148.527 380.224 148.527ZM424.782 130.299L417.684 146.889L410.628 130.299H405.168L414.954 152.811L414.576 153.693C413.568 155.919 412.476 156.801 410.628 156.801C409.2 156.801 407.772 156.213 406.764 155.247L404.664 159.111C406.092 160.413 408.444 161.169 410.67 161.169C414.408 161.169 417.264 159.615 419.322 154.533L429.822 130.299H424.782ZM442.568 153.021C449.54 153.021 454.538 148.233 454.538 141.513C454.538 134.793 449.54 130.047 442.568 130.047C435.68 130.047 430.64 134.793 430.64 141.513C430.64 148.233 435.68 153.021 442.568 153.021ZM442.568 148.527C438.788 148.527 435.932 145.797 435.932 141.513C435.932 137.229 438.788 134.499 442.568 134.499C446.39 134.499 449.246 137.229 449.246 141.513C449.246 145.797 446.39 148.527 442.568 148.527ZM476.022 130.299V141.639C476.022 146.133 473.544 148.401 469.89 148.401C466.572 148.401 464.64 146.469 464.64 142.395V130.299H459.39V143.109C459.39 149.871 463.296 153.021 469.05 153.021C471.948 153.021 474.594 151.929 476.274 149.871V152.727H481.272V130.299H476.022ZM493.144 133.575V130.299H488.146V152.727H493.396V141.849C493.396 137.271 495.916 134.919 499.906 134.919C500.284 134.919 500.662 134.961 501.124 135.045V130.047C497.386 130.047 494.656 131.223 493.144 133.575ZM529.822 130.047C526.756 130.047 524.152 131.097 522.388 133.239V130.299H517.39V160.875H522.64V149.997C524.446 152.055 526.966 153.021 529.822 153.021C536.374 153.021 541.204 148.485 541.204 141.513C541.204 134.583 536.374 130.047 529.822 130.047ZM529.234 148.527C525.454 148.527 522.556 145.797 522.556 141.513C522.556 137.229 525.454 134.499 529.234 134.499C533.014 134.499 535.87 137.229 535.87 141.513C535.87 145.797 533.014 148.527 529.234 148.527ZM556.263 153.021C563.235 153.021 568.233 148.233 568.233 141.513C568.233 134.793 563.235 130.047 556.263 130.047C549.375 130.047 544.335 134.793 544.335 141.513C544.335 148.233 549.375 153.021 556.263 153.021ZM556.263 148.527C552.483 148.527 549.627 145.797 549.627 141.513C549.627 137.229 552.483 134.499 556.263 134.499C560.085 134.499 562.941 137.229 562.941 141.513C562.941 145.797 560.085 148.527 556.263 148.527ZM585.266 147.771C584.468 148.401 583.418 148.695 582.326 148.695C580.31 148.695 579.218 147.519 579.218 145.335V134.667H585.224V130.467H579.218V125.343H573.968V130.467H570.272V134.667H573.968V145.461C573.968 150.417 576.782 153.021 581.696 153.021C583.586 153.021 585.476 152.517 586.736 151.509L585.266 147.771ZM611.4 141.639C611.4 134.625 606.612 130.047 600.06 130.047C593.382 130.047 588.468 134.835 588.468 141.513C588.468 148.191 593.34 153.021 600.858 153.021C604.722 153.021 607.872 151.761 609.888 149.367L607.074 146.133C605.478 147.771 603.504 148.569 600.984 148.569C597.078 148.569 594.348 146.469 593.718 143.193H611.316C611.358 142.689 611.4 142.059 611.4 141.639ZM600.06 134.247C603.504 134.247 605.982 136.473 606.402 139.707H593.676C594.18 136.431 596.658 134.247 600.06 134.247ZM629.169 130.047C625.893 130.047 623.163 131.139 621.441 133.197V130.299H616.443V152.727H621.693V141.387C621.693 136.893 624.213 134.625 627.951 134.625C631.311 134.625 633.285 136.557 633.285 140.547V152.727H638.535V139.875C638.535 133.113 634.545 130.047 629.169 130.047ZM657.207 147.771C656.409 148.401 655.359 148.695 654.267 148.695C652.251 148.695 651.159 147.519 651.159 145.335V134.667H657.165V130.467H651.159V125.343H645.909V130.467H642.213V134.667H645.909V145.461C645.909 150.417 648.723 153.021 653.637 153.021C655.527 153.021 657.417 152.517 658.677 151.509L657.207 147.771ZM665.642 126.603C667.616 126.603 669.002 125.175 669.002 123.327C669.002 121.605 667.574 120.303 665.642 120.303C663.71 120.303 662.282 121.689 662.282 123.453C662.282 125.217 663.71 126.603 665.642 126.603ZM662.996 152.727H668.246V130.299H662.996V152.727ZM683.704 130.047C680.092 130.047 676.606 130.971 674.212 132.819L676.27 136.641C677.95 135.255 680.554 134.415 683.074 134.415C686.812 134.415 688.66 136.221 688.66 139.287V139.623H682.864C676.06 139.623 673.54 142.563 673.54 146.301C673.54 150.207 676.774 153.021 681.898 153.021C685.258 153.021 687.694 151.929 688.954 149.997V152.727H693.91V139.581C693.91 133.113 690.172 130.047 683.704 130.047ZM682.99 149.199C680.302 149.199 678.706 147.981 678.706 146.091C678.706 144.453 679.672 143.109 683.242 143.109H688.66V145.713C687.778 148.023 685.552 149.199 682.99 149.199ZM700.648 152.727H705.898V121.563H700.648V152.727Z" fill="#08151B"/>
<path d="M794 334H376V600H794V334Z" fill="#08151B"/>
<path d="M794.312 417.488H374V429.49H794.312V417.488Z" fill="#E8D7A5"/>
<path d="M794.312 507.462H374V519.464H794.312V507.462Z" fill="#E8D7A5"/>
<path d="M794.312 327H374V601.117H794.312V327Z" stroke="#E8D7A5" stroke-width="14" stroke-miterlimit="10"/>
<path d="M499.117 487.85H402.88C395.217 487.85 389 494.577 389 502.861C389 505.399 390.905 507.457 393.246 507.457H508.751C511.099 507.457 512.997 505.399 512.997 502.861C512.997 494.577 506.787 487.85 499.117 487.85Z" fill="#ED9B21"/>
<path d="M400.975 487.957C400.975 493.326 402.008 497.665 403.258 497.665C404.509 497.665 405.534 493.268 405.534 487.85H402.88C402.243 487.85 401.607 487.885 400.975 487.957V487.957Z" fill="#C96928"/>
<path d="M413.866 497.664C415.124 497.664 416.142 493.268 416.142 487.85H411.583C411.583 493.268 412.608 497.664 413.866 497.664Z" fill="#C96928"/>
<path d="M424.474 497.664C425.732 497.664 426.757 493.268 426.757 487.85H422.184C422.184 493.268 423.217 497.664 424.474 497.664Z" fill="#C96928"/>
<path d="M435.082 497.664C436.348 497.664 437.365 493.268 437.365 487.85H432.807C432.807 493.268 433.817 497.664 435.082 497.664Z" fill="#C96928"/>
<path d="M445.698 497.664C446.956 497.664 447.974 493.268 447.974 487.85H443.415C443.415 493.268 444.44 497.664 445.698 497.664Z" fill="#C96928"/>
<path d="M456.306 497.664C457.564 497.664 458.582 493.268 458.582 487.85H454.023C454.023 493.268 455.048 497.664 456.306 497.664Z" fill="#C96928"/>
<path d="M466.914 497.664C468.172 497.664 469.197 493.268 469.197 487.85H464.639C464.639 493.268 465.657 497.664 466.914 497.664Z" fill="#C96928"/>
<path d="M477.522 497.664C478.788 497.664 479.805 493.268 479.805 487.85H475.261C475.261 493.268 476.265 497.664 477.522 497.664Z" fill="#C96928"/>
<path d="M488.138 497.664C489.395 497.664 490.413 493.268 490.413 487.85H485.854C485.854 493.268 486.894 497.664 488.138 497.664Z" fill="#C96928"/>
<path d="M498.746 497.665C499.997 497.665 501.015 493.326 501.022 487.957C500.389 487.885 499.753 487.849 499.117 487.85H496.463C496.463 493.268 497.488 497.665 498.746 497.665Z" fill="#C96928"/>
<path d="M389.043 503.497C389.131 504.549 389.606 505.534 390.38 506.266C391.154 506.998 392.173 507.426 393.246 507.472H508.75C509.824 507.427 510.844 506.998 511.619 506.266C512.394 505.535 512.871 504.55 512.96 503.497H389.043Z" fill="#C96928"/>
<path d="M768.312 491.989C762.612 478.229 747.496 468.4 729.777 468.4C712.058 468.4 696.912 478.229 691.241 491.989H768.312Z" fill="#E8D7A5"/>
<path d="M730.227 473.354C730.227 473.354 725.937 481.695 730.227 481.81C734.517 481.924 730.227 473.354 730.227 473.354Z" fill="#9B2227"/>
<path d="M722.331 471.902C722.331 471.902 714.042 475.162 717.241 478.293C720.44 481.424 722.331 471.902 722.331 471.902Z" fill="#9B2227"/>
<path d="M736.64 471.902C736.64 471.902 739.425 480.966 742.399 477.621C745.373 474.276 736.64 471.902 736.64 471.902Z" fill="#9B2227"/>
<path d="M768.304 491.989H691.183V507.543H768.304V491.989Z" fill="#F89E1B"/>
<path d="M690.797 484.941C685.65 478.143 687.242 494.691 695.785 496.907C704.329 499.123 702.184 492.032 706.808 494.248C711.432 496.464 709.658 501.339 714.639 500.452C719.619 499.566 719.263 493.804 722.818 497.793C726.374 501.782 732.43 501.367 734.917 498.679C737.404 495.992 737.767 497.793 743.453 499.566C749.139 501.339 749.502 500.009 753.065 496.907C756.628 493.804 755.908 500.481 763.026 497.793C770.144 495.105 774.761 491.145 772.275 487.157C769.788 483.168 764.8 485.827 761.245 488.929C757.689 492.032 752.934 486.32 745.976 490.702C739.388 494.841 742.42 485.384 734.946 488.486C727.472 491.588 727.472 493.361 721.786 489.816C716.1 486.27 717.234 491.581 713.679 492.024C710.123 492.468 712.53 484.941 706.837 486.713C701.144 488.486 696.839 492.882 690.797 484.941Z" fill="#C3601E"/>
<path d="M622.985 551.1C622.943 551.985 622.716 552.853 622.32 553.653C621.923 554.453 621.363 555.169 620.674 555.76C619.176 557.109 617.444 558.197 615.555 558.976V588.99C615.559 589.806 615.387 590.615 615.051 591.365C614.771 592.103 614.271 592.747 613.613 593.215C612.956 593.684 612.168 593.956 611.35 594H582.28C579.962 594 578.075 591.758 578.075 588.99V557.792C574.894 555.935 573 553.588 573 551.1C573 547.596 576.657 544.471 582.405 542.439L580.401 540.336L585.271 540.077H586.734H595.056C596.029 540.021 597.009 540 597.982 540C604.564 540 610.495 541.114 614.956 542.943C619.885 544.968 623 547.848 623 551.079" fill="#C96928"/>
<path d="M612.621 551.582C612.621 554.727 609.429 557.572 604.282 559.624V589.303C604.282 592.162 602.166 594.414 599.563 594.414H566.939C564.336 594.414 562.22 592.126 562.22 589.303V558.408C558.643 556.514 556.52 554.119 556.52 551.582C556.52 551.434 556.52 551.284 556.52 551.132C557.116 545.106 569.44 540.288 584.549 540.288C599.657 540.288 611.974 545.099 612.578 551.124C612.578 551.282 612.578 551.432 612.578 551.589" fill="#E8D7A5"/>
<path d="M577 560.843C576.968 561.548 576.792 562.239 576.482 562.876C576.173 563.513 575.735 564.083 575.196 564.552C574.027 565.626 572.676 566.493 571.203 567.113V591.004C571.205 591.656 571.071 592.301 570.809 592.901C570.594 593.486 570.208 593.996 569.699 594.369C569.19 594.742 568.581 594.962 567.946 595H545.243C543.432 595 541.965 593.216 541.965 591.011V566.169C539.482 564.685 538 562.838 538 560.843C538 558.044 540.863 555.56 545.336 553.943L543.812 552.46V552.299L547.569 552.068H548.7H555.192C555.95 552.026 556.716 552.005 557.496 552.005C562.025 551.931 566.523 552.727 570.737 554.349C574.581 555.959 576.993 558.268 576.993 560.829" fill="#C96928"/>
<path d="M569.455 560.882C569.455 563.391 566.91 565.664 562.809 567.315V590.975C562.856 592.006 562.487 593.013 561.781 593.777C561.075 594.54 560.091 594.998 559.043 595.05H533.035C531.987 594.998 531.002 594.54 530.296 593.777C529.591 593.013 529.221 592.006 529.269 590.975V566.328C526.418 564.813 524.732 562.933 524.732 560.882C524.724 560.763 524.724 560.643 524.732 560.524C525.248 555.713 535.042 551.911 547.06 551.911C559.079 551.911 568.924 555.749 569.411 560.553C569.411 560.674 569.411 560.796 569.411 560.917" fill="#E8D7A5"/>
<path d="M742.897 594C742.562 594 742.526 593.528 742.526 593.528C742.526 593.528 740.344 577.338 740.679 576.466C741.013 575.594 764.36 575.701 768.802 576.344C770.526 576.594 768.686 592.442 767.763 593.443C766.839 594.443 746.445 594.093 742.897 594Z" fill="#ED9B22"/>
<path d="M768.803 576.344C766.018 575.944 755.795 575.751 748.444 575.879C748.434 575.914 748.434 575.952 748.444 575.987C748.559 576.835 748.952 577.623 749.564 578.231C749.564 578.231 753.781 573.142 755.722 573.985C757.664 574.829 765.836 575.222 767.436 574.8C769.035 574.378 767.908 575.408 768.773 576.344C769.639 577.28 767.028 588.76 765.211 590.869C763.488 592.871 749.942 593.814 742.373 592.57C742.453 593.171 742.497 593.528 742.497 593.528C742.497 593.528 742.497 593.993 742.868 594C746.416 594.122 766.861 594.35 767.734 593.442C768.606 592.535 770.526 576.594 768.803 576.344Z" fill="#C26028"/>
<path d="M741.093 582.006C741.093 582.006 741.34 577.531 742.896 577.438C744.452 577.345 744.627 580.526 747.826 579.311C751.025 578.095 749.811 576.308 753.875 577.531C757.94 578.753 758.543 580.805 761.655 579.025C764.767 577.245 766.236 576.78 767.275 578.374C768.315 579.968 768.482 583.242 770.125 582.306C771.769 581.369 772.307 572.756 769.173 571.541C766.039 570.325 741.682 569.103 739.363 571.162C737.043 573.22 737.727 582.191 741.093 582.006Z" fill="#E7D6A4"/>
<path d="M755.075 566.394C755.075 566.394 754.348 562.72 757.882 561.247C757.882 561.247 759.336 561.305 758.231 562.205C757.125 563.106 756.049 563.285 755.751 566.165C755.453 569.046 755.075 566.394 755.075 566.394Z" fill="#78AC42"/>
<path d="M755.075 573.892C757.404 573.892 759.292 572.036 759.292 569.746C759.292 567.457 757.404 565.601 755.075 565.601C752.746 565.601 750.858 567.457 750.858 569.746C750.858 572.036 752.746 573.892 755.075 573.892Z" fill="#9B2228"/>
<path d="M676.897 593.753C676.562 593.753 676.526 593.281 676.526 593.281C676.526 593.281 674.344 577.09 674.679 576.218C675.013 575.346 698.36 575.454 702.802 576.097C704.526 576.347 702.686 592.194 701.763 593.195C700.839 594.196 680.445 593.846 676.897 593.753Z" fill="#ED9B22"/>
<path d="M702.803 576.097C700.018 575.696 689.795 575.504 682.444 575.632C682.434 575.667 682.434 575.704 682.444 575.739C682.559 576.588 682.952 577.376 683.564 577.984C683.564 577.984 687.781 572.894 689.722 573.738C691.664 574.581 699.836 574.975 701.436 574.553C703.035 574.131 701.908 575.16 702.773 576.097C703.639 577.033 701.028 588.513 699.211 590.622C697.488 592.623 683.942 593.567 676.373 592.323C676.453 592.923 676.497 593.281 676.497 593.281C676.497 593.281 676.497 593.746 676.868 593.753C680.416 593.874 701.628 594.908 702.5 594C703.373 593.092 704.526 576.347 702.803 576.097Z" fill="#C26028"/>
<path d="M675.093 581.758C675.093 581.758 675.34 577.283 676.896 577.191C678.452 577.098 678.627 580.279 681.826 579.063C685.025 577.848 683.811 576.061 687.875 577.283C691.94 578.506 692.543 580.557 695.655 578.777C698.767 576.998 700.236 576.533 701.275 578.127C702.315 579.721 702.482 582.995 704.125 582.058C705.769 581.122 706.307 572.508 703.173 571.293C700.039 570.078 675.682 568.856 673.363 570.914C671.043 572.973 671.727 581.944 675.093 581.758Z" fill="#E7D6A4"/>
<path d="M689.075 566.147C689.075 566.147 688.348 562.473 691.882 561C691.882 561 693.336 561.057 692.231 561.958C691.125 562.859 690.049 563.037 689.751 565.918C689.453 568.799 689.075 566.147 689.075 566.147Z" fill="#78AC42"/>
<path d="M689.075 573.645C691.404 573.645 693.292 571.789 693.292 569.499C693.292 567.209 691.404 565.353 689.075 565.353C686.746 565.353 684.858 567.209 684.858 569.499C684.858 571.789 686.746 573.645 689.075 573.645Z" fill="#9B2228"/>
<path d="M702.358 594.24C701.806 594.24 701.755 593.461 701.755 593.461C701.755 593.461 698.119 566.905 698.715 565.476C699.312 564.046 737.578 564.218 744.856 565.268C747.692 565.676 744.667 591.717 743.155 593.318C741.773 594.812 708.175 594.433 702.358 594.24Z" fill="#ED9B22"/>
<path d="M744.827 565.268C740.261 564.611 723.487 564.296 711.483 564.504C711.468 564.562 711.468 564.624 711.483 564.682C712.05 567.37 713.329 568.364 713.329 568.364C713.329 568.364 720.237 560.022 723.429 561.401C726.621 562.781 740.013 563.424 742.638 562.731C745.263 562.038 743.416 563.732 744.819 565.268C746.223 566.805 741.962 585.641 739.003 589.093C736.167 592.381 713.991 593.932 701.529 591.888C701.66 592.882 701.74 593.461 701.74 593.461C701.74 593.461 701.791 594.218 702.343 594.24C708.16 594.433 741.618 595.494 743 594C744.527 592.363 747.691 565.676 744.827 565.268Z" fill="#C26028"/>
<path d="M699.406 574.561C699.406 574.561 699.806 567.213 702.358 567.063C704.91 566.913 705.194 572.131 710.443 570.129C715.693 568.128 713.701 565.219 720.368 567.213C727.035 569.207 728.024 572.588 733.128 569.672C738.232 566.755 740.646 565.983 742.348 568.593C744.049 571.202 744.333 576.584 747.03 575.026C749.728 573.468 750.571 559.357 745.467 557.363C740.363 555.368 700.388 553.374 696.541 556.748C692.695 560.122 693.873 574.869 699.406 574.561Z" fill="#E7D6A4"/>
<path d="M722.338 548.949C722.338 548.949 721.088 542.916 726.941 540.5C726.941 540.5 729.304 540.593 727.508 542.08C725.712 543.567 723.923 543.845 723.451 548.577C722.978 553.31 722.338 548.949 722.338 548.949Z" fill="#78AC42"/>
<path d="M722.338 561.244C726.157 561.244 729.253 558.201 729.253 554.446C729.253 550.692 726.157 547.648 722.338 547.648C718.52 547.648 715.424 550.692 715.424 554.446C715.424 558.201 718.52 561.244 722.338 561.244Z" fill="#9B2228"/>
<path d="M637.2 377H589.547C583.73 377 579.004 382.111 579.004 388.437V396.236C578.96 397.162 579.291 398.068 579.925 398.755C580.558 399.442 581.443 399.855 582.385 399.903H582.85V410.932C582.85 414.406 585.446 417.223 588.667 417.223H638.108C641.315 417.223 643.925 414.406 643.925 410.932V399.881H644.383C645.326 399.833 646.211 399.421 646.845 398.734C647.48 398.047 647.813 397.141 647.771 396.214V388.416C647.75 382.111 643.023 377 637.2 377Z" fill="#E8D7A5"/>
<path d="M587.888 417.5H638C641.255 417.5 644 415.073 644 411.463L643.941 399.891H582V411.463C582.007 415.095 584.625 417.5 587.888 417.5Z" fill="#C96928"/>
<path d="M613.373 417.201H638.094C641.3 417.201 643.911 414.385 643.911 410.911L643.949 399.881H613.373V417.201Z" fill="#C96928"/>
<path d="M593.334 393.77C594.432 393.77 595.327 386.257 595.327 377H591.335C591.335 386.257 592.229 393.77 593.334 393.77Z" fill="#C96928"/>
<path d="M613.373 393.77C614.478 393.77 615.373 386.257 615.373 377H611.381C611.381 386.257 612.275 393.77 613.373 393.77Z" fill="#C96928"/>
<path d="M633.419 393.77C634.524 393.77 635.418 386.257 635.418 377H631.419C631.419 386.257 632.314 393.77 633.419 393.77Z" fill="#C96928"/>
<path d="M740.799 382.27H732.685C718.056 382.27 706.197 395.137 706.197 410.949C706.197 414.594 708.924 417.554 712.298 417.554H761.187C764.553 417.554 767.287 414.594 767.287 410.949C767.287 395.108 755.428 382.27 740.799 382.27Z" fill="#ED9B21"/>
<path d="M727.282 388.661C728.411 388.661 729.325 387.909 729.325 386.981C729.325 386.053 728.411 385.301 727.282 385.301C726.154 385.301 725.239 386.053 725.239 386.981C725.239 387.909 726.154 388.661 727.282 388.661Z" fill="#E8D7A5"/>
<path d="M736.742 388.661C737.87 388.661 738.785 387.909 738.785 386.981C738.785 386.053 737.87 385.301 736.742 385.301C735.613 385.301 734.699 386.053 734.699 386.981C734.699 387.909 735.613 388.661 736.742 388.661Z" fill="#E8D7A5"/>
<path d="M746.194 388.661C747.322 388.661 748.237 387.909 748.237 386.981C748.237 386.053 747.322 385.301 746.194 385.301C745.066 385.301 744.151 386.053 744.151 386.981C744.151 387.909 745.066 388.661 746.194 388.661Z" fill="#E8D7A5"/>
<path d="M722.229 398.589C723.358 398.589 724.272 397.837 724.272 396.91C724.272 395.982 723.358 395.23 722.229 395.23C721.101 395.23 720.186 395.982 720.186 396.91C720.186 397.837 721.101 398.589 722.229 398.589Z" fill="#E8D7A5"/>
<path d="M731.689 398.589C732.817 398.589 733.732 397.837 733.732 396.91C733.732 395.982 732.817 395.23 731.689 395.23C730.56 395.23 729.646 395.982 729.646 396.91C729.646 397.837 730.56 398.589 731.689 398.589Z" fill="#E8D7A5"/>
<path d="M741.141 398.589C742.269 398.589 743.184 397.837 743.184 396.91C743.184 395.982 742.269 395.23 741.141 395.23C740.012 395.23 739.098 395.982 739.098 396.91C739.098 397.837 740.012 398.589 741.141 398.589Z" fill="#E8D7A5"/>
<path d="M751.356 398.589C752.485 398.589 753.399 397.837 753.399 396.91C753.399 395.982 752.485 395.23 751.356 395.23C750.228 395.23 749.313 395.982 749.313 396.91C749.313 397.837 750.228 398.589 751.356 398.589Z" fill="#E8D7A5"/>
<path d="M706.386 412.585C706.655 413.949 707.386 415.182 708.459 416.084C709.533 416.987 710.886 417.504 712.297 417.553H761.187C762.598 417.503 763.95 416.985 765.023 416.083C766.097 415.181 766.828 413.948 767.098 412.585H706.386Z" fill="#C96928"/>
<path d="M516.261 404.45C519.972 404.45 522.979 401.192 522.979 397.173C522.979 393.154 519.972 389.896 516.261 389.896C512.551 389.896 509.543 393.154 509.543 397.173C509.543 401.192 512.551 404.45 516.261 404.45Z" fill="#9B2227"/>
<path d="M516.319 389.896V404.45C520.006 404.45 522.979 401.169 522.979 397.173C522.979 393.177 520.006 389.932 516.319 389.896Z" fill="#A44A3F"/>
<path d="M499.895 395.872H533.021V414.079C533.021 414.975 532.658 415.835 532.013 416.469C531.368 417.104 530.494 417.46 529.581 417.46H503.334C502.422 417.46 501.547 417.104 500.902 416.469C500.257 415.835 499.895 414.975 499.895 414.079V395.872Z" fill="#C96928"/>
<path d="M533.021 404.922H499.895V410.926H533.021V404.922Z" fill="#F19B79"/>
<path d="M499.858 395.872H533.021V400.426C533.021 400.426 531.239 401.455 529.458 398.789C527.677 396.123 526.106 399.704 525.488 400.426C524.87 401.148 522.696 401.712 522.289 399.782C521.984 398.353 521.678 397.388 520.682 397.331C520.362 397.323 520.046 397.404 519.77 397.563C519.494 397.722 519.269 397.953 519.119 398.231C518.792 398.796 518.268 399.504 517.759 399.261C517.032 398.932 516.305 397.409 515.185 398.017C515.014 398.122 514.868 398.261 514.756 398.427C514.644 398.592 514.57 398.779 514.538 398.975C514.378 399.832 513.877 401.605 512.524 401.412C511.172 401.219 510.67 399.325 510.539 398.51C510.508 398.31 510.425 398.121 510.297 397.962C510.17 397.803 510.003 397.679 509.812 397.602C509.39 397.445 508.794 397.524 508.082 398.446C506.627 400.297 505.486 400.211 504.446 399.161C503.559 398.303 503.305 397.731 502.505 397.931C502.183 398.017 501.9 398.208 501.705 398.474C501.123 399.189 499.742 400.862 499.567 399.489C499.492 398.276 499.59 397.059 499.858 395.872V395.872Z" fill="#E8D7A5"/>
<path d="M428.917 404.45C432.627 404.45 435.635 401.192 435.635 397.173C435.635 393.154 432.627 389.896 428.917 389.896C425.207 389.896 422.199 393.154 422.199 397.173C422.199 401.192 425.207 404.45 428.917 404.45Z" fill="#9B2227"/>
<path d="M428.975 389.896V404.45C432.661 404.45 435.635 401.169 435.635 397.173C435.635 393.177 432.661 389.932 428.975 389.896Z" fill="#A44A3F"/>
<path d="M412.55 395.872H445.676V414.079C445.676 414.975 445.314 415.835 444.669 416.469C444.024 417.104 443.149 417.46 442.237 417.46H415.989C415.077 417.46 414.203 417.104 413.558 416.469C412.913 415.835 412.55 414.975 412.55 414.079V395.872Z" fill="#C96928"/>
<path d="M445.669 404.922H412.543V410.926H445.669V404.922Z" fill="#F19B79"/>
<path d="M412.507 395.872H445.669V400.426C445.669 400.426 443.895 401.455 442.113 398.789C440.332 396.123 438.762 399.704 438.144 400.426C437.526 401.148 435.344 401.712 434.937 399.782C434.632 398.353 434.334 397.388 433.338 397.331C433.017 397.323 432.7 397.404 432.423 397.563C432.146 397.722 431.919 397.953 431.767 398.231C431.447 398.796 430.916 399.504 430.415 399.261C429.688 398.932 428.96 397.409 427.841 398.017C427.669 398.121 427.521 398.26 427.41 398.425C427.298 398.591 427.224 398.778 427.194 398.975C427.026 399.832 426.525 401.605 425.172 401.412C423.82 401.219 423.326 399.325 423.187 398.51C423.159 398.309 423.077 398.119 422.949 397.959C422.821 397.8 422.653 397.676 422.46 397.602C422.039 397.445 421.442 397.524 420.73 398.446C419.276 400.297 418.134 400.211 417.094 399.161C416.207 398.303 415.953 397.731 415.153 397.931C414.828 398.015 414.543 398.207 414.346 398.474C413.772 399.189 412.383 400.862 412.208 399.489C412.136 398.276 412.236 397.058 412.507 395.872V395.872Z" fill="#E8D7A5"/>
<path d="M472.156 389.968C480.019 389.968 486.393 383.065 486.393 374.549C486.393 366.034 480.019 359.131 472.156 359.131C464.294 359.131 457.92 366.034 457.92 374.549C457.92 383.065 464.294 389.968 472.156 389.968Z" fill="#9B2227"/>
<path d="M472.273 359.131V389.961C480.082 389.896 486.393 383.02 486.393 374.549C486.393 366.079 480.082 359.202 472.273 359.131Z" fill="#A44A3F"/>
<path d="M437.467 371.783H507.667V414.157C507.667 415.054 507.305 415.914 506.66 416.548C506.015 417.182 505.14 417.538 504.228 417.538H440.906C439.994 417.538 439.12 417.182 438.475 416.548C437.83 415.914 437.467 415.054 437.467 414.157V371.783Z" fill="#C96928"/>
<path d="M507.667 390.962H437.467V403.678H507.667V390.962Z" fill="#F19B79"/>
<path d="M437.388 371.783H507.667V381.433C507.667 381.433 503.894 383.577 500.12 377.973C496.347 372.369 493.017 379.903 491.715 381.433C490.414 382.963 485.782 384.164 484.924 380.068C484.277 376.994 483.63 375 481.529 374.885C480.848 374.864 480.175 375.031 479.587 375.367C478.998 375.703 478.517 376.195 478.199 376.787C477.515 377.988 476.403 379.482 475.327 378.974C473.873 378.259 472.215 375.05 469.874 376.336C469.515 376.557 469.21 376.851 468.978 377.199C468.747 377.547 468.596 377.941 468.536 378.352C468.194 380.182 467.133 383.942 464.261 383.527C461.389 383.113 460.342 379.096 460.058 377.38C459.998 376.959 459.827 376.56 459.563 376.223C459.3 375.886 458.952 375.622 458.553 375.457C457.659 375.128 456.372 375.286 454.918 377.244C451.9 381.161 449.421 380.976 447.152 378.795C445.269 376.973 444.731 375.786 443.044 376.172C442.329 376.345 441.7 376.763 441.27 377.351C440.041 378.953 437.104 382.412 436.74 379.496C436.341 376.279 437.388 371.783 437.388 371.783Z" fill="#E8D7A5"/>
<path d="M577.008 490.172V507.599H572.61C572.237 507.587 571.88 507.451 571.596 507.213C571.312 506.976 571.118 506.651 571.046 506.291L567.186 490.565L577.008 490.172Z" fill="#78AC42"/>
<path d="M577.009 490.172V507.599H581.415C581.787 507.587 582.145 507.451 582.429 507.213C582.712 506.976 582.906 506.651 582.978 506.291L586.839 490.565L577.009 490.172Z" fill="#78AC42"/>
<path d="M582.055 490.379L579.604 507.599H581.415C581.787 507.587 582.145 507.451 582.429 507.213C582.712 506.976 582.906 506.651 582.978 506.291L586.839 490.565L582.055 490.379Z" fill="#78AC42"/>
<path d="M571.97 490.379L574.42 507.599H572.61C572.237 507.587 571.88 507.451 571.596 507.213C571.312 506.976 571.118 506.651 571.046 506.291L567.186 490.565L571.97 490.379Z" fill="#C9D070"/>
<path d="M584.679 482.903C583.957 482.903 583.241 483.039 582.571 483.303C582.184 482.185 581.447 481.215 580.467 480.533C579.486 479.851 578.311 479.491 577.109 479.504C575.908 479.518 574.742 479.904 573.777 480.608C572.812 481.312 572.098 482.298 571.737 483.424C570.989 483.08 570.172 482.902 569.345 482.903C568.411 482.896 567.489 483.115 566.661 483.54C565.833 483.965 565.124 484.584 564.596 485.341C564.067 486.099 563.736 486.972 563.632 487.885C563.527 488.798 563.652 489.722 563.995 490.576C564.338 491.43 564.89 492.188 565.601 492.784C566.312 493.38 567.161 493.795 568.073 493.993C568.985 494.191 569.933 494.166 570.833 493.92C571.733 493.674 572.558 493.214 573.235 492.581C574.265 493.542 575.622 494.09 577.041 494.117C578.46 494.145 579.838 493.651 580.906 492.731C581.6 493.33 582.431 493.755 583.329 493.968C584.227 494.181 585.164 494.178 586.059 493.957C586.955 493.736 587.783 493.305 588.472 492.7C589.161 492.095 589.69 491.335 590.014 490.485C590.339 489.635 590.449 488.721 590.335 487.82C590.22 486.919 589.885 486.059 589.359 485.313C588.832 484.567 588.129 483.958 587.31 483.539C586.491 483.119 585.581 482.901 584.658 482.903H584.679Z" fill="#C96928"/>
<path d="M569.345 482.903C570.068 482.903 570.783 483.039 571.454 483.303C571.837 482.194 572.563 481.232 573.53 480.55C574.498 479.868 575.658 479.501 576.849 479.5H577.009V494.104H576.871C575.49 494.107 574.156 493.613 573.119 492.717C572.425 493.316 571.593 493.74 570.696 493.954C569.798 494.167 568.861 494.163 567.966 493.942C567.07 493.721 566.242 493.29 565.553 492.686C564.864 492.081 564.335 491.321 564.01 490.471C563.686 489.621 563.576 488.706 563.69 487.805C563.805 486.905 564.139 486.044 564.666 485.299C565.193 484.553 565.896 483.944 566.715 483.524C567.534 483.104 568.444 482.886 569.367 482.888L569.345 482.903Z" fill="#ED9B21"/>
<path d="M622.226 490.187V507.614H617.82C617.448 507.6 617.091 507.463 616.808 507.226C616.524 506.989 616.33 506.665 616.257 506.306L612.396 490.58L622.226 490.187Z" fill="#78AC42"/>
<path d="M622.227 490.187V507.614H626.589C626.962 507.601 627.319 507.465 627.603 507.228C627.887 506.99 628.08 506.665 628.152 506.306L632.02 490.58L622.227 490.187Z" fill="#78AC42"/>
<path d="M627.265 490.394L624.814 507.614H626.625C626.997 507.601 627.355 507.465 627.639 507.228C627.922 506.99 628.116 506.665 628.188 506.306L632.056 490.58L627.265 490.394Z" fill="#78AC42"/>
<path d="M617.187 490.394L619.638 507.614H617.82C617.448 507.6 617.091 507.463 616.808 507.226C616.524 506.989 616.33 506.665 616.257 506.306L612.396 490.58L617.187 490.394Z" fill="#C9D070"/>
<path d="M629.897 482.91C629.175 482.908 628.459 483.044 627.789 483.31C627.403 482.189 626.667 481.217 625.685 480.532C624.704 479.848 623.527 479.487 622.323 479.5C621.12 479.514 619.952 479.901 618.986 480.608C618.02 481.314 617.307 482.302 616.948 483.431C616.199 483.086 615.382 482.908 614.556 482.91C613.623 482.908 612.703 483.13 611.878 483.559C611.053 483.987 610.347 484.607 609.823 485.366C609.298 486.124 608.971 486.998 608.869 487.91C608.767 488.822 608.895 489.744 609.24 490.596C609.585 491.449 610.137 492.205 610.848 492.798C611.56 493.392 612.408 493.805 613.319 494.002C614.231 494.198 615.177 494.172 616.076 493.926C616.975 493.68 617.798 493.22 618.475 492.588C619.503 493.548 620.859 494.096 622.277 494.124C623.695 494.151 625.072 493.657 626.138 492.738C626.832 493.337 627.663 493.761 628.56 493.975C629.458 494.188 630.394 494.185 631.29 493.964C632.185 493.744 633.013 493.313 633.702 492.709C634.391 492.105 634.921 491.345 635.245 490.496C635.57 489.646 635.681 488.732 635.567 487.831C635.454 486.931 635.12 486.07 634.594 485.324C634.068 484.578 633.366 483.969 632.548 483.549C631.73 483.128 630.82 482.909 629.897 482.91V482.91Z" fill="#C96928"/>
<path d="M614.556 482.91C615.278 482.909 615.994 483.045 616.664 483.31C617.047 482.202 617.773 481.239 618.74 480.557C619.708 479.875 620.868 479.508 622.059 479.507H622.226V494.111H622.059C620.678 494.114 619.344 493.62 618.307 492.724C617.614 493.327 616.783 493.755 615.884 493.971C614.986 494.187 614.047 494.186 613.149 493.967C612.252 493.747 611.422 493.317 610.731 492.712C610.04 492.107 609.509 491.346 609.183 490.495C608.858 489.644 608.748 488.727 608.862 487.825C608.977 486.922 609.313 486.061 609.842 485.314C610.371 484.568 611.076 483.959 611.897 483.54C612.718 483.121 613.63 482.905 614.556 482.91V482.91Z" fill="#ED9B21"/>
<path d="M600.428 478.959V507.351H593.259C592.649 507.331 592.064 507.108 591.601 506.719C591.137 506.329 590.822 505.796 590.707 505.207L584.417 479.674L600.428 478.959Z" fill="#78AC42"/>
<path d="M600.428 478.959V507.351H607.604C608.213 507.331 608.796 507.108 609.259 506.718C609.721 506.328 610.035 505.795 610.149 505.207L616.445 479.674L600.428 478.959Z" fill="#78AC42"/>
<path d="M608.644 479.331L604.652 507.38H607.604C608.213 507.36 608.797 507.136 609.259 506.746C609.722 506.357 610.036 505.824 610.149 505.235L616.446 479.674L608.644 479.331Z" fill="#78AC42"/>
<path d="M592.219 479.331L596.211 507.38H593.259C592.649 507.36 592.064 507.137 591.601 506.747C591.137 506.357 590.822 505.824 590.707 505.235L584.417 479.674L592.219 479.331Z" fill="#C9D070"/>
<path d="M612.926 467.143C611.751 467.144 610.586 467.365 609.495 467.794C608.864 465.97 607.663 464.39 606.064 463.278C604.465 462.165 602.549 461.579 600.59 461.601C598.632 461.623 596.73 462.253 595.158 463.401C593.585 464.549 592.422 466.157 591.834 467.994C590.301 467.294 588.603 467.019 586.922 467.197C585.242 467.375 583.643 468 582.296 469.005C580.95 470.01 579.908 471.356 579.282 472.9C578.656 474.443 578.469 476.125 578.742 477.765C579.016 479.404 579.738 480.94 580.832 482.206C581.927 483.473 583.351 484.422 584.953 484.952C586.555 485.482 588.274 485.573 589.924 485.214C591.574 484.856 593.094 484.063 594.32 482.919C595.996 484.487 598.209 485.381 600.522 485.426C602.835 485.471 605.081 484.663 606.819 483.162C607.95 484.132 609.303 484.819 610.763 485.162C612.223 485.506 613.746 485.497 615.201 485.136C616.657 484.775 618.002 484.073 619.121 483.089C620.24 482.105 621.1 480.87 621.627 479.488C622.155 478.106 622.334 476.62 622.149 475.155C621.965 473.69 621.422 472.292 620.568 471.078C619.713 469.865 618.572 468.873 617.243 468.188C615.913 467.502 614.435 467.144 612.934 467.143H612.926Z" fill="#C96928"/>
<path d="M587.936 467.143C589.112 467.144 590.277 467.365 591.368 467.794C591.993 465.993 593.174 464.429 594.745 463.319C596.317 462.21 598.202 461.61 600.137 461.603H600.406V485.392H600.137C597.888 485.394 595.716 484.589 594.029 483.126C592.898 484.096 591.545 484.783 590.085 485.127C588.625 485.47 587.102 485.461 585.647 485.1C584.191 484.739 582.847 484.037 581.727 483.053C580.608 482.07 579.748 480.834 579.221 479.452C578.693 478.071 578.514 476.584 578.699 475.119C578.884 473.655 579.426 472.256 580.281 471.042C581.135 469.829 582.276 468.837 583.606 468.152C584.935 467.467 586.414 467.108 587.915 467.107L587.936 467.143Z" fill="#ED9B21"/>
<path fill-rule="evenodd" clip-rule="evenodd" d="M443.131 538.863C439.699 535.668 436.158 532.887 429.818 532.144C424.83 531.765 420.221 532.594 415.509 536.018C412.768 538.137 410.517 540.805 408.908 543.846C407.298 546.887 406.366 550.23 406.173 553.652C405.526 562.445 409.3 572.645 414.796 578.399C416.854 574.475 418.665 571.137 422.242 569.486C419.835 565.425 418.25 561.773 417.676 556.469C416.949 550.343 420.228 545.525 425.281 544.024C428.589 542.802 432.552 544.124 435.213 546.762C437.438 542.909 440.39 540.121 443.131 538.863Z" fill="#C3601E"/>
<path fill-rule="evenodd" clip-rule="evenodd" d="M470.236 542.23C466.768 536.404 460.123 533.452 453.295 532.78C446.519 532.358 440.622 534.152 435.758 539.535C428.575 547.734 428.487 557.055 431.956 564.468L438.725 557.713C438.572 554.21 439.255 553.052 441.728 550.793C444.2 548.535 445.363 547.119 447.966 546.09C451.601 544.546 455.36 544.482 458.487 547.627C461.817 550.965 461.97 557.734 460.086 563.06C456.705 571.702 451.972 576.319 445.85 579.872C439.786 583.082 432.69 582.36 426.844 577.892L424.43 576.384L417.523 583.532L417.719 587.106C420.897 589.751 424.575 591.753 428.541 592.998C432.507 594.243 436.351 594.345 440.5 594C449.065 593.4 455.52 589.672 460.734 584.297C465.714 577.863 469.698 574.246 472.44 564.954C474.999 556.505 473.327 547.648 470.236 542.23Z" fill="#C3601E"/>
<path fill-rule="evenodd" clip-rule="evenodd" d="M469.488 539.306C466.027 533.473 459.374 530.536 452.547 529.857C445.77 529.435 439.867 531.236 435.01 536.604C427.826 544.81 427.739 554.139 431.2 561.537L437.976 554.789C437.823 551.28 438.5 550.136 440.979 547.87C443.458 545.604 444.614 544.196 447.217 543.166C450.853 541.622 454.612 541.565 457.738 544.71C461.061 548.049 461.221 554.811 459.345 560.136C455.957 568.778 451.216 573.403 445.102 576.941C439.03 580.151 431.941 579.443 426.096 574.968L423.682 573.46L416.774 580.608L417.56 584.647C424.402 590.287 432 592.088 440.099 591.466C448.664 590.873 454.786 586.792 459.999 581.409C464.98 574.976 468.964 571.352 471.706 562.066C474.25 553.581 472.578 544.725 469.488 539.306Z" fill="#ED9B21"/>
<path fill-rule="evenodd" clip-rule="evenodd" d="M441.037 535.804C437.598 532.608 434.064 529.821 427.717 529.084C422.736 528.706 418.127 529.535 413.415 532.959C410.673 535.077 408.421 537.745 406.81 540.786C405.199 543.827 404.266 547.17 404.072 550.593C403.425 559.385 407.206 569.586 412.702 575.34C414.76 571.416 417.065 568.306 420.613 566.662C418.207 562.595 416.149 558.706 415.574 553.41C414.847 547.284 418.134 542.466 423.187 540.965C426.495 539.742 430.458 541.065 433.119 543.702C435.344 539.85 438.303 537.062 441.037 535.804Z" fill="#ED9B21"/>
<path fill-rule="evenodd" clip-rule="evenodd" d="M447.537 561.866C448.788 563.203 452.743 564.882 456.328 566.233C462.871 568.714 465.649 571.237 468.688 575.076C471.48 578.4 470.789 582.939 469.219 585.569C468.143 587.499 467.692 588.107 465.693 588.428C463.511 588.672 459.592 587.499 459.091 584.325C458.189 581.145 455.848 579.779 453.717 578.128C451.02 576.041 448.795 575.526 444.665 573.668C442.484 572.822 440.433 571.682 438.572 570.279C441.372 569.021 444.651 564.861 447.537 561.866Z" fill="#ED9B21"/>
<path fill-rule="evenodd" clip-rule="evenodd" d="M448.112 562.381C446.505 564.675 444.782 567.055 442.528 568.607C441.552 569.449 440.501 570.203 439.387 570.858L441.568 572.166C445.691 570.615 449.013 566.927 449.784 563.353L448.112 562.381Z" fill="#C3601E"/>
<path fill-rule="evenodd" clip-rule="evenodd" d="M444.869 544.439C448.628 545.454 451.602 550.829 450.642 555.447C449.915 560.515 447.646 563.696 443.771 567.413C440.733 570.332 436.974 572.424 432.865 573.482C428.333 574.761 424.286 577.327 421.231 580.859C419.917 582.315 419.019 584.089 418.628 585.998C417.778 589.915 411.547 591.002 409.038 586.842C406.319 582.638 408.704 576.076 411.947 571.48C415.133 567.74 419.361 564.995 424.111 563.581C428.655 562.209 434.588 558.392 437.642 553.917C438.114 548.856 442.353 546.083 444.869 544.439Z" fill="#ED9B21"/>
<path fill-rule="evenodd" clip-rule="evenodd" d="M420.802 587.556C422.111 585.033 424.387 581.573 426.416 579.693C427.324 578.564 428.742 578.028 429.68 577.184C428.794 576.805 427.94 576.356 427.128 575.841C423.245 577.985 418.956 582.331 418.643 585.984L420.802 587.556Z" fill="#C3601E"/>
<path fill-rule="evenodd" clip-rule="evenodd" d="M445.4 544.074C443.218 545.356 441.255 546.967 439.583 548.849C438.504 550.395 437.834 552.181 437.634 554.046C438.686 552.14 440.159 550.491 441.946 549.221C451.769 542.137 458.669 546.569 459.258 548.506C457.825 543.645 446.839 544.51 445.4 544.074Z" fill="#C3601E"/>
<path fill-rule="evenodd" clip-rule="evenodd" d="M447.973 575.076C450.303 576.023 452.501 577.255 454.517 578.743C456.196 579.789 457.584 581.229 458.56 582.931L455.957 585.29C454.028 581.361 450.949 578.088 447.115 575.891L447.973 575.076Z" fill="#C3601E"/>
<path d="M442.142 537.148C442.684 537.148 443.124 536.895 443.124 536.583C443.124 536.271 442.684 536.018 442.142 536.018C441.6 536.018 441.161 536.271 441.161 536.583C441.161 536.895 441.6 537.148 442.142 537.148Z" fill="#E8D7A5"/>
<path d="M433.643 545.561C434.185 545.561 434.624 545.308 434.624 544.996C434.624 544.684 434.185 544.431 433.643 544.431C433.101 544.431 432.661 544.684 432.661 544.996C432.661 545.308 433.101 545.561 433.643 545.561Z" fill="#E8D7A5"/>
<path d="M435.613 553.295C436.155 553.295 436.594 553.042 436.594 552.731C436.594 552.419 436.155 552.166 435.613 552.166C435.071 552.166 434.631 552.419 434.631 552.731C434.631 553.042 435.071 553.295 435.613 553.295Z" fill="#E8D7A5"/>
<path d="M443.96 550.736C444.502 550.736 444.942 550.483 444.942 550.171C444.942 549.86 444.502 549.607 443.96 549.607C443.418 549.607 442.979 549.86 442.979 550.171C442.979 550.483 443.418 550.736 443.96 550.736Z" fill="#E8D7A5"/>
<path d="M444.941 560.836C445.484 560.836 445.923 560.584 445.923 560.272C445.923 559.96 445.484 559.707 444.941 559.707C444.399 559.707 443.96 559.96 443.96 560.272C443.96 560.584 444.399 560.836 444.941 560.836Z" fill="#E8D7A5"/>
<path d="M429.68 565.719C430.222 565.719 430.661 565.466 430.661 565.154C430.661 564.842 430.222 564.589 429.68 564.589C429.138 564.589 428.698 564.842 428.698 565.154C428.698 565.466 429.138 565.719 429.68 565.719Z" fill="#E8D7A5"/>
<path d="M428.691 533.609C429.233 533.609 429.673 533.356 429.673 533.044C429.673 532.733 429.233 532.48 428.691 532.48C428.149 532.48 427.709 532.733 427.709 533.044C427.709 533.356 428.149 533.609 428.691 533.609Z" fill="#E8D7A5"/>
<path d="M407.577 554.653C408.119 554.653 408.558 554.401 408.558 554.089C408.558 553.777 408.119 553.524 407.577 553.524C407.035 553.524 406.595 553.777 406.595 554.089C406.595 554.401 407.035 554.653 407.577 554.653Z" fill="#E8D7A5"/>
<path d="M409.54 562.38C410.082 562.38 410.522 562.128 410.522 561.816C410.522 561.504 410.082 561.251 409.54 561.251C408.998 561.251 408.559 561.504 408.559 561.816C408.559 562.128 408.998 562.38 409.54 562.38Z" fill="#E8D7A5"/>
<path d="M416.534 568.399C417.076 568.399 417.516 568.146 417.516 567.834C417.516 567.523 417.076 567.27 416.534 567.27C415.992 567.27 415.553 567.523 415.553 567.834C415.553 568.146 415.992 568.399 416.534 568.399Z" fill="#E8D7A5"/>
<path d="M461.519 539.764C462.061 539.764 462.501 539.511 462.501 539.199C462.501 538.887 462.061 538.634 461.519 538.634C460.977 538.634 460.538 538.887 460.538 539.199C460.538 539.511 460.977 539.764 461.519 539.764Z" fill="#E8D7A5"/>
<path d="M463.489 547.498C464.031 547.498 464.471 547.245 464.471 546.933C464.471 546.622 464.031 546.369 463.489 546.369C462.947 546.369 462.508 546.622 462.508 546.933C462.508 547.245 462.947 547.498 463.489 547.498Z" fill="#E8D7A5"/>
<path d="M461.105 565.09C461.647 565.09 462.086 564.837 462.086 564.525C462.086 564.213 461.647 563.96 461.105 563.96C460.563 563.96 460.123 564.213 460.123 564.525C460.123 564.837 460.563 565.09 461.105 565.09Z" fill="#E8D7A5"/>
<path d="M463.075 572.824C463.617 572.824 464.057 572.571 464.057 572.259C464.057 571.947 463.617 571.695 463.075 571.695C462.533 571.695 462.094 571.947 462.094 572.259C462.094 572.571 462.533 572.824 463.075 572.824Z" fill="#E8D7A5"/>
<path d="M466.667 553.109C467.209 553.109 467.649 552.857 467.649 552.545C467.649 552.233 467.209 551.98 466.667 551.98C466.125 551.98 465.686 552.233 465.686 552.545C465.686 552.857 466.125 553.109 466.667 553.109Z" fill="#E8D7A5"/>
<path d="M467.649 567.52C468.191 567.52 468.63 567.267 468.63 566.955C468.63 566.643 468.191 566.391 467.649 566.391C467.106 566.391 466.667 566.643 466.667 566.955C466.667 567.267 467.106 567.52 467.649 567.52Z" fill="#E8D7A5"/>
<path d="M411.968 539.206C412.511 539.206 412.95 538.953 412.95 538.642C412.95 538.33 412.511 538.077 411.968 538.077C411.426 538.077 410.987 538.33 410.987 538.642C410.987 538.953 411.426 539.206 411.968 539.206Z" fill="#E8D7A5"/>
<path d="M413.939 546.933C414.481 546.933 414.92 546.681 414.92 546.369C414.92 546.057 414.481 545.804 413.939 545.804C413.396 545.804 412.957 546.057 412.957 546.369C412.957 546.681 413.396 546.933 413.939 546.933Z" fill="#E8D7A5"/>
<path d="M412.957 578.171C413.499 578.171 413.939 577.918 413.939 577.606C413.939 577.294 413.499 577.041 412.957 577.041C412.415 577.041 411.976 577.294 411.976 577.606C411.976 577.918 412.415 578.171 412.957 578.171Z" fill="#E8D7A5"/>
<path d="M414.928 585.898C415.47 585.898 415.909 585.645 415.909 585.333C415.909 585.021 415.47 584.769 414.928 584.769C414.386 584.769 413.946 585.021 413.946 585.333C413.946 585.645 414.386 585.898 414.928 585.898Z" fill="#E8D7A5"/>
<path d="M450.737 567.62C451.279 567.62 451.718 567.367 451.718 567.055C451.718 566.744 451.279 566.491 450.737 566.491C450.194 566.491 449.755 566.744 449.755 567.055C449.755 567.367 450.194 567.62 450.737 567.62Z" fill="#E8D7A5"/>
<path d="M452.707 575.347C453.249 575.347 453.689 575.095 453.689 574.783C453.689 574.471 453.249 574.218 452.707 574.218C452.165 574.218 451.726 574.471 451.726 574.783C451.726 575.095 452.165 575.347 452.707 575.347Z" fill="#E8D7A5"/>
<path d="M462.093 578.171C462.636 578.171 463.075 577.918 463.075 577.606C463.075 577.294 462.636 577.041 462.093 577.041C461.551 577.041 461.112 577.294 461.112 577.606C461.112 577.918 461.551 578.171 462.093 578.171Z" fill="#E8D7A5"/>
<path d="M464.064 585.898C464.606 585.898 465.045 585.645 465.045 585.333C465.045 585.021 464.606 584.769 464.064 584.769C463.521 584.769 463.082 585.021 463.082 585.333C463.082 585.645 463.521 585.898 464.064 585.898Z" fill="#E8D7A5"/>
<path d="M429.142 587.013C430.267 587.013 431.178 586.495 431.178 585.855C431.178 585.216 430.267 584.697 429.142 584.697C428.018 584.697 427.106 585.216 427.106 585.855C427.106 586.495 428.018 587.013 429.142 587.013Z" fill="#E8D7A5"/>
<path d="M438.623 566.248C439.748 566.248 440.659 565.729 440.659 565.09C440.659 564.45 439.748 563.932 438.623 563.932C437.499 563.932 436.587 564.45 436.587 565.09C436.587 565.729 437.499 566.248 438.623 566.248Z" fill="#E8D7A5"/>
<path d="M422.242 572.817C423.366 572.817 424.278 572.298 424.278 571.659C424.278 571.019 423.366 570.501 422.242 570.501C421.118 570.501 420.206 571.019 420.206 571.659C420.206 572.298 421.118 572.817 422.242 572.817Z" fill="#E8D7A5"/>
<path d="M412.957 558.156C414.082 558.156 414.993 557.637 414.993 556.998C414.993 556.358 414.082 555.84 412.957 555.84C411.833 555.84 410.921 556.358 410.921 556.998C410.921 557.637 411.833 558.156 412.957 558.156Z" fill="#E8D7A5"/>
<path d="M420.199 537.183C421.323 537.183 422.235 536.665 422.235 536.025C422.235 535.386 421.323 534.867 420.199 534.867C419.075 534.867 418.163 535.386 418.163 536.025C418.163 536.665 419.075 537.183 420.199 537.183Z" fill="#E8D7A5"/>
<path d="M434.624 539.235C435.749 539.235 436.66 538.716 436.66 538.077C436.66 537.437 435.749 536.919 434.624 536.919C433.5 536.919 432.588 537.437 432.588 538.077C432.588 538.716 433.5 539.235 434.624 539.235Z" fill="#E8D7A5"/>
<path d="M452.707 537.183C453.831 537.183 454.743 536.665 454.743 536.025C454.743 535.386 453.831 534.867 452.707 534.867C451.582 534.867 450.671 535.386 450.671 536.025C450.671 536.665 451.582 537.183 452.707 537.183Z" fill="#E8D7A5"/>
<path d="M466.667 559.321C467.791 559.321 468.703 558.803 468.703 558.163C468.703 557.524 467.791 557.005 466.667 557.005C465.542 557.005 464.631 557.524 464.631 558.163C464.631 558.803 465.542 559.321 466.667 559.321Z" fill="#E8D7A5"/>
<path d="M450.373 586.105C451.497 586.105 452.409 585.587 452.409 584.947C452.409 584.308 451.497 583.789 450.373 583.789C449.248 583.789 448.337 584.308 448.337 584.947C448.337 585.587 449.248 586.105 450.373 586.105Z" fill="#E8D7A5"/>
<path d="M443.618 583.224C444.16 583.224 444.6 582.972 444.6 582.66C444.6 582.348 444.16 582.095 443.618 582.095C443.076 582.095 442.637 582.348 442.637 582.66C442.637 582.972 443.076 583.224 443.618 583.224Z" fill="#E8D7A5"/>
<path d="M442.637 588.571C443.179 588.571 443.618 588.318 443.618 588.007C443.618 587.695 443.179 587.442 442.637 587.442C442.095 587.442 441.655 587.695 441.655 588.007C441.655 588.318 442.095 588.571 442.637 588.571Z" fill="#E8D7A5"/>
<path d="M436.1 584.819C436.642 584.819 437.082 584.566 437.082 584.254C437.082 583.942 436.642 583.689 436.1 583.689C435.558 583.689 435.119 583.942 435.119 584.254C435.119 584.566 435.558 584.819 436.1 584.819Z" fill="#E8D7A5"/>
<path d="M84.8107 250.349H20.3257V313.746H84.8107V250.349Z" fill="#08151B" stroke="#F6F4D2" stroke-width="2" stroke-miterlimit="10"/>
<path d="M75.962 197.717H72.4502V261.693H75.962V197.717Z" fill="#08151B"/>
<path d="M32.2139 195.008H28.7021V258.984H32.2139V195.008Z" fill="#08151B"/>
<path d="M57.9231 285.532H47.315V292.13H40.2041V300.1H60.417L64.9395 292.13H57.9231V285.532Z" fill="#CDE9E4"/>
<path d="M47.315 278.562H57.9231V271.965H64.9395V263.995H44.9156L40.2041 271.965H47.315V278.562Z" fill="#CDE9E4"/>
</svg>
