<svg width="1290" height="464" viewBox="0 0 1290 464" fill="none" xmlns="http://www.w3.org/2000/svg">
<path d="M123.662 201.799C120.754 284.439 -92.1433 272.294 -147.823 272.294C-180.622 272.294 -244.889 259.328 -275.521 248.412C-287.154 244.267 -290.702 230.542 -290.492 218.912C-290.281 207.282 -288.31 194.744 -294.803 184.851C-263.793 143.935 -189.129 90.4955 -135.725 90.4955C-99.1815 90.4955 -60.7624 102.44 -40.2659 125.822C-27.812 139.87 -10.2515 148.557 8.64502 150.018C18.9041 150.826 29.6868 151.14 39.5097 151.14C89.8457 151.14 124.513 177.403 123.662 201.799Z" fill="#F7F4D3"/>
<path d="M1477.16 173.85C1477.16 270.236 1330.09 262.916 1260.84 262.916C1124.87 262.916 1121.92 236.153 1127.66 210.906C1134.54 180.648 1176.59 160.933 1251.35 160.933C1253.83 160.933 1255.57 159.032 1256.97 156.323C1258.75 152.842 1276.95 88.8586 1365.88 88.8586C1427.34 88.8586 1477.16 126.908 1477.16 173.85Z" fill="#F7F4D3"/>
<path d="M1477.16 173.85C1477.16 270.236 1330.09 262.916 1260.84 262.916C1124.87 262.916 1121.92 236.153 1127.66 210.906C1134.54 180.648 1176.59 160.933 1251.35 160.933C1253.83 160.933 1255.57 159.032 1256.97 156.323C1258.75 152.842 1276.95 88.8586 1365.88 88.8586C1427.34 88.8586 1477.16 126.908 1477.16 173.85Z" fill="url(#paint0_linear)"/>
<path d="M336.89 94.1552C346.59 85.3611 348.405 71.7833 340.944 63.8282C333.482 55.8732 319.57 56.5534 309.869 65.3475C300.169 74.1416 298.354 87.7195 305.815 95.6745C313.277 103.63 327.189 102.949 336.89 94.1552Z" fill="#F7F4D3"/>
<path d="M336.89 94.1552C346.59 85.3611 348.405 71.7833 340.944 63.8282C333.482 55.8732 319.57 56.5534 309.869 65.3475C300.169 74.1416 298.354 87.7195 305.815 95.6745C313.277 103.63 327.189 102.949 336.89 94.1552Z" fill="url(#paint1_linear)"/>
<path d="M1027.94 188.128C1038.27 183.9 1043.85 173.857 1040.39 165.696C1036.94 157.536 1025.76 154.348 1015.43 158.577C1005.1 162.805 999.521 172.848 1002.98 181.008C1006.43 189.169 1017.61 192.356 1027.94 188.128Z" fill="#F7F4D3"/>
<path d="M1027.94 188.128C1038.27 183.9 1043.85 173.857 1040.39 165.696C1036.94 157.536 1025.76 154.348 1015.43 158.577C1005.1 162.805 999.521 172.848 1002.98 181.008C1006.43 189.169 1017.61 192.356 1027.94 188.128Z" fill="url(#paint2_linear)"/>
<path d="M123.662 201.799C120.754 284.439 -92.1433 272.294 -147.823 272.294C-180.622 272.294 -244.889 259.328 -275.521 248.412C-287.154 244.267 -290.702 230.542 -290.492 218.912C-290.281 207.282 -288.31 194.744 -294.803 184.851C-263.793 143.935 -189.129 90.4955 -135.725 90.4955C-99.1815 90.4955 -60.7624 102.44 -40.2659 125.822C-27.812 139.87 -10.2515 148.557 8.64502 150.018C18.9041 150.826 29.6868 151.14 39.5097 151.14C89.8457 151.14 124.513 177.403 123.662 201.799Z" fill="url(#paint3_linear)"/>
<path d="M1247.36 414.392C1246.85 425.665 1240.31 433.449 1231.96 440.976C1206.08 464.308 1149.18 463.779 1117.67 462.549C1076.96 460.963 1059.38 455.266 1050.91 449.947C1039.19 442.592 1029.94 431.963 1030.55 418.617C1031.4 399.796 1049.69 385.228 1071.41 386.079C1078.92 386.329 1086.24 388.518 1092.62 392.426C1098.25 372.368 1119.59 357.936 1144.36 358.901C1160.99 359.545 1175.46 367 1184.35 378.023C1185.71 379.714 1186.95 381.503 1188.04 383.377C1190.66 382.051 1193.41 381.004 1196.26 380.253C1200.6 379.097 1205.09 378.602 1209.58 378.787C1231.27 379.631 1248.2 395.578 1247.36 414.392Z" fill="#F7F4D3"/>
<path d="M1247.36 414.392C1246.85 425.665 1240.31 433.449 1231.96 440.976C1206.08 464.308 1149.18 463.779 1117.67 462.549C1076.96 460.963 1059.38 455.266 1050.91 449.947C1039.19 442.592 1029.94 431.963 1030.55 418.617C1031.4 399.796 1049.69 385.228 1071.41 386.079C1078.92 386.329 1086.24 388.518 1092.62 392.426C1098.25 372.368 1119.59 357.936 1144.36 358.901C1160.99 359.545 1175.46 367 1184.35 378.023C1185.71 379.714 1186.95 381.503 1188.04 383.377C1190.66 382.051 1193.41 381.004 1196.26 380.253C1200.6 379.097 1205.09 378.602 1209.58 378.787C1231.27 379.631 1248.2 395.578 1247.36 414.392Z" fill="url(#paint4_linear)"/>
<path d="M872.107 38.4499C938.284 38.4499 991.931 -2.29042 991.931 -52.5461C991.931 -102.802 938.284 -143.542 872.107 -143.542C805.931 -143.542 752.284 -102.802 752.284 -52.5461C752.284 -2.29042 805.931 38.4499 872.107 38.4499Z" fill="#F7F4D3"/>
<path d="M765.444 79.7519C831.621 79.7519 885.268 39.0116 885.268 -11.2441C885.268 -61.4997 831.621 -102.24 765.444 -102.24C699.268 -102.24 645.621 -61.4997 645.621 -11.2441C645.621 39.0116 699.268 79.7519 765.444 79.7519Z" fill="#F7F4D3"/>
<path d="M991.931 -52.5462C991.931 -2.29471 938.286 38.4426 872.107 38.4426C870.035 38.4426 867.985 38.4068 865.942 38.3282C844.58 63.2681 807.55 79.7446 765.452 79.7446C699.287 79.7446 645.628 39.0001 645.628 -11.2442C645.628 -61.4885 699.272 -102.219 765.444 -102.219C767.516 -102.219 769.581 -102.176 771.624 -102.104C792.986 -127.037 830.016 -143.521 872.107 -143.521C938.286 -143.542 991.931 -102.798 991.931 -52.5462Z" fill="url(#paint5_linear)"/>
<defs>
<linearGradient id="paint0_linear" x1="1301.62" y1="323.925" x2="1301.62" y2="95.9996" gradientUnits="userSpaceOnUse">
<stop stop-color="#E6988C"/>
<stop offset="0.37" stop-color="#DFBFA9" stop-opacity="0.59"/>
<stop offset="0.67" stop-color="#DADDBF" stop-opacity="0.27"/>
<stop offset="0.89" stop-color="#D6F0CD" stop-opacity="0.07"/>
<stop offset="1" stop-color="#D5F7D2" stop-opacity="0"/>
</linearGradient>
<linearGradient id="paint1_linear" x1="338.664" y1="125.231" x2="316.937" y2="58.4214" gradientUnits="userSpaceOnUse">
<stop stop-color="#E6988C"/>
<stop offset="0.09" stop-color="#E79D90" stop-opacity="0.95"/>
<stop offset="0.27" stop-color="#E9A999" stop-opacity="0.81"/>
<stop offset="0.49" stop-color="#EDBEA9" stop-opacity="0.59"/>
<stop offset="0.77" stop-color="#F2DABE" stop-opacity="0.28"/>
<stop offset="1" stop-color="#F7F4D2" stop-opacity="0"/>
</linearGradient>
<linearGradient id="paint2_linear" x1="1019.86" y1="212.697" x2="1020.82" y2="155.055" gradientUnits="userSpaceOnUse">
<stop stop-color="#E6988C"/>
<stop offset="0.09" stop-color="#E79D90" stop-opacity="0.95"/>
<stop offset="0.27" stop-color="#E9A999" stop-opacity="0.81"/>
<stop offset="0.49" stop-color="#EDBEA9" stop-opacity="0.59"/>
<stop offset="0.77" stop-color="#F2DABE" stop-opacity="0.28"/>
<stop offset="1" stop-color="#F7F4D2" stop-opacity="0"/>
</linearGradient>
<linearGradient id="paint3_linear" x1="-85.5632" y1="88.5441" x2="-85.5632" y2="368.058" gradientUnits="userSpaceOnUse">
<stop stop-color="#F7F4D2" stop-opacity="0"/>
<stop offset="1" stop-color="#E6988C"/>
</linearGradient>
<linearGradient id="paint4_linear" x1="1139.6" y1="356.775" x2="1142.07" y2="490.755" gradientUnits="userSpaceOnUse">
<stop stop-color="#F7F4D2" stop-opacity="0"/>
<stop offset="0.11" stop-color="#F7F2D0" stop-opacity="0.02"/>
<stop offset="0.24" stop-color="#F6ECCC" stop-opacity="0.09"/>
<stop offset="0.38" stop-color="#F4E2C4" stop-opacity="0.19"/>
<stop offset="0.54" stop-color="#F1D4BA" stop-opacity="0.34"/>
<stop offset="0.69" stop-color="#EEC3AC" stop-opacity="0.54"/>
<stop offset="0.86" stop-color="#EAAD9C" stop-opacity="0.77"/>
<stop offset="1" stop-color="#E6988C"/>
</linearGradient>
<linearGradient id="paint5_linear" x1="878.317" y1="154.371" x2="790.024" y2="-131.406" gradientUnits="userSpaceOnUse">
<stop stop-color="#E6988C"/>
<stop offset="0.06" stop-color="#E79E91" stop-opacity="0.93"/>
<stop offset="0.53" stop-color="#F0CCB4" stop-opacity="0.44"/>
<stop offset="0.85" stop-color="#F5E9C9" stop-opacity="0.12"/>
<stop offset="1" stop-color="#F7F4D2" stop-opacity="0"/>
</linearGradient>
</defs>
</svg>
