<svg width="72" height="72" viewBox="0 0 72 72" fill="none" xmlns="http://www.w3.org/2000/svg">
<path d="M2.4939 8.80005C2.4939 8.80005 -1.14151 38.6435 13.5819 55.4417C13.611 55.4417 14.2145 35.5269 2.4939 8.80005Z" fill="#C9D070"/>
<path d="M2.14492 13.9611C1.83227 23.2537 2.61753 42.9468 13.5819 55.4203C13.5819 55.4203 13.5819 55.263 13.5819 54.97L2.14492 13.9611Z" fill="#78AC42"/>
<path d="M24.9026 8.80005C24.9026 8.80005 28.538 38.6435 13.8146 55.4417C13.8146 55.4417 13.1748 35.5269 24.9026 8.80005Z" fill="#C9D070"/>
<path d="M25.2443 13.9611C25.557 23.2537 24.7717 42.9468 13.8 55.4203V54.97L25.2443 13.9611Z" fill="#78AC42"/>
<path d="M13.6619 8.8501C13.6619 8.8501 4.84239 27.5425 13.1093 55.3917C13.1093 55.3917 22.845 30.9307 13.6619 8.8501Z" fill="#C9D070"/>
<path d="M13.6111 8.92871C12.8185 10.7372 5.29324 28.9007 13.1312 55.3059C13.1312 55.3059 13.3202 54.8341 13.6111 53.9834V8.92871Z" fill="#78AC42"/>
<path d="M13.6837 71.7967C6.12205 71.7967 0 65.1632 0 56.9786V42.3748H27.1711V57.193C27.0693 65.2346 21.0927 71.7109 13.6837 71.7967Z" fill="#ED9B21"/>
<path d="M13.611 42.3748V71.7967C21.1145 71.7967 27.2002 65.2133 27.2002 57.0858V42.3748H13.611Z" fill="#C96928"/>
<path d="M55.2075 15.2835C55.2075 15.2835 71.0579 15.1691 70.3963 1.25165C70.3963 1.25165 58.2612 -3.53761 55.2075 15.2835Z" fill="#C9D070"/>
<path d="M55.2729 14.8975L55.2075 15.2835C55.2075 15.2835 71.0579 15.1691 70.3963 1.25167L70.1345 1.16589L55.2729 14.8975Z" fill="#78AC42"/>
<path d="M55.4256 32.1102C55.4256 32.1102 68.7966 36.3991 71.5305 24.5117C71.5305 24.5117 62.4492 17.1134 55.4256 32.1102Z" fill="#C9D070"/>
<path d="M55.571 31.8028C55.5274 31.9029 55.4765 32.0101 55.4256 32.1102C55.3747 32.2102 68.7966 36.3991 71.5305 24.5117L71.3342 24.3616L55.571 31.8028Z" fill="#78AC42"/>
<path d="M53.6006 19.6796C53.6006 19.6796 41.1166 19.5795 41.6328 8.6214C41.6328 8.6214 51.194 4.84721 53.6006 19.6796Z" fill="#C9D070"/>
<path d="M53.5497 19.3721C53.5497 19.4722 53.5861 19.5723 53.6006 19.6796C53.6151 19.7868 41.1166 19.5795 41.6328 8.62133L41.8364 8.54987L53.5497 19.3721Z" fill="#78AC42"/>
<path d="M53.8332 38.2003C53.8332 38.2003 36.6959 43.7044 33.1986 28.4575C33.1986 28.4646 44.8319 18.9863 53.8332 38.2003Z" fill="#C9D070"/>
<path d="M53.6369 37.8071L53.8332 38.2075C53.8332 38.2075 36.6959 43.7115 33.1986 28.4645L33.4458 28.2787L53.6369 37.8071Z" fill="#78AC42"/>
<path d="M54.4585 2.16663C54.8538 2.16663 55.233 2.32099 55.5125 2.5958C55.792 2.87061 55.9491 3.24335 55.9491 3.63199V53.669H52.968V3.63199C52.968 3.24335 53.1251 2.87061 53.4046 2.5958C53.6841 2.32099 54.0632 2.16663 54.4585 2.16663Z" fill="#78AC42"/>
<path d="M54.5531 71.7967C46.9987 71.7967 40.8694 65.1632 40.8694 56.9786V42.3748H68.0405V57.193C67.9387 65.2346 61.9621 71.7109 54.5531 71.7967Z" fill="#ED9B21"/>
<path d="M54.4586 42.3748V71.7967C61.9621 71.7967 68.0405 65.2133 68.0405 57.0858V42.3748H54.4586Z" fill="#C96928"/>
</svg>
