<svg width="276" height="199" viewBox="0 0 276 199" fill="none" xmlns="http://www.w3.org/2000/svg">
<path d="M19.4646 112.355H7.75136C6.0849 112.355 4.73395 113.683 4.73395 115.321V124.843C4.73395 126.481 6.0849 127.809 7.75136 127.809H19.4646C21.1311 127.809 22.4821 126.481 22.4821 124.843V115.321C22.4821 113.683 21.1311 112.355 19.4646 112.355Z" fill="#C9D070"/>
<path d="M233.351 116.308C233.351 116.308 203.657 158.625 199.113 162.356C197.542 163.657 194.503 164.236 190.984 164.451C190.933 164.372 190.882 164.293 190.838 164.215L190.744 164.029C190.713 163.979 190.686 163.926 190.664 163.872C190.628 163.802 190.596 163.73 190.569 163.657L190.482 163.436C190.431 163.293 190.388 163.15 190.344 162.999C190.323 162.936 190.306 162.872 190.293 162.807C190.257 162.649 190.22 162.485 190.199 162.313C190.162 162.12 190.14 161.924 190.133 161.727V161.591C190.133 161.441 190.133 161.305 190.133 161.162C190.133 160.798 190.133 160.448 190.133 160.076C190.129 160.035 190.129 159.995 190.133 159.954C190.133 159.747 190.133 159.54 190.133 159.325C190.133 158.975 190.133 158.611 190.184 158.289V158.217L190.249 157.317C190.249 157.195 190.249 157.081 190.249 156.959C190.249 156.595 190.308 156.245 190.344 155.866C190.344 155.794 190.344 155.723 190.344 155.658L190.453 154.736C190.453 154.615 190.453 154.486 190.497 154.372C190.54 154.007 190.584 153.657 190.642 153.292C190.7 152.928 190.744 152.578 190.809 152.199C190.809 152.084 190.809 151.97 190.86 151.863C190.904 151.591 190.955 151.334 190.998 151.069L191.086 150.64C191.122 150.44 191.165 150.24 191.209 150.033C191.282 149.632 191.369 149.239 191.464 148.846C191.558 148.453 191.645 148.06 191.747 147.674C191.849 147.288 191.922 147.009 192.009 146.687C197.637 126.122 214.483 115.729 231.533 115.422H232.696L233.351 116.308Z" fill="#C9D070"/>
<path d="M2.47988 152.442C2.18749 152.417 1.90319 152.335 1.64398 152.199C1.38478 152.064 1.15604 151.879 0.971394 151.654C0.786747 151.43 0.649943 151.172 0.569332 150.894C0.488721 150.617 0.465939 150.326 0.502233 150.04C1.9564 139.189 8.9655 102.805 37.5035 96.3287C71.1311 88.7017 128.622 88.187 129.116 88.1084C130.207 87.9368 133.195 89.6238 132.504 94.8705C132.082 98.0515 93.5471 124.664 135.522 145.022C142.065 148.203 161.18 148.446 169.789 146.452C173.177 145.651 198.494 146.916 202.021 98.7805C202.748 88.8518 184.309 57.4714 177.947 43.5683C177.053 41.6025 175.482 36.7346 178.071 34.9905C180.659 33.2463 191.42 26.6272 196.248 24.64C198.393 23.7679 203.758 22.5313 205.54 24.9045C207.321 27.2776 206.667 44.133 203.911 46.2202C201.155 48.3075 197.367 48.9079 196.102 51.1382C195.804 51.6457 217.188 91.2393 217.188 91.2393C217.188 91.2393 226.487 94.8634 225.854 104.485C225.854 104.957 233.358 116.372 233.358 116.372C233.358 116.372 203.657 158.682 199.12 162.428C194.583 166.173 177.838 163.972 172.414 163.972C168.328 163.972 77.0859 166.745 77.0859 166.745C77.0859 166.745 73.4505 153.542 69.6042 149.754C66.5722 146.716 16.2799 153.392 2.47988 152.442Z" fill="#C9D070"/>
<path d="M127.996 92.0041C106.853 95.4495 38.2163 102.19 26.3139 102.19C23.0348 102.19 23.7327 95.3995 21.8059 90.2599C20.8753 87.7867 19.4212 84.2984 19.7629 81.8466C57.5276 86.22 95.7398 85.1436 133.188 78.6514C134.197 79.9941 134.885 81.5431 135.202 83.1833C135.856 86.936 133.137 91.1463 127.996 92.0041Z" fill="#C86927"/>
<path d="M133.166 78.6371C95.7179 85.1293 57.5057 86.2058 19.741 81.8323C19.741 81.7537 19.741 81.675 19.741 81.6036C19.741 81.5321 19.741 81.482 19.7919 81.4177C20.5626 79.0231 27.3681 76.6785 30.7709 76.3711C45.2253 75.0844 51.769 73.4546 65.998 75.3703C85.1421 77.9508 104.853 73.0329 124.637 74.148C127.365 74.2616 129.954 75.3612 131.908 77.236C132.363 77.6709 132.784 78.1393 133.166 78.6371Z" fill="#C86927"/>
<path d="M45.2543 197.74C64.1637 197.74 79.4928 182.669 79.4928 164.079C79.4928 145.489 64.1637 130.418 45.2543 130.418C26.345 130.418 11.0159 145.489 11.0159 164.079C11.0159 182.669 26.345 197.74 45.2543 197.74Z" fill="#08151B"/>
<path d="M45.2544 188.483C58.9635 188.483 70.077 177.557 70.077 164.079C70.077 150.601 58.9635 139.675 45.2544 139.675C31.5452 139.675 20.4318 150.601 20.4318 164.079C20.4318 177.557 31.5452 188.483 45.2544 188.483Z" fill="#E8D6A4" stroke="#F7F4D3" stroke-width="3" stroke-miterlimit="10"/>
<path d="M45.2543 182.514C55.6105 182.514 64.0059 174.26 64.0059 164.079C64.0059 153.897 55.6105 145.644 45.2543 145.644C34.8981 145.644 26.5028 153.897 26.5028 164.079C26.5028 174.26 34.8981 182.514 45.2543 182.514Z" fill="#E8D6A4" stroke="#08151B" stroke-width="5" stroke-miterlimit="10"/>
<path d="M45.2543 171.391C49.3623 171.391 52.6925 168.117 52.6925 164.079C52.6925 160.04 49.3623 156.766 45.2543 156.766C41.1463 156.766 37.8162 160.04 37.8162 164.079C37.8162 168.117 41.1463 171.391 45.2543 171.391Z" fill="#08151B" stroke="#F7F4D3" stroke-width="3" stroke-miterlimit="10"/>
<path d="M46.8102 185.645C46.8102 185.947 46.719 186.243 46.548 186.495C46.3771 186.746 46.134 186.942 45.8497 187.058C45.5654 187.174 45.2526 187.204 44.9508 187.145C44.649 187.086 44.3718 186.94 44.1542 186.726C43.9366 186.513 43.7884 186.24 43.7284 185.943C43.6683 185.647 43.6992 185.339 43.8169 185.059C43.9347 184.78 44.1341 184.541 44.39 184.373C44.6459 184.205 44.9466 184.115 45.2543 184.115C45.667 184.115 46.0628 184.276 46.3545 184.563C46.6463 184.85 46.8102 185.239 46.8102 185.645Z" fill="#08151B"/>
<path d="M30.8436 180.412C30.6271 180.629 30.35 180.777 30.0474 180.838C29.7448 180.9 29.4305 180.871 29.1446 180.756C28.8587 180.641 28.6141 180.445 28.4419 180.193C28.2697 179.941 28.1779 179.644 28.1779 179.34C28.1779 179.036 28.2697 178.74 28.4419 178.487C28.6141 178.235 28.8587 178.039 29.1446 177.924C29.4305 177.809 29.7448 177.781 30.0474 177.842C30.35 177.903 30.6271 178.051 30.8436 178.268C30.987 178.409 31.1007 178.576 31.1783 178.76C31.2558 178.944 31.2958 179.141 31.2958 179.34C31.2958 179.539 31.2558 179.737 31.1783 179.92C31.1007 180.104 30.987 180.272 30.8436 180.412Z" fill="#08151B"/>
<path d="M23.2963 165.63C22.9886 165.63 22.6877 165.54 22.4319 165.372C22.176 165.204 21.9766 164.965 21.8589 164.686C21.7411 164.406 21.7103 164.099 21.7703 163.802C21.8303 163.505 21.9785 163.233 22.1961 163.019C22.4137 162.805 22.691 162.659 22.9928 162.6C23.2946 162.541 23.6075 162.571 23.8918 162.687C24.1761 162.803 24.419 162.999 24.59 163.25C24.7609 163.502 24.8522 163.798 24.8522 164.1C24.8522 164.506 24.6883 164.895 24.3965 165.182C24.1047 165.469 23.709 165.63 23.2963 165.63Z" fill="#08151B"/>
<path d="M28.6477 149.904C28.4274 149.691 28.2765 149.419 28.2143 149.121C28.152 148.824 28.1813 148.515 28.2982 148.234C28.4152 147.953 28.6146 147.712 28.8711 147.543C29.1275 147.374 29.4294 147.283 29.7383 147.283C30.0472 147.283 30.349 147.374 30.6055 147.543C30.8619 147.712 31.0614 147.953 31.1784 148.234C31.2954 148.515 31.3245 148.824 31.2623 149.121C31.2 149.419 31.0492 149.691 30.8289 149.904C30.537 150.184 30.1457 150.34 29.7383 150.34C29.3309 150.34 28.9395 150.184 28.6477 149.904Z" fill="#08151B"/>
<path d="M43.6984 142.513C43.6969 142.208 43.7876 141.91 43.9588 141.656C44.13 141.403 44.374 141.204 44.66 141.087C44.9459 140.97 45.2608 140.939 45.5648 140.998C45.8687 141.057 46.1479 141.204 46.367 141.419C46.586 141.634 46.735 141.909 46.7951 142.208C46.8552 142.506 46.8237 142.816 46.7045 143.097C46.5853 143.378 46.3837 143.618 46.1255 143.787C45.8673 143.955 45.5641 144.044 45.2543 144.043C44.8416 144.043 44.4459 143.881 44.1541 143.595C43.8623 143.308 43.6984 142.919 43.6984 142.513Z" fill="#08151B"/>
<path d="M59.6506 147.76C59.8671 147.543 60.1442 147.395 60.4468 147.333C60.7493 147.272 61.0636 147.301 61.3495 147.416C61.6354 147.531 61.88 147.727 62.0521 147.979C62.2243 148.231 62.3162 148.528 62.3162 148.832C62.3162 149.136 62.2243 149.432 62.0521 149.684C61.88 149.937 61.6354 150.133 61.3495 150.248C61.0636 150.363 60.7493 150.391 60.4468 150.33C60.1442 150.269 59.8671 150.121 59.6506 149.904C59.3664 149.617 59.2073 149.232 59.2073 148.832C59.2073 148.431 59.3664 148.047 59.6506 147.76Z" fill="#08151B"/>
<path d="M67.1978 162.549C67.5056 162.549 67.8065 162.639 68.0624 162.807C68.3183 162.975 68.5177 163.214 68.6354 163.493C68.7532 163.773 68.7841 164.081 68.724 164.377C68.664 164.674 68.5158 164.947 68.2981 165.161C68.0805 165.375 67.8032 165.52 67.5014 165.579C67.1995 165.638 66.8867 165.608 66.6023 165.492C66.318 165.376 66.075 165.18 65.904 164.929C65.733 164.677 65.6417 164.381 65.6417 164.079C65.6417 163.878 65.682 163.679 65.7602 163.493C65.8384 163.308 65.953 163.139 66.0975 162.997C66.242 162.855 66.4135 162.742 66.6023 162.666C66.7911 162.589 66.9935 162.549 67.1978 162.549Z" fill="#08151B"/>
<path d="M61.8681 178.247C62.0884 178.459 62.2392 178.732 62.3015 179.029C62.3637 179.327 62.3345 179.636 62.2175 179.917C62.1005 180.198 61.9012 180.438 61.6447 180.608C61.3883 180.777 61.0864 180.867 60.7775 180.867C60.4686 180.867 60.1667 180.777 59.9102 180.608C59.6538 180.438 59.4544 180.198 59.3374 179.917C59.2205 179.636 59.1912 179.327 59.2535 179.029C59.3157 178.732 59.4666 178.459 59.6869 178.247C59.9779 177.965 60.3695 177.808 60.7775 177.808C61.1855 177.808 61.5771 177.965 61.8681 178.247Z" fill="#08151B"/>
<path d="M37.6055 150.09C34.549 151.94 32.1648 154.692 30.7927 157.953C30.1201 159.576 29.8177 161.324 29.9069 163.074C29.9961 164.824 30.4747 166.533 31.3089 168.082C31.0252 164.817 31.4388 161.53 32.5231 158.432C33.6074 155.333 35.3386 152.492 37.6055 150.09Z" fill="#F7F4D3"/>
<path d="M32.9301 171.963C32.752 172.043 32.5977 172.166 32.4823 172.321C32.3669 172.476 32.2942 172.658 32.2713 172.849C32.2485 173.04 32.2762 173.233 32.3518 173.41C32.4274 173.588 32.5483 173.743 32.7029 173.86C32.8574 173.978 33.0402 174.055 33.2337 174.083C33.4272 174.11 33.6246 174.089 33.807 174.019C33.9893 173.95 34.1504 173.835 34.2744 173.687C34.3985 173.538 34.4815 173.361 34.5151 173.171C34.5346 172.975 34.5032 172.778 34.4239 172.597C34.3446 172.416 34.22 172.258 34.0617 172.137C33.9034 172.017 33.7166 171.937 33.5187 171.907C33.3208 171.877 33.1183 171.896 32.9301 171.963Z" fill="#F7F4D3"/>
<path d="M60.0505 159.118C60.8178 162.025 60.6135 165.098 59.4679 167.882C58.3223 170.667 56.2961 173.015 53.6887 174.58C55.3018 174.034 56.7757 173.151 58.0093 171.993C59.243 170.834 60.2071 169.427 60.8357 167.867C62.0717 164.744 61.8318 161.098 60.0505 159.118Z" fill="#F7F4D3"/>
<path d="M233.351 197.74C252.26 197.74 267.589 182.669 267.589 164.079C267.589 145.489 252.26 130.418 233.351 130.418C214.441 130.418 199.112 145.489 199.112 164.079C199.112 182.669 214.441 197.74 233.351 197.74Z" fill="#08151B"/>
<path d="M233.351 188.483C247.06 188.483 258.173 177.557 258.173 164.079C258.173 150.601 247.06 139.675 233.351 139.675C219.642 139.675 208.528 150.601 208.528 164.079C208.528 177.557 219.642 188.483 233.351 188.483Z" fill="#E8D6A4" stroke="#F7F4D3" stroke-width="3" stroke-miterlimit="10"/>
<path d="M233.351 182.514C243.707 182.514 252.102 174.26 252.102 164.079C252.102 153.897 243.707 145.644 233.351 145.644C222.995 145.644 214.599 153.897 214.599 164.079C214.599 174.26 222.995 182.514 233.351 182.514Z" fill="#E8D6A4" stroke="#08151B" stroke-width="5" stroke-miterlimit="10"/>
<path d="M233.351 171.391C237.459 171.391 240.789 168.117 240.789 164.079C240.789 160.04 237.459 156.766 233.351 156.766C229.243 156.766 225.913 160.04 225.913 164.079C225.913 168.117 229.243 171.391 233.351 171.391Z" fill="#08151B" stroke="#F7F4D3" stroke-width="3" stroke-miterlimit="10"/>
<path d="M234.914 185.645C234.915 185.949 234.825 186.247 234.654 186.501C234.483 186.754 234.24 186.952 233.954 187.07C233.669 187.187 233.354 187.219 233.05 187.16C232.747 187.102 232.467 186.956 232.248 186.741C232.029 186.527 231.879 186.253 231.818 185.954C231.757 185.656 231.788 185.347 231.906 185.066C232.024 184.784 232.224 184.544 232.482 184.375C232.739 184.205 233.041 184.115 233.351 184.115C233.764 184.115 234.161 184.276 234.454 184.563C234.747 184.849 234.912 185.239 234.914 185.645Z" fill="#08151B"/>
<path d="M218.94 180.412C218.724 180.629 218.446 180.777 218.144 180.838C217.841 180.9 217.527 180.871 217.241 180.756C216.955 180.641 216.711 180.445 216.539 180.193C216.366 179.941 216.274 179.644 216.274 179.34C216.274 179.036 216.366 178.74 216.539 178.487C216.711 178.235 216.955 178.039 217.241 177.924C217.527 177.809 217.841 177.781 218.144 177.842C218.446 177.903 218.724 178.051 218.94 178.268C219.226 178.554 219.386 178.939 219.386 179.34C219.386 179.741 219.226 180.126 218.94 180.412Z" fill="#08151B"/>
<path d="M211.415 165.63C211.107 165.63 210.806 165.54 210.55 165.372C210.294 165.204 210.095 164.965 209.977 164.686C209.859 164.406 209.829 164.099 209.889 163.802C209.949 163.505 210.097 163.233 210.315 163.019C210.532 162.805 210.809 162.659 211.111 162.6C211.413 162.541 211.726 162.571 212.01 162.687C212.295 162.803 212.538 162.999 212.709 163.25C212.879 163.502 212.971 163.798 212.971 164.1C212.971 164.506 212.807 164.895 212.515 165.182C212.223 165.469 211.827 165.63 211.415 165.63Z" fill="#08151B"/>
<path d="M216.744 149.904C216.524 149.691 216.373 149.419 216.311 149.121C216.248 148.824 216.278 148.515 216.395 148.234C216.512 147.953 216.711 147.712 216.968 147.543C217.224 147.374 217.526 147.283 217.835 147.283C218.144 147.283 218.446 147.374 218.702 147.543C218.959 147.712 219.158 147.953 219.275 148.234C219.392 148.515 219.421 148.824 219.359 149.121C219.297 149.419 219.146 149.691 218.925 149.904C218.634 150.184 218.242 150.34 217.835 150.34C217.427 150.34 217.036 150.184 216.744 149.904Z" fill="#08151B"/>
<path d="M231.795 142.513C231.795 142.21 231.886 141.915 232.057 141.663C232.228 141.412 232.471 141.215 232.755 141.1C233.04 140.984 233.353 140.954 233.654 141.013C233.956 141.072 234.234 141.217 234.451 141.431C234.669 141.645 234.817 141.918 234.877 142.215C234.937 142.511 234.906 142.819 234.788 143.098C234.671 143.378 234.471 143.617 234.215 143.785C233.959 143.953 233.659 144.043 233.351 144.043C232.938 144.043 232.542 143.882 232.251 143.595C231.959 143.308 231.795 142.919 231.795 142.513Z" fill="#08151B"/>
<path d="M247.762 147.76C247.978 147.543 248.255 147.395 248.558 147.333C248.861 147.272 249.175 147.301 249.461 147.416C249.746 147.531 249.991 147.727 250.163 147.979C250.335 148.231 250.427 148.528 250.427 148.832C250.427 149.136 250.335 149.432 250.163 149.684C249.991 149.937 249.746 150.133 249.461 150.248C249.175 150.363 248.861 150.391 248.558 150.33C248.255 150.269 247.978 150.121 247.762 149.904C247.477 149.617 247.318 149.232 247.318 148.832C247.318 148.431 247.477 148.047 247.762 147.76Z" fill="#08151B"/>
<path d="M255.287 162.549C255.595 162.549 255.896 162.639 256.151 162.807C256.407 162.975 256.607 163.214 256.725 163.493C256.842 163.773 256.873 164.081 256.813 164.377C256.753 164.674 256.605 164.947 256.387 165.161C256.17 165.375 255.892 165.52 255.591 165.579C255.289 165.638 254.976 165.608 254.691 165.492C254.407 165.376 254.164 165.18 253.993 164.929C253.822 164.677 253.731 164.381 253.731 164.079C253.731 163.878 253.771 163.679 253.849 163.493C253.927 163.308 254.042 163.139 254.187 162.997C254.331 162.855 254.503 162.742 254.691 162.666C254.88 162.589 255.083 162.549 255.287 162.549Z" fill="#08151B"/>
<path d="M249.965 178.247C250.185 178.459 250.336 178.732 250.398 179.029C250.46 179.327 250.431 179.636 250.314 179.917C250.197 180.198 249.998 180.438 249.741 180.608C249.485 180.777 249.183 180.867 248.874 180.867C248.565 180.867 248.263 180.777 248.007 180.608C247.75 180.438 247.551 180.198 247.434 179.917C247.317 179.636 247.288 179.327 247.35 179.029C247.412 178.732 247.563 178.459 247.783 178.247C248.074 177.965 248.466 177.808 248.874 177.808C249.282 177.808 249.674 177.965 249.965 178.247Z" fill="#08151B"/>
<path d="M225.702 150.09C222.644 151.938 220.259 154.691 218.889 157.953C218.217 159.576 217.914 161.324 218.003 163.074C218.093 164.824 218.571 166.533 219.405 168.082C219.122 164.817 219.535 161.53 220.62 158.432C221.704 155.333 223.435 152.492 225.702 150.09Z" fill="#F7F4D3"/>
<path d="M221.063 171.963C220.885 172.043 220.731 172.166 220.615 172.321C220.5 172.476 220.427 172.658 220.405 172.849C220.382 173.04 220.409 173.233 220.485 173.41C220.561 173.588 220.681 173.743 220.836 173.86C220.991 173.978 221.173 174.055 221.367 174.083C221.56 174.11 221.758 174.089 221.94 174.019C222.122 173.95 222.283 173.835 222.408 173.687C222.532 173.538 222.615 173.361 222.648 173.171C222.668 172.975 222.636 172.778 222.557 172.597C222.478 172.416 222.353 172.258 222.195 172.137C222.036 172.017 221.85 171.937 221.652 171.907C221.454 171.877 221.251 171.896 221.063 171.963Z" fill="#F7F4D3"/>
<path d="M248.147 159.118C248.914 162.025 248.71 165.098 247.564 167.882C246.419 170.667 244.393 173.015 241.785 174.58C243.398 174.034 244.872 173.151 246.106 171.993C247.34 170.834 248.304 169.427 248.932 167.867C250.146 164.744 249.914 161.098 248.147 159.118Z" fill="#F7F4D3"/>
<path d="M233.351 116.308C233.351 116.308 203.657 158.625 199.113 162.356C197.542 163.657 194.503 164.236 190.984 164.451C190.933 164.372 190.882 164.293 190.838 164.215L190.744 164.029C190.713 163.979 190.686 163.926 190.664 163.872C190.628 163.802 190.596 163.73 190.569 163.657L190.482 163.436C190.431 163.293 190.388 163.15 190.344 162.999C190.323 162.936 190.306 162.872 190.293 162.807C190.257 162.649 190.22 162.485 190.199 162.313C190.162 162.12 190.14 161.924 190.133 161.727V161.591C190.133 161.441 190.133 161.305 190.133 161.162C190.133 160.798 190.133 160.448 190.133 160.076C190.129 160.035 190.129 159.995 190.133 159.954C190.133 159.747 190.133 159.54 190.133 159.325C190.133 158.975 190.133 158.611 190.184 158.289V158.217L190.249 157.317C190.249 157.195 190.249 157.081 190.249 156.959C190.249 156.595 190.308 156.245 190.344 155.866C190.344 155.794 190.344 155.723 190.344 155.658L190.453 154.736C190.453 154.615 190.453 154.486 190.497 154.372C190.54 154.007 190.584 153.657 190.642 153.292C190.7 152.928 190.744 152.578 190.809 152.199C190.809 152.084 190.809 151.97 190.86 151.863C190.904 151.591 190.955 151.334 190.998 151.069L191.086 150.64C191.122 150.44 191.165 150.24 191.209 150.033C191.282 149.632 191.369 149.239 191.464 148.846C191.558 148.453 191.645 148.06 191.747 147.674C191.849 147.288 191.922 147.009 192.009 146.687C197.637 126.122 214.483 115.729 231.533 115.422H232.696L233.351 116.308Z" fill="#78AB42"/>
<path d="M275.878 161.248V161.498C275.878 161.556 275.878 161.613 275.878 161.663V161.806C275.878 161.999 275.842 162.192 275.813 162.378C275.791 162.542 275.757 162.704 275.711 162.864C275.7 162.929 275.685 162.993 275.667 163.057C275.623 163.2 275.58 163.343 275.522 163.486C275.464 163.629 275.464 163.629 275.434 163.7C275.434 163.772 275.369 163.843 275.34 163.907C275.315 163.962 275.286 164.015 275.253 164.065L275.165 164.243L274.998 164.508L274.86 164.708L274.729 164.872C274.441 165.24 274.1 165.565 273.719 165.837C273.666 165.88 273.61 165.918 273.551 165.952C273.434 166.032 273.313 166.106 273.188 166.173L273.042 166.252C272.553 166.502 272.025 166.672 271.479 166.752C271.34 166.775 271.199 166.787 271.057 166.788C270.869 166.802 270.679 166.802 270.49 166.788C270.329 166.782 270.169 166.765 270.01 166.738H269.909C269.837 166.731 269.766 166.716 269.698 166.695C269.511 166.657 269.329 166.602 269.152 166.531L268.913 166.438C268.718 166.351 268.528 166.253 268.345 166.145L268.156 166.016C267.894 165.852 267.65 165.66 267.429 165.444L267.211 165.223C267.138 165.144 267.066 165.065 267 164.98C266.935 164.894 266.862 164.801 266.797 164.715C249.659 141.777 217.071 141.748 199.905 164.715L199.701 164.98C199.636 165.065 199.563 165.144 199.491 165.223L199.272 165.444C199.05 165.658 198.806 165.85 198.545 166.016C198.48 166.059 198.414 166.109 198.349 166.145C198.169 166.255 197.982 166.353 197.789 166.438L197.549 166.531C197.37 166.6 197.185 166.654 196.997 166.695C196.93 166.716 196.862 166.731 196.793 166.738H196.691C196.533 166.765 196.372 166.782 196.211 166.788C196.023 166.802 195.833 166.802 195.644 166.788C195.501 166.787 195.357 166.775 195.215 166.752C194.672 166.67 194.147 166.501 193.659 166.252L193.514 166.173C193.388 166.108 193.266 166.034 193.15 165.952C193.092 165.918 193.036 165.88 192.983 165.837C192.781 165.696 192.591 165.538 192.416 165.366L192.256 165.208C192.154 165.103 192.059 164.991 191.972 164.872L191.842 164.708L191.703 164.508L191.536 164.243L191.442 164.065L191.362 163.907C191.362 163.843 191.296 163.772 191.267 163.7C191.232 163.631 191.203 163.559 191.18 163.486C191.122 163.343 191.078 163.2 191.035 163.057C190.991 162.914 191.035 162.928 190.984 162.864C190.933 162.799 190.911 162.542 190.889 162.378C190.856 162.188 190.834 161.998 190.824 161.806V161.663C190.824 161.52 190.824 161.384 190.824 161.248C190.824 160.891 190.824 160.533 190.824 160.176V160.062V159.447C190.824 159.104 190.824 158.732 190.875 158.425V158.36L190.94 157.474C190.94 157.353 190.94 157.238 190.94 157.124C190.94 156.759 190.998 156.409 191.035 156.044V155.837C191.035 155.537 191.1 155.237 191.136 154.936L191.18 154.579C191.224 154.222 191.274 153.864 191.325 153.521C191.376 153.178 191.434 152.806 191.493 152.449C191.493 152.334 191.493 152.227 191.551 152.113C191.594 151.856 191.638 151.591 191.689 151.334C191.689 151.191 191.74 151.055 191.776 150.912C191.813 150.769 191.849 150.519 191.893 150.319C191.973 149.926 192.06 149.54 192.154 149.154C192.249 148.768 192.336 148.382 192.438 148.003C192.54 147.624 192.612 147.352 192.7 147.031C198.349 126.83 215.275 116.629 232.391 116.294H233.256H234.129C251.23 116.658 268.149 126.923 273.82 147.031C273.915 147.352 273.995 147.674 274.082 148.003C274.169 148.332 274.278 148.76 274.366 149.154C274.453 149.547 274.504 149.747 274.569 150.047C274.635 150.347 274.693 150.626 274.751 150.912C274.751 151.019 274.795 151.134 274.809 151.241C274.867 151.527 274.918 151.82 274.969 152.113C274.969 152.177 274.969 152.242 274.969 152.313C275.035 152.706 275.1 153.114 275.158 153.521C275.216 153.929 275.274 154.336 275.325 154.758C275.376 155.179 275.405 155.473 275.449 155.837V156.044L275.558 157.274C275.558 157.638 275.609 157.989 275.638 158.36V158.425C275.638 158.754 275.638 159.097 275.689 159.433V160.09V160.169C275.871 160.526 275.878 160.891 275.878 161.248Z" fill="#C9D070"/>
<path d="M207.867 156.388C207.358 140.662 218.046 128.51 232.791 128.51C250.495 128.51 258.857 141.326 258.857 156.509" stroke="#78AB42" stroke-width="3" stroke-miterlimit="10"/>
<path d="M228.385 141.226C229.116 141.226 229.708 140.644 229.708 139.925C229.708 139.207 229.116 138.624 228.385 138.624C227.654 138.624 227.061 139.207 227.061 139.925C227.061 140.644 227.654 141.226 228.385 141.226Z" fill="#08151B"/>
<path d="M238.324 141.226C239.055 141.226 239.648 140.644 239.648 139.925C239.648 139.207 239.055 138.624 238.324 138.624C237.593 138.624 237.001 139.207 237.001 139.925C237.001 140.644 237.593 141.226 238.324 141.226Z" fill="#08151B"/>
<path d="M112.175 132.834C112.18 137.773 110.778 142.614 108.128 146.809C105.478 151.005 101.687 154.387 97.1827 156.573C88.5376 160.762 29.9782 160.212 9.88161 159.897C9.08024 159.881 8.29397 159.68 7.58692 159.308C6.87988 158.937 6.27201 158.407 5.81279 157.761C5.35357 157.115 5.05601 156.372 4.94432 155.592C4.83263 154.811 4.90994 154.016 5.17002 153.271C17.4868 117.101 38.1725 105.142 56.9604 102.662C72.7672 100.575 84.735 100.56 95.0887 105.521C102.352 109.024 112.175 120.74 112.175 132.834Z" fill="#78AB42"/>
<path d="M112.175 133.306C112.176 138.194 110.782 142.984 108.151 147.132C105.52 151.279 101.757 154.617 97.2916 156.766C88.7193 160.905 30.5889 160.34 10.6378 160.047C9.84529 160.034 9.06731 159.836 8.36715 159.471C7.667 159.106 7.06454 158.583 6.60882 157.946C6.15311 157.308 5.85699 156.574 5.7447 155.802C5.63242 155.031 5.70714 154.244 5.96268 153.507C18.1922 117.766 38.6814 105.943 57.3674 103.47C73.0652 101.404 84.9385 101.39 95.2122 106.329C102.425 109.782 112.175 121.354 112.175 133.306Z" fill="#C9D070"/>
<path d="M55.6152 142.684H34.9079C34.4783 142.684 34.13 143.027 34.13 143.449C34.13 143.872 34.4783 144.214 34.9079 144.214H55.6152C56.0448 144.214 56.3932 143.872 56.3932 143.449C56.3932 143.027 56.0448 142.684 55.6152 142.684Z" fill="#08151B"/>
<path d="M55.6152 147.088H34.9079C34.4783 147.088 34.13 147.43 34.13 147.853C34.13 148.275 34.4783 148.617 34.9079 148.617H55.6152C56.0448 148.617 56.3932 148.275 56.3932 147.853C56.3932 147.43 56.0448 147.088 55.6152 147.088Z" fill="#08151B"/>
<path d="M55.6152 151.677H34.9079C34.4783 151.677 34.13 152.019 34.13 152.442C34.13 152.864 34.4783 153.207 34.9079 153.207H55.6152C56.0448 153.207 56.3932 152.864 56.3932 152.442C56.3932 152.019 56.0448 151.677 55.6152 151.677Z" fill="#08151B"/>
<path d="M19.9518 160.262C19.9518 151.455 22.5765 139.268 31.0035 133.914C35.265 131.295 40.2001 129.932 45.2252 129.983C50.2503 130.035 55.1552 131.501 59.3598 134.207C67.6777 139.732 70.1135 149.468 70.5715 159.876" stroke="#78AB42" stroke-width="3" stroke-miterlimit="10"/>
<path d="M155.433 159.76C154.843 158.633 153.436 158.19 152.289 158.77C151.143 159.35 150.693 160.734 151.283 161.86L169.424 196.504C170.014 197.63 171.421 198.074 172.567 197.494C173.713 196.913 174.164 195.53 173.574 194.403L155.433 159.76Z" fill="#08151B"/>
<path d="M181.517 157.331H89.0467C86.3804 157.331 84.2189 159.455 84.2189 162.074C84.2189 164.693 86.3804 166.817 89.0467 166.817H181.517C184.183 166.817 186.345 164.693 186.345 162.074C186.345 159.455 184.183 157.331 181.517 157.331Z" fill="#E8D6A4"/>
<path d="M193.129 12.1664L192.99 37.092L190.86 37.0777L190.984 14.2465L171.374 14.1465L171.382 12.0449L193.027 12.1593V12.1664H193.129Z" fill="#08151B"/>
<path d="M170.291 0.843765L177.889 23.8894C177.958 24.1273 177.935 24.3822 177.824 24.6042C177.809 24.6459 177.787 24.6846 177.758 24.7185C177.358 25.3143 176.75 25.7462 176.049 25.9337C175.489 26.126 174.887 26.168 174.304 26.0552C174.137 26.0174 173.975 25.9573 173.825 25.8765C173.752 25.8422 173.686 25.7963 173.628 25.7407C173.485 25.6293 173.377 25.4807 173.316 25.3118L165.718 2.26628C165.663 2.09158 165.663 1.90486 165.718 1.73017C165.718 1.65869 165.768 1.58717 165.798 1.51569C165.988 1.18959 166.242 0.903685 166.546 0.674311C166.849 0.444938 167.195 0.27661 167.564 0.178995C168.128 -0.011212 168.733 -0.0506651 169.317 0.0646441C169.439 0.0932822 169.559 0.133982 169.673 0.18615L169.789 0.243347C169.909 0.306134 170.015 0.391492 170.101 0.494518C170.187 0.597543 170.252 0.716193 170.291 0.843765Z" fill="#08151B"/>
<path d="M191.624 44.4617C194.539 44.4617 196.902 42.1383 196.902 39.2722C196.902 36.4061 194.539 34.0826 191.624 34.0826C188.708 34.0826 186.345 36.4061 186.345 39.2722C186.345 42.1383 188.708 44.4617 191.624 44.4617Z" fill="#08151B"/>
<path d="M214.04 35.0834C214.04 40.7162 210.862 45.3625 206.769 46.0702C206.868 45.8852 206.921 45.6791 206.921 45.4698V24.69C206.921 24.482 206.866 24.2776 206.761 24.0967C210.884 24.8115 214.04 29.4507 214.04 35.0834Z" fill="#E8D6A4"/>
<path d="M226.298 95.328C228.428 98.8377 228.479 102.741 226.494 104.485C226.483 104.338 226.436 104.195 226.356 104.07L218.504 91.132C218.427 91.0039 218.323 90.894 218.198 90.8104C220.692 89.9383 224.175 91.8254 226.298 95.328Z" fill="#E8D6A4"/>
<path d="M218.504 91.1321L226.356 104.07C226.435 104.195 226.483 104.338 226.494 104.485C226.498 104.506 226.498 104.528 226.494 104.549C226.499 104.682 226.469 104.814 226.407 104.932C226.344 105.049 226.252 105.149 226.138 105.221C226.047 105.274 225.945 105.306 225.839 105.316C225.734 105.326 225.627 105.313 225.527 105.278C225.452 105.255 225.381 105.221 225.316 105.178L225.215 105.1C225.131 105.03 225.06 104.948 225.004 104.856L217.151 91.9183C217.096 91.8279 217.057 91.7288 217.035 91.6252V91.4966C217.015 91.3569 217.037 91.2145 217.1 91.0873C217.162 90.9601 217.261 90.8538 217.384 90.7818C217.475 90.7291 217.578 90.6966 217.683 90.6867C217.789 90.6769 217.895 90.6898 217.995 90.7246C218.051 90.7386 218.105 90.7602 218.155 90.7889L218.213 90.8247C218.331 90.9057 218.43 91.0105 218.504 91.1321Z" fill="#08151B"/>
<path d="M0.182373 120.089C0.182373 116 2.1892 112.634 4.78491 112.126C4.71876 112.26 4.68633 112.407 4.69039 112.555V127.616C4.69069 127.766 4.72288 127.915 4.78491 128.052C2.21101 127.538 0.182373 124.171 0.182373 120.089Z" fill="#E8D6A4"/>
<path d="M4.6904 127.616V112.555C4.68634 112.407 4.71877 112.26 4.78492 112.126V112.069C4.83813 111.961 4.91796 111.869 5.01709 111.799C5.11623 111.73 5.23147 111.686 5.3523 111.672C5.47313 111.658 5.59564 111.673 5.70863 111.718C5.82163 111.762 5.92148 111.834 5.99903 111.926C6.05007 111.988 6.094 112.055 6.12993 112.126L6.17351 112.241C6.20919 112.342 6.22647 112.448 6.22445 112.555V127.616C6.22642 127.725 6.20916 127.834 6.17351 127.938L6.12265 128.052C6.06364 128.183 5.96813 128.295 5.84717 128.374C5.72622 128.454 5.58474 128.499 5.43919 128.503C5.30415 128.497 5.17283 128.458 5.05809 128.388C4.94336 128.317 4.84923 128.219 4.78492 128.102C4.78731 128.086 4.78731 128.069 4.78492 128.052C4.7229 127.915 4.6907 127.766 4.6904 127.616Z" fill="#08151B"/>
<path d="M206.732 24.447V45.7199C206.734 45.9333 206.684 46.144 206.587 46.3346L206.543 46.4132C206.443 46.5807 206.301 46.7199 206.131 46.8176C205.96 46.9153 205.766 46.968 205.569 46.9708C205.412 46.9712 205.258 46.939 205.115 46.8761C204.972 46.8133 204.844 46.7213 204.74 46.6063C204.665 46.5229 204.599 46.4319 204.544 46.3346C204.518 46.2791 204.496 46.2218 204.478 46.1631C204.425 46.0211 204.398 45.8711 204.398 45.7199V24.447C204.398 24.2934 204.425 24.141 204.478 23.9966C204.499 23.9406 204.524 23.8857 204.551 23.8322C204.643 23.6433 204.788 23.4836 204.968 23.3712C205.147 23.2587 205.356 23.1981 205.569 23.196C205.724 23.1966 205.878 23.2294 206.019 23.2922C206.161 23.3551 206.287 23.4465 206.391 23.5606C206.449 23.6185 206.501 23.6834 206.543 23.7536L206.587 23.8322C206.684 24.0232 206.733 24.2337 206.732 24.447Z" fill="#08151B"/>
<path d="M127.102 172.335L67.3215 115.865C62.5591 111.368 55.4336 111.776 51.3983 116.772C50.8064 117.548 50.5213 118.508 50.5962 119.475C50.6711 120.441 51.1009 121.348 51.8054 122.026L123.561 189.784C123.884 190.109 124.273 190.363 124.704 190.528C125.135 190.692 125.597 190.764 126.058 190.738C126.52 190.711 126.97 190.587 127.378 190.375C127.787 190.162 128.144 189.865 128.426 189.505C132.454 184.53 131.865 176.831 127.102 172.335Z" fill="#ED9B22"/>
<path d="M66.0924 114.814C64.2311 117.137 63.3514 119.61 64.1293 120.339C64.9073 121.068 67.0377 119.782 68.9645 117.437L67.3213 115.879C66.9214 115.5 66.5069 115.143 66.0924 114.814Z" fill="#C86A28"/>
<path d="M70.7243 126.565C71.5022 127.28 73.6325 126.001 75.5591 123.663L72.7236 120.99C70.8333 123.327 69.9391 125.829 70.7243 126.565Z" fill="#C86A28"/>
<path d="M77.3114 132.791C78.0966 133.506 80.2197 132.227 82.1465 129.882L79.3182 127.209C77.4277 129.553 76.5334 132.034 77.3114 132.791Z" fill="#C86A28"/>
<path d="M83.9061 139.01C84.6841 139.725 86.8508 138.453 88.7412 136.108L85.9056 133.435C84.0152 135.779 83.1209 138.274 83.9061 139.01Z" fill="#C86A28"/>
<path d="M90.4933 145.236C91.2786 145.951 93.4017 144.672 95.3286 142.334L92.5002 139.661C90.6097 141.998 89.7153 144.5 90.4933 145.236Z" fill="#C86A28"/>
<path d="M97.0882 151.462C97.8662 152.177 99.9965 150.898 101.923 148.56L99.0877 145.88C97.1973 148.224 96.303 150.719 97.0882 151.462Z" fill="#C86A28"/>
<path d="M103.676 157.681C104.461 158.396 106.584 157.124 108.511 154.779L105.682 152.106C103.792 154.45 102.89 156.945 103.676 157.681Z" fill="#C86A28"/>
<path d="M110.27 163.907C111.048 164.622 113.215 163.35 115.105 161.005L112.27 158.332C110.379 160.669 109.485 163.171 110.27 163.907Z" fill="#C86A28"/>
<path d="M116.858 170.133C117.643 170.848 119.766 169.569 121.693 167.231L118.864 164.558C116.974 166.895 116.072 169.397 116.858 170.133Z" fill="#C86A28"/>
<path d="M123.452 176.352C124.223 177.067 126.36 175.802 128.244 173.493C127.887 173.1 127.517 172.707 127.102 172.328L125.452 170.769C123.561 173.121 122.667 175.637 123.452 176.352Z" fill="#C86A28"/>
<path d="M51.122 117.187C50.6742 117.957 50.4984 118.85 50.622 119.728C50.7457 120.607 51.1618 121.42 51.8054 122.041L123.561 189.798C124.154 190.397 124.963 190.741 125.813 190.756C126.663 190.771 127.484 190.455 128.098 189.877L51.122 117.187Z" fill="#C86A28"/>
<path d="M128.898 172.142L81.754 106.894C78.0023 101.697 71.1386 100.632 66.4271 104.521C65.7326 105.147 65.2952 106.002 65.1975 106.924C65.0997 107.845 65.3482 108.77 65.8963 109.524L122.478 187.846C122.72 188.216 123.04 188.532 123.415 188.771C123.791 189.011 124.214 189.17 124.656 189.237C125.098 189.305 125.55 189.28 125.982 189.163C126.413 189.047 126.815 188.841 127.16 188.561C131.872 184.708 132.65 177.339 128.898 172.142Z" fill="#ED9B22"/>
<path d="M80.7723 105.635C78.5911 107.451 77.326 109.596 77.9367 110.446C78.5474 111.297 80.845 110.511 83.0262 108.688L81.7247 106.894C81.463 106.45 81.1067 106.036 80.7723 105.635Z" fill="#C86A28"/>
<path d="M83.1354 117.637C83.7535 118.495 86.0437 117.709 88.225 115.886L85.9855 112.791C83.8116 114.614 82.5174 116.787 83.1354 117.637Z" fill="#C86A28"/>
<path d="M88.334 124.835C88.9521 125.686 91.2423 124.9 93.4236 123.077L91.1915 119.989C89.003 121.812 87.716 123.978 88.334 124.835Z" fill="#C86A28"/>
<path d="M93.5326 132.034C94.1507 132.892 96.441 132.105 98.6222 130.282L96.3901 127.187C94.2016 129.003 92.9146 131.176 93.5326 132.034Z" fill="#C86A28"/>
<path d="M98.7242 139.225C99.3422 140.075 101.632 139.289 103.814 137.466L101.582 134.378C99.4004 136.201 98.1134 138.367 98.7242 139.225Z" fill="#C86A28"/>
<path d="M103.923 146.416C104.541 147.266 106.831 146.487 109.012 144.657L106.78 141.569C104.599 143.392 103.276 145.565 103.923 146.416Z" fill="#C86A28"/>
<path d="M109.092 153.607C109.71 154.465 112.001 153.678 114.182 151.856L111.942 148.76C109.82 150.619 108.504 152.763 109.092 153.607Z" fill="#C86A28"/>
<path d="M114.32 160.805C114.938 161.656 117.228 160.869 119.41 159.047L117.178 155.959C114.996 157.767 113.702 159.947 114.32 160.805Z" fill="#C86A28"/>
<path d="M119.519 167.996C120.137 168.854 122.427 168.068 124.608 166.245L122.376 163.15C120.188 164.972 118.901 167.145 119.519 167.996Z" fill="#C86A28"/>
<path d="M124.717 175.194C125.328 176.038 127.626 175.273 129.807 173.472C129.53 173.028 129.232 172.585 128.92 172.142L127.618 170.348C125.386 172.171 124.099 174.336 124.717 175.194Z" fill="#C86A28"/>
<path d="M66.0924 104.871C65.5314 105.523 65.2076 106.34 65.172 107.193C65.1365 108.046 65.3912 108.887 65.8961 109.581L122.478 187.904C122.926 188.586 123.626 189.07 124.431 189.254C125.235 189.438 126.081 189.307 126.789 188.89L66.0924 104.871Z" fill="#C86A28"/>
<path d="M148.253 160.412L142.851 188.711C142.369 191.235 141.005 193.514 138.995 195.154C136.985 196.793 134.455 197.69 131.843 197.689H89.2065C86.5949 197.689 84.0657 196.791 82.0557 195.152C80.0458 193.513 78.6814 191.235 78.1984 188.711L72.8035 160.412C72.6408 159.562 72.7306 158.684 73.0619 157.883C73.3933 157.082 73.9523 156.391 74.6721 155.894L106.729 133.735C107.842 132.971 109.167 132.562 110.524 132.562C111.882 132.562 113.207 132.971 114.32 133.735L146.384 155.894C147.104 156.391 147.663 157.082 147.994 157.883C148.326 158.684 148.415 159.562 148.253 160.412Z" fill="#A54A3F"/>
<path d="M145.018 160.969L140.081 186.839C139.64 189.145 138.393 191.228 136.555 192.727C134.718 194.225 132.405 195.045 130.018 195.045H91.0389C88.6511 195.046 86.338 194.227 84.5001 192.728C82.6623 191.23 81.4156 189.146 80.976 186.839L76.0392 160.969C75.8921 160.192 75.9748 159.39 76.2777 158.658C76.5805 157.925 77.0908 157.294 77.7478 156.838L107.057 136.559C108.072 135.857 109.283 135.481 110.525 135.481C111.766 135.481 112.977 135.857 113.993 136.559L143.309 156.838C143.965 157.294 144.475 157.926 144.778 158.658C145.081 159.39 145.164 160.192 145.018 160.969Z" fill="#E6988C" stroke="#A54A3F" stroke-width="1.17" stroke-miterlimit="10"/>
<path d="M110.532 102.176H110.525C109.292 102.176 108.292 103.158 108.292 104.37V165.902C108.292 167.114 109.292 168.096 110.525 168.096H110.532C111.765 168.096 112.764 167.114 112.764 165.902V104.37C112.764 103.158 111.765 102.176 110.532 102.176Z" fill="#A54A3F"/>
<path d="M111.426 102.176H109.63C108.209 102.176 107.056 103.309 107.056 104.706V117.466C107.056 118.863 108.209 119.996 109.63 119.996H111.426C112.848 119.996 114 118.863 114 117.466V104.706C114 103.309 112.848 102.176 111.426 102.176Z" fill="#E6988C"/>
<path d="M74.3162 160.655H144.756" stroke="#A54A3F" stroke-width="2.91" stroke-miterlimit="10"/>
<path d="M76.3009 168.103H144.756" stroke="#A54A3F" stroke-width="2.87" stroke-miterlimit="10"/>
<path d="M76.3009 175.544H144.756" stroke="#A54A3F" stroke-width="2.87" stroke-miterlimit="10"/>
<path d="M78.6129 182.993H143.432" stroke="#A54A3F" stroke-width="2.8" stroke-miterlimit="10"/>
<path d="M79.311 190.434H141.629" stroke="#A54A3F" stroke-width="2.74" stroke-miterlimit="10"/>
<path d="M80.1471 153.207H140.8" stroke="#A54A3F" stroke-width="2.7" stroke-miterlimit="10"/>
<path d="M91.0533 145.765H130.861" stroke="#A54A3F" stroke-width="2.19" stroke-miterlimit="10"/>
<path d="M101.102 138.317H120.275" stroke="#A54A3F" stroke-width="2.82" stroke-miterlimit="10"/>
<path d="M119.082 138.317V195.688" stroke="#A54A3F" stroke-width="2.82" stroke-miterlimit="10"/>
<path d="M110.525 138.317V196.51" stroke="#A54A3F" stroke-width="2.84" stroke-miterlimit="10"/>
<path d="M101.974 138.317V195.688" stroke="#A54A3F" stroke-width="2.82" stroke-miterlimit="10"/>
<path d="M93.4163 144.464V195.688" stroke="#A54A3F" stroke-width="2.66" stroke-miterlimit="10"/>
<path d="M84.8586 149.59V195.688" stroke="#A54A3F" stroke-width="2.53" stroke-miterlimit="10"/>
<path d="M127.64 144.872V196.51" stroke="#A54A3F" stroke-width="2.67" stroke-miterlimit="10"/>
<path d="M136.198 149.59V195.688" stroke="#A54A3F" stroke-width="2.53" stroke-miterlimit="10"/>
<path d="M44.3092 109.96C32.6669 115.17 23.3466 124.361 18.0833 135.822C24.9978 125.636 34.3409 117.065 44.3092 109.96Z" fill="#F7F4D3"/>
<path d="M31.7888 136.623C30.3757 137.33 29.2165 138.445 28.4667 139.819C27.7168 141.192 27.4122 142.758 27.5936 144.307C28.8223 141.591 30.5091 139.075 31.7888 136.623Z" fill="#F7F4D3"/>
<path d="M3.35968 113.935C2.41054 114.662 1.72632 115.672 1.4092 116.814C1.09208 117.955 1.15913 119.167 1.60028 120.268C1.76894 118.065 2.36619 115.915 3.35968 113.935Z" fill="#F7F4D3"/>
<path d="M222.517 132.992C220.063 134.078 217.945 135.783 216.377 137.933C214.809 140.083 213.847 142.603 213.589 145.236C215.203 140.669 218.46 136.687 222.517 132.992Z" fill="#F7F4D3"/>
<path d="M222.517 120.018C217.276 121.441 212.454 124.069 208.45 127.686C204.446 131.303 201.375 135.804 199.491 140.819C204.413 131.498 213.225 124.228 222.517 120.018Z" fill="#F7F4D3"/>
<path d="M190.387 35.5338C189.891 35.6055 189.421 35.7962 189.017 36.0891C188.614 36.3821 188.29 36.7682 188.075 37.2133C187.859 37.6584 187.758 38.1488 187.781 38.6413C187.804 39.1338 187.95 39.6132 188.206 40.037C188.109 39.1614 188.261 38.2764 188.647 37.481C189.032 36.6857 189.635 36.0114 190.387 35.5338Z" fill="#F7F4D3"/>
<path d="M25.1142 103.698C20.5646 107.186 17.0494 111.81 14.9348 117.087C17.7603 112.233 21.1788 107.737 25.1142 103.698Z" fill="#F7F4D3"/>
<path d="M13.5462 118.588L10.9725 122.412C10.8973 122.507 10.8445 122.618 10.818 122.736C10.7914 122.853 10.7917 122.975 10.8189 123.093C10.846 123.21 10.8993 123.32 10.975 123.415C11.0506 123.51 11.1468 123.587 11.2564 123.641C11.366 123.695 11.4865 123.724 11.609 123.727C11.7316 123.729 11.8532 123.705 11.9651 123.656C12.077 123.607 12.1765 123.534 12.2563 123.443C12.3361 123.351 12.3943 123.243 12.4266 123.127C13.0622 121.689 13.4409 120.153 13.5462 118.588Z" fill="#F7F4D3"/>
<path d="M198.524 142.906C198.251 142.841 197.967 142.836 197.692 142.893C197.418 142.95 197.159 143.067 196.937 143.235C196.714 143.403 196.533 143.618 196.406 143.864C196.279 144.111 196.21 144.382 196.204 144.657C196.233 144.932 196.328 145.197 196.481 145.429C196.633 145.661 196.839 145.855 197.082 145.994C197.325 146.133 197.598 146.214 197.879 146.231C198.16 146.247 198.44 146.198 198.698 146.087C199.672 145.529 199.978 143.356 198.524 142.906Z" fill="#F7F4D3"/>
<path d="M35.2859 134.178C35.1305 134.048 34.9433 133.961 34.7429 133.924C34.5425 133.887 34.3358 133.903 34.1433 133.968C33.9507 134.034 33.779 134.149 33.6452 134.3C33.5113 134.451 33.4199 134.634 33.3801 134.83C33.3402 135.027 33.3533 135.23 33.418 135.42C33.4826 135.611 33.5967 135.781 33.7488 135.914C33.901 136.048 34.086 136.14 34.2855 136.181C34.4849 136.223 34.6919 136.212 34.886 136.151C35.072 136.074 35.236 135.953 35.3636 135.799C35.4912 135.646 35.5785 135.464 35.6179 135.269C35.6574 135.074 35.6478 134.873 35.5899 134.683C35.532 134.493 35.4276 134.319 35.2859 134.178Z" fill="#F7F4D3"/>
<path d="M178.849 36.0483C178.402 36.544 178.088 37.1421 177.937 37.7877C177.786 38.4334 177.802 39.106 177.983 39.744C179.928 46.1978 182.871 52.3191 186.708 57.8931C183.349 50.8451 179.997 43.6826 178.849 36.0483Z" fill="#F7F4D3"/>
<path d="M21.8859 82.7543C58.2283 88.0285 95.2756 86.1258 130.861 77.1574C96.4338 88.5728 57.513 90.8388 21.8859 82.7543Z" fill="#EE9B21"/>
</svg>
