<?xml version="1.0" encoding="UTF-8" standalone="no"?>
<svg
   xmlns:dc="http://purl.org/dc/elements/1.1/"
   xmlns:cc="http://creativecommons.org/ns#"
   xmlns:rdf="http://www.w3.org/1999/02/22-rdf-syntax-ns#"
   xmlns:svg="http://www.w3.org/2000/svg"
   xmlns="http://www.w3.org/2000/svg"
   xmlns:sodipodi="http://sodipodi.sourceforge.net/DTD/sodipodi-0.dtd"
   xmlns:inkscape="http://www.inkscape.org/namespaces/inkscape"
   version="1.1"
   id="svg2"
   xml:space="preserve"
   width="745.03998"
   height="187.90668"
   viewBox="0 0 745.03998 187.90668"
   sodipodi:docname="aeris.eps"><metadata
     id="metadata8"><rdf:RDF><cc:Work
         rdf:about=""><dc:format>image/svg+xml</dc:format><dc:type
           rdf:resource="http://purl.org/dc/dcmitype/StillImage" /></cc:Work></rdf:RDF></metadata><defs
     id="defs6" /><sodipodi:namedview
     pagecolor="#ffffff"
     bordercolor="#666666"
     borderopacity="1"
     objecttolerance="10"
     gridtolerance="10"
     guidetolerance="10"
     inkscape:pageopacity="0"
     inkscape:pageshadow="2"
     inkscape:window-width="640"
     inkscape:window-height="480"
     id="namedview4" /><g
     id="g10"
     inkscape:groupmode="layer"
     inkscape:label="ink_ext_XXXXXX"
     transform="matrix(1.3333333,0,0,-1.3333333,0,187.90667)"><g
       id="g12"
       transform="scale(0.1)"><path
         d="m 1084.23,480.578 c -0.65,-4.535 -1.67,-7.445 -6.62,-8.672 0.03,-0.086 0.07,-0.117 0.1,-0.199 -4.28,-1.199 -8.39,-2.75 -12.37,-4.629 l 0.86,0.707 c -4.91,-3.047 -7.47,-2.625 -12.29,0.723 -0.02,-0.031 -0.02,-0.047 -0.04,-0.078 -41.14,28.879 -84.222,54.949 -129.14,77.707 0.032,0.047 0.059,0.078 0.09,0.125 -5.316,2.707 -6.398,7.98 -3.16,12.101 l -0.398,-0.304 c 27.972,35.992 53.558,74.156 76.886,114.074 0.04,-0.035 0.051,-0.055 0.09,-0.09 2.352,3.984 5.392,6.711 12.522,5.324 l -1.03,0.395 c 16.04,-2.793 32.49,-2.828 48.76,0.008 l -1.07,-0.403 c 5.82,1.094 8.63,-0.531 10.47,-6.051 12.74,-42.738 19.81,-87.89 19.81,-134.742 0,-18.969 -1.25,-37.633 -3.47,-55.996 z M 828.164,114.398 c -6.996,-3.046 -9.434,-1.558 -13.769,5.524 -0.036,-0.031 -0.055,-0.051 -0.086,-0.082 -10.719,17.66 -21.77,35.18 -33.688,52.308 -19.508,28.09 -40.488,54.782 -62.43,80.461 0.036,0.012 0.055,0.012 0.09,0.02 -5.855,6.391 -5.367,9.09 -2.386,14.691 0.035,0.059 0.066,0.121 0.097,0.192 0.156,0.289 0.285,0.547 0.457,0.859 l -0.117,-0.16 c 8.844,17.219 13.949,36.687 13.949,57.379 0,10.531 -1.351,20.719 -3.801,30.48 l 0.106,-0.218 c -1.852,6.668 -2.371,8.75 3.469,13.218 -0.067,0.032 -0.098,0.039 -0.16,0.078 49.308,37.411 95.339,79.215 137.464,125.161 l -1.027,-1.407 c 4.258,4.68 7.391,7.235 13.711,4.852 48.195,-23.277 94.332,-50.504 138.027,-81.207 4.19,-3.539 4.1,-6.402 3.21,-12.625 l 0.06,0.168 c -2.13,-21.442 4.7,-42.192 18.04,-58.09 l -0.26,0.18 c 4.07,-4.481 5.01,-7.078 2.38,-13 C 996.445,238.871 921.184,161.738 828.164,114.398 Z M 553.16,67.2109 c -5.488,1.1289 -5.601,4.0977 -2.769,9.8594 l -0.352,-0.4609 c 17.816,36.4996 33.613,74.1916 47.258,112.9726 0.043,-0.031 0.051,-0.062 0.101,-0.094 3.329,9.301 5.547,9.903 12.946,10.024 l -0.203,0.047 c 16.57,0.8 32.254,4.812 46.535,11.402 l -0.196,-0.141 c 5.594,2.739 10.02,3.93 15.004,-0.879 20.094,-23.601 39.379,-48.05 57.332,-73.851 9.598,-13.789 18.618,-27.852 27.395,-42.0314 2.984,-4.8867 3.437,-7.4883 -1.641,-9.5078 -44.371,-13.832 -91.429,-21.4297 -140.316,-21.4297 -20.699,0 -41.074,1.4805 -61.094,4.0898 z m -67.902,20.7696 c -2.309,-3.8594 -4.403,-5.0313 -9.129,-4.0196 -60.949,18.6481 -116.625,49.2501 -164.453,89.1091 -3.399,3.481 -2.645,5.668 3.758,6.989 l -1.278,-0.168 c 64.012,13.289 126.059,32.55 185.567,57.148 0,-0.039 -0.016,-0.059 -0.02,-0.098 8.207,3.348 12.117,2.61 15.723,-1.089 l -0.094,0.168 c 5.391,-5.34 11.227,-10.211 17.504,-14.508 l -0.109,0.047 c 3.054,-2.039 6.652,-4.43 5.386,-9.868 C 523.23,168.988 505.57,127.672 485.258,87.9805 Z M 147.266,459.559 c -0.813,5.761 0.476,7.961 5.672,9.976 h -0.211 c 18.796,7.817 35.031,20.641 46.945,36.992 l -0.055,-0.117 c 4.192,6.195 6.785,7.668 13.496,5.887 97.067,-29.699 187.809,-74.043 270.016,-131.176 5.519,-4.562 3.973,-8.082 1.684,-14.133 l 0.203,0.274 c -4.606,-13.063 -7.239,-27.032 -7.239,-41.672 0,-5.692 0.516,-11.25 1.27,-16.719 l -0.152,0.359 c 1.324,-7.82 0.808,-11.82 -6.137,-15.121 -68.246,-27.968 -140.063,-48.39 -214.344,-60.41 -4.062,-0.398 -7.574,0.391 -12.297,5.75 -50.41,62.34 -85.277,137.66 -98.851,220.11 z m 268.636,506.546 c 3.727,1.254 6.703,0.625 11.328,-4.878 l -0.179,0.457 c 18.472,-20.032 44.734,-31.871 72.738,-31.754 l -0.355,-0.141 c 7.125,0.356 10.816,-0.902 13.921,-7.789 9.79,-22.539 18.774,-45.328 26.786,-68.363 2.707,-8.168 -1.172,-9.629 -8.879,-11.617 l 0.148,-0.047 C 401.469,807.676 281.074,748.723 175.652,669.887 c -0.015,0.023 -0.015,0.035 -0.039,0.058 -5.664,-4.218 -8.593,-3.527 -11.543,-1.808 -2.425,1.39 -3.164,2.648 -2.062,7.261 39.687,129.028 132.926,234.637 253.894,290.707 z M 554.848,782.73 c 4.277,0.723 6.64,-0.246 8.41,-5.285 10.242,-39.8 17.89,-80.113 22.965,-120.722 0.3,-6.637 -2.485,-6.438 -10.637,-5.442 l 0.766,-0.195 c -39.504,4.625 -79.477,7.227 -119.86,7.227 -70.562,0 -140.609,-7.321 -209.496,-21.567 0.016,0.051 0.059,0.074 0.07,0.121 -8.461,-1.719 -10.933,-1.574 -6.136,2.305 94.269,65.519 200.3,114.504 313.918,143.558 z m 35.218,-324.484 c -0.695,-4.766 -2.445,-6.996 -10.086,-8.762 0,-0.011 0.004,-0.027 0.004,-0.043 -15.242,-2.949 -29.453,-8.675 -42.191,-16.574 l 0.25,0.223 c -0.52,-0.352 -0.918,-0.602 -1.387,-0.914 -0.726,-0.465 -1.465,-0.922 -2.183,-1.403 -6.196,-3.773 -7.817,-2.625 -15.543,2.676 -0.024,-0.054 -0.035,-0.094 -0.059,-0.144 -81.406,56.476 -170.644,101.191 -265.887,132.543 0.079,0.047 0.164,0.047 0.246,0.101 -8.617,2.906 -8.703,5.145 -2.75,6.93 67.708,14.703 136.594,22.301 206.012,22.301 43.571,0 86.633,-3.18 129.067,-8.895 3.898,-0.773 6.41,-2.39 7.086,-8.465 1.668,-39.761 0.691,-79.664 -2.579,-119.574 z M 911.82,904.207 c 5.039,-4.707 4.332,-7.41 1.133,-12.871 0.067,-0.027 0.11,-0.043 0.172,-0.074 -2.496,-4.043 -4.762,-8.188 -6.832,-12.438 l 0.129,0.817 c -2.406,-4.258 -1.039,-8.496 -14.43,-7.336 0,-0.032 0.004,-0.055 0.004,-0.086 -31.035,2.855 -62.141,4.492 -93.207,4.492 -62.691,0 -124.184,-5.781 -184.082,-16.449 0.016,0.035 0.027,0.051 0.043,0.078 -7.836,-1.367 -10.301,0.754 -12.539,7.437 l 0.098,-0.547 c -9.465,27.907 -20.262,55.458 -32.164,82.68 0.035,-0.012 0.054,-0.019 0.085,-0.027 -2.32,5.379 -2.91,6.808 1.973,12.039 0.156,0.176 0.32,0.344 0.477,0.516 0.097,0.109 0.168,0.187 0.269,0.292 l -0.054,-0.031 c 9.785,10.973 17.039,24.035 21.171,38.221 0.004,-0.01 0.012,-0.01 0.016,-0.03 1.996,6.11 2.109,8.41 9.848,8.82 3.429,0.17 6.867,0.32 10.324,0.32 112.738,0 216.199,-39.788 297.566,-105.823 z M 695.25,421.836 c -4.973,-3.043 -7.871,-1.633 -11.629,1.594 l 0.621,-0.637 c -7.605,6.316 -15.949,11.75 -24.922,16.148 0.032,0.036 0.055,0.039 0.09,0.075 -7.148,3.242 -7.148,4.609 -6.203,14.199 l -0.164,-0.684 c 3.102,37.828 4.215,75.657 3.164,113.375 l 0.141,-0.953 c -0.2,6.539 0.797,8.539 6.363,7.801 48.324,-10.516 95.512,-24.656 141.242,-42.152 4.977,-2.247 5.848,-5.196 2.32,-9.286 -34.531,-36.035 -71.628,-69.296 -111.023,-99.48 z m 242.633,291.008 -0.078,0.047 c 5.105,-4.5 6.66,-6.899 3.242,-13.239 -24.289,-41.058 -50.984,-80.207 -80.481,-116.757 -3.496,-3.754 -6.168,-4.235 -14.711,-0.832 -0.011,-0.028 -0.003,-0.043 -0.011,-0.079 -59.434,24.118 -121.297,42.875 -184.926,55.731 l 0.977,-0.113 c -9,1.765 -10.192,2.332 -11.52,13.906 -0.059,-0.035 -0.078,-0.074 -0.141,-0.11 -5.152,46.102 -13.324,91.84 -24.683,136.981 0.058,0.004 0.086,-0.016 0.14,-0.012 -1.812,7.387 -1.074,9.156 4.325,10.485 54.968,9.539 111.328,14.73 168.773,14.73 28.949,0 57.945,-1.5 86.879,-4.184 4.355,-0.675 6.211,-2.433 7.789,-11.437 0.016,0.008 0.023,0.008 0.039,0.012 2.797,-20.68 10.094,-41.063 22.481,-59.602 6.418,-9.555 13.793,-18.058 21.906,-25.527 z m 211.487,-255.957 1.35,-0.86 c -3.45,2.793 -5.34,4.688 -4.3,13.235 -0.03,0 -0.05,-0.004 -0.08,-0.004 2.83,22.078 4.51,44.492 4.51,67.316 0,56.551 -9.01,110.989 -25.34,162.196 0.04,0.011 0.07,0.015 0.11,0.031 -2.05,6.535 -2.61,7.922 4.56,14.09 l -0.46,-0.246 c 51.05,46.543 61.96,124.507 22.4,183.664 -39.59,59.148 -115.77,78.804 -178.268,49.425 -0.012,0.055 -0.004,0.082 -0.024,0.137 -8.129,-3.984 -10.73,-1.98 -16.605,2.969 l 0.648,-0.707 c -93.176,77.937 -212.922,125.027 -343.617,125.027 -5.246,0 -10.449,-0.25 -15.668,-0.41 0.074,0.07 0.141,0.1 0.219,0.17 -11.039,-0.23 -12.696,2.32 -16.34,8.87 l 0.644,-1.43 c -21.687,34.93 -63.839,53.93 -106.117,44.06 -42.406,-9.9 -71.851,-45.8 -75.668,-86.88 l -0.101,0.84 c -0.731,-6.65 -1.172,-10.23 -7.801,-13.27 0.062,-0.04 0.109,-0.06 0.172,-0.1 C 253.148,961.285 144.871,839.109 100.289,689.426 c -0.07,0.035 -0.09,0.074 -0.156,0.109 -2.1603,-7 -4.7892,-8.48 -11.133,-9.738 -0.4336,-0.086 -0.875,-0.16 -1.3086,-0.246 -0.2187,-0.039 -0.4062,-0.086 -0.6367,-0.125 h 0.1562 C 40.3281,669.352 3.74609,629.406 0.269531,579.172 -3.26953,528.34 28.2188,483.266 74.1094,467.277 c 6.4336,-2.156 8.7734,-4.14 10.0742,-12.265 0.0742,0.039 0.1211,0.074 0.1953,0.113 13.0469,-85.215 45.8751,-163.965 94.1601,-231.094 14.856,-20.652 31.133,-40.179 48.703,-58.5 C 288.238,101.949 364.602,53.2813 450.387,25.6992 471.23,18.9805 492.613,13.5898 514.477,9.44922 546.848,3.35938 580.152,0 614.254,0 c 62.492,0 122.504,10.8594 178.328,30.582 20.02,7.0664 39.52,15.2774 58.375,24.5899 109.297,53.9571 197.483,144.1171 249.273,254.6371 0.03,-0.039 0.06,-0.059 0.09,-0.09 3.33,6.972 5.9,8.441 13.29,9.41 h -1.17 c 28.98,4.832 54.13,25.312 62.84,55.43 9,31.14 -2.4,62.949 -25.91,82.328"
         style="fill:#2d7bc8;fill-opacity:1;fill-rule:nonzero;stroke:none"
         id="path14" /><path
         d="m 2048.86,356.051 c 0,-111.09 -76.76,-165.641 -216.15,-165.641 -109.08,0 -167.68,40.391 -167.68,121.192 0,90.929 64.65,131.312 210.1,131.312 h 161.61 c 8.07,0 12.12,-4.055 12.12,-12.121 z m -194.38,668.679 c -159.53,0 -284.5,-56.894 -365.9,-118.058 -8.05,-6.07 -10.09,-16.149 -4.06,-26.258 l 101.12,-120.832 c 6.01,-10.109 18.18,-12.133 28.26,-4.023 46.49,36.336 109.73,74.804 218.81,74.804 163.61,0 216.11,-50.492 216.11,-161.609 l 0.04,-44.024 c 0,-8.066 -4.05,-12.121 -12.12,-12.121 h -197.99 c -240.38,0 -389.87,-96.953 -389.87,-309.078 0,-204.0427 149.49,-296.97241 327.27,-296.97241 137.36,0 228.28,46.45311 274.73,113.13241 h 2.01 V 48.9805 c 0,-12.1094 8.11,-20.1914 20.2,-20.1914 h 169.69 c 12.13,0 20.2,8.082 20.2,20.1914 V 682.895 c 0,238.398 -111.52,341.835 -408.5,341.835"
         style="fill:#3d4133;fill-opacity:1;fill-rule:nonzero;stroke:none"
         id="path16" /><path
         d="m 3010.05,712.73 c -26.28,78.797 -98.96,125.243 -189.89,125.243 -92.92,0 -165.66,-46.446 -191.92,-125.243 -8.07,-24.21 -12.11,-48.488 -12.11,-82.816 0,-8.074 4.04,-12.117 12.11,-12.117 h 381.81 c 8.07,0 12.12,4.043 12.12,12.117 0,34.328 -4.05,58.606 -12.12,82.816 z m -587.9,-430.3 c -20.19,62.629 -34.33,137.386 -34.33,238.402 0,101.008 12.12,177.762 32.33,240.391 54.53,169.683 204.03,268.687 398.03,268.687 199.94,0 345.41,-103.051 399.97,-268.687 22.22,-68.68 32.3,-135.352 32.3,-292.918 0,-12.121 -8.08,-20.215 -22.22,-20.215 h -599.99 c -8.07,0 -12.11,-4.043 -12.11,-12.11 0,-28.261 6.07,-52.539 14.16,-74.761 32.26,-94.93 109.07,-147.469 218.15,-147.469 109.09,0 179.8,40.422 228.28,92.941 10.12,10.09 20.18,12.118 30.31,4.047 l 119.2,-105.058 c 10.06,-8.059 10.06,-18.18 2,-28.301 -82.82,-96.9493 -220.18,-165.6173 -399.98,-165.6173 -206.05,0 -351.54,100.9883 -406.1,270.6683"
         style="fill:#3d4133;fill-opacity:1;fill-rule:nonzero;stroke:none"
         id="path18" /><path
         d="m 3415.27,35.6016 c -12.12,0 -20.2,8.0898 -20.2,20.1797 V 989.105 c 0,12.135 8.08,20.205 20.2,20.205 h 185.86 c 12.12,0 20.19,-8.07 20.19,-20.205 v -82.82 h 2.01 c 46.48,74.746 97.77,125.265 220.96,125.265 76.79,0 137.79,-30.31 188.27,-80.82 10.12,-10.117 12.12,-18.187 4.05,-28.3 L 3929.52,787.074 c -8.07,-10.094 -17.89,-11.769 -28.27,-4.023 -37.49,27.988 -61.24,49.988 -113.77,49.988 -113.04,0 -166.16,-94.434 -166.16,-249.98 V 55.7813 c 0,-12.0899 -8.07,-20.1797 -20.19,-20.1797 h -185.86"
         style="fill:#3d4133;fill-opacity:1;fill-rule:nonzero;stroke:none"
         id="path20" /><path
         d="m 4125.81,1193.16 c -12.12,0 -20.21,8.07 -20.21,20.19 v 175.75 c 0,12.11 8.09,20.19 20.21,20.19 h 185.86 c 12.12,0 20.17,-8.08 20.17,-20.19 v -175.75 c 0,-12.12 -8.05,-20.19 -20.17,-20.19 h -185.86"
         style="fill:#3d4133;fill-opacity:1;fill-rule:nonzero;stroke:none"
         id="path22" /><path
         d="m 4125.81,35.6016 c -12.12,0 -20.21,8.0898 -20.21,20.1797 V 989.105 c 0,12.135 8.09,20.205 20.21,20.205 h 185.86 c 12.12,0 20.17,-8.07 20.17,-20.205 V 55.7813 c 0,-12.0899 -8.05,-20.1797 -20.17,-20.1797 h -185.86"
         style="fill:#3d4133;fill-opacity:1;fill-rule:nonzero;stroke:none"
         id="path24" /><path
         d="m 4446.68,166.91 c -8.07,8.09 -8.07,20.18 0,28.281 l 115.16,121.207 c 8.08,8.102 20.22,8.102 28.28,0 70.72,-64.648 183.85,-111.128 284.84,-111.128 119.21,0 179.81,48.5 179.81,115.171 0,58.571 -34.35,94.942 -161.61,107.063 l -105.05,10.105 c -197.99,20.196 -298.99,121.204 -298.99,286.836 0,187.91 135.36,307.105 377.78,307.105 151.5,0 278.76,-50.519 365.62,-119.195 10.12,-8.113 10.12,-20.226 4.05,-28.3 l -98.98,-119.196 c -8.07,-10.07 -18.19,-10.07 -28.3,-4.043 -60.58,42.422 -157.57,80.817 -254.55,80.817 -96.95,0 -147.47,-42.442 -147.47,-101.004 0,-56.563 34.36,-90.891 159.63,-103.047 l 105.03,-10.078 c 204.03,-20.207 301.01,-125.254 301.01,-284.824 0,-193.95 -141.42,-329.3011 -408.08,-329.3011 -200.01,0 -337.36,78.793 -418.18,153.5311"
         style="fill:#3d4133;fill-opacity:1;fill-rule:nonzero;stroke:none"
         id="path26" /><path
         d="m 5496.86,178.84 c 0,13.629 -7.15,22.09 -24.69,22.09 h -33.12 c -1.31,0 -1.96,-0.66 -1.96,-1.309 v -40.93 c 0,-1.293 0.65,-1.293 1.96,-1.293 h 33.12 c 17.54,0 24.69,7.782 24.69,21.442 z M 5421.5,79.4219 c -3.89,0 -5.85,1.957 -5.85,5.8476 V 213.898 c 0,3.911 1.96,5.852 5.85,5.852 h 51.33 c 27.94,0 44.18,-16.23 44.18,-40.91 0,-18.84 -9.09,-33.149 -27.3,-38.352 l 27.3,-54.5583 c 2.59,-4.5508 0,-6.5078 -3.91,-6.5078 h -11.04 c -3.26,0 -5.2,2.5976 -6.49,4.5586 l -27.29,53.9295 h -29.23 c -1.31,0 -1.96,-0.66 -1.96,-1.308 V 85.2695 c 0,-3.8906 -2.59,-5.8476 -5.84,-5.8476 z m 146.83,69.5191 c 0,61.071 -45.49,105.899 -105.25,105.899 -61.07,0 -105.9,-44.828 -105.9,-105.899 0,-61.7222 44.83,-106.5426 105.9,-106.5426 59.76,0 105.25,44.8204 105.25,106.5426 z m -230.64,0 c 0,70.809 53.93,124.739 125.39,124.739 70.81,0 124.74,-53.93 124.74,-124.739 0,-71.4605 -53.93,-125.3902 -124.74,-125.3902 -71.46,0 -125.39,53.9297 -125.39,125.3902"
         style="fill:#3d4133;fill-opacity:1;fill-rule:nonzero;stroke:none"
         id="path28" /></g></g></svg>
