<?xml version="1.0" encoding="UTF-8" standalone="no"?>
<svg
   xmlns:dc="http://purl.org/dc/elements/1.1/"
   xmlns:cc="http://creativecommons.org/ns#"
   xmlns:rdf="http://www.w3.org/1999/02/22-rdf-syntax-ns#"
   xmlns:svg="http://www.w3.org/2000/svg"
   xmlns="http://www.w3.org/2000/svg"
   xmlns:sodipodi="http://sodipodi.sourceforge.net/DTD/sodipodi-0.dtd"
   xmlns:inkscape="http://www.inkscape.org/namespaces/inkscape"
   version="1.1"
   id="svg2"
   xml:space="preserve"
   width="512.37335"
   height="178.22667"
   viewBox="0 0 512.37335 178.22667"
   sodipodi:docname="Capital One.eps"><metadata
     id="metadata8"><rdf:RDF><cc:Work
         rdf:about=""><dc:format>image/svg+xml</dc:format><dc:type
           rdf:resource="http://purl.org/dc/dcmitype/StillImage" /></cc:Work></rdf:RDF></metadata><defs
     id="defs6" /><sodipodi:namedview
     pagecolor="#ffffff"
     bordercolor="#666666"
     borderopacity="1"
     objecttolerance="10"
     gridtolerance="10"
     guidetolerance="10"
     inkscape:pageopacity="0"
     inkscape:pageshadow="2"
     inkscape:window-width="640"
     inkscape:window-height="480"
     id="namedview4" /><g
     id="g10"
     inkscape:groupmode="layer"
     inkscape:label="ink_ext_XXXXXX"
     transform="matrix(1.3333333,0,0,-1.3333333,0,178.22667)"><g
       id="g12"
       transform="scale(0.1)"><path
         d="m 3568.25,1212.48 c -249.96,275.69 -1858.33,27.7 -2542.3,-121.72 l -15.94,-3.45 c -3.29,-0.58 -5.47,-3.72 -4.93,-6.99 0.59,-3.31 3.7,-5.49 7.02,-4.94 l 15.8,3.09 c 566.68,100.89 1745.1,240.78 1998.69,-10.67 77.37,-76.698 58.91,-175.534 -30.77,-292.109 48.38,-31.078 82.81,-79.945 98.3,-141.089 350.22,232.968 585.5,455.038 474.13,577.878 z M 2527.44,369.914 c -0.15,-0.137 -0.32,-0.254 -0.49,-0.359 C 2368.38,257.309 2180.53,139.379 1978.46,15.6211 l -7.97,-4.6406 c -2.7,-1.94144 -3.42,-5.67191 -1.44,-8.42191 1.87,-2.730465 5.62,-3.378903 8.35,-1.4375 l 6.74,3.51954 c 171.38,89.44917 368.23,195.64037 566.31,304.57837 1.08,0.59 2.12,1.172 3.19,1.761 -10.89,17.84 -19.84,37.43 -26.2,58.934"
         style="fill:#d03027;fill-opacity:1;fill-rule:nonzero;stroke:none"
         id="path14" /><path
         d="m 2546.63,447.484 c -5.75,165.555 123.95,334.836 312.36,334.836 126,0 208.49,-83.957 213.08,-212.55 6.03,-174.59 -115.13,-334.86 -312.34,-334.86 -126.05,0 -208.51,83.781 -213.1,212.574 z m 81.95,-5.187 c 3.26,-97.031 64.59,-176.469 144.66,-176.469 155.14,0 221.17,190.492 216.58,317.77 -3.28,97.265 -66.25,176.515 -146.18,176.515 -133.46,0 -219.6,-189.66 -215.06,-317.816"
         style="fill:#004977;fill-opacity:1;fill-rule:nonzero;stroke:none"
         id="path16" /><path
         d="m 925.723,593.078 c -0.68,-15.223 -3.297,-28.535 -7.368,-51.785 L 890.633,385.766 c -2.387,-13.801 2.734,-24.661 15.574,-32.063 l -0.863,-6.074 -158.668,0.215 -1.406,39.543 c -23.106,-13.926 -51.004,-25.684 -76.223,-32.59 -25.137,-6.434 -45.481,-9.297 -76.016,-9.297 -51.258,0 -80.625,5.324 -100.859,23.086 -20.598,18.332 -30.559,30.461 -29.57,55.676 0.781,14.492 8.3,33.125 19.171,46.152 10.985,13.242 25.93,21.875 42.235,29.492 16.359,7.821 35.629,13.457 63.66,17.879 28.066,4.551 67.133,9.094 119.473,13.469 27.496,2.285 44.238,8.66 52.14,11.797 10.938,4.226 15.215,8.933 16.821,17.84 2.937,15.996 -2.164,25.097 -23.395,29.316 -57.176,11.242 -164.293,-7.254 -219.504,-21.074 l 30.024,80.957 c 72.816,10.617 141.086,17.422 212.906,17.422 114.191,0 150.738,-32.578 149.59,-74.434 z M 761.953,491.223 c -6.742,-2.52 -15.437,-5.047 -26.207,-7.293 -10.758,-2.434 -30.402,-5.93 -58.933,-10.422 -19.668,-3.094 -33.286,-7.215 -41.067,-12.781 -7.441,-5.508 -11.812,-12.071 -13.066,-20.059 -1.543,-8.555 1.254,-15.383 8.664,-20.723 7.527,-5.234 20.152,-7.968 37.976,-7.968 13.348,0 26.45,2.187 39.129,6.199 12.828,4.211 23.606,9.933 31.965,16.992 6.102,5.273 10.481,11.992 13.734,20.051 1.891,5.281 4.61,17.215 7.805,36.004"
         style="fill:#004977;fill-opacity:1;fill-rule:nonzero;stroke:none"
         id="path18" /><path
         d="m 1449.08,730.34 c 4.55,25.531 44.87,46.273 89.91,46.273 45.11,0 78.04,-20.742 73.68,-46.273 -4.75,-25.563 -44.99,-46.274 -90.15,-46.274 -45.26,0 -78.02,20.711 -73.44,46.274 z m -63.49,-382.711 55.08,310.742 h 151.91 l -55.07,-310.742 h -151.92"
         style="fill:#004977;fill-opacity:1;fill-rule:nonzero;stroke:none"
         id="path20" /><path
         d="m 2295.79,592.484 c -0.63,-15.265 -3.34,-28.703 -7.51,-51.75 l -27.51,-155.711 c -2.39,-13.722 2.7,-24.511 15.47,-32.168 l -0.93,-5.371 -158.62,-0.312 -1.22,39.637 c -23.19,-14.051 -51.21,-25.75 -76.25,-32.547 -25.27,-6.633 -45.62,-9.356 -76.32,-9.356 -51.19,0 -80.34,5.157 -100.66,23.028 -20.67,18.379 -30.66,30.457 -29.54,55.593 0.55,14.61 8.2,33.332 19.1,46.184 11,13.387 25.98,21.875 42.34,29.531 16.37,7.703 35.73,13.399 63.41,18.028 28.21,4.375 67.41,9.121 119.7,13.484 27.24,2.285 44.03,8.476 51.83,11.496 11.09,4.258 15.44,9.051 17.09,18.008 2.8,15.672 -2.21,25.027 -23.29,29.285 -57.44,11.359 -164.28,-7.273 -219.5,-20.996 l 29.87,80.93 c 73.09,10.664 141,17.5 212.95,17.5 114.12,0 150.52,-32.747 149.59,-74.493 z M 2132.06,490.473 c -6.8,-2.317 -15.62,-4.825 -26.35,-7.297 -10.66,-2.528 -30.34,-5.692 -59.03,-10.36 -19.53,-3.105 -33.39,-7.226 -40.89,-12.804 -7.27,-5.34 -11.65,-11.973 -13.18,-19.989 -1.59,-8.585 1.53,-15.519 8.68,-20.683 7.67,-5.274 20.38,-7.824 38.22,-7.824 13.23,0 26.2,1.964 38.97,5.988 12.94,4.324 23.72,9.863 32.11,16.992 5.85,5.254 10.34,12.117 13.5,20.176 1.96,5.195 4.59,17.176 7.97,35.801"
         style="fill:#004977;fill-opacity:1;fill-rule:nonzero;stroke:none"
         id="path22" /><path
         d="m 441.832,459.32 c -49.437,-9.797 -77.273,-13.574 -126.16,-13.574 -72.57,0 -130.211,36.035 -127.106,102.07 2.227,43.985 54.352,136.825 186.774,136.825 41.66,0 74.254,-7.352 118.082,-32.344 l 19.226,107.945 c -59.57,22.52 -99.058,25.899 -150.195,25.332 C 188.949,783.715 22.1914,704.777 1.54688,544.359 -19.4883,381.32 179.637,340.316 268.055,340.707 c 51.05,0.145 104.09,2.227 153.617,7.363 l 20.16,111.25"
         style="fill:#004977;fill-opacity:1;fill-rule:nonzero;stroke:none"
         id="path24" /><path
         d="m 1676.28,660.16 10.93,63.27 158.87,34.593 -16.89,-97.863 h 77.79 l -14.78,-62.59 -75.48,0.188 -45.85,-249.914 c 0,0 -152.98,1.015 -153.51,0 l 45.66,249.308 h -57.76 L 1617,660.16 h 59.28"
         style="fill:#004977;fill-opacity:1;fill-rule:nonzero;stroke:none"
         id="path26" /><path
         d="m 2450,347.844 -154.72,-0.215 77.83,433.559 150.69,-4.25 -73.8,-429.094"
         style="fill:#004977;fill-opacity:1;fill-rule:nonzero;stroke:none"
         id="path28" /><path
         d="m 908.078,240.328 73.934,416.52 h 133.398 l -10.32,-53.172 c 11.58,15.879 30.08,28.894 55.58,39.531 25.75,10.527 54.72,18.34 86.18,18.34 34.82,0 56.29,-1.875 82.35,-15.371 25.9,-13.606 43.97,-33.301 53.83,-58.985 9.99,-25.273 12.07,-53.683 6.65,-84.609 -9.02,-51.309 -34.06,-91.809 -75.08,-121.555 -40.73,-29.714 -77.35,-37.527 -129.69,-37.734 -18.53,0 -34.02,1.934 -46.9,5.07 -12.58,3.301 -22.6,7.285 -30.25,12.149 -7.29,4.91 -15.05,11.699 -25,22.578 l -24.87,-142.762 z m 276.602,345.203 c -19.89,0 -37.92,-5.988 -53.93,-18.078 -15.87,-12.117 -25.97,-29.726 -30.05,-53.203 -4.78,-27.129 -1.98,-46.582 8.76,-58.652 10.86,-11.922 26.45,-17.918 46.95,-17.918 13.82,0 28.13,2.468 38.67,7.656 13,6.883 21.97,14.16 29.73,25.566 8.39,12.071 13.87,25.469 16.7,41.016 4.36,24.539 0.67,42.93 -10.7,55.047 -11.07,12.453 -26.32,18.566 -46.13,18.566"
         style="fill:#004977;fill-opacity:1;fill-rule:nonzero;stroke:none"
         id="path30" /><path
         d="m 3679.25,356.105 12.05,-8.152 c -30.39,-61.875 -92.35,-111.691 -165.02,-111.691 -59.46,0 -108.19,39.566 -110.77,113.886 -4.8,133.196 119.97,256.934 222.17,256.934 43.85,0 84.47,-19.148 86.3,-66.348 3.76,-105.898 -144.98,-138.308 -242.96,-140.496 -3.19,-11.074 -4.37,-22.218 -3.81,-39.133 1.62,-43.925 28.2,-80.867 83.13,-80.867 47.47,0 94.92,38.211 118.91,75.867 z m -13.33,191.29 c -0.87,25.05 -13.46,41.886 -39.31,41.886 -62.3,0 -128.57,-122.031 -140.01,-171.261 102.23,0 181.79,60.878 179.32,129.375"
         style="fill:#004977;fill-opacity:1;fill-rule:nonzero;stroke:none"
         id="path32" /><path
         d="m 3069.82,550.883 c 10.55,1.414 27.54,3.262 34.87,3.262 11.2,0 21.7,-2.122 22.22,-13.157 0.2,-6.582 -11.64,-53.75 -14.15,-64.715 l -23.69,-104.472 c -9.57,-42.75 -19.96,-87.52 -29.15,-122.891 h 60.88 l 34.2,165.516 c 104.44,108.73 144.59,144.199 169.25,144.199 11.06,0 18.71,-5.828 19.25,-19.102 0.61,-19.14 -11.25,-62.597 -15.36,-75.046 l -34.93,-120.715 c -7.94,-27.133 -13.81,-51.582 -13.27,-69.071 1.09,-26.519 17.1,-38.281 40.88,-38.281 44.5,0 76.77,46.371 105.02,91.891 l -8.27,14.965 c -11.46,-18.344 -37.8,-58.317 -58.62,-58.317 -6.59,0 -12.79,4.403 -13.02,15.422 -0.62,14.141 5.34,35.219 9.44,49.231 l 38.79,141.386 c 10.38,38.965 15.38,64.035 15.12,77.375 -0.97,26.407 -16.4,38.758 -40.01,38.758 -40.02,0 -93.24,-29.266 -205.82,-158.855 h -1.59 l 14.16,63.25 c 7.7,34.57 15.21,70.664 22.53,95.605 -38.93,-14.043 -94.76,-29.734 -129.25,-36.394 l 0.52,-19.844"
         style="fill:#004977;fill-opacity:1;fill-rule:nonzero;stroke:none"
         id="path34" /><path
         d="m 3787.92,667.055 c 8.16,0 15.19,0.586 15.19,10.254 0,7.714 -6.88,9.16 -13.58,9.16 h -12.74 v -19.414 z m -11.13,-35.012 h -9.63 v 62.355 H 3791 c 14.76,0 22.08,-5.429 22.08,-17.656 0,-11.25 -6.95,-15.996 -16.22,-17.246 l 17.78,-27.453 h -10.65 l -16.4,27.062 h -10.8 z m 11.46,-13.973 c 24.37,0 43.71,19.082 43.71,45.332 0,25.567 -19.34,44.883 -43.71,44.883 -24.9,0 -44.09,-19.316 -44.09,-44.883 0,-26.25 19.19,-45.332 44.09,-45.332 z m -54.92,45.332 c 0,30.996 25.05,53.817 54.92,53.817 29.45,0 54.53,-22.821 54.53,-53.817 0,-31.359 -25.08,-54.289 -54.53,-54.289 -29.87,0 -54.92,22.93 -54.92,54.289"
         style="fill:#004977;fill-opacity:1;fill-rule:nonzero;stroke:none"
         id="path36" /></g></g></svg>
