<?xml version="1.0" encoding="UTF-8" standalone="no"?>
<svg
   xmlns:dc="http://purl.org/dc/elements/1.1/"
   xmlns:cc="http://creativecommons.org/ns#"
   xmlns:rdf="http://www.w3.org/1999/02/22-rdf-syntax-ns#"
   xmlns:svg="http://www.w3.org/2000/svg"
   xmlns="http://www.w3.org/2000/svg"
   xmlns:sodipodi="http://sodipodi.sourceforge.net/DTD/sodipodi-0.dtd"
   xmlns:inkscape="http://www.inkscape.org/namespaces/inkscape"
   version="1.1"
   id="svg2"
   xml:space="preserve"
   width="252.37334"
   height="119.38667"
   viewBox="0 0 252.37334 119.38667"
   sodipodi:docname="Cargill┬«_black_1c.eps"><metadata
     id="metadata8"><rdf:RDF><cc:Work
         rdf:about=""><dc:format>image/svg+xml</dc:format><dc:type
           rdf:resource="http://purl.org/dc/dcmitype/StillImage" /></cc:Work></rdf:RDF></metadata><defs
     id="defs6" /><sodipodi:namedview
     pagecolor="#ffffff"
     bordercolor="#666666"
     borderopacity="1"
     objecttolerance="10"
     gridtolerance="10"
     guidetolerance="10"
     inkscape:pageopacity="0"
     inkscape:pageshadow="2"
     inkscape:window-width="640"
     inkscape:window-height="480"
     id="namedview4" /><g
     id="g10"
     inkscape:groupmode="layer"
     inkscape:label="ink_ext_XXXXXX"
     transform="matrix(1.3333333,0,0,-1.3333333,0,119.38667)"><g
       id="g12"
       transform="scale(0.1)"><path
         d="m 1803.05,571.191 h 10.64 c 7.59,0 15.79,0.793 15.79,9.524 0,7.691 -6.62,9.961 -12.64,9.961 h -13.79 z m -4.28,23.196 h 18.8 c 11.29,0 16.23,-4.731 16.23,-13.813 0,-8.14 -5.73,-12.09 -12.86,-13.211 l 14.93,-22.937 h -4.74 l -15.08,23.035 h -13 v -23.035 h -4.28 z m -22.64,-25 c 0,-21.391 16.55,-38.547 38.13,-38.547 21.61,0 37.87,17.273 37.87,38.664 0,21.582 -16.17,38.457 -37.87,38.457 -21.79,0 -38.13,-16.731 -38.13,-38.574 z m 80.32,0 c 0,-23.391 -18.88,-42.309 -42.28,-42.309 -23.42,0 -42.32,18.918 -42.32,42.309 0,23.386 18.9,42.312 42.32,42.312 23.4,0 42.28,-18.926 42.28,-42.312"
         style="fill:#231f20;fill-opacity:1;fill-rule:nonzero;stroke:none"
         id="path14" /><path
         d="m 548.168,267.82 v 0 0 z m 10.656,52.715 c 0,0 -2.015,-1.844 -5.894,-3.387 -6.375,-2.429 -20.442,-4.738 -29.137,-6.921 -6.762,-1.672 -14.355,-3.618 -22.605,-7.082 -21.895,-9.266 -33.157,-24.461 -38.993,-52.352 -3.39,-16.359 -1.402,-29.699 5.797,-38.547 5.406,-6.621 13.313,-10.105 22.961,-10.105 39.168,0 51.402,37.461 57.215,65.679 l 10.973,52.715 z m 1.11,182.61 c 53.566,0 86.195,-9.415 102.582,-29.532 8.914,-10.949 13.425,-25.515 13.547,-43.957 0.046,-10.222 -1.278,-21.66 -3.883,-34.402 L 635.473,217.902 c -5.09,-24.543 -8.184,-43.332 -8.067,-58.859 0.016,-4.934 0.477,-9.52 1.184,-13.855 -14.75,0 -88.977,0 -100.453,0 -0.063,1.082 -0.157,2.167 -0.184,3.281 -0.098,7.371 0.492,15.105 1.125,23.14 l 1.09,14.551 h -5.543 l -2.191,-3.418 c -18.094,-28.992 -58.996,-46.941 -94.067,-46.941 -29.129,0 -49.898,7.414 -61.914,22.168 -13.23,16.242 -16.39,41.699 -9.449,75.617 13.75,66.199 43.812,94.207 119.328,111.172 0.023,0 50.145,11.414 50.145,11.414 29.738,6.57 44.105,19.668 49.406,45.359 2.887,14.055 1.281,24.934 -4.692,32.348 -5.582,6.824 -14.543,10.273 -26.586,10.273 -26.886,0 -41.183,-13.871 -49.96,-48.39 -9.352,0 -74.993,0 -89.688,0 24.082,93.136 106.863,107.383 154.977,107.383"
         style="fill:#231f20;fill-opacity:1;fill-rule:nonzero;stroke:none"
         id="path16" /><path
         d="m 1015.85,324.082 c -10.64,-51.641 -10.15,-71.516 0.26,-84.336 5.17,-6.394 12.93,-9.473 23.69,-9.473 29.63,0 44.16,18.02 59.21,90.735 10.75,52.066 11.88,85.144 1.61,97.832 -5.1,6.172 -12.49,9.234 -22.7,9.234 -30.64,0 -46.97,-31.277 -62.07,-103.992 z M 918.969,176.516 c -21.16,26.004 -25.379,66.941 -10.711,139.871 31.875,158.73 92.222,186.758 144.762,186.758 24.92,0 62.52,-9.219 66.94,-53.055 l 0.74,-6.789 h 7.27 c 0,0 8.52,41.191 10.37,50.383 9.93,0 83,0 97.62,0 -3.57,-17.102 -72.47,-348.496 -72.47,-348.496 C 1146.24,61.9414 1092.8,20.5 994.711,20.5 c -90.809,0 -104.305,53.5625 -106.336,70.1367 -0.762,6.3047 1.328,24.8903 1.328,24.8903 10.449,0 81.719,0 94.988,0 0,-0.078 0,-0.078 0,-0.078 0.02,-8.445 0.715,-20.9568 3.547,-24.4529 3.934,-4.8516 7.188,-10.5742 22.242,-10.5742 19.98,0 39.18,5.789 48.52,50.9371 l 16.17,78.211 h -7.83 l -2.15,-3.703 c -19.43,-33.66 -55.68,-50.691 -93.885,-50.691 -23.496,0 -40.657,6.953 -52.336,21.34"
         style="fill:#231f20;fill-opacity:1;fill-rule:nonzero;stroke:none"
         id="path18" /><path
         d="m 1392.5,493.684 c -3.52,-16.797 -69.79,-337.325 -72.11,-348.496 -9.99,0 -90.79,0 -105.7,0 3.5,16.843 69.89,337.363 72.18,348.496 10,0 90.73,0 105.63,0"
         style="fill:#231f20;fill-opacity:1;fill-rule:nonzero;stroke:none"
         id="path20" /><path
         d="m 1586.55,609.934 c -3.56,-17.075 -93.82,-453.411 -96.18,-464.746 -10.08,0 -90.76,0 -105.71,0 3.55,17.156 93.85,453.472 96.19,464.746 10.09,0 90.78,0 105.7,0"
         style="fill:#231f20;fill-opacity:1;fill-rule:nonzero;stroke:none"
         id="path22" /><path
         d="m 1755.93,609.934 c -3.59,-17.075 -93.88,-453.411 -96.29,-464.746 -9.95,0 -90.75,0 -105.56,0 3.53,17.156 93.84,453.472 96.19,464.746 9.98,0 90.79,0 105.66,0"
         style="fill:#231f20;fill-opacity:1;fill-rule:nonzero;stroke:none"
         id="path24" /><path
         d="m 934,503.145 c -34.59,0 -75.82,-24.207 -95.937,-63.165 l -2.09,-4.042 h -7.735 c 0,0 9.317,44.921 11.934,57.746 -1.953,0 -5.129,0 -9.063,0 v 0.046 c -11.445,0 -85.726,0 -100.504,0 0.727,-4.343 1.157,-8.875 1.18,-13.875 0.063,-11.171 -1.515,-24.082 -4.297,-39.582 -19.566,-94.636 -58.449,-282.304 -61.047,-295.085 14.829,0 95.625,0 105.7,0 6.746,32.742 39.711,192.312 39.711,192.312 9.921,48.008 38.086,70.344 88.503,70.344 8.711,0 16.348,-0.489 23.868,-1.574 2.363,11.289 17.09,82.628 20.019,96.875 -5.105,0 -10.242,0 -10.242,0"
         style="fill:#231f20;fill-opacity:1;fill-rule:nonzero;stroke:none"
         id="path26" /><path
         d="m 59.418,163.359 c -26.3633,32.403 -27.5274,91.934 -3.9727,205.625 37.6055,181.75 91.9497,243.039 215.4067,243.039 49.308,0 83.949,-11.718 102.859,-34.945 12.25,-14.988 18.441,-35.469 18.578,-61.14 0.059,-13.973 -1.676,-29.54 -5.141,-46.551 0,0 -3.257,-15.5 -5.054,-24.258 -10.039,0 -104.024,0 -104.024,0 0,0 7.711,49.59 7.668,60.535 -0.097,12.277 -0.566,18.945 -5.285,25.164 -4.871,6.43 -12.14,11.567 -23.512,11.567 -45.972,0 -61.086,-43.782 -87.293,-170.332 C 149.332,273.84 142.066,228.75 157.77,209.484 c 5.937,-7.296 14.933,-10.8 27.488,-10.8 36.222,0 50.48,31.05 68.726,117.39 9.918,0 89.942,0 104.762,0 -2.07,-10.008 -5.508,-26.511 -5.508,-26.511 -22.05,-106.504 -84.433,-160.547 -185.547,-160.547 -54.796,0 -89.1558,10.945 -108.273,34.343"
         style="fill:#231f20;fill-opacity:1;fill-rule:nonzero;stroke:none"
         id="path28" /><path
         d="M 1401.55,534.824 C 1409.83,726.34 1178.86,870.129 963.336,825.41 747.883,780.715 643.734,593.137 616.539,535.215 h 35.184 c 47.222,79.289 94.972,140.879 176.32,163.84 51.719,14.566 92.344,11.25 192.337,-44.571 46.08,-25.695 150.32,-102.961 262.29,-118.429 48.66,-6.707 118.88,-1.231 118.88,-1.231"
         style="fill:#231f20;fill-opacity:1;fill-rule:nonzero;stroke:none"
         id="path30" /></g></g></svg>
