<?xml version="1.0" encoding="UTF-8" standalone="no"?>
<svg
   xmlns:dc="http://purl.org/dc/elements/1.1/"
   xmlns:cc="http://creativecommons.org/ns#"
   xmlns:rdf="http://www.w3.org/1999/02/22-rdf-syntax-ns#"
   xmlns:svg="http://www.w3.org/2000/svg"
   xmlns="http://www.w3.org/2000/svg"
   xmlns:sodipodi="http://sodipodi.sourceforge.net/DTD/sodipodi-0.dtd"
   xmlns:inkscape="http://www.inkscape.org/namespaces/inkscape"
   version="1.1"
   id="svg2"
   xml:space="preserve"
   width="165.33333"
   height="53.333332"
   viewBox="0 0 165.33333 53.333332"
   sodipodi:docname="Google.ai"><metadata
     id="metadata8"><rdf:RDF><cc:Work
         rdf:about=""><dc:format>image/svg+xml</dc:format><dc:type
           rdf:resource="http://purl.org/dc/dcmitype/StillImage" /></cc:Work></rdf:RDF></metadata><defs
     id="defs6"><clipPath
       clipPathUnits="userSpaceOnUse"
       id="clipPath18"><path
         d="M 0,40 H 124 V 0 H 0 Z"
         id="path16" /></clipPath></defs><sodipodi:namedview
     pagecolor="#ffffff"
     bordercolor="#666666"
     borderopacity="1"
     objecttolerance="10"
     gridtolerance="10"
     guidetolerance="10"
     inkscape:pageopacity="0"
     inkscape:pageshadow="2"
     inkscape:window-width="640"
     inkscape:window-height="480"
     id="namedview4" /><g
     id="g10"
     inkscape:groupmode="layer"
     inkscape:label="Google"
     transform="matrix(1.3333333,0,0,-1.3333333,0,53.333333)"><g
       id="g12"><g
         id="g14"
         clip-path="url(#clipPath18)"><g
           id="g20"
           transform="translate(15.6562,8.9686)"><path
             d="m 0,0 c -8.512,0 -15.656,6.963 -15.656,15.516 0,8.552 7.144,15.515 15.656,15.515 4.708,0 8.06,-1.854 10.583,-4.276 L 7.608,23.766 C 5.8,25.468 3.352,26.793 0,26.793 c -6.214,0 -11.073,-5.033 -11.073,-11.277 0,-6.244 4.859,-11.277 11.073,-11.277 4.03,0 6.327,1.627 7.796,3.103 1.206,1.211 1.996,2.951 2.298,5.336 H 0 v 4.238 h 14.199 c 0.151,-0.757 0.226,-1.665 0.226,-2.649 0,-3.179 -0.866,-7.115 -3.653,-9.915 C 8.06,1.514 4.595,0 0,0"
             style="fill:#4285f4;fill-opacity:1;fill-rule:nonzero;stroke:none"
             id="path22" /></g><g
           id="g24"
           transform="translate(47.1463,18.9592)"><path
             d="m 0,0 c 0,3.595 -2.599,6.055 -5.612,6.055 -3.013,0 -5.611,-2.46 -5.611,-6.055 0,-3.557 2.598,-6.055 5.611,-6.055 C -2.599,-6.055 0,-3.557 0,0 m 4.369,0 c 0,-5.752 -4.482,-9.991 -9.981,-9.991 -5.498,0 -9.98,4.239 -9.98,9.991 0,5.79 4.482,9.991 9.98,9.991 5.499,0 9.981,-4.201 9.981,-9.991"
             style="fill:#ea4335;fill-opacity:1;fill-rule:nonzero;stroke:none"
             id="path26" /></g><g
           id="g28"
           transform="translate(68.8023,18.9592)"><path
             d="m 0,0 c 0,3.595 -2.599,6.055 -5.612,6.055 -3.013,0 -5.611,-2.46 -5.611,-6.055 0,-3.557 2.598,-6.055 5.611,-6.055 C -2.599,-6.055 0,-3.557 0,0 m 4.369,0 c 0,-5.752 -4.482,-9.991 -9.981,-9.991 -5.498,0 -9.98,4.239 -9.98,9.991 0,5.79 4.482,9.991 9.98,9.991 5.499,0 9.981,-4.201 9.981,-9.991"
             style="fill:#fbbc05;fill-opacity:1;fill-rule:nonzero;stroke:none"
             id="path30" /></g><g
           id="g32"
           transform="translate(90.0674,18.9214)"><path
             d="m 0,0 c 0,3.52 -2.335,6.093 -5.311,6.093 -3.013,0 -5.536,-2.573 -5.536,-6.093 0,-3.481 2.523,-6.017 5.536,-6.017 C -2.335,-6.017 0,-3.481 0,0 M 3.842,9.458 V -8.515 c 0,-7.379 -4.332,-10.406 -9.454,-10.406 -4.821,0 -7.721,3.254 -8.813,5.903 l 3.804,1.59 c 0.678,-1.628 2.335,-3.558 5.009,-3.558 3.277,0 5.311,2.044 5.311,5.866 v 1.438 h -0.151 c -0.979,-1.211 -2.862,-2.271 -5.235,-2.271 -4.972,0 -9.529,4.352 -9.529,9.953 0,5.639 4.557,10.029 9.529,10.029 2.373,0 4.256,-1.06 5.235,-2.233 h 0.151 v 1.662 z"
             style="fill:#4285f4;fill-opacity:1;fill-rule:nonzero;stroke:none"
             id="path34" /></g><path
           d="M 101.103,9.574 H 96.734 V 38.94 h 4.369 z"
           style="fill:#34a853;fill-opacity:1;fill-rule:nonzero;stroke:none"
           id="path36" /><g
           id="g38"
           transform="translate(107.4389,19.2621)"><path
             d="M 0,0 8.889,3.709 C 8.399,4.958 6.93,5.828 5.197,5.828 2.975,5.828 -0.113,3.86 0,0 m 10.433,-3.595 3.39,-2.271 c -1.093,-1.627 -3.729,-4.427 -8.287,-4.427 -5.649,0 -9.867,4.389 -9.867,9.99 0,5.942 4.256,9.991 9.378,9.991 5.16,0 7.683,-4.125 8.512,-6.358 L 14.011,2.195 0.716,-3.33 c 1.017,-2.006 2.598,-3.028 4.82,-3.028 2.223,0 3.767,1.098 4.897,2.763"
             style="fill:#ea4335;fill-opacity:1;fill-rule:nonzero;stroke:none"
             id="path40" /></g></g></g></g></svg>
