<?xml version="1.0" encoding="UTF-8" standalone="no"?>
<svg
   xmlns:dc="http://purl.org/dc/elements/1.1/"
   xmlns:cc="http://creativecommons.org/ns#"
   xmlns:rdf="http://www.w3.org/1999/02/22-rdf-syntax-ns#"
   xmlns:svg="http://www.w3.org/2000/svg"
   xmlns="http://www.w3.org/2000/svg"
   xmlns:sodipodi="http://sodipodi.sourceforge.net/DTD/sodipodi-0.dtd"
   xmlns:inkscape="http://www.inkscape.org/namespaces/inkscape"
   version="1.1"
   id="svg2"
   xml:space="preserve"
   width="639.65332"
   height="145.66667"
   viewBox="0 0 639.65332 145.66667"
   sodipodi:docname="Grainger.eps"><metadata
     id="metadata8"><rdf:RDF><cc:Work
         rdf:about=""><dc:format>image/svg+xml</dc:format><dc:type
           rdf:resource="http://purl.org/dc/dcmitype/StillImage" /></cc:Work></rdf:RDF></metadata><defs
     id="defs6" /><sodipodi:namedview
     pagecolor="#ffffff"
     bordercolor="#666666"
     borderopacity="1"
     objecttolerance="10"
     gridtolerance="10"
     guidetolerance="10"
     inkscape:pageopacity="0"
     inkscape:pageshadow="2"
     inkscape:window-width="640"
     inkscape:window-height="480"
     id="namedview4" /><g
     id="g10"
     inkscape:groupmode="layer"
     inkscape:label="ink_ext_XXXXXX"
     transform="matrix(1.3333333,0,0,-1.3333333,0,145.66667)"><g
       id="g12"
       transform="scale(0.1)"><path
         d="m 4114.4,1071.5 -32.53,-201.012 h -159.15 l 10.43,65.371 h -119.58 l -15,-94.199 h 140 l -25,-154.512 H 3773.8 l -18.87,-114.546 h 126.84 l 12.63,81.07 h 163.75 l -36.58,-224.25 h -508.6 l 23.37,143.18 h 48.26 l 59.43,363.257 h -47.55 l 22.09,135.641 h 495.83"
         style="fill:#231f20;fill-opacity:1;fill-rule:nonzero;stroke:none"
         id="path14" /><path
         d="m 2690.8,752.52 29.86,183.339 h -47.43 l 21.8,135.641 h 267.3 l -21.98,-135.641 h -47.75 l -82.36,-506.437 h -143.76 l -182.07,359.621 -34.68,-216.441 h 47.65 l -22.98,-143.18 h -269.22 l 22.98,143.18 h 47.5 l 59.38,363.257 h -47.72 l 21.67,135.641 h 215.23 L 2690.8,752.52"
         style="fill:#231f20;fill-opacity:1;fill-rule:nonzero;stroke:none"
         id="path16" /><path
         d="m 1564.24,760.82 65.31,151.133 13.38,-151.133 z m 307.06,-331.343 23.32,143.125 h -47.94 l -84.84,498.898 h -307.22 l -21.84,-135.641 h 47.79 L 1294.71,572.602 h -47.17 l -23.56,-143.18 h 268.97 l 23.61,143.18 h -48.2 l 23.89,53.023 h 166.58 l 6.72,-53.023 h -47.6 l -23.16,-143.18 276.51,0.055"
         style="fill:#231f20;fill-opacity:1;fill-rule:nonzero;stroke:none"
         id="path18" /><path
         d="m 1048.62,806.387 c -30.97,-28.418 -79.194,-17.344 -121.284,-19.239 l 22.898,140.645 c 47.774,-1.133 113.406,13.379 131.106,-41.016 4.14,-30.976 -6.78,-60.254 -32.72,-80.39 z m 42.66,-118.848 c 31.89,7.539 59.47,26.758 85.41,49.375 58.65,53.574 91.27,131.445 67.73,211.797 -22.52,75.349 -102.03,117.659 -175.76,122.739 H 749.414 l -21.66,-135.669 h 47.488 L 716.238,572.547 H 668.164 L 645.039,429.344 H 905.48 l 23.536,143.203 h -36.274 l 13.75,85.676 127.928,-228.879 h 160.24 l 23.51,143.203 h -59.88 l -67.01,114.992"
         style="fill:#231f20;fill-opacity:1;fill-rule:nonzero;stroke:none"
         id="path20" /><path
         d="m 2176.72,429.684 23.04,143.074 h -47.71 l 59.42,363.258 h 47.5 l 21.66,135.644 h -276.24 l -22.08,-135.644 h 47.5 l -58.75,-363.258 h -47.92 l -23.09,-143.387 276.67,0.313"
         style="fill:#231f20;fill-opacity:1;fill-rule:nonzero;stroke:none"
         id="path22" /><path
         d="m 4453.87,806.508 c -30.98,-28.414 -79.2,-17.34 -121.29,-19.238 l 22.9,140.648 c 47.77,-1.137 113.41,13.379 131.1,-41.02 4.14,-30.972 -6.78,-60.253 -32.71,-80.39 z m 42.65,-118.848 c 31.9,7.539 59.48,26.762 85.41,49.375 58.66,53.574 91.27,131.445 67.74,211.801 -22.52,75.344 -102.03,117.654 -175.76,122.734 H 4154.66 L 4133,935.902 h 47.49 L 4121.48,572.66 h -48.07 l -23.13,-143.199 h 260.44 l 23.54,143.199 h -36.27 l 13.75,85.684 127.93,-228.883 h 160.23 l 23.52,143.199 h -59.88 l -67.02,115"
         style="fill:#231f20;fill-opacity:1;fill-rule:nonzero;stroke:none"
         id="path24" /><path
         d="M 956.152,286.207 909.766,0 H 4529.97 l 46.66,286.207 H 956.152"
         style="fill:#ce1c2f;fill-opacity:1;fill-rule:nonzero;stroke:none"
         id="path26" /><path
         d="M 292.91,286.207 H 228.563 L 182.18,0 h 64.343 l 46.387,286.207"
         style="fill:#ce1c2f;fill-opacity:1;fill-rule:nonzero;stroke:none"
         id="path28" /><path
         d="M 501.328,286.207 H 410.742 L 364.355,0 h 90.586 l 46.387,286.207"
         style="fill:#ce1c2f;fill-opacity:1;fill-rule:nonzero;stroke:none"
         id="path30" /><path
         d="M 84.4922,286.207 H 46.3867 L 0,0 h 38.1055 l 46.3867,286.207"
         style="fill:#ce1c2f;fill-opacity:1;fill-rule:nonzero;stroke:none"
         id="path32" /><path
         d="M 918.242,286.207 H 775.168 L 728.777,0 h 143.078 l 46.387,286.207"
         style="fill:#ce1c2f;fill-opacity:1;fill-rule:nonzero;stroke:none"
         id="path34" /><path
         d="M 709.766,286.207 H 592.949 L 546.563,0 h 116.816 l 46.387,286.207"
         style="fill:#ce1c2f;fill-opacity:1;fill-rule:nonzero;stroke:none"
         id="path36" /><path
         d="m 4790.97,499.254 c -0.21,-36 -28.41,-64.602 -65,-64.602 -35.61,0 -64.81,28.399 -64.81,64.801 0,35.602 28.4,64.801 65.21,64.801 36.99,0 64.79,-29.399 64.6,-65 z m 6.39,-0.199 c 0.2,38.996 -30.19,71.601 -71.39,71.601 -38.4,0 -71.2,-30.203 -71.2,-71.203 0,-42.199 33.99,-71.199 70.99,-71.199 40.4,0 71.41,31.398 71.6,70.801 z m -100,45.199 v -89 h 13 v 41.398 h 6.41 c 12.79,-0.203 20,-1.797 22.6,-15 0.4,-2.199 1.79,-12.199 2.19,-14.199 0.8,-4.199 1.6,-8.199 3.61,-12.199 h 15 c -4.01,8 -4.6,12.797 -6.61,25.801 -1.79,10.797 -4.8,15.996 -14.4,19.601 11.01,1.797 20,8.996 20,21.395 0,8.402 -4.6,16.601 -13.59,20.203 -5.4,2 -10.4,2 -20.8,2 z m 13.21,-10 h 12.19 c 10.8,0 15.2,0 19.01,-3.399 2.6,-2.203 4.2,-5.8 4.2,-9.8 0,-14.203 -14.81,-14.004 -20.4,-14.004 h -15 v 27.203"
         style="fill:#231f20;fill-opacity:1;fill-rule:nonzero;stroke:none"
         id="path38" /><path
         d="M 557.676,1072.34 H 690.375 L 655.172,854.332 H 504.27 c -8.379,35.172 -44.434,68.285 -79.641,75.836 -64.606,14.258 -130.738,-8.285 -171.824,-60.246 -45.239,-62.938 -65.383,-168.711 -22.66,-237.43 29.382,-46.101 85.906,-63.14 138.742,-54.82 41.113,7.543 82.543,43.941 100.144,82.5 l -168.172,0.137 21.043,130.449 H 676.195 L 617.418,429.262 H 480.895 l 8.367,40.875 C 473.168,448.703 429.941,412.34 323.285,412.34 c -134.668,0 -281.8397,113.894 -281.8397,314.848 0,165.398 125.1717,366.152 347.2267,365.342 56.598,-0.21 120.058,-14.45 161.019,-53.61 l 7.985,33.42"
         style="fill:#231f20;fill-opacity:1;fill-rule:nonzero;stroke:none"
         id="path40" /><path
         d="m 3425.18,1072.34 h 132.69 l -35.2,-218.008 h -150.91 c -8.38,35.172 -44.44,68.285 -79.63,75.836 -64.61,14.258 -130.74,-8.285 -171.84,-60.246 -45.23,-62.938 -65.37,-168.711 -22.65,-237.43 29.38,-46.101 85.9,-63.14 138.75,-54.82 41.11,7.543 82.54,43.941 100.13,82.5 l -168.16,0.137 21.03,130.449 h 354.3 l -58.78,-361.496 h -136.52 l 8.37,40.875 c -16.1,-21.434 -59.32,-57.797 -165.98,-57.797 -134.67,0 -281.83,113.894 -281.83,314.848 0,165.398 125.16,366.152 347.22,365.342 56.59,-0.21 120.06,-14.45 161.02,-53.61 l 7.99,33.42"
         style="fill:#231f20;fill-opacity:1;fill-rule:nonzero;stroke:none"
         id="path42" /></g></g></svg>
