<?xml version="1.0" encoding="UTF-8" standalone="no"?>
<svg
   xmlns:dc="http://purl.org/dc/elements/1.1/"
   xmlns:cc="http://creativecommons.org/ns#"
   xmlns:rdf="http://www.w3.org/1999/02/22-rdf-syntax-ns#"
   xmlns:svg="http://www.w3.org/2000/svg"
   xmlns="http://www.w3.org/2000/svg"
   xmlns:sodipodi="http://sodipodi.sourceforge.net/DTD/sodipodi-0.dtd"
   xmlns:inkscape="http://www.inkscape.org/namespaces/inkscape"
   version="1.1"
   id="svg2"
   xml:space="preserve"
   width="571.20001"
   height="240"
   viewBox="45 60 450 150"
   sodipodi:docname="Optum(R)_4C.eps"><metadata
     id="metadata8"><rdf:RDF><cc:Work
         rdf:about=""><dc:format>image/svg+xml</dc:format><dc:type
           rdf:resource="http://purl.org/dc/dcmitype/StillImage" /></cc:Work></rdf:RDF></metadata><defs
     id="defs6" /><sodipodi:namedview
     pagecolor="#ffffff"
     bordercolor="#666666"
     borderopacity="1"
     objecttolerance="10"
     gridtolerance="10"
     guidetolerance="10"
     inkscape:pageopacity="0"
     inkscape:pageshadow="2"
     inkscape:window-width="640"
     inkscape:window-height="480"
     id="namedview4" /><g
     id="g10"
     inkscape:groupmode="layer"
     inkscape:label="ink_ext_XXXXXX"
     transform="matrix(1.3333333,0,0,-1.3333333,0,240)"><g
       id="g12"
       transform="scale(0.1)"><path
         d="m 1044.71,749.102 c -16.7,-64.543 -33.15,-131.18 -49.167,-199.09 72.007,-46.492 142.567,-92.352 212.867,-131.66 -53.81,102.027 -107.83,214.429 -163.7,330.75"
         style="fill:#f46d1e;fill-opacity:1;fill-rule:nonzero;stroke:none"
         id="path14" /><path
         d="m 1044.71,749.102 c 64.35,-45.922 127.23,-92.442 189.19,-135.461 -8.39,-62.903 -16.95,-128.141 -25.49,-195.289 -53.81,102.027 -107.83,214.429 -163.7,330.75"
         style="fill:#e14d19;fill-opacity:1;fill-rule:nonzero;stroke:none"
         id="path16" /><path
         d="m 1044.71,749.102 c -16.7,-64.543 -33.15,-131.18 -49.167,-199.09 -71.922,46.449 -145.301,93.539 -219.035,135.539 88.555,28.429 178.902,50.801 268.202,63.551"
         style="fill:#e14d19;fill-opacity:1;fill-rule:nonzero;stroke:none"
         id="path18" /><path
         d="M 1044.71,749.102 C 980.383,795.039 914.566,840.383 848.059,881.129 823.59,816.836 799.73,751.211 776.508,685.551 c 88.555,28.429 178.902,50.801 268.202,63.551"
         style="fill:#f9ae0c;fill-opacity:1;fill-rule:nonzero;stroke:none"
         id="path20" /><path
         d="m 1117.96,1013.59 c -10.95,-36.91 -21.99,-75.176 -33,-114.613 57.7,-46.317 113.8,-93.875 168.58,-139.598 -44.5,79.851 -89.34,165.719 -135.58,254.211"
         style="fill:#f46d1e;fill-opacity:1;fill-rule:nonzero;stroke:none"
         id="path22" /><path
         d="m 1117.96,1013.59 c 51.93,-46.828 102.15,-95.129 150.78,-142.711 -4.91,-35.984 -9.98,-73.199 -15.2,-111.5 -44.5,79.851 -89.34,165.719 -135.58,254.211"
         style="fill:#e14d19;fill-opacity:1;fill-rule:nonzero;stroke:none"
         id="path24" /><path
         d="m 1044.71,749.102 c 13.28,51.429 26.75,101.527 40.25,149.875 57.7,-46.317 113.8,-93.875 168.58,-139.598 -67.4,3.922 -137.76,-0.098 -208.83,-10.277"
         style="fill:#f9ae0c;fill-opacity:1;fill-rule:nonzero;stroke:none"
         id="path26" /><path
         d="m 1044.71,749.102 c 64.35,-45.922 127.23,-92.442 189.19,-135.461 6.68,50.109 13.26,98.718 19.64,145.738 -67.4,3.922 -137.76,-0.098 -208.83,-10.277"
         style="fill:#f46d1e;fill-opacity:1;fill-rule:nonzero;stroke:none"
         id="path28" /><path
         d="m 1117.96,1013.59 c 9.11,30.67 18.22,60.37 27.18,88.99 46.84,-47.15 91.94,-95.87 135.37,-144.463 -51.23,24.891 -105.91,43.263 -162.55,55.473"
         style="fill:#b0afad;fill-opacity:1;fill-rule:nonzero;stroke:none"
         id="path30" /><path
         d="m 1117.96,1013.59 c 51.93,-46.828 102.15,-95.129 150.78,-142.711 4.07,29.949 8.02,59.043 11.77,87.238 -51.23,24.891 -105.91,43.263 -162.55,55.473"
         style="fill:#87878b;fill-opacity:1;fill-rule:nonzero;stroke:none"
         id="path32" /><path
         d="m 1117.96,1013.59 c 9.11,30.67 18.22,60.37 27.18,88.99 -46.83,47.15 -95.4,92.7 -145.292,135.03 40.402,-75.17 79.732,-150.5 118.112,-224.02"
         style="fill:#87878b;fill-opacity:1;fill-rule:nonzero;stroke:none"
         id="path34" /><path
         d="m 1117.96,1013.59 c -51.87,46.82 -105.45,92.17 -160.245,133.89 13.969,31.07 28.055,61.19 42.133,90.13 40.402,-75.17 79.732,-150.5 118.112,-224.02"
         style="fill:#d3cfcc;fill-opacity:1;fill-rule:nonzero;stroke:none"
         id="path36" /><path
         d="m 648.855,985.781 c -31.25,-65.172 -61.394,-130.836 -90.984,-195.109 70.981,-26.293 144.988,-63.16 218.637,-105.121 -42.113,102.898 -84.93,203.781 -127.653,300.23"
         style="fill:#e14d19;fill-opacity:1;fill-rule:nonzero;stroke:none"
         id="path38" /><path
         d="M 648.855,985.781 C 714.43,958.059 781.594,921.875 848.059,881.129 823.59,816.836 799.73,751.211 776.508,685.551 734.395,788.449 691.578,889.332 648.855,985.781"
         style="fill:#f46d1e;fill-opacity:1;fill-rule:nonzero;stroke:none"
         id="path40" /><path
         d="M 648.855,985.781 C 617.605,920.609 587.461,854.945 557.871,790.672 486.996,816.953 419.141,832.652 360,832.516 444.785,900.09 543.688,951.906 648.855,985.781"
         style="fill:#df970b;fill-opacity:1;fill-rule:nonzero;stroke:none"
         id="path42" /><path
         d="M 648.855,985.781 C 583.328,1013.53 519.32,1032.87 460.551,1040.08 425.598,969.965 392.402,899.992 360,832.516 c 84.785,67.574 183.688,119.39 288.855,153.265"
         style="fill:#fcd405;fill-opacity:1;fill-rule:nonzero;stroke:none"
         id="path44" /><path
         d="m 790.859,1259.67 c -22.211,-38.81 -44.039,-79.03 -65.41,-120.08 -60.66,30.13 -120.746,53.34 -177.847,67.03 76.468,32.26 159.293,49.91 243.257,53.05"
         style="fill:#fcd405;fill-opacity:1;fill-rule:nonzero;stroke:none"
         id="path46" /><path
         d="m 790.859,1259.67 c -56.054,32.37 -112.207,59.04 -166.695,77.94 -26.367,-42.4 -51.883,-86.32 -76.562,-130.99 76.468,32.26 159.293,49.91 243.257,53.05"
         style="fill:#f1b00a;fill-opacity:1;fill-rule:nonzero;stroke:none"
         id="path48" /><path
         d="m 648.855,985.781 c 24.875,51.919 50.372,103.499 76.594,153.809 -60.66,30.13 -120.746,53.34 -177.847,67.03 33.273,-69.98 67.211,-143.99 101.253,-220.839"
         style="fill:#f1b00a;fill-opacity:1;fill-rule:nonzero;stroke:none"
         id="path50" /><path
         d="m 648.855,985.781 c -65.527,27.749 -129.535,47.089 -188.304,54.299 27.851,55.84 56.808,111.78 87.051,166.54 33.273,-69.98 67.211,-143.99 101.253,-220.839"
         style="fill:#df970b;fill-opacity:1;fill-rule:nonzero;stroke:none"
         id="path52" /><path
         d="m 790.859,1259.67 c 18.45,32.26 37.204,63.55 56.121,93.64 51.743,-34.27 102.977,-73.37 152.868,-115.7 -68.61,17.3 -139.18,24.68 -208.989,22.06"
         style="fill:#87878b;fill-opacity:1;fill-rule:nonzero;stroke:none"
         id="path54" /><path
         d="m 790.859,1259.67 c 56.106,-32.39 112.09,-70.46 166.856,-112.19 13.969,31.07 28.055,61.19 42.133,90.13 -68.61,17.3 -139.18,24.68 -208.989,22.06"
         style="fill:#b0afad;fill-opacity:1;fill-rule:nonzero;stroke:none"
         id="path56" /><path
         d="m 790.859,1259.67 c 18.45,32.26 37.204,63.55 56.121,93.64 -51.742,34.25 -103.988,63.67 -155.492,86.69 33.285,-57.99 66.508,-118.44 99.371,-180.33"
         style="fill:#f1b00a;fill-opacity:1;fill-rule:nonzero;stroke:none"
         id="path58" /><path
         d="m 790.859,1259.67 c -56.054,32.37 -112.207,59.04 -166.695,77.94 21.871,35.27 44.359,69.53 67.324,102.39 33.285,-57.99 66.508,-118.44 99.371,-180.33"
         style="fill:#df970b;fill-opacity:1;fill-rule:nonzero;stroke:none"
         id="path60" /><path
         d="m 1653.75,753.18 c -89.44,0 -151.86,-71.442 -151.86,-159.59 0,-88.168 63.7,-160.879 153.15,-160.879 89.46,0 151.87,71.418 151.87,159.59 0,88.148 -63.7,160.879 -153.16,160.879 z m 0,-393.18 c -138.34,0 -234.87,104.891 -234.87,232.301 0,127.418 97.81,233.594 236.16,233.594 138.36,0 234.89,-104.907 234.89,-232.305 0,-127.41 -97.82,-233.59 -236.18,-233.59"
         style="fill:#4d4e55;fill-opacity:1;fill-rule:nonzero;stroke:none"
         id="path62" /><path
         d="m 2134.48,746.102 h -92.03 V 583.949 h 92.03 c 59.85,0 97.18,32.821 97.18,81.082 0,53.399 -37.98,81.071 -97.18,81.071 z m -2.58,-233.59 h -89.45 V 367.711 h -79.15 v 450.473 h 177.61 c 104.89,0 171.18,-59.204 171.18,-151.243 0,-101.66 -81.08,-154.429 -180.19,-154.429"
         style="fill:#4d4e55;fill-opacity:1;fill-rule:nonzero;stroke:none"
         id="path64" /><path
         d="M 2570.81,367.711 H 2491 v 377.098 h -142.86 v 73.375 h 365.52 V 744.809 H 2570.81 V 367.711"
         style="fill:#4d4e55;fill-opacity:1;fill-rule:nonzero;stroke:none"
         id="path66" /><path
         d="m 3169.28,562.711 c 0,-134.512 -75.94,-202.07 -193.69,-202.07 -117.12,0 -191.77,67.558 -191.77,198.199 v 259.344 h 79.15 V 562.059 c 0,-83.668 43.12,-128.707 113.91,-128.707 70.14,0 113.26,42.468 113.26,125.488 v 259.344 h 79.14 V 562.711"
         style="fill:#4d4e55;fill-opacity:1;fill-rule:nonzero;stroke:none"
         id="path68" /><path
         d="m 3476.89,478.391 h -2.58 L 3333.38,689.48 V 367.711 h -77.86 v 450.473 h 84.31 l 137.06,-213.012 137.06,213.012 h 84.3 V 367.711 h -79.14 V 690.77 L 3476.89,478.391"
         style="fill:#4d4e55;fill-opacity:1;fill-rule:nonzero;stroke:none"
         id="path70" /><path
         d="m 3856.43,766.262 c 9.71,0 15.15,5.047 15.15,12.437 0,8.153 -5.83,12.039 -15.15,12.039 h -18.25 v -24.476 z m -29.13,34.183 h 30.3 c 13.98,0 25.25,-7.375 25.25,-20.976 0,-11.27 -7.38,-17.867 -16.71,-20.59 l 19.04,-26.41 h -13.6 l -17.09,24.863 h -16.31 v -24.863 h -10.88 z m 85.08,-35.343 v 0.386 c 0,33.024 -25.65,60.211 -59.84,60.211 -33.79,0 -59.82,-27.578 -59.82,-60.597 v -0.391 c 0,-33.02 25.63,-60.211 59.82,-60.211 33.8,0 59.84,27.578 59.84,60.602 z m -127.42,-0.391 v 0.391 c 0,36.902 29.91,67.98 67.58,67.98 38.07,0 67.6,-30.687 67.6,-67.594 v -0.386 c 0,-36.911 -29.91,-67.993 -67.6,-67.993 -38.06,0 -67.58,30.7 -67.58,67.602"
         style="fill:#4d4e55;fill-opacity:1;fill-rule:nonzero;stroke:none"
         id="path72" /></g></g></svg>
