<?xml version="1.0" encoding="UTF-8" standalone="no"?>
<svg
   xmlns:dc="http://purl.org/dc/elements/1.1/"
   xmlns:cc="http://creativecommons.org/ns#"
   xmlns:rdf="http://www.w3.org/1999/02/22-rdf-syntax-ns#"
   xmlns:svg="http://www.w3.org/2000/svg"
   xmlns="http://www.w3.org/2000/svg"
   xmlns:sodipodi="http://sodipodi.sourceforge.net/DTD/sodipodi-0.dtd"
   xmlns:inkscape="http://www.inkscape.org/namespaces/inkscape"
   version="1.1"
   id="svg2"
   xml:space="preserve"
   width="343.76001"
   height="125.30667"
   viewBox="15 20 307.76001 80.30667"
   sodipodi:docname="RPARK_FullColor_RGB.eps"><metadata
     id="metadata8"><rdf:RDF><cc:Work
         rdf:about=""><dc:format>image/svg+xml</dc:format><dc:type
           rdf:resource="http://purl.org/dc/dcmitype/StillImage" /></cc:Work></rdf:RDF></metadata><defs
     id="defs6" /><sodipodi:namedview
     pagecolor="#ffffff"
     bordercolor="#666666"
     borderopacity="1"
     objecttolerance="10"
     gridtolerance="10"
     guidetolerance="10"
     inkscape:pageopacity="0"
     inkscape:pageshadow="2"
     inkscape:window-width="640"
     inkscape:window-height="480"
     id="namedview4" /><g
     id="g10"
     inkscape:groupmode="layer"
     inkscape:label="ink_ext_XXXXXX"
     transform="matrix(1.3333333,0,0,-1.3333333,0,125.30667)"><g
       id="g12"
       transform="scale(0.1)"><path
         d="m 373.848,372.973 h 41.539 V 303.742 H 193.844 v 69.231 h 41.543 c 7.64,0 13.843,6.203 13.843,13.847 v 166.153 c 0,7.644 -6.203,13.847 -13.843,13.847 h -41.543 v 69.231 H 415.387 V 566.82 H 373.848 C 366.195,566.82 360,560.617 360,552.973 V 386.82 c 0,-7.644 6.195,-13.847 13.848,-13.847 z m 55.382,180 v 96.925 H 180 v -96.925 h 55.387 V 386.82 H 180 v -96.922 h 249.23 v 96.922 h -55.382 v 166.153 h 55.382"
         style="fill:#192947;fill-opacity:1;fill-rule:nonzero;stroke:none"
         id="path14" /><path
         d="m 373.848,566.82 h 41.539 v 69.231 H 193.844 V 566.82 h 41.543 c 7.64,0 13.843,-6.203 13.843,-13.847 V 386.82 c 0,-7.644 -6.203,-13.847 -13.843,-13.847 h -41.543 v -69.231 h 221.543 v 69.231 h -41.539 c -7.653,0 -13.848,6.203 -13.848,13.847 v 166.153 c 0,7.644 6.195,13.847 13.848,13.847"
         style="fill:#f0412f;fill-opacity:1;fill-rule:nonzero;stroke:none"
         id="path16" /><path
         d="M 620.563,180.004 H 609.23 v 579.785 h 11.333 V 180.004"
         style="fill:#192947;fill-opacity:1;fill-rule:nonzero;stroke:none"
         id="path18" /><path
         d="m 851.762,541.793 c 15.715,0 24.277,6.734 24.277,19.781 0,13.071 -8.562,17.539 -24.277,17.539 h -15.496 v -37.32 z m -45.489,61.211 h 47.942 c 28.152,0 51.199,-9.809 51.199,-41.43 0,-19.59 -9.383,-32.027 -23.66,-38.355 l 30.195,-53.242 h -33.664 l -25.496,47.949 h -16.523 v -47.949 h -29.993 v 133.027"
         style="fill:#192947;fill-opacity:1;fill-rule:nonzero;stroke:none"
         id="path20" /><path
         d="m 986.664,531.598 c 0,11.211 -4.891,19.175 -16.934,19.175 -9.382,0 -17.539,-6.328 -19.578,-19.175 z m -65.281,-11.02 c 0,32.832 23.457,53.027 47.734,53.027 28.77,0 43.043,-20.996 43.043,-48.55 0,-5.293 -0.6,-10.801 -1.22,-13.242 h -60.585 c 2.649,-14.708 12.852,-21.426 26.309,-21.426 7.551,0 14.492,2.246 21.836,6.718 l 9.99,-18.144 c -10.4,-7.148 -23.865,-11.43 -35.896,-11.43 -28.977,0 -51.211,19.59 -51.211,53.047"
         style="fill:#192947;fill-opacity:1;fill-rule:nonzero;stroke:none"
         id="path22" /><path
         d="m 1023.4,481.613 13.46,18.774 c 9.19,-6.953 17.55,-10.625 26.11,-10.625 8.99,0 12.86,3.281 12.86,8.574 0,6.734 -10.2,9.805 -20.6,13.863 -12.25,4.707 -26.73,13.071 -26.73,29.785 0,18.774 15.3,31.621 38.76,31.621 15.51,0 26.93,-6.304 35.7,-12.847 l -13.46,-17.949 c -7.35,5.308 -14.28,8.574 -21.42,8.574 -7.75,0 -11.42,-2.856 -11.42,-7.949 0,-6.543 9.38,-8.989 19.78,-12.856 12.85,-4.707 27.34,-11.836 27.34,-30.406 0,-18.359 -14.49,-32.641 -41.62,-32.641 -13.26,0 -28.56,5.703 -38.76,14.082"
         style="fill:#192947;fill-opacity:1;fill-rule:nonzero;stroke:none"
         id="path24" /><path
         d="m 1181.69,531.598 c 0,11.211 -4.89,19.175 -16.93,19.175 -9.38,0 -17.54,-6.328 -19.58,-19.175 z m -65.28,-11.02 c 0,32.832 23.46,53.027 47.74,53.027 28.77,0 43.04,-20.996 43.04,-48.55 0,-5.293 -0.6,-10.801 -1.22,-13.242 h -60.58 c 2.64,-14.708 12.85,-21.426 26.3,-21.426 7.55,0 14.5,2.246 21.84,6.718 l 9.99,-18.144 c -10.4,-7.148 -23.87,-11.43 -35.9,-11.43 -28.97,0 -51.21,19.59 -51.21,53.047"
         style="fill:#192947;fill-opacity:1;fill-rule:nonzero;stroke:none"
         id="path26" /><path
         d="m 1278.48,499.352 v 17.753 c -21.22,-2.851 -28.15,-8.964 -28.15,-16.718 0,-6.543 4.49,-9.59 11.63,-9.59 6.73,0 11.22,3.262 16.52,8.555 z m -56.92,-1.211 c 0,21.211 16.93,32.832 56.92,36.914 -0.61,8.98 -4.89,14.683 -15.92,14.683 -8.56,0 -16.92,-3.457 -26.72,-9.175 l -10.81,19.8 c 12.86,7.739 27.34,13.242 43.25,13.242 25.9,0 40.19,-14.683 40.19,-45.679 v -57.949 h -24.48 l -2.04,10.41 h -0.82 c -8.57,-7.563 -17.95,-12.856 -29.38,-12.856 -18.56,0 -30.19,13.457 -30.19,30.61"
         style="fill:#192947;fill-opacity:1;fill-rule:nonzero;stroke:none"
         id="path28" /><path
         d="m 1333.08,571.168 h 24.48 l 2.04,-17.758 h 0.81 c 7.34,13.676 18.36,20.195 28.77,20.195 5.71,0 9.18,-0.796 12.03,-2.031 l -4.89,-25.918 c -3.67,1.035 -6.73,1.645 -11.02,1.645 -7.55,0 -16.93,-4.903 -22.23,-18.559 v -58.765 h -29.99 v 101.191"
         style="fill:#192947;fill-opacity:1;fill-rule:nonzero;stroke:none"
         id="path30" /><path
         d="m 1407,520.578 c 0,33.652 24.69,53.027 52.64,53.027 12.44,0 22.03,-4.468 29.58,-10.796 l -14.07,-19.375 c -4.91,4.058 -8.99,5.894 -13.68,5.894 -14.48,0 -23.66,-11.211 -23.66,-28.75 0,-17.555 9.58,-28.765 22.64,-28.765 6.53,0 12.86,3.257 18.16,7.339 l 11.83,-19.586 c -9.99,-8.769 -22.44,-12.035 -33.46,-12.035 -28.15,0 -49.98,19.375 -49.98,53.047"
         style="fill:#192947;fill-opacity:1;fill-rule:nonzero;stroke:none"
         id="path32" /><path
         d="m 1506.12,612.98 h 29.99 v -35.078 l -1.42,-18.164 c 7.55,6.742 17.54,13.867 31.21,13.867 22.03,0 31.41,-15.488 31.41,-40.796 v -62.832 h -29.99 v 58.964 c 0,14.688 -3.87,19.176 -12.44,19.176 -7.55,0 -12.24,-3.472 -18.77,-9.801 v -68.339 h -29.99 V 612.98"
         style="fill:#192947;fill-opacity:1;fill-rule:nonzero;stroke:none"
         id="path34" /><path
         d="m 1710.53,538.941 c 16.52,0 24.48,7.34 24.48,21.207 0,13.872 -8.98,18.965 -25.3,18.965 h -13.88 v -40.172 z m -44.68,64.063 h 45.69 c 29.17,0 52.84,-10.625 52.84,-42.856 0,-31.207 -23.86,-45.078 -52.02,-45.078 h -16.53 v -45.093 h -29.98 v 133.027"
         style="fill:#192947;fill-opacity:1;fill-rule:nonzero;stroke:none"
         id="path36" /><path
         d="m 1835.26,499.352 v 17.753 c -21.22,-2.851 -28.15,-8.964 -28.15,-16.718 0,-6.543 4.49,-9.59 11.63,-9.59 6.73,0 11.22,3.262 16.52,8.555 z m -56.92,-1.211 c 0,21.211 16.93,32.832 56.92,36.914 -0.61,8.98 -4.89,14.683 -15.91,14.683 -8.57,0 -16.94,-3.457 -26.72,-9.175 l -10.81,19.8 c 12.85,7.739 27.33,13.242 43.24,13.242 25.91,0 40.19,-14.683 40.19,-45.679 v -57.949 h -24.48 l -2.04,10.41 h -0.82 c -8.56,-7.563 -17.95,-12.856 -29.37,-12.856 -18.57,0 -30.2,13.457 -30.2,30.61"
         style="fill:#192947;fill-opacity:1;fill-rule:nonzero;stroke:none"
         id="path38" /><path
         d="m 1889.86,571.168 h 24.49 l 2.04,-17.758 h 0.81 c 7.34,13.676 18.36,20.195 28.77,20.195 5.71,0 9.18,-0.796 12.03,-2.031 l -4.89,-25.918 c -3.68,1.035 -6.73,1.645 -11.02,1.645 -7.55,0 -16.93,-4.903 -22.24,-18.559 v -58.765 h -29.99 v 101.191"
         style="fill:#192947;fill-opacity:1;fill-rule:nonzero;stroke:none"
         id="path40" /><path
         d="m 1971.26,612.98 h 29.17 v -82.007 h 0.82 l 32.03,40.195 h 32.64 l -35.5,-41.621 38.15,-59.57 h -32.44 l -22.85,39.375 -12.85,-14.473 v -24.902 h -29.17 V 612.98"
         style="fill:#192947;fill-opacity:1;fill-rule:nonzero;stroke:none"
         id="path42" /><path
         d="m 806.605,349.406 v 27.715 h 8.762 v -28.394 c 0,-10.723 4.004,-14.282 9.969,-14.282 6.047,0 10.273,3.559 10.273,14.282 v 28.394 h 8.379 v -27.715 c 0,-16.25 -7.175,-22.593 -18.652,-22.593 -11.406,0 -18.731,6.343 -18.731,22.593"
         style="fill:#192947;fill-opacity:1;fill-rule:nonzero;stroke:none"
         id="path44" /><path
         d="m 859.039,377.121 h 8.984 l 15.411,-27.793 5.058,-10.508 h 0.301 c -0.371,5.063 -1.133,11.328 -1.133,16.86 v 21.441 h 8.391 V 327.73 h -8.996 l -15.399,27.793 -5.07,10.489 h -0.301 c 0.379,-5.196 1.133,-11.172 1.133,-16.684 V 327.73 h -8.379 v 49.391"
         style="fill:#192947;fill-opacity:1;fill-rule:nonzero;stroke:none"
         id="path46" /><path
         d="m 911.332,377.121 h 8.762 V 327.73 h -8.762 v 49.391"
         style="fill:#192947;fill-opacity:1;fill-rule:nonzero;stroke:none"
         id="path48" /><path
         d="m 929.605,377.121 h 9.286 l 6.953,-24.844 c 1.582,-5.601 2.715,-10.425 4.386,-16.089 h 0.293 c 1.668,5.664 2.801,10.488 4.305,16.089 l 6.875,24.844 h 8.996 L 955.355,327.73 h -10.339 l -15.411,49.391"
         style="fill:#192947;fill-opacity:1;fill-rule:nonzero;stroke:none"
         id="path50" /><path
         d="m 980.211,377.121 h 29.759 v -7.398 h -21.001 v -12.618 h 17.751 v -7.406 h -17.751 v -14.566 h 21.761 v -7.403 h -30.519 v 49.391"
         style="fill:#192947;fill-opacity:1;fill-rule:nonzero;stroke:none"
         id="path52" /><path
         d="m 1039.06,354.02 c 6.73,0 10.43,2.847 10.43,8.457 0,5.664 -3.7,7.617 -10.43,7.617 h -7.02 V 354.02 Z m -15.78,23.101 h 16.69 c 10.27,0 18.13,-3.633 18.13,-14.644 0,-7.559 -3.93,-12.09 -9.82,-14.141 l 11.78,-20.606 h -9.82 l -10.65,19.336 h -7.55 V 327.73 h -8.76 v 49.391"
         style="fill:#192947;fill-opacity:1;fill-rule:nonzero;stroke:none"
         id="path54" /><path
         d="m 1067.47,334.074 5.13,5.957 c 3.55,-3.316 8.31,-5.586 12.84,-5.586 5.59,0 8.61,2.5 8.61,6.352 0,4.082 -3.17,5.351 -7.63,7.246 l -6.8,2.945 c -4.83,2.035 -9.97,5.879 -9.97,13.149 0,7.847 6.96,13.886 16.62,13.886 5.75,0 11.33,-2.406 15.18,-6.269 l -4.45,-5.586 c -3.18,2.652 -6.5,4.234 -10.73,4.234 -4.68,0 -7.78,-2.183 -7.78,-5.816 0,-3.852 3.78,-5.293 7.85,-6.953 l 6.73,-2.793 c 5.81,-2.5 9.97,-6.192 9.97,-13.36 0,-8.007 -6.65,-14.667 -17.75,-14.667 -6.64,0 -13.15,2.656 -17.82,7.261"
         style="fill:#192947;fill-opacity:1;fill-rule:nonzero;stroke:none"
         id="path56" /><path
         d="m 1114.96,377.121 h 8.76 V 327.73 h -8.76 v 49.391"
         style="fill:#192947;fill-opacity:1;fill-rule:nonzero;stroke:none"
         id="path58" /><path
         d="m 1148.69,369.723 h -14.28 v 7.398 h 37.31 v -7.398 h -14.27 V 327.73 h -8.76 v 41.993"
         style="fill:#192947;fill-opacity:1;fill-rule:nonzero;stroke:none"
         id="path60" /><path
         d="m 1193.78,346.066 -14.8,31.055 h 9.36 l 5.37,-12.613 c 1.43,-3.692 2.79,-7.09 4.38,-10.879 h 0.3 c 1.59,3.789 3.1,7.187 4.53,10.879 l 5.37,12.613 h 9.14 l -14.89,-31.055 V 327.73 h -8.76 v 18.336"
         style="fill:#192947;fill-opacity:1;fill-rule:nonzero;stroke:none"
         id="path62" /><path
         d="m 1273.49,352.648 c 0,11.04 -4.99,17.754 -12.77,17.754 -7.78,0 -12.77,-6.714 -12.77,-17.754 0,-11.113 4.99,-18.203 12.77,-18.203 7.78,0 12.77,7.09 12.77,18.203 z m -34.52,0 c 0,15.942 8.92,25.375 21.75,25.375 12.92,0 21.83,-9.433 21.83,-25.375 0,-16.011 -8.91,-25.835 -21.83,-25.835 -12.83,0 -21.75,9.824 -21.75,25.835"
         style="fill:#192947;fill-opacity:1;fill-rule:nonzero;stroke:none"
         id="path64" /><path
         d="m 1295.42,377.121 h 29.83 v -7.398 h -21.08 v -13.989 h 17.98 v -7.398 h -17.98 V 327.73 h -8.75 v 49.391"
         style="fill:#192947;fill-opacity:1;fill-rule:nonzero;stroke:none"
         id="path66" /><path
         d="m 1352.07,377.121 h 8.76 V 327.73 h -8.76 v 49.391"
         style="fill:#192947;fill-opacity:1;fill-rule:nonzero;stroke:none"
         id="path68" /><path
         d="m 1376,377.121 h 8.76 v -41.988 h 20.54 V 327.73 H 1376 v 49.391"
         style="fill:#192947;fill-opacity:1;fill-rule:nonzero;stroke:none"
         id="path70" /><path
         d="m 1416.27,377.121 h 8.76 v -41.988 h 20.55 v -7.403 h -29.31 v 49.391"
         style="fill:#192947;fill-opacity:1;fill-rule:nonzero;stroke:none"
         id="path72" /><path
         d="m 1456.54,377.121 h 8.76 V 327.73 h -8.76 v 49.391"
         style="fill:#192947;fill-opacity:1;fill-rule:nonzero;stroke:none"
         id="path74" /><path
         d="m 1480.46,377.121 h 8.98 l 15.41,-27.793 5.06,-10.508 h 0.3 c -0.37,5.063 -1.13,11.328 -1.13,16.86 v 21.441 h 8.39 V 327.73 h -8.99 l -15.4,27.793 -5.07,10.489 h -0.3 c 0.38,-5.196 1.13,-11.172 1.13,-16.684 V 327.73 h -8.38 v 49.391"
         style="fill:#192947;fill-opacity:1;fill-rule:nonzero;stroke:none"
         id="path76" /><path
         d="m 1564.9,352.648 c 0,11.04 -4.99,17.754 -12.77,17.754 -7.77,0 -12.76,-6.714 -12.76,-17.754 0,-11.113 4.99,-18.203 12.76,-18.203 7.78,0 12.77,7.09 12.77,18.203 z m -34.52,0 c 0,15.942 8.92,25.375 21.75,25.375 12.92,0 21.83,-9.433 21.83,-25.375 0,-16.011 -8.91,-25.835 -21.83,-25.835 -12.83,0 -21.75,9.824 -21.75,25.835"
         style="fill:#192947;fill-opacity:1;fill-rule:nonzero;stroke:none"
         id="path78" /><path
         d="m 1586.79,377.121 h 8.76 V 327.73 h -8.76 v 49.391"
         style="fill:#192947;fill-opacity:1;fill-rule:nonzero;stroke:none"
         id="path80" /><path
         d="m 1606.87,334.074 5.13,5.957 c 3.55,-3.316 8.31,-5.586 12.84,-5.586 5.59,0 8.61,2.5 8.61,6.352 0,4.082 -3.17,5.351 -7.63,7.246 l -6.8,2.945 c -4.83,2.035 -9.97,5.879 -9.97,13.149 0,7.847 6.96,13.886 16.62,13.886 5.75,0 11.33,-2.406 15.18,-6.269 l -4.45,-5.586 c -3.18,2.652 -6.5,4.234 -10.73,4.234 -4.68,0 -7.78,-2.183 -7.78,-5.816 0,-3.852 3.78,-5.293 7.86,-6.953 l 6.72,-2.793 c 5.81,-2.5 9.97,-6.192 9.97,-13.36 0,-8.007 -6.65,-14.667 -17.75,-14.667 -6.64,0 -13.15,2.656 -17.82,7.261"
         style="fill:#192947;fill-opacity:1;fill-rule:nonzero;stroke:none"
         id="path82" /><path
         d="m 1669.35,349.406 v 27.715 h 8.76 v -28.394 c 0,-10.723 4,-14.282 9.97,-14.282 6.04,0 10.27,3.559 10.27,14.282 v 28.394 h 8.38 v -27.715 c 0,-16.25 -7.17,-22.593 -18.65,-22.593 -11.41,0 -18.73,6.343 -18.73,22.593"
         style="fill:#192947;fill-opacity:1;fill-rule:nonzero;stroke:none"
         id="path84" /><path
         d="m 1737.56,354.02 c 6.73,0 10.43,2.847 10.43,8.457 0,5.664 -3.7,7.617 -10.43,7.617 h -7.02 V 354.02 Z m -15.78,23.101 h 16.69 c 10.27,0 18.12,-3.633 18.12,-14.644 0,-7.559 -3.92,-12.09 -9.81,-14.141 l 11.78,-20.606 h -9.82 l -10.64,19.336 h -7.56 V 327.73 h -8.76 v 49.391"
         style="fill:#192947;fill-opacity:1;fill-rule:nonzero;stroke:none"
         id="path86" /><path
         d="m 1785.68,334.523 c 7.26,0 11.33,2.637 11.33,8.149 0,5.215 -3.92,7.476 -11.33,7.476 h -7.4 v -15.625 z m -1.13,22.207 c 6.88,0 9.83,2.715 9.83,6.958 0,4.824 -3.26,6.636 -9.67,6.636 h -6.43 V 356.73 Z m -15.03,20.391 h 15.78 c 10.21,0 17.68,-3.101 17.68,-12.168 0,-4.668 -2.57,-9.219 -6.88,-10.723 v -0.289 c 5.44,-1.211 9.45,-5.058 9.45,-11.718 0,-9.883 -8.08,-14.493 -18.96,-14.493 h -17.07 v 49.391"
         style="fill:#192947;fill-opacity:1;fill-rule:nonzero;stroke:none"
         id="path88" /><path
         d="m 1826.57,347.965 h 12.62 l -1.74,6.055 c -1.58,5.195 -3.02,10.859 -4.45,16.304 h -0.3 c -1.36,-5.508 -2.8,-11.109 -4.39,-16.304 z m 1.29,29.156 h 10.27 l 16.09,-49.391 h -9.21 l -3.86,13.36 h -16.61 l -3.86,-13.36 h -8.9 l 16.08,49.391"
         style="fill:#192947;fill-opacity:1;fill-rule:nonzero;stroke:none"
         id="path90" /><path
         d="m 1863.86,377.121 h 8.98 l 15.41,-27.793 5.06,-10.508 h 0.3 c -0.37,5.063 -1.13,11.328 -1.13,16.86 v 21.441 h 8.39 V 327.73 h -8.99 l -15.41,27.793 -5.06,10.489 h -0.31 c 0.38,-5.196 1.14,-11.172 1.14,-16.684 V 327.73 h -8.38 v 49.391"
         style="fill:#192947;fill-opacity:1;fill-rule:nonzero;stroke:none"
         id="path92" /><path
         d="m 1925.36,347.965 h 12.62 l -1.74,6.055 c -1.58,5.195 -3.02,10.859 -4.45,16.304 h -0.31 c -1.35,-5.508 -2.79,-11.109 -4.38,-16.304 z m 1.29,29.156 h 10.27 l 16.09,-49.391 h -9.21 l -3.86,13.36 h -16.61 l -3.86,-13.36 h -8.9 l 16.08,49.391"
         style="fill:#192947;fill-opacity:1;fill-rule:nonzero;stroke:none"
         id="path94" /><path
         d="m 1959.97,349.938 h 17.98 v -6.348 h -17.98 v 6.348"
         style="fill:#192947;fill-opacity:1;fill-rule:nonzero;stroke:none"
         id="path96" /><path
         d="m 1989.55,352.277 c 0,16.157 10.12,25.746 22.59,25.746 6.19,0 11.17,-2.953 14.27,-6.269 l -4.68,-5.664 c -2.57,2.578 -5.52,4.312 -9.37,4.312 -8.08,0 -13.82,-6.797 -13.82,-17.91 0,-11.25 5.29,-18.047 13.6,-18.047 4.37,0 7.77,2.035 10.57,5.063 l 4.68,-5.512 c -4,-4.605 -9.22,-7.183 -15.55,-7.183 -12.47,0 -22.29,9.058 -22.29,25.464"
         style="fill:#192947;fill-opacity:1;fill-rule:nonzero;stroke:none"
         id="path98" /><path
         d="m 2038.14,377.121 h 8.76 v -19.859 h 20.02 v 19.859 h 8.76 V 327.73 h -8.76 v 21.891 H 2046.9 V 327.73 h -8.76 v 49.391"
         style="fill:#192947;fill-opacity:1;fill-rule:nonzero;stroke:none"
         id="path100" /><path
         d="m 2100.18,347.965 h 12.61 l -1.74,6.055 c -1.58,5.195 -3.01,10.859 -4.45,16.304 h -0.3 c -1.36,-5.508 -2.79,-11.109 -4.39,-16.304 z m 1.28,29.156 h 10.28 l 16.08,-49.391 h -9.21 l -3.85,13.36 h -16.62 l -3.85,-13.36 h -8.91 l 16.08,49.391"
         style="fill:#192947;fill-opacity:1;fill-rule:nonzero;stroke:none"
         id="path102" /><path
         d="m 2137.46,377.121 h 9.89 l 8.76,-24.18 c 1.07,-3.086 2.12,-6.406 3.18,-9.668 h 0.3 c 1.05,3.262 2.04,6.582 3.1,9.668 l 8.53,24.18 h 9.97 V 327.73 h -8.07 v 22.579 c 0,4.609 0.67,11.171 1.13,15.703 h -0.3 l -4.01,-11.465 -8.08,-22.207 h -5.22 l -8.15,22.207 -3.93,11.465 h -0.3 c 0.38,-4.532 1.13,-11.094 1.13,-15.703 V 327.73 h -7.93 v 49.391"
         style="fill:#192947;fill-opacity:1;fill-rule:nonzero;stroke:none"
         id="path104" /><path
         d="m 2211.68,352.887 c 7.32,0 10.87,2.929 10.87,8.98 0,6.196 -3.85,8.227 -11.17,8.227 h -6.13 v -17.207 z m -15.19,24.234 h 15.56 c 10.96,0 19.11,-3.766 19.11,-15.254 0,-10.957 -8.15,-16.012 -18.81,-16.012 h -7.1 V 327.73 h -8.76 v 49.391"
         style="fill:#192947;fill-opacity:1;fill-rule:nonzero;stroke:none"
         id="path106" /><path
         d="m 2249.37,347.965 h 12.61 l -1.74,6.055 c -1.58,5.195 -3.01,10.859 -4.45,16.304 h -0.3 c -1.36,-5.508 -2.79,-11.109 -4.39,-16.304 z m 1.28,29.156 h 10.28 l 16.08,-49.391 h -9.21 l -3.85,13.36 h -16.62 l -3.85,-13.36 h -8.91 l 16.08,49.391"
         style="fill:#192947;fill-opacity:1;fill-rule:nonzero;stroke:none"
         id="path108" /><path
         d="m 2286.64,377.121 h 8.76 V 327.73 h -8.76 v 49.391"
         style="fill:#192947;fill-opacity:1;fill-rule:nonzero;stroke:none"
         id="path110" /><path
         d="m 2308.17,352.277 c 0,16.157 10.2,25.746 23.34,25.746 7.03,0 11.86,-3.085 14.95,-6.269 l -4.67,-5.664 c -2.49,2.422 -5.36,4.312 -9.97,4.312 -8.76,0 -14.66,-6.797 -14.66,-17.91 0,-11.25 5.21,-18.047 15.11,-18.047 2.79,0 5.51,0.766 7.1,2.192 v 10.64 H 2330 v 7.192 h 17.23 v -21.758 c -3.33,-3.32 -9.07,-5.898 -15.79,-5.898 -13.37,0 -23.27,9.058 -23.27,25.464"
         style="fill:#192947;fill-opacity:1;fill-rule:nonzero;stroke:none"
         id="path112" /><path
         d="m 2361.23,377.121 h 8.98 l 15.42,-27.793 5.05,-10.508 h 0.31 c -0.37,5.063 -1.14,11.328 -1.14,16.86 v 21.441 h 8.39 V 327.73 h -8.99 l -15.4,27.793 -5.07,10.489 h -0.3 c 0.38,-5.196 1.13,-11.172 1.13,-16.684 V 327.73 h -8.38 v 49.391"
         style="fill:#192947;fill-opacity:1;fill-rule:nonzero;stroke:none"
         id="path114" /></g></g></svg>
