<?xml version="1.0" encoding="UTF-8" standalone="no"?>
<svg
   xmlns:dc="http://purl.org/dc/elements/1.1/"
   xmlns:cc="http://creativecommons.org/ns#"
   xmlns:rdf="http://www.w3.org/1999/02/22-rdf-syntax-ns#"
   xmlns:svg="http://www.w3.org/2000/svg"
   xmlns="http://www.w3.org/2000/svg"
   xmlns:sodipodi="http://sodipodi.sourceforge.net/DTD/sodipodi-0.dtd"
   xmlns:inkscape="http://www.inkscape.org/namespaces/inkscape"
   version="1.1"
   id="svg2"
   xml:space="preserve"
   width="724.14667"
   height="162.12"
   viewBox="0 0 724.14667 162.12"
   sodipodi:docname="Schlumberger White.eps"><metadata
     id="metadata8"><rdf:RDF><cc:Work
         rdf:about=""><dc:format>image/svg+xml</dc:format><dc:type
           rdf:resource="http://purl.org/dc/dcmitype/StillImage" /></cc:Work></rdf:RDF></metadata><defs
     id="defs6" /><sodipodi:namedview
     pagecolor="#004382"
     bordercolor="#666666"
     borderopacity="1"
     objecttolerance="10"
     gridtolerance="10"
     guidetolerance="10"
     inkscape:pageopacity="0"
     inkscape:pageshadow="2"
     inkscape:window-width="640"
     inkscape:window-height="480"
     id="namedview4" /><g
     id="g10"
     inkscape:groupmode="layer"
     inkscape:label="ink_ext_XXXXXX"
     transform="matrix(1.3333333,0,0,-1.3333333,0,162.12)"><g
       id="g12"
       transform="scale(0.1)"><path
         d="m 1405.74,217.215 v 998.105 h 168.58 V 217.215 h -168.58"
         style="fill:#004382;fill-opacity:1;fill-rule:nonzero;stroke:none"
         id="path14" /><path
         d="M 894.492,712.762 V 842.73 c 0,117.594 -88.679,179.04 -198.242,179.04 -106.695,0 -196.957,-59.579 -196.957,-179.04 V 386.727 c 0,-119.668 90.262,-178.965 196.957,-178.965 111.438,0 198.242,61.308 198.242,178.965 V 531.98 H 725.969 V 369.539 c 0,-16.926 -10.781,-31.484 -29.016,-31.484 -17.812,0 -29.172,14.14 -29.172,31.484 v 0 493.328 c 0,15.781 13.071,28.567 28.844,28.567 15.773,0 29.344,-12.786 29.344,-28.567 v 0 -150.105 h 168.523"
         style="fill:#004382;fill-opacity:1;fill-rule:nonzero;stroke:none"
         id="path16" /><path
         d="m 3449.89,706.668 h -58.36 v 153.957 c 0,18.277 12.74,30.652 29.3,30.652 15.94,0 29.06,-12.218 29.06,-30.652 z M 3618.46,842.5 c 0,118.125 -88.83,179.27 -198.36,179.27 -106.69,0 -196.86,-59.766 -196.86,-179.27 V 386.875 c 0,-119.836 90.28,-179.113 196.97,-179.113 105.33,0 198.25,59.277 198.25,179.113 V 531.922 H 3449.92 V 369.781 c 0,-21.543 -14.25,-32.097 -29.04,-32.097 -16.92,0 -29.27,13.054 -29.27,32.097 v 215.735 h 226.85 V 842.5"
         style="fill:#004382;fill-opacity:1;fill-rule:nonzero;stroke:none"
         id="path18" /><path
         d="m 4809.5,706.727 h -58.36 V 860.68 c 0,18.273 12.74,30.656 29.31,30.656 15.93,0 29.05,-12.227 29.05,-30.656 z m 168.57,135.82 c 0,118.129 -88.82,179.223 -198.36,179.223 -106.69,0 -196.85,-59.711 -196.85,-179.223 V 386.93 c 0,-119.832 90.27,-179.7 196.95,-179.7 105.34,0 198.26,59.868 198.26,179.7 V 531.98 H 4809.54 V 369.84 c 0,-21.551 -14.26,-32.11 -29.04,-32.11 -16.94,0 -29.28,13.059 -29.28,32.11 v 215.723 h 226.85 v 256.984"
         style="fill:#004382;fill-opacity:1;fill-rule:nonzero;stroke:none"
         id="path20" /><path
         d="m 1858.97,1012.46 c 0,0 0,-615.714 0,-628.772 0,-19.227 -10.97,-31.278 -29.07,-31.278 -17.31,0 -29.16,11.219 -29.16,31.278 0,9.921 0,628.772 0,628.772 H 1632.27 V 350.301 c 0,-87.922 54.5,-142.539 119.5,-142.539 65.82,0 95.75,47.636 105.85,65.086 h 3.72 l 3.12,-55.555 h 163.01 v 795.167 h -168.5"
         style="fill:#004382;fill-opacity:1;fill-rule:nonzero;stroke:none"
         id="path22" /><path
         d="m 3955.63,1021.77 c -56.3,0 -90.89,-42.594 -106.85,-64.782 h -3.64 l -3.31,55.402 H 3676.54 V 217.215 h 168.63 v 628.652 c 0,19.453 11.23,31.328 28.86,31.328 16.96,0 29.01,-12.297 29.01,-31.328 v 0 -259.57 h 168.71 v 298.398 c 0,84.063 -50.76,137.075 -116.12,137.075"
         style="fill:#004382;fill-opacity:1;fill-rule:nonzero;stroke:none"
         id="path24" /><path
         d="m 5315.02,1021.77 c -56.3,0 -90.89,-42.645 -106.85,-64.832 h -3.64 l -3.31,55.402 H 5035.95 V 217.156 h 168.61 v 628.66 c 0,19.454 11.24,31.321 28.87,31.321 16.95,0 29.01,-12.285 29.01,-31.321 v 0 -259.566 h 168.7 v 298.395 c 0,84.066 -50.76,137.125 -116.12,137.125"
         style="fill:#004382;fill-opacity:1;fill-rule:nonzero;stroke:none"
         id="path26" /><path
         d="m 4356.4,434.48 c 0,-21.113 -12.71,-32.882 -28.96,-32.882 -16.04,0 -29.04,11.769 -29.04,32.882 v 0 412.196 c 0,20.48 14.04,30.324 28.92,30.324 16.68,0 29.08,-11.875 29.08,-30.324 0,-16.09 0,-412.196 0,-412.196 z m 2.38,577.91 -2.38,-55.702 h -4.23 c -8.75,18.125 -42.09,65.082 -105.01,65.082 -60.83,0 -117.37,-46.801 -117.37,-133.051 V 413.875 c 0,-90.937 52.52,-144.062 118.34,-144.062 62.52,0 92.81,41.875 103.24,58.312 h 4.97 V 152.82 c 0,-18.629 -11.76,-30.23 -29.22,-30.23 -13.95,0 -29.02,9.879 -29.02,30.23 0,19.032 0,70.723 0,70.723 H 4129.79 V 179.699 C 4129.79,55.4414 4209.7,0 4326.96,0 c 116.31,0 198.03,55.4414 198.03,179.699 v 832.691 h -166.21"
         style="fill:#004382;fill-opacity:1;fill-rule:nonzero;stroke:none"
         id="path28" /><path
         d="m 1230.56,1021.77 c -59.49,0 -95.28,-42.907 -106.75,-64.782 h -2.77 V 1215.32 H 952.449 V 217.215 h 168.321 v 622.098 c 0,16.847 11.43,30.468 29.16,30.468 18.11,0 29.13,-13.984 29.13,-30.84 v 0 -621.726 h 168.59 v 660.008 c 0,107.578 -63.93,144.547 -117.09,144.547"
         style="fill:#004382;fill-opacity:1;fill-rule:nonzero;stroke:none"
         id="path30" /><path
         d="m 2472.63,944.723 c -8.55,28.621 -44.07,77.047 -106.99,77.047 -60.73,0 -95.85,-40.512 -108.21,-64.856 h -3.4 l -1.67,55.476 H 2085.45 V 217.215 h 168.72 v 628.398 c 0,19.735 13.54,31.7 30.06,31.7 16.53,0 30.05,-12.59 30.05,-31.7 v 0 -628.398 h 168.83 v 628.047 c 0,20.554 14.43,32.051 30.06,32.051 15.78,0 30.06,-11.809 30.06,-32.051 v 0 -628.047 h 168.66 v 652.586 c 0,108.125 -56.98,151.969 -121.47,151.969 -63.84,0 -102.71,-48.012 -115.34,-77.047 h -2.45"
         style="fill:#004382;fill-opacity:1;fill-rule:nonzero;stroke:none"
         id="path32" /><path
         d="m 2996.71,383.211 c 0,-19.113 -11.08,-31.309 -29.05,-31.309 -15.01,0 -29.04,10.313 -29.04,31.309 v 0 461.309 c 0,22.343 14.81,32.468 29.07,32.468 15.98,0 29.02,-9.812 29.02,-32.468 v 0 z m 46.62,638.559 c -56.25,0.04 -90.42,-47.625 -101,-65.094 h -3.63 V 1215.32 H 2770.11 V 217.215 h 166.72 l 1.87,55.555 h 3.63 c 8.41,-21.407 38.19,-64.969 99.76,-65.008 71.18,-0.043 123.21,61.414 123.21,154.433 v 515.028 c 0,89.453 -54.47,144.507 -121.97,144.547"
         style="fill:#004382;fill-opacity:1;fill-rule:nonzero;stroke:none"
         id="path34" /><path
         d="m 359.414,720.934 c -36.059,35.304 -82.945,80.851 -103.695,100.675 -51.539,49.246 -66.192,76.446 -66.192,138.629 0,46.122 0,78.422 0,78.422 0,19.08 13.024,29.81 30.258,29.81 17.867,0 29.981,-12.82 29.981,-29.81 v 0 -156.047 h 187.836 v 153.997 c 0,129.25 -103.321,179.33 -217.817,179.33 -114.988,0 -219.0975,-49.01 -219.027187,-180.26 V 916.277 c 0,-96.875 40.414087,-148.73 79.710987,-185.793 30.7422,-29.004 54.8042,-51.961 102.4222,-96.796 55.785,-52.52 66.875,-79.813 66.875,-155.008 0,-27.871 0,-73.879 0,-92.871 0,-26.829 -12.43,-37.825 -29.981,-37.825 -18.777,0 -30.258,11.621 -30.258,37.825 0,18.3 0,187.609 0,187.609 L 0,573.418 V 382.254 C 0,250.008 103.508,201.289 219.785,201.289 c 114.746,0 221.567,48.719 221.567,187.555 V 522.32 c 0,78.332 -17.375,135.41 -81.938,198.614"
         style="fill:#004382;fill-opacity:1;fill-rule:nonzero;stroke:none"
         id="path36" /></g></g></svg>
