<?xml version="1.0" encoding="UTF-8" standalone="no"?>
<svg
   xmlns:dc="http://purl.org/dc/elements/1.1/"
   xmlns:cc="http://creativecommons.org/ns#"
   xmlns:rdf="http://www.w3.org/1999/02/22-rdf-syntax-ns#"
   xmlns:svg="http://www.w3.org/2000/svg"
   xmlns="http://www.w3.org/2000/svg"
   xmlns:sodipodi="http://sodipodi.sourceforge.net/DTD/sodipodi-0.dtd"
   xmlns:inkscape="http://www.inkscape.org/namespaces/inkscape"
   version="1.1"
   id="svg2"
   xml:space="preserve"
   width="168.39999"
   height="82.893333"
   viewBox="0 0 168.39999 82.893333"
   sodipodi:docname="silicon-labs-logo-red (1).eps"><metadata
     id="metadata8"><rdf:RDF><cc:Work
         rdf:about=""><dc:format>image/svg+xml</dc:format><dc:type
           rdf:resource="http://purl.org/dc/dcmitype/StillImage" /></cc:Work></rdf:RDF></metadata><defs
     id="defs6" /><sodipodi:namedview
     pagecolor="#ffffff"
     bordercolor="#666666"
     borderopacity="1"
     objecttolerance="10"
     gridtolerance="10"
     guidetolerance="10"
     inkscape:pageopacity="0"
     inkscape:pageshadow="2"
     inkscape:window-width="640"
     inkscape:window-height="480"
     id="namedview4" /><g
     id="g10"
     inkscape:groupmode="layer"
     inkscape:label="ink_ext_XXXXXX"
     transform="matrix(1.3333333,0,0,-1.3333333,0,82.893333)"><g
       id="g12"
       transform="scale(0.1)"><path
         d="M 647.77,380.926 C 747.461,376.488 752.883,371.16 779.031,359.957 691.238,342.652 535.113,324.77 380.5,339.961 c -26.293,3.441 -93.441,15.906 -124.031,33.363 -12.989,7.41 -43.5,24.356 -41.371,55.739 2.105,31.011 45.656,63.632 63.453,74.066 C 399.953,574.297 529.34,598.199 666.285,620 562.395,607.492 490.223,592.383 424.645,575.742 261.441,534.324 90.6055,458.578 29.4219,380.582 2.98438,347.457 -9.65625,310.668 8.58984,276.074 40.625,215.34 134.332,184.867 238.988,170 c -35.215,10.723 -78.468,22.168 -97.465,48.016 -6.449,8.773 -9.367,28.175 12.325,45.82 51.715,42.055 92.668,57.293 92.668,57.293 l 103.953,-24.191 -18.727,-14.043 c -8.863,-5.817 -13.336,-15.223 -8.637,-25.297 10.891,-15.426 24.559,-21.301 36.622,-27.391 123.222,-49.945 353.039,-6.047 428.418,48.699 20.691,14.516 42.015,28.793 43.726,56.371 0.961,15.493 -11.715,27.469 -18.703,32.739 -43.223,30.82 -115.668,34.285 -165.461,35.222 -90.254,1.707 -112.473,11.688 -137.223,26.778 165.422,29.734 317.829,36.855 465.618,7.32 35.478,-9.199 78.588,-23.606 94.218,-53.344 11.42,-21.742 1.03,-46.84 -20.34,-67.512 -46.63,-45.089 -127.972,-74.093 -181.296,-93.101 109.375,34.851 175.836,53.617 277.766,115.281 52.6,31.817 126.14,93.594 111.71,157.832 -17.54,78.063 -159.58,108.371 -159.58,108.371 0,0 31.65,-11.062 47.34,-29.922 14.19,-17.054 13.64,-31.273 11.96,-37.07 -13.48,-46.594 -73.9,-52.609 -114.78,-68.098 l -114.295,17.426 c 0,0 20.195,10.66 29.57,17.434 10.824,8.23 17.727,19.363 12.801,32.437 -9.86,18.875 -25.555,28.5 -47.801,35.078 -124.277,36.754 -284.187,15.793 -395.035,-48.109 -26.61,-16.457 -61.992,-38.582 -65.207,-72.34 -1.422,-14.969 10.652,-32.851 28.84,-43.14 56.644,-29.204 102.562,-26.391 155.797,-27.633"
         style="fill:#db1d2a;fill-opacity:1;fill-rule:nonzero;stroke:none"
         id="path14" /><path
         d="m 1260,593.75 c 0,-13.805 -11.2,-25 -25,-25 -13.81,0 -25,11.195 -25,25 0,13.809 11.19,25 25,25 13.8,0 25,-11.191 25,-25 z"
         style="fill:none;stroke:#100f0d;stroke-width:6;stroke-linecap:butt;stroke-linejoin:miter;stroke-miterlimit:4;stroke-dasharray:none;stroke-opacity:1"
         id="path16" /><path
         d="m 1227.31,595.445 h 8.08 c 1.71,0 3.06,0.188 4.02,0.547 0.97,0.363 1.71,0.949 2.21,1.75 0.51,0.809 0.76,1.672 0.76,2.621 0,1.375 -0.49,2.516 -1.46,3.403 -0.98,0.886 -2.51,1.336 -4.62,1.336 h -8.99 z m -3.77,-16.277 v 29.164 h 12.6 c 2.53,0 4.46,-0.262 5.77,-0.785 1.32,-0.524 2.37,-1.453 3.16,-2.774 0.79,-1.332 1.18,-2.796 1.18,-4.402 0,-2.074 -0.65,-3.82 -1.96,-5.234 -1.3,-1.422 -3.31,-2.328 -6.03,-2.711 0.98,-0.496 1.74,-0.977 2.25,-1.453 1.11,-1.035 2.14,-2.328 3.12,-3.875 l 4.91,-7.93 h -4.7 l -3.75,6.059 c -1.1,1.75 -2,3.086 -2.71,4.015 -0.7,0.926 -1.35,1.574 -1.91,1.949 -0.55,0.372 -1.14,0.625 -1.72,0.774 -0.42,0.094 -1.11,0.137 -2.08,0.137 h -4.36 v -12.934 h -3.77"
         style="fill:#100f0d;fill-opacity:1;fill-rule:nonzero;stroke:none"
         id="path18" /><path
         d="m 130,0 h 20 V 140 H 130 V 0"
         style="fill:#100f0d;fill-opacity:1;fill-rule:nonzero;stroke:none"
         id="path20" /><path
         d="M 270,0 V 20 H 220 V 140 H 200 V 0 h 70"
         style="fill:#100f0d;fill-opacity:1;fill-rule:nonzero;stroke:none"
         id="path22" /><path
         d="m 300,0 h 20 V 140 H 300 V 0"
         style="fill:#100f0d;fill-opacity:1;fill-rule:nonzero;stroke:none"
         id="path24" /><path
         d="M 430,40 V 20 h -40 v 100 h 40 l 0.156,-16.25 h 19.688 v 16.094 C 449.844,129.531 440,140 430,140 h -40 c -10,0 -20,-10 -20,-19.562 V 19.8555 C 370,10 380,0 390,0 h 40 c 10,0 20,10 20,20 v 20 h -20"
         style="fill:#100f0d;fill-opacity:1;fill-rule:nonzero;stroke:none"
         id="path26" /><path
         d="M 630,90 670,0 h 20 V 140 H 670 V 50 l -40,90 H 610 V 0 h 20 v 90"
         style="fill:#100f0d;fill-opacity:1;fill-rule:nonzero;stroke:none"
         id="path28" /><path
         d="M 910,0 V 20 H 860 V 140 H 840 V 0 h 70"
         style="fill:#100f0d;fill-opacity:1;fill-rule:nonzero;stroke:none"
         id="path30" /><path
         d="m 550,20 h -40 v 100 h 40 z m 0,-20 c 10,0 20,10.1406 20,20 v 100 c 0,9.563 -10,20 -20,20 h -40 c -10,0 -20,-10 -20,-19.562 V 19.8594 C 490,10 500,0 510,0 h 40"
         style="fill:#100f0d;fill-opacity:1;fill-rule:nonzero;stroke:none"
         id="path32" /><path
         d="M 985.313,107.188 1000.4,50.5 969.688,50.625 Z M 975.313,140 935,0 h 20.418 l 8.758,30.1875 h 41.764 L 1013.75,0 H 1035 l -39.687,140 h -20"
         style="fill:#100f0d;fill-opacity:1;fill-rule:nonzero;stroke:none"
         id="path34" /><path
         d="m 1090,60 h 40 V 20 h -40 z m 0,60 h 40 V 80 h -40 z M 1070,0 h 60 c 10,0 20,10 20,20 v 35 l -15,15 15,15 v 35 c 0,10 -10,20 -20,20 h -60 V 0"
         style="fill:#100f0d;fill-opacity:1;fill-rule:nonzero;stroke:none"
         id="path36" /><path
         d="M 20,108.602 C 20,97.5 20.3125,96.75 27.5234,93.043 L 66.3906,73.5742 C 76.25,68.9375 79.6875,62.168 80,54.168 V 19.8438 C 80,9.98438 70,0 60,0 H 20 C 10,0 0,10 0,19.8594 V 40 H 20 V 20 h 40 v 18.9375 c -0.3125,13.125 0,13.4375 -7.9336,18.0586 L 20.625,72.668 C 7.8125,79.0625 0.3125,85.5586 0,95.418 V 120 c 0,10 10,20 20,20 h 40 c 14.3672,0 20,-7.539 20,-20 V 103.75 H 60.418 L 60,120 H 20 v -11.398"
         style="fill:#100f0d;fill-opacity:1;fill-rule:nonzero;stroke:none"
         id="path38" /><path
         d="m 1200,108.602 c 0,-11.102 0.31,-11.852 7.52,-15.559 l 38.87,-19.4688 c 9.86,-4.6367 13.3,-11.5117 13.61,-19.5117 V 19.8594 C 1260,10 1250,0 1240,0 h -40 c -10,0 -20,10 -20,19.8594 V 40 h 20 V 20 h 40 v 18.9375 c -0.31,13.125 0,13.4375 -7.93,18.0586 l -31.44,15.6719 c -12.82,6.3945 -20.32,12.8906 -20.63,22.75 V 120 c 0,10 10,20 20,20 h 40 c 14.37,0 20,-7.539 20,-20 v -16.25 h -20 V 120 h -40 v -11.398"
         style="fill:#100f0d;fill-opacity:1;fill-rule:nonzero;stroke:none"
         id="path40" /></g></g></svg>
