<?xml version="1.0" encoding="UTF-8" standalone="no"?>
<svg
   xmlns:dc="http://purl.org/dc/elements/1.1/"
   xmlns:cc="http://creativecommons.org/ns#"
   xmlns:rdf="http://www.w3.org/1999/02/22-rdf-syntax-ns#"
   xmlns:svg="http://www.w3.org/2000/svg"
   xmlns="http://www.w3.org/2000/svg"
   xmlns:sodipodi="http://sodipodi.sourceforge.net/DTD/sodipodi-0.dtd"
   xmlns:inkscape="http://www.inkscape.org/namespaces/inkscape"
   version="1.1"
   id="svg2"
   xml:space="preserve"
   width="457.66666"
   height="190.52"
   viewBox="0 0 457.66666 190.52"
   sodipodi:docname="vfa.eps"><metadata
     id="metadata8"><rdf:RDF><cc:Work
         rdf:about=""><dc:format>image/svg+xml</dc:format><dc:type
           rdf:resource="http://purl.org/dc/dcmitype/StillImage" /></cc:Work></rdf:RDF></metadata><defs
     id="defs6" /><sodipodi:namedview
     pagecolor="#ffffff"
     bordercolor="#666666"
     borderopacity="1"
     objecttolerance="10"
     gridtolerance="10"
     guidetolerance="10"
     inkscape:pageopacity="0"
     inkscape:pageshadow="2"
     inkscape:window-width="640"
     inkscape:window-height="480"
     id="namedview4" /><g
     id="g10"
     inkscape:groupmode="layer"
     inkscape:label="ink_ext_XXXXXX"
     transform="matrix(1.3333333,0,0,-1.3333333,0,190.52)"><g
       id="g12"
       transform="scale(0.1)"><path
         d="M 927.262,270.898 V 226.441 H 809.859 v -76.359 h 93.848 V 107.141 H 809.859 V 4.55859 H 759.707 V 270.898 h 167.555"
         style="fill:#1b3254;fill-opacity:1;fill-rule:nonzero;stroke:none"
         id="path14" /><path
         d="m 1156.02,136.781 c 0,62.688 -32.68,89.66 -72.95,89.66 -40.28,0 -73.33,-27.351 -73.33,-90.421 0,-60.0317 33.05,-87.0083 73.33,-87.0083 39.89,0 72.95,27.3594 72.95,87.7693 z m 53.19,1.899 C 1209.21,52.8086 1147.28,0 1081.55,0 1016.58,0 956.926,49.3906 956.926,135.641 c 0,88.91 61.924,139.82 127.654,139.82 64.59,0 124.63,-47.492 124.63,-136.781"
         style="fill:#1b3254;fill-opacity:1;fill-rule:nonzero;stroke:none"
         id="path16" /><path
         d="m 1316.01,140.199 h 57.37 c 16.72,9.883 27.74,26.981 27.74,46.731 0,22.8 -14.06,42.558 -48.63,42.558 -9.12,0 -28.5,-0.758 -36.48,-1.519 z m 137.54,53.571 c 0,-35.329 -20.14,-63.071 -48.63,-77.508 24.69,-42.5511 52.81,-67.6331 74.85,-68.7737 L 1469.51,0.761719 C 1425.82,1.51953 1393.14,39.8984 1362.74,97.2695 h -46.73 V 4.55859 h -50.15 V 268.238 c 24.7,2.282 64.59,4.942 90.42,4.942 69.15,0 97.27,-35.711 97.27,-79.41"
         style="fill:#1b3254;fill-opacity:1;fill-rule:nonzero;stroke:none"
         id="path18" /><path
         d="m 1729.06,235.57 c -2.28,-14.82 -7.22,-36.48 -11.78,-51.672 l -23.56,-74.097 h 69.15 l -22.8,74.097 c -4.93,15.954 -9.11,36.852 -11.01,51.672 z M 1696,270.898 h 68.39 L 1851.4,4.55859 h -56.23 l -20.14,64.97271 h -94.22 L 1660.29,4.55859 h -53.58 L 1696,270.898"
         style="fill:#1b3254;fill-opacity:1;fill-rule:nonzero;stroke:none"
         id="path20" /><path
         d="m 1966.56,270.898 64.59,-170.207 65.35,170.207 h 61.55 L 2171.35,4.55859 H 2121.2 L 2114.36,137.16 c -1.52,26.981 -2.28,52.809 -1.14,77.129 -4.94,-23.937 -11.78,-45.98 -20.9,-68.008 L 2045.2,28.1094 h -32.67 L 1963.9,147.039 c -7.98,18.992 -16.34,43.691 -20.9,67.25 1.52,-23.937 1.14,-52.809 0,-76.75 L 1936.54,4.55859 h -48.63 l 12.92,266.33941 h 65.73"
         style="fill:#1b3254;fill-opacity:1;fill-rule:nonzero;stroke:none"
         id="path22" /><path
         d="M 2415.7,270.898 V 226.441 H 2294.12 V 161.48 h 94.6 v -42.941 h -94.6 V 49.0117 H 2415.7 V 4.55859 H 2243.96 V 270.898 h 171.74"
         style="fill:#1b3254;fill-opacity:1;fill-rule:nonzero;stroke:none"
         id="path24" /><path
         d="m 2529.72,140.199 h 57.37 c 16.72,9.883 27.73,26.981 27.73,46.731 0,22.8 -14.05,42.558 -48.63,42.558 -9.11,0 -28.49,-0.758 -36.47,-1.519 z m 137.54,53.571 c 0,-35.329 -20.14,-63.071 -48.64,-77.508 24.7,-42.5511 52.82,-67.6331 74.85,-68.7737 L 2683.21,0.761719 C 2639.52,1.51953 2606.85,39.8984 2576.45,97.2695 h -46.73 V 4.55859 h -50.15 V 268.238 c 24.69,2.282 64.59,4.942 90.42,4.942 69.15,0 97.27,-35.711 97.27,-79.41"
         style="fill:#1b3254;fill-opacity:1;fill-rule:nonzero;stroke:none"
         id="path26" /><path
         d="M 2793.43,270.898 V 4.55859 h -50.15 V 270.898 h 50.15"
         style="fill:#1b3254;fill-opacity:1;fill-rule:nonzero;stroke:none"
         id="path28" /><path
         d="m 3061.3,259.5 -17.09,-47.871 c -18.62,9.121 -39.89,13.68 -61.17,13.68 -41.04,0 -77.51,-26.219 -77.51,-88.149 0,-60.41 33.43,-88.5311 75.61,-88.5311 22.8,0 45.97,8.7422 61.55,20.5195 l 19.38,-39.5078 C 3035.85,8.73828 3006.22,0 2972.78,0 c -66.87,0 -119.3,48.6289 -119.3,132.219 0,94.222 63.07,143.242 129.56,143.242 27.73,0 55.09,-5.699 78.26,-15.961"
         style="fill:#1b3254;fill-opacity:1;fill-rule:nonzero;stroke:none"
         id="path30" /><path
         d="m 3204.58,235.57 c -2.28,-14.82 -7.22,-36.48 -11.78,-51.672 l -23.56,-74.097 h 69.15 l -22.79,74.097 c -4.94,15.954 -9.12,36.852 -11.02,51.672 z m -33.06,35.328 h 68.4 l 87,-266.33941 h -56.23 l -20.14,64.97271 h -94.22 L 3135.81,4.55859 h -53.57 l 89.28,266.33941"
         style="fill:#1b3254;fill-opacity:1;fill-rule:nonzero;stroke:none"
         id="path32" /><path
         d="m 3151.87,878.789 c 26.62,0 45.32,-20.91 45.32,-50.648 0,-53.387 -79.35,-99.621 -153.51,-107.934 3.63,95.203 57.93,158.582 108.19,158.582 z m -2396.405,0 c 25.715,0 44.293,-21.301 44.293,-50.648 0,-54.036 -79.231,-98.844 -153.656,-107.934 3.121,86.762 51.953,158.582 109.363,158.582 z M 3345.26,645.785 c -56.07,-59.769 -110.44,-88.894 -174.82,-87.93 -43.25,0 -77.41,14.418 -97.28,41.04 129.49,27.277 256.51,107.414 256.51,229.246 0,99.093 -76.36,176.759 -173.91,176.759 -174.96,4.94 -304.94,-256.837 -217.9,-430.224 -15.34,-11.504 -30.35,-16.039 -49.62,-16.039 -65.59,0 -66.35,102.117 -66.35,106.461 -0.21,79.711 13.69,148.55 46.81,237.879 l -73.92,84.011 c -89.16,-21.66 -186.95,-6.597 -234.85,35.672 -5.51,22.82 -11.52,44.23 -16.09,65.14 l -129.26,-29.04 c 20.25,-87.662 43.83,-152.061 45.09,-294.612 0,-98.98 -24.4,-205.511 -77.95,-205.511 -72.07,2.558 -76.21,173.32 -66.12,257.316 l -0.09,0.004 c 4,52.262 10.13,112.789 15.04,154.273 l -131.54,15.801 c -4.2,-38.644 -10.89,-102.004 -15.39,-159.359 l -0.07,0.004 c -3.01,-30.895 -21.3,-265.969 -124.78,-268.887 -70.66,0 -74.25,127.762 -74.25,153.371 -0.12,85.348 8.95,170.34 23.29,274.899 l -131.78,14.681 c -14.75,-109.904 -24.12,-197.052 -23.98,-289.58 0,-53.328 7.53,-97.707 20.3,-134.289 -88.84,-55.715 -139.85,8.938 -138.33,150.391 0,112.937 12.65,237.406 38.24,376.038 75.27,2.99 158.34,-1.82 249.25,-16.17 l 16.98,123.79 c -73.21,14.18 -154.83,22.91 -239.46,21.97 11.77,51.84 25.36,106.55 40.28,161.7 l -127.96,34.34 c -19.15,-70.95 -36.21,-140.79 -50.35,-206.57 -80.1,-11.85 -160.39,-34.23 -236.66,-70.78 l 49.11,-115.95 c 46.74,22.58 100.68,40.33 161.49,52.16 -22.36,-131.106 -33.39,-250.544 -33.39,-360.528 0,-54.703 6.42,-99.196 16.97,-135.606 -38.47,-44.304 -127.61,-62.957 -129.36,53.77 0,0.004 0,143.168 0,143.168 3.79,198.617 -198.75,300.726 -336.59,129.062 2.89,19.481 6.78,42.742 10.75,64.926 l -132.11,14.629 c -11.67,-101.465 -17.05,-199.414 -16.35,-297.106 -60.766,-89.164 -151.044,-142.25 -241.864,-142.25 -52.601,0 -81.433,20.524 -97.148,41.04 153.914,31.433 256.382,122.609 256.382,229.246 0,99.093 -76.371,176.759 -173.906,176.759 -132.863,0 -245.215,-141.173 -245.215,-308.076 7.864,-288.265 320.477,-333.535 509.231,-170.469 1.94,-25.726 4.33,-52.558 7.18,-79.085 1.12,0 132.59,0 133.62,0 -18.69,162.589 6.91,420.285 130.55,431.46 37.09,-0.003 63,-37.066 63,-90.136 V 639.102 c -0.09,-191.211 194.16,-267.114 323.97,-156.262 86.46,-76.488 189.65,-58.891 257.73,-6.496 92.47,-76.473 220.87,-51.844 288.75,44.496 49.73,-79.848 124.15,-88.902 154.58,-88.902 133.04,-2.223 238.21,144.062 205.14,437.082 38.4,-11.426 81.63,-17.411 128.01,-17.321 -17.13,-66.871 -25.45,-128.008 -25.45,-186.601 -4.67,-197.676 183.37,-299.817 328.79,-186.344 133.11,-90.574 307.23,-45.621 414.33,81.699 l -87.28,85.332"
         style="fill:#e8473d;fill-opacity:1;fill-rule:nonzero;stroke:none"
         id="path34" /><path
         d="m 700.895,1290.69 c -23.985,18.65 -82.618,64.26 -107.219,83.4 C 458.551,1203.41 320.484,947.938 263.281,622.262 159.305,796.328 119.578,1003.55 141.711,1245.24 L 6.23438,1256.88 C -19.8047,1023.11 32.1875,675.406 229.141,439.258 h 137.984 c 46.781,349.336 152.715,621.332 333.77,851.432"
         style="fill:#e8473d;fill-opacity:1;fill-rule:nonzero;stroke:none"
         id="path36" /></g></g></svg>
