<svg width="1127" height="157" viewBox="0 0 1127 157" fill="none" xmlns="http://www.w3.org/2000/svg">
<path d="M0 3V12.3058L0.0570943 61.3993C0.0570943 67.9557 7.18339 72.5663 14.0579 70.4811C54.1837 58.2829 102.579 50.9966 151.856 63.1485C178.654 69.7561 196.99 79.9606 214.144 89.5079C233.622 100.348 251.578 110.342 278.673 113.262C312.188 116.875 357.975 109.485 416.986 67.0409C447.847 125.714 517.495 161.521 589.557 156.54C652.731 152.161 708.573 117.084 734.458 65.9056C761.224 91.0429 800.091 118.683 845.113 116.644C872.652 115.396 891.033 103.57 911.183 90.6052C928.829 79.2513 947.833 67.0244 975.533 60.2639C1005.18 53.0239 1048.02 51.2517 1107.52 73.7016C1116.8 77.2001 1127.01 71.0487 1127 61.9786L1126.95 23.2989H1127V3H0Z" fill="#C76931"/>
<path d="M581.8 46.7041C609.738 75.8305 613.709 109.407 601.68 122.709C591.883 133.537 569.118 133.549 559.733 122.709C548.299 109.5 553.553 76.4579 581.8 46.7041Z" fill="#E8D7A5" stroke="#F5F2D0" stroke-width="4.8378" stroke-miterlimit="10"/>
<path d="M532.298 46.2393C531.051 78.7815 512.841 104.097 497.539 108.257C485.087 111.637 471.558 101.809 472.623 90.1441C473.916 75.9235 497.287 54.9644 532.298 46.2393Z" fill="#E8D7A5" stroke="#F5F2D0" stroke-width="4.8378" stroke-miterlimit="10"/>
<path d="M627.386 45.4839C661.333 54.2207 684.235 76.1323 685.483 90.5271C686.501 102.238 673.396 111.788 661.356 108.117C646.66 103.632 629.401 78.2235 627.386 45.4839Z" fill="#E8D7A5" stroke="#F5F2D0" stroke-width="4.8378" stroke-miterlimit="10"/>
<path d="M371.171 52.1877C349.311 78.8279 317.127 92.6185 301.012 89.9348C287.895 87.7506 282.264 74.111 290.642 64.8049C300.863 53.4657 334.798 45.3796 371.171 52.1877Z" fill="#E8D7A5" stroke="#F5F2D0" stroke-width="4.8378" stroke-miterlimit="10"/>
<path d="M766.046 46.3554C801.836 40.0352 835.817 49.5503 845.786 61.424C853.9 71.0902 848.04 84.6485 834.981 86.3912C819.072 88.5289 787.987 73.7043 766.046 46.3554Z" fill="#E8D7A5" stroke="#F5F2D0" stroke-width="4.8378" stroke-miterlimit="10"/>
<path d="M290.825 41.0804C271.769 58.7399 245.754 69.0685 233.507 68.325C223.527 67.7208 220.276 59.6229 227.51 53.4072C236.334 45.8438 263.242 38.9426 290.825 41.0804Z" fill="#E8D7A5" stroke="#F5F2D0" stroke-width="4.8378" stroke-miterlimit="10"/>
<path d="M844.996 36.9914C869.661 34.54 894.463 41.0692 902.532 48.1794C909.101 53.9652 906.183 61.517 897.129 62.0979C886.108 62.795 862.874 53.3263 844.996 36.9914Z" fill="#E8D7A5" stroke="#F5F2D0" stroke-width="4.8378" stroke-miterlimit="10"/>
<path d="M1103.5 1C1103.5 1 1109.53 41.0807 1108.2 46.0648C1104.52 59.9716 1072.89 34.2724 1028.27 29.0094C996.578 25.2684 938.481 27.7665 918.681 43.962" stroke="#F5F2D0" stroke-width="2.9327" stroke-miterlimit="10"/>
<path d="M211.67 46.0765C191.869 29.8694 133.761 27.3833 102.081 31.1243C57.4554 36.3872 27.1711 60.634 21.5401 47.3313C18.8962 41.104 29.5 23.9345 29.5 1.5" stroke="#F5F2D0" stroke-width="2.9386" stroke-miterlimit="10"/>
</svg>
