<svg width="1129" height="1411" viewBox="0 0 1129 1411" fill="none" xmlns="http://www.w3.org/2000/svg">
<path d="M1128.25 136.817H1128.3V1276.39H1128.25L1128.3 1315.18C1128.31 1324.28 1118.09 1330.44 1108.81 1326.94C1049.27 1304.42 1006.41 1306.2 976.741 1313.46C917.374 1327.98 897.928 1367.66 846.241 1370C801.192 1372.05 762.301 1344.33 735.519 1319.12C709.618 1370.45 653.742 1405.62 590.53 1410.02C518.425 1415.01 448.734 1379.1 417.855 1320.26C358.808 1362.82 312.993 1370.24 279.458 1366.61C228.469 1361.1 209.825 1330.5 152.564 1316.35C103.257 1304.16 54.8322 1311.47 14.682 1323.71C7.80338 1325.8 0.672948 1321.17 0.672948 1314.6L0.627168 1276.39L0.615723 1265.36V145.147L0.627168 136.805L0.672948 95.898C0.684394 89.3338 7.80338 84.6982 14.682 86.801C54.8436 99.0349 103.257 106.343 152.564 94.1553C209.825 80.0045 228.48 49.4025 279.458 43.8956C312.981 40.2707 358.808 47.6831 417.855 90.2516C448.734 31.4062 518.425 -4.51687 590.53 0.490511C653.731 4.87052 709.618 40.0616 735.519 91.3902C762.301 66.179 801.181 38.4583 846.241 40.5031C897.917 42.8499 917.362 82.5256 976.741 97.0482C1006.41 104.309 1049.27 106.075 1108.81 83.5712C1118.08 80.0742 1128.31 86.2434 1128.3 95.3287L1128.25 136.817Z" fill="#C76931"/>
<path d="M58.9526 1231.52V173.483C58.9526 159.751 69.9172 148.621 83.4456 148.621H1044.57C1058.09 148.621 1069.06 159.751 1069.06 173.483V1231.52C1069.06 1245.25 1058.09 1256.38 1044.57 1256.38H83.4456C69.9172 1256.38 58.9526 1245.25 58.9526 1231.52Z" fill="#08151B"/>
<path d="M581.088 1298.7C609.026 1327.83 612.997 1361.41 600.968 1374.71C591.171 1385.54 568.406 1385.55 559.021 1374.71C547.587 1361.5 552.84 1328.46 581.088 1298.7Z" fill="#E8D7A5" stroke="#F5F2D0" stroke-width="4.8378" stroke-miterlimit="10"/>
<path d="M531.587 1298.24C530.339 1330.78 512.13 1356.1 496.827 1360.26C484.375 1363.64 470.847 1353.81 471.911 1342.14C473.204 1327.92 496.576 1306.96 531.587 1298.24Z" fill="#E8D7A5" stroke="#F5F2D0" stroke-width="4.8378" stroke-miterlimit="10"/>
<path d="M626.674 1297.48C660.621 1306.22 683.523 1328.13 684.771 1342.53C685.789 1354.24 672.684 1363.79 660.644 1360.12C645.948 1355.63 628.689 1330.22 626.674 1297.48Z" fill="#E8D7A5" stroke="#F5F2D0" stroke-width="4.8378" stroke-miterlimit="10"/>
<path d="M370.46 1304.19C348.599 1330.83 316.415 1344.62 300.3 1341.93C287.184 1339.75 281.553 1326.11 289.93 1316.8C300.151 1305.47 334.086 1297.38 370.46 1304.19Z" fill="#E8D7A5" stroke="#F5F2D0" stroke-width="4.8378" stroke-miterlimit="10"/>
<path d="M765.334 1298.36C801.124 1292.04 835.105 1301.55 845.074 1313.42C853.189 1323.09 847.329 1336.65 834.27 1338.39C818.361 1340.53 787.275 1325.7 765.334 1298.36Z" fill="#E8D7A5" stroke="#F5F2D0" stroke-width="4.8378" stroke-miterlimit="10"/>
<path d="M290.114 1293.08C271.057 1310.74 245.042 1321.07 232.796 1320.32C222.815 1319.72 219.565 1311.62 226.798 1305.41C235.623 1297.84 262.531 1290.94 290.114 1293.08Z" fill="#E8D7A5" stroke="#F5F2D0" stroke-width="4.8378" stroke-miterlimit="10"/>
<path d="M844.284 1288.99C868.949 1286.54 893.751 1293.07 901.82 1300.18C908.389 1305.96 905.471 1313.52 896.418 1314.1C885.396 1314.79 862.162 1305.33 844.284 1288.99Z" fill="#E8D7A5" stroke="#F5F2D0" stroke-width="4.8378" stroke-miterlimit="10"/>
<path d="M581.42 110.386C609.358 81.2594 613.329 47.6832 601.3 34.3805C591.503 23.5525 568.738 23.5409 559.353 34.3805C547.919 47.5902 553.172 80.632 581.42 110.386Z" fill="#E8D7A5" stroke="#F6F4D2" stroke-width="5" stroke-miterlimit="10"/>
<path d="M531.919 110.839C530.671 78.2967 512.461 52.981 497.159 48.8217C484.707 45.4409 471.178 55.2698 472.243 66.9343C473.536 81.1548 496.907 102.125 531.919 110.839Z" fill="#E8D7A5" stroke="#F5F2D0" stroke-width="4.8378" stroke-miterlimit="10"/>
<path d="M627.006 111.594C660.953 102.857 683.855 80.9457 685.103 66.5509C686.121 54.8399 673.017 45.2899 660.976 48.9612C646.28 53.4574 629.021 78.8544 627.006 111.594Z" fill="#E8D7A5" stroke="#F5F2D0" stroke-width="4.8378" stroke-miterlimit="10"/>
<path d="M370.78 104.89C348.919 78.2619 316.735 64.4596 300.62 67.1434C287.504 69.3276 281.873 82.9672 290.251 92.2732C300.483 103.624 334.418 111.699 370.78 104.89Z" fill="#E8D7A5" stroke="#F5F2D0" stroke-width="4.8378" stroke-miterlimit="10"/>
<path d="M765.666 110.723C801.455 117.043 835.437 107.528 845.405 95.654C853.52 85.9878 847.66 72.4295 834.601 70.6868C818.681 68.5491 787.595 83.3737 765.666 110.723Z" fill="#E8D7A5" stroke="#F5F2D0" stroke-width="4.8378" stroke-miterlimit="10"/>
<path d="M290.445 115.997C271.389 98.3262 245.374 88.0094 233.127 88.753C223.147 89.3571 219.896 97.4549 227.13 103.671C235.954 111.246 262.862 118.147 290.445 115.997Z" fill="#E8D7A5" stroke="#F5F2D0" stroke-width="4.8378" stroke-miterlimit="10"/>
<path d="M844.604 120.099C869.269 122.55 894.071 116.021 902.14 108.91C908.71 103.125 905.791 95.5728 896.738 94.9919C885.716 94.2832 862.494 103.764 844.604 120.099Z" fill="#E8D7A5" stroke="#F5F2D0" stroke-width="4.8378" stroke-miterlimit="10"/>
<path d="M917.969 113.685C937.77 129.893 995.877 132.379 1027.56 128.638C1072.18 123.375 1103.81 97.6757 1107.49 111.583C1108.81 116.567 1103.52 145.96 1103.52 145.96V1263.16C1103.52 1263.16 1108.82 1293.08 1107.49 1298.06C1103.81 1311.97 1072.18 1286.27 1027.56 1281.01C995.866 1277.27 937.77 1279.77 917.969 1295.96" stroke="#F5F2D0" stroke-width="2.9327" stroke-miterlimit="10"/>
<path d="M210.958 1298.08C191.157 1281.87 133.05 1279.38 101.369 1283.12C56.7437 1288.39 26.4594 1312.63 20.8283 1299.33C18.1844 1293.1 26.1046 1288.11 26.1046 1265.67L26.2763 144.345C26.2763 121.911 18.173 116.578 20.8168 110.351C26.4594 97.0483 56.7322 121.284 101.358 126.558C133.05 130.299 191.146 127.801 210.946 111.606" stroke="#F5F2D0" stroke-width="2.9386" stroke-miterlimit="10"/>
<path d="M819.752 228.538V264.786C819.752 268.051 815.963 270.7 811.294 270.7H804.598C799.928 270.7 796.14 273.349 796.14 276.614V281.307C796.14 284.572 792.352 287.221 787.682 287.221H339.655C334.986 287.221 331.197 284.572 331.197 281.307V276.614C331.197 273.349 327.409 270.7 322.739 270.7H316.044C311.374 270.7 307.585 268.051 307.585 264.786V228.538C307.585 225.273 311.374 222.624 316.044 222.624H322.739C327.409 222.624 331.197 219.975 331.197 216.711V212.017C331.197 208.752 334.986 206.104 339.655 206.104H787.693C792.363 206.104 796.151 208.752 796.151 212.017V216.711C796.151 219.975 799.94 222.624 804.61 222.624H811.305C815.975 222.613 819.752 225.262 819.752 228.538Z" stroke="#F7F4D3" stroke-width="0.7787" stroke-miterlimit="10"/>
<path d="M834.287 223.252V275.347C834.287 280.041 830.293 283.851 825.372 283.851H818.298C813.377 283.851 809.382 287.662 809.382 292.356V299.094C809.382 303.788 805.388 307.599 800.467 307.599H327.821C322.899 307.599 318.905 303.788 318.905 299.094V292.356C318.905 287.662 314.911 283.851 309.989 283.851H302.916C297.994 283.851 294 280.041 294 275.347V223.252C294 218.558 297.994 214.747 302.916 214.747H309.989C314.911 214.747 318.905 210.937 318.905 206.243V199.504C318.905 194.811 322.899 191 327.821 191H800.467C805.388 191 809.382 194.811 809.382 199.504V206.243C809.382 210.937 813.377 214.747 818.298 214.747H825.372C830.293 214.747 834.287 218.558 834.287 223.252Z" stroke="#F7F4D3" stroke-width="0.9588" stroke-miterlimit="10"/>
<path d="M319.225 249.311C320.666 249.311 321.835 248.125 321.835 246.662C321.835 245.199 320.666 244.013 319.225 244.013C317.784 244.013 316.616 245.199 316.616 246.662C316.616 248.125 317.784 249.311 319.225 249.311Z" fill="#F7F4D3"/>
<path d="M808.123 249.311C809.564 249.311 810.733 248.125 810.733 246.662C810.733 245.199 809.564 244.013 808.123 244.013C806.682 244.013 805.514 245.199 805.514 246.662C805.514 248.125 806.682 249.311 808.123 249.311Z" fill="#F7F4D3"/>
</svg>
