<svg width="1127" height="149" viewBox="0 0 1127 149" fill="none" xmlns="http://www.w3.org/2000/svg">
<path d="M1127 136.79H1126.95L1127 95.3018C1127.01 86.2166 1116.79 80.0474 1107.52 83.5444C1048.02 106.049 1005.18 104.283 975.533 97.0212C947.824 90.2402 928.816 77.9749 911.167 66.5864C891.019 53.5855 872.642 41.7273 845.113 40.4763C800.08 38.4314 761.224 66.1521 734.458 91.3633C708.573 40.0347 652.719 4.84377 589.556 0.463645C517.495 -4.54368 447.847 31.3794 416.986 90.2249C357.975 47.6563 312.176 40.2439 278.673 43.8687C251.586 46.7966 233.63 56.8184 214.152 67.69C196.994 77.2659 178.656 87.5012 151.856 94.1284C102.579 106.316 54.1949 99.0081 14.0579 86.7742C7.18339 84.6714 0.0685619 89.3069 0.0570943 95.8711L0 145.12V149H1127V136.79Z" fill="#C76931"/>
<path d="M581.8 111.13C609.738 82.0041 613.709 48.428 601.68 35.1254C591.883 24.2974 569.118 24.2857 559.733 35.1254C548.299 48.3351 553.553 81.3767 581.8 111.13Z" fill="#E8D7A5" stroke="#F5F2D0" stroke-width="4.8378" stroke-miterlimit="10"/>
<path d="M532.299 111.596C531.051 79.0533 512.842 53.7375 497.539 49.5782C485.087 46.1974 471.559 56.0262 472.623 67.6908C473.916 81.9113 497.288 102.87 532.299 111.596Z" fill="#E8D7A5" stroke="#F5F2D0" stroke-width="4.8378" stroke-miterlimit="10"/>
<path d="M627.386 112.351C661.333 103.614 684.235 81.7023 685.483 67.3075C686.501 55.5965 673.397 46.0465 661.356 49.7178C646.66 54.2023 629.401 79.611 627.386 112.351Z" fill="#E8D7A5" stroke="#F5F2D0" stroke-width="4.8378" stroke-miterlimit="10"/>
<path d="M371.172 105.647C349.311 79.0069 317.127 65.2163 301.012 67.9001C287.896 70.0843 282.265 83.7239 290.643 93.0299C300.863 104.369 334.799 112.455 371.172 105.647Z" fill="#E8D7A5" stroke="#F5F2D0" stroke-width="4.8378" stroke-miterlimit="10"/>
<path d="M766.046 111.479C801.836 117.8 835.817 108.284 845.786 96.4107C853.901 86.7445 848.041 73.1863 834.982 71.4435C819.073 69.3058 787.987 84.1304 766.046 111.479Z" fill="#E8D7A5" stroke="#F5F2D0" stroke-width="4.8378" stroke-miterlimit="10"/>
<path d="M290.826 116.754C271.769 99.0947 245.754 88.7661 233.507 89.5096C223.527 90.1138 220.277 98.2117 227.51 104.427C236.334 111.991 263.242 118.892 290.826 116.754Z" fill="#E8D7A5" stroke="#F5F2D0" stroke-width="4.8378" stroke-miterlimit="10"/>
<path d="M844.996 120.843C869.661 123.295 894.463 116.766 902.532 109.655C909.101 103.87 906.183 96.3178 897.13 95.7369C886.108 95.0398 862.874 104.509 844.996 120.843Z" fill="#E8D7A5" stroke="#F5F2D0" stroke-width="4.8378" stroke-miterlimit="10"/>
<path d="M1103.5 147C1103.5 147 1109.53 116.754 1108.2 111.77C1104.52 97.8631 1072.9 123.562 1028.27 128.825C996.578 132.566 938.482 130.068 918.681 113.873" stroke="#F5F2D0" stroke-width="2.9327" stroke-miterlimit="10"/>
<path d="M211.67 111.758C191.869 127.965 133.762 130.452 102.081 126.711C57.4557 121.448 27.1714 97.2009 21.5403 110.504C18.8964 116.731 29.5 125.066 29.5 147.5" stroke="#F5F2D0" stroke-width="2.9386" stroke-miterlimit="10"/>
</svg>
