<svg width="544" height="121" viewBox="0 0 544 121" fill="none" xmlns="http://www.w3.org/2000/svg">
<path d="M542.287 34.2517V86.3471C542.287 91.0408 538.293 94.8515 533.372 94.8515H526.298C521.377 94.8515 517.382 98.6622 517.382 103.356V110.094C517.382 114.788 513.388 118.599 508.467 118.599H35.8209C30.8994 118.599 26.905 114.788 26.905 110.094V103.356C26.905 98.6622 22.9106 94.8515 17.9891 94.8515H10.9159C5.99442 94.8515 2 91.0408 2 86.3471V34.2517C2 29.558 5.99442 25.7473 10.9159 25.7473H17.9891C22.9106 25.7473 26.905 21.9366 26.905 17.2429V10.5044C26.905 5.81073 30.8994 2 35.8209 2H508.467C513.388 2 517.382 5.81073 517.382 10.5044V17.2429C517.382 21.9366 521.377 25.7473 526.298 25.7473H533.372C538.293 25.7473 542.287 29.558 542.287 34.2517Z" fill="#08151B" stroke="#F6F4D4" stroke-width="3" stroke-miterlimit="10"/>
<path d="M527.752 42.4345V78.6828C527.752 81.9475 523.963 84.5964 519.294 84.5964H512.598C507.928 84.5964 504.14 87.2453 504.14 90.51V95.2037C504.14 98.4684 500.352 101.117 495.682 101.117H47.6552C42.9855 101.117 39.1971 98.4684 39.1971 95.2037V90.51C39.1971 87.2453 35.4087 84.5964 30.739 84.5964H24.0436C19.3739 84.5964 15.5854 81.9475 15.5854 78.6828V42.4345C15.5854 39.1698 19.3739 36.5209 24.0436 36.5209H30.739C35.4087 36.5209 39.1971 33.872 39.1971 30.6073V25.9136C39.1971 22.6489 42.9855 20 47.6552 20H495.693C500.363 20 504.151 22.6489 504.151 25.9136V30.6073C504.151 33.872 507.94 36.5209 512.61 36.5209H519.305C523.975 36.5093 527.752 39.1582 527.752 42.4345Z" fill="#08151B" stroke="#F7F4D3" stroke-width="3" stroke-miterlimit="10"/>
<path d="M27.2255 60.311C28.6667 60.311 29.835 59.125 29.835 57.6621C29.835 56.1991 28.6667 55.0132 27.2255 55.0132C25.7843 55.0132 24.616 56.1991 24.616 57.6621C24.616 59.125 25.7843 60.311 27.2255 60.311Z" fill="#F7F4D3"/>
<path d="M516.123 63.2978C517.565 63.2978 518.733 62.1119 518.733 60.6489C518.733 59.186 517.565 58 516.123 58C514.682 58 513.514 59.186 513.514 60.6489C513.514 62.1119 514.682 63.2978 516.123 63.2978Z" fill="#F7F4D3"/>
</svg>
